<?xml version="1.0" encoding="UTF-8"?>
<svg id="Ebene_2" data-name="Ebene 2" xmlns="http://www.w3.org/2000/svg" viewBox="0 0 874.95 813.63">
  <defs>
    <style>
      .cls-1 {
        fill: #ff6b35;
      }
    </style>
  </defs>
  <g id="Ebene_1-2" data-name="Ebene 1">
    <path class="cls-1" d="M135.8,242.53H22.3c-12.3,0-22.3,10-22.3,22.3V791.23c0,12.3,10,22.3,22.3,22.3h113.5c12.3,0,22.3-10,22.3-22.3V264.83c0-12.3-10-22.3-22.3-22.3Zm-2.9,528.2H25.1v-25.4h107.8v25.4Zm16.5-566.9H8.2C3.7,203.83,0,200.13,0,195.63v-29.1C0,162.03,3.7,158.33,8.2,158.33H149.4c4.5,0,8.2,3.7,8.2,8.2v29.1c0,4.5-3.7,8.2-8.2,8.2Zm-10.5-84.3H18.7C8.4,119.53,0,111.13,0,100.83V26.93C0,16.63,8.4,8.23,18.7,8.23h120.2c10.3,0,18.7,8.4,18.7,18.7V100.83c0,10.4-8.4,18.7-18.7,18.7Zm446.5,123h-113.6c-12.3,0-22.3,10-22.3,22.3V791.23c0,12.3,10,22.3,22.3,22.3h113.5c12.3,0,22.3-10,22.3-22.3V264.83c0-12.3-9.9-22.3-22.2-22.3Zm-56.8,530c-19.5,0-35.3-15.8-35.3-35.3s15.8-35.3,35.3-35.3,35.3,15.8,35.3,35.3-15.8,35.3-35.3,35.3Zm70.3-568.7h-141.1c-4.5,0-8.2-3.7-8.2-8.2v-29.1c0-4.5,3.7-8.2,8.2-8.2h141.2c4.5,0,8.2,3.7,8.2,8.2v29.1c-.1,4.5-3.7,8.2-8.3,8.2h0Zm-10.5-84.3h-120.2c-10.3,0-18.7-8.4-18.7-18.7V26.93c0-10.3,8.4-18.7,18.7-18.7h120.2c10.3,0,18.7,8.4,18.7,18.7V100.83c0,10.4-8.3,18.7-18.7,18.7Zm202.6,113.8l-112.8,12.8c-12.2,1.4-21,12.4-19.6,24.6l59.2,523.1c1.4,12.2,12.4,21,24.6,19.6l112.8-12.8c12.2-1.4,21-12.4,19.6-24.6l-59.2-523.1c-1.3-12.2-12.4-21-24.6-19.6h0Zm9.1-40.1l-140.3,15.9c-4.5,.5-8.6-2.7-9.1-7.2l-3.3-29c-.5-4.5,2.7-8.6,7.2-9.1l140.3-15.9c4.5-.5,8.6,2.7,9.1,7.2l3.3,29c.6,4.5-2.7,8.6-7.2,9.1Zm-19.8-82.5l-119.4,13.5c-10.3,1.2-19.5-6.2-20.7-16.5l-8.3-73.4c-1.2-10.3,6.2-19.5,16.5-20.7L767.8,.13c10.3-1.2,19.5,6.2,20.7,16.5l8.3,73.4c1.1,10.3-6.3,19.5-16.5,20.7h0ZM372.9,373.83H234.8c-15,0-27.1,10-27.1,22.3v395.2c0,12.3,12.1,22.3,27.1,22.3h138.1c15,0,27.1-10,27.1-22.3V396.13c0-12.3-12.2-22.3-27.1-22.3Zm-157-41.6h175.2c4.6,0,8.3-3.7,8.3-8.3v-29c0-4.6-3.7-8.3-8.3-8.3H215.9c-4.6,0-8.3,3.7-8.3,8.3v29c.1,4.6,3.8,8.3,8.3,8.3h0Zm10.6-84.2h154c10.4,0,18.8-8.4,18.8-18.8v-73.6c0-10.4-8.4-18.8-18.8-18.8H226.5c-10.4,0-18.8,8.4-18.8,18.8v73.6c0,10.4,8.4,18.8,18.8,18.8Z"/>
  </g>
</svg>