<?xml version="1.0" encoding="UTF-8"?>
<svg id="Ebene_2" data-name="Ebene 2" xmlns="http://www.w3.org/2000/svg" viewBox="0 0 874.91 718.56">
  <defs>
    <style>
      .cls-1 {
        fill: #ff6b35;
      }
    </style>
  </defs>
  <g id="Ebene_1-2" data-name="Ebene 1">
    <path class="cls-1" d="M827.31,115.4c-14.3-.8-28.6-1.4-42.9-2.1-5.3-.2-8.8-1.2-10.7-7.7-1.6-5.5-6.8-10.1-11.7-17,10.4-27.2,21.8-56.9,33.1-86.5l-2-2.1c-7.3,5-14.5,10.2-21.9,15-17.3,11.3-34.9,22.3-52,34-4.1,2.8-8.2,7.1-10,11.7-8.7,21.3-16.4,42.9-24.8,64.3-1.3,3.2-3.5,6.7-6.2,8.6-16.3,11-32.9,21.7-49.8,32.7C564.21,82.5,480.51,34,375.81,25.1c-92.1-7.8-175.1,18.1-246.9,76.4C-13.29,216.7-39.99,418,59.51,565.2c105.2,155.6,308.7,196.3,462.7,106,161-94.3,204.7-283,149.9-420.5-19.4,12.6-38.9,24.8-57.8,37.8-1.9,1.3-1.9,7.2-1,10.5,7.6,28.9,11,58.2,9.1,88-4.8,76.3-35.7,140.3-92.9,190.6-58.4,51.4-127.4,74.5-204.9,68.1-138.1-11.3-245.2-122.8-252.6-261.5C63.31,221.6,202.61,84.4,365.41,96.1c79.1,5.7,144.3,39.7,195.3,100.5,2.1,2.5,4,5.3,6,8.2l-72.9,47.3c-40.1-47-91.6-71.3-154.1-69.2-44.1,1.5-83.3,17.3-116.4,46.8-70.6,62.8-84.6,163.4-34.2,243.4,47.9,76,146.2,107,230.3,72.3,87.2-36,127.8-126,113.2-204-7.5,4.8-14.7,9.2-21.7,13.8-13.5,8.7-27.2,17.1-40.2,26.3-3.9,2.8-7.5,7.7-8.5,12.3-13.3,57.1-57.8,93.4-116,94-63.1,.7-117.6-55.2-115.5-118.5,2.5-75.9,71.7-129.3,145-111.5,22.2,5.4,41.2,16.6,57.7,34.5-17.8,11.5-35,22.9-52.5,33.7-1.9,1.2-6.1-.3-8.8-1.6-21.1-10.4-44.7-7.1-61.2,8.8-16.4,15.8-20.8,39.9-11.2,60.7,10,21.5,34.4,33.8,58,29.2,23.3-4.6,41.1-24.4,42.2-48.1,.3-6.1,2.6-9.5,7.6-12.7,97.6-63,195.1-126.3,292.8-189.3,3.9-2.5,9.2-4.4,13.8-4.2,23,.8,45.9,2.5,68.8,3.7,3.5,.2,7.8,.2,10.6-1.6,26.4-16.8,52.6-33.9,81.4-52.6-17.6-1.2-32.6-2.1-47.6-2.9h0Z"/>
  </g>
</svg>