<?xml version="1.0" encoding="UTF-8"?>
<svg id="Ebene_2" data-name="Ebene 2" xmlns="http://www.w3.org/2000/svg" viewBox="0 0 875 875">
  <defs>
    <style>
      .cls-1 {
        fill: #ff6b35;
      }
    </style>
  </defs>
  <g id="Ebene_1-2" data-name="Ebene 1">
    <path class="cls-1" d="M0,435.8c-.2,242.9,196.4,439.4,439.3,439.2,239.3-.2,435.7-197.7,435.7-438.2S678.2-.2,437,0C197.5,.2,.1,196.9,0,435.8Zm824.8,2.8c-.4,212.9-174.6,386.5-387.7,386.2-213.7-.3-387.1-174.2-386.9-388,.2-212.4,176.1-387.3,389.1-386.6,212.7,.7,385.9,175.2,385.5,388.4Zm-432.8-16.6c-1,3.7-1.6,7.5-1.6,11.5-.3,25.7,19.8,46.1,45.6,46,15.5,0,29.3-7.7,37.8-19.4,2.1-2.9,3.7-5.5,4.1-5.5h.7c94.2,.2,188.5,.1,282.7,.1h8c3.5,0,6.4-2.9,6.4-6.4v-20.2c0-3.5-2.9-6.4-6.4-6.4h-7.4c-93.5,0-186.9,0-280.4,.1h-.3c-.1,0-1-2.8-2.4-6.1-7.1-16.3-23.4-28-42-28.1-4.2,0-8.3,.6-12.2,1.7-3.4,1-8.1,.2-10.7-2.3-34-33-67.9-66.1-101.5-99.4-11-10.9-21.4-22.5-31.9-33.9-2.4-2.6-6.4-2.7-8.9-.2-6,6-11.1,11.1-16.4,16.3-2.5,2.5-2.5,6.6,0,9,45.3,44.5,90,88.4,134.5,132.6,2.3,2.5,3.2,7.1,2.3,10.6h0Z"/>
  </g>
</svg>