<?xml version="1.0" encoding="UTF-8"?>
<svg id="Ebene_2" data-name="Ebene 2" xmlns="http://www.w3.org/2000/svg" viewBox="0 0 1000 922.6">
  <defs>
    <style>
      .cls-1 {
        fill: #ff6b35;
      }
    </style>
  </defs>
  <g id="Ebene_1-2" data-name="Ebene 1">
    <path class="cls-1" d="M796.7,515.9c-1.2,0-2.4,.1-3.6,.2l-14.4-114.2c-.8-6.2-3.6-11.5-7-16,.6-1.1-1.8-2.3-1.8-2.3-4.4-4.8-9.9-7.6-16.1-8.2l-212.7-107,24.2-33.7-101.3-72.9L248.1,461.9l29.5,21.3h-45.3v35c-9.5-1.4-19.1-2.3-29-2.3C91,515.9,0,606.8,0,719.2s91,203.4,203.3,203.4,203.4-91.1,203.4-203.4c0-11.9-1.3-23.5-3.2-34.8l77.2-32v152.2h92.7v-190.6l71.2-29.4c-31.9,35.9-51.2,82.9-51.2,134.6,0,112.3,91,203.4,203.3,203.4s203.3-91.1,203.3-203.4-91-203.3-203.3-203.3h0Zm-301-184.4l234.4,118.1H410.7l85-118.1h0Zm222.2,168.3l-157.6,65.3-84.5-65.3h242.1Zm-411.7,24.5l-8.7,14.8c-11.5-6-23.6-11-36.3-14.8h45Zm63.5,194.9c0,91.8-74.6,166.4-166.4,166.4s-166.3-74.6-166.3-166.4,74.6-166.4,166.3-166.4c27.1,0,52.5,7.2,75.1,18.8l-90,152.9c-.3,.6-.3,1.3-.7,1.9-.6,1.5-1.1,3-1.5,4.6s-.8,3.1-.9,4.8c-.2,1.5,.1,2.9,.3,4.4,.2,1.8,.4,3.5,1,5.2,.2,.6,.2,1.2,.5,1.8,.3,.9,1.1,1.4,1.5,2.3,.8,1.5,1.8,2.9,3,4.2,1,1.3,2.3,2.3,3.6,3.3,.8,.5,1.3,1.4,2.1,1.9,.6,.3,1.3,.3,2,.6,1.5,.8,3,1.2,4.6,1.6,1.7,.5,3.1,.8,4.8,.9,1.5,.1,2.9-.1,4.5-.3,1.7-.2,3.4-.5,5.1-1,.6-.2,1.2-.2,1.8-.5l147.6-61c.8,6.6,2,13.2,2,20h0Zm-15.3-68.9l-84.6,35,49.9-84.7c14.4,14.2,26.1,31.1,34.7,49.7Zm-15.5-82.4l16.4-27.9,92.7,71.6-59.2,24.5c-11.7-26.2-28.8-49.3-49.9-68.2h0Zm457.8,317.7c-91.8,0-166.4-74.6-166.4-166.4,0-74,48.8-136.1,115.8-157.6l19.9,157.3c2.1,16.8,15.4,28.8,29.7,27,14.4-1.8,24.2-16.8,22.1-33.5l-20.1-159.5c91.3,.6,165.3,74.9,165.3,166.3s-74.6,166.4-166.3,166.4h0ZM565.3,195.9c54.1,0,97.9-43.8,97.9-97.9S619.4,0,565.3,0s-98,43.8-98,98,43.9,97.9,98,97.9Zm21.5,615.7h-91.7c-15.3,0-27.8,12.4-27.8,27.7s12.5,27.8,27.8,27.8h91.7c15.3,0,27.7-12.5,27.7-27.8s-12.4-27.7-27.7-27.7Z"/>
  </g>
</svg>