<?xml version="1.0" encoding="UTF-8"?>
<svg id="Ebene_2" data-name="Ebene 2" xmlns="http://www.w3.org/2000/svg" viewBox="0 0 875 701.21">
  <defs>
    <style>
      .cls-1 {
        fill: #ff6b35;
      }
    </style>
  </defs>
  <g id="Ebene_1-2" data-name="Ebene 1">
    <path class="cls-1" d="M286.2,288.8c49.2,130.4,97.9,259.7,147.6,391.5,2,5.4,5.3,5.3,7.3,0,49.8-132.1,98.5-261.5,147.6-391.5,2-5.4-1-9.7-6.7-9.7H292.9c-5.7,0-8.7,4.4-6.7,9.7h0Zm-278.9-2.1c132.6,136.8,263.6,272.1,394.7,407.3,4,4.1,7.6,7.2,8,6.8,.4-.3-.8-4.9-2.9-10.3L255.7,288.9c-2-5.4-8.3-9.7-14-9.7H10.4c-5.7,.1-7.1,3.4-3.1,7.5h0Zm611.2,3.6c-42.9,114.3-86,228.5-129,342.8-7.3,19.3-14.5,38.7-21.7,58-2,5.4-3.3,9.9-2.9,10.1,.4,.2,4-2.9,7.9-7,131.2-135.4,262.4-270.8,395.3-408,4-4.1,4.2-7.4,.5-7.4h-6.7c-75.6,0-151.2,.3-226.9-.3-9.9,0-13.4,3.6-16.5,11.8h0Zm-38.3-49.5c-45.8-69.1-91-137.3-137-206.6-3.2-4.8-8.3-4.8-11.5,0-46.1,69.5-91.4,137.8-137,206.6-3.2,4.8-1.1,8.6,4.6,8.6h276.2c5.8,0,7.9-3.9,4.7-8.6ZM146.4,22.9C97.6,96.4,49.8,168.3,1.5,241.1c-3.2,4.8-1.1,8.6,4.6,8.6H230.5c5.7,0,8.7-4.3,6.7-9.7-27.2-72.1-54.1-143.4-81.5-216-2-5.4-6.2-5.9-9.3-1.1h0ZM873.5,241c-48.6-73.1-96.3-144.8-145-218.1-3.2-4.8-7.4-4.3-9.4,1.1-27.5,72.9-54.4,144.3-81.4,216-2,5.4,1,9.7,6.7,9.7h224.4c5.8,0,7.9-3.9,4.7-8.7h0ZM687.2,0h-222c-5.7,0-7.8,3.9-4.6,8.6,48.1,72.5,95.3,143.6,143.3,216.1,3.2,4.8,7.4,4.3,9.4-1.1,27.2-72.2,53.8-142.8,80.6-213.9C695.9,4.3,692.9,0,687.2,0h0ZM409.6,.2H187.8c-5.7,0-8.7,4.3-6.7,9.7,26.7,70.9,53.3,141.4,80.6,213.8,2,5.4,6.2,5.8,9.4,1.1,48.2-72.7,95.4-143.8,143.2-215.9,3.1-4.9,1-8.7-4.7-8.7h0Z"/>
  </g>
</svg>