<?xml version="1.0" encoding="UTF-8"?>
<svg id="Ebene_2" data-name="Ebene 2" xmlns="http://www.w3.org/2000/svg" viewBox="0 0 874.98 774.06">
  <defs>
    <style>
      .cls-1 {
        fill: #ff6b35;
      }
    </style>
  </defs>
  <g id="Ebene_1-2" data-name="Ebene 1">
    <path class="cls-1" d="M399.1,87.1c0-15.3-.3-30.6,.1-45.9C399.6,17,416.1,.2,438.8,0c22.1-.2,39.6,17.3,40.1,41.1,.5,31,.4,62-.1,92.9-.1,7.7,.7,12.2,10.2,12.6,8.1,.4,16.3,2.9,24.3,5.1,6,1.6,8.6,.1,10.5-6.2,8.8-28.6,18.1-57,27.2-85.5,7.2-22.1,26.9-33.9,47.9-28.4,22.9,5.9,35.4,27.3,28.5,50.1-9.1,30.2-18.8,60.3-28.7,90.2-2.2,6.6-2.1,10.2,5.1,13,7.7,3.1,14.8,7.5,22.1,11.6,12.5,7,12.4,7,19.8-4.7,15.3-24.6,30.2-49.4,46.2-73.6,17.1-25.7,54.1-23.5,68.4,3.8,7.4,13.8,5.8,27.6-2.5,40.8-16.5,26.3-32.6,52.6-49.4,78.7-3.6,5.6-3.7,8.8,1.9,12.9,8.3,6.1,16.3,12.8,23.6,20,4.8,4.7,7.3,4.3,11.6-.7,18.9-22,38.2-43.6,57.5-65.3,16.9-19,41-21.4,58.4-5.9,17.5,15.8,18.2,39.8,1.4,58.7-19.7,22.2-39.1,44.6-59.2,66.3-6.2,6.7-6.7,10.6-.4,17.9,23.7,27.5,45.2,56.7,60.6,90,7.7,16.5,7.6,32.5,.2,49.1-18.8,41.9-47.5,76.9-78.4,110.3-50.9,55-108.9,101-176.1,134.6-58.9,29.5-120.8,47-187.3,44.4-55.4-2.2-107.6-17.6-156.6-42.7-100.5-51.8-181.1-126-243.5-219.9-6.2-9.4-11.3-19.6-16.5-29.7-7.6-14.9-7.4-29.7,.2-44.9,17.6-35.5,41-66.9,66.9-96.7,5.9-6.7,5.2-10.3-.3-16.3-20-22-39.7-44-58.9-66.6-11.8-13.9-12.2-32.7-2.3-47.3,9.7-14.4,27.8-21,43.8-16.1,9.5,3,16.8,9.2,23.2,16.6,16.6,19.1,33.7,37.8,50,57.2,5.8,6.9,9.6,6.7,15.7,.7,6.9-6.7,14.6-12.6,22.3-18.5,4.8-3.7,5.8-6.5,2.2-12.1-15.9-24.6-31.4-49.4-46.6-74.5-16-26.2-3.8-56.1,25.2-62.5,15.1-3.3,31.7,3.8,41,18.5,15.4,24.1,30.7,48.3,45.4,72.8,4.1,6.8,7.4,7,13.7,3.2,9.1-5.5,18.6-10.3,28.3-14.8,5.3-2.5,6.3-4.8,4.3-10.6-9.5-28.4-18.3-57-27.4-85.4-7.4-22.9,3.3-45.3,24.9-52.3,21.5-6.9,42.6,4.2,50.3,27,9.3,27.7,18.4,55.5,26.9,83.5,2.2,7.1,5.1,8.6,11.8,6.9,8.3-2.1,17-3.5,25.5-4.5,5.9-.7,7.6-3.1,7.4-8.9-.4-16.1,0-32.5,0-48.8h0ZM206.7,457.2c-.3,125.1,101,228.4,224.1,228.8,130.8,.4,232.1-100,232.4-230.7,.4-122.6-102.7-225.4-226.3-225.8-127.8-.2-229.9,100.7-230.2,227.7h0Zm99.7,.3c1.5-74.3,59.2-129.5,133.6-127.9,68,1.6,124.3,61.3,122.8,130.7-1.5,69.5-60.6,130.2-137.2,125.1-65-4.1-119.3-58.7-119.2-127.9h0Z"/>
  </g>
</svg>