<?xml version="1.0" encoding="UTF-8"?>
<svg id="Ebene_2" data-name="Ebene 2" xmlns="http://www.w3.org/2000/svg" viewBox="0 0 895.9 1000.15">
  <defs>
    <style>
      .cls-1 {
        fill: #ff6b35;
      }
    </style>
  </defs>
  <g id="Ebene_1-2" data-name="Ebene 1">
    <path class="cls-1" d="M895.9,413.25v48.6c-1.7,11.4-3.1,22.8-5,34.2-36.3,221.2-238,366.8-457.6,326.2-152.2-28.2-256.3-119.2-302.9-266.2-47.3-149-14.1-285.3,96.4-396.3C429.5-43.85,772.4,34.05,871.8,303.65c13.1,35.6,18.2,72.6,24.1,109.6h0ZM228.4,234.05q19.5-.1,19.8,19.1c.3,18.4-1.3,36.9,7.7,54.3,9.4,17.9,18,36.2,26.2,54.7,5.3,11.9,13,18.6,26.6,17.3,12.3-1.2,21.8,4,26.7,15.2,17.8,41,49.4,68.6,86.2,91.9,14.6,9.2,28.4,17.2,46.4,15.6,13.1-1.2,18.6,5.3,18,18.8-.8,18.5,.1,37-.3,55.5-.2,12.2,4.5,19,17.2,18.1,12-.8,18.3,3.2,18.5,16.5,.1,13-4,20-17.8,19.1-13.6-.9-18.2,6.1-18,19.1,.6,24.9,0,49.8,.2,74.6,.4,54.3-6.6,46.9,48.5,47.3,7.3,.1,17,1.8,18.2-8.4,1.4-11.6-8.6-9.7-15.8-10.2-3.4-.2-7.5,.1-8.5-4.2-1-4,2.5-6.1,5-8.5,8.9-8.3,17.5-16.8,26.7-24.8,43.9-38,84.9-78.1,103.8-135.6,8.3-25.3,6.2-35.7-17-47.9-5.6-2.9-11.6-5.4-16.9-8.8-47.5-30.4-97.9-45.6-155.6-41-34.8,2.7-58.7-26.1-75.5-51.1-19.5-29,.6-54.7,34.8-51.6,10,.9,14.7,5.5,14.7,15.3l.1,31.2c0,8.9,3.8,14.9,13.2,14.5,8.5-.4,11.6-6.2,11.6-14.3-.1-13.9,1.4-27.9-.3-41.6-3.2-25.1,6.7-41.9,28-54.3,9.8-5.7,19.2-10.1,30.7-9.8,14.5,.4,28.9,.2,43.4,0,6.2-.1,14.7,1,15.1-7.4,.4-10-9-8.3-15.6-9.1-2.3-.3-4.6-.2-6.9-.1-11.8,.6-17-5.3-16.8-16.7,.1-5.8-.1-11.6-.1-17.3,0-24.6,0-24.8-23.8-28.4-8.4-1.3-10.5-4.2-4.4-10.7,6.3-6.8,12.7-13.4,19.2-20.1,5.7-6,12-12.9,9.6-21.1-3-10.2-13.5-6.5-21.1-7.1-36.9-3-56.9-24.3-56.9-61.5,0-4-.4-8.1,.1-12.1,1.2-10.6-3.7-12.7-13.3-11.3-31,4.7-61.2,12.1-90,24.7-56.8,24.9-104.4,61.3-141.6,112.2h0Zm337.3-102.1c0,7.5,.3,15-.1,22.5-.5,10,4.4,14.7,13.9,16.1,24.3,3.4,24.3,3.5,24.3,29,0,5.2-.1,10.4,.1,15.6,.4,10.3,6.7,14.1,16,13.7,7.6-.4,14.8-2.9,20.8-7.6,19.9-15.7,39.3-32,59.5-47.4,10-7.6,6.6-11.6-1.7-17.3-31.2-21.2-64.7-37.5-101-48-31.8-9.4-31.8-9.3-31.8,23.4h0ZM.1,406.25c6.4-46.3,12.6-92.5,28.1-137.1C65.7,161.25,131.6,75.35,225.3,10.35c21.9-15.2,42.6-13.5,55,4.1,12.5,17.7,7,37.5-14.9,52.8C155,144.35,90.1,249.65,73.3,383.15c-27.4,218.5,116.7,427.7,331.1,481.6,118.2,29.8,230.3,12.9,335.9-48,5-2.9,9.9-6.2,15.1-8.4,17-7.1,36.5,.1,44.4,16.1,8.2,16.5,2.7,35.7-14.5,46.5-35.8,22.6-74.1,40-114.5,53-5.2,1.6-11.6,1.2-16.2,7.8,33.3,16.9,69.4,30.2,84.9,68.4H246.6c10.7-29.7,36-44,61.7-57.3,13.5-7,28.1-11.8,42.6-17.9-4-6.7-10.3-6.7-15.4-8.7-142-55.4-241.8-153.8-299.7-294.7C14.8,570.35,6.4,516.25,0,461.75c.1-18.4,.1-37,.1-55.5h0Z"/>
  </g>
</svg>