<?xml version="1.0" encoding="UTF-8"?>
<svg id="Ebene_2" data-name="Ebene 2" xmlns="http://www.w3.org/2000/svg" viewBox="0 0 1000.03 640.87">
  <defs>
    <style>
      .cls-1 {
        fill: #ff6b35;
      }
    </style>
  </defs>
  <g id="Ebene_1-2" data-name="Ebene 1">
    <path class="cls-1" d="M861.1,640.72c-10,0-20,.4-30-.1-13.4-.6-19.6-9.9-15.3-22.6,6.7-19.9,13.5-39.7,20.8-59.4,2-5.3,1.1-7.8-3.6-11.3-32.1-23.6-30.5-68.4,3.2-89.8,4.7-3,6-6.1,6-11.2-.1-79.1-.2-158.1,.1-237.2,0-8.8-2.5-9.4-10.3-7.4-103.4,26.5-207,52.7-310.5,79.2-15.3,4-30.4,4.1-45.4,.2C322.1,241.32,168.1,201.42,16.1,154.22,7,151.42-.2,147.62,0,136.92c.2-10.3,7.6-13.8,16.1-16.4,95.4-28.5,192.3-51.1,288.6-76.2,51.5-13.5,103.3-25.8,154.9-39.1,29.8-7.8,59-6.4,88.7,1.2,144.8,37.2,289.2,75.4,431.4,121.8,1.9,.6,3.7,1.3,5.7,1.8,8.8,2.5,15.1,7.5,14.6,17.5-.5,9.7-7.3,13.4-15.7,15.5-34.2,8.7-68.3,17.6-102.6,26-6.1,1.5-7.9,3.8-7.9,10,.2,82,.2,164.1,0,246.1,0,5.2,1.9,7.3,6.4,9.5,38.3,18.1,43.2,67.4,9.2,92.5-5.2,3.9-5.7,6.8-3.7,12.3,7,18.7,13.5,37.6,20,56.5,5.4,15.6-1,24.5-17.5,24.8-9.1,.1-18.1,0-27.1,0h0ZM178.2,290.82c0-16.7,.3-33.3-.2-50-.2-8,1.7-9.4,9.6-7.2,63.7,18.1,127.5,35.7,191.9,51.4,35.5,8.6,71.2,16.9,106.9,25.1,19.2,4.5,37.9-.3,56-5.3,88.3-24.3,177.4-45.2,266-67.8q13.4-3.4,13.4,10.8c.1,29-.3,58,.2,87,.3,19.7-6.9,35.7-20.7,49.2-21,20.5-47.1,32.2-74.4,41.6-53.3,18.3-108.5,26.5-164.5,30.3-61.4,4.2-122.6,2.5-183.6-6-46.3-6.5-91.7-16.3-134.6-35.9-18-8.2-34.8-18.2-48.4-32.9-11.9-12.8-18.2-27.6-17.8-45.3,.4-15,.1-30,.1-45h.1Z"/>
  </g>
</svg>