<?xml version="1.0" encoding="UTF-8"?>
<svg id="Ebene_2" data-name="Ebene 2" xmlns="http://www.w3.org/2000/svg" viewBox="0 0 600 584">
  <defs>
    <style>
      .cls-1 {
        fill: #f5f5f5;
      }
    </style>
  </defs>
  <g id="Ebene_1-2" data-name="Ebene 1">
    <path class="cls-1" d="M22.6,219.6H365.9l-127.5-127.5c-8.8-8.8-8.8-23.1,0-31.9L292,6.6c8.8-8.8,23.1-8.8,31.9,0l269.5,269.4c8.8,8.8,8.8,23.1,0,31.9l-269.5,269.5c-8.8,8.8-23.1,8.8-31.9,0l-53.6-53.6c-8.8-8.8-8.8-23.1,0-31.9l136.9-136.9H22.6c-12.5,0-22.6-10.1-22.6-22.6v-90.3c0-12.4,10.1-22.5,22.6-22.5h0Z"/>
  </g>
</svg>