<?xml version="1.0" encoding="UTF-8"?>
<svg id="Ebene_2" data-name="Ebene 2" xmlns="http://www.w3.org/2000/svg" xmlns:xlink="http://www.w3.org/1999/xlink" viewBox="0 0 1200 790">
  <defs>
    <style>
      .cls-1 {
        fill: #fff;
      }

      .cls-2 {
        fill: #243c77;
      }

      .cls-3 {
        fill: url(#Unbenannter_Verlauf_7-2);
      }

      .cls-4 {
        fill: #4fa3d6;
      }

      .cls-5 {
        fill: url(#Unbenannter_Verlauf_7-5);
      }

      .cls-6 {
        fill: #57af36;
      }

      .cls-6, .cls-7, .cls-8 {
        stroke: #1d1d1b;
        stroke-miterlimit: 10;
      }

      .cls-7 {
        fill: #cf1f22;
      }

      .cls-9 {
        fill: url(#Unbenannter_Verlauf_7);
      }

      .cls-10 {
        opacity: .1;
      }

      .cls-11 {
        clip-path: url(#clippath);
      }

      .cls-12 {
        fill: none;
      }

      .cls-13 {
        fill: url(#Unbenannter_Verlauf_7-4);
      }

      .cls-14 {
        fill: url(#Unbenannter_Verlauf_7-6);
      }

      .cls-8 {
        fill: #e8bf28;
      }

      .cls-15 {
        fill: url(#Unbenannter_Verlauf_7-3);
      }
    </style>
    <clipPath id="clippath">
      <rect class="cls-12" width="1200" height="790"/>
    </clipPath>
    <radialGradient id="Unbenannter_Verlauf_7" data-name="Unbenannter Verlauf 7" cx="2231.72" cy="843.17" fx="2231.72" fy="843.17" r="474.75" gradientTransform="translate(757.17 21.72) scale(.08 .88)" gradientUnits="userSpaceOnUse">
      <stop offset="0" stop-color="#4fa3d6"/>
      <stop offset=".16" stop-color="#4b9bcf"/>
      <stop offset=".41" stop-color="#4386bc"/>
      <stop offset=".7" stop-color="#34659d"/>
      <stop offset="1" stop-color="#233c78"/>
    </radialGradient>
    <radialGradient id="Unbenannter_Verlauf_7-2" data-name="Unbenannter Verlauf 7" cx="-656.75" cy="887.75" fx="-656.75" fy="887.75" r="474.75" gradientTransform="translate(757.17 56.96) scale(.08 .74)" xlink:href="#Unbenannter_Verlauf_7"/>
    <radialGradient id="Unbenannter_Verlauf_7-3" data-name="Unbenannter Verlauf 7" cx="-3470.17" cy="1122.68" fx="-3470.17" fy="1122.68" r="474.75" gradientTransform="translate(757.17 305.35) scale(.08 .49)" xlink:href="#Unbenannter_Verlauf_7"/>
    <radialGradient id="Unbenannter_Verlauf_7-4" data-name="Unbenannter Verlauf 7" cx="-9140.79" cy="1142" fx="-9140.79" fy="1142" r="474.75" gradientTransform="translate(757.17 297.04) scale(.08 .49)" xlink:href="#Unbenannter_Verlauf_7"/>
    <radialGradient id="Unbenannter_Verlauf_7-5" data-name="Unbenannter Verlauf 7" cx="5045.16" cy="582.36" fx="5045.16" fy="582.36" r="474.75" xlink:href="#Unbenannter_Verlauf_7"/>
    <radialGradient id="Unbenannter_Verlauf_7-6" data-name="Unbenannter Verlauf 7" cx="-6371.81" cy="1253.66" fx="-6371.81" fy="1253.66" r="474.75" gradientTransform="translate(757.17 305.35) scale(.08 .49)" xlink:href="#Unbenannter_Verlauf_7"/>
  </defs>
  <g id="Ebene_1-2" data-name="Ebene 1">
    <g class="cls-11">
      <rect class="cls-2" x="-50.38" y="-194.64" width="1279.15" height="1021.79"/>
      <rect class="cls-9" x="922.64" y="163.23" width="20.72" height="1199.59"/>
      <rect class="cls-3" x="695.07" y="209.59" width="20.72" height="1013.26"/>
      <rect class="cls-15" x="473.41" y="521.26" width="20.72" height="668.84"/>
      <rect class="cls-13" x="26.64" y="521.26" width="20.72" height="665.39"/>
      <rect class="cls-5" x="1144.3" y="-66.07" width="20.72" height="1199.59"/>
      <rect class="cls-14" x="244.8" y="585.47" width="20.72" height="668.84"/>
      <g class="cls-10">
        <g>
          <g>
            <g>
              <path class="cls-4" d="M212.86,5.89H18.74V-3.44H212.86V5.89ZM21.47,5.01H210.13V-2.56H21.47V5.01Z"/>
              <path class="cls-4" d="M383.79,5.8h-122.88V-3.35h122.88V5.8Zm-120.71-.7h118.54V-2.65h-118.54V5.1Z"/>
            </g>
            <g>
              <path class="cls-4" d="M612.3,5.89h-194.12V-3.44h194.12V5.89Zm-191.39-.89h188.66V-2.56h-188.66V5.01Z"/>
              <path class="cls-4" d="M783.23,5.8h-122.88V-3.35h122.88V5.8Zm-120.71-.7h118.54V-2.65h-118.54V5.1Z"/>
            </g>
            <g>
              <path class="cls-4" d="M1011.74,5.89h-194.12V-3.44h194.12V5.89Zm-191.39-.89h188.66V-2.56h-188.66V5.01Z"/>
              <path class="cls-4" d="M1182.66,5.8h-122.88V-3.35h122.88V5.8Zm-120.71-.7h118.54V-2.65h-118.54V5.1Z"/>
            </g>
          </g>
          <g>
            <g>
              <path class="cls-4" d="M212.86,30.54H18.74v-9.33H212.86v9.33Zm-191.39-.89H210.13v-7.56H21.47v7.56Z"/>
              <path class="cls-4" d="M383.79,30.45h-122.88v-9.15h122.88v9.15Zm-120.71-.7h118.54v-7.74h-118.54v7.74Z"/>
            </g>
            <g>
              <path class="cls-4" d="M612.3,30.54h-194.12v-9.33h194.12v9.33Zm-191.39-.89h188.66v-7.56h-188.66v7.56Z"/>
              <path class="cls-4" d="M783.23,30.45h-122.88v-9.15h122.88v9.15Zm-120.71-.7h118.54v-7.74h-118.54v7.74Z"/>
            </g>
            <g>
              <path class="cls-4" d="M1011.74,30.54h-194.12v-9.33h194.12v9.33Zm-191.39-.89h188.66v-7.56h-188.66v7.56Z"/>
              <path class="cls-4" d="M1182.66,30.45h-122.88v-9.15h122.88v9.15Zm-120.71-.7h118.54v-7.74h-118.54v7.74Z"/>
            </g>
          </g>
          <g>
            <g>
              <path class="cls-4" d="M1182.95,104.48h-194.12v-9.33h194.12v9.33Zm-191.39-.89h188.66v-7.56h-188.66v7.56Z"/>
              <path class="cls-4" d="M940.77,104.39h-122.88v-9.15h122.88v9.15Zm-120.71-.7h118.54v-7.74h-118.54v7.74Z"/>
            </g>
            <g>
              <path class="cls-4" d="M783.51,104.48h-194.12v-9.33h194.12v9.33Zm-191.39-.89h188.66v-7.56h-188.66v7.56Z"/>
              <path class="cls-4" d="M541.33,104.39h-122.88v-9.15h122.88v9.15Zm-120.71-.7h118.54v-7.74h-118.54v7.74Z"/>
            </g>
            <g>
              <path class="cls-4" d="M384.07,104.48H189.95v-9.33h194.12v9.33Zm-191.39-.89h188.66v-7.56H192.68v7.56Z"/>
              <path class="cls-4" d="M141.9,104.39H19.02v-9.15h122.88v9.15Zm-120.71-.7h118.54v-7.74H21.19v7.74Z"/>
            </g>
          </g>
          <g>
            <g>
              <path class="cls-4" d="M212.86,79.83H18.74v-9.33H212.86v9.33Zm-191.39-.89H210.13v-7.56H21.47v7.56Z"/>
              <path class="cls-4" d="M383.79,79.74h-122.88v-9.15h122.88v9.15Zm-120.71-.7h118.54v-7.74h-118.54v7.74Z"/>
            </g>
            <g>
              <path class="cls-4" d="M612.3,79.83h-194.12v-9.33h194.12v9.33Zm-191.39-.89h188.66v-7.56h-188.66v7.56Z"/>
              <path class="cls-4" d="M783.23,79.74h-122.88v-9.15h122.88v9.15Zm-120.71-.7h118.54v-7.74h-118.54v7.74Z"/>
            </g>
            <g>
              <path class="cls-4" d="M1011.74,79.83h-194.12v-9.33h194.12v9.33Zm-191.39-.89h188.66v-7.56h-188.66v7.56Z"/>
              <path class="cls-4" d="M1182.66,79.74h-122.88v-9.15h122.88v9.15Zm-120.71-.7h118.54v-7.74h-118.54v7.74Z"/>
            </g>
          </g>
          <g>
            <g>
              <path class="cls-4" d="M1182.95,55.18h-194.12v-9.33h194.12v9.33Zm-191.39-.89h188.66v-7.56h-188.66v7.56Z"/>
              <path class="cls-4" d="M940.77,55.09h-122.88v-9.15h122.88v9.15Zm-120.71-.7h118.54v-7.74h-118.54v7.74Z"/>
            </g>
            <g>
              <path class="cls-4" d="M783.51,55.18h-194.12v-9.33h194.12v9.33Zm-191.39-.89h188.66v-7.56h-188.66v7.56Z"/>
              <path class="cls-4" d="M541.33,55.09h-122.88v-9.15h122.88v9.15Zm-120.71-.7h118.54v-7.74h-118.54v7.74Z"/>
            </g>
            <g>
              <path class="cls-4" d="M384.07,55.18H189.95v-9.33h194.12v9.33Zm-191.39-.89h188.66v-7.56H192.68v7.56Z"/>
              <path class="cls-4" d="M141.9,55.09H19.02v-9.15h122.88v9.15Zm-120.71-.7h118.54v-7.74H21.19v7.74Z"/>
            </g>
          </g>
          <g>
            <g>
              <path class="cls-4" d="M212.86,129.12H18.74v-9.33H212.86v9.33Zm-191.39-.89H210.13v-7.56H21.47v7.56Z"/>
              <path class="cls-4" d="M383.79,129.03h-122.88v-9.15h122.88v9.15Zm-120.71-.7h118.54v-7.74h-118.54v7.74Z"/>
            </g>
            <g>
              <path class="cls-4" d="M612.3,129.12h-194.12v-9.33h194.12v9.33Zm-191.39-.89h188.66v-7.56h-188.66v7.56Z"/>
              <path class="cls-4" d="M783.23,129.03h-122.88v-9.15h122.88v9.15Zm-120.71-.7h118.54v-7.74h-118.54v7.74Z"/>
            </g>
            <g>
              <path class="cls-4" d="M1011.74,129.12h-194.12v-9.33h194.12v9.33Zm-191.39-.89h188.66v-7.56h-188.66v7.56Z"/>
              <path class="cls-4" d="M1182.66,129.03h-122.88v-9.15h122.88v9.15Zm-120.71-.7h118.54v-7.74h-118.54v7.74Z"/>
            </g>
          </g>
          <g>
            <g>
              <path class="cls-4" d="M212.86,153.77H18.74v-9.33H212.86v9.33Zm-191.39-.89H210.13v-7.56H21.47v7.56Z"/>
              <path class="cls-4" d="M383.79,153.68h-122.88v-9.15h122.88v9.15Zm-120.71-.7h118.54v-7.74h-118.54v7.74Z"/>
            </g>
            <g>
              <path class="cls-4" d="M612.3,153.77h-194.12v-9.33h194.12v9.33Zm-191.39-.89h188.66s0-7.56,0-7.56h-188.66v7.56Z"/>
              <path class="cls-4" d="M783.23,153.68h-122.88v-9.15h122.88v9.15Zm-120.71-.7h118.54v-7.74h-118.54v7.74Z"/>
            </g>
            <g>
              <path class="cls-4" d="M1011.74,153.77h-194.12v-9.33h194.12v9.33Zm-191.39-.89h188.66v-7.56h-188.66v7.56Z"/>
              <path class="cls-4" d="M1182.66,153.68h-122.88v-9.15h122.88v9.15Zm-120.71-.7h118.54v-7.74h-118.54v7.74Z"/>
            </g>
          </g>
        </g>
        <g>
          <g>
            <g>
              <path class="cls-4" d="M212.86,199.99H18.74v-8.26H212.86v8.26Zm-191.39-.78H210.13v-6.69H21.47v6.69Z"/>
              <path class="cls-4" d="M383.79,199.91h-122.88v-8.1h122.88v8.1Zm-120.71-.62h118.54v-6.85h-118.54v6.85Z"/>
            </g>
            <g>
              <path class="cls-4" d="M612.3,199.99h-194.12v-8.26h194.12v8.26Zm-191.39-.78h188.66v-6.69h-188.66v6.69Z"/>
              <path class="cls-4" d="M783.23,199.91h-122.88v-8.1h122.88v8.1Zm-120.71-.62h118.54v-6.85h-118.54v6.85Z"/>
            </g>
            <g>
              <path class="cls-4" d="M1011.74,199.99h-194.12v-8.26h194.12v8.26Zm-191.39-.78h188.66v-6.69h-188.66v6.69Z"/>
              <path class="cls-4" d="M1182.66,199.91h-122.88v-8.1h122.88v8.1Zm-120.71-.62h118.54v-6.85h-118.54v6.85Z"/>
            </g>
          </g>
          <g>
            <g>
              <path class="cls-4" d="M212.86,221.8H18.74v-8.26H212.86v8.26Zm-191.39-.78H210.13v-6.69H21.47v6.69Z"/>
              <path class="cls-4" d="M383.79,221.72h-122.88v-8.1h122.88v8.1Zm-120.71-.62h118.54v-6.85h-118.54v6.85Z"/>
            </g>
            <g>
              <path class="cls-4" d="M612.3,221.8h-194.12v-8.26h194.12v8.26Zm-191.39-.78h188.66v-6.69h-188.66v6.69Z"/>
              <path class="cls-4" d="M783.23,221.72h-122.88v-8.1h122.88v8.1Zm-120.71-.62h118.54v-6.85h-118.54v6.85Z"/>
            </g>
            <g>
              <path class="cls-4" d="M1011.74,221.8h-194.12v-8.26h194.12v8.26Zm-191.39-.78h188.66v-6.69h-188.66v6.69Z"/>
              <path class="cls-4" d="M1182.66,221.72h-122.88v-8.1h122.88v8.1Zm-120.71-.62h118.54v-6.85h-118.54v6.85Z"/>
            </g>
          </g>
          <g>
            <g>
              <path class="cls-4" d="M1182.95,287.23h-194.12v-8.26h194.12v8.26Zm-191.39-.78h188.66v-6.69h-188.66v6.69Z"/>
              <path class="cls-4" d="M940.77,287.15h-122.88v-8.1h122.88v8.1Zm-120.71-.62h118.54v-6.85h-118.54v6.85Z"/>
            </g>
            <g>
              <path class="cls-4" d="M783.51,287.23h-194.12v-8.26h194.12v8.26Zm-191.39-.78h188.66v-6.69h-188.66v6.69Z"/>
              <path class="cls-4" d="M541.33,287.15h-122.88v-8.1h122.88v8.1Zm-120.71-.62h118.54v-6.85h-118.54v6.85Z"/>
            </g>
            <g>
              <path class="cls-4" d="M384.07,287.23H189.95v-8.26h194.12v8.26Zm-191.39-.78h188.66v-6.69H192.68v6.69Z"/>
              <path class="cls-4" d="M141.9,287.15H19.02v-8.1h122.88v8.1Zm-120.71-.62h118.54v-6.85H21.19v6.85Z"/>
            </g>
          </g>
          <g>
            <g>
              <path class="cls-4" d="M212.86,265.42H18.74v-8.26H212.86v8.26Zm-191.39-.78H210.13v-6.69H21.47v6.69Z"/>
              <path class="cls-4" d="M383.79,265.34h-122.88v-8.1h122.88v8.1Zm-120.71-.62h118.54v-6.85h-118.54v6.85Z"/>
            </g>
            <g>
              <path class="cls-4" d="M612.3,265.42h-194.12v-8.26h194.12v8.26Zm-191.39-.78h188.66v-6.69h-188.66v6.69Z"/>
              <path class="cls-4" d="M783.23,265.34h-122.88v-8.1h122.88v8.1Zm-120.71-.62h118.54v-6.85h-118.54v6.85Z"/>
            </g>
            <g>
              <path class="cls-4" d="M1011.74,265.42h-194.12v-8.26h194.12v8.26Zm-191.39-.78h188.66v-6.69h-188.66v6.69Z"/>
              <path class="cls-4" d="M1182.66,265.34h-122.88v-8.1h122.88v8.1Zm-120.71-.62h118.54v-6.85h-118.54v6.85Z"/>
            </g>
          </g>
          <g>
            <g>
              <path class="cls-4" d="M1182.95,243.61h-194.12v-8.26h194.12v8.26Zm-191.39-.78h188.66v-6.69h-188.66v6.69Z"/>
              <path class="cls-4" d="M940.77,243.53h-122.88v-8.1h122.88v8.1Zm-120.71-.62h118.54v-6.85h-118.54v6.85Z"/>
            </g>
            <g>
              <path class="cls-4" d="M783.51,243.61h-194.12v-8.26h194.12v8.26Zm-191.39-.78h188.66v-6.69h-188.66v6.69Z"/>
              <path class="cls-4" d="M541.33,243.53h-122.88v-8.1h122.88v8.1Zm-120.71-.62h118.54v-6.85h-118.54v6.85Z"/>
            </g>
            <g>
              <path class="cls-4" d="M384.07,243.61H189.95v-8.26h194.12v8.26Zm-191.39-.78h188.66v-6.69H192.68v6.69Z"/>
              <path class="cls-4" d="M141.9,243.53H19.02v-8.1h122.88v8.1Zm-120.71-.62h118.54v-6.85H21.19v6.85Z"/>
            </g>
          </g>
          <g>
            <g>
              <path class="cls-4" d="M212.86,309.04H18.74v-8.26H212.86v8.26Zm-191.39-.78H210.13v-6.69H21.47v6.69Z"/>
              <path class="cls-4" d="M383.79,308.96h-122.88v-8.1h122.88v8.1Zm-120.71-.62h118.54v-6.85h-118.54v6.85Z"/>
            </g>
            <g>
              <path class="cls-4" d="M612.3,309.04h-194.12v-8.26h194.12v8.26Zm-191.39-.78h188.66v-6.69h-188.66v6.69Z"/>
              <path class="cls-4" d="M783.23,308.96h-122.88v-8.1h122.88v8.1Zm-120.71-.62h118.54v-6.85h-118.54v6.85Z"/>
            </g>
            <g>
              <path class="cls-4" d="M1011.74,309.04h-194.12v-8.26h194.12v8.26Zm-191.39-.78h188.66v-6.69h-188.66v6.69Z"/>
              <path class="cls-4" d="M1182.66,308.96h-122.88v-8.1h122.88v8.1Zm-120.71-.62h118.54v-6.85h-118.54v6.85Z"/>
            </g>
          </g>
          <g>
            <g>
              <path class="cls-4" d="M212.86,330.85H18.74v-8.26H212.86v8.26Zm-191.39-.78H210.13v-6.69H21.47v6.69Z"/>
              <path class="cls-4" d="M383.79,330.77h-122.88v-8.1h122.88v8.1Zm-120.71-.62h118.54v-6.85h-118.54v6.85Z"/>
            </g>
            <g>
              <path class="cls-4" d="M612.3,330.85h-194.12v-8.26h194.12v8.26Zm-191.39-.79h188.66s0-6.69,0-6.69h-188.66v6.69Z"/>
              <path class="cls-4" d="M783.23,330.77h-122.88v-8.1h122.88v8.1Zm-120.71-.62h118.54v-6.85h-118.54v6.85Z"/>
            </g>
            <g>
              <path class="cls-4" d="M1011.74,330.85h-194.12v-8.26h194.12v8.26Zm-191.39-.78h188.66v-6.69h-188.66v6.69Z"/>
              <path class="cls-4" d="M1182.66,330.77h-122.88v-8.1h122.88v8.1Zm-120.71-.62h118.54v-6.85h-118.54v6.85Z"/>
            </g>
          </g>
        </g>
        <g>
          <g>
            <g>
              <path class="cls-4" d="M212.86,394.47H18.74v-9.3H212.86v9.3Zm-191.39-.88H210.13v-7.53H21.47v7.53Z"/>
              <path class="cls-4" d="M383.79,394.38h-122.88v-9.12h122.88v9.12Zm-120.71-.7h118.54v-7.71h-118.54v7.71Z"/>
            </g>
            <g>
              <path class="cls-4" d="M612.3,394.47h-194.12v-9.3h194.12v9.3Zm-191.39-.88h188.66v-7.53h-188.66v7.53Z"/>
              <path class="cls-4" d="M783.23,394.38h-122.88v-9.12h122.88v9.12Zm-120.71-.7h118.54v-7.71h-118.54v7.71Z"/>
            </g>
            <g>
              <path class="cls-4" d="M1011.74,394.47h-194.12v-9.3h194.12v9.3Zm-191.39-.88h188.66v-7.53h-188.66v7.53Z"/>
              <path class="cls-4" d="M1182.66,394.38h-122.88v-9.12h122.88v9.12Zm-120.71-.7h118.54v-7.71h-118.54v7.71Z"/>
            </g>
          </g>
          <g>
            <g>
              <path class="cls-4" d="M212.86,419.03H18.74v-9.3H212.86v9.3Zm-191.39-.88H210.13v-7.53H21.47v7.53Z"/>
              <path class="cls-4" d="M383.79,418.94h-122.88v-9.12h122.88v9.12Zm-120.71-.7h118.54v-7.71h-118.54v7.71Z"/>
            </g>
            <g>
              <path class="cls-4" d="M612.3,419.03h-194.12v-9.3h194.12v9.3Zm-191.39-.88h188.66v-7.53h-188.66v7.53Z"/>
              <path class="cls-4" d="M783.23,418.94h-122.88v-9.12h122.88v9.12Zm-120.71-.7h118.54v-7.71h-118.54v7.71Z"/>
            </g>
            <g>
              <path class="cls-4" d="M1011.74,419.03h-194.12v-9.3h194.12v9.3Zm-191.39-.88h188.66v-7.53h-188.66v7.53Z"/>
              <path class="cls-4" d="M1182.66,418.94h-122.88v-9.12h122.88v9.12Zm-120.71-.7h118.54v-7.71h-118.54v7.71Z"/>
            </g>
          </g>
          <g>
            <g>
              <path class="cls-4" d="M1182.95,492.68h-194.12v-9.3h194.12v9.3Zm-191.39-.88h188.66v-7.53h-188.66v7.53Z"/>
              <path class="cls-4" d="M940.77,492.59h-122.88v-9.12h122.88v9.12Zm-120.71-.7h118.54v-7.71h-118.54v7.71Z"/>
            </g>
            <g>
              <path class="cls-4" d="M783.51,492.68h-194.12v-9.3h194.12v9.3Zm-191.39-.88h188.66v-7.53h-188.66v7.53Z"/>
              <path class="cls-4" d="M541.33,492.59h-122.88v-9.12h122.88v9.12Zm-120.71-.7h118.54v-7.71h-118.54v7.71Z"/>
            </g>
            <g>
              <path class="cls-4" d="M384.07,492.68H189.95v-9.3h194.12v9.3Zm-191.39-.88h188.66v-7.53H192.68v7.53Z"/>
              <path class="cls-4" d="M141.9,492.59H19.02v-9.12h122.88v9.12Zm-120.71-.7h118.54v-7.71H21.19v7.71Z"/>
            </g>
          </g>
          <g>
            <g>
              <path class="cls-4" d="M212.86,468.13H18.74v-9.3H212.86v9.3Zm-191.39-.88H210.13v-7.53H21.47v7.53Z"/>
              <path class="cls-4" d="M383.79,468.04h-122.88v-9.12h122.88v9.12Zm-120.71-.7h118.54v-7.71h-118.54v7.71Z"/>
            </g>
            <g>
              <path class="cls-4" d="M612.3,468.13h-194.12v-9.3h194.12v9.3Zm-191.39-.88h188.66v-7.53h-188.66v7.53Z"/>
              <path class="cls-4" d="M783.23,468.04h-122.88v-9.12h122.88v9.12Zm-120.71-.7h118.54v-7.71h-118.54v7.71Z"/>
            </g>
            <g>
              <path class="cls-4" d="M1011.74,468.13h-194.12v-9.3h194.12v9.3Zm-191.39-.88h188.66v-7.53h-188.66v7.53Z"/>
              <path class="cls-4" d="M1182.66,468.04h-122.88v-9.12h122.88v9.12Zm-120.71-.7h118.54v-7.71h-118.54v7.71Z"/>
            </g>
          </g>
          <g>
            <g>
              <path class="cls-4" d="M1182.95,443.58h-194.12v-9.3h194.12v9.3Zm-191.39-.88h188.66v-7.53h-188.66v7.53Z"/>
              <path class="cls-4" d="M940.77,443.49h-122.88v-9.12h122.88v9.12Zm-120.71-.7h118.54v-7.71h-118.54v7.71Z"/>
            </g>
            <g>
              <path class="cls-4" d="M783.51,443.58h-194.12v-9.3h194.12v9.3Zm-191.39-.88h188.66v-7.53h-188.66v7.53Z"/>
              <path class="cls-4" d="M541.33,443.49h-122.88v-9.12h122.88v9.12Zm-120.71-.7h118.54v-7.71h-118.54v7.71Z"/>
            </g>
            <g>
              <path class="cls-4" d="M384.07,443.58H189.95v-9.3h194.12v9.3Zm-191.39-.88h188.66v-7.53H192.68v7.53Z"/>
              <path class="cls-4" d="M141.9,443.49H19.02v-9.12h122.88v9.12Zm-120.71-.7h118.54v-7.71H21.19v7.71Z"/>
            </g>
          </g>
          <g>
            <g>
              <path class="cls-4" d="M212.86,517.24H18.74v-9.3H212.86v9.3Zm-191.39-.88H210.13v-7.53H21.47v7.53Z"/>
              <path class="cls-4" d="M383.79,517.15h-122.88v-9.12h122.88v9.12Zm-120.71-.7h118.54v-7.71h-118.54v7.71Z"/>
            </g>
            <g>
              <path class="cls-4" d="M612.3,517.24h-194.12v-9.3h194.12v9.3Zm-191.39-.88h188.66v-7.53h-188.66v7.53Z"/>
              <path class="cls-4" d="M783.23,517.15h-122.88v-9.12h122.88v9.12Zm-120.71-.7h118.54v-7.71h-118.54v7.71Z"/>
            </g>
            <g>
              <path class="cls-4" d="M1011.74,517.24h-194.12v-9.3h194.12v9.3Zm-191.39-.88h188.66v-7.53h-188.66v7.53Z"/>
              <path class="cls-4" d="M1182.66,517.15h-122.88v-9.12h122.88v9.12Zm-120.71-.7h118.54v-7.71h-118.54v7.71Z"/>
            </g>
          </g>
          <g>
            <g>
              <path class="cls-4" d="M212.86,541.79H18.74v-9.3H212.86v9.3Zm-191.39-.88H210.13v-7.53H21.47v7.53Z"/>
              <path class="cls-4" d="M383.79,541.7h-122.88v-9.12h122.88v9.12Zm-120.71-.7h118.54v-7.71h-118.54v7.71Z"/>
            </g>
            <g>
              <path class="cls-4" d="M612.3,541.79h-194.12v-9.3h194.12v9.3Zm-191.39-.88h188.66s0-7.53,0-7.53h-188.66v7.53Z"/>
              <path class="cls-4" d="M783.23,541.7h-122.88v-9.12h122.88v9.12Zm-120.71-.7h118.54v-7.71h-118.54v7.71Z"/>
            </g>
            <g>
              <path class="cls-4" d="M1011.74,541.79h-194.12v-9.3h194.12v9.3Zm-191.39-.88h188.66v-7.53h-188.66v7.53Z"/>
              <path class="cls-4" d="M1182.66,541.7h-122.88v-9.12h122.88v9.12Zm-120.71-.7h118.54v-7.71h-118.54v7.71Z"/>
            </g>
          </g>
        </g>
        <g>
          <g>
            <g>
              <path class="cls-4" d="M212.86,638.67H18.74v-9.5H212.86v9.5Zm-191.39-.9H210.13v-7.69H21.47v7.69Z"/>
              <path class="cls-4" d="M383.79,638.58h-122.88v-9.31h122.88v9.31Zm-120.71-.72h118.54v-7.88h-118.54v7.88Z"/>
            </g>
            <g>
              <path class="cls-4" d="M612.3,638.67h-194.12v-9.5h194.12v9.5Zm-191.39-.9h188.66v-7.69h-188.66v7.69Z"/>
              <path class="cls-4" d="M783.23,638.58h-122.88v-9.31h122.88v9.31Zm-120.71-.72h118.54v-7.88h-118.54v7.88Z"/>
            </g>
            <g>
              <path class="cls-4" d="M1011.74,638.67h-194.12v-9.5h194.12v9.5Zm-191.39-.9h188.66v-7.69h-188.66v7.69Z"/>
              <path class="cls-4" d="M1182.66,638.58h-122.88v-9.31h122.88v9.31Zm-120.71-.72h118.54v-7.88h-118.54v7.88Z"/>
            </g>
          </g>
          <g>
            <g>
              <path class="cls-4" d="M212.86,663.76H18.74v-9.5H212.86v9.5Zm-191.39-.9H210.13v-7.7H21.47v7.7Z"/>
              <path class="cls-4" d="M383.79,663.66h-122.88v-9.32h122.88v9.32Zm-120.71-.72h118.54v-7.88h-118.54v7.88Z"/>
            </g>
            <g>
              <path class="cls-4" d="M612.3,663.76h-194.12v-9.5h194.12v9.5Zm-191.39-.9h188.66v-7.7h-188.66v7.7Z"/>
              <path class="cls-4" d="M783.23,663.66h-122.88v-9.32h122.88v9.32Zm-120.71-.72h118.54v-7.88h-118.54v7.88Z"/>
            </g>
            <g>
              <path class="cls-4" d="M1011.74,663.76h-194.12v-9.5h194.12v9.5Zm-191.39-.9h188.66v-7.7h-188.66v7.7Z"/>
              <path class="cls-4" d="M1182.66,663.66h-122.88v-9.32h122.88v9.32Zm-120.71-.72h118.54v-7.88h-118.54v7.88Z"/>
            </g>
          </g>
          <g>
            <g>
              <path class="cls-4" d="M1182.95,739.01h-194.12v-9.5h194.12v9.5Zm-191.39-.9h188.66v-7.7h-188.66v7.7Z"/>
              <path class="cls-4" d="M940.77,738.92h-122.88v-9.32h122.88v9.32Zm-120.71-.72h118.54v-7.88h-118.54v7.88Z"/>
            </g>
            <g>
              <path class="cls-4" d="M783.51,739.01h-194.12v-9.5h194.12v9.5Zm-191.39-.9h188.66v-7.7h-188.66v7.7Z"/>
              <path class="cls-4" d="M541.33,738.92h-122.88v-9.32h122.88v9.32Zm-120.71-.72h118.54v-7.88h-118.54v7.88Z"/>
            </g>
            <g>
              <path class="cls-4" d="M384.07,739.01H189.95v-9.5h194.12v9.5Zm-191.39-.9h188.66v-7.7H192.68v7.7Z"/>
              <path class="cls-4" d="M141.9,738.92H19.02v-9.32h122.88v9.32Zm-120.71-.72h118.54v-7.88H21.19v7.88Z"/>
            </g>
          </g>
          <g>
            <g>
              <path class="cls-4" d="M212.86,713.92H18.74v-9.5H212.86v9.5Zm-191.39-.9H210.13v-7.7H21.47v7.7Z"/>
              <path class="cls-4" d="M383.79,713.83h-122.88v-9.32h122.88v9.32Zm-120.71-.72h118.54v-7.88h-118.54v7.88Z"/>
            </g>
            <g>
              <path class="cls-4" d="M612.3,713.92h-194.12v-9.5h194.12v9.5Zm-191.39-.9h188.66v-7.7h-188.66v7.7Z"/>
              <path class="cls-4" d="M783.23,713.83h-122.88v-9.32h122.88v9.32Zm-120.71-.72h118.54v-7.88h-118.54v7.88Z"/>
            </g>
            <g>
              <path class="cls-4" d="M1011.74,713.92h-194.12v-9.5h194.12v9.5Zm-191.39-.9h188.66v-7.7h-188.66v7.7Z"/>
              <path class="cls-4" d="M1182.66,713.83h-122.88v-9.32h122.88v9.32Zm-120.71-.72h118.54v-7.88h-118.54v7.88Z"/>
            </g>
          </g>
          <g>
            <g>
              <path class="cls-4" d="M1182.95,688.84h-194.12v-9.5h194.12v9.5Zm-191.39-.9h188.66v-7.69h-188.66v7.69Z"/>
              <path class="cls-4" d="M940.77,688.75h-122.88v-9.31h122.88v9.31Zm-120.71-.72h118.54v-7.88h-118.54v7.88Z"/>
            </g>
            <g>
              <path class="cls-4" d="M783.51,688.84h-194.12v-9.5h194.12v9.5Zm-191.39-.9h188.66v-7.69h-188.66v7.69Z"/>
              <path class="cls-4" d="M541.33,688.75h-122.88v-9.31h122.88v9.31Zm-120.71-.72h118.54v-7.88h-118.54v7.88Z"/>
            </g>
            <g>
              <path class="cls-4" d="M384.07,688.84H189.95v-9.5h194.12v9.5Zm-191.39-.9h188.66v-7.69H192.68v7.69Z"/>
              <path class="cls-4" d="M141.9,688.75H19.02v-9.31h122.88v9.31Zm-120.71-.72h118.54v-7.88H21.19v7.88Z"/>
            </g>
          </g>
          <g>
            <g>
              <path class="cls-4" d="M212.86,764.09H18.74v-9.5H212.86v9.5Zm-191.39-.9H210.13v-7.7H21.47v7.7Z"/>
              <path class="cls-4" d="M383.79,764h-122.88v-9.32h122.88v9.32Zm-120.71-.72h118.54v-7.88h-118.54v7.88Z"/>
            </g>
            <g>
              <path class="cls-4" d="M612.3,764.09h-194.12v-9.5h194.12v9.5Zm-191.39-.9h188.66v-7.7h-188.66v7.7Z"/>
              <path class="cls-4" d="M783.23,764h-122.88v-9.32h122.88v9.32Zm-120.71-.72h118.54v-7.88h-118.54v7.88Z"/>
            </g>
            <g>
              <path class="cls-4" d="M1011.74,764.09h-194.12v-9.5h194.12v9.5Zm-191.39-.9h188.66v-7.7h-188.66v7.7Z"/>
              <path class="cls-4" d="M1182.66,764h-122.88v-9.32h122.88v9.32Zm-120.71-.72h118.54v-7.88h-118.54v7.88Z"/>
            </g>
          </g>
          <g>
            <g>
              <path class="cls-4" d="M212.86,789.18H18.74v-9.5H212.86v9.5Zm-191.39-.9H210.13v-7.69H21.47v7.69Z"/>
              <path class="cls-4" d="M383.79,789.08h-122.88v-9.31h122.88v9.31Zm-120.71-.72h118.54v-7.88h-118.54v7.88Z"/>
            </g>
            <g>
              <path class="cls-4" d="M612.3,789.18h-194.12v-9.5h194.12v9.5Zm-191.39-.9h188.66s0-7.69,0-7.69h-188.66v7.69Z"/>
              <path class="cls-4" d="M783.23,789.08h-122.88v-9.32h122.88v9.32Zm-120.71-.72h118.54v-7.88h-118.54v7.88Z"/>
            </g>
            <g>
              <path class="cls-4" d="M1011.74,789.18h-194.12v-9.5h194.12v9.5Zm-191.39-.9h188.66v-7.7h-188.66v7.7Z"/>
              <path class="cls-4" d="M1182.66,789.08h-122.88v-9.32h122.88v9.32Zm-120.71-.72h118.54v-7.88h-118.54v7.88Z"/>
            </g>
          </g>
        </g>
      </g>
      <g>
        <path class="cls-1" d="M331.17,440.95h-4.18l-4.78-10.93h-14.52l-4.33,10.93h-3.94l13-32.49h4.48l14.28,32.49Zm-22.1-14.38h11.62l-6.11-13.98-5.51,13.98Z"/>
        <path class="cls-1" d="M352,422.43c-.76-.56-1.84-1.06-3.25-1.5-1.41-.44-2.82-.66-4.23-.66s-2.67,.25-3.67,.74c-1,.49-1.83,1.15-2.49,1.97-.66,.82-1.13,1.76-1.43,2.83-.29,1.07-.44,2.17-.44,3.32,0,1.28,.18,2.51,.54,3.69,.36,1.18,.89,2.22,1.6,3.1s1.58,1.59,2.61,2.12c1.03,.52,2.24,.79,3.62,.79s2.67-.28,4.06-.84c1.39-.56,2.55-1.26,3.47-2.12l.69,3.2c-.92,.59-2.17,1.15-3.77,1.67-1.59,.52-3.29,.79-5.09,.79-1.9,0-3.57-.33-5-.99-1.43-.66-2.61-1.53-3.54-2.63s-1.64-2.38-2.12-3.84-.71-3.01-.71-4.65,.22-3.08,.66-4.5c.44-1.43,1.14-2.69,2.09-3.79,.95-1.1,2.17-1.97,3.64-2.61,1.48-.64,3.25-.96,5.32-.96,1.58,0,3.12,.18,4.63,.54,1.51,.36,2.72,.84,3.64,1.43l-.84,2.9Z"/>
        <path class="cls-1" d="M374.84,440.95v-14.97c0-2-.44-3.42-1.33-4.26s-2.02-1.26-3.4-1.26c-.82,0-1.63,.13-2.44,.39-.8,.26-1.55,.65-2.24,1.16-.69,.51-1.3,1.13-1.82,1.87-.53,.74-.94,1.58-1.23,2.54v14.52h-3.45v-36.43h3.45v18.02c.42-1.38,1.35-2.55,2.78-3.52,1.43-.97,3.24-1.45,5.44-1.45,1.05,0,2.04,.14,2.98,.42,.94,.28,1.75,.73,2.44,1.35s1.24,1.44,1.65,2.46,.62,2.26,.62,3.74v15.41h-3.45Z"/>
        <path class="cls-1" d="M386.8,420.61h-3.79v-1.82l3.89-.49,.74-6.84h2.61v6.84h5.32v2.31h-5.32v15.7c0,1.05,.16,1.74,.47,2.07,.31,.33,.79,.49,1.45,.49,.75,0,1.43-.12,2.02-.34,.59-.23,1.12-.51,1.58-.84l.69,2.61c-.56,.26-1.29,.52-2.19,.79s-1.89,.39-2.98,.39-1.87-.15-2.46-.44c-.59-.29-1.03-.69-1.33-1.18-.29-.49-.48-1.04-.57-1.65s-.12-1.21-.12-1.8v-15.8Z"/>
        <path class="cls-1" d="M404.38,418.3v14.97c0,1.02,.12,1.87,.37,2.56,.25,.69,.57,1.24,.99,1.65,.41,.41,.9,.71,1.48,.89,.57,.18,1.21,.27,1.9,.27,.82,0,1.63-.12,2.44-.37,.8-.25,1.55-.62,2.24-1.11,.69-.49,1.3-1.1,1.82-1.82,.52-.72,.94-1.56,1.23-2.51v-14.52h3.45v22.65h-2.71l-.39-4.23h-.2c-.43,1.38-1.38,2.53-2.85,3.45-1.48,.92-3.32,1.38-5.51,1.38-1.05,0-2.04-.13-2.98-.39-.93-.26-1.75-.7-2.44-1.3s-1.24-1.41-1.65-2.41c-.41-1-.62-2.24-.62-3.72v-15.41h3.45Z"/>
        <path class="cls-1" d="M443.86,440.95v-14.97c0-1.97-.44-3.38-1.33-4.23-.89-.85-2.02-1.28-3.4-1.28-.82,0-1.63,.13-2.44,.39-.8,.26-1.55,.65-2.24,1.16-.69,.51-1.3,1.13-1.82,1.87-.53,.74-.94,1.58-1.23,2.54v14.52h-3.45v-22.65h2.71l.39,4.23h.2c.43-1.38,1.38-2.55,2.86-3.52,1.48-.97,3.31-1.45,5.51-1.45,1.05,0,2.04,.14,2.98,.42,.94,.28,1.75,.73,2.44,1.35s1.24,1.44,1.65,2.46,.62,2.26,.62,3.74v15.41h-3.45Z"/>
        <path class="cls-1" d="M457.89,433.98c-1.58-.63-2.71-1.62-3.4-2.98s-1.03-2.84-1.03-4.41c0-1.28,.21-2.46,.64-3.55s1.04-2.04,1.85-2.86c.8-.82,1.77-1.46,2.91-1.92,1.13-.46,2.42-.69,3.86-.69,.85,0,1.7,.08,2.54,.24s1.57,.4,2.19,.72c1.38,0,2.67-.07,3.87-.2,1.2-.14,2.32-.35,3.37-.66l.25,.2-.34,2.62-.25,.24h-4.48l-.05,.15c.85,.68,1.48,1.58,1.87,2.69,.39,1.11,.59,2.18,.59,3.23s-.21,2.1-.62,3.08c-.41,.98-1.01,1.83-1.8,2.57-.79,.73-1.76,1.32-2.93,1.76-1.17,.44-2.5,.66-4.01,.66h-1.67c-.69,.23-1.21,.54-1.55,.93s-.52,.72-.52,.98c0,.33,.22,.62,.67,.86,.44,.25,1.16,.42,2.14,.52l4.78,.49c1.08,.1,2.09,.32,3.03,.66,.94,.34,1.75,.79,2.44,1.33s1.24,1.19,1.65,1.96,.62,1.64,.62,2.63-.21,1.92-.64,2.92c-.43,1-1.07,1.86-1.92,2.58-.85,.72-2.04,1.31-3.54,1.77-1.51,.46-3.25,.69-5.22,.69-1.67,0-3.18-.17-4.5-.52-1.33-.34-2.45-.82-3.35-1.42-.9-.61-1.59-1.3-2.07-2.09-.48-.79-.71-1.62-.71-2.5,0-.66,.13-1.3,.39-1.94,.26-.64,.61-1.24,1.03-1.79s.93-1.05,1.5-1.47c.57-.43,1.17-.75,1.8-.98v-.19c-1.35-.62-2.02-1.48-2.02-2.56,0-.69,.25-1.31,.76-1.87,.51-.56,1.14-1.1,1.9-1.63v-.2Zm3.45,7.4c-.75,0-1.45,.14-2.09,.43-.64,.29-1.2,.66-1.67,1.11-.48,.45-.85,.96-1.13,1.52-.28,.56-.42,1.12-.42,1.66,0,1.22,.67,2.19,1.99,2.92,1.33,.72,3.13,1.08,5.39,1.08,1.08,0,2.09-.09,3.03-.28,.94-.18,1.74-.47,2.41-.85,.67-.38,1.21-.85,1.6-1.4s.59-1.21,.59-1.98c0-1.5-.8-2.58-2.39-3.23-1.59-.65-4.03-.98-7.31-.98Zm1.58-9c.92,0,1.73-.16,2.44-.47,.71-.31,1.3-.72,1.8-1.23,.49-.51,.87-1.11,1.13-1.8s.39-1.41,.39-2.17-.13-1.53-.39-2.31c-.26-.79-.65-1.5-1.16-2.14-.51-.64-1.14-1.16-1.9-1.55-.76-.39-1.63-.59-2.61-.59s-1.78,.19-2.49,.57-1.3,.86-1.77,1.45-.83,1.25-1.06,1.97c-.23,.72-.34,1.44-.34,2.17,0,.76,.12,1.5,.37,2.22,.25,.72,.62,1.37,1.13,1.94,.51,.58,1.13,1.04,1.87,1.4s1.6,.54,2.58,.54Z"/>
        <path class="cls-1" d="M479.31,444.79l1.92-3.59h-1.23v-4.43h3.89v5.17l-3.59,3.79-.98-.94Z"/>
        <path class="cls-1" d="M513.97,417.56c2.89,0,5.12,.73,6.7,2.19,1.58,1.46,2.36,3.52,2.36,6.18,0,.56-.03,1.13-.1,1.7-.07,.58-.18,.99-.35,1.26h-16.59v.49c0,1.25,.16,2.45,.49,3.59,.33,1.15,.82,2.17,1.48,3.05,.66,.89,1.48,1.59,2.49,2.12,1,.53,2.19,.79,3.57,.79,.79,0,1.56-.09,2.31-.27,.75-.18,1.48-.41,2.17-.69,.69-.28,1.33-.58,1.92-.91,.59-.33,1.12-.66,1.58-.98l.59,2.81c-.43,.26-.95,.55-1.58,.86-.62,.31-1.31,.6-2.07,.86s-1.58,.48-2.49,.67c-.9,.18-1.85,.27-2.83,.27-1.84,0-3.46-.32-4.87-.96-1.41-.64-2.59-1.51-3.54-2.61-.95-1.1-1.67-2.37-2.17-3.81-.49-1.44-.74-2.96-.74-4.53s.25-3.14,.76-4.6c.51-1.46,1.25-2.75,2.24-3.86,.98-1.12,2.21-2,3.67-2.63s3.13-.96,5-.96Zm-.15,2.76c-2.17,0-3.85,.57-5.04,1.7-1.2,1.13-2.01,2.55-2.44,4.26h13.44c.03-.16,.05-.31,.05-.44v-.44c0-.82-.17-1.55-.49-2.19-.33-.64-.77-1.17-1.33-1.6-.56-.43-1.2-.75-1.92-.96-.72-.21-1.48-.32-2.26-.32Z"/>
        <path class="cls-1" d="M535.92,420.32c-1.58,0-2.72,.29-3.42,.86s-1.06,1.35-1.06,2.34c0,.33,.05,.67,.15,1.03,.1,.36,.29,.7,.57,1.01,.28,.31,.66,.61,1.13,.89,.47,.28,1.11,.5,1.9,.67l3.5,.79c1.38,.3,2.49,.7,3.32,1.21,.84,.51,1.49,1.06,1.95,1.65,.46,.59,.76,1.19,.91,1.8,.15,.61,.22,1.17,.22,1.7,0,1.02-.21,1.97-.62,2.86s-1,1.66-1.77,2.31-1.71,1.17-2.83,1.55c-1.12,.38-2.36,.57-3.74,.57-1.74,0-3.35-.25-4.82-.76-1.48-.51-2.66-1.07-3.54-1.7l.89-3.2c1.18,1.08,2.49,1.87,3.94,2.36,1.44,.49,2.74,.74,3.89,.74,1.64,0,2.89-.4,3.74-1.21,.85-.8,1.28-1.65,1.28-2.54,0-.29-.02-.63-.05-1.01-.03-.38-.17-.76-.39-1.16s-.57-.76-1.03-1.11-1.12-.62-1.97-.81l-4.73-1.18c-1.08-.26-1.97-.61-2.66-1.03-.69-.43-1.23-.89-1.62-1.4-.39-.51-.67-1.05-.84-1.63-.16-.57-.25-1.16-.25-1.75,0-2,.75-3.6,2.24-4.8,1.49-1.2,3.49-1.8,5.98-1.8,1.28,0,2.66,.17,4.13,.52,1.48,.34,2.72,.84,3.74,1.5l-.94,2.95c-.66-.56-1.63-1.07-2.93-1.53-1.3-.46-2.72-.69-4.26-.69Z"/>
        <path class="cls-1" d="M572.31,426.27l9.65,14.67h-3.94l-8.12-12.31-3.4,3.4v8.91h-3.45v-36.43h3.45v23.34l9.94-9.55h3.94l-8.07,7.97Z"/>
        <path class="cls-1" d="M600.76,440.95l-.39-4.04h-.2c-.39,.62-.92,1.21-1.58,1.77-.66,.56-1.39,1.05-2.19,1.48-.8,.43-1.67,.76-2.61,1.01-.94,.25-1.86,.37-2.78,.37-2.17,0-3.79-.63-4.87-1.9-1.08-1.26-1.63-2.85-1.63-4.75s.47-3.36,1.43-4.48c.95-1.12,2.12-1.95,3.5-2.51,1.38-.56,2.83-.92,4.36-1.08,1.53-.16,2.86-.25,4.01-.25h2.22v-.59c0-1.25-.17-2.2-.52-2.86-.34-.66-.84-1.21-1.5-1.67-.56-.36-1.16-.62-1.8-.76-.64-.15-1.49-.22-2.54-.22-1.38,0-2.59,.18-3.64,.54-1.05,.36-2.07,.84-3.05,1.43l-.79-2.95c2.2-1.28,4.83-1.92,7.88-1.92,1.21,0,2.36,.11,3.45,.32s2.03,.58,2.86,1.11c.95,.59,1.71,1.43,2.26,2.51,.56,1.08,.84,2.43,.84,4.04v15.41h-2.71Zm-8.71-2.31c1.34,0,2.77-.43,4.28-1.28,1.51-.85,2.74-2.08,3.69-3.69v-4.58h-.44c-1.35,0-2.69,.05-4.04,.15-1.35,.1-2.57,.34-3.67,.74-1.1,.39-1.99,.96-2.68,1.7s-1.03,1.75-1.03,3.03,.35,2.26,1.06,2.93c.71,.67,1.65,1.01,2.83,1.01Z"/>
        <path class="cls-1" d="M626.8,440.95v-14.97c0-1.97-.44-3.38-1.33-4.23-.89-.85-2.02-1.28-3.4-1.28-.82,0-1.63,.13-2.44,.39-.8,.26-1.55,.65-2.24,1.16-.69,.51-1.3,1.13-1.82,1.87-.53,.74-.94,1.58-1.23,2.54v14.52h-3.45v-22.65h2.71l.39,4.23h.2c.43-1.38,1.38-2.55,2.86-3.52,1.48-.97,3.31-1.45,5.51-1.45,1.05,0,2.04,.14,2.98,.42,.94,.28,1.75,.73,2.44,1.35s1.24,1.44,1.65,2.46,.62,2.26,.62,3.74v15.41h-3.45Z"/>
        <path class="cls-1" d="M653.63,440.95v-14.97c0-1.97-.44-3.38-1.33-4.23-.89-.85-2.02-1.28-3.4-1.28-.82,0-1.63,.13-2.44,.39-.8,.26-1.55,.65-2.24,1.16-.69,.51-1.3,1.13-1.82,1.87-.53,.74-.94,1.58-1.23,2.54v14.52h-3.45v-22.65h2.71l.39,4.23h.2c.43-1.38,1.38-2.55,2.86-3.52,1.48-.97,3.31-1.45,5.51-1.45,1.05,0,2.04,.14,2.98,.42,.94,.28,1.75,.73,2.44,1.35s1.24,1.44,1.65,2.46,.62,2.26,.62,3.74v15.41h-3.45Z"/>
        <path class="cls-1" d="M688.78,441.54c-2.1,0-3.91-.47-5.42-1.4s-2.66-2.01-3.45-3.22h-.2l-.39,4.04h-2.71v-36.43h3.45v18.02c.42-1.41,1.36-2.59,2.81-3.54,1.44-.95,3.23-1.43,5.37-1.43,1.74,0,3.27,.33,4.58,.98,1.31,.66,2.4,1.54,3.27,2.63,.87,1.1,1.53,2.39,1.97,3.86,.44,1.48,.66,3.02,.66,4.63s-.21,3.08-.62,4.5-1.03,2.68-1.85,3.77-1.85,1.95-3.1,2.61c-1.25,.66-2.71,.99-4.38,.99Zm-.39-2.91c1.25,0,2.3-.26,3.15-.79,.85-.53,1.54-1.21,2.07-2.04,.52-.84,.9-1.78,1.13-2.83,.23-1.05,.34-2.1,.34-3.15,0-1.38-.17-2.64-.52-3.79s-.83-2.13-1.45-2.95-1.39-1.46-2.31-1.92c-.92-.46-1.94-.69-3.05-.69-1.74,0-3.31,.53-4.7,1.58-1.4,1.05-2.39,2.51-2.98,4.38v7.24c.95,1.58,2.18,2.8,3.69,3.67,1.51,.87,3.05,1.3,4.63,1.3Z"/>
        <path class="cls-1" d="M719.31,440.95l-.39-4.04h-.2c-.39,.62-.92,1.21-1.58,1.77-.66,.56-1.39,1.05-2.19,1.48-.8,.43-1.67,.76-2.61,1.01-.94,.25-1.86,.37-2.78,.37-2.17,0-3.79-.63-4.87-1.9-1.08-1.26-1.63-2.85-1.63-4.75s.47-3.36,1.43-4.48c.95-1.12,2.12-1.95,3.5-2.51,1.38-.56,2.83-.92,4.36-1.08,1.53-.16,2.86-.25,4.01-.25h2.22v-.59c0-1.25-.17-2.2-.52-2.86-.34-.66-.84-1.21-1.5-1.67-.56-.36-1.16-.62-1.8-.76-.64-.15-1.49-.22-2.54-.22-1.38,0-2.59,.18-3.64,.54-1.05,.36-2.07,.84-3.05,1.43l-.79-2.95c2.2-1.28,4.83-1.92,7.88-1.92,1.21,0,2.36,.11,3.45,.32s2.03,.58,2.86,1.11c.95,.59,1.71,1.43,2.26,2.51,.56,1.08,.84,2.43,.84,4.04v15.41h-2.71Zm-8.71-2.31c1.34,0,2.77-.43,4.28-1.28,1.51-.85,2.74-2.08,3.69-3.69v-4.58h-.44c-1.35,0-2.69,.05-4.04,.15-1.35,.1-2.57,.34-3.67,.74-1.1,.39-1.99,.96-2.68,1.7s-1.03,1.75-1.03,3.03,.35,2.26,1.06,2.93c.71,.67,1.65,1.01,2.83,1.01Z"/>
        <path class="cls-1" d="M733.19,440.95h-3.45v-36.43h3.45v36.43Z"/>
        <path class="cls-1" d="M749.63,441.54c-1.67,0-3.13-.33-4.38-.99-1.25-.66-2.28-1.53-3.1-2.61-.82-1.08-1.44-2.34-1.85-3.77-.41-1.43-.62-2.93-.62-4.5s.22-3.15,.66-4.63c.44-1.48,1.1-2.76,1.97-3.86,.87-1.1,1.96-1.98,3.27-2.63,1.31-.66,2.84-.98,4.58-.98,2.2,0,4,.48,5.42,1.43,1.41,.95,2.33,2.13,2.76,3.54v-18.02h3.45v36.43h-2.71l-.39-4.04h-.2c-.79,1.21-1.94,2.29-3.45,3.22s-3.32,1.4-5.42,1.4Zm.39-2.91c1.58,0,3.13-.43,4.65-1.28,1.53-.85,2.75-2.08,3.67-3.69v-7.24c-.59-1.87-1.58-3.33-2.98-4.38-1.4-1.05-2.96-1.58-4.7-1.58-1.15,0-2.17,.23-3.08,.69s-1.67,1.1-2.29,1.92c-.63,.82-1.11,1.8-1.45,2.95s-.52,2.41-.52,3.79c0,1.05,.11,2.1,.34,3.15,.23,1.05,.61,2,1.13,2.83,.53,.84,1.21,1.52,2.07,2.04,.85,.52,1.9,.79,3.15,.79Z"/>
        <path class="cls-1" d="M779.76,437.99l11.96-16.79h-11.47v-2.9h15.46v2.86l-12.06,16.89h12.55v2.9h-16.44v-2.95Z"/>
        <path class="cls-1" d="M805.26,418.3v14.97c0,1.02,.12,1.87,.37,2.56,.25,.69,.57,1.24,.99,1.65,.41,.41,.9,.71,1.48,.89,.57,.18,1.21,.27,1.9,.27,.82,0,1.63-.12,2.44-.37,.8-.25,1.55-.62,2.24-1.11,.69-.49,1.3-1.1,1.82-1.82,.52-.72,.94-1.56,1.23-2.51v-14.52h3.45v22.65h-2.71l-.39-4.23h-.2c-.43,1.38-1.38,2.53-2.85,3.45-1.48,.92-3.32,1.38-5.51,1.38-1.05,0-2.04-.13-2.98-.39-.93-.26-1.75-.7-2.44-1.3s-1.24-1.41-1.65-2.41c-.41-1-.62-2.24-.62-3.72v-15.41h3.45Z"/>
        <path class="cls-1" d="M851.05,417.56c2.89,0,5.12,.73,6.7,2.19,1.58,1.46,2.36,3.52,2.36,6.18,0,.56-.03,1.13-.1,1.7-.07,.58-.18,.99-.35,1.26h-16.59v.49c0,1.25,.16,2.45,.49,3.59,.33,1.15,.82,2.17,1.48,3.05,.66,.89,1.48,1.59,2.49,2.12,1,.53,2.19,.79,3.57,.79,.79,0,1.56-.09,2.31-.27,.75-.18,1.48-.41,2.17-.69,.69-.28,1.33-.58,1.92-.91,.59-.33,1.12-.66,1.58-.98l.59,2.81c-.43,.26-.95,.55-1.58,.86-.62,.31-1.31,.6-2.07,.86s-1.58,.48-2.49,.67c-.9,.18-1.85,.27-2.83,.27-1.84,0-3.46-.32-4.87-.96-1.41-.64-2.59-1.51-3.54-2.61-.95-1.1-1.67-2.37-2.17-3.81-.49-1.44-.74-2.96-.74-4.53s.25-3.14,.76-4.6c.51-1.46,1.25-2.75,2.24-3.86,.98-1.12,2.21-2,3.67-2.63s3.13-.96,5-.96Zm-.15,2.76c-2.17,0-3.85,.57-5.04,1.7-1.2,1.13-2.01,2.55-2.44,4.26h13.44c.03-.16,.05-.31,.05-.44v-.44c0-.82-.17-1.55-.49-2.19-.33-.64-.77-1.17-1.33-1.6-.56-.43-1.2-.75-1.92-.96-.72-.21-1.48-.32-2.26-.32Z"/>
        <path class="cls-1" d="M865.62,410.03c0-.66,.24-1.25,.71-1.77,.47-.52,1.06-.79,1.75-.79s1.25,.26,1.77,.79c.53,.53,.79,1.12,.79,1.77s-.26,1.27-.79,1.75c-.53,.48-1.12,.71-1.77,.71s-1.27-.24-1.75-.71c-.48-.47-.71-1.06-.71-1.75Zm4.19,30.92h-3.45v-22.65h3.45v22.65Z"/>
        <path class="cls-1" d="M893.39,440.95v-14.97c0-1.97-.44-3.38-1.33-4.23-.89-.85-2.02-1.28-3.4-1.28-.82,0-1.63,.13-2.44,.39-.8,.26-1.55,.65-2.24,1.16-.69,.51-1.3,1.13-1.82,1.87-.53,.74-.94,1.58-1.23,2.54v14.52h-3.45v-22.65h2.71l.39,4.23h.2c.43-1.38,1.38-2.55,2.86-3.52,1.48-.97,3.31-1.45,5.51-1.45,1.05,0,2.04,.14,2.98,.42,.94,.28,1.75,.73,2.44,1.35s1.24,1.44,1.65,2.46,.62,2.26,.62,3.74v15.41h-3.45Z"/>
        <path class="cls-1" d="M914.46,417.56c2.89,0,5.12,.73,6.7,2.19,1.58,1.46,2.36,3.52,2.36,6.18,0,.56-.03,1.13-.1,1.7-.07,.58-.18,.99-.35,1.26h-16.59v.49c0,1.25,.16,2.45,.49,3.59,.33,1.15,.82,2.17,1.48,3.05,.66,.89,1.48,1.59,2.49,2.12,1,.53,2.19,.79,3.57,.79,.79,0,1.56-.09,2.31-.27,.75-.18,1.48-.41,2.17-.69,.69-.28,1.33-.58,1.92-.91,.59-.33,1.12-.66,1.58-.98l.59,2.81c-.43,.26-.95,.55-1.58,.86-.62,.31-1.31,.6-2.07,.86s-1.58,.48-2.49,.67c-.9,.18-1.85,.27-2.83,.27-1.84,0-3.46-.32-4.87-.96-1.41-.64-2.59-1.51-3.54-2.61-.95-1.1-1.67-2.37-2.17-3.81-.49-1.44-.74-2.96-.74-4.53s.25-3.14,.76-4.6c.51-1.46,1.25-2.75,2.24-3.86,.98-1.12,2.21-2,3.67-2.63s3.13-.96,5-.96Zm-.15,2.76c-2.17,0-3.85,.57-5.04,1.7-1.2,1.13-2.01,2.55-2.44,4.26h13.44c.03-.16,.05-.31,.05-.44v-.44c0-.82-.17-1.55-.49-2.19-.33-.64-.77-1.17-1.33-1.6-.56-.43-1.2-.75-1.92-.96-.72-.21-1.48-.32-2.26-.32Z"/>
        <path class="cls-1" d="M945.47,440.95v-14.97c0-2-.46-3.42-1.38-4.26-.92-.84-2.07-1.26-3.45-1.26-1.67,0-3.18,.52-4.53,1.55s-2.31,2.5-2.9,4.41v14.52h-3.45v-22.65h2.71l.39,4.23h.2c.43-1.38,1.32-2.55,2.68-3.52,1.36-.97,3.13-1.45,5.29-1.45,1.97,0,3.62,.44,4.95,1.3,1.33,.87,2.17,2.09,2.54,3.67,.33-.66,.74-1.28,1.23-1.87,.49-.59,1.08-1.12,1.77-1.58,.69-.46,1.48-.83,2.36-1.11s1.89-.42,3-.42c1.02,0,1.99,.14,2.93,.42,.93,.28,1.75,.73,2.46,1.35,.71,.62,1.27,1.44,1.7,2.46,.42,1.02,.64,2.26,.64,3.74v15.41h-3.45v-14.97c0-2-.46-3.42-1.38-4.26s-2.07-1.26-3.45-1.26c-1.67,0-3.18,.52-4.53,1.55-1.35,1.03-2.31,2.5-2.91,4.41v14.52h-3.45Z"/>
        <path class="cls-1" d="M324.53,490.67h-10.39v29.05h-3.69v-29.05h-10.39v-3.45h24.47v3.45Z"/>
        <path class="cls-1" d="M336.83,500.71c-.53-.29-1.05-.53-1.58-.71-.53-.18-1.03-.27-1.53-.27-.66,0-1.28,.18-1.87,.54-.59,.36-1.13,.85-1.63,1.48s-.93,1.35-1.3,2.17c-.38,.82-.67,1.67-.86,2.56v13.24h-3.45v-22.65h2.71l.39,4.97h.2c.23-.75,.53-1.48,.91-2.17,.38-.69,.84-1.3,1.38-1.82,.54-.52,1.16-.94,1.85-1.25s1.48-.47,2.36-.47c.62,0,1.28,.11,1.97,.32s1.18,.48,1.48,.81l-1.03,3.25Z"/>
        <path class="cls-1" d="M351.85,496.33c2.89,0,5.12,.73,6.7,2.19,1.58,1.46,2.36,3.52,2.36,6.18,0,.56-.03,1.13-.1,1.7-.07,.58-.18,.99-.35,1.26h-16.59v.49c0,1.25,.16,2.45,.49,3.59,.33,1.15,.82,2.17,1.48,3.05,.66,.89,1.48,1.59,2.49,2.12,1,.53,2.19,.79,3.57,.79,.79,0,1.56-.09,2.31-.27,.75-.18,1.48-.41,2.17-.69,.69-.28,1.33-.58,1.92-.91,.59-.33,1.12-.66,1.58-.98l.59,2.81c-.43,.26-.95,.55-1.58,.86-.62,.31-1.31,.6-2.07,.86s-1.58,.48-2.49,.67c-.9,.18-1.85,.27-2.83,.27-1.84,0-3.46-.32-4.87-.96-1.41-.64-2.59-1.51-3.54-2.61-.95-1.1-1.67-2.37-2.17-3.81-.49-1.44-.74-2.96-.74-4.53s.25-3.14,.76-4.6c.51-1.46,1.25-2.75,2.24-3.86,.98-1.12,2.21-2,3.67-2.63s3.13-.96,5-.96Zm-.15,2.76c-2.17,0-3.85,.57-5.04,1.7-1.2,1.13-2.01,2.55-2.44,4.26h13.44c.03-.16,.05-.31,.05-.44v-.44c0-.82-.17-1.55-.49-2.19-.33-.64-.77-1.17-1.33-1.6-.56-.43-1.2-.75-1.92-.96-.72-.21-1.48-.32-2.26-.32Z"/>
        <path class="cls-1" d="M383.06,519.72v-14.97c0-1.97-.44-3.38-1.33-4.23-.89-.85-2.02-1.28-3.4-1.28-.82,0-1.63,.13-2.44,.39-.8,.26-1.55,.65-2.24,1.16-.69,.51-1.3,1.13-1.82,1.87-.53,.74-.94,1.58-1.23,2.54v14.52h-3.45v-22.65h2.71l.39,4.23h.2c.43-1.38,1.38-2.55,2.86-3.52,1.48-.97,3.31-1.45,5.51-1.45,1.05,0,2.04,.14,2.98,.42,.94,.28,1.75,.73,2.44,1.35s1.24,1.44,1.65,2.46,.62,2.26,.62,3.74v15.41h-3.45Z"/>
        <path class="cls-1" d="M402.46,520.31c-1.67,0-3.13-.33-4.38-.99-1.25-.66-2.28-1.53-3.1-2.61-.82-1.08-1.44-2.34-1.85-3.77-.41-1.43-.62-2.93-.62-4.5s.22-3.15,.66-4.63c.44-1.48,1.1-2.76,1.97-3.86,.87-1.1,1.96-1.98,3.27-2.63,1.31-.66,2.84-.98,4.58-.98,2.2,0,4,.48,5.42,1.43,1.41,.95,2.33,2.13,2.76,3.54v-18.02h3.45v36.43h-2.71l-.39-4.04h-.2c-.79,1.21-1.94,2.29-3.45,3.22s-3.32,1.4-5.42,1.4Zm.39-2.91c1.58,0,3.13-.43,4.65-1.28,1.53-.85,2.75-2.08,3.67-3.69v-7.24c-.59-1.87-1.58-3.33-2.98-4.38-1.4-1.05-2.96-1.58-4.7-1.58-1.15,0-2.17,.23-3.08,.69s-1.67,1.1-2.29,1.92c-.63,.82-1.11,1.8-1.45,2.95s-.52,2.41-.52,3.79c0,1.05,.11,2.1,.34,3.15,.23,1.05,.61,2,1.13,2.83,.53,.84,1.21,1.52,2.07,2.04,.85,.52,1.9,.79,3.15,.79Z"/>
        <path class="cls-1" d="M449.57,519.72h-4.68l-6.15-17.72-6.5,17.72h-4.68l-8.32-22.65h3.64l7.09,19.3,7.09-19.3h3.64l6.65,19.3,7.53-19.3h3.5l-8.81,22.65Z"/>
        <path class="cls-1" d="M472.71,496.33c2.89,0,5.12,.73,6.7,2.19,1.58,1.46,2.36,3.52,2.36,6.18,0,.56-.03,1.13-.1,1.7-.07,.58-.18,.99-.35,1.26h-16.59v.49c0,1.25,.16,2.45,.49,3.59,.33,1.15,.82,2.17,1.48,3.05,.66,.89,1.48,1.59,2.49,2.12,1,.53,2.19,.79,3.57,.79,.79,0,1.56-.09,2.31-.27,.75-.18,1.48-.41,2.17-.69,.69-.28,1.33-.58,1.92-.91,.59-.33,1.12-.66,1.58-.98l.59,2.81c-.43,.26-.95,.55-1.58,.86-.62,.31-1.31,.6-2.07,.86s-1.58,.48-2.49,.67c-.9,.18-1.85,.27-2.83,.27-1.84,0-3.46-.32-4.87-.96-1.41-.64-2.59-1.51-3.54-2.61-.95-1.1-1.67-2.37-2.17-3.81-.49-1.44-.74-2.96-.74-4.53s.25-3.14,.76-4.6c.51-1.46,1.25-2.75,2.24-3.86,.98-1.12,2.21-2,3.67-2.63s3.13-.96,5-.96Zm-.15,2.76c-2.17,0-3.85,.57-5.04,1.7-1.2,1.13-2.01,2.55-2.44,4.26h13.44c.03-.16,.05-.31,.05-.44v-.44c0-.82-.17-1.55-.49-2.19-.33-.64-.77-1.17-1.33-1.6-.56-.43-1.2-.75-1.92-.96-.72-.21-1.48-.32-2.26-.32Z"/>
        <path class="cls-1" d="M505.7,501.21c-.76-.56-1.84-1.06-3.25-1.5-1.41-.44-2.82-.66-4.23-.66s-2.67,.25-3.67,.74c-1,.49-1.83,1.15-2.49,1.97-.66,.82-1.13,1.76-1.43,2.83-.29,1.07-.44,2.17-.44,3.32,0,1.28,.18,2.51,.54,3.69,.36,1.18,.89,2.22,1.6,3.1s1.58,1.59,2.61,2.12c1.03,.52,2.24,.79,3.62,.79s2.67-.28,4.06-.84c1.39-.56,2.55-1.26,3.47-2.12l.69,3.2c-.92,.59-2.17,1.15-3.77,1.67-1.59,.52-3.29,.79-5.09,.79-1.9,0-3.57-.33-5-.99-1.43-.66-2.61-1.53-3.54-2.63s-1.64-2.38-2.12-3.84-.71-3.01-.71-4.65,.22-3.08,.66-4.5c.44-1.43,1.14-2.69,2.09-3.79,.95-1.1,2.17-1.97,3.64-2.61,1.48-.64,3.25-.96,5.32-.96,1.58,0,3.12,.18,4.63,.54,1.51,.36,2.72,.84,3.64,1.43l-.84,2.9Z"/>
        <path class="cls-1" d="M528.54,519.72v-14.97c0-2-.44-3.42-1.33-4.26s-2.02-1.26-3.4-1.26c-.82,0-1.63,.13-2.44,.39-.8,.26-1.55,.65-2.24,1.16-.69,.51-1.3,1.13-1.82,1.87-.53,.74-.94,1.58-1.23,2.54v14.52h-3.45v-36.43h3.45v18.02c.42-1.38,1.35-2.55,2.78-3.52,1.43-.97,3.24-1.45,5.44-1.45,1.05,0,2.04,.14,2.98,.42,.94,.28,1.75,.73,2.44,1.35s1.24,1.44,1.65,2.46,.62,2.26,.62,3.74v15.41h-3.45Z"/>
        <path class="cls-1" d="M546.12,499.09c-1.58,0-2.72,.29-3.42,.86s-1.06,1.35-1.06,2.34c0,.33,.05,.67,.15,1.03,.1,.36,.29,.7,.57,1.01,.28,.31,.66,.61,1.13,.89,.47,.28,1.11,.5,1.9,.67l3.5,.79c1.38,.3,2.49,.7,3.32,1.21,.84,.51,1.49,1.06,1.95,1.65,.46,.59,.76,1.19,.91,1.8,.15,.61,.22,1.17,.22,1.7,0,1.02-.21,1.97-.62,2.86s-1,1.66-1.77,2.31-1.71,1.17-2.83,1.55c-1.12,.38-2.36,.57-3.74,.57-1.74,0-3.35-.25-4.82-.76-1.48-.51-2.66-1.07-3.54-1.7l.89-3.2c1.18,1.08,2.49,1.87,3.94,2.36,1.44,.49,2.74,.74,3.89,.74,1.64,0,2.89-.4,3.74-1.21,.85-.8,1.28-1.65,1.28-2.54,0-.29-.02-.63-.05-1.01-.03-.38-.17-.76-.39-1.16s-.57-.76-1.03-1.11-1.12-.62-1.97-.81l-4.73-1.18c-1.08-.26-1.97-.61-2.66-1.03-.69-.43-1.23-.89-1.62-1.4-.39-.51-.67-1.05-.84-1.63-.16-.57-.25-1.16-.25-1.75,0-2,.75-3.6,2.24-4.8,1.49-1.2,3.49-1.8,5.98-1.8,1.28,0,2.66,.17,4.13,.52,1.48,.34,2.72,.84,3.74,1.5l-.94,2.95c-.66-.56-1.63-1.07-2.93-1.53-1.3-.46-2.72-.69-4.26-.69Z"/>
        <path class="cls-1" d="M571.32,496.33c2.89,0,5.12,.73,6.7,2.19,1.58,1.46,2.36,3.52,2.36,6.18,0,.56-.03,1.13-.1,1.7-.07,.58-.18,.99-.35,1.26h-16.59v.49c0,1.25,.16,2.45,.49,3.59,.33,1.15,.82,2.17,1.48,3.05,.66,.89,1.48,1.59,2.49,2.12,1,.53,2.19,.79,3.57,.79,.79,0,1.56-.09,2.31-.27,.75-.18,1.48-.41,2.17-.69,.69-.28,1.33-.58,1.92-.91,.59-.33,1.12-.66,1.58-.98l.59,2.81c-.43,.26-.95,.55-1.58,.86-.62,.31-1.31,.6-2.07,.86s-1.58,.48-2.49,.67c-.9,.18-1.85,.27-2.83,.27-1.84,0-3.46-.32-4.87-.96-1.41-.64-2.59-1.51-3.54-2.61-.95-1.1-1.67-2.37-2.17-3.81-.49-1.44-.74-2.96-.74-4.53s.25-3.14,.76-4.6c.51-1.46,1.25-2.75,2.24-3.86,.98-1.12,2.21-2,3.67-2.63s3.13-.96,5-.96Zm-.15,2.76c-2.17,0-3.85,.57-5.04,1.7-1.2,1.13-2.01,2.55-2.44,4.26h13.44c.03-.16,.05-.31,.05-.44v-.44c0-.82-.17-1.55-.49-2.19-.33-.64-.77-1.17-1.33-1.6-.56-.43-1.2-.75-1.92-.96-.72-.21-1.48-.32-2.26-.32Z"/>
        <path class="cls-1" d="M590.37,519.72h-3.45v-36.43h3.45v36.43Z"/>
        <path class="cls-1" d="M619.67,505.05l9.65,14.67h-3.94l-8.12-12.31-3.4,3.4v8.91h-3.45v-36.43h3.45v23.34l9.94-9.55h3.94l-8.07,7.97Z"/>
        <path class="cls-1" d="M642.85,496.33c2,0,3.72,.34,5.17,1.01s2.63,1.58,3.57,2.71c.94,1.13,1.63,2.43,2.07,3.89,.44,1.46,.66,3,.66,4.6s-.22,3.13-.66,4.55c-.44,1.43-1.13,2.68-2.04,3.74-.92,1.07-2.09,1.91-3.52,2.54s-3.11,.94-5.05,.94-3.73-.33-5.19-.99c-1.46-.66-2.67-1.53-3.62-2.63-.95-1.1-1.66-2.37-2.12-3.82-.46-1.44-.69-2.97-.69-4.58s.23-3.13,.69-4.58c.46-1.44,1.16-2.71,2.09-3.82,.94-1.1,2.13-1.97,3.57-2.61s3.13-.96,5.07-.96Zm.15,21.37c1.31,0,2.45-.25,3.42-.74,.97-.49,1.77-1.16,2.41-1.99,.64-.84,1.11-1.81,1.4-2.91,.29-1.1,.44-2.26,.44-3.47s-.16-2.44-.47-3.59-.8-2.16-1.45-3.03c-.66-.87-1.49-1.57-2.49-2.09-1-.53-2.19-.79-3.57-.79s-2.49,.25-3.45,.74-1.74,1.15-2.36,1.97-1.08,1.78-1.38,2.88c-.29,1.1-.44,2.26-.44,3.47s.16,2.45,.47,3.59c.31,1.15,.79,2.17,1.43,3.05,.64,.89,1.46,1.59,2.46,2.12,1,.53,2.19,.79,3.57,.79Z"/>
        <path class="cls-1" d="M676.23,519.72v-14.97c0-2-.46-3.42-1.38-4.26-.92-.84-2.07-1.26-3.45-1.26-1.67,0-3.18,.52-4.53,1.55s-2.31,2.5-2.9,4.41v14.52h-3.45v-22.65h2.71l.39,4.23h.2c.43-1.38,1.32-2.55,2.68-3.52,1.36-.97,3.13-1.45,5.29-1.45,1.97,0,3.62,.44,4.95,1.3,1.33,.87,2.17,2.09,2.54,3.67,.33-.66,.74-1.28,1.23-1.87,.49-.59,1.08-1.12,1.77-1.58,.69-.46,1.48-.83,2.36-1.11s1.89-.42,3-.42c1.02,0,1.99,.14,2.93,.42,.93,.28,1.75,.73,2.46,1.35,.71,.62,1.27,1.44,1.7,2.46,.42,1.02,.64,2.26,.64,3.74v15.41h-3.45v-14.97c0-2-.46-3.42-1.38-4.26s-2.07-1.26-3.45-1.26c-1.67,0-3.18,.52-4.53,1.55-1.35,1.03-2.31,2.5-2.91,4.41v14.52h-3.45Z"/>
        <path class="cls-1" d="M718.52,519.72v-14.97c0-2-.46-3.42-1.38-4.26-.92-.84-2.07-1.26-3.45-1.26-1.67,0-3.18,.52-4.53,1.55s-2.31,2.5-2.9,4.41v14.52h-3.45v-22.65h2.71l.39,4.23h.2c.43-1.38,1.32-2.55,2.68-3.52,1.36-.97,3.13-1.45,5.29-1.45,1.97,0,3.62,.44,4.95,1.3,1.33,.87,2.17,2.09,2.54,3.67,.33-.66,.74-1.28,1.23-1.87,.49-.59,1.08-1.12,1.77-1.58,.69-.46,1.48-.83,2.36-1.11s1.89-.42,3-.42c1.02,0,1.99,.14,2.93,.42,.93,.28,1.75,.73,2.46,1.35,.71,.62,1.27,1.44,1.7,2.46,.42,1.02,.64,2.26,.64,3.74v15.41h-3.45v-14.97c0-2-.46-3.42-1.38-4.26s-2.07-1.26-3.45-1.26c-1.67,0-3.18,.52-4.53,1.55-1.35,1.03-2.31,2.5-2.91,4.41v14.52h-3.45Z"/>
        <path class="cls-1" d="M755.25,496.33c2.89,0,5.12,.73,6.7,2.19,1.58,1.46,2.36,3.52,2.36,6.18,0,.56-.03,1.13-.1,1.7-.07,.58-.18,.99-.35,1.26h-16.59v.49c0,1.25,.16,2.45,.49,3.59,.33,1.15,.82,2.17,1.48,3.05,.66,.89,1.48,1.59,2.49,2.12,1,.53,2.19,.79,3.57,.79,.79,0,1.56-.09,2.31-.27,.75-.18,1.48-.41,2.17-.69,.69-.28,1.33-.58,1.92-.91,.59-.33,1.12-.66,1.58-.98l.59,2.81c-.43,.26-.95,.55-1.58,.86-.62,.31-1.31,.6-2.07,.86s-1.58,.48-2.49,.67c-.9,.18-1.85,.27-2.83,.27-1.84,0-3.46-.32-4.87-.96-1.41-.64-2.59-1.51-3.54-2.61-.95-1.1-1.67-2.37-2.17-3.81-.49-1.44-.74-2.96-.74-4.53s.25-3.14,.76-4.6c.51-1.46,1.25-2.75,2.24-3.86,.98-1.12,2.21-2,3.67-2.63s3.13-.96,5-.96Zm-.15,2.76c-2.17,0-3.85,.57-5.04,1.7-1.2,1.13-2.01,2.55-2.44,4.26h13.44c.03-.16,.05-.31,.05-.44v-.44c0-.82-.17-1.55-.49-2.19-.33-.64-.77-1.17-1.33-1.6-.56-.43-1.2-.75-1.92-.96-.72-.21-1.48-.32-2.26-.32Z"/>
        <path class="cls-1" d="M786.46,519.72v-14.97c0-1.97-.44-3.38-1.33-4.23-.89-.85-2.02-1.28-3.4-1.28-.82,0-1.63,.13-2.44,.39-.8,.26-1.55,.65-2.24,1.16-.69,.51-1.3,1.13-1.82,1.87-.53,.74-.94,1.58-1.23,2.54v14.52h-3.45v-22.65h2.71l.39,4.23h.2c.43-1.38,1.38-2.55,2.86-3.52,1.48-.97,3.31-1.45,5.51-1.45,1.05,0,2.04,.14,2.98,.42,.94,.28,1.75,.73,2.44,1.35s1.24,1.44,1.65,2.46,.62,2.26,.62,3.74v15.41h-3.45Z"/>
        <path class="cls-1" d="M797.04,517.99c0-.62,.21-1.17,.64-1.65s.97-.71,1.63-.71,1.17,.24,1.65,.71,.71,1.03,.71,1.65-.24,1.16-.71,1.6c-.48,.44-1.03,.67-1.65,.67-.66,0-1.2-.22-1.63-.67-.43-.44-.64-.98-.64-1.6Z"/>
      </g>
      <g>
        <path class="cls-1" d="M308.94,323.28h-3.32v-23.26l-4.24,2.03-.97-3.09,8.53-4.86v29.18Z"/>
        <path class="cls-1" d="M327.68,293.88c1.89,0,3.56,.4,5.02,1.19,1.46,.8,2.69,1.88,3.69,3.25,1,1.37,1.76,2.95,2.28,4.75,.52,1.8,.77,3.68,.77,5.66s-.27,3.82-.8,5.64c-.53,1.81-1.31,3.42-2.32,4.82-1.02,1.4-2.28,2.52-3.78,3.36-1.5,.84-3.23,1.26-5.17,1.26s-3.59-.4-5.02-1.19-2.62-1.87-3.56-3.23-1.66-2.93-2.14-4.71-.73-3.66-.73-5.64c0-2.09,.27-4.06,.8-5.9,.53-1.84,1.3-3.45,2.3-4.82,1-1.37,2.23-2.45,3.69-3.25s3.12-1.19,4.97-1.19Zm-.22,27.02c1.45,0,2.7-.31,3.76-.93,1.06-.62,1.93-1.47,2.61-2.56,.68-1.09,1.18-2.36,1.5-3.82,.32-1.46,.49-3.03,.49-4.71,0-1.8-.17-3.43-.51-4.91-.34-1.47-.85-2.74-1.55-3.8-.69-1.06-1.55-1.89-2.59-2.48-1.03-.59-2.24-.88-3.63-.88s-2.63,.29-3.65,.86c-1.02,.57-1.84,1.39-2.48,2.43-.63,1.05-1.1,2.29-1.39,3.74-.3,1.45-.44,3.04-.44,4.78,0,4.07,.69,7.13,2.06,9.2,1.37,2.06,3.31,3.09,5.81,3.09Z"/>
        <path class="cls-1" d="M356.38,293.88c1.89,0,3.56,.4,5.02,1.19,1.46,.8,2.69,1.88,3.69,3.25,1,1.37,1.76,2.95,2.28,4.75,.52,1.8,.77,3.68,.77,5.66s-.27,3.82-.8,5.64c-.53,1.81-1.31,3.42-2.32,4.82-1.02,1.4-2.28,2.52-3.78,3.36-1.5,.84-3.23,1.26-5.17,1.26s-3.59-.4-5.02-1.19-2.62-1.87-3.56-3.23-1.66-2.93-2.14-4.71-.73-3.66-.73-5.64c0-2.09,.27-4.06,.8-5.9,.53-1.84,1.3-3.45,2.3-4.82,1-1.37,2.23-2.45,3.69-3.25s3.12-1.19,4.97-1.19Zm-.22,27.02c1.45,0,2.7-.31,3.76-.93,1.06-.62,1.93-1.47,2.61-2.56,.68-1.09,1.18-2.36,1.5-3.82,.32-1.46,.49-3.03,.49-4.71,0-1.8-.17-3.43-.51-4.91-.34-1.47-.85-2.74-1.55-3.8-.69-1.06-1.55-1.89-2.59-2.48-1.03-.59-2.24-.88-3.63-.88s-2.63,.29-3.65,.86c-1.02,.57-1.84,1.39-2.48,2.43-.63,1.05-1.1,2.29-1.39,3.74-.3,1.45-.44,3.04-.44,4.78,0,4.07,.69,7.13,2.06,9.2,1.37,2.06,3.31,3.09,5.81,3.09Z"/>
        <path class="cls-1" d="M389.76,293.88c1.03,0,1.95,.22,2.76,.66,.81,.44,1.49,1.03,2.03,1.77s.97,1.6,1.26,2.59c.29,.99,.44,2.03,.44,3.12s-.15,2.09-.44,3.09c-.3,1-.72,1.89-1.28,2.65-.56,.77-1.26,1.38-2.1,1.84-.84,.46-1.79,.69-2.85,.69s-1.95-.21-2.74-.64-1.46-1.01-1.99-1.75c-.53-.74-.93-1.6-1.19-2.59-.27-.99-.4-2.03-.4-3.12,0-1.15,.15-2.23,.44-3.25,.3-1.02,.72-1.9,1.28-2.65,.56-.75,1.24-1.34,2.03-1.77s1.71-.64,2.74-.64Zm-.13,14.41c.74,0,1.37-.16,1.9-.49,.53-.32,.96-.77,1.3-1.33,.34-.56,.59-1.21,.75-1.97,.16-.75,.24-1.55,.24-2.41,0-1.86-.34-3.36-1.02-4.51-.68-1.15-1.72-1.72-3.14-1.72s-2.46,.57-3.05,1.7c-.59,1.14-.89,2.59-.89,4.36,0,2.12,.34,3.71,1.02,4.78s1.64,1.59,2.87,1.59Zm1.15,16.05h-2.87l20.47-31.61h2.87l-20.47,31.61Zm18.79-17.15c1.03,0,1.95,.22,2.76,.66,.81,.44,1.49,1.03,2.04,1.77,.54,.74,.96,1.6,1.26,2.59s.44,2.03,.44,3.12-.15,2.09-.44,3.1-.72,1.89-1.28,2.65c-.56,.77-1.26,1.38-2.1,1.84s-1.79,.69-2.85,.69-1.95-.21-2.74-.64c-.8-.43-1.46-1.01-1.99-1.75-.53-.74-.93-1.6-1.19-2.59s-.4-2.03-.4-3.12c0-1.15,.15-2.23,.44-3.25,.29-1.02,.72-1.9,1.28-2.65,.56-.75,1.24-1.34,2.03-1.77,.8-.43,1.71-.64,2.74-.64Zm-.13,14.41c.74,0,1.37-.16,1.9-.49,.53-.32,.97-.77,1.31-1.33,.34-.56,.59-1.22,.75-1.97,.16-.75,.24-1.55,.24-2.41,0-1.86-.34-3.36-1.02-4.51-.68-1.15-1.72-1.72-3.14-1.72s-2.46,.57-3.05,1.7c-.59,1.14-.88,2.59-.88,4.36,0,2.12,.34,3.71,1.02,4.78,.68,1.06,1.64,1.59,2.87,1.59Z"/>
        <path class="cls-1" d="M453.6,298.96c-.94-.62-2.11-1.13-3.49-1.55s-2.96-.62-4.73-.62c-1.97,0-3.64,.29-5,.86-1.36,.57-2.45,1.38-3.29,2.41-.84,1.03-1.44,2.28-1.81,3.74-.37,1.46-.55,3.07-.55,4.84,0,4.04,.88,7.09,2.65,9.15,1.77,2.06,4.41,3.09,7.91,3.09,1.86,0,3.57-.26,5.13-.8,1.56-.53,2.82-1.18,3.76-1.95l.88,2.96c-1.18,.71-2.6,1.33-4.27,1.88-1.67,.55-3.54,.82-5.64,.82-2.42,0-4.51-.4-6.28-1.19-1.77-.8-3.23-1.87-4.4-3.23s-2.03-2.93-2.59-4.71c-.56-1.78-.84-3.68-.84-5.68s.31-4.05,.93-5.88,1.54-3.43,2.76-4.8c1.22-1.37,2.74-2.45,4.55-3.25,1.81-.8,3.93-1.19,6.35-1.19,1.59,0,3.18,.17,4.77,.51,1.59,.34,2.96,.8,4.11,1.39l-.93,3.18Z"/>
        <path class="cls-1" d="M473.28,323.28l-.35-3.63h-.18c-.35,.56-.83,1.09-1.41,1.59-.59,.5-1.25,.94-1.97,1.33-.72,.38-1.5,.69-2.34,.91-.84,.22-1.67,.33-2.5,.33-1.95,0-3.41-.57-4.38-1.7-.97-1.13-1.46-2.56-1.46-4.27s.43-3.02,1.28-4.02c.85-1,1.9-1.75,3.14-2.26,1.24-.5,2.54-.82,3.91-.97,1.37-.15,2.57-.22,3.6-.22h1.99v-.53c0-1.12-.16-1.97-.46-2.56-.31-.59-.76-1.09-1.35-1.5-.5-.32-1.04-.55-1.61-.69-.58-.13-1.33-.2-2.28-.2-1.24,0-2.33,.16-3.27,.49-.94,.33-1.86,.75-2.74,1.28l-.71-2.65c1.97-1.15,4.33-1.72,7.07-1.72,1.09,0,2.12,.1,3.1,.29s1.83,.52,2.56,.99c.85,.53,1.53,1.28,2.03,2.26,.5,.97,.75,2.18,.75,3.63v13.84h-2.43Zm-7.83-2.08c1.21,0,2.49-.38,3.85-1.15,1.35-.77,2.46-1.87,3.32-3.32v-4.11h-.4c-1.21,0-2.42,.04-3.63,.13-1.21,.09-2.31,.31-3.29,.66-.99,.35-1.79,.86-2.41,1.53s-.93,1.57-.93,2.72,.32,2.03,.95,2.63c.63,.6,1.48,.91,2.54,.91Z"/>
        <path class="cls-1" d="M488.35,304.75c-1.41,0-2.44,.26-3.07,.77s-.95,1.22-.95,2.1c0,.3,.04,.6,.13,.93,.09,.33,.26,.63,.51,.91,.25,.28,.59,.55,1.02,.8,.43,.25,.99,.45,1.7,.6l3.14,.71c1.24,.27,2.23,.63,2.98,1.08,.75,.46,1.33,.95,1.75,1.48,.41,.53,.69,1.07,.82,1.61,.13,.55,.2,1.05,.2,1.53,0,.91-.18,1.77-.55,2.56s-.9,1.49-1.59,2.08-1.54,1.05-2.54,1.39c-1,.34-2.12,.51-3.36,.51-1.56,0-3.01-.23-4.33-.69-1.33-.46-2.39-.96-3.18-1.52l.8-2.87c1.06,.97,2.24,1.68,3.54,2.12,1.3,.44,2.46,.66,3.49,.66,1.47,0,2.59-.36,3.36-1.08,.77-.72,1.15-1.48,1.15-2.28,0-.26-.02-.57-.04-.91-.03-.34-.15-.69-.35-1.04s-.52-.69-.93-.99-1-.55-1.77-.73l-4.24-1.06c-.97-.23-1.77-.54-2.39-.93-.62-.38-1.11-.8-1.46-1.26-.35-.46-.6-.94-.75-1.46-.15-.52-.22-1.04-.22-1.57,0-1.8,.67-3.23,2.01-4.31,1.34-1.08,3.13-1.61,5.37-1.61,1.15,0,2.39,.16,3.71,.46,1.33,.31,2.45,.76,3.36,1.35l-.84,2.65c-.59-.5-1.47-.96-2.63-1.37-1.17-.41-2.44-.62-3.83-.62Z"/>
        <path class="cls-1" d="M516.16,323.28v-13.44c0-1.8-.4-3.07-1.19-3.82s-1.81-1.13-3.05-1.13c-.74,0-1.47,.12-2.19,.35-.72,.24-1.39,.58-2.01,1.04-.62,.46-1.16,1.02-1.64,1.68-.47,.66-.84,1.42-1.11,2.28v13.04h-3.1v-32.72h3.1v16.18c.38-1.24,1.21-2.29,2.5-3.16,1.28-.87,2.91-1.3,4.89-1.3,.94,0,1.84,.13,2.67,.38,.84,.25,1.57,.66,2.19,1.22s1.11,1.3,1.48,2.21,.55,2.03,.55,3.36v13.84h-3.09Z"/>
        <path class="cls-1" d="M525.8,305.24c0-.56,.19-1.04,.58-1.46,.38-.41,.87-.62,1.46-.62s1.05,.21,1.48,.62c.43,.41,.64,.9,.64,1.46,0,.59-.21,1.08-.64,1.48-.43,.4-.92,.6-1.48,.6-.59,0-1.08-.2-1.46-.6-.38-.4-.58-.89-.58-1.48Zm0,16.49c0-.56,.19-1.05,.58-1.48,.38-.43,.87-.64,1.46-.64s1.05,.21,1.48,.64c.43,.43,.64,.92,.64,1.48s-.21,1.04-.64,1.44c-.43,.4-.92,.6-1.48,.6-.59,0-1.08-.2-1.46-.6-.38-.4-.58-.88-.58-1.44Z"/>
        <path class="cls-1" d="M548.44,294.01h9.64c2.09,0,4,.29,5.73,.88,1.73,.59,3.19,1.39,4.4,2.41,1.56,1.4,2.7,3.11,3.41,5.13,.71,2.02,1.06,4.21,1.06,6.57,0,1.99-.28,3.86-.84,5.63s-1.42,3.32-2.59,4.67-2.63,2.41-4.4,3.2c-1.77,.79-3.86,1.18-6.28,1.18h-5.64c-1.67,0-3.16-.13-4.49-.38v-29.29Zm9.91,2.87h-6.59v23.75c1.86,.17,4.08,.26,6.68,.26,3.51,0,6.15-1.03,7.91-3.08,1.77-2.06,2.65-5.1,2.65-9.12,0-1.76-.18-3.37-.55-4.82-.37-1.45-.97-2.69-1.81-3.72-.84-1.03-1.94-1.83-3.29-2.4s-3.02-.86-5-.86Z"/>
        <path class="cls-1" d="M577.67,295.51c0-.59,.21-1.12,.64-1.59,.43-.47,.95-.71,1.57-.71s1.12,.24,1.59,.71c.47,.47,.71,1,.71,1.59s-.24,1.14-.71,1.57c-.47,.43-1,.64-1.59,.64s-1.14-.21-1.57-.64c-.43-.43-.64-.95-.64-1.57Zm3.76,27.77h-3.1v-20.34h3.1v20.34Z"/>
        <path class="cls-1" d="M597.43,302.28c2.59,0,4.6,.66,6.01,1.97,1.41,1.31,2.12,3.16,2.12,5.55,0,.5-.03,1.01-.09,1.53-.06,.52-.16,.89-.31,1.13h-14.9v.44c0,1.12,.15,2.2,.44,3.23,.3,1.03,.74,1.95,1.33,2.74,.59,.8,1.33,1.43,2.23,1.9,.9,.47,1.97,.71,3.21,.71,.71,0,1.4-.08,2.08-.24,.68-.16,1.33-.37,1.95-.62,.62-.25,1.19-.52,1.72-.82,.53-.29,1-.59,1.41-.88l.53,2.52c-.38,.24-.85,.49-1.41,.77-.56,.28-1.18,.54-1.86,.77s-1.42,.43-2.23,.6c-.81,.16-1.66,.24-2.54,.24-1.65,0-3.11-.29-4.38-.86-1.27-.58-2.33-1.36-3.18-2.34-.85-.99-1.5-2.13-1.94-3.43-.44-1.3-.66-2.65-.66-4.07s.23-2.82,.69-4.13c.46-1.31,1.13-2.47,2.01-3.47,.88-1,1.98-1.79,3.29-2.37s2.81-.86,4.49-.86Zm-.13,2.48c-1.94,0-3.46,.51-4.53,1.53-1.08,1.02-1.81,2.29-2.19,3.82h12.07c.03-.15,.04-.28,.04-.4v-.4c0-.74-.15-1.39-.44-1.97-.3-.57-.69-1.05-1.19-1.44-.5-.38-1.08-.67-1.73-.86-.65-.19-1.33-.29-2.03-.29Z"/>
        <path class="cls-1" d="M622.94,293.97h6.81c2.62,0,4.73,.64,6.32,1.91s2.39,3.15,2.39,5.64c0,1.17-.24,2.23-.73,3.19s-1.24,1.76-2.28,2.44c1.77,.59,3.15,1.52,4.16,2.79,1,1.27,1.5,2.87,1.5,4.82,0,1.24-.22,2.4-.66,3.49-.44,1.09-1.12,2.05-2.03,2.87s-2.05,1.48-3.4,1.97-2.95,.73-4.78,.73c-1.45,0-2.78-.05-4.02-.16-1.24-.1-2.33-.23-3.27-.38v-29.31Zm6.01,12.42c1.86,0,3.29-.47,4.31-1.41,1.02-.94,1.53-2.22,1.53-3.83,0-1.29-.35-2.33-1.06-3.12-.71-.79-1.95-1.19-3.71-1.19h-3.76v9.51c.41,.03,.85,.04,1.31,.04h1.39Zm1.15,14.5c2.39,0,4.21-.55,5.46-1.65,1.25-1.1,1.88-2.71,1.88-4.82,0-1.67-.57-3-1.7-3.99-1.14-.98-3.04-1.48-5.73-1.48h-3.76v11.8c1.15,.09,2.43,.13,3.85,.13Z"/>
        <path class="cls-1" d="M655.66,302.28c1.8,0,3.34,.3,4.64,.91s2.37,1.41,3.21,2.43c.84,1.02,1.46,2.18,1.86,3.49,.4,1.31,.6,2.69,.6,4.14s-.2,2.81-.6,4.09c-.4,1.28-1.01,2.4-1.84,3.36-.83,.96-1.88,1.72-3.16,2.28s-2.79,.84-4.53,.84-3.35-.3-4.66-.89c-1.31-.59-2.4-1.38-3.25-2.36-.86-.99-1.49-2.13-1.9-3.43-.41-1.3-.62-2.67-.62-4.11s.21-2.82,.62-4.11c.41-1.3,1.04-2.44,1.88-3.43,.84-.99,1.91-1.77,3.21-2.34s2.82-.86,4.56-.86Zm.13,19.19c1.18,0,2.2-.22,3.07-.66,.87-.44,1.59-1.04,2.17-1.79,.57-.75,.99-1.62,1.26-2.61,.26-.99,.4-2.03,.4-3.12s-.14-2.19-.42-3.23-.72-1.94-1.3-2.72c-.59-.78-1.33-1.41-2.23-1.88-.9-.47-1.97-.71-3.21-.71s-2.24,.22-3.09,.66-1.56,1.03-2.12,1.77-.97,1.6-1.24,2.59c-.26,.99-.4,2.03-.4,3.12s.14,2.2,.42,3.23c.28,1.03,.71,1.95,1.28,2.74,.57,.8,1.31,1.43,2.21,1.9,.9,.47,1.97,.71,3.21,.71Zm-5.39-25.87c0-.53,.18-.99,.53-1.39,.35-.4,.78-.6,1.28-.6s.94,.2,1.31,.6c.37,.4,.55,.86,.55,1.39,0,.56-.18,1.02-.55,1.39-.37,.37-.8,.55-1.31,.55s-.93-.18-1.28-.55c-.35-.37-.53-.83-.53-1.39Zm6.94,0c0-.53,.18-.99,.53-1.39,.35-.4,.78-.6,1.28-.6s.94,.2,1.31,.6c.37,.4,.55,.86,.55,1.39,0,.56-.18,1.02-.55,1.39-.37,.37-.8,.55-1.31,.55s-.93-.18-1.28-.55c-.35-.37-.53-.83-.53-1.39Z"/>
        <path class="cls-1" d="M682.5,306.21c-.47-.26-.94-.48-1.41-.64-.47-.16-.93-.24-1.37-.24-.59,0-1.15,.16-1.68,.49-.53,.32-1.02,.77-1.46,1.33s-.83,1.21-1.17,1.95c-.34,.74-.6,1.5-.77,2.3v11.89h-3.1v-20.34h2.43l.35,4.47h.18c.21-.68,.48-1.33,.82-1.95,.34-.62,.75-1.16,1.24-1.64,.49-.47,1.04-.85,1.66-1.13s1.33-.42,2.12-.42c.56,0,1.15,.1,1.77,.29s1.06,.43,1.33,.73l-.93,2.92Z"/>
        <path class="cls-1" d="M693.29,304.75c-1.41,0-2.44,.26-3.07,.77s-.95,1.22-.95,2.1c0,.3,.04,.6,.13,.93,.09,.33,.26,.63,.51,.91,.25,.28,.59,.55,1.02,.8,.43,.25,.99,.45,1.7,.6l3.14,.71c1.24,.27,2.23,.63,2.98,1.08,.75,.46,1.33,.95,1.75,1.48,.41,.53,.69,1.07,.82,1.61,.13,.55,.2,1.05,.2,1.53,0,.91-.18,1.77-.55,2.56s-.9,1.49-1.59,2.08-1.54,1.05-2.54,1.39c-1,.34-2.12,.51-3.36,.51-1.56,0-3.01-.23-4.33-.69-1.33-.46-2.39-.96-3.18-1.52l.8-2.87c1.06,.97,2.24,1.68,3.54,2.12,1.3,.44,2.46,.66,3.49,.66,1.47,0,2.59-.36,3.36-1.08,.77-.72,1.15-1.48,1.15-2.28,0-.26-.02-.57-.04-.91-.03-.34-.15-.69-.35-1.04s-.52-.69-.93-.99-1-.55-1.77-.73l-4.24-1.06c-.97-.23-1.77-.54-2.39-.93-.62-.38-1.11-.8-1.46-1.26-.35-.46-.6-.94-.75-1.46-.15-.52-.22-1.04-.22-1.57,0-1.8,.67-3.23,2.01-4.31,1.34-1.08,3.13-1.61,5.37-1.61,1.15,0,2.39,.16,3.71,.46,1.33,.31,2.45,.76,3.36,1.35l-.84,2.65c-.59-.5-1.47-.96-2.63-1.37-1.17-.41-2.44-.62-3.83-.62Z"/>
        <path class="cls-1" d="M715.92,302.28c2.59,0,4.6,.66,6.01,1.97,1.41,1.31,2.12,3.16,2.12,5.55,0,.5-.03,1.01-.09,1.53-.06,.52-.16,.89-.31,1.13h-14.9v.44c0,1.12,.15,2.2,.44,3.23,.3,1.03,.74,1.95,1.33,2.74,.59,.8,1.33,1.43,2.23,1.9,.9,.47,1.97,.71,3.21,.71,.71,0,1.4-.08,2.08-.24,.68-.16,1.33-.37,1.95-.62,.62-.25,1.19-.52,1.72-.82,.53-.29,1-.59,1.41-.88l.53,2.52c-.38,.24-.85,.49-1.41,.77-.56,.28-1.18,.54-1.86,.77s-1.42,.43-2.23,.6c-.81,.16-1.66,.24-2.54,.24-1.65,0-3.11-.29-4.38-.86-1.27-.58-2.33-1.36-3.18-2.34-.85-.99-1.5-2.13-1.94-3.43-.44-1.3-.66-2.65-.66-4.07s.23-2.82,.69-4.13c.46-1.31,1.13-2.47,2.01-3.47,.88-1,1.98-1.79,3.29-2.37s2.81-.86,4.49-.86Zm-.13,2.48c-1.94,0-3.46,.51-4.53,1.53-1.08,1.02-1.81,2.29-2.19,3.82h12.07c.03-.15,.04-.28,.04-.4v-.4c0-.74-.15-1.39-.44-1.97-.3-.57-.69-1.05-1.19-1.44-.5-.38-1.08-.67-1.73-.86-.65-.19-1.33-.29-2.03-.29Z"/>
        <path class="cls-1" d="M743.95,323.28v-13.44c0-1.77-.4-3.04-1.19-3.8-.8-.77-1.81-1.15-3.05-1.15-.74,0-1.47,.12-2.19,.35-.72,.24-1.39,.58-2.01,1.04-.62,.46-1.16,1.02-1.64,1.68-.47,.66-.84,1.42-1.11,2.28v13.04h-3.1v-20.34h2.43l.35,3.8h.18c.38-1.24,1.24-2.29,2.56-3.16,1.33-.87,2.98-1.3,4.95-1.3,.94,0,1.84,.13,2.67,.38,.84,.25,1.57,.66,2.19,1.22s1.11,1.3,1.48,2.21,.55,2.03,.55,3.36v13.84h-3.09Z"/>
        <path class="cls-1" d="M765.66,305.02h-3.4v-1.64l3.4-.4c0-1.65,.05-3.07,.16-4.25,.1-1.18,.24-2.17,.42-2.98s.38-1.47,.6-1.99c.22-.52,.43-.94,.64-1.26,.56-.82,1.25-1.39,2.08-1.7,.82-.31,1.68-.46,2.56-.46h.62c.29,0,.63,.02,.99,.07,.37,.05,.74,.13,1.13,.23s.75,.26,1.11,.45l-.75,2.61c-.09,0-.3-.05-.62-.15-.33-.1-.69-.22-1.08-.35-.4-.13-.82-.26-1.28-.38-.46-.12-.86-.18-1.21-.18-.44,0-.81,.13-1.11,.38-.3,.25-.52,.66-.69,1.24-.16,.58-.28,1.33-.35,2.28-.07,.94-.11,2.11-.11,3.49v2.92h4.78v2.08h-4.78v18.26h-3.1v-18.26Z"/>
        <path class="cls-1" d="M790.69,323.28l-.35-3.63h-.18c-.35,.56-.83,1.09-1.41,1.59-.59,.5-1.25,.94-1.97,1.33-.72,.38-1.5,.69-2.34,.91-.84,.22-1.67,.33-2.5,.33-1.95,0-3.41-.57-4.38-1.7-.97-1.13-1.46-2.56-1.46-4.27s.43-3.02,1.28-4.02c.85-1,1.9-1.75,3.14-2.26,1.24-.5,2.54-.82,3.91-.97,1.37-.15,2.57-.22,3.6-.22h1.99v-.53c0-1.12-.16-1.97-.46-2.56-.31-.59-.76-1.09-1.35-1.5-.5-.32-1.04-.55-1.61-.69-.58-.13-1.33-.2-2.28-.2-1.24,0-2.33,.16-3.27,.49-.94,.33-1.86,.75-2.74,1.28l-.71-2.65c1.97-1.15,4.33-1.72,7.07-1.72,1.09,0,2.12,.1,3.1,.29s1.83,.52,2.56,.99c.85,.53,1.53,1.28,2.03,2.26,.5,.97,.75,2.18,.75,3.63v13.84h-2.43Zm-7.83-2.08c1.21,0,2.49-.38,3.85-1.15,1.35-.77,2.46-1.87,3.32-3.32v-4.11h-.4c-1.21,0-2.42,.04-3.63,.13-1.21,.09-2.31,.31-3.29,.66-.99,.35-1.79,.86-2.41,1.53s-.93,1.57-.93,2.72,.32,2.03,.95,2.63c.63,.6,1.48,.91,2.54,.91Z"/>
        <path class="cls-1" d="M803.16,323.28h-3.1v-32.72h3.1v32.72Z"/>
        <path class="cls-1" d="M813.68,323.28h-3.1v-32.72h3.1v32.72Z"/>
        <path class="cls-1" d="M829.95,302.28c2.59,0,4.6,.66,6.01,1.97,1.41,1.31,2.12,3.16,2.12,5.55,0,.5-.03,1.01-.09,1.53-.06,.52-.16,.89-.31,1.13h-14.9v.44c0,1.12,.15,2.2,.44,3.23,.3,1.03,.74,1.95,1.33,2.74,.59,.8,1.33,1.43,2.23,1.9,.9,.47,1.97,.71,3.21,.71,.71,0,1.4-.08,2.08-.24,.68-.16,1.33-.37,1.95-.62,.62-.25,1.19-.52,1.72-.82,.53-.29,1-.59,1.41-.88l.53,2.52c-.38,.24-.85,.49-1.41,.77-.56,.28-1.18,.54-1.86,.77s-1.42,.43-2.23,.6c-.81,.16-1.66,.24-2.54,.24-1.65,0-3.11-.29-4.38-.86-1.27-.58-2.33-1.36-3.18-2.34-.85-.99-1.5-2.13-1.94-3.43-.44-1.3-.66-2.65-.66-4.07s.23-2.82,.69-4.13c.46-1.31,1.13-2.47,2.01-3.47,.88-1,1.98-1.79,3.29-2.37s2.81-.86,4.49-.86Zm-.13,2.48c-1.94,0-3.46,.51-4.53,1.53-1.08,1.02-1.81,2.29-2.19,3.82h12.07c.03-.15,.04-.28,.04-.4v-.4c0-.74-.15-1.39-.44-1.97-.3-.57-.69-1.05-1.19-1.44-.5-.38-1.08-.67-1.73-.86-.65-.19-1.33-.29-2.03-.29Z"/>
        <path class="cls-1" d="M857.98,323.28v-13.44c0-1.77-.4-3.04-1.19-3.8-.8-.77-1.81-1.15-3.05-1.15-.74,0-1.47,.12-2.19,.35-.72,.24-1.39,.58-2.01,1.04-.62,.46-1.16,1.02-1.64,1.68-.47,.66-.84,1.42-1.11,2.28v13.04h-3.1v-20.34h2.43l.35,3.8h.18c.38-1.24,1.24-2.29,2.56-3.16,1.33-.87,2.98-1.3,4.95-1.3,.94,0,1.84,.13,2.67,.38,.84,.25,1.57,.66,2.19,1.22s1.11,1.3,1.48,2.21,.55,2.03,.55,3.36v13.84h-3.09Z"/>
        <path class="cls-1" d="M867.48,321.73c0-.56,.19-1.05,.57-1.48s.87-.64,1.46-.64,1.05,.21,1.48,.64,.64,.92,.64,1.48-.21,1.04-.64,1.44c-.43,.4-.92,.6-1.48,.6-.59,0-1.08-.2-1.46-.6-.38-.4-.57-.88-.57-1.44Z"/>
      </g>
      <g>
        <path class="cls-1" d="M233.79,146.88c0,4.46-1.6,8.13-4.8,10.99-3.2,2.86-7.3,4.29-12.29,4.29h-23.16v-51.99h18.43c4.83,0,8.78,1.35,11.85,4.06,3.07,2.71,4.61,6.18,4.61,10.44,0,3.83-1.29,6.96-3.86,9.37,6.14,2.26,9.22,6.54,9.22,12.84Zm-22.69-27.57h-7.33v11.89h7.33c2.15,0,3.82-.52,5-1.58,1.18-1.05,1.77-2.52,1.77-4.41s-.59-3.28-1.77-4.33c-1.18-1.05-2.85-1.58-5-1.58Zm12.21,27.18c0-2-.66-3.59-1.97-4.77s-3.13-1.77-5.43-1.77h-12.13v13.08h12.13c2.31,0,4.12-.58,5.43-1.73,1.31-1.15,1.97-2.76,1.97-4.8Z"/>
        <path class="cls-1" d="M239.54,142.63c-.11-5.57,1.92-10.37,6.07-14.42,4.15-4.04,9.08-6.01,14.81-5.91,5.72-.1,10.67,1.87,14.85,5.91,4.17,4.04,6.21,8.85,6.11,14.42,.1,5.57-1.94,10.39-6.14,14.46-4.2,4.07-9.17,6.05-14.89,5.95-5.72,.1-10.65-1.88-14.77-5.95-4.12-4.07-6.13-8.89-6.03-14.46Zm7.01-29.38c-1.26-1.21-1.89-2.65-1.89-4.33s.63-3.12,1.89-4.33c1.26-1.21,2.78-1.81,4.57-1.81,1.68,0,3.15,.6,4.41,1.81,1.26,1.21,1.89,2.65,1.89,4.33s-.63,3.13-1.89,4.33c-1.26,1.21-2.73,1.81-4.41,1.81-1.79,0-3.31-.6-4.57-1.81Zm21.07,37.02c1.92-2,2.88-4.52,2.88-7.56s-.96-5.59-2.88-7.64c-1.92-2.05-4.32-3.07-7.21-3.07s-5.36,1.01-7.25,3.03c-1.89,2.02-2.84,4.58-2.84,7.68s.95,5.57,2.84,7.56c1.89,2,4.31,2.99,7.25,2.99s5.29-1,7.21-2.99Zm-2.32-37.02c-1.26-1.21-1.89-2.65-1.89-4.33s.63-3.12,1.89-4.33c1.26-1.21,2.78-1.81,4.57-1.81,1.68,0,3.15,.6,4.41,1.81s1.89,2.65,1.89,4.33-.63,3.13-1.89,4.33-2.73,1.81-4.41,1.81c-1.79,0-3.31-.6-4.57-1.81Z"/>
        <path class="cls-1" d="M313.58,123.17v9.37h-2.84c-3.26,0-5.82,.87-7.68,2.6-1.87,1.73-2.8,4.25-2.8,7.56v19.46h-10.63v-38.99h9.77v4.65c2.73-3.41,6.3-5.12,10.71-5.12,1.31,0,2.47,.16,3.46,.47Z"/>
        <path class="cls-1" d="M316.65,155.55l5.36-6.46c3.36,3.52,7.01,5.28,10.95,5.28,1.47,0,2.67-.28,3.58-.83s1.38-1.35,1.38-2.4c0-.79-.28-1.41-.83-1.85s-1.61-1.01-3.19-1.69l-4.17-1.73c-3.73-1.52-6.43-3.19-8.11-5-1.68-1.81-2.52-4.11-2.52-6.89,0-3.62,1.31-6.47,3.94-8.55,2.63-2.07,6.09-3.11,10.4-3.11,5.78,0,10.45,1.94,14.02,5.83l-5.36,6.54c-2.63-2.47-5.54-3.7-8.74-3.7-2.79,0-4.17,.92-4.17,2.76,0,.74,.29,1.34,.87,1.81,.58,.47,1.65,1.02,3.23,1.65l3.78,1.58c3.88,1.58,6.68,3.26,8.39,5.04s2.56,4.07,2.56,6.85c0,3.89-1.45,6.93-4.33,9.14-2.84,2.21-6.46,3.31-10.87,3.31-6.99,0-12.37-2.52-16.15-7.56Z"/>
        <path class="cls-1" d="M391.87,146.25h-27.33c.63,2.47,1.9,4.37,3.82,5.71,1.92,1.34,4.29,2.01,7.13,2.01,3.83,0,7.46-1.31,10.87-3.94l4.41,7.25c-4.67,3.89-9.87,5.83-15.6,5.83-5.99,.1-11.07-1.85-15.24-5.87s-6.21-8.86-6.1-14.53c-.11-5.62,1.86-10.45,5.91-14.49,4.04-4.04,8.88-6.01,14.49-5.91,5.36,0,9.76,1.73,13.19,5.2s5.16,7.77,5.16,12.92c0,1.89-.24,3.83-.71,5.83Zm-27.33-7.48h17.72c-.05-2.36-.88-4.27-2.48-5.71-1.6-1.44-3.59-2.17-5.95-2.17s-4.23,.71-5.91,2.13c-1.68,1.42-2.81,3.34-3.39,5.75Z"/>
        <path class="cls-1" d="M436.69,137.98v24.18h-10.55v-22.76c0-2.26-.67-4.08-2.01-5.47-1.34-1.39-3.09-2.09-5.24-2.09s-3.93,.7-5.32,2.09c-1.39,1.39-2.09,3.22-2.09,5.47v22.76h-10.63v-38.99h9.77v3.54c2.94-2.94,6.75-4.41,11.42-4.41s8.09,1.42,10.71,4.25c2.63,2.84,3.94,6.64,3.94,11.42Z"/>
        <path class="cls-1" d="M479.62,139v23.16h-9.77v-3.78c-3.04,3.15-7.01,4.73-11.89,4.73-4.09,0-7.36-1.08-9.81-3.23-2.44-2.15-3.66-4.96-3.66-8.43s1.33-6.29,3.98-8.31c2.65-2.02,6.23-3.03,10.75-3.03h9.77v-1.73c0-2.21-.62-3.9-1.85-5.08-1.24-1.18-3.03-1.77-5.4-1.77-1.94,0-3.7,.42-5.28,1.26-1.58,.84-3.26,2.21-5.04,4.1l-5.51-6.54c4.52-5.36,10.19-8.04,17.01-8.04,5.15,0,9.22,1.46,12.21,4.37,2.99,2.92,4.49,7.02,4.49,12.33Zm-10.63,8.59v-.47h-8.35c-3.62,0-5.44,1.31-5.44,3.94,0,1.31,.51,2.35,1.54,3.11s2.38,1.14,4.06,1.14c2.36,0,4.32-.72,5.87-2.17,1.55-1.44,2.32-3.29,2.32-5.55Z"/>
        <path class="cls-1" d="M549.97,137.98v24.18h-10.63v-22.69c0-2.31-.63-4.15-1.89-5.51s-2.94-2.05-5.04-2.05-3.82,.68-5.16,2.05c-1.34,1.37-2.01,3.13-2.01,5.28v22.92h-10.63v-22.69c0-2.31-.63-4.15-1.89-5.51-1.26-1.37-2.94-2.05-5.04-2.05s-3.89,.68-5.2,2.05c-1.31,1.37-1.97,3.2-1.97,5.51v22.69h-10.63v-38.99h9.77v3.46c2.73-2.89,6.41-4.33,11.03-4.33,5.09,0,8.95,1.87,11.58,5.59,3.31-3.73,7.64-5.59,13-5.59,4.52,0,8.1,1.42,10.75,4.25,2.65,2.84,3.98,6.64,3.98,11.42Z"/>
        <path class="cls-1" d="M595.93,128.09c3.6,3.86,5.4,8.7,5.4,14.53s-1.8,10.7-5.4,14.61c-3.6,3.91-8.1,5.87-13.51,5.87-4.88,0-8.77-1.58-11.66-4.73v17.96h-10.63v-53.17h9.77v4.88c2.68-3.83,6.85-5.75,12.52-5.75s9.91,1.93,13.51,5.79Zm-5.4,14.61c0-3.2-.95-5.8-2.84-7.8-1.89-2-4.31-2.99-7.25-2.99s-5.19,.94-7.05,2.84-2.8,4.52-2.8,7.88,.93,6,2.8,7.92c1.86,1.92,4.21,2.88,7.05,2.88s5.29-1,7.21-2.99c1.92-2,2.88-4.57,2.88-7.72Z"/>
        <path class="cls-1" d="M645.52,146.25h-27.33c.63,2.47,1.9,4.37,3.82,5.71,1.92,1.34,4.29,2.01,7.13,2.01,3.83,0,7.46-1.31,10.87-3.94l4.41,7.25c-4.67,3.89-9.87,5.83-15.6,5.83-5.99,.1-11.07-1.85-15.24-5.87-4.17-4.02-6.21-8.86-6.1-14.53-.11-5.62,1.86-10.45,5.91-14.49,4.04-4.04,8.88-6.01,14.49-5.91,5.36,0,9.76,1.73,13.19,5.2,3.44,3.47,5.16,7.77,5.16,12.92,0,1.89-.24,3.83-.71,5.83Zm-27.33-7.48h17.72c-.05-2.36-.88-4.27-2.48-5.71-1.6-1.44-3.59-2.17-5.95-2.17s-4.23,.71-5.91,2.13c-1.68,1.42-2.81,3.34-3.39,5.75Z"/>
        <path class="cls-1" d="M654.49,162.16v-59.08h10.63v59.08h-10.63Z"/>
        <path class="cls-1" d="M688.13,117.74v5.44h8.59v8.98h-8.59v30.01h-10.63v-30.01h-5.51v-8.98h5.51v-6.38c0-4.83,1.31-8.48,3.94-10.95,2.63-2.47,6.33-3.7,11.11-3.7,2,0,3.94,.29,5.83,.87v8.9c-1.16-.16-2.21-.24-3.15-.24-2.47,0-4.27,.47-5.4,1.42-1.13,.95-1.69,2.5-1.69,4.65Z"/>
        <path class="cls-1" d="M735.31,139v23.16h-9.77v-3.78c-3.04,3.15-7.01,4.73-11.89,4.73-4.09,0-7.36-1.08-9.81-3.23s-3.66-4.96-3.66-8.43,1.33-6.29,3.98-8.31c2.65-2.02,6.23-3.03,10.75-3.03h9.77v-1.73c0-2.21-.62-3.9-1.85-5.08-1.24-1.18-3.03-1.77-5.4-1.77-1.94,0-3.7,.42-5.28,1.26-1.58,.84-3.26,2.21-5.04,4.1l-5.51-6.54c4.52-5.36,10.19-8.04,17.01-8.04,5.15,0,9.22,1.46,12.21,4.37,2.99,2.92,4.49,7.02,4.49,12.33Zm-10.63,8.59v-.47h-8.35c-3.62,0-5.44,1.31-5.44,3.94,0,1.31,.51,2.35,1.54,3.11s2.38,1.14,4.06,1.14c2.36,0,4.32-.72,5.87-2.17,1.55-1.44,2.32-3.29,2.32-5.55Z"/>
        <path class="cls-1" d="M769.5,123.17v9.37h-2.84c-3.26,0-5.82,.87-7.68,2.6-1.87,1.73-2.8,4.25-2.8,7.56v19.46h-10.63v-38.99h9.77v4.65c2.73-3.41,6.3-5.12,10.71-5.12,1.31,0,2.47,.16,3.46,.47Z"/>
        <path class="cls-1" d="M811.96,128.09c3.57,3.86,5.36,8.73,5.36,14.61s-1.79,10.75-5.36,14.61c-3.57,3.86-8.09,5.79-13.55,5.79s-9.69-1.92-12.52-5.75v4.8h-9.77v-59.08h10.63v23.87c2.84-3.1,6.72-4.65,11.66-4.65,5.46,0,9.98,1.93,13.55,5.79Zm-5.43,14.53c0-3.15-.96-5.72-2.88-7.72-1.92-2-4.32-2.99-7.21-2.99s-5.19,.96-7.05,2.88-2.8,4.56-2.8,7.92,.93,5.99,2.8,7.88c1.86,1.89,4.21,2.84,7.05,2.84s5.36-1,7.25-2.99c1.89-2,2.84-4.59,2.84-7.8Z"/>
        <path class="cls-1" d="M861.5,146.25h-27.33c.63,2.47,1.9,4.37,3.82,5.71,1.92,1.34,4.29,2.01,7.13,2.01,3.83,0,7.46-1.31,10.87-3.94l4.41,7.25c-4.67,3.89-9.87,5.83-15.6,5.83-5.99,.1-11.07-1.85-15.24-5.87s-6.21-8.86-6.1-14.53c-.11-5.62,1.86-10.45,5.91-14.49,4.04-4.04,8.88-6.01,14.49-5.91,5.36,0,9.76,1.73,13.19,5.2s5.16,7.77,5.16,12.92c0,1.89-.24,3.83-.71,5.83Zm-27.33-7.48h17.72c-.05-2.36-.88-4.27-2.48-5.71-1.6-1.44-3.59-2.17-5.95-2.17s-4.23,.71-5.91,2.13c-1.68,1.42-2.81,3.34-3.39,5.75Z"/>
        <path class="cls-1" d="M906.32,137.98v24.18h-10.55v-22.76c0-2.26-.67-4.08-2.01-5.47-1.34-1.39-3.09-2.09-5.24-2.09s-3.93,.7-5.32,2.09c-1.39,1.39-2.09,3.22-2.09,5.47v22.76h-10.63v-38.99h9.77v3.54c2.94-2.94,6.75-4.41,11.42-4.41s8.09,1.42,10.71,4.25c2.63,2.84,3.94,6.64,3.94,11.42Z"/>
      </g>
      <circle class="cls-6" cx="222.08" cy="611.54" r="46.51"/>
      <g>
        <path class="cls-1" d="M309.9,610.17h-3.69v-25.9l-4.73,2.26-1.08-3.45,9.5-5.42v32.49Z"/>
        <path class="cls-1" d="M330.78,577.43c2.1,0,3.96,.44,5.59,1.33,1.62,.89,2.99,2.09,4.11,3.62,1.12,1.53,1.96,3.29,2.54,5.29,.57,2,.86,4.1,.86,6.3s-.3,4.26-.89,6.28c-.59,2.02-1.45,3.81-2.58,5.37-1.13,1.56-2.54,2.81-4.21,3.74-1.67,.94-3.59,1.4-5.76,1.4s-4-.44-5.59-1.33-2.91-2.08-3.96-3.59-1.85-3.26-2.39-5.24-.81-4.08-.81-6.28c0-2.33,.3-4.52,.89-6.57,.59-2.05,1.44-3.84,2.56-5.37,1.12-1.53,2.49-2.73,4.11-3.62s3.47-1.33,5.54-1.33Zm-.25,30.08c1.61,0,3-.34,4.19-1.03,1.18-.69,2.15-1.64,2.9-2.86,.75-1.21,1.31-2.63,1.67-4.26,.36-1.63,.54-3.37,.54-5.24,0-2-.19-3.82-.57-5.46-.38-1.64-.95-3.05-1.72-4.23-.77-1.18-1.73-2.1-2.88-2.76-1.15-.66-2.5-.98-4.04-.98s-2.93,.32-4.06,.96c-1.13,.64-2.05,1.54-2.76,2.71-.71,1.17-1.22,2.55-1.55,4.16-.33,1.61-.49,3.38-.49,5.32,0,4.53,.76,7.94,2.29,10.24,1.53,2.3,3.68,3.45,6.47,3.45Z"/>
        <path class="cls-1" d="M362.73,577.43c2.1,0,3.96,.44,5.59,1.33,1.62,.89,2.99,2.09,4.11,3.62,1.12,1.53,1.96,3.29,2.54,5.29,.57,2,.86,4.1,.86,6.3s-.3,4.26-.89,6.28c-.59,2.02-1.45,3.81-2.58,5.37-1.13,1.56-2.54,2.81-4.21,3.74-1.67,.94-3.59,1.4-5.76,1.4s-4-.44-5.59-1.33-2.91-2.08-3.96-3.59-1.85-3.26-2.39-5.24-.81-4.08-.81-6.28c0-2.33,.3-4.52,.89-6.57,.59-2.05,1.44-3.84,2.56-5.37,1.12-1.53,2.49-2.73,4.11-3.62s3.47-1.33,5.54-1.33Zm-.25,30.08c1.61,0,3-.34,4.19-1.03,1.18-.69,2.15-1.64,2.9-2.86,.75-1.21,1.31-2.63,1.67-4.26,.36-1.63,.54-3.37,.54-5.24,0-2-.19-3.82-.57-5.46-.38-1.64-.95-3.05-1.72-4.23-.77-1.18-1.73-2.1-2.88-2.76-1.15-.66-2.5-.98-4.04-.98s-2.93,.32-4.06,.96c-1.13,.64-2.05,1.54-2.76,2.71-.71,1.17-1.22,2.55-1.55,4.16-.33,1.61-.49,3.38-.49,5.32,0,4.53,.76,7.94,2.29,10.24,1.53,2.3,3.68,3.45,6.47,3.45Z"/>
        <path class="cls-1" d="M399.9,577.43c1.15,0,2.17,.25,3.08,.74,.9,.49,1.66,1.15,2.26,1.97s1.08,1.78,1.4,2.88c.33,1.1,.49,2.26,.49,3.47s-.17,2.33-.49,3.45c-.33,1.12-.81,2.1-1.43,2.95-.63,.85-1.4,1.54-2.34,2.04-.93,.51-1.99,.76-3.17,.76s-2.17-.24-3.05-.71-1.62-1.12-2.21-1.95c-.59-.82-1.03-1.78-1.33-2.88-.3-1.1-.44-2.26-.44-3.47,0-1.28,.16-2.49,.49-3.62,.33-1.13,.8-2.12,1.43-2.96,.62-.84,1.38-1.49,2.26-1.97s1.9-.71,3.05-.71Zm-.15,16.05c.82,0,1.53-.18,2.12-.54,.59-.36,1.07-.85,1.45-1.48,.38-.62,.66-1.35,.84-2.19,.18-.84,.27-1.73,.27-2.68,0-2.07-.38-3.74-1.13-5.02-.76-1.28-1.92-1.92-3.5-1.92s-2.74,.63-3.4,1.89c-.66,1.26-.99,2.88-.99,4.85,0,2.36,.38,4.14,1.13,5.32s1.82,1.77,3.2,1.77Zm1.28,17.87h-3.2l22.79-35.2h3.2l-22.8,35.2Zm20.92-19.1c1.15,0,2.17,.25,3.08,.74,.9,.49,1.66,1.15,2.27,1.97,.61,.82,1.07,1.78,1.4,2.88s.49,2.26,.49,3.47-.16,2.33-.49,3.45-.8,2.1-1.43,2.95c-.62,.85-1.4,1.54-2.34,2.04s-1.99,.76-3.17,.76-2.17-.24-3.05-.71c-.89-.48-1.63-1.13-2.21-1.95-.59-.82-1.04-1.78-1.33-2.88s-.44-2.26-.44-3.47c0-1.28,.16-2.49,.49-3.62,.33-1.13,.8-2.12,1.43-2.95,.62-.84,1.38-1.49,2.26-1.97,.89-.47,1.9-.71,3.05-.71Zm-.15,16.05c.82,0,1.53-.18,2.12-.54,.59-.36,1.08-.85,1.45-1.48,.38-.62,.66-1.35,.84-2.19,.18-.84,.27-1.73,.27-2.68,0-2.07-.38-3.74-1.13-5.02-.75-1.28-1.92-1.92-3.5-1.92s-2.74,.63-3.4,1.9c-.66,1.26-.98,2.88-.98,4.85,0,2.36,.38,4.13,1.13,5.32,.75,1.18,1.82,1.77,3.2,1.77Z"/>
        <path class="cls-1" d="M446.17,579.25c0-.66,.24-1.25,.71-1.77,.47-.52,1.06-.79,1.75-.79s1.25,.26,1.77,.79c.53,.53,.79,1.12,.79,1.77s-.26,1.27-.79,1.75c-.53,.48-1.12,.71-1.77,.71s-1.27-.24-1.75-.71c-.48-.47-.71-1.06-.71-1.75Zm4.19,30.92h-3.45v-22.65h3.45v22.65Z"/>
        <path class="cls-1" d="M473.94,610.17v-14.97c0-1.97-.44-3.38-1.33-4.23-.89-.85-2.02-1.28-3.4-1.28-.82,0-1.63,.13-2.44,.39-.8,.26-1.55,.65-2.24,1.16-.69,.51-1.3,1.13-1.82,1.87-.53,.74-.94,1.58-1.23,2.54v14.52h-3.45v-22.65h2.71l.39,4.23h.2c.43-1.38,1.38-2.55,2.86-3.52,1.48-.97,3.31-1.45,5.51-1.45,1.05,0,2.04,.14,2.98,.42,.94,.28,1.75,.73,2.44,1.35s1.24,1.44,1.65,2.46,.62,2.26,.62,3.74v15.41h-3.45Z"/>
        <path class="cls-1" d="M496.05,610.17h-4.38l-10.29-22.65h3.74l8.81,19.4,8.81-19.4h3.59l-10.29,22.65Z"/>
        <path class="cls-1" d="M520.42,586.78c2.89,0,5.12,.73,6.7,2.19,1.58,1.46,2.36,3.52,2.36,6.18,0,.56-.03,1.13-.1,1.7-.07,.58-.18,.99-.35,1.26h-16.59v.49c0,1.25,.16,2.45,.49,3.59,.33,1.15,.82,2.17,1.48,3.05,.66,.89,1.48,1.59,2.49,2.12,1,.53,2.19,.79,3.57,.79,.79,0,1.56-.09,2.31-.27,.75-.18,1.48-.41,2.17-.69,.69-.28,1.33-.58,1.92-.91,.59-.33,1.12-.66,1.58-.98l.59,2.81c-.43,.26-.95,.55-1.58,.86-.62,.31-1.31,.6-2.07,.86s-1.58,.48-2.49,.67c-.9,.18-1.85,.27-2.83,.27-1.84,0-3.46-.32-4.87-.96-1.41-.64-2.59-1.51-3.54-2.61-.95-1.1-1.67-2.37-2.17-3.81-.49-1.44-.74-2.96-.74-4.53s.25-3.14,.76-4.6c.51-1.46,1.25-2.75,2.24-3.86,.98-1.12,2.21-2,3.67-2.63s3.13-.96,5-.96Zm-.15,2.76c-2.17,0-3.85,.57-5.04,1.7-1.2,1.13-2.01,2.55-2.44,4.26h13.44c.03-.16,.05-.31,.05-.44v-.44c0-.82-.17-1.55-.49-2.19-.33-.64-.77-1.17-1.33-1.6-.56-.43-1.2-.75-1.92-.96-.72-.21-1.48-.32-2.26-.32Z"/>
        <path class="cls-1" d="M542.37,589.54c-1.58,0-2.72,.29-3.42,.86s-1.06,1.35-1.06,2.34c0,.33,.05,.67,.15,1.03,.1,.36,.29,.7,.57,1.01,.28,.31,.66,.61,1.13,.89,.47,.28,1.11,.5,1.9,.67l3.5,.79c1.38,.3,2.49,.7,3.32,1.21,.84,.51,1.49,1.06,1.95,1.65,.46,.59,.76,1.19,.91,1.8,.15,.61,.22,1.17,.22,1.7,0,1.02-.21,1.97-.62,2.86s-1,1.66-1.77,2.31-1.71,1.17-2.83,1.55c-1.12,.38-2.36,.57-3.74,.57-1.74,0-3.35-.25-4.82-.76-1.48-.51-2.66-1.07-3.54-1.7l.89-3.2c1.18,1.08,2.49,1.87,3.94,2.36,1.44,.49,2.74,.74,3.89,.74,1.64,0,2.89-.4,3.74-1.21,.85-.8,1.28-1.65,1.28-2.54,0-.29-.02-.63-.05-1.01-.03-.38-.17-.76-.39-1.16s-.57-.76-1.03-1.11-1.12-.62-1.97-.81l-4.73-1.18c-1.08-.26-1.97-.61-2.66-1.03-.69-.43-1.23-.89-1.62-1.4-.39-.51-.67-1.05-.84-1.63-.16-.57-.25-1.16-.25-1.75,0-2,.75-3.6,2.24-4.8,1.49-1.2,3.49-1.8,5.98-1.8,1.28,0,2.66,.17,4.13,.52,1.48,.34,2.72,.84,3.74,1.5l-.94,2.95c-.66-.56-1.63-1.07-2.93-1.53-1.3-.46-2.72-.69-4.26-.69Z"/>
        <path class="cls-1" d="M558.47,589.84h-3.79v-1.82l3.89-.49,.74-6.84h2.61v6.84h5.32v2.31h-5.32v15.7c0,1.05,.16,1.74,.47,2.07,.31,.33,.79,.49,1.45,.49,.75,0,1.43-.12,2.02-.34,.59-.23,1.12-.51,1.58-.84l.69,2.61c-.56,.26-1.29,.52-2.19,.79s-1.89,.39-2.98,.39-1.87-.15-2.46-.44c-.59-.29-1.03-.69-1.33-1.18-.29-.49-.48-1.04-.57-1.65s-.12-1.21-.12-1.8v-15.8Z"/>
        <path class="cls-1" d="M572.11,579.25c0-.66,.24-1.25,.71-1.77,.47-.52,1.06-.79,1.75-.79s1.25,.26,1.77,.79c.53,.53,.79,1.12,.79,1.77s-.26,1.27-.79,1.75c-.53,.48-1.12,.71-1.77,.71s-1.27-.24-1.75-.71c-.48-.47-.71-1.06-.71-1.75Zm4.19,30.92h-3.45v-22.65h3.45v22.65Z"/>
        <path class="cls-1" d="M594.12,586.78c2.89,0,5.12,.73,6.7,2.19,1.58,1.46,2.36,3.52,2.36,6.18,0,.56-.03,1.13-.1,1.7-.07,.58-.18,.99-.35,1.26h-16.59v.49c0,1.25,.16,2.45,.49,3.59,.33,1.15,.82,2.17,1.48,3.05,.66,.89,1.48,1.59,2.49,2.12,1,.53,2.19,.79,3.57,.79,.79,0,1.56-.09,2.31-.27,.75-.18,1.48-.41,2.17-.69,.69-.28,1.33-.58,1.92-.91,.59-.33,1.12-.66,1.58-.98l.59,2.81c-.43,.26-.95,.55-1.58,.86-.62,.31-1.31,.6-2.07,.86s-1.58,.48-2.49,.67c-.9,.18-1.85,.27-2.83,.27-1.84,0-3.46-.32-4.87-.96-1.41-.64-2.59-1.51-3.54-2.61-.95-1.1-1.67-2.37-2.17-3.81-.49-1.44-.74-2.96-.74-4.53s.25-3.14,.76-4.6c.51-1.46,1.25-2.75,2.24-3.86,.98-1.12,2.21-2,3.67-2.63s3.13-.96,5-.96Zm-.15,2.76c-2.17,0-3.85,.57-5.04,1.7-1.2,1.13-2.01,2.55-2.44,4.26h13.44c.03-.16,.05-.31,.05-.44v-.44c0-.82-.17-1.55-.49-2.19-.33-.64-.77-1.17-1.33-1.6-.56-.43-1.2-.75-1.92-.96-.72-.21-1.48-.32-2.26-.32Z"/>
        <path class="cls-1" d="M621.64,591.17c-.53-.29-1.05-.53-1.58-.71-.53-.18-1.03-.27-1.53-.27-.66,0-1.28,.18-1.87,.54-.59,.36-1.13,.85-1.63,1.48s-.93,1.35-1.3,2.17c-.38,.82-.67,1.67-.86,2.56v13.24h-3.45v-22.65h2.71l.39,4.97h.2c.23-.75,.53-1.48,.91-2.17,.38-.69,.84-1.3,1.38-1.82,.54-.52,1.16-.94,1.85-1.25s1.48-.47,2.36-.47c.62,0,1.28,.11,1.97,.32s1.18,.48,1.48,.81l-1.03,3.25Z"/>
        <path class="cls-1" d="M628.04,589.84h-3.79v-1.82l3.89-.49,.74-6.84h2.61v6.84h5.32v2.31h-5.32v15.7c0,1.05,.16,1.74,.47,2.07,.31,.33,.79,.49,1.45,.49,.75,0,1.43-.12,2.02-.34,.59-.23,1.12-.51,1.58-.84l.69,2.61c-.56,.26-1.29,.52-2.19,.79s-1.89,.39-2.98,.39-1.87-.15-2.46-.44c-.59-.29-1.03-.69-1.33-1.18-.29-.49-.48-1.04-.57-1.65s-.12-1.21-.12-1.8v-15.8Z"/>
        <path class="cls-1" d="M642.21,590.08c0-.62,.21-1.16,.64-1.63,.43-.46,.97-.69,1.62-.69s1.17,.23,1.65,.69c.47,.46,.71,1,.71,1.63,0,.66-.24,1.21-.71,1.65-.48,.44-1.03,.67-1.65,.67-.66,0-1.2-.22-1.62-.67-.43-.44-.64-.99-.64-1.65Zm0,18.36c0-.62,.21-1.17,.64-1.65,.43-.48,.97-.71,1.62-.71s1.17,.24,1.65,.71c.47,.48,.71,1.03,.71,1.65s-.24,1.16-.71,1.6c-.48,.44-1.03,.67-1.65,.67-.66,0-1.2-.22-1.62-.67-.43-.44-.64-.98-.64-1.6Z"/>
        <path class="cls-1" d="M667.42,577.58h10.73c2.33,0,4.46,.33,6.38,.98,1.92,.65,3.55,1.54,4.9,2.68,1.74,1.56,3,3.46,3.79,5.71,.79,2.25,1.18,4.68,1.18,7.32,0,2.21-.31,4.3-.94,6.27s-1.58,3.7-2.88,5.2-2.93,2.68-4.9,3.56c-1.97,.88-4.3,1.32-6.99,1.32h-6.28c-1.85,0-3.52-.14-5-.42v-32.62Zm11.03,3.2h-7.34v26.44c2.07,.19,4.55,.29,7.43,.29,3.91,0,6.84-1.14,8.81-3.43,1.97-2.29,2.95-5.67,2.95-10.15,0-1.96-.21-3.75-.62-5.37-.41-1.62-1.08-3-2.02-4.15-.94-1.14-2.16-2.04-3.67-2.67s-3.37-.96-5.56-.96Z"/>
        <path class="cls-1" d="M699.96,579.25c0-.66,.24-1.25,.71-1.77,.47-.52,1.06-.79,1.75-.79s1.25,.26,1.77,.79c.53,.53,.79,1.12,.79,1.77s-.26,1.27-.79,1.75c-.53,.48-1.12,.71-1.77,.71s-1.27-.24-1.75-.71c-.48-.47-.71-1.06-.71-1.75Zm4.19,30.92h-3.45v-22.65h3.45v22.65Z"/>
        <path class="cls-1" d="M721.97,586.78c2.89,0,5.12,.73,6.7,2.19,1.58,1.46,2.36,3.52,2.36,6.18,0,.56-.03,1.13-.1,1.7-.07,.58-.18,.99-.35,1.26h-16.59v.49c0,1.25,.16,2.45,.49,3.59,.33,1.15,.82,2.17,1.48,3.05,.66,.89,1.48,1.59,2.49,2.12,1,.53,2.19,.79,3.57,.79,.79,0,1.56-.09,2.31-.27,.75-.18,1.48-.41,2.17-.69,.69-.28,1.33-.58,1.92-.91,.59-.33,1.12-.66,1.58-.98l.59,2.81c-.43,.26-.95,.55-1.58,.86-.62,.31-1.31,.6-2.07,.86s-1.58,.48-2.49,.67c-.9,.18-1.85,.27-2.83,.27-1.84,0-3.46-.32-4.87-.96-1.41-.64-2.59-1.51-3.54-2.61-.95-1.1-1.67-2.37-2.17-3.81-.49-1.44-.74-2.96-.74-4.53s.25-3.14,.76-4.6c.51-1.46,1.25-2.75,2.24-3.86,.98-1.12,2.21-2,3.67-2.63s3.13-.96,5-.96Zm-.15,2.76c-2.17,0-3.85,.57-5.04,1.7-1.2,1.13-2.01,2.55-2.44,4.26h13.44c.03-.16,.05-.31,.05-.44v-.44c0-.82-.17-1.55-.49-2.19-.33-.64-.77-1.17-1.33-1.6-.56-.43-1.2-.75-1.92-.96-.72-.21-1.48-.32-2.26-.32Z"/>
        <path class="cls-1" d="M750.38,577.53h7.58c2.92,0,5.27,.71,7.04,2.13s2.66,3.51,2.66,6.28c0,1.31-.27,2.49-.81,3.55s-1.39,1.96-2.54,2.71c1.97,.66,3.51,1.69,4.63,3.1,1.12,1.41,1.67,3.2,1.67,5.37,0,1.38-.25,2.67-.74,3.89-.49,1.21-1.25,2.28-2.26,3.2s-2.28,1.65-3.79,2.19-3.28,.81-5.32,.81c-1.61,0-3.1-.06-4.48-.17-1.38-.12-2.59-.25-3.64-.42v-32.64Zm6.7,13.83c2.07,0,3.67-.52,4.8-1.57,1.13-1.05,1.7-2.47,1.7-4.26,0-1.44-.39-2.6-1.18-3.48-.79-.88-2.17-1.32-4.14-1.32h-4.18v10.59c.46,.03,.94,.05,1.45,.05h1.55Zm1.28,16.15c2.66,0,4.68-.61,6.08-1.84,1.39-1.23,2.09-3.02,2.09-5.37,0-1.86-.63-3.34-1.89-4.44-1.26-1.1-3.39-1.64-6.38-1.64h-4.18v13.14c1.28,.1,2.71,.15,4.28,.15Z"/>
        <path class="cls-1" d="M786.81,586.78c2,0,3.72,.34,5.17,1.01s2.63,1.58,3.57,2.71c.94,1.13,1.63,2.43,2.07,3.89,.44,1.46,.66,3,.66,4.6s-.22,3.13-.66,4.55c-.44,1.43-1.13,2.68-2.04,3.74-.92,1.07-2.09,1.91-3.52,2.54s-3.11,.94-5.05,.94-3.73-.33-5.19-.99c-1.46-.66-2.67-1.53-3.62-2.63-.95-1.1-1.66-2.37-2.12-3.82-.46-1.44-.69-2.97-.69-4.58s.23-3.13,.69-4.58c.46-1.44,1.16-2.71,2.09-3.82,.94-1.1,2.13-1.97,3.57-2.61s3.13-.96,5.07-.96Zm.15,21.37c1.31,0,2.45-.25,3.42-.74,.97-.49,1.77-1.16,2.41-1.99,.64-.84,1.11-1.81,1.4-2.91,.29-1.1,.44-2.26,.44-3.47s-.16-2.44-.47-3.59-.8-2.16-1.45-3.03c-.66-.87-1.49-1.57-2.49-2.09-1-.53-2.19-.79-3.57-.79s-2.49,.25-3.45,.74-1.74,1.15-2.36,1.97-1.08,1.78-1.38,2.88c-.29,1.1-.44,2.26-.44,3.47s.16,2.45,.47,3.59c.31,1.15,.79,2.17,1.43,3.05,.64,.89,1.46,1.59,2.46,2.12,1,.53,2.19,.79,3.57,.79Zm-6.01-28.8c0-.59,.2-1.11,.59-1.55,.39-.44,.87-.67,1.43-.67s1.04,.22,1.45,.67c.41,.44,.62,.96,.62,1.55,0,.63-.21,1.14-.62,1.55-.41,.41-.9,.62-1.45,.62s-1.03-.21-1.43-.62c-.39-.41-.59-.93-.59-1.55Zm7.73,0c0-.59,.2-1.11,.59-1.55,.39-.44,.87-.67,1.43-.67s1.04,.22,1.45,.67c.41,.44,.62,.96,.62,1.55,0,.63-.21,1.14-.62,1.55-.41,.41-.9,.62-1.45,.62s-1.03-.21-1.43-.62c-.39-.41-.59-.93-.59-1.55Z"/>
        <path class="cls-1" d="M816.69,591.17c-.53-.29-1.05-.53-1.58-.71-.53-.18-1.03-.27-1.53-.27-.66,0-1.28,.18-1.87,.54-.59,.36-1.13,.85-1.63,1.48s-.93,1.35-1.3,2.17c-.38,.82-.67,1.67-.86,2.56v13.24h-3.45v-22.65h2.71l.39,4.97h.2c.23-.75,.53-1.48,.91-2.17,.38-.69,.84-1.3,1.38-1.82,.54-.52,1.16-.94,1.85-1.25s1.48-.47,2.36-.47c.62,0,1.28,.11,1.97,.32s1.18,.48,1.48,.81l-1.03,3.25Z"/>
        <path class="cls-1" d="M828.7,589.54c-1.58,0-2.72,.29-3.42,.86s-1.06,1.35-1.06,2.34c0,.33,.05,.67,.15,1.03,.1,.36,.29,.7,.57,1.01,.28,.31,.66,.61,1.13,.89,.47,.28,1.11,.5,1.9,.67l3.5,.79c1.38,.3,2.49,.7,3.32,1.21,.84,.51,1.49,1.06,1.95,1.65,.46,.59,.76,1.19,.91,1.8,.15,.61,.22,1.17,.22,1.7,0,1.02-.21,1.97-.62,2.86s-1,1.66-1.77,2.31-1.71,1.17-2.83,1.55c-1.12,.38-2.36,.57-3.74,.57-1.74,0-3.35-.25-4.82-.76-1.48-.51-2.66-1.07-3.54-1.7l.89-3.2c1.18,1.08,2.49,1.87,3.94,2.36,1.44,.49,2.74,.74,3.89,.74,1.64,0,2.89-.4,3.74-1.21,.85-.8,1.28-1.65,1.28-2.54,0-.29-.02-.63-.05-1.01-.03-.38-.17-.76-.39-1.16s-.57-.76-1.03-1.11-1.12-.62-1.97-.81l-4.73-1.18c-1.08-.26-1.97-.61-2.66-1.03-.69-.43-1.23-.89-1.62-1.4-.39-.51-.67-1.05-.84-1.63-.16-.57-.25-1.16-.25-1.75,0-2,.75-3.6,2.24-4.8,1.49-1.2,3.49-1.8,5.98-1.8,1.28,0,2.66,.17,4.13,.52,1.48,.34,2.72,.84,3.74,1.5l-.94,2.95c-.66-.56-1.63-1.07-2.93-1.53-1.3-.46-2.72-.69-4.26-.69Z"/>
        <path class="cls-1" d="M853.91,586.78c2.89,0,5.12,.73,6.7,2.19,1.58,1.46,2.36,3.52,2.36,6.18,0,.56-.03,1.13-.1,1.7-.07,.58-.18,.99-.35,1.26h-16.59v.49c0,1.25,.16,2.45,.49,3.59,.33,1.15,.82,2.17,1.48,3.05,.66,.89,1.48,1.59,2.49,2.12,1,.53,2.19,.79,3.57,.79,.79,0,1.56-.09,2.31-.27,.75-.18,1.48-.41,2.17-.69,.69-.28,1.33-.58,1.92-.91,.59-.33,1.12-.66,1.58-.98l.59,2.81c-.43,.26-.95,.55-1.58,.86-.62,.31-1.31,.6-2.07,.86s-1.58,.48-2.49,.67c-.9,.18-1.85,.27-2.83,.27-1.84,0-3.46-.32-4.87-.96-1.41-.64-2.59-1.51-3.54-2.61-.95-1.1-1.67-2.37-2.17-3.81-.49-1.44-.74-2.96-.74-4.53s.25-3.14,.76-4.6c.51-1.46,1.25-2.75,2.24-3.86,.98-1.12,2.21-2,3.67-2.63s3.13-.96,5-.96Zm-.15,2.76c-2.17,0-3.85,.57-5.04,1.7-1.2,1.13-2.01,2.55-2.44,4.26h13.44c.03-.16,.05-.31,.05-.44v-.44c0-.82-.17-1.55-.49-2.19-.33-.64-.77-1.17-1.33-1.6-.56-.43-1.2-.75-1.92-.96-.72-.21-1.48-.32-2.26-.32Z"/>
        <path class="cls-1" d="M885.12,610.17v-14.97c0-1.97-.44-3.38-1.33-4.23-.89-.85-2.02-1.28-3.4-1.28-.82,0-1.63,.13-2.44,.39-.8,.26-1.55,.65-2.24,1.16-.69,.51-1.3,1.13-1.82,1.87-.53,.74-.94,1.58-1.23,2.54v14.52h-3.45v-22.65h2.71l.39,4.23h.2c.43-1.38,1.38-2.55,2.86-3.52,1.48-.97,3.31-1.45,5.51-1.45,1.05,0,2.04,.14,2.98,.42,.94,.28,1.75,.73,2.44,1.35s1.24,1.44,1.65,2.46,.62,2.26,.62,3.74v15.41h-3.45Z"/>
        <path class="cls-1" d="M309.66,668.31c-1.58,0-2.72,.29-3.42,.86-.71,.57-1.06,1.35-1.06,2.34,0,.33,.05,.67,.15,1.03,.1,.36,.29,.7,.57,1.01,.28,.31,.66,.61,1.13,.89,.47,.28,1.11,.5,1.9,.67l3.5,.79c1.38,.3,2.49,.7,3.32,1.21,.84,.51,1.49,1.06,1.95,1.65,.46,.59,.76,1.19,.91,1.8,.15,.61,.22,1.17,.22,1.7,0,1.02-.21,1.97-.62,2.86s-1,1.66-1.77,2.31c-.77,.66-1.71,1.17-2.83,1.55-1.12,.38-2.36,.57-3.74,.57-1.74,0-3.35-.25-4.82-.76-1.48-.51-2.66-1.07-3.54-1.7l.89-3.2c1.18,1.08,2.49,1.87,3.94,2.36,1.44,.49,2.74,.74,3.89,.74,1.64,0,2.89-.4,3.74-1.21,.85-.8,1.28-1.65,1.28-2.54,0-.29-.02-.63-.05-1.01-.03-.38-.17-.76-.39-1.16s-.57-.76-1.03-1.11-1.12-.62-1.97-.81l-4.73-1.18c-1.08-.26-1.97-.61-2.66-1.03-.69-.43-1.23-.89-1.62-1.4-.39-.51-.67-1.05-.84-1.63-.16-.57-.25-1.16-.25-1.75,0-2,.75-3.6,2.24-4.8,1.49-1.2,3.49-1.8,5.98-1.8,1.28,0,2.66,.17,4.13,.52,1.48,.34,2.72,.84,3.74,1.5l-.94,2.95c-.66-.56-1.63-1.07-2.93-1.53-1.3-.46-2.72-.69-4.26-.69Z"/>
        <path class="cls-1" d="M325.75,668.61h-3.79v-1.82l3.89-.49,.74-6.84h2.61v6.84h5.32v2.31h-5.32v15.7c0,1.05,.16,1.74,.47,2.07,.31,.33,.79,.49,1.45,.49,.75,0,1.43-.12,2.02-.34,.59-.23,1.12-.51,1.58-.84l.69,2.61c-.56,.26-1.29,.52-2.19,.79s-1.89,.39-2.98,.39-1.87-.15-2.46-.44c-.59-.29-1.03-.69-1.33-1.18-.29-.49-.48-1.04-.57-1.65s-.12-1.21-.12-1.8v-15.8Z"/>
        <path class="cls-1" d="M350.27,665.55c2.89,0,5.12,.73,6.7,2.19,1.58,1.46,2.36,3.52,2.36,6.18,0,.56-.03,1.13-.1,1.7-.07,.58-.18,.99-.35,1.26h-16.59v.49c0,1.25,.16,2.45,.49,3.59,.33,1.15,.82,2.17,1.48,3.05,.66,.89,1.48,1.59,2.49,2.12,1,.53,2.19,.79,3.57,.79,.79,0,1.56-.09,2.31-.27,.75-.18,1.48-.41,2.17-.69,.69-.28,1.33-.58,1.92-.91,.59-.33,1.12-.66,1.58-.98l.59,2.81c-.43,.26-.95,.55-1.58,.86-.62,.31-1.31,.6-2.07,.86s-1.58,.48-2.49,.67c-.9,.18-1.85,.27-2.83,.27-1.84,0-3.46-.32-4.87-.96-1.41-.64-2.59-1.51-3.54-2.61-.95-1.1-1.67-2.37-2.17-3.81-.49-1.44-.74-2.96-.74-4.53s.25-3.14,.76-4.6c.51-1.46,1.25-2.75,2.24-3.86,.98-1.12,2.21-2,3.67-2.63s3.13-.96,5-.96Zm-.15,2.76c-2.17,0-3.85,.57-5.04,1.7-1.2,1.13-2.01,2.55-2.44,4.26h13.44c.03-.16,.05-.31,.05-.44v-.44c0-.82-.17-1.55-.49-2.19-.33-.64-.77-1.17-1.33-1.6-.56-.43-1.2-.75-1.92-.96-.72-.21-1.48-.32-2.26-.32Z"/>
        <path class="cls-1" d="M364.84,658.02c0-.66,.24-1.25,.71-1.77,.47-.52,1.06-.79,1.75-.79s1.25,.26,1.77,.79c.53,.53,.79,1.12,.79,1.77s-.26,1.27-.79,1.75c-.53,.48-1.12,.71-1.77,.71s-1.27-.24-1.75-.71c-.48-.47-.71-1.06-.71-1.75Zm4.19,30.92h-3.45v-22.65h3.45v22.65Z"/>
        <path class="cls-1" d="M379.81,681.97c-1.58-.63-2.71-1.62-3.4-2.98s-1.03-2.84-1.03-4.41c0-1.28,.21-2.46,.64-3.55s1.04-2.04,1.85-2.86c.8-.82,1.77-1.46,2.91-1.92,1.13-.46,2.42-.69,3.86-.69,.85,0,1.7,.08,2.54,.24s1.57,.4,2.19,.72c1.38,0,2.67-.07,3.87-.2,1.2-.14,2.32-.35,3.37-.66l.25,.2-.34,2.62-.25,.24h-4.48l-.05,.15c.85,.68,1.48,1.58,1.87,2.69,.39,1.11,.59,2.18,.59,3.23s-.21,2.1-.62,3.08c-.41,.98-1.01,1.83-1.8,2.57-.79,.73-1.76,1.32-2.93,1.76-1.17,.44-2.5,.66-4.01,.66h-1.67c-.69,.23-1.21,.54-1.55,.93-.34,.39-.52,.72-.52,.98,0,.33,.22,.62,.67,.86,.44,.25,1.16,.42,2.14,.52l4.78,.49c1.08,.1,2.09,.32,3.03,.66,.94,.34,1.75,.79,2.44,1.33s1.24,1.19,1.65,1.96,.62,1.64,.62,2.63-.21,1.92-.64,2.92c-.43,1-1.07,1.86-1.92,2.58-.85,.72-2.04,1.31-3.54,1.77-1.51,.46-3.25,.69-5.22,.69-1.67,0-3.18-.17-4.5-.52-1.33-.34-2.45-.82-3.35-1.42-.9-.61-1.59-1.3-2.07-2.09-.48-.79-.71-1.62-.71-2.5,0-.66,.13-1.3,.39-1.94,.26-.64,.61-1.24,1.03-1.79s.93-1.05,1.5-1.47c.57-.43,1.17-.75,1.8-.98v-.19c-1.35-.62-2.02-1.48-2.02-2.56,0-.69,.25-1.31,.76-1.87,.51-.56,1.14-1.1,1.9-1.63v-.2Zm3.45,7.4c-.75,0-1.45,.14-2.09,.43-.64,.29-1.2,.66-1.67,1.11-.48,.45-.85,.96-1.13,1.52-.28,.56-.42,1.12-.42,1.66,0,1.22,.67,2.19,1.99,2.92,1.33,.72,3.13,1.08,5.39,1.08,1.08,0,2.09-.09,3.03-.28,.94-.18,1.74-.47,2.41-.85,.67-.38,1.21-.85,1.6-1.4s.59-1.21,.59-1.98c0-1.5-.8-2.58-2.39-3.23-1.59-.65-4.03-.98-7.31-.98Zm1.58-9c.92,0,1.73-.16,2.44-.47,.71-.31,1.3-.72,1.8-1.23,.49-.51,.87-1.11,1.13-1.8s.39-1.41,.39-2.17-.13-1.53-.39-2.31c-.26-.79-.65-1.5-1.16-2.14-.51-.64-1.14-1.16-1.9-1.55-.76-.39-1.63-.59-2.61-.59s-1.78,.19-2.49,.57-1.3,.86-1.77,1.45-.83,1.25-1.06,1.97c-.23,.72-.34,1.44-.34,2.17,0,.76,.12,1.5,.37,2.22,.25,.72,.62,1.37,1.13,1.94,.51,.58,1.13,1.04,1.87,1.4s1.6,.54,2.58,.54Z"/>
        <path class="cls-1" d="M411.86,665.55c2.89,0,5.12,.73,6.7,2.19,1.58,1.46,2.36,3.52,2.36,6.18,0,.56-.03,1.13-.1,1.7-.07,.58-.18,.99-.35,1.26h-16.59v.49c0,1.25,.16,2.45,.49,3.59,.33,1.15,.82,2.17,1.48,3.05,.66,.89,1.48,1.59,2.49,2.12,1,.53,2.19,.79,3.57,.79,.79,0,1.56-.09,2.31-.27,.75-.18,1.48-.41,2.17-.69,.69-.28,1.33-.58,1.92-.91,.59-.33,1.12-.66,1.58-.98l.59,2.81c-.43,.26-.95,.55-1.58,.86-.62,.31-1.31,.6-2.07,.86s-1.58,.48-2.49,.67c-.9,.18-1.85,.27-2.83,.27-1.84,0-3.46-.32-4.87-.96-1.41-.64-2.59-1.51-3.54-2.61-.95-1.1-1.67-2.37-2.17-3.81-.49-1.44-.74-2.96-.74-4.53s.25-3.14,.76-4.6c.51-1.46,1.25-2.75,2.24-3.86,.98-1.12,2.21-2,3.67-2.63,1.46-.64,3.13-.96,5-.96Zm-.15,2.76c-2.17,0-3.85,.57-5.04,1.7-1.2,1.13-2.01,2.55-2.44,4.26h13.44c.03-.16,.05-.31,.05-.44v-.44c0-.82-.17-1.55-.49-2.19-.33-.64-.77-1.17-1.33-1.6-.56-.43-1.2-.75-1.92-.96-.72-.21-1.48-.32-2.26-.32Z"/>
        <path class="cls-1" d="M443.07,688.94v-14.97c0-1.97-.44-3.38-1.33-4.23-.89-.85-2.02-1.28-3.4-1.28-.82,0-1.63,.13-2.44,.39-.8,.26-1.55,.65-2.24,1.16-.69,.51-1.3,1.13-1.82,1.87-.53,.74-.94,1.58-1.23,2.54v14.52h-3.45v-22.65h2.71l.39,4.23h.2c.43-1.38,1.38-2.55,2.86-3.52,1.48-.97,3.31-1.45,5.51-1.45,1.05,0,2.04,.14,2.98,.42,.94,.28,1.75,.73,2.44,1.35s1.24,1.44,1.65,2.46,.62,2.26,.62,3.74v15.41h-3.45Z"/>
        <path class="cls-1" d="M453.66,687.22c0-.62,.21-1.17,.64-1.65s.97-.71,1.63-.71,1.17,.24,1.65,.71,.71,1.03,.71,1.65-.24,1.16-.71,1.6c-.48,.44-1.03,.67-1.65,.67-.66,0-1.2-.22-1.63-.67-.43-.44-.64-.98-.64-1.6Z"/>
      </g>
      <circle class="cls-7" cx="222.08" cy="311.42" r="46.51"/>
      <circle class="cls-8" cx="222.08" cy="451.89" r="46.51"/>
    </g>
  </g>
</svg>