<?xml version="1.0" encoding="UTF-8"?>
<svg id="Ebene_2" data-name="Ebene 2" xmlns="http://www.w3.org/2000/svg" viewBox="0 0 874.92 867.32">
  <defs>
    <style>
      .cls-1 {
        fill: #ff6b35;
      }
    </style>
  </defs>
  <g id="Ebene_1-2" data-name="Ebene 1">
    <path class="cls-1" d="M4.88,675.57c16.1,1,30.8,1.9,45.5,2.7,14.3,.8,28.7,1.4,42.7,2,.9-30.3,1.7-59.7,2.6-89.8,31.8,1.7,60.7,3.3,90.5,4.9,.9-32.2,1.7-60.7,2.5-90.5,31.3,1.3,60.3,2.5,91.9,3.8,.2-16.2,.3-31.7,.7-47.2,.5-20.1,.8-40.3,2.3-60.3,.4-5.8,3.4-12.7,7.4-16.7,19.9-19.6,40.3-38.7,61.1-57.4,6.3-5.6,7.5-10.9,6.1-19-17.3-103.7,14.2-189.9,96.4-255.5,83.9-66.9,210.5-69.9,300.9-9.3,126,84.4,157.8,249.9,69,372.8-63.3,87.7-168.5,124-273.7,97.2-9-2.3-14.7-1.3-21.6,5.2-120.8,113.8-242.1,227.1-363,340.7-6.6,6.2-12.9,8.5-21.8,8.1-36.9-1.8-73.9-2.8-110.8-4.2-27.6-1.1-34.4-8.6-33.5-36.6,1.5-49.3,3.1-98.5,4.8-150.9ZM647.48,231.07c26,27.8,69.9,29.7,97.5,4.2,28.2-26.2,29.1-69.4,2.1-98.1-26.2-27.8-70.6-29.5-97.5-3.9-27,25.8-27.9,70.1-2.1,97.8Z"/>
  </g>
</svg>