<?xml version="1.0" encoding="UTF-8"?>
<svg id="Ebene_2" data-name="Ebene 2" xmlns="http://www.w3.org/2000/svg" viewBox="0 0 726.8 875">
  <defs>
    <style>
      .cls-1 {
        fill: #ff6b35;
      }
    </style>
  </defs>
  <g id="Ebene_1-2" data-name="Ebene 1">
    <path class="cls-1" d="M440.95,713.6h-155.2c-12,0-21.8,9.7-21.8,21.8s9.7,21.8,21.8,21.8h155.2c12,0,21.8-9.7,21.8-21.8s-9.7-21.8-21.8-21.8Zm-117.6,126.8c3,19.5,19.6,34.6,40,34.6s37.1-15,40-34.6c26.7-1.6,47.9-23.5,47.9-50.5h-175.7c0,27.1,21.1,49,47.8,50.5h0ZM363.45,125.6c16.1,0,29-13,29-29.1V29.1c0-16-12.9-29.1-29-29.1s-29.1,13-29.1,29.1V96.7c0,15.9,13.1,28.9,29.1,28.9h0Zm-190.5,42.3c5.7,7.9,14.5,12,23.5,12,5.9,0,11.9-1.8,17.1-5.5,13-9.4,15.8-27.6,6.5-40.5l-39.7-54.7c-9.4-12.9-27.6-15.8-40.6-6.4s-15.8,27.6-6.5,40.5l39.7,54.6h0ZM20.05,299.6l64.2,20.9c3,1,6,1.4,9,1.4,12.2,0,23.6-7.8,27.6-20,5-15.2-3.4-31.6-18.6-36.6l-64.2-20.9c-15.4-5-31.6,3.4-36.6,18.6-5,15.3,3.3,31.6,18.6,36.6Zm686.7,162.1l-64.2-20.8c-15.2-4.9-31.6,3.4-36.6,18.6-5,15.2,3.4,31.6,18.6,36.6l64.2,20.8c3,1,5.9,1.4,8.9,1.4,12.2,0,23.6-7.8,27.6-20,5.2-15.3-3.2-31.7-18.5-36.6Zm-622.4-20.9l-64.2,20.8c-15.2,5-23.6,21.4-18.6,36.6,3.9,12.2,15.3,20.1,27.6,20.1,3,0,6-.4,9-1.4l64.2-20.8c15.2-5,23.6-21.4,18.6-36.6-5-15.3-21.2-23.6-36.6-18.7h0Zm549.3-118.9c3,0,6-.4,8.9-1.4l64.2-20.8c15.2-5,23.6-21.4,18.6-36.6s-21.4-23.5-36.6-18.6l-64.2,20.8c-15.2,5-23.6,21.3-18.6,36.6,4.1,12.2,15.4,20,27.7,20h0Zm-46.5-249.2c-13-9.4-31.1-6.6-40.6,6.5l-39.7,54.7c-9.5,12.9-6.6,31.1,6.5,40.5,5.2,3.8,11.1,5.5,17.1,5.5,9,0,17.9-4.1,23.5-12l39.7-54.7c9.4-12.9,6.5-31.1-6.5-40.5Zm-128.2,607.6v-67.8c20-33.3,45.9-71.8,69.2-101.4,28.1-35.6,44.9-80.5,44.9-129.3,0-115.9-93.9-209.7-209.6-209.7s-209.7,93.9-209.7,209.7c0,48.8,16.8,93.7,44.9,129.3,24.6,31.2,47.9,65.3,68.1,99.6v69.6h192.2Z"/>
  </g>
</svg>