<?xml version="1.0" encoding="UTF-8"?>
<svg id="Ebene_2" data-name="Ebene 2" xmlns="http://www.w3.org/2000/svg" viewBox="0 0 765.6 875">
  <defs>
    <style>
      .cls-1 {
        fill: #ff6b35;
      }
    </style>
  </defs>
  <g id="Ebene_1-2" data-name="Ebene 1">
    <path class="cls-1" d="M710.9,0H54.7C24.5,0,0,24.5,0,54.7V820.3c0,30.3,24.5,54.7,54.7,54.7H710.9c30.2,0,54.7-24.5,54.7-54.7V54.7C765.6,24.5,741.1,0,710.9,0h0Zm-188.2,89.6h158.5v55.1h-158.5v-55.1Zm-440.9,0H240.3v55.1H81.8v-55.1ZM703,814.3H62.6V227.3H702.9V814.3h.1ZM150.9,380.2h468.1c15.3,0,27.8-12.6,27.8-28.2s-12.4-28.2-27.8-28.2H150.9c-15.3,0-27.7,12.6-27.7,28.2s12.3,28.2,27.7,28.2h0Zm0,116.7h468.1c15.3,0,27.8-12.6,27.8-28.2s-12.4-28.2-27.8-28.2H150.9c-15.3,0-27.7,12.6-27.7,28.2s12.3,28.2,27.7,28.2h0Zm0,116.6h468.1c15.3,0,27.8-12.6,27.8-28.2s-12.4-28.2-27.8-28.2H150.9c-15.3,0-27.7,12.6-27.7,28.2s12.3,28.2,27.7,28.2h0Zm0,116.8h468.1c15.3,0,27.8-12.6,27.8-28.2s-12.4-28.2-27.8-28.2H150.9c-15.3,0-27.7,12.6-27.7,28.2s12.3,28.2,27.7,28.2h0Z"/>
  </g>
</svg>