<?xml version="1.0" encoding="UTF-8"?>
<svg id="Ebene_2" data-name="Ebene 2" xmlns="http://www.w3.org/2000/svg" viewBox="0 0 909.67 1000.09">
  <defs>
    <style>
      .cls-1 {
        fill: #ff6b35;
      }
    </style>
  </defs>
  <g id="Ebene_1-2" data-name="Ebene 1">
    <path class="cls-1" d="M903.9,568.29c-3.9-10.8-9.9-20.5-17.4-29.1-13-52.6-38.8-112.9-76.2-172.6-60-95.8-218.9-250.3-279.2-274.1-3-1.2-5.7-1.9-8.2-2.4-2.1-14.9-10.5-28.8-30.4-38.2C422.3,18.69,353.6-13.71,305.9,5.99c-47.8,19.7-74.4,50.2-22.9,166,49,35.7,145.9-36.3,177,9.8,31,46.1,65.2,199.6,122,297.8-14.4-1.9-29.2-3-44.4-3-65.5,0-124.5,19.2-166.1,49.9-35.6-55.6-97.8-92.5-168.7-92.5-93.9,0-172.4,64.7-194.2,151.9l-8.6,.1,5,414.1,102.4-1.7,37.1-65.9c64.6-24.8,140.9-88.7,193.9-156.8,71.9,10.5,162.6,16.5,199.1,16.5,39.6,0,189.1-17.4,231.8-33.1,99.6-36.5,159.9-121.9,134.6-190.8h0Z"/>
  </g>
</svg>