<?xml version="1.0" encoding="UTF-8"?>
<svg id="Ebene_2" data-name="Ebene 2" xmlns="http://www.w3.org/2000/svg" viewBox="0 0 875.05 607.5">
  <defs>
    <style>
      .cls-1 {
        fill: #ff6b35;
      }
    </style>
  </defs>
  <g id="Ebene_1-2" data-name="Ebene 1">
    <path class="cls-1" d="M531.3,335.8c-3.7-2-4.9-4.3-4.8-8.5,.3-10.6-.2-21.2,.3-31.8,.1-2.5,2-5.8,4.1-7.1,7.1-4.6,14.6-8.6,21.9-12.8,15.1-8.6,30.1-17.3,46.4-26.6-5.9-17.1-11.9-33.8-17.4-50.6-2-6.1-5.4-6.9-11.4-6.2-22.9,2.6-45.8,4.5-68.7,6.8-4.3,.4-6.9-.8-9.5-4.5-5.8-8.6-12.2-16.7-18.7-24.9-2.3-3-3.1-5.3-1.3-8.9,3.6-7.1,6.6-14.4,9.8-21.7,7.1-15.9,14.3-31.9,21.9-49.1-15.9-10.9-31.5-21.4-47-32.2-3.6-2.5-5.8-1.4-8.7,1.2-17.8,15.6-35.9,30.9-53.8,46.5-3.2,2.8-5.8,2.9-9.7,1.5-9.8-3.5-19.7-6.6-29.7-9.2-4.6-1.2-6.6-3.3-7.6-8-5.2-24.1-10.9-48.2-16.6-73.1h-62.7c-5.8,25.4-11.4,49.5-16.6,73.7-1,4.4-3.1,6.2-7.3,7.4-10,2.8-20,5.7-29.7,9.3-4.3,1.6-6.9,1.1-10.2-1.8-17.8-15.6-35.8-31-53.9-46.3-1.7-1.4-5.7-2.3-7.2-1.3-16.1,10.6-32,21.5-48,32.5,10.8,24.2,20.9,47.1,31.3,69.8,2,4.4,1.4,7.2-1.6,10.8-5.6,6.6-11.6,13.2-15.7,20.7-4,7.2-8.9,8.3-16.4,7.4-22.4-2.6-44.8-4.6-67.3-6.5-2-.2-5.6,1.3-6.2,2.8-6.7,17.9-13,36-19.3,53.9,3.4,2.1,5.3,3.2,7.2,4.3,20.1,11.5,40.2,23.1,60.5,34.5,3.9,2.2,5.2,4.6,5.1,9.1-.4,10.1-.4,20.2,0,30.3,.2,4.5-1.3,6.9-5.1,9.1-20,11.2-39.9,22.7-59.9,34.1-2.2,1.3-4.4,2.8-7.6,4.9,5.9,17,12,33.7,17.5,50.6,2,6.1,5.5,6.4,10.9,5.9,22.9-2.4,45.8-4.5,68.7-6.8,4.6-.5,7.4,.8,10.1,4.8,5.1,7.9,10.7,15.5,16.8,22.6,3.9,4.5,4.4,7.9,1.9,13.3-10.3,22.2-20.2,44.6-30.8,68.4,16.1,11,32,22,48.1,32.5,1.5,1,5.5,0,7.2-1.4,18.1-15.3,36.1-30.7,53.9-46.3,3.4-2.9,6-3.4,10.2-1.8,9.5,3.6,19.2,6.5,29,9.1,4.8,1.3,7.1,3.3,8.1,8.3,5.2,24.1,10.8,48.2,16.5,73h62.6c5.7-25.1,11.3-49.2,16.6-73.3,1-4.6,3-6.8,7.6-8,10-2.6,20-5.6,29.7-9.2,4.4-1.6,6.9-.9,10.2,2,17.8,15.6,35.8,31,53.9,46.3,1.6,1.3,5.2,2.3,6.6,1.4,16.3-10.7,32.4-21.7,48.5-32.6-10.9-24.5-21-47.4-31.4-70.1-2-4.2-1.3-6.8,1.4-10.1,5.7-6.9,11.9-13.6,16.1-21.3,4.1-7.4,9.2-8,16.6-7.2,22.4,2.6,44.8,4.6,67.3,6.5,2.1,.2,5.6-1.9,6.3-3.7,6.6-17.5,12.6-35.2,18.9-52.9-3.5-2.2-5.7-3.7-8-5-19.9-11.8-39.8-23.3-59.9-34.5h0Zm-236.4,72.8c-52.8-1.4-96.5-47-94.9-99.1,1.7-54.9,47.1-96.1,104.4-94.7,53,1.3,96.4,47,94.9,99.8-1.6,54.1-47.6,95.6-104.4,94ZM829.8,19.2c-8-6.4-17-12-27.4-19.2V12c0,26.4-.1,52.7,.2,79,0,4.8-1.7,7.5-6.2,9.8-17.7,9.2-35.2,18.5-52.5,28.1-4.8,2.7-8.2,2.8-13.1,.1-16.7-9.3-33.7-18.5-50.9-27.2-5.9-3-7.8-6.3-7.8-12.5,.4-28.8,.1-57.6,.1-88.1-28.9,14.8-48.4,34.9-61,61-28.1,58.3-6,120.8,52.7,147.8,6.6,3.1,8.2,6.4,8.2,12.7v90.5l-.1,225c0,3.9-.1,7.8,.2,11.8,2.6,45.3,56.6,71.9,98.5,48.4,23.3-13.1,32-33,32-57.5-.1-75.9-.2-151.8-.2-227.7,0-30.4,0-60.8-.1-91.1,0-6.2,1.9-9.3,8-12,22.6-10.2,40.4-25.4,51.9-46.3,25.7-45.7,11.4-109.7-32.5-144.6h0Zm-91.1,557.7c-15.6-.4-27.2-11.7-26.8-26.1,.4-13.6,13.3-25.1,27.6-24.7,15.2,.6,27.6,12.6,27,26.3-.7,14-12.9,24.8-27.8,24.5Z"/>
  </g>
</svg>