<?xml version="1.0" encoding="UTF-8"?>
<svg id="Ebene_2" data-name="Ebene 2" xmlns="http://www.w3.org/2000/svg" viewBox="0 0 596.15 875.08">
  <defs>
    <style>
      .cls-1 {
        fill: #ff6b35;
      }
    </style>
  </defs>
  <g id="Ebene_1-2" data-name="Ebene 1">
    <path class="cls-1" d="M493.19,643.08c84.5-58,106.6-146.1,102.5-193.1H134.69c-.2,3.2-.7,6-.5,8.8,4.3,76.7,38.1,137.1,100.5,181.5,6,4.2,6.6,7.7,4.5,14.2-19.5,58.8-38.6,117.8-57.8,176.7-3.5,10.9-7,21.9-10.7,33.3,11.6,3.8,21.9,7,32.6,10.5,8.3-25.6,16.7-50,24.2-74.6,2.3-7.4,5.4-10,13.4-10,84.5,.4,169.1,.4,253.6,0,7.7,0,11.4,2.1,13.7,9.7,7.6,24.9,15.9,49.7,24.2,75l32.7-10.9c-12.2-37.5-24-74-35.9-110.5-11.8-36.9-23.9-73.6-36-110.6h0Zm-254,122.5c11.2-34.5,22.3-68.3,33.7-103.3,63.3,25.7,125.8,25.4,189.4-2.1,11.6,35.2,22.9,69.9,34.5,105.4H239.19ZM382.49,35.18C339.19,10.38,294.19-3.02,245.29,.58c-62.7,4.6-115.5,30.4-158.5,77.1-5.4-3.4-10.5-6.7-15.8-10.1,1.4-2.5,2.5-4.4,3.6-6.4,4.2-8.3,1.3-13.7-6.3-18.6-7.9-5-14.4-4.3-19.2,3.2-15.8,24.9-31.4,49.8-46.7,74.8-4.4,7.2-2.7,13.4,4.9,18.1,9.9,6.1,13.1,5.3,24.9-7.7,4.8,3,9.6,6.1,15.1,9.5-21.4,52.8-24.7,106.1-7.6,160.3,17.1,54.1,49.7,96.2,98.2,126.8C219.69,296.38,301.09,165.98,382.49,35.18h0ZM53.89,125.18c-4.9-3.2-9.2-5.9-13.7-8.8,7.4-11.8,14.4-22.9,21.7-34.6,4.8,3,9,5.7,13.7,8.7-7.3,11.6-14.2,22.7-21.7,34.7h0Zm321.3,155.1c-19.7,20.6-26.3,46.9-22.2,75.6,3.2,21.9,19.3,45.4,36.5,52.5l-1.9-5.6c-.8-2.1-1.8-4.2-2.5-6.3-13-39.5-11.2-76.1,19.8-107.8,14.4-14.7,22.1-33.2,25.4-53.5,4.8-30.5-11.4-65.2-36.6-78.4-.2,.3-.4,.6-.4,.9l1.1,3.7c17.5,43.6,15.2,83.1-19.2,118.9h0Zm81,129c-1-3.1-1.8-5.4-2.5-7.8-11.2-32-9.5-61.4,15.6-87.2,5.5-5.7,9.8-13,13-20.2,14-31.2,4.6-64.6-22.1-81-.1,.4-.4,.6-.4,.9,1.1,3.1,2.3,6,3.2,9.1,9.2,29.9,8.5,57.9-14.8,82.3-4.8,5.1-9,11.1-12.4,17.3-17.2,31.8-8.5,69.7,20.4,86.6Zm-125.2-110.3c16.9-31.6,7.8-70-20-85.9-.1,.3-.4,.6-.4,.9,.4,1.5,1,3.1,1.6,4.6,12.6,33.3,10.2,63.3-15.7,90.5-8.1,8.4-13.1,20.8-16.4,32.3-7.4,26.3,4.1,54.7,25.5,66.9,.4-1.1,.6-1.4,.5-1.7-.9-2.8-1.8-5.5-2.7-8.2-9.4-30-8.1-57.9,15.3-82,4.9-5.1,9-11.2,12.3-17.4h0Z"/>
  </g>
</svg>