<?xml version="1.0" encoding="UTF-8"?>
<svg id="Ebene_2" data-name="Ebene 2" xmlns="http://www.w3.org/2000/svg" viewBox="0 0 1499 913.45">
  <defs>
    <style>
      .cls-1, .cls-2 {
        stroke-width: 4px;
      }

      .cls-1, .cls-2, .cls-3, .cls-4 {
        fill: none;
        stroke-miterlimit: 10;
      }

      .cls-1, .cls-4 {
        stroke: #000;
      }

      .cls-5 {
        fill: #fff;
      }

      .cls-6 {
        fill: #1dcaa2;
      }

      .cls-2 {
        stroke: #253c78;
      }

      .cls-3 {
        stroke: #171614;
      }

      .cls-7 {
        fill: #253c78;
      }

      .cls-8 {
        fill: #171614;
      }

      .cls-4 {
        stroke-width: 3px;
      }

      .cls-9 {
        fill: #e70036;
      }
    </style>
  </defs>
  <g id="Ebene_1-2" data-name="Ebene 1">
    <rect class="cls-6" x="9.77" y="561.77" width="10" height="84.73"/>
    <rect class="cls-9" x="46.91" y="553.64" width="10" height="92.85"/>
    <rect class="cls-6" x="82.89" y="553.64" width="10" height="67.32"/>
    <rect class="cls-9" x="120.03" y="544.36" width="10" height="63.84"/>
    <rect class="cls-9" x="158.33" y="568.73" width="10" height="39.46"/>
    <rect class="cls-9" x="193.15" y="561.77" width="10" height="84.73"/>
    <rect class="cls-9" x="230.3" y="616.32" width="10" height="45.27"/>
    <rect class="cls-9" x="266.28" y="630.25" width="10" height="49.91"/>
    <rect class="cls-6" x="305.74" y="633.73" width="10" height="49.91"/>
    <rect class="cls-9" x="341.72" y="641.85" width="10" height="62.68"/>
    <rect class="cls-6" x="378.86" y="608.19" width="10" height="74.28"/>
    <rect class="cls-9" x="674.84" y="470.07" width="10" height="77.77"/>
    <rect class="cls-6" x="453.15" y="549.23" width="10" height="78.93"/>
    <rect class="cls-9" x="637.69" y="479.36" width="10" height="42.95"/>
    <rect class="cls-6" x="600.55" y="481.68" width="10" height="106.78"/>
    <rect class="cls-6" x="562.25" y="567.57" width="10" height="49.91"/>
    <rect class="cls-9" x="521.63" y="561.77" width="10" height="77.77"/>
    <rect class="cls-9" x="489.13" y="558.29" width="10" height="49.91"/>
    <rect class="cls-9" x="417.17" y="602.39" width="10" height="49.91"/>
    <rect class="cls-6" x="711.98" y="423.65" width="10" height="89.37"/>
    <rect class="cls-9" x="749.83" y="452.66" width="9.29" height="45.27"/>
    <rect class="cls-6" x="786.26" y="427.13" width="10" height="99.82"/>
    <rect class="cls-6" x="822.24" y="381.86" width="10" height="75.44"/>
    <rect class="cls-9" x="859.38" y="373.74" width="10" height="41.78"/>
    <rect class="cls-9" x="896.52" y="366.77" width="10" height="54.55"/>
    <rect class="cls-9" x="933.67" y="387.67" width="10" height="35.98"/>
    <rect class="cls-6" x="969.65" y="349.36" width="10" height="61.52"/>
    <rect class="cls-6" x="1006.79" y="315.7" width="10" height="68.48"/>
    <rect class="cls-6" x="1043.93" y="291.33" width="10" height="49.91"/>
    <rect class="cls-6" x="1081.07" y="294.81" width="10" height="49.91"/>
    <rect class="cls-6" x="1117.05" y="224.01" width="10" height="66.16"/>
    <rect class="cls-6" x="1154.19" y="140.44" width="10" height="88.21"/>
    <rect class="cls-6" x="1191.34" y="96.34" width="10" height="67.32"/>
    <rect class="cls-6" x="1228.48" y="118.39" width="10" height="97.5"/>
    <rect class="cls-6" x="1266.78" y="78.93" width="10" height="84.73"/>
    <rect class="cls-9" x="1303.92" y="60.36" width="10" height="67.32"/>
    <rect class="cls-6" x="1339.9" y="32.5" width="10" height="104.46"/>
    <g>
      <path class="cls-8" d="M1409.68,16.77c0,2.18,.5,3.75,1.51,4.7,1.01,.95,2.41,1.42,4.21,1.42s3.21-.47,4.23-1.42c1.02-.95,1.53-2.51,1.53-4.7V2.23h3.96v15.41c0,1.18-.19,2.29-.58,3.35-.38,1.06-.98,1.99-1.78,2.79-.8,.8-1.84,1.44-3.1,1.91-1.26,.47-2.75,.7-4.48,.7s-3.2-.23-4.43-.7c-1.22-.47-2.23-1.1-3.01-1.91-.78-.8-1.34-1.73-1.69-2.79-.35-1.06-.52-2.17-.52-3.35V2.23h4.14v14.54Z"/>
      <path class="cls-8" d="M1434.2,7.95c0,.5,.11,.94,.34,1.3,.23,.36,.55,.67,.95,.94,.41,.26,.89,.51,1.46,.74,.56,.23,1.19,.46,1.89,.7,.86,.31,1.72,.67,2.57,1.06,.85,.4,1.62,.89,2.3,1.48,.68,.59,1.24,1.31,1.67,2.18,.43,.86,.65,1.91,.65,3.13,0,1.3-.23,2.39-.7,3.28-.47,.89-1.1,1.6-1.89,2.14s-1.71,.93-2.74,1.17c-1.03,.24-2.1,.36-3.2,.36-1.58,0-3.07-.19-4.45-.58s-2.56-.85-3.55-1.4l1.08-3.89c.91,.7,1.93,1.27,3.04,1.73,1.12,.46,2.39,.68,3.83,.68,1.54,0,2.65-.27,3.35-.81,.7-.54,1.04-1.27,1.04-2.18,0-.7-.17-1.29-.5-1.78-.34-.49-.76-.91-1.26-1.26-.5-.35-1.04-.63-1.6-.85-.56-.22-1.06-.4-1.49-.54-.77-.24-1.55-.53-2.34-.86-.79-.34-1.52-.77-2.2-1.31s-1.22-1.22-1.64-2.03-.63-1.84-.63-3.06c0-1.15,.2-2.12,.59-2.92,.4-.79,.94-1.43,1.62-1.93,.68-.49,1.49-.85,2.41-1.06,.92-.22,1.93-.32,3.01-.32,1.32,0,2.6,.13,3.83,.4,1.24,.26,2.27,.59,3.11,.97l-.97,3.82c-.43-.29-.9-.54-1.4-.76-.5-.22-1.03-.4-1.57-.54-.54-.14-1.08-.26-1.62-.34-.54-.08-1.05-.13-1.53-.13-1.08,0-1.93,.2-2.56,.61-.62,.41-.94,1.03-.94,1.87Z"/>
      <path class="cls-8" d="M1450.69,2.24c.31-.08,.8-.13,1.48-.13h5.87c2.33,0,4.24,.24,5.74,.72,1.5,.48,2.74,1.13,3.73,1.96,1.27,1.1,2.2,2.49,2.77,4.18s.86,3.56,.86,5.61c0,1.55-.2,3.03-.59,4.45-.4,1.42-1.1,2.66-2.12,3.73-1.02,1.07-2.42,1.92-4.21,2.55s-4.07,.95-6.86,.95h-3.24c-1.15,0-2.29-.1-3.42-.29V2.24Zm7.67,20.68c2.9,0,5.02-.69,6.35-2.08,1.33-1.39,2-3.65,2-6.78,0-1.41-.14-2.65-.41-3.71-.28-1.06-.75-1.95-1.42-2.67-.67-.72-1.57-1.25-2.7-1.61-1.13-.36-2.53-.54-4.21-.54h-3.13V22.82c.67,.07,1.32,.11,1.94,.11h1.58Z"/>
    </g>
    <g>
      <path class="cls-8" d="M1410.54,77.09h-2.7v-18.94l-3.46,1.66-.79-2.52,6.95-3.96v23.76Z"/>
      <path class="cls-8" d="M1430.62,69.53h-2.48v7.56h-2.7v-7.56h-10.22v-2.52l10.04-13.68h2.88v13.68h2.48v2.52Zm-5.18-2.52v-9.76l-7.16,9.76h7.16Z"/>
      <path class="cls-8" d="M1435.16,65.68l1.33-12.53h12.2v2.52h-9.94l-.94,7.67c.74-.17,1.52-.31,2.34-.41,.82-.11,1.57-.16,2.27-.16,1.08,0,2.08,.15,3.01,.45,.92,.3,1.72,.74,2.38,1.31s1.18,1.29,1.55,2.14c.37,.85,.56,1.83,.56,2.93s-.18,2.06-.54,3.02c-.36,.96-.91,1.8-1.64,2.52-.73,.72-1.65,1.3-2.75,1.73-1.1,.43-2.4,.65-3.89,.65-1.39,0-2.68-.2-3.87-.59-1.19-.4-2.24-.94-3.15-1.64l.76-2.52c.89,.7,1.82,1.27,2.81,1.71,.98,.44,2.15,.67,3.49,.67,1.82,0,3.25-.45,4.28-1.35,1.03-.9,1.55-2.21,1.55-3.94,0-.67-.09-1.29-.27-1.85-.18-.56-.49-1.04-.94-1.44-.44-.4-1.03-.7-1.75-.92-.72-.22-1.62-.32-2.7-.32-.84,0-1.7,.07-2.59,.22s-1.73,.37-2.52,.68l-1.04-.54Z"/>
    </g>
    <g>
      <path class="cls-8" d="M1408.74,206.86h-2.7v-18.94l-3.46,1.66-.79-2.52,6.95-3.96v23.76Z"/>
      <path class="cls-8" d="M1428.82,199.3h-2.48v7.56h-2.7v-7.56h-10.22v-2.52l10.04-13.68h2.88v13.68h2.48v2.52Zm-5.18-2.52v-9.76l-7.16,9.76h7.16Z"/>
      <path class="cls-8" d="M1442.29,182.92c1.54,0,2.9,.32,4.09,.97,1.19,.65,2.19,1.53,3.01,2.65,.82,1.12,1.43,2.41,1.85,3.87,.42,1.46,.63,3,.63,4.61s-.22,3.11-.65,4.59-1.06,2.78-1.89,3.92c-.83,1.14-1.85,2.05-3.08,2.74-1.22,.68-2.63,1.03-4.21,1.03s-2.92-.32-4.09-.97c-1.17-.65-2.13-1.52-2.9-2.63-.77-1.1-1.35-2.38-1.75-3.83-.4-1.45-.59-2.98-.59-4.59,0-1.7,.22-3.31,.65-4.81,.43-1.5,1.06-2.81,1.87-3.92,.82-1.12,1.82-2,3.01-2.65,1.19-.65,2.54-.97,4.05-.97Zm-.18,22c1.18,0,2.2-.25,3.06-.76,.86-.5,1.57-1.2,2.12-2.09,.55-.89,.96-1.93,1.22-3.11s.4-2.47,.4-3.83c0-1.46-.14-2.8-.41-4-.28-1.2-.7-2.23-1.26-3.1-.56-.86-1.27-1.54-2.11-2.02-.84-.48-1.82-.72-2.95-.72s-2.14,.23-2.97,.7c-.83,.47-1.5,1.13-2.02,1.98-.52,.85-.89,1.87-1.13,3.04-.24,1.18-.36,2.47-.36,3.89,0,3.31,.56,5.81,1.67,7.49,1.12,1.68,2.69,2.52,4.73,2.52Z"/>
    </g>
    <g>
      <path class="cls-8" d="M1410.54,351.74h-2.7v-18.94l-3.46,1.66-.79-2.52,6.95-3.96v23.76Z"/>
      <path class="cls-8" d="M1416.87,329.57c.41-.24,.87-.47,1.39-.68,.52-.22,1.05-.41,1.6-.58,.55-.17,1.1-.29,1.66-.38,.55-.08,1.07-.13,1.55-.13,2.14,0,3.85,.52,5.15,1.57s1.94,2.59,1.94,4.63c0,1.01-.33,1.94-.99,2.79-.66,.85-1.47,1.53-2.43,2.03,1.44,.48,2.56,1.2,3.37,2.16,.8,.96,1.21,2.23,1.21,3.82,0,1.01-.18,1.96-.54,2.84-.36,.89-.91,1.67-1.66,2.34-.74,.67-1.67,1.21-2.77,1.6-1.1,.4-2.4,.59-3.89,.59-1.39,0-2.68-.2-3.87-.59-1.19-.4-2.24-.94-3.15-1.64l.72-2.41c.84,.7,1.78,1.25,2.81,1.66,1.03,.41,2.16,.61,3.38,.61,1.94,0,3.43-.45,4.45-1.35,1.02-.9,1.53-2.21,1.53-3.94,0-1.37-.46-2.45-1.39-3.26-.92-.8-2.48-1.21-4.66-1.21h-.97v-2.05h1.12c1.51,0,2.68-.38,3.51-1.15s1.24-1.81,1.24-3.13c0-1.06-.29-1.91-.86-2.56-.58-.65-1.58-.97-3.02-.97-.55,0-1.1,.05-1.66,.14-.55,.1-1.08,.22-1.58,.38-.5,.16-.98,.34-1.42,.56-.44,.22-.81,.44-1.1,.68l-.65-2.38Z"/>
      <path class="cls-8" d="M1436.13,340.33l1.33-12.53h12.2v2.52h-9.94l-.94,7.67c.74-.17,1.52-.31,2.34-.41,.82-.11,1.57-.16,2.27-.16,1.08,0,2.08,.15,3.01,.45,.92,.3,1.72,.74,2.38,1.31s1.18,1.29,1.55,2.14c.37,.85,.56,1.83,.56,2.93s-.18,2.06-.54,3.02c-.36,.96-.91,1.8-1.64,2.52-.73,.72-1.65,1.3-2.75,1.73-1.1,.43-2.4,.65-3.89,.65-1.39,0-2.68-.2-3.87-.59-1.19-.4-2.24-.94-3.15-1.64l.76-2.52c.89,.7,1.82,1.27,2.81,1.71,.98,.44,2.15,.67,3.49,.67,1.82,0,3.25-.45,4.28-1.35,1.03-.9,1.55-2.21,1.55-3.94,0-.67-.09-1.29-.27-1.85-.18-.56-.49-1.04-.94-1.44-.44-.4-1.03-.7-1.75-.92-.72-.22-1.62-.32-2.7-.32-.84,0-1.7,.07-2.59,.22s-1.73,.37-2.52,.68l-1.04-.54Z"/>
    </g>
    <g>
      <path class="cls-8" d="M1410.54,504.28h-2.7v-18.94l-3.46,1.66-.79-2.52,6.95-3.96v23.76Z"/>
      <path class="cls-8" d="M1416.87,482.1c.41-.24,.87-.47,1.39-.68,.52-.22,1.05-.41,1.6-.58s1.1-.29,1.66-.38c.55-.08,1.07-.13,1.55-.13,2.14,0,3.85,.52,5.15,1.57s1.94,2.59,1.94,4.63c0,1.01-.33,1.94-.99,2.79-.66,.85-1.47,1.53-2.43,2.03,1.44,.48,2.56,1.2,3.37,2.16,.8,.96,1.21,2.23,1.21,3.82,0,1.01-.18,1.96-.54,2.84s-.91,1.67-1.66,2.34-1.67,1.21-2.77,1.6c-1.1,.4-2.4,.59-3.89,.59-1.39,0-2.68-.2-3.87-.59-1.19-.4-2.24-.94-3.15-1.64l.72-2.41c.84,.7,1.78,1.25,2.81,1.66,1.03,.41,2.16,.61,3.38,.61,1.94,0,3.43-.45,4.45-1.35,1.02-.9,1.53-2.21,1.53-3.94,0-1.37-.46-2.45-1.39-3.26-.92-.8-2.48-1.21-4.66-1.21h-.97v-2.05h1.12c1.51,0,2.68-.38,3.51-1.15,.83-.77,1.24-1.81,1.24-3.13,0-1.06-.29-1.91-.86-2.56-.58-.65-1.58-.97-3.02-.97-.55,0-1.1,.05-1.66,.14-.55,.1-1.08,.22-1.58,.38-.5,.16-.98,.34-1.42,.56-.44,.22-.81,.44-1.1,.68l-.65-2.38Z"/>
      <path class="cls-8" d="M1445.06,480.34c1.54,0,2.9,.32,4.09,.97,1.19,.65,2.19,1.53,3.01,2.65,.82,1.12,1.43,2.41,1.85,3.87,.42,1.46,.63,3,.63,4.61s-.22,3.11-.65,4.59c-.43,1.48-1.06,2.78-1.89,3.92-.83,1.14-1.85,2.05-3.08,2.74-1.22,.68-2.63,1.03-4.21,1.03s-2.92-.32-4.09-.97c-1.17-.65-2.13-1.52-2.9-2.63-.77-1.1-1.35-2.38-1.75-3.83-.4-1.45-.59-2.98-.59-4.59,0-1.7,.22-3.31,.65-4.81,.43-1.5,1.06-2.81,1.87-3.92,.82-1.12,1.82-2,3.01-2.65,1.19-.65,2.54-.97,4.05-.97Zm-.18,22c1.18,0,2.2-.25,3.06-.76s1.57-1.2,2.12-2.09c.55-.89,.96-1.93,1.22-3.11,.26-1.19,.4-2.47,.4-3.83,0-1.46-.14-2.79-.41-4-.28-1.2-.7-2.23-1.26-3.1-.56-.86-1.27-1.54-2.11-2.02s-1.82-.72-2.95-.72-2.14,.23-2.97,.7c-.83,.47-1.5,1.13-2.02,1.98-.52,.85-.89,1.87-1.13,3.04s-.36,2.47-.36,3.89c0,3.31,.56,5.81,1.67,7.49s2.69,2.52,4.73,2.52Z"/>
    </g>
    <g>
      <path class="cls-8" d="M1410.54,671.23h-2.7v-18.94l-3.46,1.66-.79-2.52,6.95-3.96v23.76Z"/>
      <path class="cls-8" d="M1416.12,649.05c.46-.24,.97-.47,1.55-.68,.58-.22,1.17-.41,1.78-.58,.61-.17,1.24-.29,1.87-.38,.64-.08,1.24-.13,1.82-.13,1.03,0,1.98,.14,2.84,.43s1.6,.68,2.21,1.19c.61,.5,1.09,1.12,1.42,1.84,.34,.72,.5,1.51,.5,2.38,0,1.34-.37,2.66-1.12,3.96-.74,1.3-1.67,2.59-2.79,3.87-1.12,1.28-2.33,2.57-3.65,3.87-1.32,1.3-2.56,2.59-3.71,3.89h11.52v2.52h-14.58v-2.52c1.08-1.39,2.28-2.75,3.6-4.09,1.32-1.33,2.56-2.63,3.71-3.91s2.11-2.53,2.88-3.78c.77-1.25,1.15-2.51,1.15-3.78,0-.48-.07-.93-.2-1.35s-.36-.79-.68-1.12c-.32-.32-.74-.58-1.26-.76-.52-.18-1.16-.27-1.93-.27-.53,0-1.09,.04-1.67,.13-.59,.08-1.17,.21-1.75,.38s-1.12,.36-1.62,.58c-.5,.22-.92,.44-1.26,.68l-.65-2.38Z"/>
      <path class="cls-8" d="M1435.2,659.81l1.33-12.53h12.2v2.52h-9.94l-.94,7.67c.74-.17,1.52-.31,2.34-.41,.82-.11,1.57-.16,2.27-.16,1.08,0,2.08,.15,3.01,.45,.92,.3,1.72,.74,2.38,1.31,.66,.58,1.18,1.29,1.55,2.14,.37,.85,.56,1.83,.56,2.93s-.18,2.06-.54,3.02c-.36,.96-.91,1.8-1.64,2.52-.73,.72-1.65,1.3-2.75,1.73-1.1,.43-2.4,.65-3.89,.65-1.39,0-2.68-.2-3.87-.59-1.19-.4-2.24-.94-3.15-1.64l.76-2.52c.89,.7,1.82,1.27,2.81,1.71,.98,.44,2.15,.67,3.49,.67,1.82,0,3.25-.45,4.28-1.35,1.03-.9,1.55-2.21,1.55-3.94,0-.67-.09-1.29-.27-1.85-.18-.56-.49-1.04-.94-1.44-.44-.4-1.03-.7-1.75-.92s-1.62-.32-2.7-.32c-.84,0-1.7,.07-2.59,.22-.89,.14-1.73,.37-2.52,.68l-1.04-.54Z"/>
    </g>
    <g>
      <path class="cls-8" d="M1410.54,817h-2.7v-18.94l-3.46,1.66-.79-2.52,6.95-3.96v23.76Z"/>
      <path class="cls-8" d="M1416.12,794.82c.46-.24,.97-.47,1.55-.68,.58-.22,1.17-.41,1.78-.58,.61-.17,1.24-.29,1.87-.38,.64-.08,1.24-.13,1.82-.13,1.03,0,1.98,.14,2.84,.43s1.6,.68,2.21,1.19c.61,.5,1.09,1.12,1.42,1.84,.34,.72,.5,1.51,.5,2.38,0,1.34-.37,2.66-1.12,3.96-.74,1.3-1.67,2.59-2.79,3.87-1.12,1.28-2.33,2.57-3.65,3.87-1.32,1.3-2.56,2.59-3.71,3.89h11.52v2.52h-14.58v-2.52c1.08-1.39,2.28-2.75,3.6-4.09,1.32-1.33,2.56-2.63,3.71-3.91s2.11-2.53,2.88-3.78c.77-1.25,1.15-2.51,1.15-3.78,0-.48-.07-.93-.2-1.35s-.36-.79-.68-1.12c-.32-.32-.74-.58-1.26-.76-.52-.18-1.16-.27-1.93-.27-.53,0-1.09,.04-1.67,.13-.59,.08-1.17,.21-1.75,.38s-1.12,.36-1.62,.58c-.5,.22-.92,.44-1.26,.68l-.65-2.38Z"/>
      <path class="cls-8" d="M1444.12,793.06c1.54,0,2.9,.32,4.09,.97,1.19,.65,2.19,1.53,3.01,2.65,.82,1.12,1.43,2.41,1.85,3.87,.42,1.46,.63,3,.63,4.61s-.22,3.11-.65,4.59c-.43,1.48-1.06,2.78-1.89,3.92-.83,1.14-1.85,2.05-3.08,2.74-1.22,.68-2.63,1.03-4.21,1.03s-2.92-.32-4.09-.97c-1.17-.65-2.13-1.52-2.9-2.63-.77-1.1-1.35-2.38-1.75-3.83-.4-1.45-.59-2.98-.59-4.59,0-1.7,.22-3.31,.65-4.81,.43-1.5,1.06-2.81,1.87-3.92,.82-1.12,1.82-2,3.01-2.65,1.19-.65,2.54-.97,4.05-.97Zm-.18,22c1.18,0,2.2-.25,3.06-.76s1.57-1.2,2.12-2.09c.55-.89,.96-1.93,1.22-3.11,.26-1.19,.4-2.47,.4-3.83,0-1.46-.14-2.79-.41-4-.28-1.2-.7-2.23-1.26-3.1-.56-.86-1.27-1.54-2.11-2.02s-1.82-.72-2.95-.72-2.14,.23-2.97,.7c-.83,.47-1.5,1.13-2.02,1.98-.52,.85-.89,1.87-1.13,3.04s-.36,2.47-.36,3.89c0,3.31,.56,5.81,1.67,7.49s2.69,2.52,4.73,2.52Z"/>
    </g>
    <rect class="cls-7" x="1382.4" y="515.45" width="116.6" height="46"/>
    <g>
      <path class="cls-5" d="M1411.14,551.29h-4.14v-17.5l-2.92,1.3-.79-3.6,7.85-3.96v23.76Z"/>
      <path class="cls-5" d="M1416.11,529.22c.46-.24,.98-.47,1.57-.7,.59-.23,1.2-.43,1.84-.61,.64-.18,1.28-.32,1.93-.41,.65-.1,1.28-.14,1.91-.14,1.01,0,1.94,.14,2.81,.41,.86,.28,1.6,.67,2.21,1.19,.61,.52,1.09,1.14,1.44,1.87,.35,.73,.52,1.54,.52,2.43,0,1.22-.31,2.44-.92,3.65-.61,1.21-1.38,2.42-2.3,3.64s-1.94,2.41-3.04,3.6c-1.1,1.19-2.14,2.37-3.1,3.55h9.61v3.6h-14.58v-3.6c.94-1.27,2-2.53,3.19-3.76,1.19-1.24,2.3-2.44,3.35-3.62,1.04-1.17,1.93-2.33,2.65-3.46s1.08-2.23,1.08-3.31-.34-1.76-1.01-2.2c-.67-.43-1.55-.65-2.63-.65s-2.05,.16-3.04,.49c-1,.32-1.88,.7-2.65,1.13l-.83-3.1Z"/>
      <path class="cls-5" d="M1445.84,538.26c1.39,.31,2.47,1.03,3.22,2.16,.76,1.13,1.13,2.5,1.13,4.1,0,1.01-.16,1.95-.47,2.83-.31,.88-.8,1.64-1.46,2.29-.66,.65-1.49,1.16-2.5,1.53-1.01,.37-2.2,.56-3.56,.56-1.44,0-2.66-.2-3.67-.59-1.01-.4-1.82-.92-2.45-1.58s-1.08-1.42-1.37-2.29c-.29-.86-.43-1.75-.43-2.66,0-1.58,.38-2.93,1.15-4.03,.77-1.1,1.84-1.86,3.2-2.27v-.14c-.84-.31-1.58-.9-2.21-1.76-.64-.86-.95-1.96-.95-3.28,0-1.73,.59-3.12,1.76-4.18,1.18-1.06,2.84-1.58,5-1.58s3.77,.51,4.97,1.53c1.2,1.02,1.8,2.39,1.8,4.12,0,1.27-.31,2.35-.92,3.22-.61,.88-1.36,1.51-2.25,1.89v.14Zm.22,6.37c0-.55-.07-1.1-.22-1.66-.14-.55-.37-1.04-.68-1.48-.31-.43-.71-.79-1.21-1.06-.49-.28-1.07-.41-1.75-.41s-1.28,.14-1.76,.41c-.48,.28-.88,.64-1.19,1.08-.31,.44-.54,.94-.68,1.49-.14,.55-.22,1.09-.22,1.62,0,1.3,.35,2.28,1.06,2.95s1.64,1.01,2.79,1.01,2.08-.34,2.79-1.01,1.06-1.66,1.06-2.95Zm-1.08-11.05c0-.94-.23-1.67-.7-2.21s-1.16-.81-2.07-.81-1.57,.26-2.05,.77c-.48,.52-.72,1.25-.72,2.21,0,1.01,.25,1.8,.76,2.38s1.18,.86,2.02,.86,1.51-.29,2.02-.86c.5-.58,.76-1.36,.76-2.34Z"/>
      <path class="cls-5" d="M1454.05,549.17c0-.34,.07-.66,.2-.97s.32-.59,.56-.85c.24-.25,.51-.45,.81-.59,.3-.14,.63-.22,.99-.22,.34,0,.66,.07,.97,.22,.31,.14,.59,.34,.85,.59s.45,.54,.59,.85c.14,.31,.22,.64,.22,.97,0,.36-.07,.69-.22,.99-.14,.3-.34,.57-.59,.81-.25,.24-.53,.43-.85,.56-.31,.13-.64,.2-.97,.2-.7,0-1.3-.25-1.8-.76-.5-.5-.76-1.1-.76-1.8Z"/>
      <path class="cls-5" d="M1463.99,551.29c-.02-.22-.04-.45-.04-.7v-.7c0-1.42,.28-2.97,.85-4.66,.56-1.69,1.29-3.38,2.18-5.08,.89-1.69,1.87-3.32,2.93-4.9,1.07-1.57,2.11-2.95,3.11-4.12h-10.48v-3.78h14.58v3.78c-1.03,1.13-2.06,2.5-3.1,4.12-1.03,1.62-1.96,3.31-2.77,5.06-.82,1.75-1.48,3.47-1.98,5.15-.5,1.68-.76,3.14-.76,4.39v.76c0,.24,.01,.47,.04,.68h-4.57Z"/>
    </g>
    <line class="cls-2" y1="540.39" x2="1390.49" y2="540.39"/>
    <line class="cls-3" x1="1383.56" x2="1383.56" y2="860.95"/>
    <g>
      <path d="M383.23,850.06l-.37-2.9h-.18c-.83,1.04-1.96,1.88-3.38,2.51-1.43,.63-2.88,.94-4.35,.94-1.93,0-3.45-.56-4.55-1.68-1.1-1.12-1.66-2.6-1.66-4.44,0-1.26,.27-2.38,.81-3.38,.54-1,1.31-1.84,2.32-2.53,1.01-.69,2.22-1.22,3.63-1.59,1.41-.37,2.99-.55,4.74-.55h1.98v-.69c0-1.2-.38-2.07-1.15-2.62-.8-.55-2.04-.83-3.73-.83-2.27,0-4.29,.51-6.07,1.52l-.97-3.82c2.05-1.2,4.54-1.79,7.45-1.79,3.07,0,5.4,.63,6.99,1.89,.74,.58,1.34,1.33,1.82,2.25,.48,.92,.71,2.02,.71,3.31v14.4h-4.05Zm-6.3-3.54c.98,0,1.96-.24,2.94-.71s1.76-1.11,2.35-1.91v-4.19h-.87c-2.51,0-4.35,.32-5.5,.97-1.15,.64-1.73,1.67-1.73,3.08,0,1.84,.94,2.76,2.81,2.76Z"/>
      <path d="M403.61,836.35l9.02,13.71h-5.52l-6.85-10.4-1.79,1.79v8.6h-5.06v-34.04h5.06v19.64l7.04-6.76h5.66l-7.54,7.45Z"/>
      <path d="M417.04,831.98h-2.62v-2.76l2.99-.46,.83-6.26h3.86v6.39h4.05v3.08h-4.05v12.14c0,.92,.09,1.54,.28,1.86,.18,.32,.54,.48,1.06,.48,.4,0,.8-.08,1.2-.23,.4-.15,.98-.44,1.75-.87l.83,3.63c-.58,.49-1.4,.88-2.46,1.17-1.06,.29-2.11,.44-3.15,.44-.92,0-1.68-.12-2.28-.37s-1.07-.6-1.4-1.08c-.34-.47-.57-1.05-.69-1.72-.12-.67-.18-1.43-.18-2.25v-13.2Z"/>
      <path d="M436.22,828.9v13.75c0,1.26,.33,2.22,.99,2.88,.66,.66,1.51,.99,2.55,.99s2.05-.36,2.94-1.08c.89-.72,1.55-1.75,1.98-3.1v-13.43h5.11v21.16h-3.96l-.28-2.94h-.18c-.34,.71-.77,1.28-1.29,1.73-.52,.44-1.1,.8-1.73,1.06-.63,.26-1.28,.44-1.96,.55-.67,.11-1.33,.16-1.98,.16-1.01,0-1.95-.12-2.83-.37s-1.64-.65-2.3-1.22c-.66-.57-1.18-1.32-1.56-2.25-.38-.93-.57-2.09-.57-3.47v-14.4h5.06Z"/>
      <path d="M465.75,828.21c2.7,0,4.78,.68,6.26,2.05s2.21,3.29,2.21,5.77c0,.34-.02,.7-.07,1.08-.05,.38-.11,.76-.18,1.13-.08,.37-.17,.7-.28,.99-.11,.29-.22,.53-.35,.71h-13.39c.06,.92,.23,1.79,.51,2.6,.28,.81,.67,1.52,1.2,2.12,.52,.6,1.16,1.07,1.91,1.43,.75,.35,1.63,.53,2.65,.53,1.13,0,2.34-.21,3.61-.64,1.27-.43,2.35-.97,3.24-1.61l.83,3.77c-.4,.25-.89,.51-1.47,.8-.58,.29-1.24,.56-1.98,.8-.74,.25-1.53,.45-2.37,.62-.84,.17-1.72,.25-2.65,.25-1.72,0-3.24-.3-4.55-.9-1.32-.6-2.42-1.41-3.31-2.44-.89-1.03-1.56-2.21-2.02-3.56s-.69-2.76-.69-4.23,.24-2.94,.71-4.3c.48-1.36,1.17-2.57,2.09-3.61,.92-1.04,2.06-1.86,3.43-2.46,1.36-.6,2.92-.9,4.67-.9Zm-.14,3.96c-1.29,0-2.38,.38-3.29,1.13-.9,.75-1.56,1.77-1.96,3.06h8.79c.03-.09,.05-.2,.07-.32,.01-.12,.02-.28,.02-.46,0-.98-.34-1.79-1.01-2.44-.67-.64-1.55-.97-2.62-.97Z"/>
      <path d="M484.7,850.06h-5.06v-34.04h5.06v34.04Z"/>
      <path d="M496.66,850.06h-5.06v-34.04h5.06v34.04Z"/>
      <path d="M512.9,828.21c2.7,0,4.78,.68,6.26,2.05s2.21,3.29,2.21,5.77c0,.34-.02,.7-.07,1.08-.05,.38-.11,.76-.18,1.13-.08,.37-.17,.7-.28,.99-.11,.29-.22,.53-.35,.71h-13.39c.06,.92,.23,1.79,.51,2.6,.28,.81,.67,1.52,1.2,2.12,.52,.6,1.16,1.07,1.91,1.43,.75,.35,1.63,.53,2.65,.53,1.13,0,2.34-.21,3.61-.64,1.27-.43,2.35-.97,3.24-1.61l.83,3.77c-.4,.25-.89,.51-1.47,.8-.58,.29-1.24,.56-1.98,.8-.74,.25-1.53,.45-2.37,.62-.84,.17-1.72,.25-2.65,.25-1.72,0-3.24-.3-4.55-.9-1.32-.6-2.42-1.41-3.31-2.44-.89-1.03-1.56-2.21-2.02-3.56s-.69-2.76-.69-4.23,.24-2.94,.71-4.3c.48-1.36,1.17-2.57,2.09-3.61,.92-1.04,2.06-1.86,3.43-2.46,1.36-.6,2.92-.9,4.67-.9Zm-.14,3.96c-1.29,0-2.38,.38-3.29,1.13-.9,.75-1.56,1.77-1.96,3.06h8.79c.03-.09,.05-.2,.07-.32,.01-.12,.02-.28,.02-.46,0-.98-.34-1.79-1.01-2.44-.67-.64-1.55-.97-2.62-.97Z"/>
      <path d="M538.61,833.5c-.31-.25-.78-.44-1.43-.6-.64-.15-1.2-.23-1.66-.23-.61,0-1.12,.15-1.52,.44-.4,.29-.75,.67-1.06,1.15s-.57,1.02-.78,1.63c-.21,.61-.41,1.24-.6,1.89v12.28h-5.06v-21.16h3.96l.23,4.42h.18c.31-.64,.63-1.27,.97-1.89s.72-1.16,1.15-1.63c.43-.48,.93-.86,1.49-1.15,.57-.29,1.23-.44,2-.44,1.23,0,2.38,.4,3.45,1.2l-1.33,4.09Z"/>
      <path d="M376.51,905.26h-5.29v-30.36h5.29v13.25c1.75-1.66,3.31-3.27,4.69-4.83,1.29-1.47,2.45-2.91,3.5-4.3,1.04-1.39,1.95-2.77,2.71-4.12h5.8c-1.35,1.84-2.64,3.53-3.86,5.06-1.23,1.53-2.58,3.13-4.05,4.78-.55,.61-1.12,1.24-1.7,1.89-.58,.64-1.18,1.29-1.79,1.93l13.57,16.7h-6.12l-10.81-13.29-1.93,1.79v11.5Z"/>
      <path d="M402.78,884.1v13.75c0,1.26,.33,2.22,.99,2.88,.66,.66,1.51,.99,2.55,.99s2.05-.36,2.94-1.08c.89-.72,1.55-1.75,1.98-3.1v-13.43h5.11v21.16h-3.96l-.28-2.94h-.18c-.34,.71-.77,1.28-1.29,1.73-.52,.44-1.1,.8-1.73,1.06-.63,.26-1.28,.44-1.96,.55-.67,.11-1.33,.16-1.98,.16-1.01,0-1.95-.12-2.83-.37s-1.64-.65-2.3-1.22c-.66-.57-1.18-1.32-1.56-2.25-.38-.93-.57-2.09-.57-3.47v-14.4h5.06Z"/>
      <path d="M434.79,888.7c-.31-.25-.78-.44-1.43-.6-.64-.15-1.2-.23-1.66-.23-.61,0-1.12,.15-1.52,.44-.4,.29-.75,.67-1.06,1.15s-.57,1.02-.78,1.63c-.21,.61-.41,1.24-.6,1.89v12.28h-5.06v-21.16h3.96l.23,4.42h.18c.31-.64,.63-1.27,.97-1.89s.72-1.16,1.15-1.63c.43-.48,.93-.86,1.49-1.15,.57-.29,1.23-.44,2-.44,1.23,0,2.38,.4,3.45,1.2l-1.33,4.09Z"/>
      <path d="M446.34,887.18c-1.01,0-1.8,.19-2.37,.58-.57,.38-.85,.93-.85,1.63,0,.46,.16,.88,.48,1.26,.32,.38,1,.7,2.05,.94l3.27,.74c1.29,.28,2.32,.67,3.1,1.2,.78,.52,1.4,1.09,1.84,1.7,.44,.61,.74,1.24,.9,1.89,.15,.64,.23,1.24,.23,1.79,0,.98-.2,1.89-.6,2.74-.4,.84-.97,1.57-1.7,2.19-.74,.61-1.63,1.1-2.67,1.45-1.04,.35-2.21,.53-3.5,.53-1.63,0-3.13-.24-4.51-.71-1.38-.47-2.48-1-3.31-1.59l1.2-4.37c1.04,1.01,2.22,1.76,3.52,2.25,1.3,.49,2.51,.74,3.61,.74,1.17,0,2.05-.25,2.67-.76,.61-.51,.92-1.2,.92-2.09,0-.52-.15-.96-.46-1.31-.31-.35-.92-.65-1.84-.9l-4.42-1.1c-1.04-.25-1.89-.6-2.55-1.06-.66-.46-1.18-.97-1.56-1.54-.38-.57-.64-1.16-.78-1.77-.14-.61-.21-1.2-.21-1.75,0-2.05,.72-3.64,2.16-4.76,1.44-1.12,3.31-1.68,5.61-1.68,1.2,0,2.48,.16,3.86,.48s2.54,.79,3.5,1.4l-1.33,4.14c-.61-.49-1.47-.99-2.58-1.5s-2.33-.76-3.68-.76Z"/>
    </g>
    <g>
      <path d="M659.18,250.41h-5.75l-3.45-8.83h-11.45l-3.13,8.83h-5.52l11.78-30.36h4.55l12.97,30.36Zm-19.18-12.97h8.33l-4.37-11.18-3.96,11.18Z"/>
      <path d="M666.5,229.25v13.75c0,1.26,.33,2.22,.99,2.88,.66,.66,1.51,.99,2.55,.99s2.05-.36,2.94-1.08c.89-.72,1.55-1.76,1.98-3.1v-13.43h5.11v21.16h-3.96l-.28-2.94h-.18c-.34,.71-.77,1.28-1.29,1.72-.52,.45-1.1,.8-1.72,1.06-.63,.26-1.28,.44-1.96,.55-.67,.11-1.33,.16-1.98,.16-1.01,0-1.96-.12-2.83-.37s-1.64-.65-2.3-1.22c-.66-.57-1.18-1.32-1.56-2.25-.38-.94-.58-2.09-.58-3.47v-14.4h5.06Z"/>
      <path d="M692.85,232.33c-1.01,0-1.8,.19-2.37,.58-.57,.38-.85,.93-.85,1.63,0,.46,.16,.88,.48,1.27,.32,.38,1,.7,2.05,.94l3.27,.74c1.29,.28,2.32,.67,3.1,1.2,.78,.52,1.4,1.09,1.84,1.7,.44,.61,.74,1.24,.9,1.89,.15,.64,.23,1.24,.23,1.79,0,.98-.2,1.89-.6,2.74-.4,.84-.97,1.57-1.7,2.19-.74,.61-1.63,1.1-2.67,1.45-1.04,.35-2.21,.53-3.5,.53-1.63,0-3.13-.24-4.51-.71s-2.48-1-3.31-1.59l1.2-4.37c1.04,1.01,2.22,1.76,3.52,2.25,1.3,.49,2.51,.74,3.61,.74,1.17,0,2.05-.25,2.67-.76,.61-.51,.92-1.2,.92-2.09,0-.52-.15-.96-.46-1.31-.31-.35-.92-.65-1.84-.9l-4.42-1.1c-1.04-.25-1.89-.6-2.55-1.06-.66-.46-1.18-.97-1.56-1.54-.38-.57-.64-1.16-.78-1.77-.14-.61-.21-1.2-.21-1.75,0-2.05,.72-3.64,2.16-4.76,1.44-1.12,3.31-1.68,5.61-1.68,1.2,0,2.48,.16,3.86,.48,1.38,.32,2.54,.79,3.5,1.4l-1.33,4.14c-.61-.49-1.47-.99-2.58-1.49-1.1-.51-2.33-.76-3.68-.76Z"/>
      <path d="M707.34,232.33h-2.62v-2.62l2.62-.41c0-1.75,.05-3.24,.16-4.46,.11-1.23,.25-2.26,.44-3.1,.18-.84,.39-1.52,.62-2.05,.23-.52,.47-.95,.71-1.29,.61-.8,1.42-1.37,2.42-1.73,1-.35,2.09-.53,3.29-.53h.74c.34,0,.71,.03,1.13,.1,.41,.06,.84,.17,1.29,.31s.85,.33,1.22,.55l-1.15,3.91c-.31-.18-.81-.44-1.52-.76-.71-.32-1.4-.48-2.07-.48-.4,0-.74,.09-1.01,.28-.28,.18-.51,.52-.69,1.01-.18,.49-.31,1.15-.39,1.98-.08,.83-.12,1.89-.12,3.17v3.04h4.05v3.08h-4.05v18.08h-5.06v-18.08Z"/>
      <path d="M725.47,229.25v13.75c0,1.26,.33,2.22,.99,2.88,.66,.66,1.51,.99,2.55,.99s2.05-.36,2.94-1.08c.89-.72,1.55-1.76,1.98-3.1v-13.43h5.11v21.16h-3.96l-.28-2.94h-.18c-.34,.71-.77,1.28-1.29,1.72-.52,.45-1.1,.8-1.72,1.06-.63,.26-1.28,.44-1.96,.55-.67,.11-1.33,.16-1.98,.16-1.01,0-1.96-.12-2.83-.37s-1.64-.65-2.3-1.22c-.66-.57-1.18-1.32-1.56-2.25-.38-.94-.58-2.09-.58-3.47v-14.4h5.06Zm-1.75-6.99c0-.71,.26-1.33,.78-1.89,.52-.55,1.13-.83,1.84-.83s1.33,.28,1.89,.83c.55,.55,.83,1.18,.83,1.89s-.28,1.32-.83,1.84c-.55,.52-1.18,.78-1.89,.78s-1.32-.26-1.84-.78c-.52-.52-.78-1.13-.78-1.84Zm6.26,0c0-.71,.26-1.33,.78-1.89,.52-.55,1.13-.83,1.84-.83s1.33,.28,1.89,.83c.55,.55,.83,1.18,.83,1.89s-.28,1.32-.83,1.84c-.55,.52-1.18,.78-1.89,.78s-1.32-.26-1.84-.78c-.52-.52-.78-1.13-.78-1.84Z"/>
      <path d="M750.44,232.38c.86-1.35,1.86-2.32,3.01-2.92,1.15-.6,2.51-.9,4.07-.9,.92,0,1.81,.13,2.67,.39,.86,.26,1.62,.68,2.28,1.27s1.18,1.35,1.56,2.3c.38,.95,.58,2.12,.58,3.5v14.4h-5.06v-13.98c0-1.26-.28-2.2-.83-2.83-.55-.63-1.3-.94-2.25-.94-.58,0-1.19,.09-1.82,.28-.63,.18-1.22,.46-1.77,.83-.55,.37-1.04,.81-1.47,1.33-.43,.52-.75,1.1-.97,1.75v13.57h-5.06v-34.04h5.06v16.01Z"/>
      <path d="M782.87,233.85c-.31-.25-.78-.44-1.43-.6-.64-.15-1.2-.23-1.66-.23-.61,0-1.12,.15-1.52,.44-.4,.29-.75,.68-1.06,1.15-.31,.48-.57,1.02-.78,1.63-.21,.61-.41,1.24-.6,1.89v12.28h-5.06v-21.16h3.96l.23,4.42h.18c.31-.64,.63-1.27,.97-1.89,.34-.61,.72-1.16,1.15-1.63,.43-.48,.93-.86,1.5-1.15,.57-.29,1.23-.44,2-.44,1.23,0,2.38,.4,3.45,1.2l-1.33,4.09Z"/>
      <path d="M792.85,229.25v13.75c0,1.26,.33,2.22,.99,2.88,.66,.66,1.51,.99,2.55,.99s2.05-.36,2.94-1.08c.89-.72,1.55-1.76,1.98-3.1v-13.43h5.11v21.16h-3.96l-.28-2.94h-.18c-.34,.71-.77,1.28-1.29,1.72-.52,.45-1.1,.8-1.72,1.06-.63,.26-1.28,.44-1.96,.55-.67,.11-1.33,.16-1.98,.16-1.01,0-1.96-.12-2.83-.37s-1.64-.65-2.3-1.22c-.66-.57-1.18-1.32-1.56-2.25-.38-.94-.58-2.09-.58-3.47v-14.4h5.06Z"/>
      <path d="M826.94,250.41v-13.98c0-2.51-1.07-3.77-3.22-3.77-.52,0-1.08,.09-1.68,.28-.6,.18-1.17,.45-1.73,.81s-1.05,.79-1.5,1.31-.77,1.12-.99,1.79v13.57h-5.06v-21.16h3.96l.23,3.13h.18c.64-1.29,1.65-2.25,3.01-2.88,1.36-.63,2.83-.94,4.39-.94,1.01,0,1.96,.13,2.85,.39,.89,.26,1.68,.68,2.37,1.27,.69,.58,1.23,1.35,1.63,2.3,.4,.95,.6,2.12,.6,3.5v14.4h-5.06Z"/>
      <path d="M840.74,243.74c-1.38-.58-2.38-1.49-2.99-2.71-.61-1.23-.92-2.56-.92-4,0-1.2,.2-2.31,.6-3.36,.4-1.04,.97-1.94,1.72-2.69,.75-.75,1.66-1.34,2.71-1.77,1.06-.43,2.26-.64,3.61-.64,.8,0,1.59,.07,2.37,.22,.78,.15,1.46,.37,2.05,.67,1.29,0,2.46-.09,3.52-.26,1.06-.17,2.08-.4,3.06-.68l.41,.32-.51,3.5-.23,.23-3.27-.37-.05,.14c1.04,1.32,1.56,2.87,1.56,4.65,0,1.07-.19,2.08-.57,3.01-.38,.94-.94,1.75-1.68,2.44-.74,.69-1.65,1.24-2.74,1.66-1.09,.41-2.32,.62-3.7,.62-.34,0-.61,0-.81-.02-.2-.02-.39-.02-.57-.02-.52,.18-.92,.42-1.2,.71-.28,.29-.41,.59-.41,.9,0,.34,.17,.63,.51,.87,.34,.25,.86,.41,1.56,.51l4.46,.55c1.01,.12,1.96,.34,2.83,.64,.87,.31,1.64,.72,2.3,1.24,.66,.52,1.17,1.15,1.54,1.89s.55,1.58,.55,2.53-.2,1.87-.6,2.76c-.4,.89-1.03,1.67-1.89,2.35-.86,.67-1.94,1.21-3.24,1.61-1.3,.4-2.88,.6-4.72,.6-1.62,0-3.06-.16-4.3-.48-1.24-.32-2.29-.76-3.15-1.31-.86-.55-1.51-1.2-1.96-1.95-.45-.75-.67-1.56-.67-2.42,0-.61,.11-1.22,.32-1.82,.21-.6,.51-1.15,.9-1.66,.38-.51,.83-.96,1.33-1.36,.51-.4,1.05-.69,1.63-.87v-.18c-.71-.31-1.2-.72-1.47-1.24-.28-.52-.41-1.03-.41-1.52,0-.64,.21-1.24,.64-1.79,.43-.55,1.04-.98,1.84-1.29v-.18Zm3.5,7.68c-1.04,.18-1.93,.62-2.67,1.31-.74,.69-1.1,1.48-1.1,2.37,0,.98,.48,1.72,1.45,2.21,.97,.49,2.37,.74,4.21,.74s3.25-.25,4.32-.76,1.61-1.33,1.61-2.46-.6-1.89-1.79-2.35-3.21-.81-6.03-1.06Zm1.43-10.26c1.26,0,2.21-.41,2.85-1.22,.64-.81,.97-1.8,.97-2.97,0-.55-.08-1.11-.23-1.68-.15-.57-.4-1.08-.74-1.54-.34-.46-.76-.84-1.26-1.13s-1.1-.44-1.77-.44-1.21,.13-1.7,.39c-.49,.26-.9,.61-1.22,1.04-.32,.43-.56,.91-.71,1.45-.15,.54-.23,1.08-.23,1.63s.08,1.1,.25,1.63c.17,.54,.42,1.01,.76,1.43,.34,.41,.76,.75,1.26,1.01,.51,.26,1.1,.39,1.77,.39Z"/>
    </g>
    <line class="cls-1" x1="343.02" y1="708.01" x2="343.02" y2="913.45"/>
    <circle class="cls-4" cx="342.44" cy="661.59" r="47.01"/>
    <g>
      <path d="M1095.53,492.86c0,1.22-.25,2.32-.76,3.31-.51,.99-1.3,1.83-2.37,2.54,1.84,.61,3.28,1.57,4.32,2.88,1.04,1.31,1.56,2.97,1.56,4.97,0,1.28-.23,2.48-.69,3.61-.46,1.13-1.17,2.12-2.12,2.97-.95,.85-2.13,1.53-3.54,2.03-1.41,.5-3.07,.75-4.97,.75h-4.92c-1.59,0-2.93-.13-4-.39v-30.38c.34-.09,.81-.14,1.43-.14h5.98c3.25,0,5.74,.66,7.48,1.99,1.73,1.33,2.6,3.28,2.6,5.87Zm-9.2-3.63c-.61,0-1.16,.02-1.63,.07-.48,.05-.93,.1-1.36,.16v7.87c.37,.03,.74,.05,1.13,.05h1.17c1.35,0,2.41-.45,3.17-1.36,.77-.9,1.15-2.09,1.15-3.56,0-.92-.32-1.69-.94-2.3-.63-.61-1.53-.92-2.69-.92Zm.41,12.01h-3.4v10.3c.55,.06,1.12,.09,1.7,.09h1.79c1.87,0,3.33-.46,4.37-1.37,1.04-.92,1.56-2.24,1.56-3.99,0-1.56-.48-2.79-1.43-3.69-.95-.9-2.48-1.35-4.6-1.35Z"/>
      <path d="M1108.04,494.33v13.75c0,1.26,.33,2.22,.99,2.88,.66,.66,1.51,.99,2.55,.99s2.05-.36,2.94-1.08c.89-.72,1.55-1.75,1.98-3.1v-13.43h5.11v21.16h-3.96l-.28-2.94h-.18c-.34,.71-.77,1.28-1.29,1.72-.52,.45-1.1,.8-1.72,1.06-.63,.26-1.28,.44-1.96,.55-.68,.11-1.33,.16-1.98,.16-1.01,0-1.96-.12-2.83-.37-.88-.25-1.64-.65-2.3-1.22-.66-.57-1.18-1.32-1.56-2.25-.38-.93-.57-2.09-.57-3.47v-14.4h5.06Z"/>
      <path d="M1137.11,509.38l5.89-15.04h4.88l-8.74,21.34c-.43,1.07-1.02,2.28-1.77,3.61-.75,1.33-1.64,2.59-2.67,3.77-1.03,1.18-2.19,2.18-3.47,2.99-1.29,.81-2.68,1.22-4.19,1.22-.25,0-.43,0-.55-.02-.12-.02-.26-.05-.41-.12l-.88-3.96c.09,.03,.2,.06,.32,.09s.38,.05,.78,.05c.58,0,1.16-.06,1.73-.18,.57-.12,1.14-.37,1.72-.74,1.1-.71,2.06-1.69,2.88-2.94,.81-1.26,1.6-2.81,2.37-4.65l-10.53-20.47h5.29l7.36,15.04Z"/>
      <path d="M1166.83,492.45c0,.64,.14,1.2,.44,1.66,.29,.46,.7,.86,1.22,1.2,.52,.34,1.14,.65,1.86,.94,.72,.29,1.52,.59,2.41,.9,1.1,.4,2.2,.85,3.29,1.36,1.09,.51,2.07,1.13,2.94,1.89s1.59,1.68,2.14,2.78c.55,1.1,.83,2.44,.83,4,0,1.66-.3,3.05-.9,4.19-.6,1.14-1.4,2.05-2.41,2.74s-2.18,1.19-3.5,1.49c-1.32,.31-2.68,.46-4.09,.46-2.02,0-3.92-.25-5.68-.74s-3.27-1.09-4.53-1.79l1.38-4.97c1.16,.89,2.46,1.62,3.89,2.21s3.06,.87,4.9,.87c1.96,0,3.39-.35,4.28-1.04s1.33-1.62,1.33-2.78c0-.89-.21-1.65-.64-2.28-.43-.63-.97-1.16-1.61-1.61-.64-.44-1.33-.8-2.05-1.08-.72-.28-1.36-.51-1.91-.69-.98-.31-1.98-.67-2.99-1.1s-1.95-.99-2.81-1.68c-.86-.69-1.56-1.56-2.09-2.6-.54-1.04-.8-2.35-.8-3.91,0-1.47,.25-2.71,.76-3.73s1.2-1.83,2.07-2.46c.87-.63,1.9-1.08,3.08-1.36,1.18-.28,2.46-.41,3.84-.41,1.69,0,3.32,.17,4.9,.51,1.58,.34,2.91,.75,3.98,1.24l-1.24,4.88c-.55-.37-1.15-.69-1.79-.97-.64-.28-1.31-.51-2-.69-.69-.18-1.38-.33-2.07-.44s-1.34-.16-1.96-.16c-1.38,0-2.47,.26-3.27,.78-.8,.52-1.2,1.32-1.2,2.39Z"/>
      <path d="M1187.39,497.42h-2.62v-2.76l2.99-.46,.83-6.26h3.87v6.39h4.05v3.08h-4.05v12.14c0,.92,.09,1.54,.28,1.86s.54,.48,1.06,.48c.4,0,.8-.08,1.2-.23s.98-.44,1.75-.87l.83,3.63c-.58,.49-1.4,.88-2.46,1.17-1.06,.29-2.11,.44-3.15,.44-.92,0-1.68-.12-2.28-.37-.6-.25-1.07-.61-1.4-1.08-.34-.47-.57-1.05-.69-1.72-.12-.67-.18-1.43-.18-2.25v-13.2Z"/>
      <path d="M1211.13,493.64c1.87,0,3.48,.31,4.83,.94,1.35,.63,2.46,1.47,3.33,2.53,.87,1.06,1.52,2.27,1.93,3.63s.62,2.8,.62,4.3-.21,2.92-.62,4.25-1.06,2.5-1.93,3.5c-.87,1-1.98,1.79-3.31,2.37-1.33,.58-2.91,.87-4.71,.87s-3.48-.31-4.83-.92-2.47-1.43-3.36-2.46c-.89-1.03-1.55-2.21-1.98-3.57-.43-1.35-.64-2.77-.64-4.28s.21-2.93,.64-4.28,1.08-2.54,1.96-3.57c.87-1.03,1.99-1.84,3.34-2.44,1.35-.6,2.93-.9,4.74-.9Zm.09,18.58c.89,0,1.66-.19,2.32-.57,.66-.38,1.2-.9,1.63-1.56,.43-.66,.74-1.42,.94-2.28,.2-.86,.3-1.76,.3-2.71s-.11-1.92-.32-2.83-.54-1.7-.99-2.39c-.45-.69-1.01-1.24-1.68-1.66-.67-.41-1.49-.62-2.44-.62-.89,0-1.66,.19-2.3,.58-.64,.38-1.17,.9-1.59,1.54s-.72,1.4-.92,2.25c-.2,.86-.3,1.76-.3,2.71s.1,1.92,.3,2.83c.2,.9,.52,1.71,.96,2.42,.45,.71,1,1.26,1.68,1.68,.67,.41,1.47,.62,2.39,.62Z"/>
      <path d="M1238.73,493.64c1.66,0,3.08,.31,4.28,.94s2.19,1.46,2.97,2.51c.78,1.04,1.36,2.25,1.72,3.61,.37,1.37,.55,2.78,.55,4.26s-.19,2.93-.58,4.28c-.38,1.35-.97,2.53-1.77,3.54-.8,1.01-1.79,1.81-2.99,2.39-1.2,.58-2.62,.87-4.28,.87-1.38,0-2.66-.2-3.84-.6-1.18-.4-2.12-1.04-2.83-1.93v13.94h-5.01v-33.12h4.05l.37,2.9h.18c.4-.49,.87-.96,1.43-1.4,.55-.45,1.15-.83,1.79-1.15,.64-.32,1.3-.58,1.98-.76,.67-.18,1.33-.28,1.98-.28Zm-.83,3.86c-.46,0-.97,.07-1.52,.21s-1.1,.34-1.63,.6c-.54,.26-1.05,.58-1.54,.94-.49,.37-.91,.78-1.24,1.24v8.97c.92,1.13,1.86,1.85,2.83,2.14,.97,.29,1.85,.44,2.64,.44,1.01,0,1.88-.18,2.6-.55,.72-.37,1.32-.87,1.79-1.49s.83-1.37,1.06-2.21c.23-.84,.35-1.75,.35-2.74,0-.92-.1-1.83-.3-2.74-.2-.9-.52-1.71-.97-2.42-.45-.71-1-1.28-1.68-1.72-.67-.44-1.47-.67-2.39-.67Z"/>
      <path d="M1270.83,515.49h-5.29v-30.36h5.29v13.25c1.75-1.66,3.31-3.27,4.69-4.83,1.29-1.47,2.45-2.91,3.5-4.3s1.95-2.77,2.71-4.12h5.79c-1.35,1.84-2.64,3.53-3.86,5.06-1.23,1.53-2.58,3.13-4.05,4.78-.55,.61-1.12,1.24-1.7,1.89-.58,.64-1.18,1.29-1.79,1.93l13.57,16.7h-6.12l-10.81-13.29-1.93,1.79v11.5Z"/>
      <path d="M1297.1,494.33v13.75c0,1.26,.33,2.22,.99,2.88s1.51,.99,2.55,.99,2.05-.36,2.94-1.08c.89-.72,1.55-1.75,1.98-3.1v-13.43h5.11v21.16h-3.96l-.28-2.94h-.18c-.34,.71-.77,1.28-1.29,1.72-.52,.45-1.1,.8-1.73,1.06-.63,.26-1.28,.44-1.96,.55-.67,.11-1.33,.16-1.98,.16-1.01,0-1.95-.12-2.83-.37-.87-.25-1.64-.65-2.3-1.22-.66-.57-1.18-1.32-1.56-2.25-.38-.93-.58-2.09-.58-3.47v-14.4h5.06Z"/>
      <path d="M1329.12,498.93c-.31-.25-.78-.44-1.43-.6-.64-.15-1.2-.23-1.66-.23-.61,0-1.12,.15-1.52,.44-.4,.29-.75,.68-1.06,1.15-.31,.48-.57,1.02-.78,1.63-.21,.61-.41,1.24-.6,1.89v12.28h-5.06v-21.16h3.96l.23,4.42h.18c.31-.64,.63-1.27,.97-1.88,.34-.61,.72-1.16,1.15-1.63,.43-.48,.93-.86,1.49-1.15s1.23-.44,2-.44c1.23,0,2.38,.4,3.45,1.2l-1.33,4.09Z"/>
      <path d="M1340.66,497.42c-1.01,0-1.8,.19-2.37,.58-.57,.38-.85,.93-.85,1.63,0,.46,.16,.88,.48,1.26s1,.7,2.05,.94l3.27,.74c1.29,.28,2.32,.68,3.11,1.2,.78,.52,1.39,1.09,1.84,1.7,.44,.61,.74,1.24,.9,1.89s.23,1.24,.23,1.79c0,.98-.2,1.89-.6,2.74-.4,.84-.97,1.57-1.7,2.18-.74,.61-1.63,1.1-2.67,1.45-1.04,.35-2.21,.53-3.5,.53-1.63,0-3.13-.24-4.51-.71-1.38-.48-2.48-1-3.31-1.59l1.2-4.37c1.04,1.01,2.21,1.76,3.52,2.25,1.3,.49,2.51,.74,3.61,.74,1.16,0,2.05-.25,2.67-.76,.61-.51,.92-1.2,.92-2.09,0-.52-.15-.96-.46-1.31-.31-.35-.92-.65-1.84-.9l-4.42-1.1c-1.04-.25-1.89-.6-2.55-1.06-.66-.46-1.18-.97-1.56-1.54-.38-.57-.64-1.16-.78-1.77-.14-.61-.21-1.2-.21-1.75,0-2.05,.72-3.64,2.16-4.76,1.44-1.12,3.31-1.68,5.61-1.68,1.2,0,2.48,.16,3.86,.48,1.38,.32,2.54,.79,3.5,1.4l-1.33,4.14c-.61-.49-1.47-.99-2.58-1.49s-2.33-.76-3.68-.76Z"/>
    </g>
    <circle class="cls-1" cx="606.65" cy="537.04" r="47.01"/>
    <line class="cls-1" x1="605.49" y1="211.45" x2="605.49" y2="492.05"/>
  </g>
</svg>