<?xml version="1.0" encoding="UTF-8"?>
<svg id="Ebene_2" data-name="Ebene 2" xmlns="http://www.w3.org/2000/svg" viewBox="0 0 875.31 1000.1">
  <defs>
    <style>
      .cls-1 {
        fill: #ff6b35;
      }
    </style>
  </defs>
  <g id="Ebene_1-2" data-name="Ebene 1">
    <path class="cls-1" d="M213,595.1c-38.4,42.3-76.8,84.5-115.3,126.7-15.8,17.3-24.9,17.5-41.8,1-8.3-8.1-16.5-16.2-24.8-24.4-11.6-11.3-31.1-3.1-31.1,13.1v270.2c0,10.1,8.2,18.3,18.3,18.3H226.5c10.1,0,18.3-8.2,18.3-18.3v-374.3c0-16.8-20.6-24.7-31.8-12.3Zm312.2-17.1c-20.9,22.7-41.8,45.4-62.7,68-16.2,17.6-25.2,17.7-42.8,1.2-23.3-21.8-46.7-43.6-70.1-65.4-12.9-12.1-34-2.9-34,14.8v383.2c0,11.2,9.1,20.2,20.2,20.2h204.3c11.2,0,20.2-9.1,20.2-20.2v-388.1c0-18.4-22.6-27.2-35.1-13.7h0Zm338.8-176.8c-2.3-1.2-4.5-2.9-6.6-4.9-23.2-23.1-46.5-46.1-69.4-69.6-4.1-4.2-9.7-6.6-15.6-6.6h-.2c-6.1,0-11.9,2.6-16.1,7.1-39.9,43.4-79.8,86.8-119.8,130.1-3.7,4-5.8,9.3-5.8,14.8v506.2c0,12.1,9.8,21.8,21.8,21.8h201.2c12.1,0,21.8-9.8,21.8-21.8V419.4c.3-7.8-4.4-14.5-11.3-18.2h0Zm-402.8,145.5c96-104.1,192.1-208.2,287.8-312.5,6.5-7.1,10.1-7.6,16.9-.4,24,25,48.8,49.3,73.3,73.7,10.9,10.8,25.5,9.6,32.4-2.5,2.8-4.9,3.1-10.4,3.2-15.9,0-88.7,.1-177.4,0-266.1,0-15.4-8.2-23-24.3-23-44.4,.1-89,.1-133.5,.1s-89.1,.1-133.6-.1c-10.1,0-18.2,3.1-21.9,12.9-3.5,9.2-.2,16.7,6.7,23.6,27.3,26.9,54,54.4,81.5,81.1,7.3,7,8.2,11,.9,19-71.3,78.7-142.2,157.8-212.8,237.1-6.8,7.7-10.4,6.6-17,.6-43-39.5-86.3-78.7-129.4-118-13.7-12.5-23.7-12.6-35.8,.5C173.4,346.3,91.2,435.8,9.1,525.5c-11.5,12.6-11,22,1.2,34l61.7,60.6c16.1,15.8,24.9,15.6,40-1,56.3-61.8,112.6-123.6,168.6-185.6,6-6.7,9.6-7.2,16.3-.8,40.9,38.6,82.2,76.7,123.2,115,17,15.9,25.6,15.8,41.1-1h0Z"/>
  </g>
</svg>