<?xml version="1.0" encoding="UTF-8"?>
<svg id="Ebene_2" data-name="Ebene 2" xmlns="http://www.w3.org/2000/svg" viewBox="0 0 874.98 875.05">
  <defs>
    <style>
      .cls-1 {
        fill: #ff6b35;
      }
    </style>
  </defs>
  <g id="Ebene_1-2" data-name="Ebene 1">
    <path class="cls-1" d="M437.6,0C198-.1,5,192.1,.1,427.8c-5.1,244.9,189,443.6,429.9,447.2,251.6,3.7,440.5-197.9,444.9-428.2C879.6,200.1,680.7-.5,437.6,0h0Zm3.3,787.3c-196,1.4-353.2-155.3-353.2-349.4S244.2,87.4,437.1,87.6c193.6,.1,349.5,156.6,350.2,349.5,.8,186.1-149.4,348.8-346.4,350.2h0Zm26.2-611.9h-58.6c-4,0-7.3,3.3-7.3,7.3v209.6c0,4-3.3,7.3-7.3,7.3h-134.5c-4,0-7.3,3.3-7.3,7.3v59.5c0,4,3.3,7.3,7.3,7.3h207.7c4,0,7.3-3.3,7.3-7.3V182.8c0-4.1-3.3-7.4-7.3-7.4Z"/>
  </g>
</svg>