<?xml version="1.0" encoding="UTF-8"?>
<svg id="Ebene_2" data-name="Ebene 2" xmlns="http://www.w3.org/2000/svg" viewBox="0 0 618.8 874.9">
  <defs>
    <style>
      .cls-1 {
        fill: #ff6b35;
      }
    </style>
  </defs>
  <g id="Ebene_1-2" data-name="Ebene 1">
    <path class="cls-1" d="M595.7,129.4c-16.5-19.2-32.9-38.2-49.5-57.4-12.9-15.1-26-30.1-39.2-45.2-12.9-14.8-39-26.8-58.7-26.8H35.4C15.9,0,0,15.9,0,35.5V839.5c0,19.5,15.9,35.4,35.4,35.4H583.3c19.7,0,35.5-15.9,35.5-35.4V192c0-19.7-10.3-47.6-23.1-62.6h0Zm-192.8,209h48v71.9h-48v-71.9Zm-67.8-135.9h47.7v208h-47.7V202.5Zm-142.4,10.8c36.9-.4,73.4,37.8,73.3,73.5h-73.3v-73.5h0Zm-.5,90c23.6-.1,47.2-.1,70.9,0,1.1,0,2.1,.4,3.9,.7-4.3,31.9-20.5,54.9-49.5,68.2-28.1,12.9-63.7,7.7-86-12.5,18.5-18.5,36.6-36.5,54.8-54.4,1.1-1.3,3.8-2,5.9-2h0Zm-86.4-39.1c11.6-28.9,41.8-51.2,70-51.2,0,25.9,.1,51.2-.1,76.5,0,1.8-1.1,4.4-2.5,5.8-17.6,17.8-35.3,35.4-52.9,53.1-19.8-18.9-26-55.7-14.5-84.2Zm-5.8,217.5h418.4v37.7H100v-37.7h0Zm418.4,191H100.3v-38.1h418.1v38.1Zm.3-81.1H100.3v-37.8h418.3l.1,37.8h0Zm0-181.1h-47.8V246.2h47.8v164.3h0Z"/>
  </g>
</svg>