<?xml version="1.0" encoding="UTF-8"?>
<svg id="Ebene_2" data-name="Ebene 2" xmlns="http://www.w3.org/2000/svg" viewBox="0 0 1201.3 790">
  <defs>
    <style>
      .cls-1, .cls-2, .cls-3 {
        fill: #fff;
      }

      .cls-4 {
        fill: #243c77;
      }

      .cls-2, .cls-5, .cls-3 {
        stroke: #fff;
      }

      .cls-2, .cls-6, .cls-7 {
        stroke-linecap: round;
        stroke-linejoin: round;
      }

      .cls-2, .cls-7 {
        stroke-width: 3px;
      }

      .cls-5, .cls-8, .cls-7 {
        fill: none;
      }

      .cls-5, .cls-3 {
        stroke-miterlimit: 10;
        stroke-width: 2px;
      }

      .cls-3 {
        opacity: .3;
      }

      .cls-6 {
        fill: #ff6b35;
        stroke-width: 6px;
      }

      .cls-6, .cls-7 {
        stroke: #ff6b35;
      }
    </style>
  </defs>
  <g id="Ebene_1-2" data-name="Ebene 1">
    <rect class="cls-4" width="1200" height="790"/>
    <circle class="cls-3" cx="292.85" cy="472.36" r="263.19"/>
    <path class="cls-4" d="M677.28,726.04h-214.85c-.38-84.64-.77-169.28-1.15-253.91,70.45-13.2,140.89-26.41,211.34-39.61,1.55,97.84,3.11,195.68,4.66,293.52Z"/>
    <path class="cls-3" d="M607.14,431.59c47.03-39.64,104.51-81.68,125.29-66.31,17.23,12.74-14.12,58.49-9.19,139.02,2,32.69,6.65,108.64,52.85,128.68,42.37,18.38,94.89-21.02,103.4-27.57,5.5,18.37,17.49,47.79,44.81,70.09,59.91,48.9,153.25,30.65,201.06-2.3,80.11-55.21,104.47-201.35,31.02-344.68,57.34-117.91,32.05-228.44-26.43-259.66-38.06-20.32-85.46-4.5-109.15,5.74-2.25-3.28-53.44-75.16-141.32-68.94-79.88,5.66-120.46,70.92-124.09,76.98-13.16-8.27-70.03-42.23-119.49-20.68-58.15,25.34-65.52,109.75-70.09,162-7.59,86.89,17.79,159.73,41.31,207.63Z"/>
    <rect class="cls-8" width="1200" height="790"/>
    <rect class="cls-8" width="1200" height="790"/>
    <path class="cls-2" d="M373.56,679.15c50.62-5.78,101.02-14.4,152.32-11.72,4.57,.21,10.3,1.94,10.25-6.52-.05-6.89-.21-11.41-9.25-13.09-38.95-7.15-77.69-15.45-116.53-23.07-5.62-1.1-9.46-3.52-12.72-8.25-15.98-22.97-32.32-45.68-48.41-68.54-8.15-11.56-19.13-17.71-33.17-18.03-13.09-.26-26.23-.42-39.32,.05-23.02,.84-38.53,16.35-38.63,39.37-.32,52.46,0,104.91-.26,157.37-.05,6.94,1.94,9.04,8.94,8.99,31.17-.37,62.39-.16,93.56-.16,13.14,0,13.3,0,10.2-12.93-6.04-25.39-12.3-50.72-18.45-76.06,.58-.32,1.16-.63,1.68-.95l24.18,27.54c4.15,4.84,8.51,6.78,15.61,5.99h0Zm-49.2-159c47.04-.47,88.25-35.48,87.99-85.94,1.84-46.52-35.9-88.41-85.62-89.46-47.62-1.05-87.78,37.69-88.78,85.62-1,49.41,37.27,90.25,86.41,89.77Zm373.08,56.61v-147.85c0-13.82-2.52-15.66-15.45-12.93-24.91,5.26-49.93,10.3-74.85,15.61-46.41,9.83-92.77,19.71-139.18,29.64-6.94,1.47-12.4,3.78-12.35,12.88,.05,45.36-.26,90.77-.68,136.19-.05,5.99,1.42,10.14,7.67,9.83,6.31-.32,3.47-5.94,3.47-9.04,.16-23.28,.16-46.57,.16-69.85v-58.82c.32-1,.68-1.89,1.21-2.79l.16-.26,200.57-37.74c3.31,.32,4.68,2.52,4.63,8.36-.37,64.18-.32,128.41-.05,192.58,.05,7.31-2.05,9.67-9.41,9.93-34.69,1.16-69.43,3-104.12,4.42-4.89,.21-8.99-.16-8.99,6.94,0,7.88,5.26,5.94,9.46,5.94,29.07,.05,58.18,.32,87.25-.16,7.99-.16,9.3,3.57,7.73,9.57-1.47,5.47-6.57,2.84-9.99,2.94-70.48,2.05-141.13-4.31-211.45,4.47-22.13,2.79-44.31,5.2-66.54,7.67-5.47,.63-7.94,1.84-6.31,8.57,4.94,20.29,4.57,20.39,25.49,22.39l6.31,.89c28.12,3.15,56.24,8.41,84.47,8.94,69.85,1.31,139.71,.32,209.61,.63,8.67,.05,11.46-2.1,11.35-11.09-.42-49.25-.16-98.55-.16-147.85h0Zm-31.38-135.13c.79-.05,1.47-.05,2.1,0h-2.1Zm-280.62,273.37c-3.94-1.68-11.88,3.05-11.04-6.36,1-10.93,10.14-4.94,15.51-6.52,5.68-1.68,6.94,2,6.94,7.1,0,9.88-7.15,4.52-11.41,5.78Zm62.02,2.68c-3.78-.68-7.73-.11-11.62-.11v-1.1c-4.26,0-8.51-.21-12.72,.05-5.31,.32-8.46-.58-8.46-7.25s1.79-8.88,8.3-8.83c8.46,.11,17.03-.16,25.44-1.1,9.3-.95,6.68,5.36,7.15,10.2,.63,6.15-.95,9.46-8.09,8.15h0Zm43.15-218.45l155.16-29.2m-154.69,47.85l155.64-26.55m-155.06,47.11l156.04-24.09m-156.11,45.37l156.27-22.55"/>
    <path class="cls-1" d="M194.96,320.29c1.48-1.11,3.32-2.08,5.51-2.9,2.19-.82,4.48-1.23,6.86-1.23,1.96,0,3.75,.32,5.39,.95,1.64,.63,3.05,1.51,4.24,2.62s2.11,2.43,2.78,3.97c.66,1.53,.99,3.2,.99,5,0,2.38-.52,4.52-1.55,6.43-1.03,1.9-2.17,3.85-3.41,5.83-1.24,1.98-2.39,4.18-3.45,6.59-1.06,2.41-1.59,5.3-1.59,8.69h-8.25c0-3.6,.5-6.66,1.51-9.2,1-2.54,2.1-4.77,3.29-6.7,1.19-1.93,2.29-3.73,3.29-5.4,1-1.67,1.51-3.42,1.51-5.28,0-2.11-.63-3.6-1.9-4.44-1.27-.85-2.7-1.27-4.28-1.27-1.69,0-3.36,.37-5,1.11-1.64,.74-2.94,1.69-3.89,2.86l-2.06-7.62Zm6.19,45.62c0-1.48,.56-2.76,1.67-3.85,1.11-1.08,2.43-1.63,3.97-1.63s2.88,.54,4.05,1.63c1.16,1.08,1.75,2.39,1.75,3.93s-.6,2.84-1.79,3.93-2.55,1.63-4.09,1.63-2.84-.56-3.93-1.67c-1.08-1.11-1.63-2.43-1.63-3.97Z"/>
    <path class="cls-1" d="M307.86,266.43c1.48-1.11,3.32-2.08,5.51-2.9,2.19-.82,4.48-1.23,6.86-1.23,1.96,0,3.75,.32,5.39,.95,1.64,.63,3.05,1.51,4.24,2.62s2.11,2.43,2.78,3.97c.66,1.53,.99,3.2,.99,5,0,2.38-.52,4.52-1.55,6.43-1.03,1.9-2.17,3.85-3.41,5.83-1.24,1.98-2.39,4.18-3.45,6.59-1.06,2.41-1.59,5.3-1.59,8.69h-8.25c0-3.6,.5-6.66,1.51-9.2,1-2.54,2.1-4.77,3.29-6.7,1.19-1.93,2.29-3.73,3.29-5.4,1-1.67,1.51-3.42,1.51-5.28,0-2.11-.63-3.6-1.9-4.44-1.27-.85-2.7-1.27-4.28-1.27-1.69,0-3.36,.37-5,1.11-1.64,.74-2.94,1.69-3.89,2.86l-2.06-7.62Zm6.19,45.62c0-1.48,.56-2.76,1.67-3.85,1.11-1.08,2.43-1.63,3.97-1.63s2.88,.54,4.05,1.63c1.16,1.08,1.75,2.39,1.75,3.93s-.6,2.84-1.79,3.93-2.55,1.63-4.09,1.63-2.84-.56-3.93-1.67c-1.08-1.11-1.63-2.43-1.63-3.97Z"/>
    <path class="cls-1" d="M248.16,253.01c1.48-1.11,3.32-2.08,5.51-2.9,2.19-.82,4.48-1.23,6.86-1.23,1.96,0,3.75,.32,5.39,.95,1.64,.63,3.05,1.51,4.24,2.62s2.11,2.43,2.78,3.97c.66,1.53,.99,3.2,.99,5,0,2.38-.52,4.52-1.55,6.43-1.03,1.9-2.17,3.85-3.41,5.83-1.24,1.98-2.39,4.18-3.45,6.59-1.06,2.41-1.59,5.3-1.59,8.69h-8.25c0-3.6,.5-6.66,1.51-9.2,1-2.54,2.1-4.77,3.29-6.7,1.19-1.93,2.29-3.73,3.29-5.4,1-1.67,1.51-3.42,1.51-5.28,0-2.11-.63-3.6-1.9-4.44-1.27-.85-2.7-1.27-4.28-1.27-1.69,0-3.36,.37-5,1.11-1.64,.74-2.94,1.69-3.89,2.86l-2.06-7.62Zm6.19,45.62c0-1.48,.56-2.76,1.67-3.85,1.11-1.08,2.43-1.63,3.97-1.63s2.88,.54,4.05,1.63c1.16,1.08,1.75,2.39,1.75,3.93s-.6,2.84-1.79,3.93-2.55,1.63-4.09,1.63-2.84-.56-3.93-1.67c-1.08-1.11-1.63-2.43-1.63-3.97Z"/>
    <polygon class="cls-5" points="1067.2 481.6 983.06 481.6 940.99 554.46 983.06 627.33 1067.2 627.33 1109.26 554.46 1067.2 481.6"/>
    <g>
      <path class="cls-1" d="M1014.27,534.83c-.5-.34-1.09-.62-1.78-.83-.69-.21-1.48-.31-2.37-.31-.84,0-1.56,.13-2.16,.4-.6,.26-1.08,.64-1.46,1.12-.37,.48-.65,1.06-.83,1.74-.18,.68-.27,1.43-.27,2.25,0,1.88,.4,3.31,1.2,4.27,.8,.96,1.96,1.45,3.46,1.45,.93,0,1.79-.14,2.55-.42,.77-.28,1.4-.62,1.9-1.03l.7,2.31c-.62,.37-1.37,.7-2.25,.99-.88,.29-1.87,.43-2.97,.43-1.28,0-2.38-.21-3.31-.63s-1.71-.99-2.32-1.7c-.61-.72-1.07-1.54-1.36-2.49-.3-.94-.44-1.94-.44-3s.16-2.14,.49-3.1c.33-.96,.81-1.81,1.46-2.53,.64-.72,1.45-1.29,2.4-1.71,.96-.42,2.07-.63,3.35-.63,.84,0,1.68,.09,2.52,.27,.84,.18,1.56,.42,2.17,.74l-.68,2.43Z"/>
      <path class="cls-1" d="M1022.15,535.83c.95,0,1.77,.16,2.45,.48,.68,.32,1.25,.75,1.69,1.28,.44,.54,.77,1.15,.98,1.84,.21,.69,.31,1.42,.31,2.18s-.1,1.48-.31,2.16-.54,1.27-.98,1.77c-.44,.5-1,.91-1.68,1.2s-1.47,.44-2.39,.44-1.77-.16-2.45-.47c-.68-.31-1.25-.73-1.7-1.25s-.79-1.12-1-1.81c-.22-.68-.33-1.41-.33-2.17s.11-1.48,.33-2.17c.22-.68,.55-1.29,.99-1.81,.44-.52,1.01-.93,1.69-1.24,.68-.3,1.49-.46,2.4-.46Zm.05,9.43c.45,0,.84-.1,1.18-.29,.33-.19,.61-.46,.83-.79,.22-.33,.38-.72,.48-1.16,.1-.43,.15-.89,.15-1.38s-.05-.98-.16-1.44c-.11-.46-.28-.86-.5-1.21-.23-.35-.51-.63-.85-.84-.34-.21-.75-.31-1.24-.31-.45,0-.84,.1-1.17,.29-.33,.19-.59,.45-.8,.78s-.37,.71-.47,1.14c-.1,.44-.15,.89-.15,1.38s.05,.98,.15,1.43c.1,.46,.26,.87,.49,1.22,.22,.36,.51,.64,.85,.85,.34,.21,.75,.32,1.21,.32Z"/>
      <path class="cls-1" d="M1036.32,538.51c-.16-.12-.4-.23-.72-.3-.33-.08-.61-.12-.84-.12-.31,0-.57,.07-.77,.22s-.38,.34-.54,.58c-.16,.24-.29,.52-.4,.83-.11,.31-.21,.63-.3,.96v6.23h-2.57v-10.73h2.01l.12,2.24h.09c.16-.33,.32-.65,.49-.96s.37-.59,.58-.83c.22-.24,.47-.44,.76-.58,.29-.15,.63-.22,1.01-.22,.62,0,1.21,.2,1.75,.61l-.68,2.08Z"/>
      <path class="cls-1" d="M1043.57,535.83c1.37,0,2.43,.35,3.17,1.04,.75,.69,1.12,1.67,1.12,2.93,0,.17-.01,.35-.04,.55s-.05,.38-.09,.57c-.04,.19-.09,.35-.14,.5s-.11,.27-.17,.36h-6.79c.03,.47,.12,.91,.26,1.32,.14,.41,.34,.77,.61,1.07,.26,.3,.59,.54,.97,.72s.83,.27,1.34,.27c.58,0,1.19-.11,1.83-.33s1.19-.49,1.65-.82l.42,1.91c-.2,.12-.45,.26-.75,.41s-.63,.28-1,.41c-.37,.12-.77,.23-1.2,.32-.43,.08-.88,.13-1.34,.13-.87,0-1.64-.15-2.31-.46s-1.23-.71-1.68-1.24-.79-1.12-1.03-1.81-.35-1.4-.35-2.15,.12-1.49,.36-2.18,.59-1.3,1.06-1.83,1.05-.94,1.74-1.25c.69-.3,1.48-.46,2.37-.46Zm-.07,2.01c-.65,0-1.21,.19-1.67,.57-.46,.38-.79,.9-.99,1.55h4.46s.03-.1,.04-.16c0-.06,.01-.14,.01-.23,0-.5-.17-.91-.51-1.24s-.79-.49-1.33-.49Z"/>
      <path class="cls-1" d="M987.7,563.22c0,.33,.07,.61,.22,.84s.35,.44,.62,.61c.26,.17,.58,.33,.95,.48,.37,.15,.77,.3,1.22,.46,.56,.2,1.12,.43,1.67,.69,.55,.26,1.05,.58,1.49,.96,.44,.38,.8,.85,1.08,1.41,.28,.56,.42,1.24,.42,2.03,0,.84-.15,1.55-.46,2.12-.3,.58-.71,1.04-1.23,1.39-.51,.35-1.1,.6-1.77,.76-.67,.16-1.36,.23-2.08,.23-1.03,0-1.99-.12-2.88-.37-.9-.25-1.66-.55-2.3-.91l.7-2.52c.59,.45,1.25,.83,1.97,1.12,.72,.3,1.55,.44,2.48,.44,1,0,1.72-.17,2.17-.53,.45-.35,.68-.82,.68-1.41,0-.45-.11-.84-.33-1.16-.22-.32-.49-.59-.82-.82-.33-.23-.67-.41-1.04-.55-.37-.14-.69-.26-.97-.35-.5-.16-1-.34-1.52-.56-.51-.22-.99-.5-1.42-.85-.44-.35-.79-.79-1.06-1.32s-.41-1.19-.41-1.98c0-.75,.13-1.38,.38-1.89,.26-.51,.61-.93,1.05-1.25,.44-.32,.96-.55,1.56-.69,.6-.14,1.25-.21,1.95-.21,.86,0,1.68,.08,2.49,.26,.8,.17,1.47,.38,2.02,.63l-.63,2.47c-.28-.19-.58-.35-.91-.49-.33-.14-.66-.26-1.01-.35-.35-.09-.7-.17-1.05-.22s-.68-.08-.99-.08c-.7,0-1.25,.13-1.66,.4s-.61,.67-.61,1.21Z"/>
      <path class="cls-1" d="M1004.47,574.91l-.19-1.47h-.09c-.42,.53-.99,.95-1.72,1.27-.72,.32-1.46,.48-2.21,.48-.98,0-1.75-.28-2.31-.85-.56-.57-.84-1.32-.84-2.25,0-.64,.14-1.21,.41-1.71s.67-.93,1.18-1.28c.51-.35,1.13-.62,1.84-.81,.72-.19,1.52-.28,2.4-.28h1v-.35c0-.61-.2-1.05-.58-1.33-.4-.28-1.03-.42-1.89-.42-1.15,0-2.18,.26-3.08,.77l-.49-1.94c1.04-.61,2.3-.91,3.78-.91,1.56,0,2.74,.32,3.55,.96,.37,.29,.68,.68,.92,1.14,.24,.47,.36,1.03,.36,1.68v7.3h-2.05Zm-3.2-1.8c.5,0,1-.12,1.49-.36s.89-.56,1.19-.97v-2.12h-.44c-1.28,0-2.21,.16-2.79,.49-.58,.33-.88,.85-.88,1.56,0,.93,.47,1.4,1.42,1.4Z"/>
      <path class="cls-1" d="M1010.02,565.74h-1.33v-1.4l1.52-.23,.42-3.17h1.96v3.24h2.05v1.56h-2.05v6.16c0,.47,.05,.78,.14,.94,.09,.16,.27,.25,.54,.25,.2,0,.4-.04,.61-.12s.5-.23,.89-.44l.42,1.84c-.29,.25-.71,.45-1.25,.59-.54,.15-1.07,.22-1.6,.22-.47,0-.85-.06-1.16-.19-.3-.12-.54-.31-.71-.55s-.29-.53-.35-.88c-.06-.34-.09-.72-.09-1.14v-6.7Z"/>
      <path class="cls-1" d="M1022.16,563.83c1.37,0,2.43,.35,3.17,1.04,.75,.69,1.12,1.67,1.12,2.93,0,.17-.01,.35-.04,.55-.02,.2-.05,.38-.09,.57-.04,.19-.09,.35-.14,.5-.05,.15-.11,.27-.17,.36h-6.79c.03,.47,.12,.91,.26,1.32,.14,.41,.34,.77,.61,1.07,.26,.3,.59,.54,.97,.72s.83,.27,1.34,.27c.58,0,1.19-.11,1.83-.33,.65-.22,1.19-.49,1.65-.82l.42,1.91c-.2,.12-.45,.26-.75,.41-.3,.15-.63,.28-1,.41-.37,.12-.77,.23-1.2,.31-.43,.08-.88,.13-1.34,.13-.87,0-1.64-.15-2.31-.45-.67-.3-1.23-.72-1.68-1.24-.45-.52-.79-1.12-1.03-1.81s-.35-1.4-.35-2.15,.12-1.49,.36-2.18,.59-1.3,1.06-1.83c.47-.53,1.05-.94,1.74-1.25,.69-.3,1.48-.46,2.37-.46Zm-.07,2.01c-.65,0-1.21,.19-1.67,.57-.46,.38-.79,.9-.99,1.55h4.46s.03-.1,.04-.16,.01-.14,.01-.23c0-.5-.17-.91-.51-1.24-.34-.33-.79-.49-1.33-.49Z"/>
      <path class="cls-1" d="M1031.77,574.91h-2.57v-17.27h2.57v17.27Z"/>
      <path class="cls-1" d="M1034.75,560.73c0-.22,.04-.43,.13-.63,.08-.2,.21-.38,.36-.55s.33-.29,.53-.38c.19-.09,.41-.14,.64-.14,.22,0,.43,.05,.63,.14,.2,.09,.38,.22,.55,.38s.29,.35,.38,.55c.09,.2,.14,.41,.14,.63,0,.23-.05,.45-.14,.64-.09,.19-.22,.37-.38,.52-.16,.16-.35,.28-.55,.36-.2,.09-.41,.13-.63,.13-.45,0-.84-.16-1.17-.49-.33-.33-.49-.71-.49-1.17Zm2.94,14.19h-2.57v-10.73h2.57v10.73Z"/>
      <path class="cls-1" d="M1041.41,565.74h-1.33v-1.4l1.52-.23,.42-3.17h1.96v3.24h2.05v1.56h-2.05v6.16c0,.47,.05,.78,.14,.94,.09,.16,.27,.25,.54,.25,.2,0,.4-.04,.61-.12s.5-.23,.89-.44l.42,1.84c-.29,.25-.71,.45-1.25,.59-.54,.15-1.07,.22-1.6,.22-.47,0-.85-.06-1.16-.19-.3-.12-.54-.31-.71-.55s-.29-.53-.35-.88c-.06-.34-.09-.72-.09-1.14v-6.7Z"/>
      <path class="cls-1" d="M1049.15,565.74h-1.33v-1.4l1.52-.23,.42-3.17h1.96v3.24h2.05v1.56h-2.05v6.16c0,.47,.05,.78,.14,.94,.09,.16,.27,.25,.54,.25,.2,0,.4-.04,.61-.12s.5-.23,.89-.44l.42,1.84c-.29,.25-.71,.45-1.25,.59-.54,.15-1.07,.22-1.6,.22-.47,0-.85-.06-1.16-.19-.3-.12-.54-.31-.71-.55s-.29-.53-.35-.88c-.06-.34-.09-.72-.09-1.14v-6.7Z"/>
      <path class="cls-1" d="M1061.28,563.83c1.37,0,2.43,.35,3.17,1.04,.75,.69,1.12,1.67,1.12,2.93,0,.17-.01,.35-.04,.55-.02,.2-.05,.38-.09,.57-.04,.19-.09,.35-.14,.5-.05,.15-.11,.27-.17,.36h-6.79c.03,.47,.12,.91,.26,1.32,.14,.41,.34,.77,.61,1.07,.26,.3,.59,.54,.97,.72s.83,.27,1.34,.27c.58,0,1.19-.11,1.83-.33,.65-.22,1.19-.49,1.65-.82l.42,1.91c-.2,.12-.45,.26-.75,.41-.3,.15-.63,.28-1,.41-.37,.12-.77,.23-1.2,.31-.43,.08-.88,.13-1.34,.13-.87,0-1.64-.15-2.31-.45-.67-.3-1.23-.72-1.68-1.24-.45-.52-.79-1.12-1.03-1.81s-.35-1.4-.35-2.15,.12-1.49,.36-2.18,.59-1.3,1.06-1.83c.47-.53,1.05-.94,1.74-1.25,.69-.3,1.48-.46,2.37-.46Zm-.07,2.01c-.65,0-1.21,.19-1.67,.57-.46,.38-.79,.9-.99,1.55h4.46s.03-.1,.04-.16,.01-.14,.01-.23c0-.5-.17-.91-.51-1.24-.34-.33-.79-.49-1.33-.49Z"/>
    </g>
    <g>
      <polygon class="cls-5" points="924.16 55.09 840.02 55.09 797.95 127.96 840.02 200.82 924.16 200.82 966.23 127.96 924.16 55.09"/>
      <g>
        <path class="cls-1" d="M874.13,92.64c0,.62-.13,1.18-.39,1.68-.26,.5-.66,.93-1.2,1.29,.93,.31,1.66,.79,2.19,1.46,.53,.66,.79,1.5,.79,2.52,0,.65-.12,1.26-.35,1.83s-.59,1.07-1.07,1.5c-.48,.43-1.08,.78-1.8,1.03-.72,.25-1.56,.38-2.52,.38h-2.5c-.81,0-1.49-.07-2.03-.2v-15.41c.17-.05,.41-.07,.72-.07h3.03c1.65,0,2.91,.34,3.79,1.01,.88,.67,1.32,1.66,1.32,2.98Zm-4.67-1.84c-.31,0-.59,.01-.83,.03-.24,.02-.47,.05-.69,.08v3.99c.19,.02,.38,.02,.57,.02h.59c.68,0,1.22-.23,1.61-.69s.58-1.06,.58-1.81c0-.47-.16-.85-.48-1.17-.32-.31-.77-.47-1.36-.47Zm.21,6.09h-1.73v5.23c.28,.03,.57,.05,.86,.05h.91c.95,0,1.69-.23,2.22-.7,.53-.46,.79-1.14,.79-2.02,0-.79-.24-1.41-.72-1.87-.48-.46-1.26-.69-2.33-.69Z"/>
        <path class="cls-1" d="M880.47,93.39v6.98c0,.64,.17,1.12,.5,1.46,.33,.33,.77,.5,1.29,.5s1.04-.18,1.49-.55c.45-.37,.79-.89,1-1.58v-6.81h2.59v10.73h-2.01l-.14-1.49h-.09c-.17,.36-.39,.65-.65,.88-.26,.23-.56,.4-.88,.54-.32,.13-.65,.23-.99,.28-.34,.05-.68,.08-1,.08-.51,0-.99-.06-1.44-.19-.44-.12-.83-.33-1.17-.62-.33-.29-.6-.67-.79-1.14-.19-.47-.29-1.06-.29-1.76v-7.3h2.57Z"/>
        <path class="cls-1" d="M895.22,101.02l2.99-7.63h2.47l-4.43,10.83c-.22,.54-.52,1.15-.9,1.83-.38,.68-.83,1.31-1.35,1.91s-1.11,1.1-1.76,1.52-1.36,.62-2.12,.62c-.12,0-.22,0-.28-.01-.06,0-.13-.03-.21-.06l-.44-2.01s.1,.03,.16,.05c.06,.02,.19,.02,.4,.02,.3,0,.59-.03,.88-.09,.29-.06,.58-.19,.88-.37,.56-.36,1.05-.86,1.46-1.49s.81-1.42,1.2-2.36l-5.34-10.38h2.68l3.73,7.63Z"/>
        <path class="cls-1" d="M889.25,121.81v1.8l-3.36,.26c.5,.87,.75,1.8,.75,2.78,0,.76-.16,1.5-.47,2.22l3.17,3.27h-2.89l-1.47-1.52c-.54,.54-1.21,.98-2.01,1.31-.79,.33-1.7,.49-2.73,.49-.87,0-1.64-.12-2.31-.36-.67-.24-1.23-.57-1.68-.98s-.79-.88-1.02-1.41-.34-1.07-.34-1.63c0-.42,.07-.85,.2-1.29,.13-.44,.33-.87,.58-1.27,.26-.4,.58-.78,.98-1.12,.4-.34,.85-.62,1.37-.84-.45-.53-.8-1.06-1.05-1.59-.25-.53-.37-1.14-.37-1.82,0-.58,.09-1.08,.27-1.5s.43-.79,.75-1.08,.69-.52,1.11-.67c.42-.15,.86-.22,1.33-.22,.53,0,1.08,.09,1.67,.27,.58,.18,1.14,.43,1.67,.76l-.65,2.24c-.14-.12-.31-.25-.51-.39-.2-.13-.42-.25-.64-.35-.23-.1-.45-.19-.69-.26s-.45-.1-.65-.1c-.37,0-.69,.13-.94,.38-.26,.25-.39,.63-.39,1.13s.14,.95,.42,1.35c.28,.4,.62,.81,1.03,1.23l4.01,4.16c.02-.08,.03-.16,.03-.26s.01-.19,.01-.28c0-.36-.06-.74-.17-1.15s-.32-.83-.62-1.25h-1.14v-1.41l6.77-.86Zm-8.8,8.35c.62,0,1.18-.1,1.68-.31,.5-.21,.92-.49,1.26-.85l-3.97-4.04c-.3,.08-.56,.21-.78,.4-.23,.19-.42,.4-.57,.64-.16,.24-.27,.51-.35,.8-.08,.3-.12,.59-.12,.89,0,.84,.27,1.46,.81,1.87,.54,.4,1.22,.61,2.04,.61Z"/>
        <path class="cls-1" d="M872.26,160.12h-2.68v-6.77h-7.37v6.77h-2.68v-15.4h2.68v6.3h7.37v-6.3h2.68v15.4Z"/>
        <path class="cls-1" d="M880.43,149.04c.95,0,1.77,.16,2.45,.48,.68,.32,1.25,.75,1.69,1.28,.44,.54,.77,1.15,.98,1.84,.21,.69,.31,1.42,.31,2.18s-.1,1.48-.31,2.16-.54,1.27-.98,1.77-1,.91-1.68,1.2c-.68,.29-1.47,.44-2.39,.44s-1.77-.16-2.45-.47c-.68-.31-1.25-.73-1.7-1.25-.45-.52-.79-1.12-1-1.81-.22-.68-.33-1.41-.33-2.17s.11-1.48,.33-2.17c.22-.68,.55-1.29,.99-1.81,.44-.52,1.01-.93,1.69-1.24,.68-.3,1.49-.46,2.4-.46Zm.05,9.43c.45,0,.84-.1,1.18-.29,.33-.19,.61-.46,.83-.79,.22-.33,.38-.72,.48-1.15,.1-.44,.15-.89,.15-1.38s-.05-.98-.16-1.44c-.11-.46-.28-.86-.5-1.21-.23-.35-.51-.63-.85-.84-.34-.21-.75-.31-1.24-.31-.45,0-.84,.1-1.17,.29s-.59,.45-.8,.78-.37,.71-.47,1.14c-.1,.44-.15,.89-.15,1.38s.05,.98,.15,1.44c.1,.46,.26,.87,.49,1.22,.23,.36,.51,.64,.85,.85,.34,.21,.75,.31,1.21,.31Z"/>
        <path class="cls-1" d="M891.16,160.12h-2.57v-17.27h2.57v17.27Z"/>
        <path class="cls-1" d="M898.79,160.4c-.73,0-1.4-.15-2.01-.44-.61-.3-1.12-.7-1.55-1.21s-.76-1.12-.99-1.82c-.23-.7-.35-1.46-.35-2.29,0-.73,.1-1.44,.29-2.11,.19-.68,.49-1.27,.9-1.78,.4-.51,.91-.93,1.5-1.24,.6-.31,1.31-.47,2.13-.47,.75,0,1.42,.12,2.01,.37,.59,.25,1.07,.6,1.42,1.05v-7.61h2.54v17.27h-2.05l-.19-1.47h-.09c-.44,.48-.93,.89-1.48,1.24-.55,.34-1.25,.51-2.09,.51Zm.33-1.94c.25,0,.51-.03,.79-.1,.28-.07,.56-.17,.83-.29s.53-.28,.78-.46c.25-.18,.46-.38,.63-.62v-4.48c-.47-.58-.94-.97-1.42-1.18-.48-.21-.95-.32-1.4-.32-.5,0-.93,.1-1.28,.29s-.66,.46-.9,.8c-.24,.34-.42,.73-.54,1.18s-.18,.91-.18,1.39,.05,.93,.16,1.39c.11,.46,.27,.86,.49,1.21,.22,.35,.5,.63,.84,.85,.34,.22,.74,.33,1.19,.33Z"/>
      </g>
    </g>
    <polygon class="cls-5" points="1075.5 149.06 991.37 149.06 949.3 221.92 991.37 294.78 1075.5 294.78 1117.57 221.92 1075.5 149.06"/>
    <g>
      <path class="cls-1" d="M1006.06,214.37c-.02-.14-.02-.29-.02-.46v-.46c0-.92,.18-1.92,.55-3.02,.37-1.1,.84-2.19,1.41-3.29,.58-1.1,1.21-2.15,1.9-3.17,.69-1.02,1.37-1.91,2.02-2.67h-6.79v-2.45h9.45v2.45c-.67,.73-1.34,1.62-2.01,2.67-.67,1.05-1.27,2.14-1.8,3.28-.53,1.14-.96,2.25-1.28,3.34-.33,1.09-.49,2.04-.49,2.85v.49c0,.16,0,.3,.02,.44h-2.96Z"/>
      <path class="cls-1" d="M1022.34,198.85c1,0,1.88,.21,2.65,.64,.77,.43,1.42,1,1.95,1.71,.53,.72,.93,1.54,1.2,2.48,.27,.94,.41,1.93,.41,2.97s-.14,2.04-.42,3c-.28,.96-.69,1.8-1.23,2.54-.54,.74-1.2,1.33-1.99,1.77-.79,.44-1.7,.66-2.73,.66s-1.89-.21-2.65-.63c-.75-.42-1.38-.99-1.88-1.7-.5-.72-.88-1.54-1.13-2.48-.26-.94-.39-1.93-.39-2.97,0-1.1,.14-2.14,.42-3.11,.28-.97,.68-1.82,1.21-2.54,.53-.72,1.18-1.29,1.95-1.71,.77-.42,1.64-.63,2.62-.63Zm-.07,13.56c.59,0,1.1-.14,1.53-.43,.43-.29,.78-.69,1.06-1.2,.28-.51,.49-1.12,.63-1.82,.14-.7,.21-1.45,.21-2.26s-.07-1.58-.21-2.26c-.14-.68-.35-1.27-.64-1.77-.29-.5-.65-.88-1.08-1.16-.44-.27-.94-.41-1.52-.41s-1.07,.14-1.48,.41c-.41,.27-.75,.65-1,1.14-.26,.49-.45,1.08-.57,1.77-.12,.69-.19,1.45-.19,2.27,0,1.88,.28,3.31,.85,4.27,.57,.96,1.37,1.45,2.42,1.45Z"/>
      <path class="cls-1" d="M1037.08,200.09c.59-.36,1.27-.65,2.04-.89s1.54-.35,2.3-.35c.65,0,1.25,.09,1.8,.28,.54,.19,1.01,.45,1.41,.78,.4,.33,.7,.73,.92,1.2s.33,.98,.33,1.54c0,.82-.21,1.5-.63,2.02-.42,.52-.95,.96-1.59,1.32,.93,.31,1.66,.78,2.18,1.4,.52,.62,.78,1.44,.78,2.45,0,.65-.12,1.27-.35,1.85-.23,.58-.59,1.09-1.07,1.53-.48,.44-1.08,.78-1.8,1.04s-1.55,.38-2.5,.38c-1.93,0-3.52-.53-4.76-1.59l.65-2.12c.54,.45,1.15,.81,1.82,1.07,.67,.26,1.38,.4,2.15,.4,.98,0,1.72-.23,2.23-.69,.5-.46,.76-1.13,.76-2.02,0-.79-.23-1.42-.69-1.88-.46-.46-1.23-.69-2.3-.69h-.63v-2.03h.72c.68,0,1.21-.22,1.59-.65,.37-.44,.56-1.01,.56-1.73,0-.64-.19-1.08-.58-1.34-.39-.26-.86-.38-1.4-.38-.3,0-.6,.03-.92,.09-.32,.06-.63,.15-.92,.27-.3,.12-.57,.25-.83,.4-.26,.15-.48,.31-.67,.48l-.61-2.15Z"/>
      <path class="cls-1" d="M1055.21,198.85c1,0,1.88,.21,2.65,.64,.77,.43,1.42,1,1.95,1.71,.53,.72,.93,1.54,1.2,2.48,.27,.94,.41,1.93,.41,2.97s-.14,2.04-.42,3c-.28,.96-.69,1.8-1.23,2.54-.54,.74-1.2,1.33-1.99,1.77-.79,.44-1.7,.66-2.73,.66s-1.89-.21-2.65-.63c-.75-.42-1.38-.99-1.88-1.7-.5-.72-.88-1.54-1.13-2.48-.26-.94-.39-1.93-.39-2.97,0-1.1,.14-2.14,.42-3.11,.28-.97,.68-1.82,1.21-2.54,.53-.72,1.18-1.29,1.95-1.71,.77-.42,1.64-.63,2.62-.63Zm-.07,13.56c.59,0,1.1-.14,1.53-.43,.43-.29,.78-.69,1.06-1.2,.28-.51,.49-1.12,.63-1.82,.14-.7,.21-1.45,.21-2.26s-.07-1.58-.21-2.26c-.14-.68-.35-1.27-.64-1.77-.29-.5-.65-.88-1.08-1.16-.44-.27-.94-.41-1.52-.41s-1.07,.14-1.48,.41c-.41,.27-.75,.65-1,1.14-.26,.49-.45,1.08-.57,1.77-.12,.69-.19,1.45-.19,2.27,0,1.88,.28,3.31,.85,4.27,.57,.96,1.37,1.45,2.42,1.45Z"/>
      <path class="cls-1" d="M996.79,236.56h-1.52v5.8h-2.68v-15.46h3.71c.87,0,1.66,.1,2.38,.31,.71,.21,1.33,.52,1.84,.94,.51,.42,.91,.93,1.19,1.54s.42,1.32,.42,2.12c0,.65-.11,1.26-.33,1.83-.22,.57-.54,1.07-.98,1.51-.44,.43-.99,.78-1.67,1.03-.68,.25-1.47,.38-2.37,.38Zm-.12-7.47h-.72c-.23,0-.46,.03-.68,.08v5.12c.22,.02,.45,.02,.69,.02h.76c.84,0,1.47-.23,1.9-.7s.64-1.14,.64-2.02c0-.74-.19-1.35-.57-1.81-.38-.46-1.05-.7-2.02-.7Z"/>
      <path class="cls-1" d="M1008.88,231.29c.95,0,1.77,.16,2.45,.48,.68,.32,1.25,.75,1.69,1.28,.44,.54,.77,1.15,.98,1.84,.21,.69,.31,1.42,.31,2.18s-.1,1.48-.31,2.16-.54,1.27-.98,1.77-1,.91-1.68,1.2c-.68,.29-1.47,.44-2.39,.44s-1.77-.16-2.45-.47-1.25-.73-1.7-1.25c-.45-.52-.79-1.12-1-1.81-.22-.68-.33-1.41-.33-2.17s.11-1.48,.33-2.17c.22-.68,.55-1.29,.99-1.81,.44-.52,1.01-.93,1.69-1.24,.68-.3,1.49-.46,2.4-.46Zm.05,9.43c.45,0,.84-.1,1.18-.29,.33-.19,.61-.46,.83-.79,.22-.33,.38-.72,.48-1.15,.1-.44,.15-.89,.15-1.38s-.05-.98-.16-1.44c-.11-.46-.28-.86-.5-1.21-.23-.35-.51-.63-.85-.84-.34-.21-.75-.31-1.24-.31-.45,0-.84,.1-1.17,.29-.33,.19-.59,.45-.8,.78s-.37,.71-.47,1.14c-.1,.44-.15,.89-.15,1.38s.05,.98,.15,1.44c.1,.46,.26,.87,.49,1.22,.22,.36,.51,.64,.85,.85,.34,.21,.75,.31,1.21,.31Z"/>
      <path class="cls-1" d="M1023.04,233.97c-.16-.12-.4-.23-.72-.3-.33-.08-.61-.12-.84-.12-.31,0-.57,.07-.77,.22s-.38,.34-.54,.58c-.16,.24-.29,.52-.4,.83s-.21,.63-.3,.96v6.23h-2.57v-10.73h2.01l.12,2.24h.09c.16-.33,.32-.65,.49-.96s.37-.59,.58-.83c.22-.24,.47-.44,.76-.58,.29-.15,.63-.22,1.01-.22,.62,0,1.21,.2,1.75,.61l-.68,2.08Z"/>
      <path class="cls-1" d="M1026.12,233.2h-1.33v-1.4l1.52-.23,.42-3.17h1.96v3.24h2.05v1.56h-2.05v6.16c0,.47,.05,.78,.14,.94,.09,.16,.27,.25,.54,.25,.2,0,.4-.04,.61-.12,.2-.08,.5-.23,.89-.44l.42,1.84c-.29,.25-.71,.45-1.25,.59-.54,.15-1.07,.22-1.6,.22-.47,0-.85-.06-1.16-.19-.3-.12-.54-.31-.71-.55-.17-.24-.29-.53-.35-.88-.06-.34-.09-.72-.09-1.14v-6.7Z"/>
      <path class="cls-1" d="M1033.89,233.2h-1.33v-1.33l1.33-.21c0-.89,.03-1.64,.08-2.26,.05-.62,.13-1.15,.22-1.57,.09-.43,.2-.77,.31-1.04,.12-.26,.24-.48,.36-.65,.31-.4,.72-.7,1.22-.88,.5-.18,1.06-.27,1.67-.27h.37c.17,0,.36,.02,.57,.05s.43,.09,.65,.16c.22,.07,.43,.17,.62,.28l-.58,1.98c-.16-.09-.41-.22-.77-.38-.36-.16-.71-.25-1.05-.25-.2,0-.37,.05-.51,.14-.14,.09-.26,.26-.35,.51-.09,.25-.16,.58-.2,1s-.06,.96-.06,1.61v1.54h2.05v1.56h-2.05v9.17h-2.57v-9.17Z"/>
      <path class="cls-1" d="M1045.25,231.29c.95,0,1.77,.16,2.45,.48,.68,.32,1.25,.75,1.69,1.28,.44,.54,.77,1.15,.98,1.84,.21,.69,.31,1.42,.31,2.18s-.1,1.48-.31,2.16-.54,1.27-.98,1.77-1,.91-1.68,1.2c-.68,.29-1.47,.44-2.39,.44s-1.77-.16-2.45-.47-1.25-.73-1.7-1.25c-.45-.52-.79-1.12-1-1.81-.22-.68-.33-1.41-.33-2.17s.11-1.48,.33-2.17c.22-.68,.55-1.29,.99-1.81,.44-.52,1.01-.93,1.69-1.24,.68-.3,1.49-.46,2.4-.46Zm.05,9.43c.45,0,.84-.1,1.18-.29,.33-.19,.61-.46,.83-.79,.22-.33,.38-.72,.48-1.15,.1-.44,.15-.89,.15-1.38s-.05-.98-.16-1.44c-.11-.46-.28-.86-.5-1.21-.23-.35-.51-.63-.85-.84-.34-.21-.75-.31-1.24-.31-.45,0-.84,.1-1.17,.29-.33,.19-.59,.45-.8,.78s-.37,.71-.47,1.14c-.1,.44-.15,.89-.15,1.38s.05,.98,.15,1.44c.1,.46,.26,.87,.49,1.22,.22,.36,.51,.64,.85,.85,.34,.21,.75,.31,1.21,.31Z"/>
      <path class="cls-1" d="M1055.98,242.37h-2.57v-17.27h2.57v17.27Z"/>
      <path class="cls-1" d="M1058.97,228.18c0-.22,.04-.43,.13-.63,.08-.2,.21-.38,.36-.55,.16-.16,.33-.29,.53-.39,.19-.09,.41-.14,.64-.14,.22,0,.43,.05,.63,.14,.2,.09,.38,.22,.55,.39,.16,.16,.29,.35,.38,.55,.09,.2,.14,.41,.14,.63,0,.23-.05,.45-.14,.64-.09,.19-.22,.37-.38,.52-.16,.16-.35,.28-.55,.36-.2,.09-.41,.13-.63,.13-.45,0-.84-.16-1.17-.49s-.49-.72-.49-1.17Zm2.94,14.19h-2.57v-10.73h2.57v10.73Z"/>
      <path class="cls-1" d="M1069.91,231.29c.95,0,1.77,.16,2.45,.48,.68,.32,1.25,.75,1.69,1.28,.44,.54,.77,1.15,.98,1.84,.21,.69,.31,1.42,.31,2.18s-.1,1.48-.31,2.16-.54,1.27-.98,1.77-1,.91-1.68,1.2c-.68,.29-1.47,.44-2.39,.44s-1.77-.16-2.45-.47-1.25-.73-1.7-1.25c-.45-.52-.79-1.12-1-1.81-.22-.68-.33-1.41-.33-2.17s.11-1.48,.33-2.17c.22-.68,.55-1.29,.99-1.81,.44-.52,1.01-.93,1.69-1.24,.68-.3,1.49-.46,2.4-.46Zm.05,9.43c.45,0,.84-.1,1.18-.29,.33-.19,.61-.46,.83-.79,.22-.33,.38-.72,.48-1.15,.1-.44,.15-.89,.15-1.38s-.05-.98-.16-1.44c-.11-.46-.28-.86-.5-1.21-.23-.35-.51-.63-.85-.84-.34-.21-.75-.31-1.24-.31-.45,0-.84,.1-1.17,.29-.33,.19-.59,.45-.8,.78s-.37,.71-.47,1.14c-.1,.44-.15,.89-.15,1.38s.05,.98,.15,1.44c.1,.46,.26,.87,.49,1.22,.22,.36,.51,.64,.85,.85,.34,.21,.75,.31,1.21,.31Z"/>
    </g>
    <polygon class="cls-5" points="1075.5 314.18 991.37 314.18 949.3 387.04 991.37 459.91 1075.5 459.91 1117.57 387.04 1075.5 314.18"/>
    <g>
      <path class="cls-1" d="M992.29,383.69h-4.46v13.07h-2.68v-13.07h-4.46v-2.33h11.6v2.33Z"/>
      <path class="cls-1" d="M998.68,388.36c-.16-.12-.4-.23-.72-.3-.33-.08-.61-.12-.84-.12-.31,0-.57,.07-.77,.22s-.38,.34-.54,.58c-.16,.24-.29,.52-.4,.83-.11,.31-.21,.63-.3,.96v6.23h-2.57v-10.73h2.01l.12,2.24h.09c.16-.33,.32-.65,.49-.96s.37-.59,.58-.83c.22-.24,.47-.44,.76-.58s.63-.22,1.01-.22c.62,0,1.21,.2,1.75,.61l-.68,2.08Z"/>
      <path class="cls-1" d="M1005.94,385.67c1.37,0,2.43,.35,3.17,1.04,.75,.69,1.12,1.67,1.12,2.93,0,.17-.01,.35-.04,.55-.02,.19-.05,.38-.09,.57-.04,.19-.09,.35-.14,.5-.05,.15-.11,.27-.18,.36h-6.79c.03,.47,.12,.91,.26,1.32,.14,.41,.34,.77,.61,1.07,.26,.3,.59,.54,.97,.72s.83,.27,1.34,.27c.57,0,1.19-.11,1.83-.33,.65-.22,1.2-.49,1.65-.82l.42,1.91c-.2,.12-.45,.26-.75,.41-.29,.15-.63,.28-1,.41s-.78,.23-1.2,.31c-.43,.08-.88,.13-1.34,.13-.87,0-1.64-.15-2.31-.45-.67-.3-1.23-.72-1.68-1.24-.45-.52-.79-1.12-1.03-1.81s-.35-1.4-.35-2.15,.12-1.49,.36-2.18c.24-.69,.59-1.3,1.06-1.83,.47-.53,1.04-.94,1.74-1.25,.69-.3,1.48-.46,2.37-.46Zm-.07,2.01c-.65,0-1.21,.19-1.67,.57-.46,.38-.79,.9-.99,1.55h4.46s.03-.1,.04-.16c0-.06,.01-.14,.01-.23,0-.5-.17-.91-.51-1.24s-.79-.49-1.33-.49Z"/>
      <path class="cls-1" d="M1020.03,396.76v-7.09c0-1.28-.54-1.91-1.63-1.91-.26,0-.55,.05-.85,.14-.3,.09-.6,.23-.88,.41-.28,.18-.53,.4-.76,.67-.23,.26-.39,.57-.5,.91v6.88h-2.57v-10.73h2.01l.12,1.59h.09c.33-.65,.84-1.14,1.53-1.46,.69-.32,1.43-.48,2.23-.48,.51,0,1,.07,1.45,.2,.45,.13,.85,.35,1.2,.64,.35,.3,.63,.68,.83,1.17,.2,.48,.3,1.07,.3,1.77v7.3h-2.57Z"/>
      <path class="cls-1" d="M1029.88,397.04c-.73,0-1.4-.15-2.01-.44-.61-.3-1.12-.7-1.55-1.21s-.76-1.12-.99-1.82c-.23-.7-.35-1.46-.35-2.29,0-.73,.1-1.44,.29-2.11,.19-.68,.49-1.27,.9-1.78s.91-.93,1.5-1.24,1.31-.47,2.13-.47c.75,0,1.42,.12,2.01,.37,.59,.25,1.07,.6,1.42,1.05v-7.61h2.54v17.27h-2.05l-.19-1.47h-.09c-.44,.48-.93,.89-1.48,1.24-.55,.34-1.25,.51-2.09,.51Zm.33-1.94c.25,0,.51-.03,.79-.1,.28-.07,.56-.17,.83-.29,.27-.12,.53-.28,.78-.46,.25-.18,.46-.38,.63-.62v-4.48c-.47-.58-.94-.97-1.42-1.18-.48-.21-.95-.32-1.4-.32-.5,0-.93,.1-1.28,.29s-.66,.46-.9,.8c-.24,.34-.42,.73-.54,1.18-.12,.44-.17,.91-.17,1.39s.05,.93,.16,1.39c.11,.46,.27,.86,.49,1.21,.22,.35,.5,.63,.84,.85,.34,.22,.74,.33,1.19,.33Z"/>
      <path class="cls-1" d="M1039.51,387.59h-1.33v-1.33l1.33-.21c0-.89,.03-1.64,.08-2.26,.05-.62,.13-1.15,.22-1.57,.09-.43,.2-.77,.31-1.04,.12-.26,.24-.48,.36-.65,.31-.4,.72-.7,1.22-.88,.5-.18,1.06-.27,1.67-.27h.37c.17,0,.36,.02,.57,.05s.43,.09,.65,.16c.22,.07,.43,.17,.62,.28l-.58,1.98c-.16-.09-.41-.22-.77-.38-.36-.16-.71-.25-1.05-.25-.2,0-.37,.05-.51,.14-.14,.09-.26,.26-.35,.51-.09,.25-.16,.58-.2,1s-.06,.96-.06,1.61v1.54h2.05v1.56h-2.05v9.17h-2.57v-9.17Z"/>
      <path class="cls-1" d="M1050.88,385.67c.95,0,1.77,.16,2.45,.48,.68,.32,1.25,.75,1.69,1.28,.44,.54,.77,1.15,.98,1.84,.21,.69,.31,1.42,.31,2.18s-.1,1.48-.31,2.16-.54,1.27-.98,1.77-1,.91-1.68,1.2c-.68,.29-1.47,.44-2.39,.44s-1.77-.16-2.45-.47-1.25-.73-1.7-1.25c-.45-.52-.79-1.12-1-1.81-.22-.68-.33-1.41-.33-2.17s.11-1.48,.33-2.17c.22-.68,.55-1.29,.99-1.81,.44-.52,1.01-.93,1.69-1.24,.68-.3,1.49-.46,2.4-.46Zm.05,9.43c.45,0,.84-.1,1.18-.29,.33-.19,.61-.46,.83-.79,.22-.33,.38-.72,.48-1.15,.1-.44,.15-.89,.15-1.38s-.05-.98-.16-1.44c-.11-.46-.28-.86-.5-1.21-.23-.35-.51-.63-.85-.84-.34-.21-.75-.31-1.24-.31-.45,0-.84,.1-1.17,.29-.33,.19-.59,.45-.8,.78s-.37,.71-.47,1.14c-.1,.44-.15,.89-.15,1.38s.05,.98,.15,1.44c.1,.46,.26,.87,.49,1.22,.22,.36,.51,.64,.85,.85,.34,.21,.75,.31,1.21,.31Z"/>
      <path class="cls-1" d="M1061.61,396.76h-2.57v-17.27h2.57v17.27Z"/>
      <path class="cls-1" d="M1066.39,393.37c-.7-.29-1.21-.75-1.52-1.38-.31-.62-.47-1.3-.47-2.03,0-.61,.1-1.17,.3-1.7s.49-.98,.88-1.37c.38-.38,.84-.68,1.38-.9,.54-.22,1.15-.33,1.83-.33,.4,0,.8,.04,1.2,.11,.4,.08,.74,.19,1.04,.34,.65,0,1.25-.04,1.79-.13,.54-.09,1.05-.2,1.55-.35l.21,.16-.26,1.77-.12,.12-1.66-.19-.02,.07c.53,.67,.79,1.45,.79,2.36,0,.54-.1,1.05-.29,1.53-.19,.47-.48,.89-.85,1.24-.37,.35-.84,.63-1.39,.84-.55,.21-1.18,.31-1.88,.31-.17,0-.31,0-.41-.01s-.2-.01-.29-.01c-.26,.09-.47,.21-.61,.36-.14,.15-.21,.3-.21,.45,0,.17,.09,.32,.26,.44,.17,.12,.44,.21,.79,.26l2.26,.28c.51,.06,.99,.17,1.43,.33,.44,.16,.83,.37,1.17,.63,.33,.26,.59,.58,.78,.96,.19,.37,.28,.8,.28,1.28s-.1,.95-.3,1.4c-.2,.45-.52,.85-.96,1.19-.44,.34-.98,.61-1.65,.82s-1.46,.3-2.39,.3c-.82,0-1.55-.08-2.18-.24-.63-.16-1.16-.39-1.6-.67-.44-.28-.77-.61-.99-.99-.23-.38-.34-.79-.34-1.23,0-.31,.05-.62,.16-.92,.11-.3,.26-.58,.46-.84,.19-.26,.42-.49,.68-.69s.53-.35,.83-.44v-.09c-.36-.16-.61-.37-.75-.63-.14-.26-.21-.52-.21-.77,0-.33,.11-.63,.33-.91,.22-.28,.53-.5,.93-.65v-.09Zm1.77,3.9c-.53,.09-.98,.31-1.35,.67s-.56,.75-.56,1.2c0,.5,.24,.87,.73,1.12,.49,.25,1.2,.37,2.13,.37s1.65-.13,2.19-.38c.54-.26,.82-.67,.82-1.25s-.3-.96-.91-1.19c-.61-.23-1.63-.41-3.06-.54Zm.72-5.2c.64,0,1.12-.21,1.45-.62,.33-.41,.49-.91,.49-1.5,0-.28-.04-.56-.12-.85-.08-.29-.2-.55-.37-.78-.17-.23-.39-.42-.64-.57-.26-.15-.56-.22-.9-.22s-.62,.07-.86,.2c-.25,.13-.46,.31-.62,.52-.16,.22-.28,.46-.36,.73-.08,.27-.12,.55-.12,.83s.04,.56,.13,.83c.09,.27,.21,.51,.38,.72,.17,.21,.39,.38,.64,.51,.26,.13,.56,.2,.9,.2Z"/>
      <path class="cls-1" d="M1081.37,385.67c1.37,0,2.43,.35,3.17,1.04,.75,.69,1.12,1.67,1.12,2.93,0,.17-.01,.35-.04,.55-.02,.19-.05,.38-.09,.57-.04,.19-.09,.35-.14,.5-.05,.15-.11,.27-.17,.36h-6.79c.03,.47,.12,.91,.26,1.32,.14,.41,.34,.77,.61,1.07,.26,.3,.59,.54,.97,.72s.83,.27,1.34,.27c.58,0,1.19-.11,1.83-.33,.65-.22,1.19-.49,1.65-.82l.42,1.91c-.2,.12-.45,.26-.75,.41-.3,.15-.63,.28-1,.41s-.77,.23-1.2,.31c-.43,.08-.88,.13-1.34,.13-.87,0-1.64-.15-2.31-.45-.67-.3-1.23-.72-1.68-1.24-.45-.52-.79-1.12-1.03-1.81s-.35-1.4-.35-2.15,.12-1.49,.36-2.18c.24-.69,.59-1.3,1.06-1.83s1.05-.94,1.74-1.25c.69-.3,1.48-.46,2.37-.46Zm-.07,2.01c-.65,0-1.21,.19-1.67,.57-.46,.38-.79,.9-.99,1.55h4.46s.03-.1,.04-.16c0-.06,.01-.14,.01-.23,0-.5-.17-.91-.51-1.24s-.79-.49-1.33-.49Z"/>
    </g>
    <polygon class="cls-5" points="924.16 228.87 840.02 228.87 797.95 301.73 840.02 374.6 924.16 374.6 966.23 301.73 924.16 228.87"/>
    <g>
      <path class="cls-1" d="M861.5,300.73h-4.41v7h-2.68v-15.4h8.8v2.33h-6.11v3.73h4.41v2.33Z"/>
      <path class="cls-1" d="M869.15,296.65c.95,0,1.77,.16,2.45,.48,.68,.32,1.25,.75,1.69,1.28,.44,.54,.77,1.15,.98,1.84,.21,.69,.31,1.42,.31,2.18s-.1,1.48-.31,2.16-.54,1.27-.98,1.77-1,.91-1.68,1.2c-.68,.29-1.47,.44-2.39,.44s-1.77-.16-2.45-.47c-.68-.31-1.25-.73-1.7-1.25-.45-.52-.79-1.12-1-1.81-.22-.68-.33-1.41-.33-2.17s.11-1.48,.33-2.17c.22-.68,.55-1.29,.99-1.81,.44-.52,1.01-.93,1.69-1.24,.68-.3,1.49-.46,2.4-.46Zm.05,9.43c.45,0,.84-.1,1.18-.29,.33-.19,.61-.46,.83-.79,.22-.33,.38-.72,.48-1.15,.1-.44,.15-.89,.15-1.38s-.05-.98-.16-1.44c-.11-.46-.28-.86-.5-1.21-.23-.35-.51-.63-.85-.84-.34-.21-.75-.31-1.24-.31-.45,0-.84,.1-1.17,.29s-.59,.45-.8,.78-.37,.71-.47,1.14c-.1,.44-.15,.89-.15,1.38s.05,.98,.15,1.44c.1,.46,.26,.87,.49,1.22,.23,.36,.51,.64,.85,.85,.34,.21,.75,.31,1.21,.31Z"/>
      <path class="cls-1" d="M884.37,307.73v-7.09c0-1.28-.54-1.91-1.63-1.91-.27,0-.55,.05-.85,.14-.3,.09-.59,.23-.87,.41-.28,.18-.53,.4-.76,.67-.23,.26-.39,.57-.5,.91v6.88h-2.57v-10.73h2.01l.12,1.59h.09c.33-.65,.84-1.14,1.53-1.46,.69-.32,1.44-.48,2.23-.48,.51,0,1,.07,1.45,.2,.45,.13,.85,.35,1.2,.64,.35,.3,.63,.68,.83,1.17,.2,.48,.3,1.07,.3,1.77v7.3h-2.57Z"/>
      <path class="cls-1" d="M894.21,308.01c-.73,0-1.4-.15-2.01-.44-.61-.3-1.12-.7-1.55-1.21s-.76-1.12-.99-1.82c-.23-.7-.35-1.46-.35-2.29,0-.73,.1-1.44,.29-2.11,.19-.68,.49-1.27,.9-1.78,.4-.51,.91-.93,1.5-1.24,.6-.31,1.31-.47,2.13-.47,.75,0,1.42,.12,2.01,.37,.59,.25,1.07,.6,1.42,1.05v-7.61h2.54v17.27h-2.05l-.19-1.47h-.09c-.44,.48-.93,.89-1.48,1.24-.55,.34-1.25,.51-2.09,.51Zm.33-1.94c.25,0,.51-.03,.79-.1,.28-.07,.56-.17,.83-.29s.53-.28,.78-.46c.25-.18,.46-.38,.63-.62v-4.48c-.47-.58-.94-.97-1.42-1.18-.48-.21-.95-.32-1.4-.32-.5,0-.93,.1-1.28,.29s-.66,.46-.9,.8c-.24,.34-.42,.73-.54,1.18s-.18,.91-.18,1.39,.05,.93,.16,1.39c.11,.46,.27,.86,.49,1.21,.22,.35,.5,.63,.84,.85,.34,.22,.74,.33,1.19,.33Z"/>
      <path class="cls-1" d="M906.6,298.56c-.51,0-.91,.1-1.2,.29-.29,.19-.43,.47-.43,.83,0,.23,.08,.45,.25,.64,.16,.19,.51,.35,1.04,.48l1.66,.37c.65,.14,1.18,.34,1.57,.61,.4,.26,.71,.55,.93,.86,.23,.31,.38,.63,.46,.96,.08,.33,.12,.63,.12,.91,0,.5-.1,.96-.3,1.39-.2,.43-.49,.8-.86,1.11-.37,.31-.82,.56-1.35,.73s-1.12,.27-1.77,.27c-.82,0-1.59-.12-2.29-.36-.7-.24-1.26-.51-1.68-.81l.61-2.22c.53,.51,1.12,.89,1.78,1.14,.66,.25,1.27,.37,1.83,.37,.59,0,1.04-.13,1.35-.39,.31-.26,.47-.61,.47-1.06,0-.26-.08-.49-.23-.67-.16-.18-.47-.33-.93-.45l-2.24-.56c-.53-.12-.96-.3-1.29-.54s-.6-.49-.79-.78c-.19-.29-.33-.59-.4-.9-.07-.31-.1-.61-.1-.89,0-1.04,.37-1.85,1.1-2.42,.73-.57,1.68-.85,2.85-.85,.61,0,1.26,.08,1.96,.25,.7,.16,1.29,.4,1.77,.71l-.68,2.1c-.31-.25-.75-.5-1.31-.76-.56-.26-1.18-.39-1.87-.39Z"/>
    </g>
    <polygon class="cls-5" points="924.16 396.29 840.02 396.29 797.95 469.15 840.02 542.02 924.16 542.02 966.23 469.15 924.16 396.29"/>
    <g>
      <path class="cls-1" d="M854.69,479.15h-2.22l-4.2-11.71-4.18,11.71h-2.22l-5.74-15.4h2.92l3.94,11.95,3.97-11.95h2.64l3.94,11.95,3.94-11.95h2.92l-5.72,15.4Z"/>
      <path class="cls-1" d="M861.66,464.96c0-.22,.04-.43,.13-.63,.09-.2,.21-.38,.36-.55,.16-.16,.33-.29,.52-.39,.19-.09,.41-.14,.64-.14,.22,0,.43,.05,.63,.14s.39,.22,.55,.39c.16,.16,.29,.35,.39,.55,.09,.2,.14,.41,.14,.63,0,.23-.05,.45-.14,.64s-.22,.37-.39,.52c-.16,.16-.35,.28-.55,.36-.2,.09-.41,.13-.63,.13-.45,0-.84-.16-1.17-.49s-.49-.72-.49-1.17Zm2.94,14.19h-2.57v-10.73h2.57v10.73Z"/>
      <path class="cls-1" d="M873,472.2l4.57,6.95h-2.8l-3.48-5.27-.91,.91v4.36h-2.57v-17.27h2.57v9.96l3.57-3.43h2.87l-3.83,3.78Z"/>
      <path class="cls-1" d="M878.95,464.96c0-.22,.04-.43,.13-.63,.09-.2,.21-.38,.36-.55,.16-.16,.33-.29,.52-.39,.19-.09,.41-.14,.64-.14,.22,0,.43,.05,.63,.14s.39,.22,.55,.39c.16,.16,.29,.35,.39,.55,.09,.2,.14,.41,.14,.63,0,.23-.05,.45-.14,.64s-.22,.37-.39,.52c-.16,.16-.35,.28-.55,.36-.2,.09-.41,.13-.63,.13-.45,0-.84-.16-1.17-.49s-.49-.72-.49-1.17Zm2.94,14.19h-2.57v-10.73h2.57v10.73Z"/>
      <path class="cls-1" d="M885.62,469.98h-1.33v-1.33l1.33-.21c0-.89,.03-1.64,.08-2.26,.05-.62,.13-1.15,.22-1.57,.09-.43,.2-.77,.32-1.04,.12-.26,.24-.48,.36-.65,.31-.4,.72-.7,1.23-.88,.51-.18,1.06-.27,1.67-.27h.37c.17,0,.36,.02,.57,.05s.43,.09,.65,.16c.23,.07,.43,.17,.62,.28l-.58,1.98c-.16-.09-.41-.22-.77-.38-.36-.16-.71-.25-1.05-.25-.2,0-.37,.05-.51,.14s-.26,.26-.35,.51c-.09,.25-.16,.58-.2,1-.04,.42-.06,.96-.06,1.61v1.54h2.05v1.56h-2.05v9.17h-2.57v-9.17Z"/>
      <path class="cls-1" d="M896.99,468.07c.95,0,1.77,.16,2.45,.48,.68,.32,1.25,.75,1.69,1.28,.44,.54,.77,1.15,.98,1.84,.21,.69,.31,1.42,.31,2.18s-.1,1.48-.31,2.16-.54,1.27-.98,1.77-1,.91-1.68,1.2c-.68,.29-1.47,.44-2.39,.44s-1.77-.16-2.45-.47c-.68-.31-1.25-.73-1.7-1.25-.45-.52-.79-1.12-1-1.81-.22-.68-.33-1.41-.33-2.17s.11-1.48,.33-2.17c.22-.68,.55-1.29,.99-1.81,.44-.52,1.01-.93,1.69-1.24,.68-.3,1.49-.46,2.4-.46Zm.05,9.43c.45,0,.84-.1,1.18-.29,.33-.19,.61-.46,.83-.79,.22-.33,.38-.72,.48-1.15,.1-.44,.15-.89,.15-1.38s-.05-.98-.16-1.44c-.11-.46-.28-.86-.5-1.21-.23-.35-.51-.63-.85-.84-.34-.21-.75-.31-1.24-.31-.45,0-.84,.1-1.17,.29s-.59,.45-.8,.78-.37,.71-.47,1.14c-.1,.44-.15,.89-.15,1.38s.05,.98,.15,1.44c.1,.46,.26,.87,.49,1.22,.23,.36,.51,.64,.85,.85,.34,.21,.75,.31,1.21,.31Z"/>
      <path class="cls-1" d="M907.72,479.15h-2.57v-17.27h2.57v17.27Z"/>
      <path class="cls-1" d="M910.71,464.96c0-.22,.04-.43,.13-.63,.09-.2,.21-.38,.36-.55,.16-.16,.33-.29,.52-.39,.19-.09,.41-.14,.64-.14,.22,0,.43,.05,.63,.14s.39,.22,.55,.39c.16,.16,.29,.35,.39,.55,.09,.2,.14,.41,.14,.63,0,.23-.05,.45-.14,.64s-.22,.37-.39,.52c-.16,.16-.35,.28-.55,.36-.2,.09-.41,.13-.63,.13-.45,0-.84-.16-1.17-.49s-.49-.72-.49-1.17Zm2.94,14.19h-2.57v-10.73h2.57v10.73Z"/>
      <path class="cls-1" d="M921.65,468.07c.95,0,1.77,.16,2.45,.48,.68,.32,1.25,.75,1.69,1.28,.44,.54,.77,1.15,.98,1.84,.21,.69,.31,1.42,.31,2.18s-.1,1.48-.31,2.16-.54,1.27-.98,1.77-1,.91-1.68,1.2c-.68,.29-1.47,.44-2.39,.44s-1.77-.16-2.45-.47c-.68-.31-1.25-.73-1.7-1.25-.45-.52-.79-1.12-1-1.81-.22-.68-.33-1.41-.33-2.17s.11-1.48,.33-2.17c.22-.68,.55-1.29,.99-1.81,.44-.52,1.01-.93,1.69-1.24,.68-.3,1.49-.46,2.4-.46Zm.05,9.43c.45,0,.84-.1,1.18-.29,.33-.19,.61-.46,.83-.79,.22-.33,.38-.72,.48-1.15,.1-.44,.15-.89,.15-1.38s-.05-.98-.16-1.44c-.11-.46-.28-.86-.5-1.21-.23-.35-.51-.63-.85-.84-.34-.21-.75-.31-1.24-.31-.45,0-.84,.1-1.17,.29s-.59,.45-.8,.78-.37,.71-.47,1.14c-.1,.44-.15,.89-.15,1.38s.05,.98,.15,1.44c.1,.46,.26,.87,.49,1.22,.23,.36,.51,.64,.85,.85,.34,.21,.75,.31,1.21,.31Z"/>
    </g>
    <g>
      <polygon class="cls-5" points="779.58 136.76 695.44 136.76 653.38 209.63 695.44 282.49 779.58 282.49 821.65 209.63 779.58 136.76"/>
      <g>
        <path class="cls-1" d="M697.02,194.1c0,.33,.07,.61,.22,.84,.15,.23,.35,.44,.62,.61,.26,.17,.58,.33,.94,.48,.37,.15,.77,.3,1.23,.45,.56,.2,1.12,.43,1.67,.69s1.05,.58,1.49,.96c.44,.38,.8,.85,1.08,1.41,.28,.56,.42,1.24,.42,2.03,0,.84-.15,1.55-.46,2.12-.3,.58-.71,1.04-1.23,1.39-.51,.35-1.1,.6-1.77,.76-.67,.16-1.36,.23-2.08,.23-1.03,0-1.99-.12-2.88-.37-.9-.25-1.66-.55-2.3-.91l.7-2.52c.59,.45,1.25,.82,1.97,1.12,.72,.3,1.55,.44,2.48,.44,1,0,1.72-.17,2.17-.52,.45-.35,.68-.82,.68-1.41,0-.45-.11-.84-.33-1.15-.22-.32-.49-.59-.82-.82-.33-.23-.67-.41-1.04-.55-.37-.14-.69-.26-.97-.35-.5-.16-1-.34-1.52-.56s-.99-.5-1.42-.85-.79-.79-1.06-1.32c-.27-.53-.41-1.19-.41-1.98,0-.75,.13-1.38,.38-1.89,.26-.51,.61-.93,1.05-1.25,.44-.32,.96-.55,1.56-.69,.6-.14,1.25-.21,1.95-.21,.85,0,1.68,.09,2.48,.26,.8,.17,1.47,.38,2.02,.63l-.63,2.47c-.28-.19-.58-.35-.91-.49-.33-.14-.66-.26-1.01-.35-.35-.09-.7-.17-1.05-.22-.35-.05-.68-.08-.99-.08-.7,0-1.25,.13-1.66,.4-.4,.26-.61,.67-.61,1.21Z"/>
        <path class="cls-1" d="M707.45,196.62h-1.33v-1.4l1.52-.23,.42-3.17h1.96v3.24h2.05v1.56h-2.05v6.16c0,.47,.05,.78,.14,.94,.09,.16,.27,.25,.54,.25,.2,0,.4-.04,.61-.12,.2-.08,.5-.23,.89-.44l.42,1.84c-.3,.25-.71,.45-1.25,.59-.54,.15-1.07,.22-1.6,.22-.47,0-.85-.06-1.15-.19-.3-.12-.54-.31-.71-.55-.17-.24-.29-.53-.35-.88-.06-.34-.09-.72-.09-1.14v-6.7Z"/>
        <path class="cls-1" d="M720.84,197.39c-.16-.12-.4-.23-.72-.3-.33-.08-.61-.12-.84-.12-.31,0-.57,.07-.77,.22-.2,.15-.38,.34-.54,.58-.16,.24-.29,.52-.4,.83s-.21,.63-.3,.96v6.23h-2.57v-10.73h2.01l.12,2.24h.09c.16-.33,.32-.65,.49-.96,.17-.31,.37-.59,.58-.83,.22-.24,.47-.44,.76-.58,.29-.15,.63-.22,1.01-.22,.62,0,1.21,.2,1.75,.61l-.68,2.08Z"/>
        <path class="cls-1" d="M729.85,205.79l-.19-1.47h-.09c-.42,.53-.99,.95-1.71,1.27-.72,.32-1.46,.48-2.21,.48-.98,0-1.75-.28-2.31-.85-.56-.57-.84-1.32-.84-2.25,0-.64,.14-1.21,.41-1.71,.27-.51,.67-.93,1.18-1.28s1.13-.62,1.84-.81c.72-.19,1.52-.28,2.4-.28h1v-.35c0-.61-.19-1.05-.58-1.33-.4-.28-1.03-.42-1.89-.42-1.15,0-2.18,.26-3.08,.77l-.49-1.94c1.04-.61,2.3-.91,3.78-.91,1.56,0,2.74,.32,3.55,.96,.37,.3,.68,.68,.92,1.14,.24,.47,.36,1.03,.36,1.68v7.3h-2.05Zm-3.2-1.8c.5,0,1-.12,1.49-.36,.5-.24,.89-.56,1.19-.97v-2.12h-.44c-1.28,0-2.2,.16-2.79,.49-.58,.33-.88,.85-.88,1.56,0,.93,.47,1.4,1.42,1.4Z"/>
        <path class="cls-1" d="M735.4,196.62h-1.33v-1.4l1.52-.23,.42-3.17h1.96v3.24h2.05v1.56h-2.05v6.16c0,.47,.05,.78,.14,.94,.09,.16,.27,.25,.54,.25,.2,0,.4-.04,.61-.12,.2-.08,.5-.23,.89-.44l.42,1.84c-.3,.25-.71,.45-1.25,.59-.54,.15-1.07,.22-1.6,.22-.47,0-.85-.06-1.15-.19-.3-.12-.54-.31-.71-.55-.17-.24-.29-.53-.35-.88-.06-.34-.09-.72-.09-1.14v-6.7Z"/>
        <path class="cls-1" d="M747.53,194.71c1.37,0,2.43,.35,3.17,1.04,.75,.69,1.12,1.67,1.12,2.93,0,.17-.01,.35-.04,.55-.02,.19-.05,.38-.09,.57-.04,.19-.09,.35-.14,.5-.05,.15-.11,.27-.17,.36h-6.79c.03,.47,.12,.91,.26,1.32,.14,.41,.34,.77,.61,1.07,.26,.3,.59,.54,.97,.72,.38,.18,.83,.27,1.34,.27,.58,0,1.19-.11,1.83-.33,.65-.22,1.19-.49,1.64-.82l.42,1.91c-.2,.12-.45,.26-.75,.41-.3,.15-.63,.28-1,.41-.37,.12-.77,.23-1.2,.31-.43,.08-.88,.13-1.34,.13-.87,0-1.64-.15-2.31-.45-.67-.3-1.23-.72-1.68-1.24-.45-.52-.79-1.12-1.03-1.81s-.35-1.4-.35-2.15,.12-1.49,.36-2.18c.24-.69,.59-1.3,1.06-1.83s1.05-.94,1.74-1.25c.69-.3,1.48-.46,2.37-.46Zm-.07,2.01c-.65,0-1.21,.19-1.67,.57-.46,.38-.79,.9-.99,1.55h4.46s.03-.1,.03-.16c0-.06,.01-.14,.01-.23,0-.5-.17-.91-.51-1.24-.34-.33-.79-.49-1.33-.49Z"/>
        <path class="cls-1" d="M755.86,202.41c-.7-.29-1.21-.75-1.52-1.38-.31-.62-.47-1.3-.47-2.03,0-.61,.1-1.17,.3-1.7s.49-.98,.88-1.37c.38-.38,.84-.68,1.38-.9s1.15-.33,1.83-.33c.4,0,.8,.04,1.2,.11,.4,.08,.74,.19,1.04,.34,.65,0,1.25-.04,1.78-.13,.54-.09,1.05-.2,1.55-.35l.21,.16-.26,1.77-.12,.12-1.66-.19-.02,.07c.53,.67,.79,1.45,.79,2.36,0,.54-.1,1.05-.29,1.53-.19,.47-.48,.89-.85,1.24-.37,.35-.84,.63-1.39,.84-.55,.21-1.18,.31-1.88,.31-.17,0-.31,0-.41-.01s-.2-.01-.29-.01c-.26,.09-.47,.21-.61,.36-.14,.15-.21,.3-.21,.45,0,.17,.08,.32,.26,.44,.17,.12,.44,.21,.79,.26l2.26,.28c.51,.06,.99,.17,1.43,.33,.44,.16,.83,.37,1.17,.63,.33,.26,.59,.58,.78,.96,.19,.37,.28,.8,.28,1.28s-.1,.95-.3,1.4c-.2,.45-.52,.85-.96,1.19-.44,.34-.98,.61-1.65,.82-.66,.2-1.46,.3-2.39,.3-.82,0-1.55-.08-2.18-.24-.63-.16-1.16-.39-1.6-.67-.44-.28-.77-.61-.99-.99-.23-.38-.34-.79-.34-1.23,0-.31,.05-.62,.16-.92,.11-.3,.26-.58,.46-.84,.19-.26,.42-.49,.68-.69,.26-.2,.53-.35,.83-.44v-.09c-.36-.16-.61-.37-.75-.63-.14-.26-.21-.52-.21-.77,0-.33,.11-.63,.33-.91,.22-.28,.53-.5,.93-.65v-.09Zm1.77,3.9c-.53,.09-.98,.31-1.35,.67-.37,.35-.56,.75-.56,1.2,0,.5,.25,.87,.73,1.12,.49,.25,1.2,.37,2.14,.37s1.65-.13,2.19-.38c.54-.26,.82-.67,.82-1.25s-.3-.96-.91-1.19-1.63-.41-3.06-.54Zm.72-5.2c.64,0,1.12-.21,1.45-.62,.33-.41,.49-.91,.49-1.5,0-.28-.04-.56-.12-.85-.08-.29-.2-.55-.37-.78-.17-.23-.38-.42-.64-.57-.26-.15-.56-.22-.9-.22s-.61,.07-.86,.2c-.25,.13-.46,.31-.62,.52-.16,.22-.28,.46-.36,.73-.08,.27-.12,.55-.12,.83s.04,.56,.13,.83c.08,.27,.21,.51,.38,.72,.17,.21,.38,.38,.64,.51,.26,.13,.56,.2,.9,.2Z"/>
        <path class="cls-1" d="M765.69,191.61c0-.22,.04-.43,.13-.63,.09-.2,.21-.38,.36-.55,.16-.16,.33-.29,.52-.39,.19-.09,.41-.14,.64-.14,.22,0,.43,.05,.63,.14s.39,.22,.55,.39c.16,.16,.29,.35,.39,.55,.09,.2,.14,.41,.14,.63,0,.23-.05,.45-.14,.64s-.22,.37-.39,.52c-.16,.16-.35,.28-.55,.36-.2,.09-.41,.13-.63,.13-.45,0-.84-.16-1.17-.49s-.49-.72-.49-1.17Zm2.94,14.19h-2.57v-10.73h2.57v10.73Z"/>
        <path class="cls-1" d="M776.72,194.71c1.37,0,2.43,.35,3.17,1.04,.75,.69,1.12,1.67,1.12,2.93,0,.17-.01,.35-.04,.55-.02,.19-.05,.38-.09,.57-.04,.19-.09,.35-.14,.5-.05,.15-.11,.27-.17,.36h-6.79c.03,.47,.12,.91,.26,1.32,.14,.41,.34,.77,.61,1.07,.26,.3,.59,.54,.97,.72,.38,.18,.83,.27,1.34,.27,.58,0,1.19-.11,1.83-.33,.65-.22,1.19-.49,1.64-.82l.42,1.91c-.2,.12-.45,.26-.75,.41-.3,.15-.63,.28-1,.41-.37,.12-.77,.23-1.2,.31-.43,.08-.88,.13-1.34,.13-.87,0-1.64-.15-2.31-.45-.67-.3-1.23-.72-1.68-1.24-.45-.52-.79-1.12-1.03-1.81s-.35-1.4-.35-2.15,.12-1.49,.36-2.18c.24-.69,.59-1.3,1.06-1.83s1.05-.94,1.74-1.25c.69-.3,1.48-.46,2.37-.46Zm-.07,2.01c-.65,0-1.21,.19-1.67,.57-.46,.38-.79,.9-.99,1.55h4.46s.03-.1,.03-.16c0-.06,.01-.14,.01-.23,0-.5-.17-.91-.51-1.24-.34-.33-.79-.49-1.33-.49Z"/>
        <path class="cls-1" d="M724.11,226.79h-4.67v4.67h6.7v2.33h-9.38v-15.4h8.91v2.33h-6.23v3.73h4.67v2.33Z"/>
        <path class="cls-1" d="M739.13,220.73h-4.46v13.07h-2.68v-13.07h-4.46v-2.33h11.6v2.33Z"/>
        <path class="cls-1" d="M748.77,226.79h-4.41v7h-2.68v-15.4h8.8v2.33h-6.11v3.73h4.41v2.33Z"/>
        <path class="cls-1" d="M755.09,224.62c-.51,0-.91,.1-1.2,.29-.29,.19-.43,.47-.43,.83,0,.23,.08,.45,.25,.64,.16,.19,.51,.35,1.04,.48l1.66,.37c.65,.14,1.18,.34,1.57,.61,.4,.26,.71,.55,.93,.86,.23,.31,.38,.63,.46,.96,.08,.33,.12,.63,.12,.91,0,.5-.1,.96-.3,1.39-.2,.43-.49,.8-.86,1.11-.37,.31-.82,.56-1.35,.73s-1.12,.27-1.77,.27c-.82,0-1.59-.12-2.29-.36-.7-.24-1.26-.51-1.68-.81l.61-2.22c.53,.51,1.12,.89,1.78,1.14,.66,.25,1.27,.37,1.83,.37,.59,0,1.04-.13,1.35-.39,.31-.26,.47-.61,.47-1.06,0-.26-.08-.49-.23-.67-.16-.18-.47-.33-.93-.45l-2.24-.56c-.53-.12-.96-.3-1.29-.54s-.6-.49-.79-.78c-.19-.29-.33-.59-.4-.9-.07-.31-.1-.61-.1-.89,0-1.04,.37-1.85,1.1-2.42,.73-.57,1.68-.85,2.85-.85,.61,0,1.26,.08,1.96,.25,.7,.16,1.29,.4,1.77,.71l-.68,2.1c-.31-.25-.75-.5-1.31-.76-.56-.26-1.18-.39-1.87-.39Z"/>
      </g>
    </g>
    <path class="cls-7" d="M403.43,468.79c-3.01-.43-8.44-.8-14.79,1.11-5.68,1.71-9.69,4.52-11.96,6.38"/>
    <path class="cls-6" d="M398.44,616.92c-16.06-23.08-32.48-45.9-48.65-68.88-8.19-11.62-19.23-17.8-33.33-18.12-13.15-.26-26.36-.42-39.51,.05-23.13,.85-38.72,16.43-38.82,39.56-.32,52.71,0,105.43-.26,158.14-.05,6.97,1.95,9.08,8.98,9.03,31.32-.37,62.7-.16,94.02-.16,13.2,0,13.36,0,10.25-12.99-6.07-25.51-12.36-50.97-18.54-76.43,.58-.32,1.16-.63,1.69-.95l24.3,27.68c4.17,4.86,43.15-52.18,39.88-56.94Z"/>
    <ellipse class="cls-6" cx="379.26" cy="403.11" rx="11.25" ry=".69" transform="translate(-64.24 71.98) rotate(-10)"/>
    <path class="cls-6" d="M379.32,357.43c.27-6.52-15.42-13.86-29.11-15.89-12.22-1.81-14.69,1.82-36.77,1.34-12.29-.26-12.88-1.42-18.68-.39-2.46,.44-10.46,2.08-28.04,15.9-17.91,14.08-26.87,21.11-28.34,31.4-1.09,7.64,2.06,11.81-1.53,18.19-3.16,5.61-7.65,6.04-14.55,10.91-6.25,4.41-19.06,15.7-17.62,25.09,1.71,11.09,23.45,20.22,39.83,15.32,7.33-2.19,12.64-7.87,22.98-19.15,17.91-19.54,17.68-26.78,28.34-31.4,12.98-5.63,16.86,3.56,29.87-1.53,16.51-6.46,14.1-22.75,36-38.3,9.94-7.06,17.44-7.12,17.62-11.49Z"/>
  </g>
</svg>