<?xml version="1.0" encoding="UTF-8"?>
<svg id="Ebene_2" data-name="Ebene 2" xmlns="http://www.w3.org/2000/svg" viewBox="0 0 874.8 826.9">
  <defs>
    <style>
      .cls-1 {
        fill: #ff6b35;
      }
    </style>
  </defs>
  <g id="Ebene_1-2" data-name="Ebene 1">
    <path class="cls-1" d="M514.8,562.3c-3.5-2-4.8-4.2-4.7-8.3,.3-10.3-.2-20.7,.3-31,.1-2.4,1.9-5.6,3.9-7,6.8-4.5,14.1-8.4,21.2-12.5,14.6-8.4,29.2-16.8,44.9-25.9-5.7-16.7-11.5-33-16.8-49.4-1.9-6-5.3-6.7-11-6.1-22.2,2.5-44.4,4.4-66.6,6.7-4.2,.4-6.7-.8-9.2-4.4-5.6-8.4-11.9-16.3-18.1-24.3-2.3-2.9-3-5.2-1.2-8.7,3.5-6.9,6.4-14.1,9.5-21.2,6.9-15.6,13.8-31.1,21.3-47.9-15.4-10.6-30.6-20.9-45.5-31.4-3.5-2.4-5.6-1.4-8.4,1.1-17.3,15.2-34.8,30.1-52.1,45.4-3.1,2.8-5.6,2.9-9.4,1.5-9.5-3.4-19.1-6.4-28.8-9-4.4-1.2-6.4-3.2-7.4-7.8-5.1-23.6-10.5-47-16.1-71.4h-60.8c-5.6,24.7-11,48.3-16.1,71.9-.9,4.3-3,6.1-7.1,7.2-9.7,2.7-19.4,5.6-28.8,9.1-4.1,1.5-6.7,1.1-9.9-1.8-17.3-15.3-34.7-30.3-52.3-45.2-1.6-1.4-5.5-2.3-6.9-1.3-15.6,10.3-31,21-46.5,31.7,10.5,23.7,20.2,46,30.4,68.1,2,4.3,1.4,7.1-1.5,10.5-5.5,6.4-11.2,12.9-15.3,20.2-3.9,7.1-8.6,8.1-15.9,7.3-21.7-2.5-43.4-4.5-65.2-6.4-2-.2-5.5,1.2-6,2.7-6.5,17.5-12.6,35.1-18.7,52.6,3.3,2,5.1,3.1,6.9,4.2,19.5,11.2,39,22.6,58.6,33.6,3.8,2.1,5.1,4.5,4.9,8.9-.4,9.9-.4,19.8,0,29.6,.2,4.4-1.2,6.7-5,8.8-19.4,10.9-38.7,22.1-58,33.3-2.2,1.3-4.2,2.7-7.3,4.7,5.7,16.6,11.6,32.9,16.9,49.4,1.9,6,5.3,6.3,10.6,5.7l66.6-6.7c4.5-.5,7.2,.7,9.8,4.7,5,7.7,10.3,15.2,16.3,22.1,3.8,4.3,4.3,7.7,1.9,12.9-10,21.7-19.6,43.5-29.9,66.7,15.6,10.7,31,21.4,46.6,31.7,1.4,1,5.3,0,6.9-1.4,17.6-14.9,35-29.9,52.3-45.2,3.3-2.9,5.8-3.3,9.9-1.7,9.2,3.5,18.6,6.4,28.1,8.9,4.6,1.2,6.8,3.2,7.9,8.1,5,23.6,10.5,47,16,71.3h60.7c5.5-24.5,11-48,16.1-71.5,1-4.5,2.9-6.6,7.4-7.8,9.7-2.6,19.4-5.5,28.8-9,4.2-1.6,6.7-.9,9.9,1.9,17.3,15.2,34.7,30.3,52.3,45.2,1.5,1.3,5,2.2,6.4,1.4,15.8-10.4,31.4-21.2,47-31.9-10.6-23.9-20.3-46.3-30.5-68.4-1.9-4.1-1.3-6.6,1.4-9.9,5.5-6.7,11.5-13.3,15.6-20.8,4-7.3,8.9-7.8,16.1-7,21.7,2.5,43.4,4.5,65.2,6.3,2,.2,5.5-1.8,6.1-3.6,6.4-17.1,12.3-34.3,18.3-51.6-3.4-2.2-5.5-3.6-7.7-4.9-19.6-10.8-38.8-22-58.3-33h0Zm-229.2,71.1c-51.2-1.4-93.6-45.8-92-96.7,1.6-53.5,45.7-93.8,101.2-92.4,51.4,1.3,93.5,45.8,92,97.4-1.5,52.7-46.1,93.2-101.2,91.7Zm348.6-304.1c3.3,15.3,6.8,30.6,10.4,46.4h39.5c3.6-16,7.2-31.3,10.5-46.6,.6-2.9,1.9-4.3,4.8-5.1,6.3-1.7,12.6-3.6,18.8-5.9,2.8-1,4.3-.6,6.4,1.3,11.3,9.9,22.6,19.7,34.1,29.4,1,.8,3.3,1.4,4.1,.9,10.3-6.8,20.5-13.8,30.6-20.8-6.9-15.6-13.2-30.1-19.9-44.6-1.2-2.7-.8-4.3,.9-6.4,3.6-4.4,7.5-8.6,10.2-13.5,2.6-4.7,5.8-5.1,10.5-4.5,14.1,1.6,28.3,2.9,42.5,4.1,1.3,.1,3.5-1.2,4-2.4,4.1-11.1,8-22.4,11.9-33.6-2.2-1.4-3.6-2.3-5-3.2-12.6-7.3-25.2-14.5-37.8-21.7-2.3-1.3-3.1-2.7-3-5.4,.2-6.7-.1-13.5,.2-20.2,.1-1.6,1.2-3.7,2.6-4.5,4.5-3,9.2-5.5,13.8-8.1,9.5-5.5,19-11,29.3-16.9-3.7-10.9-7.5-21.5-11-32.2-1.3-3.9-3.4-4.4-7.2-4-14.4,1.7-28.9,2.9-43.4,4.4-2.7,.3-4.4-.5-6-2.9-3.7-5.4-7.7-10.6-11.8-15.8-1.5-1.9-2-3.4-.8-5.7,2.3-4.5,4.1-9.2,6.2-13.8,4.5-10.1,9-20.3,13.9-31.2-10.1-6.9-19.9-13.6-29.7-20.5-2.3-1.6-3.6-.9-5.5,.7l-34,29.5c-2,1.8-3.6,1.9-6.1,1-6.2-2.2-12.4-4.2-18.8-5.9-2.9-.8-4.2-2.1-4.8-5.1-3.3-15.4-6.9-30.6-10.5-46.5h-39.6c-3.6,16.1-7.2,31.4-10.5,46.8-.6,2.8-2,4-4.6,4.7-6.3,1.7-12.6,3.6-18.8,5.9-2.7,1-4.3,.7-6.5-1.2-11.2-9.9-22.6-19.7-34.1-29.4-1.1-.9-3.6-1.5-4.5-.9-10.2,6.7-20.2,13.7-30.3,20.6,6.8,15.4,13.2,29.9,19.8,44.4,1.3,2.8,.9,4.6-1,6.9-3.5,4.2-7.3,8.4-9.9,13.2-2.5,4.6-5.6,5.3-10.4,4.7-14.1-1.7-28.3-2.9-42.5-4.2-1.3-.1-3.6,.8-3.9,1.8-4.2,11.4-8.2,22.9-12.2,34.3,2.2,1.3,3.3,2,4.5,2.7,12.7,7.3,25.4,14.7,38.2,21.9,2.5,1.4,3.3,2.9,3.2,5.8-.3,6.4-.3,12.9,0,19.3,.1,2.9-.8,4.4-3.2,5.8-12.7,7.1-25.2,14.4-37.8,21.7-1.4,.8-2.8,1.8-4.8,3.1,3.7,10.8,7.6,21.4,11,32.2,1.2,3.9,3.5,4.1,6.9,3.7,14.5-1.6,28.9-2.8,43.4-4.3,2.9-.3,4.7,.5,6.4,3.1,3.2,5,6.7,9.9,10.6,14.4,2.5,2.8,2.8,5,1.2,8.4-6.5,14.1-12.7,28.4-19.5,43.5,10.2,7,20.2,14,30.4,20.7,.9,.6,3.5,0,4.5-.9,11.5-9.7,22.8-19.5,34.1-29.4,2.1-1.9,3.8-2.2,6.5-1.1,6,2.3,12.1,4.2,18.3,5.8,3,.8,4.5,2.1,5.2,5.3h0Zm-32.8-142.8c1.1-34.9,29.8-61.1,65.9-60.2,33.5,.8,60.9,29.9,59.9,63.4-1,34.3-30.1,60.7-65.9,59.8-33.3-.9-60.9-29.8-59.9-63Zm269.9,389c-8.8-5.1-17.5-10.1-26.4-15.1-1.6-.9-2.2-1.9-2.1-3.8,.1-4.7-.1-9.4,.1-14.1,0-1.1,.9-2.6,1.8-3.2,3.1-2.1,6.4-3.8,9.6-5.7,6.6-3.8,13.3-7.7,20.4-11.8-2.6-7.6-5.2-15-7.6-22.4-.9-2.7-2.4-3.1-5-2.8-10.1,1.2-20.2,2-30.2,3-1.9,.2-3-.3-4.2-2-2.6-3.8-5.4-7.4-8.2-11-1-1.3-1.4-2.4-.6-4,1.6-3.1,2.9-6.4,4.3-9.6,3.1-7.1,6.3-14.1,9.7-21.8-7-4.8-13.9-9.5-20.7-14.3-1.6-1.1-2.5-.6-3.8,.5l-23.7,20.6c-1.4,1.3-2.5,1.3-4.3,.7-4.3-1.6-8.7-2.9-13.1-4.1-2-.5-2.9-1.5-3.3-3.5-2.3-10.7-4.8-21.4-7.3-32.4h-27.6c-2.5,11.2-5,21.9-7.3,32.6-.4,2-1.4,2.8-3.2,3.3-4.4,1.2-8.8,2.5-13.1,4.1-1.9,.7-3,.5-4.5-.8-7.8-6.9-15.8-13.8-23.7-20.5-.7-.6-2.5-1-3.2-.6-7.1,4.7-14.1,9.5-21.1,14.4,4.8,10.7,9.2,20.9,13.8,30.9,.9,2,.6,3.2-.7,4.8-2.5,2.9-5.1,5.8-6.9,9.2-1.8,3.2-3.9,3.7-7.2,3.3-9.8-1.2-19.7-2-29.6-2.9-.9-.1-2.5,.6-2.7,1.2-3,7.9-5.7,16-8.5,23.9,1.5,.9,2.3,1.4,3.1,1.9,8.9,5.1,17.7,10.3,26.6,15.3,1.7,1,2.3,2,2.2,4-.2,4.5-.2,9,0,13.4,.1,2-.6,3.1-2.3,4-8.8,5-17.6,10-26.4,15.1-1,.6-1.9,1.2-3.3,2.1,2.6,7.6,5.3,14.9,7.7,22.4,.9,2.7,2.4,2.9,4.8,2.6,10.1-1.1,20.2-2,30.2-3,2-.2,3.3,.3,4.4,2.1,2.3,3.5,4.7,6.9,7.4,10,1.7,2,1.9,3.5,.9,5.9-4.5,9.8-8.9,19.8-13.6,30.3,7.1,4.9,14.1,9.7,21.2,14.4,.7,.4,2.4,0,3.2-.6,8-6.8,15.9-13.6,23.7-20.5,1.5-1.3,2.6-1.5,4.5-.8,4.2,1.6,8.5,2.9,12.8,4.1,2.1,.6,3.1,1.4,3.6,3.7,2.3,10.7,4.8,21.3,7.3,32.4h27.6c2.5-11.1,5-21.8,7.3-32.5,.4-2,1.3-3,3.3-3.5,4.4-1.2,8.8-2.5,13.1-4.1,1.9-.7,3-.4,4.5,.9,7.8,6.9,15.8,13.8,23.7,20.5,.7,.6,2.3,1,2.9,.6,7.2-4.7,14.3-9.6,21.3-14.5-4.8-10.9-9.2-21-13.8-31.1-.9-1.9-.6-3,.6-4.5,2.5-3,5.2-6,7.1-9.4,1.8-3.3,4.1-3.5,7.3-3.2,9.9,1.1,19.7,2,29.6,2.9,.9,.1,2.5-.8,2.8-1.7,2.9-7.8,5.6-15.6,8.3-23.4-1.6-.7-2.5-1.4-3.5-1.9h0Zm-130.5,17.2c-23.3-.6-42.5-20.8-41.8-43.9,.7-24.3,20.7-42.6,46-42,23.3,.6,42.5,20.8,41.8,44.2-.7,23.9-21,42.3-46,41.7Z"/>
  </g>
</svg>