<?xml version="1.0" encoding="UTF-8"?>
<svg id="Ebene_2" data-name="Ebene 2" xmlns="http://www.w3.org/2000/svg" viewBox="0 0 1000 1000">
  <defs>
    <style>
      .cls-1 {
        fill: #ff6b35;
      }
    </style>
  </defs>
  <g id="Ebene_1-2" data-name="Ebene 1">
    <path class="cls-1" d="M500,0C224.3,0,0,224.3,0,500s224.3,500,500,500,500-224.3,500-500S775.7,0,500,0Zm0,932.6c-238.5,0-432.6-194.1-432.6-432.6S261.5,67.4,500,67.4s432.6,194.1,432.6,432.6-194.1,432.6-432.6,432.6h0Zm250.9-466.3c-18.6,0-33.7,15.1-33.7,33.7,0,119.8-97.4,217.2-217.2,217.2s-217.2-97.4-217.2-217.2c0-18.6-15.1-33.7-33.7-33.7s-33.7,15.1-33.7,33.7c0,157,127.6,284.6,284.6,284.6s284.6-127.6,284.6-284.6c0-18.6-15-33.7-33.7-33.7h0Zm-303.1-119.9c0,27.1-21.9,49-48.9,49s-48.9-21.9-48.9-49,21.9-48.9,48.9-48.9,48.9,21.9,48.9,48.9Zm177.4-42.6c23.5,13.2,31.8,43.1,18.6,66.6s-43.1,31.9-66.6,18.7c-23.6-13.3-31.9-43.1-18.7-66.7s43.1-31.9,66.7-18.6h0Z"/>
  </g>
</svg>