<?xml version="1.0" encoding="UTF-8"?>
<svg id="Ebene_2" data-name="Ebene 2" xmlns="http://www.w3.org/2000/svg" xmlns:xlink="http://www.w3.org/1999/xlink" viewBox="0 0 730 600">
  <defs>
    <style>
      .cls-1 {
        stroke-dasharray: 0 0 19.57 19.57;
      }

      .cls-1, .cls-2, .cls-3, .cls-4, .cls-5, .cls-6 {
        stroke-miterlimit: 10;
      }

      .cls-1, .cls-4, .cls-7, .cls-5, .cls-6 {
        fill: none;
      }

      .cls-1, .cls-5, .cls-6 {
        stroke: #1d1d1b;
        stroke-width: 7px;
      }

      .cls-8 {
        fill: #628fcb;
      }

      .cls-2 {
        stroke: #ed6a3d;
      }

      .cls-2, .cls-9 {
        fill: #ed6a3d;
      }

      .cls-2, .cls-3, .cls-4 {
        stroke-width: 3px;
      }

      .cls-3 {
        fill: #628fca;
        stroke: #628fca;
      }

      .cls-4 {
        stroke: #628fcb;
      }

      .cls-10 {
        clip-path: url(#clippath);
      }

      .cls-5 {
        stroke-dasharray: 0 0 20.97 20.97;
      }

      .cls-11 {
        fill: #1d1d1b;
      }
    </style>
    <clipPath id="clippath">
      <rect class="cls-7" width="730" height="600"/>
    </clipPath>
  </defs>
  <g id="Ebene_1-2" data-name="Ebene 1">
    <g class="cls-10">
      <circle class="cls-8" cx="422" cy="381.9" r="15"/>
      <path class="cls-3" d="M293.16,382.53h415.56"/>
      <circle class="cls-9" cx="290.06" cy="236.94" r="15"/>
      <circle class="cls-8" cx="294.16" cy="382.62" r="15"/>
      <g>
        <path class="cls-11" d="M313.88,46.52c.31-.08,.8-.13,1.48-.13h5.87c2.33,0,4.24,.24,5.74,.72,1.5,.48,2.74,1.13,3.73,1.96,1.27,1.1,2.2,2.49,2.77,4.18s.86,3.56,.86,5.61c0,1.55-.2,3.03-.59,4.45-.4,1.42-1.1,2.66-2.12,3.74-1.02,1.07-2.42,1.92-4.21,2.55-1.79,.63-4.07,.95-6.86,.95h-3.24c-1.15,0-2.29-.1-3.42-.29v-23.74Zm7.67,20.68c2.9,0,5.02-.69,6.35-2.08s2-3.65,2-6.78c0-1.41-.14-2.65-.41-3.71-.28-1.06-.75-1.95-1.42-2.67-.67-.72-1.57-1.25-2.7-1.61-1.13-.36-2.53-.54-4.21-.54h-3.13v17.28c.67,.07,1.32,.11,1.94,.11h1.58Z"/>
        <path class="cls-11" d="M345.99,53.16c2.11,0,3.74,.53,4.9,1.6,1.15,1.07,1.73,2.57,1.73,4.52,0,.26-.02,.55-.05,.85-.04,.3-.08,.59-.14,.88s-.13,.55-.22,.77-.17,.41-.27,.56h-10.48c.05,.72,.18,1.4,.4,2.03s.53,1.19,.94,1.66c.41,.47,.91,.84,1.49,1.12,.59,.28,1.28,.41,2.07,.41,.89,0,1.83-.17,2.83-.5,1-.34,1.84-.76,2.54-1.26l.65,2.95c-.31,.19-.7,.4-1.15,.63-.46,.23-.97,.44-1.55,.63-.58,.19-1.19,.35-1.85,.49-.66,.13-1.35,.2-2.07,.2-1.34,0-2.53-.23-3.56-.7-1.03-.47-1.9-1.1-2.59-1.91-.7-.8-1.22-1.73-1.58-2.79-.36-1.06-.54-2.16-.54-3.31s.19-2.3,.56-3.37,.92-2.01,1.64-2.83c.72-.82,1.61-1.46,2.68-1.93,1.07-.47,2.29-.7,3.65-.7Zm-.11,3.1c-1.01,0-1.87,.29-2.57,.88-.71,.59-1.22,1.39-1.53,2.39h6.88c.02-.07,.04-.16,.05-.25,.01-.1,.02-.22,.02-.36,0-.77-.26-1.4-.79-1.91-.53-.5-1.21-.76-2.05-.76Z"/>
        <path class="cls-11" d="M366.11,57.3c-.24-.19-.61-.35-1.12-.47s-.94-.18-1.3-.18c-.48,0-.88,.11-1.19,.34-.31,.23-.59,.53-.83,.9-.24,.37-.44,.8-.61,1.28-.17,.48-.32,.97-.47,1.48v9.61h-3.96v-16.56h3.1l.18,3.46h.14c.24-.5,.49-1,.76-1.48,.26-.48,.56-.91,.9-1.28s.73-.67,1.17-.9c.44-.23,.97-.34,1.57-.34,.96,0,1.86,.31,2.7,.94l-1.04,3.2Z"/>
        <path class="cls-11" d="M388.22,70.26l-.29-2.27h-.14c-.65,.82-1.53,1.47-2.65,1.96-1.12,.49-2.25,.74-3.4,.74-1.51,0-2.7-.44-3.56-1.31-.86-.88-1.3-2.03-1.3-3.47,0-.98,.21-1.87,.63-2.65,.42-.78,1.03-1.44,1.82-1.98s1.74-.95,2.84-1.24,2.34-.43,3.71-.43h1.55v-.54c0-.94-.3-1.62-.9-2.05-.62-.43-1.6-.65-2.92-.65-1.78,0-3.36,.4-4.75,1.19l-.76-2.99c1.61-.94,3.55-1.4,5.83-1.4,2.4,0,4.22,.49,5.47,1.48,.58,.46,1.05,1.04,1.42,1.76,.37,.72,.56,1.58,.56,2.59v11.27h-3.17Zm-4.93-2.77c.77,0,1.54-.19,2.3-.56,.77-.37,1.38-.87,1.84-1.49v-3.28h-.68c-1.97,0-3.4,.25-4.3,.76-.9,.5-1.35,1.31-1.35,2.41,0,1.44,.73,2.16,2.2,2.16Z"/>
        <path class="cls-11" d="M404.16,59.54l7.06,10.73h-4.32l-5.36-8.14-1.4,1.4v6.73h-3.96v-26.64h3.96v15.37l5.51-5.29h4.43l-5.9,5.83Z"/>
        <path class="cls-11" d="M414.68,56.12h-2.05v-2.16l2.34-.36,.65-4.9h3.02v5h3.17v2.41h-3.17v9.5c0,.72,.07,1.21,.22,1.46s.42,.38,.83,.38c.31,0,.62-.06,.94-.18s.77-.35,1.37-.68l.65,2.84c-.46,.38-1.1,.69-1.93,.92-.83,.23-1.65,.34-2.47,.34-.72,0-1.31-.1-1.78-.29-.47-.19-.83-.47-1.1-.85-.26-.37-.44-.82-.54-1.35-.1-.53-.14-1.12-.14-1.76v-10.33Z"/>
        <path class="cls-11" d="M429.69,53.7v10.76c0,.98,.26,1.73,.77,2.25,.52,.52,1.18,.77,2,.77s1.61-.28,2.3-.85c.7-.56,1.21-1.37,1.55-2.43v-10.51h4v16.56h-3.1l-.22-2.3h-.14c-.26,.55-.6,1-1.01,1.35-.41,.35-.86,.62-1.35,.83-.49,.2-1,.35-1.53,.43-.53,.08-1.04,.13-1.55,.13-.79,0-1.53-.1-2.21-.29-.68-.19-1.28-.51-1.8-.95-.52-.44-.92-1.03-1.22-1.76-.3-.73-.45-1.64-.45-2.72v-11.27h3.96Z"/>
        <path class="cls-11" d="M452.8,53.16c2.11,0,3.74,.53,4.9,1.6,1.15,1.07,1.73,2.57,1.73,4.52,0,.26-.02,.55-.05,.85-.04,.3-.08,.59-.14,.88s-.13,.55-.22,.77-.17,.41-.27,.56h-10.48c.05,.72,.18,1.4,.4,2.03s.53,1.19,.94,1.66c.41,.47,.91,.84,1.49,1.12,.59,.28,1.28,.41,2.07,.41,.89,0,1.83-.17,2.83-.5,1-.34,1.84-.76,2.54-1.26l.65,2.95c-.31,.19-.7,.4-1.15,.63-.46,.23-.97,.44-1.55,.63-.58,.19-1.19,.35-1.85,.49-.66,.13-1.35,.2-2.07,.2-1.34,0-2.53-.23-3.56-.7-1.03-.47-1.9-1.1-2.59-1.91-.7-.8-1.22-1.73-1.58-2.79-.36-1.06-.54-2.16-.54-3.31s.19-2.3,.56-3.37,.92-2.01,1.64-2.83c.72-.82,1.61-1.46,2.68-1.93,1.07-.47,2.29-.7,3.65-.7Zm-.11,3.1c-1.01,0-1.87,.29-2.57,.88-.71,.59-1.22,1.39-1.53,2.39h6.88c.02-.07,.04-.16,.05-.25,.01-.1,.02-.22,.02-.36,0-.77-.26-1.4-.79-1.91-.53-.5-1.21-.76-2.05-.76Z"/>
        <path class="cls-11" d="M467.63,70.26h-3.96v-26.64h3.96v26.64Z"/>
        <path class="cls-11" d="M476.99,70.26h-3.96v-26.64h3.96v26.64Z"/>
        <path class="cls-11" d="M489.7,53.16c2.11,0,3.74,.53,4.9,1.6,1.15,1.07,1.73,2.57,1.73,4.52,0,.26-.02,.55-.05,.85-.04,.3-.08,.59-.14,.88s-.13,.55-.22,.77-.17,.41-.27,.56h-10.48c.05,.72,.18,1.4,.4,2.03s.53,1.19,.94,1.66c.41,.47,.91,.84,1.49,1.12,.59,.28,1.28,.41,2.07,.41,.89,0,1.83-.17,2.83-.5,1-.34,1.84-.76,2.54-1.26l.65,2.95c-.31,.19-.7,.4-1.15,.63-.46,.23-.97,.44-1.55,.63-.58,.19-1.19,.35-1.85,.49-.66,.13-1.35,.2-2.07,.2-1.34,0-2.53-.23-3.56-.7-1.03-.47-1.9-1.1-2.59-1.91-.7-.8-1.22-1.73-1.58-2.79-.36-1.06-.54-2.16-.54-3.31s.19-2.3,.56-3.37,.92-2.01,1.64-2.83c.72-.82,1.61-1.46,2.68-1.93,1.07-.47,2.29-.7,3.65-.7Zm-.11,3.1c-1.01,0-1.87,.29-2.57,.88-.71,.59-1.22,1.39-1.53,2.39h6.88c.02-.07,.04-.16,.05-.25,.01-.1,.02-.22,.02-.36,0-.77-.26-1.4-.79-1.91-.53-.5-1.21-.76-2.05-.76Z"/>
        <path class="cls-11" d="M318.02,113.46h-4.14v-23.76h4.14v10.37c1.37-1.3,2.59-2.56,3.67-3.78,1.01-1.15,1.92-2.27,2.74-3.37,.82-1.09,1.52-2.17,2.12-3.22h4.54c-1.06,1.44-2.06,2.76-3.02,3.96s-2.02,2.45-3.17,3.74c-.43,.48-.88,.97-1.33,1.48s-.92,1.01-1.4,1.51l10.62,13.07h-4.79l-8.46-10.4-1.51,1.4v9Z"/>
        <path class="cls-11" d="M338.57,96.9v10.76c0,.98,.26,1.73,.77,2.25,.52,.52,1.18,.77,2,.77s1.61-.28,2.3-.85c.7-.56,1.21-1.37,1.55-2.43v-10.51h4v16.56h-3.1l-.22-2.3h-.14c-.26,.55-.6,1-1.01,1.35-.41,.35-.86,.62-1.35,.83-.49,.2-1,.35-1.53,.43-.53,.08-1.04,.13-1.55,.13-.79,0-1.53-.1-2.21-.29-.68-.19-1.28-.51-1.8-.95-.52-.44-.92-1.03-1.22-1.76-.3-.73-.45-1.64-.45-2.72v-11.27h3.96Z"/>
        <path class="cls-11" d="M363.63,100.5c-.24-.19-.61-.35-1.12-.47-.5-.12-.94-.18-1.3-.18-.48,0-.88,.11-1.19,.34-.31,.23-.59,.53-.83,.9-.24,.37-.44,.8-.61,1.28s-.32,.97-.47,1.48v9.61h-3.96v-16.56h3.1l.18,3.46h.14c.24-.5,.49-1,.76-1.48,.26-.48,.56-.91,.9-1.28s.73-.67,1.17-.9c.44-.23,.97-.34,1.57-.34,.96,0,1.86,.31,2.7,.94l-1.04,3.2Z"/>
        <path class="cls-11" d="M372.66,99.31c-.79,0-1.41,.15-1.85,.45-.44,.3-.67,.73-.67,1.28,0,.36,.13,.69,.38,.99,.25,.3,.79,.55,1.6,.74l2.56,.58c1.01,.22,1.82,.53,2.43,.94,.61,.41,1.09,.85,1.44,1.33,.35,.48,.58,.97,.7,1.48,.12,.5,.18,.97,.18,1.4,0,.77-.16,1.48-.47,2.14-.31,.66-.76,1.23-1.33,1.71-.58,.48-1.27,.86-2.09,1.13-.82,.28-1.73,.41-2.74,.41-1.27,0-2.45-.19-3.53-.56s-1.94-.79-2.59-1.24l.94-3.42c.82,.79,1.73,1.38,2.75,1.76,1.02,.38,1.96,.58,2.83,.58,.91,0,1.61-.2,2.09-.59,.48-.4,.72-.94,.72-1.64,0-.41-.12-.75-.36-1.03-.24-.28-.72-.51-1.44-.7l-3.46-.86c-.82-.19-1.48-.47-2-.83-.52-.36-.92-.76-1.22-1.21-.3-.44-.5-.91-.61-1.39-.11-.48-.16-.94-.16-1.37,0-1.61,.56-2.85,1.69-3.73s2.59-1.31,4.39-1.31c.94,0,1.94,.13,3.02,.38,1.08,.25,1.99,.62,2.74,1.1l-1.04,3.24c-.48-.38-1.15-.77-2.02-1.17-.86-.4-1.82-.59-2.88-.59Z"/>
      </g>
      <path class="cls-6" d="M28.49,570.89c24.26-61.79,48.51-123.57,72.77-185.36,24.77,35.23,49.53,70.47,74.3,105.7,37.79-84.77,75.57-169.53,113.36-254.3"/>
      <g>
        <path class="cls-6" d="M288.91,236.94c2.26,2.45,4.51,4.91,6.77,7.36"/>
        <path class="cls-1" d="M308.94,258.69c41.97,45.6,83.93,91.19,125.9,136.79"/>
        <path class="cls-6" d="M441.46,402.68l6.77,7.36c2.22-2.48,4.45-4.96,6.67-7.45"/>
        <path class="cls-5" d="M468.9,386.98c72.3-80.67,144.6-161.35,216.9-242.02"/>
        <path class="cls-6" d="M692.79,137.15c2.22-2.48,4.45-4.96,6.67-7.45"/>
      </g>
      <g>
        <path class="cls-8" d="M423.02,348.64c-.26-66.95-.51-133.91-.77-200.86"/>
        <g>
          <path class="cls-4" d="M422.93,327.12c-.23-59.78-.46-119.56-.68-179.34"/>
          <polygon class="cls-8" points="437.88 322.68 423.02 348.64 407.96 322.8 437.88 322.68"/>
        </g>
      </g>
      <path class="cls-2" d="M288.68,232.83c-.92-63.23-1.84-126.45-2.76-189.68"/>
      <g>
        <path class="cls-8" d="M294.55,411.97c-.26,48.47-.51,96.94-.77,145.4"/>
        <g>
          <path class="cls-4" d="M294.44,433.5c-.22,41.29-.44,82.58-.65,123.88"/>
          <polygon class="cls-8" points="279.45 437.8 294.55 411.97 309.37 437.95 279.45 437.8"/>
        </g>
      </g>
      <g>
        <path class="cls-11" d="M340.73,512.51h-4.14v-10.44h-11.38v10.44h-4.14v-23.76h4.14v9.72h11.38v-9.72h4.14v23.76Z"/>
        <path class="cls-11" d="M345.62,490.62c0-.34,.07-.66,.2-.97,.13-.31,.32-.59,.56-.85,.24-.25,.51-.45,.81-.59,.3-.14,.63-.22,.99-.22,.34,0,.66,.07,.97,.22,.31,.14,.59,.34,.85,.59s.45,.53,.59,.85c.14,.31,.22,.64,.22,.97,0,.36-.07,.69-.22,.99-.14,.3-.34,.57-.59,.81-.25,.24-.53,.43-.85,.56-.31,.13-.64,.2-.97,.2-.7,0-1.3-.25-1.8-.76s-.76-1.1-.76-1.8Zm4.54,21.89h-3.96v-16.56h3.96v16.56Z"/>
        <path class="cls-11" d="M362.65,495.41c2.11,0,3.74,.53,4.9,1.6,1.15,1.07,1.73,2.57,1.73,4.52,0,.26-.02,.55-.05,.85s-.08,.59-.14,.88-.13,.55-.22,.77c-.08,.23-.17,.41-.27,.56h-10.48c.05,.72,.18,1.4,.4,2.03s.53,1.19,.94,1.66c.41,.47,.91,.84,1.49,1.12,.59,.28,1.28,.41,2.07,.41,.89,0,1.83-.17,2.83-.5,1-.34,1.84-.76,2.54-1.26l.65,2.95c-.31,.19-.7,.4-1.15,.63-.46,.23-.97,.44-1.55,.63-.58,.19-1.19,.35-1.85,.49-.66,.13-1.35,.2-2.07,.2-1.34,0-2.53-.23-3.56-.7-1.03-.47-1.9-1.1-2.59-1.91s-1.22-1.73-1.58-2.79c-.36-1.06-.54-2.16-.54-3.31s.19-2.3,.56-3.37c.37-1.07,.92-2.01,1.64-2.83,.72-.82,1.61-1.46,2.68-1.93,1.07-.47,2.29-.7,3.65-.7Zm-.11,3.1c-1.01,0-1.87,.29-2.57,.88-.71,.59-1.22,1.39-1.53,2.39h6.88c.02-.07,.04-.16,.05-.25,.01-.09,.02-.22,.02-.36,0-.77-.26-1.4-.79-1.91-.53-.5-1.21-.76-2.05-.76Z"/>
        <path class="cls-11" d="M382.78,499.55c-.24-.19-.61-.35-1.12-.47s-.94-.18-1.3-.18c-.48,0-.88,.11-1.19,.34-.31,.23-.59,.53-.83,.9-.24,.37-.44,.8-.61,1.28-.17,.48-.32,.97-.47,1.48v9.61h-3.96v-16.56h3.1l.18,3.46h.14c.24-.5,.49-1,.76-1.48,.26-.48,.56-.91,.9-1.28,.34-.37,.73-.67,1.17-.9,.44-.23,.97-.34,1.57-.34,.96,0,1.86,.31,2.7,.94l-1.04,3.2Z"/>
        <path class="cls-11" d="M399.62,508.91h9.9v3.6h-14.04v-23.76h4.14v20.16Z"/>
        <path class="cls-11" d="M412.11,490.62c0-.34,.07-.66,.2-.97,.13-.31,.32-.59,.56-.85,.24-.25,.51-.45,.81-.59,.3-.14,.63-.22,.99-.22,.34,0,.66,.07,.97,.22,.31,.14,.59,.34,.85,.59s.45,.53,.59,.85c.14,.31,.22,.64,.22,.97,0,.36-.07,.69-.22,.99-.14,.3-.34,.57-.59,.81-.25,.24-.53,.43-.85,.56-.31,.13-.64,.2-.97,.2-.7,0-1.3-.25-1.8-.76s-.76-1.1-.76-1.8Zm4.54,21.89h-3.96v-16.56h3.96v16.56Z"/>
        <path class="cls-11" d="M432.35,512.51v-10.94c0-1.97-.78-2.95-2.34-2.95-.38,0-.8,.07-1.24,.22-.44,.14-.88,.35-1.3,.63-.42,.28-.8,.62-1.15,1.03-.35,.41-.59,.88-.74,1.4v10.62h-3.96v-16.56h3.1l.18,2.45h.14c.48-1.01,1.24-1.76,2.29-2.25,1.04-.49,2.15-.74,3.33-.74s2.15,.22,3.08,.67,1.61,1.21,2.07,2.29c.48-.98,1.24-1.72,2.27-2.21,1.03-.49,2.14-.74,3.31-.74,.77,0,1.49,.1,2.18,.31,.68,.2,1.28,.53,1.8,.99,.52,.46,.92,1.06,1.22,1.8,.3,.74,.45,1.66,.45,2.74v11.27h-3.96v-10.94c0-1.97-.78-2.95-2.34-2.95-.38,0-.8,.07-1.24,.22-.44,.14-.88,.35-1.3,.63-.42,.28-.8,.62-1.15,1.03-.35,.41-.59,.88-.74,1.4v10.62h-3.96Z"/>
        <path class="cls-11" d="M451.1,490.62c0-.34,.07-.66,.2-.97,.13-.31,.32-.59,.56-.85,.24-.25,.51-.45,.81-.59,.3-.14,.63-.22,.99-.22,.34,0,.66,.07,.97,.22,.31,.14,.59,.34,.85,.59s.45,.53,.59,.85c.14,.31,.22,.64,.22,.97,0,.36-.07,.69-.22,.99-.14,.3-.34,.57-.59,.81-.25,.24-.53,.43-.85,.56-.31,.13-.64,.2-.97,.2-.7,0-1.3-.25-1.8-.76s-.76-1.1-.76-1.8Zm4.54,21.89h-3.96v-16.56h3.96v16.56Z"/>
        <path class="cls-11" d="M461.36,498.36h-2.05v-2.16l2.34-.36,.65-4.9h3.02v5h3.17v2.41h-3.17v9.5c0,.72,.07,1.21,.22,1.46,.14,.25,.42,.38,.83,.38,.31,0,.62-.06,.94-.18,.31-.12,.77-.35,1.37-.68l.65,2.84c-.46,.38-1.1,.69-1.93,.92-.83,.23-1.65,.34-2.47,.34-.72,0-1.31-.1-1.78-.29-.47-.19-.83-.47-1.1-.85-.26-.37-.44-.82-.54-1.35s-.14-1.12-.14-1.76v-10.33Z"/>
        <path class="cls-11" d="M486.2,512.51h-4.14v-23.76h4.14v10.37c1.37-1.3,2.59-2.56,3.67-3.78,1.01-1.15,1.92-2.27,2.74-3.37,.82-1.09,1.52-2.17,2.12-3.22h4.54c-1.06,1.44-2.06,2.76-3.02,3.96s-2.02,2.45-3.17,3.74c-.43,.48-.88,.97-1.33,1.48s-.92,1.01-1.4,1.51l10.62,13.07h-4.79l-8.46-10.4-1.51,1.4v9Z"/>
        <path class="cls-11" d="M506.76,495.95v10.76c0,.98,.26,1.73,.77,2.25,.52,.52,1.18,.77,2,.77s1.61-.28,2.3-.85c.7-.56,1.21-1.37,1.55-2.43v-10.51h4v16.56h-3.1l-.22-2.3h-.14c-.26,.55-.6,1-1.01,1.35-.41,.35-.86,.62-1.35,.83-.49,.2-1,.35-1.53,.43-.53,.08-1.04,.13-1.55,.13-.79,0-1.53-.1-2.21-.29-.68-.19-1.28-.51-1.8-.95-.52-.44-.92-1.03-1.22-1.76-.3-.73-.45-1.64-.45-2.72v-11.27h3.96Z"/>
        <path class="cls-11" d="M531.81,499.55c-.24-.19-.61-.35-1.12-.47s-.94-.18-1.3-.18c-.48,0-.88,.11-1.19,.34-.31,.23-.59,.53-.83,.9-.24,.37-.44,.8-.61,1.28-.17,.48-.32,.97-.47,1.48v9.61h-3.96v-16.56h3.1l.18,3.46h.14c.24-.5,.49-1,.76-1.48,.26-.48,.56-.91,.9-1.28,.34-.37,.73-.67,1.17-.9,.44-.23,.97-.34,1.57-.34,.96,0,1.86,.31,2.7,.94l-1.04,3.2Z"/>
        <path class="cls-11" d="M540.85,498.36c-.79,0-1.41,.15-1.85,.45-.44,.3-.67,.73-.67,1.28,0,.36,.13,.69,.38,.99s.79,.55,1.6,.74l2.56,.58c1.01,.22,1.82,.53,2.43,.94,.61,.41,1.09,.85,1.44,1.33,.35,.48,.58,.97,.7,1.48,.12,.5,.18,.97,.18,1.4,0,.77-.16,1.48-.47,2.14-.31,.66-.76,1.23-1.33,1.71-.58,.48-1.27,.86-2.09,1.13-.82,.28-1.73,.41-2.74,.41-1.27,0-2.45-.19-3.53-.56s-1.94-.79-2.59-1.24l.94-3.42c.82,.79,1.73,1.38,2.75,1.76,1.02,.38,1.96,.58,2.83,.58,.91,0,1.61-.2,2.09-.59,.48-.4,.72-.94,.72-1.64,0-.41-.12-.75-.36-1.03-.24-.28-.72-.51-1.44-.7l-3.46-.86c-.82-.19-1.48-.47-2-.83-.52-.36-.92-.76-1.22-1.21s-.5-.91-.61-1.39c-.11-.48-.16-.94-.16-1.37,0-1.61,.56-2.85,1.69-3.73,1.13-.88,2.59-1.31,4.39-1.31,.94,0,1.94,.13,3.02,.38,1.08,.25,1.99,.62,2.74,1.1l-1.04,3.24c-.48-.38-1.15-.77-2.02-1.17-.86-.4-1.82-.59-2.88-.59Z"/>
        <path class="cls-11" d="M325.43,541.56c-.79,0-1.41,.15-1.85,.45-.44,.3-.67,.73-.67,1.28,0,.36,.13,.69,.38,.99s.79,.55,1.6,.74l2.56,.58c1.01,.22,1.82,.53,2.43,.94,.61,.41,1.09,.85,1.44,1.33,.35,.48,.58,.97,.7,1.48,.12,.5,.18,.97,.18,1.4,0,.77-.16,1.48-.47,2.14-.31,.66-.76,1.23-1.33,1.71-.58,.48-1.27,.86-2.09,1.13-.82,.28-1.73,.41-2.74,.41-1.27,0-2.45-.19-3.53-.56s-1.94-.79-2.59-1.24l.94-3.42c.82,.79,1.73,1.38,2.75,1.76,1.02,.38,1.96,.58,2.83,.58,.91,0,1.61-.2,2.09-.59,.48-.4,.72-.94,.72-1.64,0-.41-.12-.75-.36-1.03-.24-.28-.72-.51-1.44-.7l-3.46-.86c-.82-.19-1.48-.47-2-.83-.52-.36-.92-.76-1.22-1.21s-.5-.91-.61-1.39c-.11-.48-.16-.94-.16-1.37,0-1.61,.56-2.85,1.69-3.73,1.13-.88,2.59-1.31,4.39-1.31,.94,0,1.94,.13,3.02,.38,1.08,.25,1.99,.62,2.74,1.1l-1.04,3.24c-.48-.38-1.15-.77-2.02-1.17-.86-.4-1.82-.59-2.88-.59Z"/>
        <path class="cls-11" d="M343.5,538.61c2.11,0,3.74,.53,4.9,1.6,1.15,1.07,1.73,2.57,1.73,4.52,0,.26-.02,.55-.05,.85s-.08,.59-.14,.88-.13,.55-.22,.77c-.08,.23-.17,.41-.27,.56h-10.48c.05,.72,.18,1.4,.4,2.03s.53,1.19,.94,1.66c.41,.47,.91,.84,1.49,1.12,.59,.28,1.28,.41,2.07,.41,.89,0,1.83-.17,2.83-.5,1-.34,1.84-.76,2.54-1.26l.65,2.95c-.31,.19-.7,.4-1.15,.63-.46,.23-.97,.44-1.55,.63-.58,.19-1.19,.35-1.85,.49-.66,.13-1.35,.2-2.07,.2-1.34,0-2.53-.23-3.56-.7-1.03-.47-1.9-1.1-2.59-1.91s-1.22-1.73-1.58-2.79c-.36-1.06-.54-2.16-.54-3.31s.19-2.3,.56-3.37c.37-1.07,.92-2.01,1.64-2.83,.72-.82,1.61-1.46,2.68-1.93,1.07-.47,2.29-.7,3.65-.7Zm-.11,3.1c-1.01,0-1.87,.29-2.57,.88-.71,.59-1.22,1.39-1.53,2.39h6.88c.02-.07,.04-.16,.05-.25,.01-.09,.02-.22,.02-.36,0-.77-.26-1.4-.79-1.91-.53-.5-1.21-.76-2.05-.76Z"/>
        <path class="cls-11" d="M354.91,541.56h-2.05v-2.16l2.34-.36,.65-4.9h3.02v5h3.17v2.41h-3.17v9.5c0,.72,.07,1.21,.22,1.46,.14,.25,.42,.38,.83,.38,.31,0,.62-.06,.94-.18,.31-.12,.77-.35,1.37-.68l.65,2.84c-.46,.38-1.1,.69-1.93,.92-.83,.23-1.65,.34-2.47,.34-.72,0-1.31-.1-1.78-.29-.47-.19-.83-.47-1.1-.85-.26-.37-.44-.82-.54-1.35s-.14-1.12-.14-1.76v-10.33Z"/>
        <path class="cls-11" d="M372.7,542.36h-7.2v-3.2h11.3v3.2l-7.78,10.15h8.14v3.2h-12.02v-3.2l7.56-10.15Z"/>
        <path class="cls-11" d="M388.54,538.61c2.11,0,3.74,.53,4.9,1.6,1.15,1.07,1.73,2.57,1.73,4.52,0,.26-.02,.55-.05,.85s-.08,.59-.14,.88-.13,.55-.22,.77c-.08,.23-.17,.41-.27,.56h-10.48c.05,.72,.18,1.4,.4,2.03s.53,1.19,.94,1.66c.41,.47,.91,.84,1.49,1.12,.59,.28,1.28,.41,2.07,.41,.89,0,1.83-.17,2.83-.5,1-.34,1.84-.76,2.54-1.26l.65,2.95c-.31,.19-.7,.4-1.15,.63-.46,.23-.97,.44-1.55,.63-.58,.19-1.19,.35-1.85,.49-.66,.13-1.35,.2-2.07,.2-1.34,0-2.53-.23-3.56-.7-1.03-.47-1.9-1.1-2.59-1.91s-1.22-1.73-1.58-2.79c-.36-1.06-.54-2.16-.54-3.31s.19-2.3,.56-3.37c.37-1.07,.92-2.01,1.64-2.83,.72-.82,1.61-1.46,2.68-1.93,1.07-.47,2.29-.7,3.65-.7Zm-.11,3.1c-1.01,0-1.87,.29-2.57,.88-.71,.59-1.22,1.39-1.53,2.39h6.88c.02-.07,.04-.16,.05-.25,.01-.09,.02-.22,.02-.36,0-.77-.26-1.4-.79-1.91-.53-.5-1.21-.76-2.05-.76Z"/>
        <path class="cls-11" d="M410.28,555.71v-10.94c0-1.97-.84-2.95-2.52-2.95-.41,0-.85,.07-1.31,.22-.47,.14-.92,.35-1.35,.63-.43,.28-.82,.62-1.17,1.03-.35,.41-.61,.88-.77,1.4v10.62h-3.96v-16.56h3.1l.18,2.45h.14c.5-1.01,1.29-1.76,2.36-2.25,1.07-.49,2.21-.74,3.44-.74,.79,0,1.54,.1,2.23,.31s1.31,.53,1.85,.99,.97,1.06,1.28,1.8c.31,.74,.47,1.66,.47,2.74v11.27h-3.96Z"/>
      </g>
      <g>
        <path class="cls-11" d="M446.94,163.31h-2.34v8.95h-4.14v-23.85h5.72c1.34,0,2.57,.16,3.67,.48,1.1,.32,2.05,.8,2.84,1.45s1.4,1.44,1.84,2.38c.43,.94,.65,2.03,.65,3.27,0,1-.17,1.94-.5,2.82-.34,.88-.84,1.66-1.51,2.32s-1.53,1.2-2.57,1.59c-1.04,.39-2.26,.59-3.65,.59Zm-.18-11.52h-1.12c-.36,0-.71,.04-1.04,.13v7.9c.34,.02,.69,.04,1.06,.04h1.17c1.3,0,2.27-.36,2.93-1.08s.99-1.76,.99-3.12c0-1.15-.29-2.08-.88-2.79-.59-.72-1.63-1.08-3.11-1.08Z"/>
        <path class="cls-11" d="M465.59,155.18c1.46,0,2.72,.25,3.78,.74,1.06,.49,1.93,1.15,2.61,1.98,.68,.83,1.19,1.78,1.51,2.84,.32,1.07,.49,2.19,.49,3.37s-.16,2.29-.49,3.33c-.32,1.04-.83,1.96-1.51,2.74-.68,.78-1.55,1.4-2.59,1.85s-2.27,.68-3.69,.68-2.72-.24-3.78-.72c-1.06-.48-1.93-1.12-2.63-1.93-.7-.8-1.21-1.73-1.55-2.79-.34-1.06-.5-2.17-.5-3.35s.17-2.29,.5-3.35c.34-1.06,.85-1.99,1.53-2.79,.68-.8,1.55-1.44,2.61-1.91,1.06-.47,2.29-.7,3.71-.7Zm.07,14.54c.7,0,1.3-.15,1.82-.45,.52-.3,.94-.71,1.28-1.22,.34-.52,.58-1.11,.74-1.78s.23-1.38,.23-2.12-.08-1.51-.25-2.21-.43-1.33-.77-1.87-.79-.97-1.31-1.3c-.53-.32-1.16-.49-1.91-.49-.7,0-1.3,.15-1.8,.45s-.92,.7-1.24,1.21-.56,1.09-.72,1.76c-.16,.67-.23,1.38-.23,2.12s.08,1.51,.23,2.21c.16,.71,.41,1.34,.76,1.89,.35,.55,.79,.99,1.31,1.31,.53,.32,1.15,.49,1.87,.49Z"/>
        <path class="cls-11" d="M483.01,158.13c-.79,0-1.41,.15-1.85,.45-.44,.3-.67,.73-.67,1.28,0,.36,.13,.69,.38,.99s.79,.55,1.6,.74l2.56,.58c1.01,.22,1.82,.53,2.43,.94,.61,.41,1.09,.85,1.44,1.33,.35,.48,.58,.97,.7,1.48,.12,.5,.18,.97,.18,1.4,0,.77-.16,1.48-.47,2.14-.31,.66-.76,1.23-1.33,1.71-.58,.48-1.27,.86-2.09,1.13-.82,.28-1.73,.41-2.74,.41-1.27,0-2.45-.19-3.53-.56s-1.94-.79-2.59-1.24l.94-3.42c.82,.79,1.73,1.38,2.75,1.76,1.02,.38,1.96,.58,2.83,.58,.91,0,1.61-.2,2.09-.59,.48-.4,.72-.94,.72-1.64,0-.41-.12-.75-.36-1.03-.24-.28-.72-.51-1.44-.7l-3.46-.86c-.82-.19-1.48-.47-2-.83-.52-.36-.92-.76-1.22-1.21s-.5-.91-.61-1.39c-.11-.48-.16-.94-.16-1.37,0-1.61,.56-2.85,1.69-3.73,1.13-.88,2.59-1.31,4.39-1.31,.94,0,1.94,.13,3.02,.38,1.08,.25,1.99,.62,2.74,1.1l-1.04,3.24c-.48-.38-1.15-.77-2.02-1.17-.86-.4-1.82-.59-2.88-.59Z"/>
        <path class="cls-11" d="M492.98,150.39c0-.34,.07-.66,.2-.97,.13-.31,.32-.59,.56-.85,.24-.25,.51-.45,.81-.59,.3-.14,.63-.22,.99-.22,.34,0,.66,.07,.97,.22,.31,.14,.59,.34,.85,.59s.45,.53,.59,.85c.14,.31,.22,.64,.22,.97,0,.36-.07,.69-.22,.99-.14,.3-.34,.57-.59,.81-.25,.24-.53,.43-.85,.56-.31,.13-.64,.2-.97,.2-.7,0-1.3-.25-1.8-.76s-.76-1.1-.76-1.8Zm4.54,21.89h-3.96v-16.56h3.96v16.56Z"/>
        <path class="cls-11" d="M503.24,158.13h-2.05v-2.16l2.34-.36,.65-4.9h3.02v5h3.17v2.41h-3.17v9.5c0,.72,.07,1.21,.22,1.46,.14,.25,.42,.38,.83,.38,.31,0,.62-.06,.94-.18,.31-.12,.77-.35,1.37-.68l.65,2.84c-.46,.38-1.1,.69-1.93,.92-.83,.23-1.65,.34-2.47,.34-.72,0-1.31-.1-1.78-.29-.47-.19-.83-.47-1.1-.85-.26-.37-.44-.82-.54-1.35s-.14-1.12-.14-1.76v-10.33Z"/>
        <path class="cls-11" d="M513.86,150.39c0-.34,.07-.66,.2-.97,.13-.31,.32-.59,.56-.85,.24-.25,.51-.45,.81-.59,.3-.14,.63-.22,.99-.22,.34,0,.66,.07,.97,.22,.31,.14,.59,.34,.85,.59s.45,.53,.59,.85c.14,.31,.22,.64,.22,.97,0,.36-.07,.69-.22,.99-.14,.3-.34,.57-.59,.81-.25,.24-.53,.43-.85,.56-.31,.13-.64,.2-.97,.2-.7,0-1.3-.25-1.8-.76s-.76-1.1-.76-1.8Zm4.54,21.89h-3.96v-16.56h3.96v16.56Z"/>
        <path class="cls-11" d="M530.75,155.18c1.46,0,2.72,.25,3.78,.74,1.06,.49,1.93,1.15,2.61,1.98,.68,.83,1.19,1.78,1.51,2.84,.32,1.07,.49,2.19,.49,3.37s-.16,2.29-.49,3.33c-.32,1.04-.83,1.96-1.51,2.74-.68,.78-1.55,1.4-2.59,1.85s-2.27,.68-3.69,.68-2.72-.24-3.78-.72c-1.06-.48-1.93-1.12-2.63-1.93-.7-.8-1.21-1.73-1.55-2.79-.34-1.06-.5-2.17-.5-3.35s.17-2.29,.5-3.35c.34-1.06,.85-1.99,1.53-2.79,.68-.8,1.55-1.44,2.61-1.91,1.06-.47,2.29-.7,3.71-.7Zm.07,14.54c.7,0,1.3-.15,1.82-.45,.52-.3,.94-.71,1.28-1.22,.34-.52,.58-1.11,.74-1.78s.23-1.38,.23-2.12-.08-1.51-.25-2.21-.43-1.33-.77-1.87-.79-.97-1.31-1.3c-.53-.32-1.16-.49-1.91-.49-.7,0-1.3,.15-1.8,.45s-.92,.7-1.24,1.21-.56,1.09-.72,1.76c-.16,.67-.23,1.38-.23,2.12s.08,1.51,.23,2.21c.16,.71,.41,1.34,.76,1.89,.35,.55,.79,.99,1.31,1.31,.53,.32,1.15,.49,1.87,.49Z"/>
        <path class="cls-11" d="M554.22,172.28v-10.94c0-1.97-.84-2.95-2.52-2.95-.41,0-.85,.07-1.31,.22-.47,.14-.92,.35-1.35,.63-.43,.28-.82,.62-1.17,1.03-.35,.41-.61,.88-.77,1.4v10.62h-3.96v-16.56h3.1l.18,2.45h.14c.5-1.01,1.29-1.76,2.36-2.25,1.07-.49,2.21-.74,3.44-.74,.79,0,1.54,.1,2.23,.31s1.31,.53,1.85,.99,.97,1.06,1.28,1.8c.31,.74,.47,1.66,.47,2.74v11.27h-3.96Z"/>
        <path class="cls-11" d="M452.12,203.96l-3.56,11.52h-4.79l-6.01-16.56h4.14l4.32,12.71,3.92-12.71h3.96l3.92,12.71,4.32-12.71h4.07l-6.01,16.56h-4.72l-3.56-11.52Z"/>
        <path class="cls-11" d="M468.79,193.59c0-.34,.07-.66,.2-.97,.13-.31,.32-.59,.56-.85,.24-.25,.51-.45,.81-.59,.3-.14,.63-.22,.99-.22,.34,0,.66,.07,.97,.22,.31,.14,.59,.34,.85,.59s.45,.53,.59,.85c.14,.31,.22,.64,.22,.97,0,.36-.07,.69-.22,.99-.14,.3-.34,.57-.59,.81-.25,.24-.53,.43-.85,.56-.31,.13-.64,.2-.97,.2-.7,0-1.3-.25-1.8-.76s-.76-1.1-.76-1.8Zm4.54,21.89h-3.96v-16.56h3.96v16.56Z"/>
        <path class="cls-11" d="M487.76,202.52c-.24-.19-.61-.35-1.12-.47s-.94-.18-1.3-.18c-.48,0-.88,.11-1.19,.34-.31,.23-.59,.53-.83,.9-.24,.37-.44,.8-.61,1.28-.17,.48-.32,.97-.47,1.48v9.61h-3.96v-16.56h3.1l.18,3.46h.14c.24-.5,.49-1,.76-1.48,.26-.48,.56-.91,.9-1.28,.34-.37,.73-.67,1.17-.9,.44-.23,.97-.34,1.57-.34,.96,0,1.86,.31,2.7,.94l-1.04,3.2Z"/>
        <path class="cls-11" d="M498.03,215.91c-1.13,0-2.16-.23-3.1-.68-.94-.46-1.73-1.08-2.39-1.87s-1.17-1.73-1.53-2.81c-.36-1.08-.54-2.26-.54-3.53,0-1.13,.15-2.21,.45-3.26s.76-1.96,1.39-2.75,1.4-1.43,2.32-1.91c.92-.48,2.02-.72,3.29-.72,1.15,0,2.18,.19,3.1,.58,.91,.38,1.64,.92,2.2,1.62v-11.74h3.92v26.64h-3.17l-.29-2.27h-.14c-.67,.74-1.43,1.38-2.29,1.91-.85,.53-1.93,.79-3.22,.79Zm.5-2.99c.38,0,.79-.05,1.22-.16,.43-.11,.86-.26,1.28-.45,.42-.19,.82-.43,1.21-.7,.38-.28,.71-.59,.97-.95v-6.91c-.72-.89-1.45-1.49-2.2-1.82-.74-.32-1.46-.49-2.16-.49-.77,0-1.43,.15-1.98,.45-.55,.3-1.01,.71-1.39,1.24s-.65,1.13-.83,1.82c-.18,.68-.27,1.4-.27,2.14s.08,1.43,.25,2.14c.17,.71,.42,1.33,.76,1.87,.34,.54,.77,.98,1.3,1.31,.53,.34,1.14,.5,1.84,.5Z"/>
        <path class="cls-11" d="M447.3,241.58c2.11,0,3.74,.53,4.9,1.6,1.15,1.07,1.73,2.57,1.73,4.52,0,.26-.02,.55-.05,.85s-.08,.59-.14,.88-.13,.55-.22,.77c-.08,.23-.17,.41-.27,.56h-10.48c.05,.72,.18,1.4,.4,2.03s.53,1.19,.94,1.66c.41,.47,.91,.84,1.49,1.12,.59,.28,1.28,.41,2.07,.41,.89,0,1.83-.17,2.83-.5,1-.34,1.84-.76,2.54-1.26l.65,2.95c-.31,.19-.7,.4-1.15,.63-.46,.23-.97,.44-1.55,.63-.58,.19-1.19,.35-1.85,.49-.66,.13-1.35,.2-2.07,.2-1.34,0-2.53-.23-3.56-.7-1.03-.47-1.9-1.1-2.59-1.91s-1.22-1.73-1.58-2.79c-.36-1.06-.54-2.16-.54-3.31s.19-2.3,.56-3.37c.37-1.07,.92-2.01,1.64-2.83,.72-.82,1.61-1.46,2.68-1.93,1.07-.47,2.29-.7,3.65-.7Zm-.11,3.1c-1.01,0-1.87,.29-2.57,.88-.71,.59-1.22,1.39-1.53,2.39h6.88c.02-.07,.04-.16,.05-.25,.01-.09,.02-.22,.02-.36,0-.77-.26-1.4-.79-1.91-.53-.5-1.21-.76-2.05-.76Z"/>
        <path class="cls-11" d="M467.42,245.72c-.24-.19-.61-.35-1.12-.47s-.94-.18-1.3-.18c-.48,0-.88,.11-1.19,.34-.31,.23-.59,.53-.83,.9-.24,.37-.44,.8-.61,1.28-.17,.48-.32,.97-.47,1.48v9.61h-3.96v-16.56h3.1l.18,3.46h.14c.24-.5,.49-1,.76-1.48,.26-.48,.56-.91,.9-1.28,.34-.37,.73-.67,1.17-.9,.44-.23,.97-.34,1.57-.34,.96,0,1.86,.31,2.7,.94l-1.04,3.2Z"/>
        <path class="cls-11" d="M478.48,241.58c1.46,0,2.72,.25,3.78,.74,1.06,.49,1.93,1.15,2.61,1.98,.68,.83,1.19,1.78,1.51,2.84,.32,1.07,.49,2.19,.49,3.37s-.16,2.29-.49,3.33c-.32,1.04-.83,1.96-1.51,2.74-.68,.78-1.55,1.4-2.59,1.85s-2.27,.68-3.69,.68-2.72-.24-3.78-.72c-1.06-.48-1.93-1.12-2.63-1.93-.7-.8-1.21-1.73-1.55-2.79-.34-1.06-.5-2.17-.5-3.35s.17-2.29,.5-3.35c.34-1.06,.85-1.99,1.53-2.79,.68-.8,1.55-1.44,2.61-1.91,1.06-.47,2.29-.7,3.71-.7Zm-4.46-4.93c0-.55,.2-1.04,.61-1.48,.41-.43,.89-.65,1.44-.65s1.04,.22,1.48,.65c.43,.43,.65,.92,.65,1.48s-.22,1.03-.65,1.44c-.43,.41-.92,.61-1.48,.61s-1.03-.2-1.44-.61-.61-.89-.61-1.44Zm4.54,19.48c.7,0,1.3-.15,1.82-.45,.52-.3,.94-.71,1.28-1.22,.34-.52,.58-1.11,.74-1.78s.23-1.38,.23-2.12-.08-1.51-.25-2.21-.43-1.33-.77-1.87-.79-.97-1.31-1.3c-.53-.32-1.16-.49-1.91-.49-.7,0-1.3,.15-1.8,.45s-.92,.7-1.24,1.21-.56,1.09-.72,1.76c-.16,.67-.23,1.38-.23,2.12s.08,1.51,.23,2.21c.16,.71,.41,1.34,.76,1.89,.35,.55,.79,.99,1.31,1.31,.53,.32,1.15,.49,1.87,.49Zm.36-19.48c0-.55,.2-1.04,.61-1.48,.41-.43,.89-.65,1.44-.65s1.04,.22,1.48,.65,.65,.92,.65,1.48-.22,1.03-.65,1.44c-.43,.41-.92,.61-1.48,.61s-1.03-.2-1.44-.61c-.41-.41-.61-.89-.61-1.44Z"/>
        <path class="cls-11" d="M491.47,244.53h-2.05v-2.05l2.05-.32c0-1.37,.04-2.53,.13-3.49,.08-.96,.2-1.77,.34-2.43,.14-.66,.31-1.19,.49-1.6,.18-.41,.37-.74,.56-1.01,.48-.62,1.11-1.07,1.89-1.35,.78-.28,1.64-.41,2.57-.41h.58c.26,0,.56,.03,.88,.08s.66,.13,1.01,.25c.35,.11,.67,.26,.95,.43l-.9,3.06c-.24-.14-.64-.34-1.19-.59-.55-.25-1.09-.38-1.62-.38-.31,0-.58,.07-.79,.22-.22,.14-.4,.41-.54,.79-.14,.38-.25,.9-.31,1.55-.06,.65-.09,1.48-.09,2.48v2.38h3.17v2.41h-3.17v14.15h-3.96v-14.15Z"/>
        <path class="cls-11" d="M502.63,244.53h-2.05v-2.05l2.05-.32c0-1.37,.04-2.53,.13-3.49,.08-.96,.2-1.77,.34-2.43,.14-.66,.31-1.19,.49-1.6,.18-.41,.37-.74,.56-1.01,.48-.62,1.11-1.07,1.89-1.35,.78-.28,1.64-.41,2.57-.41h.58c.26,0,.56,.03,.88,.08s.66,.13,1.01,.25c.35,.11,.67,.26,.95,.43l-.9,3.06c-.24-.14-.64-.34-1.19-.59-.55-.25-1.09-.38-1.62-.38-.31,0-.58,.07-.79,.22-.22,.14-.4,.41-.54,.79-.14,.38-.25,.9-.31,1.55-.06,.65-.09,1.48-.09,2.48v2.38h3.17v2.41h-3.17v14.15h-3.96v-14.15Z"/>
        <path class="cls-11" d="M524.09,258.68v-10.94c0-1.97-.84-2.95-2.52-2.95-.41,0-.85,.07-1.31,.22-.47,.14-.92,.35-1.35,.63-.43,.28-.82,.62-1.17,1.03-.35,.41-.61,.88-.77,1.4v10.62h-3.96v-16.56h3.1l.18,2.45h.14c.5-1.01,1.29-1.76,2.36-2.25,1.07-.49,2.21-.74,3.44-.74,.79,0,1.54,.1,2.23,.31s1.31,.53,1.85,.99,.97,1.06,1.28,1.8c.31,.74,.47,1.66,.47,2.74v11.27h-3.96Z"/>
        <path class="cls-11" d="M540.22,241.58c2.11,0,3.74,.53,4.9,1.6,1.15,1.07,1.73,2.57,1.73,4.52,0,.26-.02,.55-.05,.85s-.08,.59-.14,.88-.13,.55-.22,.77c-.08,.23-.17,.41-.27,.56h-10.48c.05,.72,.18,1.4,.4,2.03s.53,1.19,.94,1.66c.41,.47,.91,.84,1.49,1.12,.59,.28,1.28,.41,2.07,.41,.89,0,1.83-.17,2.83-.5,1-.34,1.84-.76,2.54-1.26l.65,2.95c-.31,.19-.7,.4-1.15,.63-.46,.23-.97,.44-1.55,.63-.58,.19-1.19,.35-1.85,.49-.66,.13-1.35,.2-2.07,.2-1.34,0-2.53-.23-3.56-.7-1.03-.47-1.9-1.1-2.59-1.91s-1.22-1.73-1.58-2.79c-.36-1.06-.54-2.16-.54-3.31s.19-2.3,.56-3.37c.37-1.07,.92-2.01,1.64-2.83,.72-.82,1.61-1.46,2.68-1.93,1.07-.47,2.29-.7,3.65-.7Zm-.11,3.1c-1.01,0-1.87,.29-2.57,.88-.71,.59-1.22,1.39-1.53,2.39h6.88c.02-.07,.04-.16,.05-.25,.01-.09,.02-.22,.02-.36,0-.77-.26-1.4-.79-1.91-.53-.5-1.21-.76-2.05-.76Z"/>
        <path class="cls-11" d="M551.63,244.53h-2.05v-2.16l2.34-.36,.65-4.9h3.02v5h3.17v2.41h-3.17v9.5c0,.72,.07,1.21,.22,1.46,.14,.25,.42,.38,.83,.38,.31,0,.62-.06,.94-.18,.31-.12,.77-.35,1.37-.68l.65,2.84c-.46,.38-1.1,.69-1.93,.92-.83,.23-1.65,.34-2.47,.34-.72,0-1.31-.1-1.78-.29-.47-.19-.83-.47-1.1-.85-.26-.37-.44-.82-.54-1.35s-.14-1.12-.14-1.76v-10.33Z"/>
      </g>
    </g>
  </g>
</svg>