<?xml version="1.0" encoding="UTF-8"?>
<svg id="Ebene_2" data-name="Ebene 2" xmlns="http://www.w3.org/2000/svg" viewBox="0 0 730 600">
  <defs>
    <style>
      .cls-1 {
        fill: #fff;
      }

      .cls-2 {
        fill: #628fcb;
      }

      .cls-3 {
        stroke: #ed6a3d;
      }

      .cls-3, .cls-4 {
        fill: #ed6a3d;
      }

      .cls-3, .cls-5, .cls-6, .cls-7, .cls-8, .cls-9, .cls-10 {
        stroke-miterlimit: 10;
      }

      .cls-3, .cls-6, .cls-9 {
        stroke-width: 3px;
      }

      .cls-5 {
        stroke-dasharray: 0 0 16.46 16.46;
      }

      .cls-5, .cls-7, .cls-8, .cls-9, .cls-11, .cls-10 {
        fill: none;
      }

      .cls-5, .cls-7, .cls-8, .cls-10 {
        stroke: #1d1d1b;
        stroke-width: 7px;
      }

      .cls-6 {
        fill: #628fca;
        stroke: #628fca;
      }

      .cls-7 {
        stroke-dasharray: 0 0 20.46 20.46;
      }

      .cls-8 {
        stroke-dasharray: 0 0 20.45 20.45;
      }

      .cls-9 {
        stroke: #628fcb;
      }

      .cls-12 {
        fill: #eee;
      }

      .cls-13 {
        fill: #1d1d1b;
      }
    </style>
  </defs>
  <g id="Ebene_1-2" data-name="Ebene 1">
    <rect class="cls-12" width="730" height="600"/>
    <rect class="cls-1" x="25" y="25" width="680" height="550"/>
    <circle class="cls-2" cx="205.82" cy="67.35" r="15"/>
    <path class="cls-6" d="M200.06,67.35h205.28"/>
    <circle class="cls-4" cx="205.82" cy="235.73" r="15"/>
    <circle class="cls-2" cx="413.66" cy="68.35" r="15"/>
    <g>
      <path class="cls-13" d="M235.26,440.55c.31-.08,.8-.13,1.48-.13h5.87c2.33,0,4.24,.24,5.74,.71s2.74,1.13,3.73,1.96c1.27,1.1,2.2,2.49,2.77,4.18s.86,3.56,.86,5.61c0,1.55-.2,3.03-.59,4.45-.4,1.42-1.1,2.66-2.12,3.73-1.02,1.07-2.42,1.92-4.21,2.55-1.79,.63-4.07,.95-6.86,.95h-3.24c-1.15,0-2.29-.1-3.42-.29v-23.74Zm7.67,20.68c2.9,0,5.02-.69,6.35-2.08,1.33-1.39,2-3.64,2-6.78,0-1.41-.14-2.65-.41-3.71-.28-1.06-.75-1.95-1.42-2.67s-1.57-1.25-2.7-1.61c-1.13-.36-2.53-.54-4.21-.54h-3.13v17.28c.67,.07,1.32,.11,1.94,.11h1.58Z"/>
      <path class="cls-13" d="M267.37,447.19c2.11,0,3.74,.54,4.9,1.6,1.15,1.07,1.73,2.57,1.73,4.52,0,.26-.02,.55-.05,.85s-.08,.59-.14,.88-.13,.55-.22,.77c-.08,.23-.17,.41-.27,.56h-10.48c.05,.72,.18,1.4,.4,2.03,.22,.64,.53,1.19,.94,1.66s.91,.84,1.49,1.12c.59,.28,1.28,.41,2.07,.41,.89,0,1.83-.17,2.83-.5,1-.34,1.84-.76,2.54-1.26l.65,2.95c-.31,.19-.7,.4-1.15,.63-.46,.23-.97,.44-1.55,.63s-1.19,.35-1.85,.49c-.66,.13-1.35,.2-2.07,.2-1.34,0-2.53-.23-3.56-.7-1.03-.47-1.9-1.1-2.59-1.91-.7-.8-1.22-1.73-1.58-2.79-.36-1.06-.54-2.16-.54-3.31s.19-2.3,.56-3.37c.37-1.07,.92-2.01,1.64-2.83,.72-.82,1.61-1.46,2.68-1.93,1.07-.47,2.29-.7,3.65-.7Zm-.11,3.1c-1.01,0-1.87,.29-2.57,.88-.71,.59-1.22,1.39-1.53,2.39h6.88c.02-.07,.04-.16,.05-.25,.01-.1,.02-.22,.02-.36,0-.77-.26-1.4-.79-1.91-.53-.5-1.21-.76-2.05-.76Z"/>
      <path class="cls-13" d="M287.49,451.33c-.24-.19-.61-.35-1.12-.47-.5-.12-.94-.18-1.3-.18-.48,0-.88,.11-1.19,.34-.31,.23-.59,.53-.83,.9-.24,.37-.44,.8-.61,1.28s-.32,.97-.47,1.48v9.61h-3.96v-16.56h3.1l.18,3.46h.14c.24-.5,.49-1,.76-1.48,.26-.48,.56-.91,.9-1.28s.73-.67,1.17-.9c.44-.23,.97-.34,1.57-.34,.96,0,1.86,.31,2.7,.94l-1.04,3.2Z"/>
      <path class="cls-13" d="M309.6,464.29l-.29-2.27h-.14c-.65,.82-1.53,1.47-2.65,1.96-1.12,.49-2.25,.74-3.4,.74-1.51,0-2.7-.44-3.56-1.31-.86-.88-1.3-2.03-1.3-3.47,0-.98,.21-1.87,.63-2.65s1.03-1.44,1.82-1.98,1.74-.95,2.84-1.24,2.34-.43,3.71-.43h1.55v-.54c0-.94-.3-1.62-.9-2.05-.62-.43-1.6-.65-2.92-.65-1.78,0-3.36,.4-4.75,1.19l-.76-2.99c1.61-.94,3.55-1.4,5.83-1.4,2.4,0,4.22,.49,5.47,1.48,.58,.46,1.05,1.04,1.42,1.76s.56,1.58,.56,2.59v11.27h-3.17Zm-4.93-2.77c.77,0,1.54-.19,2.3-.56,.77-.37,1.38-.87,1.84-1.49v-3.28h-.68c-1.97,0-3.4,.25-4.3,.76-.9,.5-1.35,1.31-1.35,2.41,0,1.44,.73,2.16,2.2,2.16Z"/>
      <path class="cls-13" d="M325.54,453.56l7.06,10.73h-4.32l-5.36-8.14-1.4,1.4v6.73h-3.96v-26.64h3.96v15.37l5.51-5.29h4.43l-5.9,5.83Z"/>
      <path class="cls-13" d="M336.06,450.14h-2.05v-2.16l2.34-.36,.65-4.9h3.02v5h3.17v2.41h-3.17v9.5c0,.72,.07,1.21,.22,1.46s.42,.38,.83,.38c.31,0,.62-.06,.94-.18s.77-.35,1.37-.68l.65,2.84c-.46,.38-1.1,.69-1.93,.92-.83,.23-1.65,.34-2.47,.34-.72,0-1.31-.1-1.78-.29-.47-.19-.83-.47-1.1-.85-.26-.37-.44-.82-.54-1.35-.1-.53-.14-1.12-.14-1.76v-10.33Z"/>
      <path class="cls-13" d="M351.07,447.73v10.76c0,.98,.26,1.73,.77,2.25s1.18,.77,2,.77,1.61-.28,2.3-.85c.7-.56,1.21-1.37,1.55-2.43v-10.51h4v16.56h-3.1l-.22-2.3h-.14c-.26,.55-.6,1-1.01,1.35s-.86,.62-1.35,.83c-.49,.2-1,.35-1.53,.43-.53,.08-1.04,.13-1.55,.13-.79,0-1.53-.1-2.21-.29-.68-.19-1.28-.51-1.8-.95-.52-.44-.92-1.03-1.22-1.76-.3-.73-.45-1.64-.45-2.72v-11.27h3.96Z"/>
      <path class="cls-13" d="M374.18,447.19c2.11,0,3.74,.54,4.9,1.6,1.15,1.07,1.73,2.57,1.73,4.52,0,.26-.02,.55-.05,.85s-.08,.59-.14,.88-.13,.55-.22,.77c-.08,.23-.17,.41-.27,.56h-10.48c.05,.72,.18,1.4,.4,2.03,.22,.64,.53,1.19,.94,1.66s.91,.84,1.49,1.12c.59,.28,1.28,.41,2.07,.41,.89,0,1.83-.17,2.83-.5,1-.34,1.84-.76,2.54-1.26l.65,2.95c-.31,.19-.7,.4-1.15,.63-.46,.23-.97,.44-1.55,.63s-1.19,.35-1.85,.49c-.66,.13-1.35,.2-2.07,.2-1.34,0-2.53-.23-3.56-.7-1.03-.47-1.9-1.1-2.59-1.91-.7-.8-1.22-1.73-1.58-2.79-.36-1.06-.54-2.16-.54-3.31s.19-2.3,.56-3.37c.37-1.07,.92-2.01,1.64-2.83,.72-.82,1.61-1.46,2.68-1.93,1.07-.47,2.29-.7,3.65-.7Zm-.11,3.1c-1.01,0-1.87,.29-2.57,.88-.71,.59-1.22,1.39-1.53,2.39h6.88c.02-.07,.04-.16,.05-.25,.01-.1,.02-.22,.02-.36,0-.77-.26-1.4-.79-1.91-.53-.5-1.21-.76-2.05-.76Z"/>
      <path class="cls-13" d="M389.01,464.29h-3.96v-26.64h3.96v26.64Z"/>
      <path class="cls-13" d="M398.37,464.29h-3.96v-26.64h3.96v26.64Z"/>
      <path class="cls-13" d="M411.08,447.19c2.11,0,3.74,.54,4.9,1.6,1.15,1.07,1.73,2.57,1.73,4.52,0,.26-.02,.55-.05,.85s-.08,.59-.14,.88-.13,.55-.22,.77c-.08,.23-.17,.41-.27,.56h-10.48c.05,.72,.18,1.4,.4,2.03,.22,.64,.53,1.19,.94,1.66s.91,.84,1.49,1.12c.59,.28,1.28,.41,2.07,.41,.89,0,1.83-.17,2.83-.5,1-.34,1.84-.76,2.54-1.26l.65,2.95c-.31,.19-.7,.4-1.15,.63-.46,.23-.97,.44-1.55,.63s-1.19,.35-1.85,.49c-.66,.13-1.35,.2-2.07,.2-1.34,0-2.53-.23-3.56-.7-1.03-.47-1.9-1.1-2.59-1.91-.7-.8-1.22-1.73-1.58-2.79-.36-1.06-.54-2.16-.54-3.31s.19-2.3,.56-3.37c.37-1.07,.92-2.01,1.64-2.83,.72-.82,1.61-1.46,2.68-1.93,1.07-.47,2.29-.7,3.65-.7Zm-.11,3.1c-1.01,0-1.87,.29-2.57,.88-.71,.59-1.22,1.39-1.53,2.39h6.88c.02-.07,.04-.16,.05-.25,.01-.1,.02-.22,.02-.36,0-.77-.26-1.4-.79-1.91-.53-.5-1.21-.76-2.05-.76Z"/>
      <path class="cls-13" d="M239.4,507.49h-4.14v-23.76h4.14v10.37c1.37-1.3,2.59-2.56,3.67-3.78,1.01-1.15,1.92-2.27,2.74-3.37,.82-1.09,1.52-2.17,2.12-3.22h4.54c-1.06,1.44-2.06,2.76-3.02,3.96s-2.02,2.45-3.17,3.74c-.43,.48-.88,.97-1.33,1.48s-.92,1.01-1.4,1.51l10.62,13.07h-4.79l-8.46-10.4-1.51,1.4v9Z"/>
      <path class="cls-13" d="M259.95,490.93v10.76c0,.98,.26,1.73,.77,2.25,.52,.52,1.18,.77,2,.77s1.61-.28,2.3-.85c.7-.56,1.21-1.37,1.55-2.43v-10.51h4v16.56h-3.1l-.22-2.3h-.14c-.26,.55-.6,1-1.01,1.35-.41,.35-.86,.62-1.35,.83-.49,.2-1,.35-1.53,.43-.53,.08-1.04,.13-1.55,.13-.79,0-1.53-.1-2.21-.29-.68-.19-1.28-.51-1.8-.95-.52-.44-.92-1.03-1.22-1.76-.3-.73-.45-1.64-.45-2.72v-11.27h3.96Z"/>
      <path class="cls-13" d="M285.01,494.53c-.24-.19-.61-.35-1.12-.47s-.94-.18-1.3-.18c-.48,0-.88,.11-1.19,.34-.31,.23-.59,.53-.83,.9-.24,.37-.44,.8-.61,1.28-.17,.48-.32,.97-.47,1.48v9.61h-3.96v-16.56h3.1l.18,3.46h.14c.24-.5,.49-1,.76-1.48,.26-.48,.56-.91,.9-1.28s.73-.67,1.17-.9c.44-.23,.97-.34,1.57-.34,.96,0,1.86,.31,2.7,.94l-1.04,3.2Z"/>
      <path class="cls-13" d="M294.05,493.34c-.79,0-1.41,.15-1.85,.45-.44,.3-.67,.73-.67,1.28,0,.36,.13,.69,.38,.99,.25,.3,.79,.55,1.6,.74l2.56,.58c1.01,.22,1.82,.53,2.43,.94,.61,.41,1.09,.85,1.44,1.33,.35,.48,.58,.97,.7,1.48,.12,.5,.18,.97,.18,1.4,0,.77-.16,1.48-.47,2.14-.31,.66-.76,1.23-1.33,1.71-.58,.48-1.27,.86-2.09,1.13-.82,.28-1.73,.41-2.74,.41-1.27,0-2.45-.19-3.53-.56s-1.94-.79-2.59-1.24l.94-3.42c.82,.79,1.73,1.38,2.75,1.76,1.02,.38,1.96,.58,2.83,.58,.91,0,1.61-.2,2.09-.59,.48-.4,.72-.94,.72-1.64,0-.41-.12-.75-.36-1.03-.24-.28-.72-.51-1.44-.7l-3.46-.86c-.82-.19-1.48-.47-2-.83-.52-.36-.92-.76-1.22-1.21s-.5-.91-.61-1.39c-.11-.48-.16-.94-.16-1.37,0-1.61,.56-2.85,1.69-3.73,1.13-.88,2.59-1.31,4.39-1.31,.94,0,1.94,.13,3.02,.38,1.08,.25,1.99,.62,2.74,1.1l-1.04,3.24c-.48-.38-1.15-.77-2.02-1.17-.86-.4-1.82-.59-2.88-.59Z"/>
    </g>
    <path class="cls-10" d="M29.26,446.81c22.45-43.4,44.91-86.81,67.36-130.21,14.82,12.51,29.65,25.02,44.47,37.53,21.45-39.32,42.89-78.64,64.34-117.96h0"/>
    <g>
      <path class="cls-10" d="M684.91,571.66c-1.58-2.94-3.16-5.87-4.74-8.81"/>
      <path class="cls-7" d="M670.49,544.84c-82.38-153.12-164.76-306.24-247.14-459.37"/>
      <path class="cls-10" d="M418.5,76.47c-1.58-2.94-3.16-5.87-4.74-8.81-1.67,2.88-3.34,5.77-5.01,8.65"/>
      <path class="cls-8" d="M398.51,94.01c-39.28,67.85-78.56,135.7-117.84,203.55"/>
      <path class="cls-10" d="M275.54,306.41c-1.67,2.88-3.34,5.77-5.01,8.65-2.12-2.57-4.24-5.14-6.36-7.71"/>
      <path class="cls-5" d="M253.69,294.66c-12.22-14.81-24.44-29.62-36.66-44.43"/>
      <path class="cls-10" d="M211.79,243.88c-2.12-2.57-4.24-5.14-6.36-7.71"/>
    </g>
    <g>
      <path class="cls-2" d="M413.28,109.31c.26,78.23,.51,156.46,.77,234.7"/>
      <g>
        <path class="cls-9" d="M413.35,130.84c.23,71.06,.46,142.11,.7,213.17"/>
        <polygon class="cls-2" points="398.4 135.26 413.28 109.31 428.32 135.17 398.4 135.26"/>
      </g>
    </g>
    <path class="cls-3" d="M208.06,510.38c-.26-88.35-.51-176.71-.77-265.06"/>
    <g>
      <path class="cls-2" d="M174.43,69.12c-39.77-.26-79.55-.51-119.32-.77"/>
      <g>
        <path class="cls-9" d="M152.9,68.98c-32.6-.21-65.2-.42-97.8-.63"/>
        <polygon class="cls-2" points="148.62 53.99 174.43 69.12 148.43 83.91 148.62 53.99"/>
      </g>
    </g>
    <rect class="cls-11" width="730" height="600"/>
    <g>
      <path class="cls-13" d="M73.5,133.75h-4.14v-10.44h-11.38v10.44h-4.14v-23.76h4.14v9.72h11.38v-9.72h4.14v23.76Z"/>
      <path class="cls-13" d="M78.4,111.86c0-.34,.07-.66,.2-.97,.13-.31,.32-.59,.56-.85,.24-.25,.51-.45,.81-.59,.3-.14,.63-.22,.99-.22,.34,0,.66,.07,.97,.22,.31,.14,.59,.34,.85,.59s.45,.53,.59,.85c.14,.31,.22,.64,.22,.97,0,.36-.07,.69-.22,.99-.14,.3-.34,.57-.59,.81-.25,.24-.53,.43-.85,.56-.31,.13-.64,.2-.97,.2-.7,0-1.3-.25-1.8-.76s-.76-1.1-.76-1.8Zm4.54,21.89h-3.96v-16.56h3.96v16.56Z"/>
      <path class="cls-13" d="M95.42,116.65c2.11,0,3.74,.53,4.9,1.6,1.15,1.07,1.73,2.57,1.73,4.52,0,.26-.02,.55-.05,.85s-.08,.59-.14,.88-.13,.55-.22,.77c-.08,.23-.17,.41-.27,.56h-10.48c.05,.72,.18,1.4,.4,2.03s.53,1.19,.94,1.66c.41,.47,.91,.84,1.49,1.12,.59,.28,1.28,.41,2.07,.41,.89,0,1.83-.17,2.83-.5,1-.34,1.84-.76,2.54-1.26l.65,2.95c-.31,.19-.7,.4-1.15,.63-.46,.23-.97,.44-1.55,.63-.58,.19-1.19,.35-1.85,.49-.66,.13-1.35,.2-2.07,.2-1.34,0-2.53-.23-3.56-.7-1.03-.47-1.9-1.1-2.59-1.91s-1.22-1.73-1.58-2.79c-.36-1.06-.54-2.16-.54-3.31s.19-2.3,.56-3.37c.37-1.07,.92-2.01,1.64-2.83,.72-.82,1.61-1.46,2.68-1.93,1.07-.47,2.29-.7,3.65-.7Zm-.11,3.1c-1.01,0-1.87,.29-2.57,.88-.71,.59-1.22,1.39-1.53,2.39h6.88c.02-.07,.04-.16,.05-.25,.01-.09,.02-.22,.02-.36,0-.77-.26-1.4-.79-1.91-.53-.5-1.21-.76-2.05-.76Z"/>
      <path class="cls-13" d="M115.55,120.79c-.24-.19-.61-.35-1.12-.47s-.94-.18-1.3-.18c-.48,0-.88,.11-1.19,.34-.31,.23-.59,.53-.83,.9-.24,.37-.44,.8-.61,1.28-.17,.48-.32,.97-.47,1.48v9.61h-3.96v-16.56h3.1l.18,3.46h.14c.24-.5,.49-1,.76-1.48,.26-.48,.56-.91,.9-1.28,.34-.37,.73-.67,1.17-.9,.44-.23,.97-.34,1.57-.34,.96,0,1.86,.31,2.7,.94l-1.04,3.2Z"/>
      <path class="cls-13" d="M132.4,130.15h9.9v3.6h-14.04v-23.76h4.14v20.16Z"/>
      <path class="cls-13" d="M144.89,111.86c0-.34,.07-.66,.2-.97,.13-.31,.32-.59,.56-.85,.24-.25,.51-.45,.81-.59,.3-.14,.63-.22,.99-.22,.34,0,.66,.07,.97,.22,.31,.14,.59,.34,.85,.59s.45,.53,.59,.85c.14,.31,.22,.64,.22,.97,0,.36-.07,.69-.22,.99-.14,.3-.34,.57-.59,.81-.25,.24-.53,.43-.85,.56-.31,.13-.64,.2-.97,.2-.7,0-1.3-.25-1.8-.76s-.76-1.1-.76-1.8Zm4.54,21.89h-3.96v-16.56h3.96v16.56Z"/>
      <path class="cls-13" d="M165.12,133.75v-10.94c0-1.97-.78-2.95-2.34-2.95-.38,0-.8,.07-1.24,.22-.44,.14-.88,.35-1.3,.63-.42,.28-.8,.62-1.15,1.03-.35,.41-.59,.88-.74,1.4v10.62h-3.96v-16.56h3.1l.18,2.45h.14c.48-1.01,1.24-1.76,2.29-2.25,1.04-.49,2.15-.74,3.33-.74s2.15,.22,3.08,.67,1.61,1.21,2.07,2.29c.48-.98,1.24-1.72,2.27-2.21,1.03-.49,2.14-.74,3.31-.74,.77,0,1.49,.1,2.18,.31,.68,.2,1.28,.53,1.8,.99,.52,.46,.92,1.06,1.22,1.8,.3,.74,.45,1.66,.45,2.74v11.27h-3.96v-10.94c0-1.97-.78-2.95-2.34-2.95-.38,0-.8,.07-1.24,.22-.44,.14-.88,.35-1.3,.63-.42,.28-.8,.62-1.15,1.03-.35,.41-.59,.88-.74,1.4v10.62h-3.96Z"/>
      <path class="cls-13" d="M183.88,111.86c0-.34,.07-.66,.2-.97,.13-.31,.32-.59,.56-.85,.24-.25,.51-.45,.81-.59,.3-.14,.63-.22,.99-.22,.34,0,.66,.07,.97,.22,.31,.14,.59,.34,.85,.59s.45,.53,.59,.85c.14,.31,.22,.64,.22,.97,0,.36-.07,.69-.22,.99-.14,.3-.34,.57-.59,.81-.25,.24-.53,.43-.85,.56-.31,.13-.64,.2-.97,.2-.7,0-1.3-.25-1.8-.76s-.76-1.1-.76-1.8Zm4.54,21.89h-3.96v-16.56h3.96v16.56Z"/>
      <path class="cls-13" d="M194.14,119.6h-2.05v-2.16l2.34-.36,.65-4.9h3.02v5h3.17v2.41h-3.17v9.5c0,.72,.07,1.21,.22,1.46,.14,.25,.42,.38,.83,.38,.31,0,.62-.06,.94-.18,.31-.12,.77-.35,1.37-.68l.65,2.84c-.46,.38-1.1,.69-1.93,.92-.83,.23-1.65,.34-2.47,.34-.72,0-1.31-.1-1.78-.29-.47-.19-.83-.47-1.1-.85-.26-.37-.44-.82-.54-1.35s-.14-1.12-.14-1.76v-10.33Z"/>
      <path class="cls-13" d="M57.98,176.95h-4.14v-23.76h4.14v10.37c1.37-1.3,2.59-2.56,3.67-3.78,1.01-1.15,1.92-2.27,2.74-3.37,.82-1.09,1.52-2.17,2.12-3.22h4.54c-1.06,1.44-2.06,2.76-3.02,3.96s-2.02,2.45-3.17,3.74c-.43,.48-.88,.97-1.33,1.48s-.92,1.01-1.4,1.51l10.62,13.07h-4.79l-8.46-10.4-1.51,1.4v9Z"/>
      <path class="cls-13" d="M78.54,160.39v10.76c0,.98,.26,1.73,.77,2.25,.52,.52,1.18,.77,2,.77s1.61-.28,2.3-.85c.7-.56,1.21-1.37,1.55-2.43v-10.51h4v16.56h-3.1l-.22-2.3h-.14c-.26,.55-.6,1-1.01,1.35-.41,.35-.86,.62-1.35,.83-.49,.2-1,.35-1.53,.43-.53,.08-1.04,.13-1.55,.13-.79,0-1.53-.1-2.21-.29-.68-.19-1.28-.51-1.8-.95-.52-.44-.92-1.03-1.22-1.76-.3-.73-.45-1.64-.45-2.72v-11.27h3.96Z"/>
      <path class="cls-13" d="M103.6,163.99c-.24-.19-.61-.35-1.12-.47s-.94-.18-1.3-.18c-.48,0-.88,.11-1.19,.34-.31,.23-.59,.53-.83,.9-.24,.37-.44,.8-.61,1.28-.17,.48-.32,.97-.47,1.48v9.61h-3.96v-16.56h3.1l.18,3.46h.14c.24-.5,.49-1,.76-1.48,.26-.48,.56-.91,.9-1.28,.34-.37,.73-.67,1.17-.9,.44-.23,.97-.34,1.57-.34,.96,0,1.86,.31,2.7,.94l-1.04,3.2Z"/>
      <path class="cls-13" d="M112.63,162.8c-.79,0-1.41,.15-1.85,.45-.44,.3-.67,.73-.67,1.28,0,.36,.13,.69,.38,.99s.79,.55,1.6,.74l2.56,.58c1.01,.22,1.82,.53,2.43,.94,.61,.41,1.09,.85,1.44,1.33,.35,.48,.58,.97,.7,1.48,.12,.5,.18,.97,.18,1.4,0,.77-.16,1.48-.47,2.14-.31,.66-.76,1.23-1.33,1.71-.58,.48-1.27,.86-2.09,1.13-.82,.28-1.73,.41-2.74,.41-1.27,0-2.45-.19-3.53-.56s-1.94-.79-2.59-1.24l.94-3.42c.82,.79,1.73,1.38,2.75,1.76,1.02,.38,1.96,.58,2.83,.58,.91,0,1.61-.2,2.09-.59,.48-.4,.72-.94,.72-1.64,0-.41-.12-.75-.36-1.03-.24-.28-.72-.51-1.44-.7l-3.46-.86c-.82-.19-1.48-.47-2-.83-.52-.36-.92-.76-1.22-1.21s-.5-.91-.61-1.39c-.11-.48-.16-.94-.16-1.37,0-1.61,.56-2.85,1.69-3.73,1.13-.88,2.59-1.31,4.39-1.31,.94,0,1.94,.13,3.02,.38,1.08,.25,1.99,.62,2.74,1.1l-1.04,3.24c-.48-.38-1.15-.77-2.02-1.17-.86-.4-1.82-.59-2.88-.59Z"/>
      <path class="cls-13" d="M58.2,206c-.79,0-1.41,.15-1.85,.45-.44,.3-.67,.73-.67,1.28,0,.36,.13,.69,.38,.99s.79,.55,1.6,.74l2.56,.58c1.01,.22,1.82,.53,2.43,.94,.61,.41,1.09,.85,1.44,1.33,.35,.48,.58,.97,.7,1.48,.12,.5,.18,.97,.18,1.4,0,.77-.16,1.48-.47,2.14-.31,.66-.76,1.23-1.33,1.71-.58,.48-1.27,.86-2.09,1.13-.82,.28-1.73,.41-2.74,.41-1.27,0-2.45-.19-3.53-.56s-1.94-.79-2.59-1.24l.94-3.42c.82,.79,1.73,1.38,2.75,1.76,1.02,.38,1.96,.58,2.83,.58,.91,0,1.61-.2,2.09-.59,.48-.4,.72-.94,.72-1.64,0-.41-.12-.75-.36-1.03-.24-.28-.72-.51-1.44-.7l-3.46-.86c-.82-.19-1.48-.47-2-.83-.52-.36-.92-.76-1.22-1.21s-.5-.91-.61-1.39c-.11-.48-.16-.94-.16-1.37,0-1.61,.56-2.85,1.69-3.73,1.13-.88,2.59-1.31,4.39-1.31,.94,0,1.94,.13,3.02,.38,1.08,.25,1.99,.62,2.74,1.1l-1.04,3.24c-.48-.38-1.15-.77-2.02-1.17-.86-.4-1.82-.59-2.88-.59Z"/>
      <path class="cls-13" d="M76.27,203.05c2.11,0,3.74,.53,4.9,1.6,1.15,1.07,1.73,2.57,1.73,4.52,0,.26-.02,.55-.05,.85s-.08,.59-.14,.88-.13,.55-.22,.77c-.08,.23-.17,.41-.27,.56h-10.48c.05,.72,.18,1.4,.4,2.03s.53,1.19,.94,1.66c.41,.47,.91,.84,1.49,1.12,.59,.28,1.28,.41,2.07,.41,.89,0,1.83-.17,2.83-.5,1-.34,1.84-.76,2.54-1.26l.65,2.95c-.31,.19-.7,.4-1.15,.63-.46,.23-.97,.44-1.55,.63-.58,.19-1.19,.35-1.85,.49-.66,.13-1.35,.2-2.07,.2-1.34,0-2.53-.23-3.56-.7-1.03-.47-1.9-1.1-2.59-1.91s-1.22-1.73-1.58-2.79c-.36-1.06-.54-2.16-.54-3.31s.19-2.3,.56-3.37c.37-1.07,.92-2.01,1.64-2.83,.72-.82,1.61-1.46,2.68-1.93,1.07-.47,2.29-.7,3.65-.7Zm-.11,3.1c-1.01,0-1.87,.29-2.57,.88-.71,.59-1.22,1.39-1.53,2.39h6.88c.02-.07,.04-.16,.05-.25,.01-.09,.02-.22,.02-.36,0-.77-.26-1.4-.79-1.91-.53-.5-1.21-.76-2.05-.76Z"/>
      <path class="cls-13" d="M87.68,206h-2.05v-2.16l2.34-.36,.65-4.9h3.02v5h3.17v2.41h-3.17v9.5c0,.72,.07,1.21,.22,1.46,.14,.25,.42,.38,.83,.38,.31,0,.62-.06,.94-.18,.31-.12,.77-.35,1.37-.68l.65,2.84c-.46,.38-1.1,.69-1.93,.92-.83,.23-1.65,.34-2.47,.34-.72,0-1.31-.1-1.78-.29-.47-.19-.83-.47-1.1-.85-.26-.37-.44-.82-.54-1.35s-.14-1.12-.14-1.76v-10.33Z"/>
      <path class="cls-13" d="M105.47,206.8h-7.2v-3.2h11.3v3.2l-7.78,10.15h8.14v3.2h-12.02v-3.2l7.56-10.15Z"/>
      <path class="cls-13" d="M121.31,203.05c2.11,0,3.74,.53,4.9,1.6,1.15,1.07,1.73,2.57,1.73,4.52,0,.26-.02,.55-.05,.85s-.08,.59-.14,.88-.13,.55-.22,.77c-.08,.23-.17,.41-.27,.56h-10.48c.05,.72,.18,1.4,.4,2.03s.53,1.19,.94,1.66c.41,.47,.91,.84,1.49,1.12,.59,.28,1.28,.41,2.07,.41,.89,0,1.83-.17,2.83-.5,1-.34,1.84-.76,2.54-1.26l.65,2.95c-.31,.19-.7,.4-1.15,.63-.46,.23-.97,.44-1.55,.63-.58,.19-1.19,.35-1.85,.49-.66,.13-1.35,.2-2.07,.2-1.34,0-2.53-.23-3.56-.7-1.03-.47-1.9-1.1-2.59-1.91s-1.22-1.73-1.58-2.79c-.36-1.06-.54-2.16-.54-3.31s.19-2.3,.56-3.37c.37-1.07,.92-2.01,1.64-2.83,.72-.82,1.61-1.46,2.68-1.93,1.07-.47,2.29-.7,3.65-.7Zm-.11,3.1c-1.01,0-1.87,.29-2.57,.88-.71,.59-1.22,1.39-1.53,2.39h6.88c.02-.07,.04-.16,.05-.25,.01-.09,.02-.22,.02-.36,0-.77-.26-1.4-.79-1.91-.53-.5-1.21-.76-2.05-.76Z"/>
      <path class="cls-13" d="M143.05,220.15v-10.94c0-1.97-.84-2.95-2.52-2.95-.41,0-.85,.07-1.31,.22-.47,.14-.92,.35-1.35,.63-.43,.28-.82,.62-1.17,1.03-.35,.41-.61,.88-.77,1.4v10.62h-3.96v-16.56h3.1l.18,2.45h.14c.5-1.01,1.29-1.76,2.36-2.25,1.07-.49,2.21-.74,3.44-.74,.79,0,1.54,.1,2.23,.31s1.31,.53,1.85,.99,.97,1.06,1.28,1.8c.31,.74,.47,1.66,.47,2.74v11.27h-3.96Z"/>
    </g>
    <rect class="cls-1" x="457.09" y="196.34" width="180.33" height="180.33"/>
    <g>
      <path class="cls-13" d="M453.21,242.21h-2.34v8.95h-4.14v-23.85h5.72c1.34,0,2.57,.16,3.67,.48,1.1,.32,2.05,.8,2.84,1.45s1.4,1.44,1.84,2.38c.43,.94,.65,2.03,.65,3.27,0,1-.17,1.94-.5,2.82s-.84,1.66-1.51,2.32c-.67,.67-1.53,1.2-2.57,1.59-1.04,.39-2.26,.59-3.65,.59Zm-.18-11.52h-1.12c-.36,0-.71,.04-1.04,.13v7.9c.34,.02,.69,.04,1.06,.04h1.17c1.3,0,2.27-.36,2.93-1.08,.66-.72,.99-1.76,.99-3.12,0-1.15-.29-2.08-.88-2.79-.59-.72-1.63-1.08-3.11-1.08Z"/>
      <path class="cls-13" d="M471.85,234.08c1.46,0,2.72,.25,3.78,.74,1.06,.49,1.93,1.15,2.61,1.98,.68,.83,1.19,1.78,1.51,2.84,.32,1.07,.49,2.19,.49,3.37s-.16,2.29-.49,3.33c-.32,1.04-.83,1.96-1.51,2.74-.68,.78-1.55,1.4-2.59,1.85-1.04,.46-2.27,.68-3.69,.68s-2.72-.24-3.78-.72c-1.06-.48-1.93-1.12-2.63-1.93-.7-.8-1.21-1.73-1.55-2.79-.34-1.06-.5-2.17-.5-3.35s.17-2.29,.5-3.35c.34-1.06,.85-1.99,1.53-2.79,.68-.8,1.55-1.44,2.61-1.91,1.06-.47,2.29-.7,3.71-.7Zm.07,14.54c.7,0,1.3-.15,1.82-.45,.52-.3,.94-.71,1.28-1.22,.34-.52,.58-1.11,.74-1.78s.23-1.38,.23-2.12-.08-1.51-.25-2.21-.43-1.33-.77-1.87-.79-.97-1.31-1.3c-.53-.32-1.16-.49-1.91-.49-.7,0-1.3,.15-1.8,.45-.5,.3-.92,.7-1.24,1.21s-.56,1.09-.72,1.76c-.16,.67-.23,1.38-.23,2.12s.08,1.51,.23,2.21c.16,.71,.41,1.34,.76,1.89,.35,.55,.79,.99,1.31,1.31,.53,.32,1.15,.49,1.87,.49Z"/>
      <path class="cls-13" d="M489.28,237.03c-.79,0-1.41,.15-1.85,.45-.44,.3-.67,.73-.67,1.28,0,.36,.13,.69,.38,.99,.25,.3,.79,.55,1.6,.74l2.56,.58c1.01,.22,1.82,.53,2.43,.94,.61,.41,1.09,.85,1.44,1.33,.35,.48,.58,.97,.7,1.48,.12,.5,.18,.97,.18,1.4,0,.77-.16,1.48-.47,2.14-.31,.66-.76,1.23-1.33,1.71-.58,.48-1.27,.86-2.09,1.13-.82,.28-1.73,.41-2.74,.41-1.27,0-2.45-.19-3.53-.56s-1.94-.79-2.59-1.24l.94-3.42c.82,.79,1.73,1.38,2.75,1.76,1.02,.38,1.96,.58,2.83,.58,.91,0,1.61-.2,2.09-.59,.48-.4,.72-.94,.72-1.64,0-.41-.12-.75-.36-1.03-.24-.28-.72-.51-1.44-.7l-3.46-.86c-.82-.19-1.48-.47-2-.83-.52-.36-.92-.76-1.22-1.21s-.5-.91-.61-1.39c-.11-.48-.16-.94-.16-1.37,0-1.61,.56-2.85,1.69-3.73,1.13-.88,2.59-1.31,4.39-1.31,.94,0,1.94,.13,3.02,.38,1.08,.25,1.99,.62,2.74,1.1l-1.04,3.24c-.48-.38-1.15-.77-2.02-1.17-.86-.4-1.82-.59-2.88-.59Z"/>
      <path class="cls-13" d="M499.25,229.29c0-.34,.07-.66,.2-.97,.13-.31,.32-.59,.56-.85,.24-.25,.51-.45,.81-.59,.3-.14,.63-.22,.99-.22,.34,0,.66,.07,.97,.22,.31,.14,.59,.34,.85,.59s.45,.54,.59,.85,.22,.64,.22,.97c0,.36-.07,.69-.22,.99s-.34,.57-.59,.81c-.25,.24-.53,.43-.85,.56-.31,.13-.64,.2-.97,.2-.7,0-1.3-.25-1.8-.76s-.76-1.1-.76-1.8Zm4.54,21.89h-3.96v-16.56h3.96v16.56Z"/>
      <path class="cls-13" d="M509.51,237.03h-2.05v-2.16l2.34-.36,.65-4.9h3.02v5h3.17v2.41h-3.17v9.5c0,.72,.07,1.21,.22,1.46s.42,.38,.83,.38c.31,0,.62-.06,.94-.18s.77-.35,1.37-.68l.65,2.84c-.46,.38-1.1,.69-1.93,.92-.83,.23-1.65,.34-2.47,.34-.72,0-1.31-.1-1.78-.29-.47-.19-.83-.47-1.1-.85-.26-.37-.44-.82-.54-1.35-.1-.53-.14-1.12-.14-1.76v-10.33Z"/>
      <path class="cls-13" d="M520.13,229.29c0-.34,.07-.66,.2-.97,.13-.31,.32-.59,.56-.85,.24-.25,.51-.45,.81-.59,.3-.14,.63-.22,.99-.22,.34,0,.66,.07,.97,.22,.31,.14,.59,.34,.85,.59s.45,.54,.59,.85,.22,.64,.22,.97c0,.36-.07,.69-.22,.99s-.34,.57-.59,.81c-.25,.24-.53,.43-.85,.56-.31,.13-.64,.2-.97,.2-.7,0-1.3-.25-1.8-.76s-.76-1.1-.76-1.8Zm4.54,21.89h-3.96v-16.56h3.96v16.56Z"/>
      <path class="cls-13" d="M537.01,234.08c1.46,0,2.72,.25,3.78,.74,1.06,.49,1.93,1.15,2.61,1.98,.68,.83,1.19,1.78,1.51,2.84,.32,1.07,.49,2.19,.49,3.37s-.16,2.29-.49,3.33c-.32,1.04-.83,1.96-1.51,2.74-.68,.78-1.55,1.4-2.59,1.85-1.04,.46-2.27,.68-3.69,.68s-2.72-.24-3.78-.72c-1.06-.48-1.93-1.12-2.63-1.93-.7-.8-1.21-1.73-1.55-2.79-.34-1.06-.5-2.17-.5-3.35s.17-2.29,.5-3.35c.34-1.06,.85-1.99,1.53-2.79,.68-.8,1.55-1.44,2.61-1.91,1.06-.47,2.29-.7,3.71-.7Zm.07,14.54c.7,0,1.3-.15,1.82-.45,.52-.3,.94-.71,1.28-1.22,.34-.52,.58-1.11,.74-1.78s.23-1.38,.23-2.12-.08-1.51-.25-2.21-.43-1.33-.77-1.87-.79-.97-1.31-1.3c-.53-.32-1.16-.49-1.91-.49-.7,0-1.3,.15-1.8,.45-.5,.3-.92,.7-1.24,1.21s-.56,1.09-.72,1.76c-.16,.67-.23,1.38-.23,2.12s.08,1.51,.23,2.21c.16,.71,.41,1.34,.76,1.89,.35,.55,.79,.99,1.31,1.31,.53,.32,1.15,.49,1.87,.49Z"/>
      <path class="cls-13" d="M560.48,251.18v-10.94c0-1.97-.84-2.95-2.52-2.95-.41,0-.85,.07-1.31,.22-.47,.14-.92,.35-1.35,.63-.43,.28-.82,.62-1.17,1.03s-.61,.88-.77,1.4v10.62h-3.96v-16.56h3.1l.18,2.45h.14c.5-1.01,1.29-1.76,2.36-2.25s2.21-.74,3.44-.74c.79,0,1.54,.1,2.23,.31,.7,.2,1.31,.53,1.85,.99s.97,1.06,1.28,1.8c.31,.74,.47,1.66,.47,2.74v11.27h-3.96Z"/>
      <path class="cls-13" d="M458.39,282.86l-3.56,11.52h-4.79l-6.01-16.56h4.14l4.32,12.71,3.92-12.71h3.96l3.92,12.71,4.32-12.71h4.07l-6.01,16.56h-4.72l-3.56-11.52Z"/>
      <path class="cls-13" d="M475.06,272.49c0-.34,.07-.66,.2-.97,.13-.31,.32-.59,.56-.85,.24-.25,.51-.45,.81-.59,.3-.14,.63-.22,.99-.22,.34,0,.66,.07,.97,.22,.31,.14,.59,.34,.85,.59s.45,.54,.59,.85,.22,.64,.22,.97c0,.36-.07,.69-.22,.99s-.34,.57-.59,.81c-.25,.24-.53,.43-.85,.56-.31,.13-.64,.2-.97,.2-.7,0-1.3-.25-1.8-.76s-.76-1.1-.76-1.8Zm4.54,21.89h-3.96v-16.56h3.96v16.56Z"/>
      <path class="cls-13" d="M494.03,281.42c-.24-.19-.61-.35-1.12-.47s-.94-.18-1.3-.18c-.48,0-.88,.11-1.19,.34-.31,.23-.59,.53-.83,.9-.24,.37-.44,.8-.61,1.28-.17,.48-.32,.97-.47,1.48v9.61h-3.96v-16.56h3.1l.18,3.46h.14c.24-.5,.49-1,.76-1.48,.26-.48,.56-.91,.9-1.28s.73-.67,1.17-.9c.44-.23,.97-.34,1.57-.34,.96,0,1.86,.31,2.7,.94l-1.04,3.2Z"/>
      <path class="cls-13" d="M504.29,294.81c-1.13,0-2.16-.23-3.1-.68-.94-.46-1.73-1.08-2.39-1.87s-1.17-1.73-1.53-2.81c-.36-1.08-.54-2.26-.54-3.53,0-1.13,.15-2.21,.45-3.26s.76-1.96,1.39-2.75,1.4-1.43,2.32-1.91c.92-.48,2.02-.72,3.29-.72,1.15,0,2.18,.19,3.1,.58,.91,.38,1.64,.92,2.2,1.62v-11.74h3.92v26.64h-3.17l-.29-2.27h-.14c-.67,.74-1.43,1.38-2.29,1.91-.85,.53-1.93,.79-3.22,.79Zm.5-2.99c.38,0,.79-.05,1.22-.16,.43-.11,.86-.26,1.28-.45,.42-.19,.82-.43,1.21-.7,.38-.28,.71-.59,.97-.95v-6.91c-.72-.89-1.45-1.49-2.2-1.82s-1.46-.49-2.16-.49c-.77,0-1.43,.15-1.98,.45-.55,.3-1.01,.71-1.39,1.24-.37,.53-.65,1.13-.83,1.82-.18,.68-.27,1.4-.27,2.14s.08,1.43,.25,2.14c.17,.71,.42,1.33,.76,1.87,.34,.54,.77,.98,1.3,1.31,.53,.34,1.14,.5,1.84,.5Z"/>
      <path class="cls-13" d="M448.24,332.36c-1.08-.46-1.86-1.16-2.34-2.12-.48-.96-.72-2-.72-3.13,0-.94,.16-1.81,.47-2.63,.31-.82,.76-1.52,1.35-2.11,.59-.59,1.3-1.05,2.12-1.39,.83-.34,1.77-.5,2.83-.5,.62,0,1.24,.06,1.85,.17,.61,.12,1.15,.29,1.6,.53,1.01,0,1.93-.07,2.75-.2,.83-.14,1.63-.31,2.39-.54l.32,.25-.4,2.74-.18,.18-2.56-.29-.04,.11c.82,1.03,1.22,2.25,1.22,3.64,0,.84-.15,1.63-.45,2.36-.3,.73-.74,1.37-1.31,1.91-.58,.54-1.29,.97-2.14,1.3s-1.82,.49-2.9,.49c-.26,0-.47,0-.63-.02-.16-.01-.31-.02-.45-.02-.41,.14-.72,.33-.94,.56-.22,.23-.32,.46-.32,.7,0,.26,.13,.49,.4,.68,.26,.19,.67,.32,1.22,.4l3.49,.43c.79,.1,1.53,.26,2.21,.5,.68,.24,1.28,.56,1.8,.97,.52,.41,.92,.9,1.21,1.48,.29,.58,.43,1.24,.43,1.98s-.16,1.46-.47,2.16c-.31,.7-.8,1.31-1.48,1.84-.67,.53-1.52,.95-2.54,1.26-1.02,.31-2.25,.47-3.69,.47-1.27,0-2.39-.13-3.37-.38s-1.79-.59-2.47-1.03c-.67-.43-1.18-.94-1.53-1.53-.35-.59-.52-1.22-.52-1.89,0-.48,.08-.95,.25-1.42,.17-.47,.4-.9,.7-1.3,.3-.4,.65-.75,1.04-1.06,.4-.31,.82-.54,1.28-.68v-.14c-.55-.24-.94-.56-1.15-.97-.22-.41-.32-.8-.32-1.19,0-.5,.17-.97,.5-1.4,.34-.43,.82-.77,1.44-1.01v-.14Zm2.74,6.01c-.82,.14-1.51,.49-2.09,1.03s-.86,1.16-.86,1.85c0,.77,.38,1.34,1.13,1.73,.76,.38,1.85,.58,3.29,.58s2.54-.2,3.38-.59c.84-.4,1.26-1.04,1.26-1.93s-.47-1.48-1.4-1.84c-.94-.36-2.51-.64-4.72-.83Zm1.12-8.03c.98,0,1.73-.32,2.23-.95,.5-.63,.76-1.41,.76-2.32,0-.43-.06-.87-.18-1.31-.12-.44-.31-.85-.58-1.21-.26-.36-.59-.65-.99-.88-.4-.23-.86-.34-1.39-.34s-.95,.1-1.33,.31c-.38,.2-.7,.47-.95,.81s-.44,.71-.56,1.13-.18,.85-.18,1.28,.07,.86,.2,1.28c.13,.42,.33,.79,.59,1.12,.26,.32,.59,.59,.99,.79,.4,.2,.86,.31,1.39,.31Z"/>
      <path class="cls-13" d="M471.35,320.48c2.11,0,3.74,.53,4.9,1.6,1.15,1.07,1.73,2.57,1.73,4.52,0,.26-.02,.55-.05,.85s-.08,.59-.14,.88-.13,.55-.22,.77c-.08,.23-.17,.41-.27,.56h-10.48c.05,.72,.18,1.4,.4,2.03s.53,1.19,.94,1.66c.41,.47,.91,.84,1.49,1.12,.59,.28,1.28,.41,2.07,.41,.89,0,1.83-.17,2.83-.5,1-.34,1.84-.76,2.54-1.26l.65,2.95c-.31,.19-.7,.4-1.15,.63-.46,.23-.97,.44-1.55,.63-.58,.19-1.19,.35-1.85,.49-.66,.13-1.35,.2-2.07,.2-1.34,0-2.53-.23-3.56-.7-1.03-.47-1.9-1.1-2.59-1.91s-1.22-1.73-1.58-2.79c-.36-1.06-.54-2.16-.54-3.31s.19-2.3,.56-3.37c.37-1.07,.92-2.01,1.64-2.83,.72-.82,1.61-1.46,2.68-1.93,1.07-.47,2.29-.7,3.65-.7Zm-.11,3.1c-1.01,0-1.87,.29-2.57,.88-.71,.59-1.22,1.39-1.53,2.39h6.88c.02-.07,.04-.16,.05-.25,.01-.09,.02-.22,.02-.36,0-.77-.26-1.4-.79-1.91-.53-.5-1.21-.76-2.05-.76Z"/>
      <path class="cls-13" d="M487.04,323.43c-.79,0-1.41,.15-1.85,.45-.44,.3-.67,.73-.67,1.28,0,.36,.13,.69,.38,.99s.79,.55,1.6,.74l2.56,.58c1.01,.22,1.82,.53,2.43,.94,.61,.41,1.09,.85,1.44,1.33,.35,.48,.58,.97,.7,1.48,.12,.5,.18,.97,.18,1.4,0,.77-.16,1.48-.47,2.14-.31,.66-.76,1.23-1.33,1.71-.58,.48-1.27,.86-2.09,1.13-.82,.28-1.73,.41-2.74,.41-1.27,0-2.45-.19-3.53-.56s-1.94-.79-2.59-1.24l.94-3.42c.82,.79,1.73,1.38,2.75,1.76,1.02,.38,1.96,.58,2.83,.58,.91,0,1.61-.2,2.09-.59,.48-.4,.72-.94,.72-1.64,0-.41-.12-.75-.36-1.03-.24-.28-.72-.51-1.44-.7l-3.46-.86c-.82-.19-1.48-.47-2-.83-.52-.36-.92-.76-1.22-1.21-.3-.44-.5-.91-.61-1.39-.11-.48-.16-.94-.16-1.37,0-1.61,.56-2.85,1.69-3.73,1.13-.88,2.59-1.31,4.39-1.31,.94,0,1.94,.13,3.02,.38,1.08,.25,1.99,.62,2.74,1.1l-1.04,3.24c-.48-.38-1.15-.77-2.02-1.17-.86-.4-1.82-.59-2.88-.59Z"/>
      <path class="cls-13" d="M510.37,325.12c-.26-.19-.59-.38-.99-.58-.4-.19-.82-.36-1.28-.5-.46-.14-.93-.26-1.42-.34-.49-.08-.95-.13-1.39-.13-.82,0-1.51,.15-2.07,.45-.56,.3-1.02,.7-1.37,1.19-.35,.49-.6,1.06-.76,1.71-.16,.65-.23,1.32-.23,2.02,0,.82,.1,1.58,.29,2.29s.48,1.33,.86,1.85c.38,.53,.87,.95,1.46,1.26,.59,.31,1.27,.47,2.03,.47,.86,0,1.78-.17,2.75-.52,.97-.35,1.78-.83,2.43-1.46l.72,3.38c-.67,.43-1.59,.84-2.75,1.22-1.16,.38-2.41,.58-3.73,.58-1.39,0-2.61-.24-3.65-.72s-1.91-1.12-2.59-1.93c-.68-.8-1.2-1.74-1.55-2.81-.35-1.07-.52-2.2-.52-3.4s.16-2.25,.49-3.29,.83-1.97,1.53-2.77c.7-.8,1.58-1.44,2.66-1.91,1.08-.47,2.38-.7,3.89-.7,1.15,0,2.28,.13,3.38,.4,1.1,.26,1.99,.61,2.66,1.04l-.86,3.2Z"/>
      <path class="cls-13" d="M519.16,323.46c.67-1.06,1.46-1.82,2.36-2.29,.9-.47,1.96-.7,3.19-.7,.72,0,1.42,.1,2.09,.31s1.27,.53,1.78,.99c.52,.46,.92,1.06,1.22,1.8,.3,.74,.45,1.66,.45,2.74v11.27h-3.96v-10.94c0-.98-.22-1.72-.65-2.21-.43-.49-1.02-.74-1.76-.74-.46,0-.93,.07-1.42,.22-.49,.14-.95,.36-1.39,.65-.43,.29-.82,.64-1.15,1.04-.34,.41-.59,.86-.76,1.37v10.62h-3.96v-26.64h3.96v12.53Z"/>
      <path class="cls-13" d="M539.24,337.58h-3.96v-26.64h3.96v26.64Z"/>
      <path class="cls-13" d="M551.81,320.48c1.46,0,2.72,.25,3.78,.74,1.06,.49,1.93,1.15,2.61,1.98,.68,.83,1.19,1.78,1.51,2.84,.32,1.07,.49,2.19,.49,3.37s-.16,2.29-.49,3.33c-.32,1.04-.83,1.96-1.51,2.74-.68,.78-1.55,1.4-2.59,1.85s-2.27,.68-3.69,.68-2.72-.24-3.78-.72c-1.06-.48-1.93-1.12-2.63-1.93-.7-.8-1.21-1.73-1.55-2.79-.34-1.06-.5-2.17-.5-3.35s.17-2.29,.5-3.35c.34-1.06,.85-1.99,1.53-2.79,.68-.8,1.55-1.44,2.61-1.91,1.06-.47,2.29-.7,3.71-.7Zm.07,14.54c.7,0,1.3-.15,1.82-.45,.52-.3,.94-.71,1.28-1.22,.34-.52,.58-1.11,.74-1.78s.23-1.38,.23-2.12-.08-1.51-.25-2.21-.43-1.33-.77-1.87-.79-.97-1.31-1.3c-.53-.32-1.16-.49-1.91-.49-.7,0-1.3,.15-1.8,.45s-.92,.7-1.24,1.21-.56,1.09-.72,1.76c-.16,.67-.23,1.38-.23,2.12s.08,1.51,.23,2.21c.16,.71,.41,1.34,.76,1.89,.35,.55,.79,.99,1.31,1.31,.53,.32,1.15,.49,1.87,.49Z"/>
      <path class="cls-13" d="M569.23,323.43c-.79,0-1.41,.15-1.85,.45-.44,.3-.67,.73-.67,1.28,0,.36,.13,.69,.38,.99s.79,.55,1.6,.74l2.56,.58c1.01,.22,1.82,.53,2.43,.94,.61,.41,1.09,.85,1.44,1.33,.35,.48,.58,.97,.7,1.48,.12,.5,.18,.97,.18,1.4,0,.77-.16,1.48-.47,2.14-.31,.66-.76,1.23-1.33,1.71-.58,.48-1.27,.86-2.09,1.13-.82,.28-1.73,.41-2.74,.41-1.27,0-2.45-.19-3.53-.56s-1.94-.79-2.59-1.24l.94-3.42c.82,.79,1.73,1.38,2.75,1.76,1.02,.38,1.96,.58,2.83,.58,.91,0,1.61-.2,2.09-.59,.48-.4,.72-.94,.72-1.64,0-.41-.12-.75-.36-1.03-.24-.28-.72-.51-1.44-.7l-3.46-.86c-.82-.19-1.48-.47-2-.83-.52-.36-.92-.76-1.22-1.21s-.5-.91-.61-1.39c-.11-.48-.16-.94-.16-1.37,0-1.61,.56-2.85,1.69-3.73,1.13-.88,2.59-1.31,4.39-1.31,.94,0,1.94,.13,3.02,.38,1.08,.25,1.99,.62,2.74,1.1l-1.04,3.24c-.48-.38-1.15-.77-2.02-1.17-.86-.4-1.82-.59-2.88-.59Z"/>
      <path class="cls-13" d="M584.82,323.43c-.79,0-1.41,.15-1.85,.45-.44,.3-.67,.73-.67,1.28,0,.36,.13,.69,.38,.99s.79,.55,1.6,.74l2.56,.58c1.01,.22,1.82,.53,2.43,.94,.61,.41,1.09,.85,1.44,1.33,.35,.48,.58,.97,.7,1.48,.12,.5,.18,.97,.18,1.4,0,.77-.16,1.48-.47,2.14-.31,.66-.76,1.23-1.33,1.71-.58,.48-1.27,.86-2.09,1.13-.82,.28-1.73,.41-2.74,.41-1.27,0-2.45-.19-3.53-.56s-1.94-.79-2.59-1.24l.94-3.42c.82,.79,1.73,1.38,2.75,1.76,1.02,.38,1.96,.58,2.83,.58,.91,0,1.61-.2,2.09-.59,.48-.4,.72-.94,.72-1.64,0-.41-.12-.75-.36-1.03-.24-.28-.72-.51-1.44-.7l-3.46-.86c-.82-.19-1.48-.47-2-.83-.52-.36-.92-.76-1.22-1.21s-.5-.91-.61-1.39c-.11-.48-.16-.94-.16-1.37,0-1.61,.56-2.85,1.69-3.73,1.13-.88,2.59-1.31,4.39-1.31,.94,0,1.94,.13,3.02,.38,1.08,.25,1.99,.62,2.74,1.1l-1.04,3.24c-.48-.38-1.15-.77-2.02-1.17-.86-.4-1.82-.59-2.88-.59Z"/>
      <path class="cls-13" d="M602.89,320.48c2.11,0,3.74,.53,4.9,1.6,1.15,1.07,1.73,2.57,1.73,4.52,0,.26-.02,.55-.05,.85s-.08,.59-.14,.88-.13,.55-.22,.77c-.08,.23-.17,.41-.27,.56h-10.48c.05,.72,.18,1.4,.4,2.03s.53,1.19,.94,1.66c.41,.47,.91,.84,1.49,1.12,.59,.28,1.28,.41,2.07,.41,.89,0,1.83-.17,2.83-.5,1-.34,1.84-.76,2.54-1.26l.65,2.95c-.31,.19-.7,.4-1.15,.63-.46,.23-.97,.44-1.55,.63-.58,.19-1.19,.35-1.85,.49-.66,.13-1.35,.2-2.07,.2-1.34,0-2.53-.23-3.56-.7-1.03-.47-1.9-1.1-2.59-1.91s-1.22-1.73-1.58-2.79c-.36-1.06-.54-2.16-.54-3.31s.19-2.3,.56-3.37c.37-1.07,.92-2.01,1.64-2.83,.72-.82,1.61-1.46,2.68-1.93,1.07-.47,2.29-.7,3.65-.7Zm-.11,3.1c-1.01,0-1.87,.29-2.57,.88-.71,.59-1.22,1.39-1.53,2.39h6.88c.02-.07,.04-.16,.05-.25,.01-.09,.02-.22,.02-.36,0-.77-.26-1.4-.79-1.91-.53-.5-1.21-.76-2.05-.76Z"/>
      <path class="cls-13" d="M624.63,337.58v-10.94c0-1.97-.84-2.95-2.52-2.95-.41,0-.85,.07-1.31,.22-.47,.14-.92,.35-1.35,.63-.43,.28-.82,.62-1.17,1.03-.35,.41-.61,.88-.77,1.4v10.62h-3.96v-16.56h3.1l.18,2.45h.14c.5-1.01,1.29-1.76,2.36-2.25,1.07-.49,2.21-.74,3.44-.74,.79,0,1.54,.1,2.23,.31s1.31,.53,1.85,.99,.97,1.06,1.28,1.8c.31,.74,.47,1.66,.47,2.74v11.27h-3.96Z"/>
    </g>
  </g>
</svg>