<?xml version="1.0" encoding="utf-8"?>
<!-- Generator: Adobe Illustrator 27.0.0, SVG Export Plug-In . SVG Version: 6.00 Build 0)  -->
<svg version="1.1" id="Ebene_2_00000119839369064300963840000012071742433245507742_"
	 xmlns="http://www.w3.org/2000/svg" xmlns:xlink="http://www.w3.org/1999/xlink" x="0px" y="0px" viewBox="0 0 1523.1 375.6"
	 style="enable-background:new 0 0 1523.1 375.6;" xml:space="preserve">
<style type="text/css">
	.st0{fill:none;stroke:#000000;stroke-width:31;stroke-miterlimit:10;}
	.st1{fill:#FF6B35;}
</style>
<g>
	<g>
		<path d="M0,33.6C0,24,3.3,16,10,9.6C16.7,3.2,24.8,0,34.4,0S52.2,3.2,59,9.6s10.2,14.4,10.2,24S65.8,50.8,59,57.2
			s-15,9.6-24.6,9.6S16.7,63.6,10,57.2C3.3,50.8,0,42.9,0,33.6z M7.6,303.6v-198h54v198H7.6z"/>
		<path d="M297.2,180.8v122.8h-53.6V188c0-11.5-3.4-20.7-10.2-27.8c-6.8-7.1-15.7-10.6-26.6-10.6s-19.9,3.5-27,10.6
			c-7.1,7.1-10.6,16.3-10.6,27.8v115.6h-54v-198h49.6v18c14.9-14.9,34.3-22.4,58-22.4s41.1,7.2,54.4,21.6
			C290.5,137.2,297.2,156.5,297.2,180.8L297.2,180.8z"/>
		<path d="M349.2,303.6V3.6h54v300H349.2z"/>
		<path d="M445.6,204.4c-0.5-28.3,9.7-52.7,30.8-73.2c21.1-20.5,46.1-30.5,75.2-30c29.1-0.5,54.2,9.5,75.4,30
			c21.2,20.5,31.5,44.9,31,73.2c0.5,28.3-9.9,52.7-31.2,73.4c-21.3,20.7-46.5,30.7-75.6,30.2c-29.1,0.5-54.1-9.5-75-30.2
			C455.2,257.1,445,232.7,445.6,204.4z M588.2,243.2c9.7-10.1,14.6-22.9,14.6-38.4s-4.9-28.4-14.6-38.8
			c-9.7-10.4-21.9-15.6-36.6-15.6s-27.2,5.1-36.8,15.4c-9.6,10.3-14.4,23.3-14.4,39s4.8,28.3,14.4,38.4
			c9.6,10.1,21.9,15.2,36.8,15.2S578.5,253.3,588.2,243.2z"/>
		<path d="M688.8,204.4c-0.5-28.3,9.7-52.7,30.8-73.2c21.1-20.5,46.1-30.5,75.2-30c29.1-0.5,54.2,9.5,75.4,30
			c21.2,20.5,31.5,44.9,31,73.2c0.5,28.3-9.9,52.7-31.2,73.4c-21.3,20.7-46.5,30.7-75.6,30.2c-29.1,0.5-54.1-9.5-75-30.2
			C698.5,257.1,688.2,232.7,688.8,204.4L688.8,204.4z M831.4,243.2c9.7-10.1,14.6-22.9,14.6-38.4s-4.9-28.4-14.6-38.8
			c-9.7-10.4-21.9-15.6-36.6-15.6s-27.2,5.1-36.8,15.4c-9.6,10.3-14.4,23.3-14.4,39s4.8,28.3,14.4,38.4
			c9.6,10.1,21.9,15.2,36.8,15.2S821.7,253.3,831.4,243.2z"/>
		<path d="M1125,130.6c18.3,19.6,27.4,44.2,27.4,73.8s-9.1,54.3-27.4,74.2c-18.3,19.9-41.1,29.8-68.6,29.8c-24.8,0-44.5-8-59.2-24
			v91.2h-54v-270h49.6v24.8c13.6-19.5,34.8-29.2,63.6-29.2S1106.7,111,1125,130.6L1125,130.6z M1097.6,204.8
			c0-16.3-4.8-29.5-14.4-39.6c-9.6-10.1-21.9-15.2-36.8-15.2s-26.3,4.8-35.8,14.4c-9.5,9.6-14.2,22.9-14.2,40s4.7,30.5,14.2,40.2
			c9.5,9.7,21.4,14.6,35.8,14.6s26.9-5.1,36.6-15.2C1092.7,233.9,1097.6,220.8,1097.6,204.8L1097.6,204.8z"/>
	</g>
	<line class="st0" x1="1164.5" y1="334.5" x2="1420.5" y2="78.5"/>
	<path class="st1" d="M1188.2,204.4c-0.5-28.3,9.7-52.7,30.8-73.2c21.1-20.5,46.1-30.5,75.2-30c29.1-0.5,54.2,9.5,75.4,30
		c21.2,20.5,31.5,44.9,31,73.2c0.5,28.3-9.9,52.7-31.2,73.4c-21.3,20.7-46.5,30.7-75.6,30.2c-29.1,0.5-54.1-9.5-75-30.2
		C1197.9,257.1,1187.7,232.7,1188.2,204.4L1188.2,204.4z M1330.8,243.2c9.7-10.1,14.6-22.9,14.6-38.4s-4.9-28.4-14.6-38.8
		c-9.7-10.4-21.9-15.6-36.6-15.6s-27.2,5.1-36.8,15.4c-9.6,10.3-14.4,23.3-14.4,39s4.8,28.3,14.4,38.4c9.6,10.1,21.9,15.2,36.8,15.2
		S1321.1,253.3,1330.8,243.2z"/>
	<polygon points="1458.5,140.5 1358.5,40.5 1458.5,40.5 	"/>
	<line class="st0" x1="1287.5" y1="211.5" x2="1420.5" y2="78.5"/>
</g>
</svg>
