<?xml version="1.0" encoding="UTF-8"?>
<svg id="Ebene_2" data-name="Ebene 2" xmlns="http://www.w3.org/2000/svg" viewBox="0 0 1523.14 375.6">
  <defs>
    <style>
      .cls-1 {
        fill: none;
        stroke: #000;
        stroke-linecap: round;
        stroke-linejoin: round;
        stroke-width: 24px;
      }

      .cls-2 {
        fill: #ff6b35;
      }
    </style>
  </defs>
  <g id="Ebene_2-2" data-name="Ebene 2">
    <g>
      <g>
        <path d="M0,33.6C0,24,3.33,16,10,9.6,16.66,3.2,24.8,0,34.4,0s17.8,3.2,24.6,9.6c6.8,6.4,10.2,14.4,10.2,24s-3.4,17.2-10.2,23.6c-6.8,6.4-15,9.6-24.6,9.6s-17.74-3.2-24.4-9.6C3.33,50.8,0,42.94,0,33.6ZM7.6,303.6V105.6H61.6v198H7.6Z"/>
        <path d="M297.2,180.8v122.8h-53.6v-115.6c0-11.46-3.4-20.73-10.2-27.8-6.8-7.06-15.67-10.6-26.6-10.6s-19.94,3.54-27,10.6c-7.07,7.07-10.6,16.34-10.6,27.8v115.6h-54V105.6h49.6v18c14.93-14.93,34.26-22.4,58-22.4s41.06,7.2,54.4,21.6c13.33,14.4,20,33.74,20,58Z"/>
        <path d="M349.19,303.6V3.6h54V303.6h-54Z"/>
        <path d="M445.59,204.4c-.54-28.26,9.73-52.66,30.8-73.2,21.06-20.53,46.13-30.53,75.2-30,29.06-.53,54.2,9.47,75.4,30,21.2,20.54,31.53,44.94,31,73.2,.53,28.27-9.87,52.74-31.2,73.4-21.34,20.67-46.54,30.73-75.6,30.2-29.07,.53-54.07-9.53-75-30.2-20.94-20.66-31.14-45.13-30.6-73.4Zm142.6,38.8c9.73-10.13,14.6-22.93,14.6-38.4s-4.87-28.4-14.6-38.8c-9.74-10.4-21.94-15.6-36.6-15.6s-27.2,5.14-36.8,15.4c-9.6,10.27-14.4,23.27-14.4,39s4.8,28.27,14.4,38.4c9.6,10.14,21.86,15.2,36.8,15.2s26.86-5.06,36.6-15.2Z"/>
        <path d="M688.79,204.4c-.54-28.26,9.73-52.66,30.8-73.2,21.06-20.53,46.13-30.53,75.2-30,29.06-.53,54.2,9.47,75.4,30,21.2,20.54,31.53,44.94,31,73.2,.53,28.27-9.87,52.74-31.2,73.4-21.34,20.67-46.54,30.73-75.6,30.2-29.07,.53-54.07-9.53-75-30.2-20.94-20.66-31.14-45.13-30.6-73.4Zm142.6,38.8c9.73-10.13,14.6-22.93,14.6-38.4s-4.87-28.4-14.6-38.8c-9.74-10.4-21.94-15.6-36.6-15.6s-27.2,5.14-36.8,15.4c-9.6,10.27-14.4,23.27-14.4,39s4.8,28.27,14.4,38.4c9.6,10.14,21.86,15.2,36.8,15.2s26.86-5.06,36.6-15.2Z"/>
        <path d="M1124.98,130.6c18.26,19.6,27.4,44.2,27.4,73.8s-9.14,54.34-27.4,74.2c-18.27,19.87-41.14,29.8-68.6,29.8-24.8,0-44.54-8-59.2-24v91.2h-54V105.6h49.6v24.8c13.6-19.46,34.8-29.2,63.6-29.2s50.33,9.8,68.6,29.4Zm-27.4,74.2c0-16.26-4.8-29.46-14.4-39.6-9.6-10.13-21.87-15.2-36.8-15.2s-26.34,4.8-35.8,14.4c-9.47,9.6-14.2,22.94-14.2,40s4.73,30.47,14.2,40.2c9.46,9.74,21.4,14.6,35.8,14.6s26.86-5.06,36.6-15.2c9.73-10.13,14.6-23.2,14.6-39.2Z"/>
      </g>
      <g>
        <path class="cls-1" d="M1202.7,182.07c-11.12,36.66-4.06,75.65,20.11,100.91,30.19,31.56,75.36,29.48,87.51,28.91,0,0,14.77-.68,29.68-4.98,56.8-16.36,137.32-111.87,166.54-148.47"/>
        <polygon points="1523.14 239.86 1507.32 240.87 1502.41 162.93 1425.02 173.52 1422.88 157.81 1517.14 144.93 1523.14 239.86"/>
      </g>
      <path class="cls-2" d="M1188.23,204.4c-.54-28.26,9.73-52.66,30.8-73.2,21.06-20.53,46.13-30.53,75.2-30,29.06-.53,54.2,9.47,75.4,30,21.2,20.54,31.53,44.94,31,73.2,.53,28.27-9.87,52.74-31.2,73.4-21.34,20.67-46.54,30.73-75.6,30.2-29.07,.53-54.07-9.53-75-30.2-20.94-20.66-31.14-45.13-30.6-73.4Zm142.6,38.8c9.73-10.13,14.6-22.93,14.6-38.4s-4.87-28.4-14.6-38.8c-9.74-10.4-21.94-15.6-36.6-15.6s-27.2,5.14-36.8,15.4c-9.6,10.27-14.4,23.27-14.4,39s4.8,28.27,14.4,38.4c9.6,10.14,21.86,15.2,36.8,15.2s26.86-5.06,36.6-15.2Z"/>
    </g>
  </g>
</svg>