<?xml version="1.0" encoding="UTF-8"?>
<svg id="Ebene_2" data-name="Ebene 2" xmlns="http://www.w3.org/2000/svg" viewBox="0 0 875.05 838.37">
  <defs>
    <style>
      .cls-1 {
        fill: #ff6b35;
      }
    </style>
  </defs>
  <g id="Ebene_1-2" data-name="Ebene 1">
    <path class="cls-1" d="M377.91,463.77c16.3,9.9,45.4,8.9,59.7-5.2,18.6,14.3,38.3,14.6,58.6,6.5,5-2,11.3-5.7,9.4-12.2-1.3-4.8-5.4-10.8-9.6-12.5-20.1-7.7-40.1-8.5-58,6.2-17.6-14.6-39.4-13.8-58.2-6.1-4.2,1.7-8.6,7.4-9.2,11.8-.6,3.6,3.7,9.3,7.3,11.5Zm176.7-61.1c27.9,3.3,52.6-23.2,51.9-50-.7-30-21.1-51.3-50.8-51.4-28-.1-50,20-51.3,50.5-1.4,27.1,24.8,53.6,50.2,50.9h0Zm134,137.4c-12.9-7.3-26.3-5.3-37.5,3-23,17.1-48.6,29-75.5,38.3-45.9,16-93.5,20.4-141.7,21.8-7.3,.3-14.5-1-21.8-1.6-14.5-1.1-29.4-.7-43.5-3.8-28.1-6.2-56.4-12.5-83.4-22.3-20.9-7.7-39.8-20.6-59.2-31.8-9.9-5.8-19.9-9.6-31.3-6.6-11.7,3.1-20.2,10.4-23.8,22.1-4,12.9-2.4,25.7,8.5,34.4,12.9,10.3,26.7,20.4,41.2,28.2,36.1,19.6,74.7,32.2,115.2,39.7,33.7,6.4,67.6,9.7,101.9,10.6,14.3-.8,28.7-1.4,43-2.4,12.6-.9,25.4-1.3,37.5-3.8,22-4.3,44-9.1,65.6-15,38.3-10.6,74.3-26.9,106.2-50.5,9-6.7,16.3-15.5,16.8-27.8,.9-14.5-5.8-25.5-18.2-32.5h0Zm171.7-300.3c-28.7-56.7-87.1-79.7-144.7-71C654.81,54.67,558.11-2.23,430.91,.07c-120.9,2.3-212.5,59.2-270.3,168.6-29.6-3.8-59.9-1.4-87.7,13.1-29.2,15.3-50.9,38.4-62.5,70.1-3.1,9.1-7.1,18.4-8.6,28.1-1.6,11-3.1,24.2,0,44.3,2,12.9,7.6,25.3,12.9,37.2,11.6,26.8,31.3,46.3,57,59.8,7.5,4,15.5,7.2,23.4,10.7-5.3,13.7-11.2,27.1-15.7,40.9-9.4,29-13.3,59.1-10.8,89.6,4.4,52.3,24.1,98.8,56.7,140.1,26.7,33.6,59.1,59.9,95.9,81.5,33,19.5,68.6,32.9,105.5,42.1,13.3,3.2,28.1,5.9,42.7,8.1,19.7,2.8,106.1,12.1,222.1-21.6,17.8-6.4,35-14.2,51.5-23.4,23.5-13.2,46-28.1,66.6-46,21.1-18.5,39.4-39,54.9-62.2,21.3-31.9,35.6-66.8,40.7-104.7,6.5-48.9-1.7-95.7-23.7-140-.6-1.2-1.1-2.4-2.1-4.5,44.1-14.8,74.9-43.6,88.6-87.4,11.3-35.5,9.2-71.2-7.7-104.7ZM135.31,368.47c-20.1-1-38.1-8-50.7-24-19.1-24.2-19.6-56.7-2.5-81.8,11.7-17.2,38.1-29.3,57-26.2-1.4,16.6-4.7,33.4-3.8,50,1.2,23.5,5.2,47.1,8.4,70.5,1,6.9-1.5,11.8-8.4,11.5Zm600.5,200.8c-5,29.5-16.7,56.5-34,80.6-21.1,29.4-48.1,52.9-79.2,71.7-36.7,22.1-76.5,35.7-118.2,43.4-29.4,5.4-59.3,7.3-89.2,5.2-53.5-3.9-104.9-16.4-152.2-43-32.3-18.2-60.5-40.8-83.3-70.5-17.7-22.9-30.6-47.9-37.2-75.7-9.2-39.1-6.6-77.7,9.1-115.3,11.8-28.3,28.1-53.6,50.4-74.2,9.8-9,11.7-15.9,8.2-28.6-6.9-25.5-7.5-51.9-5.3-78,3.9-47.2,17.9-91.3,49.1-128,17.6-20.7,38.6-37.4,65.1-45.6,24.1-7.4,46.5-1.4,67.6,9.5,28.1,14.7,42.8,39.8,49.2,70.1,1.1,5.4,.2,11.4,.2,17l3.4,.2c-1-17.9,3.7-34.4,12.2-49.7,15.7-28.3,40.2-43.7,71.8-49,33.6-5.7,59.8,9.8,83.2,30.4,33.2,29.3,50.7,67.9,59.3,110.8,5.8,28.5,7.4,57.3,3.3,86.3-1.7,12.3-4.5,24.6-6.6,36.8-.7,4-.8,7.7,3.1,10.9,25.5,20.4,42.5,46.9,56.3,76,10.8,23,15.1,47.7,16.6,72.6,1.2,12.2-.9,24.4-2.9,36.1h0Zm15.2-202.3c-5.9,.9-12.2,4.5-17.1-1.6-1.5-1.7-2.2-4.8-1.9-7.2,2.3-18.3,6.2-36.3,7.1-54.7,1-22.1-.3-44.5-.6-67.5,26.2-2.8,57.5,16.3,65.5,48.7,9.1,37.5-12.8,76.4-53,82.3Zm-430.2,35.7c26.7,3,50.9-23.7,50.9-48.5,.1-33.1-23.9-53.2-51.3-52.9-30.1,.3-50.2,21.8-50.7,51.5-.7,26.8,24.1,52.9,51.1,49.9Zm78,435.7h.3s-1.1-.4-.3,0Z"/>
  </g>
</svg>