<?xml version="1.0" encoding="UTF-8"?>
<svg id="Ebene_2" data-name="Ebene 2" xmlns="http://www.w3.org/2000/svg" xmlns:xlink="http://www.w3.org/1999/xlink" viewBox="0 0 1600.25 942.72">
  <defs>
    <style>
      .cls-1 {
        fill: url(#linear-gradient-2);
      }

      .cls-2 {
        fill: #ffdc68;
      }

      .cls-3 {
        fill: #fff;
      }

      .cls-4, .cls-5, .cls-6 {
        fill: none;
        stroke: #000;
        stroke-miterlimit: 10;
      }

      .cls-7 {
        fill: #9a2900;
      }

      .cls-8 {
        fill: #253c78;
      }

      .cls-9 {
        fill: #e7b100;
      }

      .cls-10 {
        fill: #bcc8ea;
      }

      .cls-11 {
        fill: #1c2d5a;
      }

      .cls-12 {
        fill: #ffe89a;
      }

      .cls-13 {
        fill: #3a5ebb;
      }

      .cls-5 {
        stroke-width: .25px;
      }

      .cls-14 {
        fill: #131e3c;
      }

      .cls-15 {
        fill: #fff3cd;
      }

      .cls-6 {
        stroke-width: 2px;
      }

      .cls-16 {
        fill: #ffb59a;
      }

      .cls-17 {
        fill: #090f1e;
      }

      .cls-18 {
        fill: url(#Unbenannter_Verlauf_29);
      }

      .cls-19 {
        fill: #ff9068;
      }

      .cls-20 {
        fill: #ffd035;
      }

      .cls-21 {
        fill: #7892d5;
      }

      .cls-22 {
        fill: #4d1500;
      }

      .cls-23 {
        fill: #cdd6ef;
      }

      .cls-24 {
        fill: #ffdacd;
      }

      .cls-25 {
        fill: #1a1a1a;
      }

      .cls-26 {
        fill: url(#linear-gradient);
      }

      .cls-27 {
        fill: #ff6b35;
      }

      .cls-28 {
        fill: #e73e00;
      }
    </style>
    <linearGradient id="Unbenannter_Verlauf_29" data-name="Unbenannter Verlauf 29" x1="817.47" y1="774.82" x2="817.8" y2="741.04" gradientUnits="userSpaceOnUse">
      <stop offset=".23" stop-color="#1a1a1a"/>
      <stop offset=".39" stop-color="#3c3c3c"/>
      <stop offset=".55" stop-color="#5a5a5a"/>
      <stop offset=".64" stop-color="#666"/>
    </linearGradient>
    <linearGradient id="linear-gradient" x1="845.61" y1="544.3" x2="944.38" y2="445.97" gradientUnits="userSpaceOnUse">
      <stop offset="0" stop-color="#1a1a1a"/>
      <stop offset=".23" stop-color="#1c1c1c"/>
      <stop offset=".38" stop-color="#252526"/>
      <stop offset=".52" stop-color="#343435"/>
      <stop offset=".64" stop-color="#4a4a4b"/>
      <stop offset=".76" stop-color="#656667"/>
      <stop offset=".87" stop-color="#87888a"/>
      <stop offset=".97" stop-color="#aeafb3"/>
      <stop offset="1" stop-color="#babbbf"/>
    </linearGradient>
    <linearGradient id="linear-gradient-2" x1="780.2" y1="496.85" x2="971.4" y2="901.71" xlink:href="#linear-gradient"/>
  </defs>
  <g id="Ebene_1-2" data-name="Ebene 1">
    <rect class="cls-5" x=".12" y=".12" width="1600" height="942.47"/>
    <g>
      <polygon class="cls-25" points="886.07 758.28 750.23 758.28 755.79 710.03 879.01 710.03 886.07 758.28"/>
      <path class="cls-18" d="M886.07,758.28l21.95,2.41c1.48,.16,2.55,.89,2.55,1.73h-185.94c0-1.19,1.56-2.19,3.67-2.36l21.94-1.77h135.84Z"/>
      <path class="cls-3" d="M724.62,762.41h185.94c0,.8-.65,1.45-1.45,1.45h-183.05c-.8,0-1.45-.65-1.45-1.45h0Z"/>
      <g>
        <path class="cls-26" d="M1002.98,438.45h-370.77c-7.68,0-13.96,6.18-13.96,13.73v240.79c0,7.55,6.28,13.73,13.96,13.73l369.84-.28c7.68,0,14.48-5.84,14.48-13.39l.42-240.85c0-7.55-6.28-13.73-13.96-13.73Z"/>
        <path class="cls-1" d="M1003.58,439.6h-371.98c-7.71,0-14.01,6.29-14.01,13.97v244.92c0,7.68,6.3,13.97,14.01,13.97h371.98c7.71,0,14.01-6.29,14.01-13.97v-244.92c0-7.68-6.3-13.97-14.01-13.97Z"/>
        <rect class="cls-3" x="631.41" y="453.71" width="372.35" height="242.41"/>
      </g>
    </g>
    <g>
      <path d="M751.69,562.36h-8.4v8.4h12.05v4.2h-16.88v-27.72h16.04v4.2h-11.21v6.72h8.4v4.2Z"/>
      <path d="M778.73,551.44h-8.02v23.52h-4.83v-23.52h-8.02v-4.2h20.87v4.2Z"/>
      <path d="M796.08,562.36h-7.94v12.6h-4.83v-27.72h15.83v4.2h-11v6.72h7.94v4.2Z"/>
      <path d="M821.53,562.45l8.23,12.52h-5.04l-6.26-9.49-1.64,1.64v7.85h-4.62v-31.08h4.62v17.93l6.43-6.17h5.17l-6.89,6.8Z"/>
      <path d="M844.51,574.96l-.34-2.65h-.17c-.76,.95-1.79,1.72-3.09,2.29-1.3,.57-2.62,.86-3.97,.86-1.76,0-3.15-.51-4.16-1.53-1.01-1.02-1.51-2.37-1.51-4.05,0-1.15,.25-2.18,.74-3.09,.49-.91,1.2-1.68,2.12-2.31s2.03-1.11,3.32-1.45,2.73-.5,4.33-.5h1.81v-.63c0-1.09-.35-1.89-1.05-2.39-.73-.5-1.86-.76-3.4-.76-2.07,0-3.92,.46-5.54,1.38l-.88-3.49c1.88-1.09,4.14-1.64,6.8-1.64,2.8,0,4.93,.57,6.38,1.72,.67,.53,1.22,1.22,1.66,2.06,.43,.84,.65,1.85,.65,3.02v13.15h-3.7Zm-5.75-3.23c.9,0,1.79-.22,2.69-.65,.9-.43,1.61-1.01,2.14-1.74v-3.82h-.8c-2.3,0-3.97,.29-5.02,.88s-1.58,1.53-1.58,2.81c0,1.68,.85,2.52,2.56,2.52Z"/>
      <path d="M858.24,555.64v12.56c0,1.15,.3,2.02,.9,2.62,.6,.6,1.38,.9,2.33,.9s1.88-.33,2.69-.99c.81-.66,1.41-1.6,1.81-2.83v-12.26h4.66v19.32h-3.61l-.25-2.69h-.17c-.31,.64-.7,1.17-1.18,1.58-.48,.41-1,.73-1.58,.97-.57,.24-1.17,.41-1.79,.5-.62,.1-1.22,.15-1.81,.15-.92,0-1.79-.11-2.58-.34-.8-.22-1.5-.59-2.1-1.11s-1.08-1.2-1.43-2.06c-.35-.85-.52-1.91-.52-3.17v-13.15h4.62Z"/>
      <path d="M877.35,558.46h-2.39v-2.39l2.39-.38c0-1.6,.05-2.95,.15-4.07,.1-1.12,.23-2.06,.4-2.83,.17-.77,.36-1.39,.57-1.87,.21-.48,.43-.87,.65-1.18,.56-.73,1.29-1.25,2.21-1.58,.91-.32,1.91-.48,3-.48h.67c.31,0,.65,.03,1.03,.09s.77,.15,1.18,.29c.41,.13,.78,.3,1.11,.51l-1.05,3.57c-.28-.17-.74-.4-1.39-.69s-1.27-.44-1.89-.44c-.36,0-.67,.08-.92,.25-.25,.17-.46,.48-.63,.92-.17,.45-.29,1.05-.36,1.8-.07,.76-.1,1.72-.1,2.9v2.77h3.7v2.81h-3.7v16.51h-4.62v-16.51Z"/>
      <path d="M890.33,558.46h-2.39v-2.52l2.73-.42,.76-5.71h3.53v5.84h3.7v2.81h-3.7v11.09c0,.84,.08,1.41,.25,1.7,.17,.29,.49,.44,.97,.44,.36,0,.73-.07,1.09-.21,.36-.14,.9-.41,1.6-.8l.76,3.32c-.53,.45-1.28,.8-2.25,1.07-.97,.27-1.93,.4-2.88,.4-.84,0-1.53-.11-2.08-.34-.55-.22-.97-.55-1.28-.99-.31-.43-.52-.96-.63-1.58-.11-.62-.17-1.3-.17-2.06v-12.05Z"/>
    </g>
    <g>
      <path d="M208.35,355.33h-7.82v-44.88h7.82v44.88Z"/>
      <path d="M239.57,355.33v-20.67c0-3.72-1.59-5.58-4.76-5.58-.77,0-1.6,.14-2.48,.41-.88,.27-1.73,.67-2.55,1.19-.82,.52-1.55,1.17-2.21,1.94-.66,.77-1.15,1.66-1.46,2.65v20.06h-7.48v-31.28h5.85l.34,4.62h.27c.95-1.9,2.44-3.32,4.45-4.25,2.02-.93,4.18-1.39,6.49-1.39,1.5,0,2.9,.19,4.22,.58,1.31,.39,2.48,1.01,3.5,1.87,1.02,.86,1.82,2,2.41,3.4,.59,1.41,.88,3.13,.88,5.17v21.29h-7.48Z"/>
      <path d="M268.26,356.14c-2.13,0-4.08-.43-5.85-1.29-1.77-.86-3.28-2.04-4.52-3.54-1.25-1.5-2.21-3.26-2.89-5.3s-1.02-4.26-1.02-6.66c0-2.13,.28-4.18,.85-6.15,.57-1.97,1.44-3.71,2.62-5.2,1.18-1.5,2.64-2.7,4.39-3.6,1.75-.91,3.82-1.36,6.22-1.36,2.18,0,4.12,.36,5.85,1.09,1.72,.73,3.1,1.75,4.15,3.06v-22.17h7.41v50.32h-5.98l-.54-4.29h-.27c-1.27,1.41-2.71,2.61-4.32,3.6s-3.64,1.5-6.09,1.5Zm.95-5.64c.72,0,1.5-.1,2.31-.31,.82-.2,1.62-.49,2.41-.85,.79-.36,1.55-.8,2.28-1.33,.72-.52,1.34-1.12,1.84-1.8v-13.06c-1.36-1.68-2.74-2.82-4.15-3.43-1.41-.61-2.77-.92-4.08-.92-1.45,0-2.7,.28-3.74,.85-1.04,.57-1.92,1.35-2.62,2.35-.7,1-1.22,2.14-1.56,3.43s-.51,2.64-.51,4.05,.16,2.71,.48,4.05c.32,1.34,.79,2.52,1.43,3.54s1.45,1.85,2.45,2.48c1,.64,2.15,.95,3.47,.95Z"/>
      <path d="M309.06,323.03c3.99,0,7.07,1.01,9.25,3.03,2.18,2.02,3.26,4.86,3.26,8.53,0,.5-.03,1.03-.1,1.6-.07,.57-.16,1.12-.27,1.67-.11,.54-.25,1.03-.41,1.46-.16,.43-.33,.78-.51,1.05h-19.79c.09,1.36,.34,2.64,.75,3.84,.41,1.2,1,2.24,1.77,3.13,.77,.88,1.71,1.59,2.82,2.11,1.11,.52,2.41,.78,3.91,.78,1.68,0,3.46-.32,5.34-.95,1.88-.63,3.48-1.43,4.79-2.38l1.22,5.58c-.59,.36-1.32,.76-2.18,1.19s-1.84,.83-2.92,1.19c-1.09,.36-2.26,.67-3.5,.92-1.25,.25-2.55,.37-3.91,.37-2.54,0-4.78-.44-6.73-1.33-1.95-.88-3.58-2.09-4.9-3.6-1.32-1.52-2.31-3.27-2.99-5.27-.68-1.99-1.02-4.08-1.02-6.26s.35-4.34,1.05-6.36c.7-2.02,1.73-3.8,3.09-5.34,1.36-1.54,3.05-2.75,5.07-3.64,2.02-.88,4.32-1.33,6.9-1.33Zm-.2,5.85c-1.9,0-3.53,.56-4.86,1.67-1.34,1.11-2.3,2.62-2.89,4.52h12.99c.04-.14,.08-.29,.1-.48,.02-.18,.03-.41,.03-.68,0-1.45-.5-2.65-1.5-3.6-1-.95-2.29-1.43-3.88-1.43Z"/>
      <path d="M334.29,324.05l7.34,10.54,7-10.54h8.5l-11.42,15.16,12.1,16.12h-8.5l-7.96-11.42-7.75,11.42h-8.5l12.04-15.98-11.36-15.3h8.5Z"/>
    </g>
    <polygon class="cls-24" points="168.59 427.12 143.59 427.12 131.09 448.77 143.59 470.42 168.59 470.42 181.09 448.77 168.59 427.12"/>
    <polygon class="cls-16" points="227.89 427.12 202.89 427.12 190.39 448.77 202.89 470.42 227.89 470.42 240.39 448.77 227.89 427.12"/>
    <polygon class="cls-19" points="287.47 426.9 262.47 426.9 249.97 448.55 262.47 470.2 287.47 470.2 299.97 448.55 287.47 426.9"/>
    <polygon class="cls-27" points="346.78 426.9 321.78 426.9 309.28 448.55 321.78 470.2 346.78 470.2 359.28 448.55 346.78 426.9"/>
    <polygon class="cls-28" points="407.13 426.9 382.13 426.9 369.63 448.55 382.13 470.2 407.13 470.2 419.63 448.55 407.13 426.9"/>
    <polygon class="cls-7" points="168.86 485.01 143.86 485.01 131.36 506.66 143.86 528.31 168.86 528.31 181.36 506.66 168.86 485.01"/>
    <polygon class="cls-22" points="228.16 485.01 203.16 485.01 190.66 506.66 203.16 528.31 228.16 528.31 240.66 506.66 228.16 485.01"/>
    <polygon class="cls-17" points="287.74 484.79 262.74 484.79 250.24 506.45 262.74 528.1 287.74 528.1 300.24 506.45 287.74 484.79"/>
    <polygon class="cls-14" points="347.05 484.79 322.05 484.79 309.55 506.45 322.05 528.1 347.05 528.1 359.55 506.45 347.05 484.79"/>
    <polygon class="cls-11" points="407.39 484.79 382.39 484.79 369.89 506.45 382.39 528.1 407.39 528.1 419.89 506.45 407.39 484.79"/>
    <polygon class="cls-8" points="169.72 543.06 144.72 543.06 132.22 564.71 144.72 586.36 169.72 586.36 182.22 564.71 169.72 543.06"/>
    <polygon class="cls-13" points="229.03 543.06 204.03 543.06 191.53 564.71 204.03 586.36 229.03 586.36 241.53 564.71 229.03 543.06"/>
    <polygon class="cls-21" points="288.61 542.85 263.61 542.85 251.11 564.5 263.61 586.15 288.61 586.15 301.11 564.5 288.61 542.85"/>
    <polygon class="cls-10" points="347.91 542.85 322.91 542.85 310.41 564.5 322.91 586.15 347.91 586.15 360.41 564.5 347.91 542.85"/>
    <polygon class="cls-23" points="408.26 542.85 383.26 542.85 370.76 564.5 383.26 586.15 408.26 586.15 420.76 564.5 408.26 542.85"/>
    <g>
      <path d="M147.79,454.66h-2.07v-8.75l-1.46,.65-.4-1.8,3.92-1.98v11.88Z"/>
      <path d="M157.26,442.69c.44,0,.84,.09,1.19,.27,.35,.18,.65,.42,.89,.72,.25,.3,.43,.65,.56,1.05,.13,.4,.19,.82,.19,1.27s-.06,.85-.19,1.26c-.13,.41-.31,.77-.56,1.08-.25,.31-.55,.56-.91,.75-.36,.19-.77,.28-1.24,.28s-.85-.09-1.2-.26c-.34-.17-.63-.41-.86-.71-.23-.3-.41-.65-.52-1.05-.11-.4-.17-.83-.17-1.27,0-.47,.06-.91,.19-1.32s.31-.77,.56-1.08c.25-.31,.54-.55,.89-.72,.35-.17,.74-.26,1.19-.26Zm-.05,5.51c.24,0,.44-.06,.61-.17,.17-.11,.31-.27,.41-.47,.11-.2,.19-.43,.24-.68s.08-.54,.08-.84c0-.65-.11-1.17-.32-1.58-.22-.4-.55-.6-1.01-.6s-.78,.2-.96,.59c-.19,.4-.28,.9-.28,1.51,0,.74,.11,1.3,.32,1.67,.22,.37,.52,.56,.9,.56Zm.74,6.89h-1.62l8.33-12.87h1.62l-8.33,12.87Zm7.47-7.02c.44,0,.84,.09,1.19,.27s.65,.42,.89,.72c.25,.3,.43,.65,.56,1.05s.19,.83,.19,1.27-.06,.85-.19,1.26c-.13,.41-.31,.77-.56,1.08-.25,.31-.55,.56-.91,.75-.36,.19-.77,.28-1.24,.28s-.85-.09-1.2-.26c-.34-.17-.63-.41-.86-.71s-.41-.65-.52-1.05c-.11-.4-.17-.82-.17-1.27,0-.47,.06-.91,.19-1.32s.31-.77,.56-1.08c.25-.31,.54-.55,.89-.72s.74-.26,1.19-.26Zm-.05,5.51c.24,0,.44-.06,.61-.17,.17-.11,.31-.27,.41-.47,.11-.2,.19-.43,.24-.68,.05-.26,.08-.54,.08-.84,0-.65-.11-1.17-.32-1.58-.22-.4-.55-.6-1.01-.6s-.78,.2-.96,.59c-.19,.4-.28,.9-.28,1.51,0,.74,.11,1.3,.32,1.67,.22,.37,.52,.56,.9,.56Z"/>
    </g>
    <g>
      <path d="M201.97,443.42c.46-.28,.98-.5,1.58-.68,.59-.18,1.19-.27,1.77-.27,.5,0,.97,.07,1.39,.22,.42,.14,.78,.34,1.09,.6,.31,.26,.54,.57,.71,.93,.17,.36,.25,.76,.25,1.19,0,.64-.16,1.16-.49,1.56-.32,.4-.73,.74-1.22,1.02,.72,.24,1.28,.6,1.68,1.08,.4,.48,.6,1.11,.6,1.89,0,.5-.09,.98-.27,1.43s-.46,.84-.83,1.18-.83,.6-1.39,.8c-.55,.2-1.19,.3-1.93,.3-1.49,0-2.71-.41-3.67-1.22l.5-1.64c.42,.35,.89,.62,1.4,.83,.52,.2,1.07,.31,1.66,.31,.76,0,1.33-.18,1.72-.53,.39-.35,.58-.87,.58-1.56,0-.61-.18-1.09-.53-1.45-.35-.35-.94-.53-1.77-.53h-.49v-1.57h.56c.53,0,.94-.17,1.22-.5s.43-.78,.43-1.33c0-.49-.15-.84-.45-1.04-.3-.2-.66-.3-1.08-.3-.23,0-.46,.02-.71,.07s-.48,.12-.71,.21-.44,.19-.64,.31c-.2,.11-.37,.24-.51,.37l-.47-1.66Z"/>
      <path d="M218.11,442.47c.44,0,.84,.09,1.19,.27,.35,.18,.65,.42,.89,.72,.25,.3,.43,.65,.56,1.05,.13,.4,.19,.82,.19,1.27s-.06,.85-.19,1.26c-.13,.41-.31,.77-.56,1.08-.25,.31-.55,.56-.91,.75-.36,.19-.77,.28-1.24,.28s-.85-.09-1.2-.26c-.34-.17-.63-.41-.86-.71-.23-.3-.41-.65-.52-1.05-.11-.4-.17-.83-.17-1.27,0-.47,.06-.91,.19-1.32s.31-.77,.56-1.08c.25-.31,.54-.55,.89-.72,.35-.17,.74-.26,1.19-.26Zm-.05,5.51c.24,0,.44-.06,.61-.17,.17-.11,.31-.27,.41-.47,.11-.2,.19-.43,.24-.68s.08-.54,.08-.84c0-.65-.11-1.17-.32-1.58-.22-.4-.55-.6-1.01-.6s-.78,.2-.96,.59c-.19,.4-.28,.9-.28,1.51,0,.74,.11,1.3,.32,1.67,.22,.37,.52,.56,.9,.56Zm.74,6.89h-1.62l8.33-12.87h1.62l-8.33,12.87Zm7.47-7.02c.44,0,.84,.09,1.19,.27s.65,.42,.89,.72c.25,.3,.43,.65,.56,1.05s.19,.83,.19,1.27-.06,.85-.19,1.26c-.13,.41-.31,.77-.56,1.08-.25,.31-.55,.56-.91,.75-.36,.19-.77,.28-1.24,.28s-.85-.09-1.2-.26c-.34-.17-.63-.41-.86-.71s-.41-.65-.52-1.05c-.11-.4-.17-.82-.17-1.27,0-.47,.06-.91,.19-1.32s.31-.77,.56-1.08c.25-.31,.54-.55,.89-.72s.74-.26,1.19-.26Zm-.05,5.51c.24,0,.44-.06,.61-.17,.17-.11,.31-.27,.41-.47,.11-.2,.19-.43,.24-.68,.05-.26,.08-.54,.08-.84,0-.65-.11-1.17-.32-1.58-.22-.4-.55-.6-1.01-.6s-.78,.2-.96,.59c-.19,.4-.28,.9-.28,1.51,0,.74,.11,1.3,.32,1.67,.22,.37,.52,.56,.9,.56Z"/>
    </g>
    <g>
      <path d="M263,449l.7-6.53h6.1v1.89h-4.43l-.27,2.84c.25-.07,.52-.12,.79-.15s.53-.04,.76-.04c.55,0,1.06,.08,1.51,.24s.85,.4,1.19,.71c.34,.31,.6,.69,.78,1.14,.19,.45,.28,.96,.28,1.54s-.09,1.07-.27,1.56c-.18,.49-.45,.91-.82,1.28-.37,.37-.83,.65-1.38,.86-.55,.21-1.2,.31-1.94,.31s-1.41-.1-2.02-.31-1.16-.51-1.63-.89l.52-1.71c.18,.17,.39,.32,.62,.46,.23,.14,.49,.26,.76,.36,.27,.1,.55,.18,.83,.24,.28,.06,.56,.09,.84,.09,.3,0,.59-.04,.87-.12,.28-.08,.53-.2,.74-.37,.21-.17,.38-.39,.5-.66,.13-.27,.19-.6,.19-.98,0-.29-.04-.55-.11-.79-.07-.24-.19-.44-.36-.61-.17-.17-.39-.3-.67-.4-.28-.1-.64-.14-1.07-.14-.37,0-.78,.04-1.22,.11-.44,.07-.86,.19-1.26,.34l-.52-.27Z"/>
      <path d="M279.13,442.47c.44,0,.84,.09,1.19,.27,.35,.18,.65,.42,.89,.72,.25,.3,.43,.65,.56,1.05s.19,.83,.19,1.27-.06,.85-.19,1.26-.31,.77-.56,1.08c-.25,.31-.55,.56-.91,.75-.36,.19-.77,.28-1.24,.28s-.85-.09-1.2-.26c-.34-.17-.63-.41-.86-.71-.23-.3-.41-.65-.52-1.05-.11-.4-.17-.83-.17-1.27,0-.47,.06-.91,.19-1.32s.31-.77,.56-1.08c.25-.31,.54-.55,.89-.72,.35-.17,.74-.26,1.19-.26Zm-.05,5.51c.24,0,.44-.06,.61-.17,.17-.11,.31-.27,.41-.47,.11-.2,.19-.43,.24-.68,.05-.26,.08-.54,.08-.84,0-.65-.11-1.17-.32-1.57-.22-.4-.55-.6-1.01-.6s-.78,.2-.96,.59c-.19,.4-.28,.9-.28,1.51,0,.74,.11,1.3,.32,1.67s.52,.56,.9,.56Zm.74,6.89h-1.62l8.33-12.87h1.62l-8.33,12.87Zm7.47-7.02c.44,0,.84,.09,1.19,.27,.35,.18,.65,.42,.89,.72,.25,.3,.43,.65,.56,1.05,.13,.4,.19,.83,.19,1.27s-.06,.85-.19,1.26-.31,.77-.56,1.08c-.25,.31-.55,.56-.91,.75-.36,.19-.77,.28-1.24,.28s-.85-.09-1.2-.26c-.34-.17-.63-.41-.86-.71s-.41-.65-.52-1.05c-.11-.4-.17-.83-.17-1.27,0-.47,.06-.91,.19-1.32s.31-.77,.56-1.08c.25-.31,.54-.55,.89-.72,.35-.17,.74-.26,1.19-.26Zm-.05,5.51c.24,0,.44-.06,.61-.17,.17-.11,.31-.27,.41-.47s.19-.43,.24-.68c.05-.26,.08-.54,.08-.84,0-.65-.11-1.17-.32-1.57-.22-.4-.55-.6-1.01-.6s-.78,.2-.96,.59c-.19,.4-.28,.9-.28,1.51,0,.74,.11,1.3,.32,1.67,.22,.37,.52,.56,.9,.56Z"/>
    </g>
    <g>
      <path d="M321.74,455.41c-.01-.11-.02-.23-.02-.35v-.35c0-.71,.14-1.49,.42-2.33,.28-.85,.65-1.69,1.09-2.54s.93-1.66,1.47-2.45c.53-.79,1.05-1.47,1.56-2.06h-5.24v-1.89h7.29v1.89c-.52,.56-1.03,1.25-1.55,2.06-.52,.81-.98,1.65-1.39,2.53-.41,.88-.74,1.73-.99,2.57-.25,.84-.38,1.57-.38,2.2v.38c0,.12,0,.23,.02,.34h-2.29Z"/>
      <path d="M336.46,443.44c.44,0,.84,.09,1.19,.27,.35,.18,.65,.42,.89,.72,.25,.3,.43,.65,.56,1.05,.13,.4,.19,.82,.19,1.27s-.06,.85-.19,1.26c-.13,.41-.31,.77-.56,1.08-.25,.31-.55,.56-.91,.75-.36,.19-.77,.28-1.24,.28s-.85-.09-1.2-.26c-.34-.17-.63-.41-.86-.71-.23-.3-.41-.65-.52-1.05-.11-.4-.17-.83-.17-1.27,0-.47,.06-.91,.19-1.32s.31-.77,.56-1.08c.25-.31,.54-.55,.89-.72,.35-.17,.74-.26,1.19-.26Zm-.05,5.51c.24,0,.44-.06,.61-.17,.17-.11,.31-.27,.41-.47,.11-.2,.19-.43,.24-.68s.08-.54,.08-.84c0-.65-.11-1.17-.32-1.58-.22-.4-.55-.6-1.01-.6s-.78,.2-.96,.59c-.19,.4-.28,.9-.28,1.51,0,.74,.11,1.3,.32,1.67,.22,.37,.52,.56,.9,.56Zm.74,6.89h-1.62l8.33-12.87h1.62l-8.33,12.87Zm7.47-7.02c.44,0,.84,.09,1.19,.27s.65,.42,.89,.72c.25,.3,.43,.65,.56,1.05s.19,.83,.19,1.27-.06,.85-.19,1.26c-.13,.41-.31,.77-.56,1.08-.25,.31-.55,.56-.91,.75-.36,.19-.77,.28-1.24,.28s-.85-.09-1.2-.26c-.34-.17-.63-.41-.86-.71s-.41-.65-.52-1.05c-.11-.4-.17-.82-.17-1.27,0-.47,.06-.91,.19-1.32s.31-.77,.56-1.08c.25-.31,.54-.55,.89-.72s.74-.26,1.19-.26Zm-.05,5.51c.24,0,.44-.06,.61-.17,.17-.11,.31-.27,.41-.47,.11-.2,.19-.43,.24-.68,.05-.26,.08-.54,.08-.84,0-.65-.11-1.17-.32-1.58-.22-.4-.55-.6-1.01-.6s-.78,.2-.96,.59c-.19,.4-.28,.9-.28,1.51,0,.74,.11,1.3,.32,1.67,.22,.37,.52,.56,.9,.56Z"/>
    </g>
    <g>
      <path d="M386.27,448.92c.7,.16,1.23,.52,1.61,1.08s.57,1.25,.57,2.05c0,.5-.08,.98-.23,1.41-.16,.44-.4,.82-.73,1.14-.33,.32-.75,.58-1.25,.77-.5,.19-1.1,.28-1.78,.28-.72,0-1.33-.1-1.84-.3-.5-.2-.91-.46-1.22-.79s-.54-.71-.68-1.14c-.14-.43-.22-.88-.22-1.33,0-.79,.19-1.46,.58-2.02,.38-.55,.92-.93,1.6-1.13v-.07c-.42-.16-.79-.45-1.11-.88-.32-.43-.48-.98-.48-1.64,0-.86,.29-1.56,.88-2.09,.59-.53,1.42-.79,2.5-.79s1.88,.25,2.48,.76c.6,.51,.9,1.2,.9,2.06,0,.64-.15,1.17-.46,1.61-.31,.44-.68,.75-1.12,.95v.07Zm.11,3.19c0-.28-.04-.55-.11-.83-.07-.28-.19-.52-.34-.74-.16-.22-.36-.39-.6-.53-.25-.14-.54-.21-.87-.21s-.64,.07-.88,.21c-.24,.14-.44,.32-.59,.54s-.27,.47-.34,.75c-.07,.28-.11,.55-.11,.81,0,.65,.18,1.14,.53,1.48s.82,.5,1.4,.5,1.04-.17,1.4-.5,.53-.83,.53-1.48Zm-.54-5.53c0-.47-.12-.84-.35-1.11-.23-.27-.58-.41-1.04-.41s-.79,.13-1.03,.39c-.24,.26-.36,.63-.36,1.11,0,.5,.13,.9,.38,1.19s.59,.43,1.01,.43,.76-.14,1.01-.43c.25-.29,.38-.68,.38-1.17Z"/>
      <path d="M397.25,443.47c.44,0,.84,.09,1.19,.27,.35,.18,.65,.42,.89,.72,.25,.3,.43,.65,.56,1.05s.19,.83,.19,1.27-.06,.85-.19,1.26-.31,.77-.56,1.08c-.25,.31-.55,.56-.91,.75-.36,.19-.77,.28-1.24,.28s-.85-.09-1.2-.26c-.34-.17-.63-.41-.86-.71-.23-.3-.41-.65-.52-1.05-.11-.4-.17-.83-.17-1.27,0-.47,.06-.91,.19-1.32s.31-.77,.56-1.08c.25-.31,.54-.55,.89-.72,.35-.17,.74-.26,1.19-.26Zm-.05,5.51c.24,0,.44-.06,.61-.17,.17-.11,.31-.27,.41-.47,.11-.2,.19-.43,.24-.68,.05-.26,.08-.54,.08-.84,0-.65-.11-1.17-.32-1.57-.22-.4-.55-.6-1.01-.6s-.78,.2-.96,.59c-.19,.4-.28,.9-.28,1.51,0,.74,.11,1.3,.32,1.67s.52,.56,.9,.56Zm.74,6.89h-1.62l8.33-12.87h1.62l-8.33,12.87Zm7.47-7.02c.44,0,.84,.09,1.19,.27,.35,.18,.65,.42,.89,.72,.25,.3,.43,.65,.56,1.05,.13,.4,.19,.83,.19,1.27s-.06,.85-.19,1.26-.31,.77-.56,1.08c-.25,.31-.55,.56-.91,.75-.36,.19-.77,.28-1.24,.28s-.85-.09-1.2-.26c-.34-.17-.63-.41-.86-.71s-.41-.65-.52-1.05c-.11-.4-.17-.83-.17-1.27,0-.47,.06-.91,.19-1.32s.31-.77,.56-1.08c.25-.31,.54-.55,.89-.72,.35-.17,.74-.26,1.19-.26Zm-.05,5.51c.24,0,.44-.06,.61-.17,.17-.11,.31-.27,.41-.47s.19-.43,.24-.68c.05-.26,.08-.54,.08-.84,0-.65-.11-1.17-.32-1.57-.22-.4-.55-.6-1.01-.6s-.78,.2-.96,.59c-.19,.4-.28,.9-.28,1.51,0,.74,.11,1.3,.32,1.67,.22,.37,.52,.56,.9,.56Z"/>
    </g>
    <g>
      <path d="M1304.51,338.18h-13.6v13.6h19.52v6.8h-27.34v-44.88h25.98v6.8h-18.16v10.88h13.6v6.8Z"/>
      <path d="M1348.3,320.5h-12.99v38.08h-7.82v-38.08h-12.99v-6.8h33.8v6.8Z"/>
      <path d="M1376.39,338.18h-12.85v20.4h-7.82v-44.88h25.64v6.8h-17.82v10.88h12.85v6.8Z"/>
    </g>
    <path class="cls-6" d="M144.12,721.65v163.47H408.12"/>
    <path class="cls-4" d="M154.85,872.15c29.4-22.73,58.8-45.46,88.2-68.19,14.7,10.58,29.4,21.16,44.1,31.74,38.93-36.06,77.87-72.11,116.8-108.17"/>
    <g>
      <path class="cls-6" d="M1197.12,721.42v163.47h264"/>
      <path class="cls-4" d="M1207.85,871.91c29.4-22.73,58.8-45.46,88.2-68.19,14.7,10.58,29.4,21.16,44.1,31.74,38.93-36.06,77.87-72.11,116.8-108.17"/>
    </g>
    <path class="cls-4" d="M463.12,516.62h164"/>
    <g>
      <path class="cls-4" d="M1015.12,516.44h127.52"/>
      <polygon points="1141.18 521.42 1149.82 516.44 1141.18 511.45 1141.18 521.42"/>
    </g>
    <path class="cls-4" d="M444.12,413.12h19v193h-22.02"/>
    <polygon class="cls-24" points="1225.07 426.41 1200.07 426.41 1187.57 448.06 1200.07 469.71 1225.07 469.71 1237.57 448.06 1225.07 426.41"/>
    <polygon class="cls-16" points="1284.38 426.41 1259.38 426.41 1246.88 448.06 1259.38 469.71 1284.38 469.71 1296.88 448.06 1284.38 426.41"/>
    <polygon class="cls-19" points="1343.96 426.19 1318.96 426.19 1306.46 447.84 1318.96 469.5 1343.96 469.5 1356.46 447.84 1343.96 426.19"/>
    <polygon class="cls-27" points="1403.27 426.19 1378.27 426.19 1365.77 447.84 1378.27 469.5 1403.27 469.5 1415.77 447.84 1403.27 426.19"/>
    <polygon class="cls-28" points="1463.61 426.19 1438.61 426.19 1426.11 447.84 1438.61 469.5 1463.61 469.5 1476.11 447.84 1463.61 426.19"/>
    <polygon class="cls-7" points="1225.34 484.3 1200.34 484.3 1187.84 505.95 1200.34 527.6 1225.34 527.6 1237.84 505.95 1225.34 484.3"/>
    <polygon class="cls-22" points="1284.65 484.3 1259.65 484.3 1247.15 505.95 1259.65 527.6 1284.65 527.6 1297.15 505.95 1284.65 484.3"/>
    <polygon class="cls-17" points="1344.23 484.09 1319.23 484.09 1306.73 505.74 1319.23 527.39 1344.23 527.39 1356.73 505.74 1344.23 484.09"/>
    <polygon class="cls-14" points="1403.53 484.09 1378.53 484.09 1366.03 505.74 1378.53 527.39 1403.53 527.39 1416.03 505.74 1403.53 484.09"/>
    <polygon class="cls-11" points="1463.88 484.09 1438.88 484.09 1426.38 505.74 1438.88 527.39 1463.88 527.39 1476.38 505.74 1463.88 484.09"/>
    <g>
      <path d="M1204.28,453.95h-2.07v-8.75l-1.46,.65-.4-1.8,3.92-1.98v11.88Z"/>
      <path d="M1213.74,441.98c.44,0,.84,.09,1.19,.27s.65,.42,.89,.72c.25,.3,.43,.65,.56,1.05,.13,.4,.19,.82,.19,1.27s-.06,.85-.19,1.26c-.13,.41-.31,.77-.56,1.08-.25,.31-.55,.56-.91,.75-.36,.19-.77,.28-1.24,.28s-.86-.09-1.2-.26c-.34-.17-.63-.41-.86-.71-.23-.3-.41-.65-.52-1.05-.11-.4-.17-.83-.17-1.27,0-.47,.06-.91,.19-1.32,.12-.41,.31-.77,.56-1.08,.25-.31,.54-.55,.89-.72,.35-.17,.74-.26,1.19-.26Zm-.05,5.51c.24,0,.44-.06,.61-.17,.17-.11,.3-.27,.41-.47,.11-.2,.19-.43,.24-.68s.08-.54,.08-.84c0-.65-.11-1.17-.32-1.58s-.55-.6-1.01-.6-.78,.2-.96,.59c-.19,.4-.28,.9-.28,1.51,0,.74,.11,1.3,.32,1.67,.22,.37,.52,.56,.9,.56Zm.74,6.89h-1.62l8.33-12.87h1.62l-8.33,12.87Zm7.47-7.02c.44,0,.84,.09,1.19,.27s.64,.42,.89,.72c.25,.3,.43,.65,.56,1.05s.19,.83,.19,1.27-.06,.85-.19,1.26c-.13,.41-.31,.77-.56,1.08-.25,.31-.55,.56-.91,.75-.36,.19-.77,.28-1.24,.28s-.86-.09-1.2-.26-.63-.41-.86-.71c-.23-.3-.41-.65-.52-1.05-.11-.4-.17-.82-.17-1.27,0-.47,.06-.91,.19-1.32,.12-.41,.31-.77,.56-1.08,.25-.31,.54-.55,.89-.72s.74-.26,1.19-.26Zm-.05,5.51c.24,0,.44-.06,.61-.17,.17-.11,.31-.27,.41-.47,.11-.2,.19-.43,.24-.68,.05-.26,.08-.54,.08-.84,0-.65-.11-1.17-.32-1.58-.22-.4-.55-.6-1.01-.6s-.78,.2-.96,.59c-.19,.4-.28,.9-.28,1.51,0,.74,.11,1.3,.32,1.67,.22,.37,.52,.56,.9,.56Z"/>
    </g>
    <g>
      <path d="M1258.45,442.71c.46-.28,.98-.5,1.58-.68,.59-.18,1.19-.27,1.77-.27,.5,0,.97,.07,1.39,.22,.42,.14,.78,.34,1.09,.6,.31,.26,.54,.57,.71,.93,.17,.36,.25,.76,.25,1.19,0,.64-.16,1.16-.49,1.56-.32,.4-.73,.74-1.22,1.02,.72,.24,1.28,.6,1.68,1.08,.4,.48,.6,1.11,.6,1.89,0,.5-.09,.98-.27,1.43-.18,.45-.46,.84-.83,1.18s-.83,.6-1.39,.8c-.55,.2-1.19,.3-1.93,.3-1.49,0-2.71-.41-3.67-1.22l.5-1.64c.42,.35,.89,.62,1.4,.83s1.07,.31,1.66,.31c.76,0,1.33-.18,1.72-.53,.39-.35,.58-.87,.58-1.56,0-.61-.18-1.09-.53-1.45-.35-.35-.94-.53-1.77-.53h-.49v-1.57h.56c.53,0,.94-.17,1.22-.5s.43-.78,.43-1.33c0-.49-.15-.84-.45-1.04-.3-.2-.66-.3-1.08-.3-.23,0-.46,.02-.71,.07s-.48,.12-.71,.21c-.23,.09-.44,.19-.64,.31-.2,.11-.37,.24-.51,.37l-.47-1.66Z"/>
      <path d="M1274.6,441.76c.44,0,.84,.09,1.19,.27,.35,.18,.64,.42,.89,.72,.25,.3,.43,.65,.56,1.05,.13,.4,.19,.82,.19,1.27s-.06,.85-.19,1.26c-.13,.41-.31,.77-.56,1.08-.25,.31-.55,.56-.91,.75-.36,.19-.77,.28-1.24,.28s-.85-.09-1.2-.26c-.34-.17-.63-.41-.86-.71-.23-.3-.41-.65-.52-1.05-.11-.4-.17-.83-.17-1.27,0-.47,.06-.91,.19-1.32s.31-.77,.56-1.08,.54-.55,.89-.72c.35-.17,.74-.26,1.19-.26Zm-.05,5.51c.24,0,.44-.06,.61-.17,.17-.11,.31-.27,.41-.47,.11-.2,.19-.43,.24-.68,.05-.26,.08-.54,.08-.84,0-.65-.11-1.17-.32-1.58-.22-.4-.55-.6-1.01-.6s-.78,.2-.96,.59c-.19,.4-.28,.9-.28,1.51,0,.74,.11,1.3,.32,1.67,.22,.37,.52,.56,.9,.56Zm.74,6.89h-1.62l8.33-12.87h1.62l-8.33,12.87Zm7.47-7.02c.44,0,.84,.09,1.19,.27,.35,.18,.65,.42,.89,.72,.25,.3,.43,.65,.56,1.05s.19,.83,.19,1.27-.06,.85-.19,1.26c-.13,.41-.31,.77-.56,1.08-.25,.31-.55,.56-.91,.75-.36,.19-.77,.28-1.24,.28s-.85-.09-1.2-.26c-.34-.17-.63-.41-.86-.71-.23-.3-.41-.65-.52-1.05-.11-.4-.17-.82-.17-1.27,0-.47,.06-.91,.19-1.32s.31-.77,.56-1.08c.25-.31,.54-.55,.89-.72,.35-.17,.74-.26,1.19-.26Zm-.05,5.51c.24,0,.44-.06,.61-.17s.31-.27,.41-.47c.11-.2,.19-.43,.24-.68s.08-.54,.08-.84c0-.65-.11-1.17-.32-1.58-.22-.4-.55-.6-1.01-.6s-.78,.2-.96,.59c-.19,.4-.28,.9-.28,1.51,0,.74,.11,1.3,.32,1.67,.22,.37,.52,.56,.9,.56Z"/>
    </g>
    <g>
      <path d="M1319.49,448.29l.7-6.53h6.1v1.89h-4.43l-.27,2.84c.25-.07,.52-.12,.79-.15,.28-.03,.53-.04,.76-.04,.55,0,1.06,.08,1.51,.24s.85,.4,1.19,.71c.34,.31,.6,.69,.78,1.14,.19,.45,.28,.96,.28,1.54s-.09,1.07-.27,1.56c-.18,.49-.45,.91-.82,1.28-.37,.37-.83,.65-1.38,.86-.55,.21-1.2,.31-1.94,.31s-1.41-.1-2.03-.31-1.16-.51-1.63-.89l.52-1.71c.18,.17,.39,.32,.62,.46,.23,.14,.49,.26,.76,.36,.27,.1,.55,.18,.83,.24,.28,.06,.56,.09,.84,.09,.3,0,.59-.04,.87-.12,.28-.08,.53-.2,.74-.37,.21-.17,.38-.39,.5-.66,.13-.27,.19-.6,.19-.98,0-.29-.04-.55-.11-.79-.07-.24-.19-.44-.36-.61-.17-.17-.39-.3-.67-.4-.28-.1-.64-.14-1.07-.14-.37,0-.78,.04-1.22,.11-.44,.07-.86,.19-1.26,.34l-.52-.27Z"/>
      <path d="M1335.61,441.76c.44,0,.84,.09,1.19,.27,.35,.18,.64,.42,.89,.72s.43,.65,.56,1.05,.19,.83,.19,1.27-.06,.85-.19,1.26-.31,.77-.56,1.08c-.25,.31-.55,.56-.91,.75-.36,.19-.77,.28-1.24,.28s-.85-.09-1.2-.26c-.34-.17-.63-.41-.86-.71s-.41-.65-.52-1.05c-.11-.4-.17-.83-.17-1.27,0-.47,.06-.91,.19-1.32s.31-.77,.56-1.08c.25-.31,.54-.55,.89-.72,.35-.17,.74-.26,1.19-.26Zm-.05,5.51c.24,0,.44-.06,.61-.17,.17-.11,.31-.27,.41-.47,.11-.2,.19-.43,.24-.68,.05-.26,.08-.54,.08-.84,0-.65-.11-1.17-.32-1.57-.22-.4-.55-.6-1.01-.6s-.78,.2-.96,.59c-.19,.4-.28,.9-.28,1.51,0,.74,.11,1.3,.32,1.67s.52,.56,.9,.56Zm.74,6.89h-1.62l8.33-12.87h1.62l-8.33,12.87Zm7.47-7.02c.44,0,.84,.09,1.19,.27,.35,.18,.65,.42,.89,.72,.25,.3,.43,.65,.56,1.05,.13,.4,.19,.83,.19,1.27s-.06,.85-.19,1.26-.31,.77-.56,1.08c-.25,.31-.55,.56-.91,.75-.36,.19-.77,.28-1.24,.28s-.85-.09-1.2-.26c-.34-.17-.63-.41-.86-.71-.23-.3-.41-.65-.52-1.05s-.17-.83-.17-1.27c0-.47,.06-.91,.19-1.32s.31-.77,.56-1.08c.25-.31,.54-.55,.89-.72,.35-.17,.74-.26,1.19-.26Zm-.05,5.51c.24,0,.44-.06,.61-.17,.17-.11,.31-.27,.41-.47,.11-.2,.19-.43,.24-.68,.05-.26,.08-.54,.08-.84,0-.65-.11-1.17-.32-1.57s-.55-.6-1.01-.6-.78,.2-.96,.59c-.19,.4-.28,.9-.28,1.51,0,.74,.11,1.3,.32,1.67s.52,.56,.9,.56Z"/>
    </g>
    <g>
      <path d="M1378.23,454.7c-.01-.11-.02-.23-.02-.35v-.35c0-.71,.14-1.49,.42-2.33,.28-.85,.64-1.69,1.09-2.54,.44-.85,.93-1.66,1.47-2.45,.53-.79,1.05-1.47,1.56-2.06h-5.24v-1.89h7.29v1.89c-.52,.56-1.03,1.25-1.55,2.06-.52,.81-.98,1.65-1.39,2.53s-.74,1.73-.99,2.57c-.25,.84-.38,1.57-.38,2.2v.38c0,.12,0,.23,.02,.34h-2.29Z"/>
      <path d="M1392.95,442.73c.44,0,.84,.09,1.19,.27,.35,.18,.64,.42,.89,.72,.25,.3,.43,.65,.56,1.05,.13,.4,.19,.82,.19,1.27s-.06,.85-.19,1.26c-.13,.41-.31,.77-.56,1.08-.25,.31-.55,.56-.91,.75-.36,.19-.77,.28-1.24,.28s-.85-.09-1.2-.26c-.34-.17-.63-.41-.86-.71-.23-.3-.41-.65-.52-1.05-.11-.4-.17-.83-.17-1.27,0-.47,.06-.91,.19-1.32s.31-.77,.56-1.08,.54-.55,.89-.72c.35-.17,.74-.26,1.19-.26Zm-.05,5.51c.24,0,.44-.06,.61-.17,.17-.11,.31-.27,.41-.47,.11-.2,.19-.43,.24-.68,.05-.26,.08-.54,.08-.84,0-.65-.11-1.17-.32-1.58-.22-.4-.55-.6-1.01-.6s-.78,.2-.96,.59c-.19,.4-.28,.9-.28,1.51,0,.74,.11,1.3,.32,1.67,.22,.37,.52,.56,.9,.56Zm.74,6.89h-1.62l8.33-12.87h1.62l-8.33,12.87Zm7.47-7.02c.44,0,.84,.09,1.19,.27,.35,.18,.65,.42,.89,.72,.25,.3,.43,.65,.56,1.05s.19,.83,.19,1.27-.06,.85-.19,1.26c-.13,.41-.31,.77-.56,1.08-.25,.31-.55,.56-.91,.75-.36,.19-.77,.28-1.24,.28s-.85-.09-1.2-.26c-.34-.17-.63-.41-.86-.71-.23-.3-.41-.65-.52-1.05-.11-.4-.17-.82-.17-1.27,0-.47,.06-.91,.19-1.32s.31-.77,.56-1.08c.25-.31,.54-.55,.89-.72,.35-.17,.74-.26,1.19-.26Zm-.05,5.51c.24,0,.44-.06,.61-.17s.31-.27,.41-.47c.11-.2,.19-.43,.24-.68s.08-.54,.08-.84c0-.65-.11-1.17-.32-1.58-.22-.4-.55-.6-1.01-.6s-.78,.2-.96,.59c-.19,.4-.28,.9-.28,1.51,0,.74,.11,1.3,.32,1.67,.22,.37,.52,.56,.9,.56Z"/>
    </g>
    <g>
      <path d="M1442.75,448.21c.7,.16,1.23,.52,1.61,1.08s.57,1.25,.57,2.05c0,.5-.08,.98-.23,1.41-.16,.44-.4,.82-.73,1.14-.33,.32-.75,.58-1.25,.77-.5,.19-1.1,.28-1.78,.28-.72,0-1.33-.1-1.84-.3-.5-.2-.91-.46-1.22-.79-.31-.33-.54-.71-.68-1.14-.14-.43-.22-.88-.22-1.33,0-.79,.19-1.46,.58-2.02,.38-.55,.92-.93,1.6-1.13v-.07c-.42-.16-.79-.45-1.11-.88-.32-.43-.48-.98-.48-1.64,0-.86,.29-1.56,.88-2.09,.59-.53,1.42-.79,2.5-.79s1.88,.25,2.48,.76c.6,.51,.9,1.2,.9,2.06,0,.64-.15,1.17-.46,1.61-.31,.44-.68,.75-1.12,.95v.07Zm.11,3.19c0-.28-.04-.55-.11-.83-.07-.28-.19-.52-.34-.74-.16-.22-.36-.39-.6-.53s-.54-.21-.87-.21-.64,.07-.88,.21-.44,.32-.59,.54c-.16,.22-.27,.47-.34,.75-.07,.28-.11,.55-.11,.81,0,.65,.18,1.14,.53,1.48,.35,.34,.82,.5,1.39,.5s1.04-.17,1.4-.5c.35-.34,.53-.83,.53-1.48Zm-.54-5.53c0-.47-.12-.84-.35-1.11-.23-.27-.58-.41-1.04-.41s-.79,.13-1.03,.39c-.24,.26-.36,.63-.36,1.11,0,.5,.13,.9,.38,1.19s.59,.43,1.01,.43,.76-.14,1.01-.43c.25-.29,.38-.68,.38-1.17Z"/>
      <path d="M1453.73,442.76c.44,0,.84,.09,1.19,.27,.35,.18,.64,.42,.89,.72s.43,.65,.56,1.05,.19,.83,.19,1.27-.06,.85-.19,1.26-.31,.77-.56,1.08c-.25,.31-.55,.56-.91,.75-.36,.19-.77,.28-1.24,.28s-.85-.09-1.2-.26c-.34-.17-.63-.41-.86-.71s-.41-.65-.52-1.05c-.11-.4-.17-.83-.17-1.27,0-.47,.06-.91,.19-1.32s.31-.77,.56-1.08c.25-.31,.54-.55,.89-.72,.35-.17,.74-.26,1.19-.26Zm-.05,5.51c.24,0,.44-.06,.61-.17,.17-.11,.31-.27,.41-.47,.11-.2,.19-.43,.24-.68,.05-.26,.08-.54,.08-.84,0-.65-.11-1.17-.32-1.57-.22-.4-.55-.6-1.01-.6s-.78,.2-.96,.59c-.19,.4-.28,.9-.28,1.51,0,.74,.11,1.3,.32,1.67s.52,.56,.9,.56Zm.74,6.89h-1.62l8.33-12.87h1.62l-8.33,12.87Zm7.47-7.02c.44,0,.84,.09,1.19,.27,.35,.18,.65,.42,.89,.72,.25,.3,.43,.65,.56,1.05,.13,.4,.19,.83,.19,1.27s-.06,.85-.19,1.26-.31,.77-.56,1.08c-.25,.31-.55,.56-.91,.75-.36,.19-.77,.28-1.24,.28s-.85-.09-1.2-.26c-.34-.17-.63-.41-.86-.71-.23-.3-.41-.65-.52-1.05s-.17-.83-.17-1.27c0-.47,.06-.91,.19-1.32s.31-.77,.56-1.08c.25-.31,.54-.55,.89-.72,.35-.17,.74-.26,1.19-.26Zm-.05,5.51c.24,0,.44-.06,.61-.17,.17-.11,.31-.27,.41-.47,.11-.2,.19-.43,.24-.68,.05-.26,.08-.54,.08-.84,0-.65-.11-1.17-.32-1.57s-.55-.6-1.01-.6-.78,.2-.96,.59c-.19,.4-.28,.9-.28,1.51,0,.74,.11,1.3,.32,1.67s.52,.56,.9,.56Z"/>
    </g>
    <polygon class="cls-24" points="692.07 214.97 667.07 214.97 654.57 236.62 667.07 258.27 692.07 258.27 704.57 236.62 692.07 214.97"/>
    <polygon class="cls-16" points="780.38 229.97 755.38 229.97 742.88 251.62 755.38 273.27 780.38 273.27 792.88 251.62 780.38 229.97"/>
    <polygon class="cls-19" points="848.96 171.76 823.96 171.76 811.46 193.41 823.96 215.06 848.96 215.06 861.46 193.41 848.96 171.76"/>
    <polygon class="cls-27" points="976.27 248.76 951.27 248.76 938.77 270.41 951.27 292.06 976.27 292.06 988.77 270.41 976.27 248.76"/>
    <polygon class="cls-28" points="937.61 47.76 912.61 47.76 900.11 69.41 912.61 91.06 937.61 91.06 950.11 69.41 937.61 47.76"/>
    <g>
      <path d="M671.28,242.51h-2.07v-8.75l-1.46,.65-.4-1.8,3.92-1.98v11.88Z"/>
      <path d="M680.74,230.54c.44,0,.84,.09,1.19,.27,.35,.18,.65,.42,.89,.72,.25,.3,.43,.65,.56,1.05,.13,.4,.19,.82,.19,1.27s-.06,.85-.19,1.26c-.13,.41-.31,.77-.56,1.08-.25,.31-.55,.56-.91,.75-.36,.19-.77,.28-1.24,.28s-.85-.09-1.2-.26c-.34-.17-.63-.41-.86-.71-.23-.3-.41-.65-.52-1.05-.11-.4-.17-.83-.17-1.27,0-.47,.06-.91,.19-1.32s.31-.77,.56-1.08c.25-.31,.54-.55,.89-.72,.35-.17,.74-.26,1.19-.26Zm-.05,5.51c.24,0,.44-.06,.61-.17,.17-.11,.31-.27,.41-.47,.11-.2,.19-.43,.24-.68s.08-.54,.08-.84c0-.65-.11-1.17-.32-1.58-.22-.4-.55-.6-1.01-.6s-.78,.2-.96,.59c-.19,.4-.28,.9-.28,1.51,0,.74,.11,1.3,.32,1.67,.22,.37,.52,.56,.9,.56Zm.74,6.89h-1.62l8.33-12.87h1.62l-8.33,12.87Zm7.47-7.02c.44,0,.84,.09,1.19,.27s.65,.42,.89,.72c.25,.3,.43,.65,.56,1.05s.19,.83,.19,1.27-.06,.85-.19,1.26c-.13,.41-.31,.77-.56,1.08-.25,.31-.55,.56-.91,.75-.36,.19-.77,.28-1.24,.28s-.85-.09-1.2-.26c-.34-.17-.63-.41-.86-.71s-.41-.65-.52-1.05c-.11-.4-.17-.82-.17-1.27,0-.47,.06-.91,.19-1.32s.31-.77,.56-1.08c.25-.31,.54-.55,.89-.72s.74-.26,1.19-.26Zm-.05,5.51c.24,0,.44-.06,.61-.17,.17-.11,.31-.27,.41-.47,.11-.2,.19-.43,.24-.68,.05-.26,.08-.54,.08-.84,0-.65-.11-1.17-.32-1.58-.22-.4-.55-.6-1.01-.6s-.78,.2-.96,.59c-.19,.4-.28,.9-.28,1.51,0,.74,.11,1.3,.32,1.67,.22,.37,.52,.56,.9,.56Z"/>
    </g>
    <g>
      <path d="M754.45,246.28c.46-.28,.98-.5,1.58-.68,.59-.18,1.19-.27,1.77-.27,.5,0,.97,.07,1.39,.22,.42,.14,.78,.34,1.09,.6,.31,.26,.54,.57,.71,.93,.17,.36,.25,.76,.25,1.19,0,.64-.16,1.16-.49,1.56-.32,.4-.73,.74-1.22,1.02,.72,.24,1.28,.6,1.68,1.08,.4,.48,.6,1.11,.6,1.89,0,.5-.09,.98-.27,1.43-.18,.45-.46,.84-.83,1.18s-.83,.6-1.39,.8c-.55,.2-1.19,.3-1.93,.3-1.49,0-2.71-.41-3.67-1.22l.5-1.64c.42,.35,.89,.62,1.4,.83,.52,.2,1.07,.31,1.66,.31,.76,0,1.33-.18,1.72-.53,.39-.35,.58-.87,.58-1.56,0-.61-.18-1.09-.53-1.45-.35-.35-.94-.53-1.77-.53h-.49v-1.57h.56c.53,0,.94-.17,1.22-.5s.43-.78,.43-1.33c0-.49-.15-.84-.45-1.04-.3-.2-.66-.3-1.08-.3-.23,0-.46,.02-.71,.07s-.48,.12-.71,.21c-.23,.09-.44,.19-.64,.31-.2,.11-.37,.24-.51,.37l-.47-1.66Z"/>
      <path d="M770.6,245.32c.44,0,.84,.09,1.19,.27,.35,.18,.64,.42,.89,.72,.25,.3,.43,.65,.56,1.05,.13,.4,.19,.82,.19,1.27s-.06,.85-.19,1.26c-.13,.41-.31,.77-.56,1.08-.25,.31-.55,.56-.91,.75-.36,.19-.77,.28-1.24,.28s-.85-.09-1.2-.26c-.34-.17-.63-.41-.86-.71-.23-.3-.41-.65-.52-1.05-.11-.4-.17-.83-.17-1.27,0-.47,.06-.91,.19-1.32s.31-.77,.56-1.08,.54-.55,.89-.72c.35-.17,.74-.26,1.19-.26Zm-.05,5.51c.24,0,.44-.06,.61-.17,.17-.11,.31-.27,.41-.47,.11-.2,.19-.43,.24-.68,.05-.26,.08-.54,.08-.84,0-.65-.11-1.17-.32-1.58-.22-.4-.55-.6-1.01-.6s-.78,.2-.96,.59c-.19,.4-.28,.9-.28,1.51,0,.74,.11,1.3,.32,1.67,.22,.37,.52,.56,.9,.56Zm.74,6.89h-1.62l8.33-12.87h1.62l-8.33,12.87Zm7.47-7.02c.44,0,.84,.09,1.19,.27,.35,.18,.65,.42,.89,.72,.25,.3,.43,.65,.56,1.05s.19,.83,.19,1.27-.06,.85-.19,1.26c-.13,.41-.31,.77-.56,1.08-.25,.31-.55,.56-.91,.75-.36,.19-.77,.28-1.24,.28s-.85-.09-1.2-.26c-.34-.17-.63-.41-.86-.71-.23-.3-.41-.65-.52-1.05-.11-.4-.17-.82-.17-1.27,0-.47,.06-.91,.19-1.32s.31-.77,.56-1.08c.25-.31,.54-.55,.89-.72,.35-.17,.74-.26,1.19-.26Zm-.05,5.51c.24,0,.44-.06,.61-.17s.31-.27,.41-.47c.11-.2,.19-.43,.24-.68s.08-.54,.08-.84c0-.65-.11-1.17-.32-1.58-.22-.4-.55-.6-1.01-.6s-.78,.2-.96,.59c-.19,.4-.28,.9-.28,1.51,0,.74,.11,1.3,.32,1.67,.22,.37,.52,.56,.9,.56Z"/>
    </g>
    <g>
      <path d="M824.49,193.86l.7-6.53h6.1v1.89h-4.43l-.27,2.84c.25-.07,.52-.12,.79-.15,.28-.03,.53-.04,.76-.04,.55,0,1.06,.08,1.51,.24s.85,.4,1.19,.71c.34,.31,.6,.69,.78,1.14,.19,.45,.28,.96,.28,1.54s-.09,1.07-.27,1.56c-.18,.49-.45,.91-.82,1.28-.37,.37-.83,.65-1.38,.86-.55,.21-1.2,.31-1.94,.31s-1.41-.1-2.03-.31-1.16-.51-1.63-.89l.52-1.71c.18,.17,.39,.32,.62,.46,.23,.14,.49,.26,.76,.36,.27,.1,.55,.18,.83,.24,.28,.06,.56,.09,.84,.09,.3,0,.59-.04,.87-.12,.28-.08,.53-.2,.74-.37,.21-.17,.38-.39,.5-.66,.13-.27,.19-.6,.19-.98,0-.29-.04-.55-.11-.79-.07-.24-.19-.44-.36-.61-.17-.17-.39-.3-.67-.4-.28-.1-.64-.14-1.07-.14-.37,0-.78,.04-1.22,.11-.44,.07-.86,.19-1.26,.34l-.52-.27Z"/>
      <path d="M840.61,187.32c.44,0,.84,.09,1.19,.27,.35,.18,.64,.42,.89,.72s.43,.65,.56,1.05,.19,.83,.19,1.27-.06,.85-.19,1.26-.31,.77-.56,1.08c-.25,.31-.55,.56-.91,.75-.36,.19-.77,.28-1.24,.28s-.85-.09-1.2-.26c-.34-.17-.63-.41-.86-.71s-.41-.65-.52-1.05c-.11-.4-.17-.83-.17-1.27,0-.47,.06-.91,.19-1.32s.31-.77,.56-1.08c.25-.31,.54-.55,.89-.72,.35-.17,.74-.26,1.19-.26Zm-.05,5.51c.24,0,.44-.06,.61-.17,.17-.11,.31-.27,.41-.47,.11-.2,.19-.43,.24-.68,.05-.26,.08-.54,.08-.84,0-.65-.11-1.17-.32-1.57-.22-.4-.55-.6-1.01-.6s-.78,.2-.96,.59c-.19,.4-.28,.9-.28,1.51,0,.74,.11,1.3,.32,1.67s.52,.56,.9,.56Zm.74,6.89h-1.62l8.33-12.87h1.62l-8.33,12.87Zm7.47-7.02c.44,0,.84,.09,1.19,.27,.35,.18,.65,.42,.89,.72,.25,.3,.43,.65,.56,1.05,.13,.4,.19,.83,.19,1.27s-.06,.85-.19,1.26-.31,.77-.56,1.08c-.25,.31-.55,.56-.91,.75-.36,.19-.77,.28-1.24,.28s-.85-.09-1.2-.26c-.34-.17-.63-.41-.86-.71-.23-.3-.41-.65-.52-1.05s-.17-.83-.17-1.27c0-.47,.06-.91,.19-1.32s.31-.77,.56-1.08c.25-.31,.54-.55,.89-.72,.35-.17,.74-.26,1.19-.26Zm-.05,5.51c.24,0,.44-.06,.61-.17,.17-.11,.31-.27,.41-.47,.11-.2,.19-.43,.24-.68,.05-.26,.08-.54,.08-.84,0-.65-.11-1.17-.32-1.57s-.55-.6-1.01-.6-.78,.2-.96,.59c-.19,.4-.28,.9-.28,1.51,0,.74,.11,1.3,.32,1.67s.52,.56,.9,.56Z"/>
    </g>
    <g>
      <path d="M951.23,277.26c-.01-.11-.02-.23-.02-.35v-.35c0-.71,.14-1.49,.42-2.33,.28-.85,.64-1.69,1.09-2.54,.44-.85,.93-1.66,1.47-2.45,.53-.79,1.05-1.47,1.56-2.06h-5.24v-1.89h7.29v1.89c-.52,.56-1.03,1.25-1.55,2.06-.52,.81-.98,1.65-1.39,2.53s-.74,1.73-.99,2.57c-.25,.84-.38,1.57-.38,2.2v.38c0,.12,0,.23,.02,.34h-2.29Z"/>
      <path d="M965.95,265.29c.44,0,.84,.09,1.19,.27,.35,.18,.64,.42,.89,.72,.25,.3,.43,.65,.56,1.05,.13,.4,.19,.82,.19,1.27s-.06,.85-.19,1.26c-.13,.41-.31,.77-.56,1.08-.25,.31-.55,.56-.91,.75-.36,.19-.77,.28-1.24,.28s-.85-.09-1.2-.26c-.34-.17-.63-.41-.86-.71-.23-.3-.41-.65-.52-1.05-.11-.4-.17-.83-.17-1.27,0-.47,.06-.91,.19-1.32s.31-.77,.56-1.08,.54-.55,.89-.72c.35-.17,.74-.26,1.19-.26Zm-.05,5.51c.24,0,.44-.06,.61-.17,.17-.11,.31-.27,.41-.47,.11-.2,.19-.43,.24-.68,.05-.26,.08-.54,.08-.84,0-.65-.11-1.17-.32-1.58-.22-.4-.55-.6-1.01-.6s-.78,.2-.96,.59c-.19,.4-.28,.9-.28,1.51,0,.74,.11,1.3,.32,1.67,.22,.37,.52,.56,.9,.56Zm.74,6.89h-1.62l8.33-12.87h1.62l-8.33,12.87Zm7.47-7.02c.44,0,.84,.09,1.19,.27,.35,.18,.65,.42,.89,.72,.25,.3,.43,.65,.56,1.05s.19,.83,.19,1.27-.06,.85-.19,1.26c-.13,.41-.31,.77-.56,1.08-.25,.31-.55,.56-.91,.75-.36,.19-.77,.28-1.24,.28s-.85-.09-1.2-.26c-.34-.17-.63-.41-.86-.71-.23-.3-.41-.65-.52-1.05-.11-.4-.17-.82-.17-1.27,0-.47,.06-.91,.19-1.32s.31-.77,.56-1.08c.25-.31,.54-.55,.89-.72,.35-.17,.74-.26,1.19-.26Zm-.05,5.51c.24,0,.44-.06,.61-.17s.31-.27,.41-.47c.11-.2,.19-.43,.24-.68s.08-.54,.08-.84c0-.65-.11-1.17-.32-1.58-.22-.4-.55-.6-1.01-.6s-.78,.2-.96,.59c-.19,.4-.28,.9-.28,1.51,0,.74,.11,1.3,.32,1.67,.22,.37,.52,.56,.9,.56Z"/>
    </g>
    <g>
      <path d="M916.75,69.78c.7,.16,1.23,.52,1.61,1.08s.57,1.25,.57,2.05c0,.5-.08,.98-.23,1.41-.16,.44-.4,.82-.73,1.14-.33,.32-.75,.58-1.25,.77-.5,.19-1.1,.28-1.78,.28-.72,0-1.33-.1-1.84-.3-.5-.2-.91-.46-1.22-.79-.31-.33-.54-.71-.68-1.14-.14-.43-.22-.88-.22-1.33,0-.79,.19-1.46,.58-2.02,.38-.55,.92-.93,1.6-1.13v-.07c-.42-.16-.79-.45-1.11-.88-.32-.43-.48-.98-.48-1.64,0-.86,.29-1.56,.88-2.09,.59-.53,1.42-.79,2.5-.79s1.88,.25,2.48,.76c.6,.51,.9,1.2,.9,2.06,0,.64-.15,1.17-.46,1.61-.31,.44-.68,.75-1.12,.95v.07Zm.11,3.19c0-.28-.04-.55-.11-.83-.07-.28-.19-.52-.34-.74-.16-.22-.36-.39-.6-.53s-.54-.21-.87-.21-.64,.07-.88,.21-.44,.32-.59,.54c-.16,.22-.27,.47-.34,.75-.07,.28-.11,.55-.11,.81,0,.65,.18,1.14,.53,1.48,.35,.34,.82,.5,1.39,.5s1.04-.17,1.4-.5c.35-.34,.53-.83,.53-1.48Zm-.54-5.53c0-.47-.12-.84-.35-1.11-.23-.27-.58-.41-1.04-.41s-.79,.13-1.03,.39c-.24,.26-.36,.63-.36,1.11,0,.5,.13,.9,.38,1.19s.59,.43,1.01,.43,.76-.14,1.01-.43c.25-.29,.38-.68,.38-1.17Z"/>
      <path d="M927.73,64.32c.44,0,.84,.09,1.19,.27,.35,.18,.64,.42,.89,.72s.43,.65,.56,1.05,.19,.83,.19,1.27-.06,.85-.19,1.26-.31,.77-.56,1.08c-.25,.31-.55,.56-.91,.75-.36,.19-.77,.28-1.24,.28s-.85-.09-1.2-.26c-.34-.17-.63-.41-.86-.71s-.41-.65-.52-1.05c-.11-.4-.17-.83-.17-1.27,0-.47,.06-.91,.19-1.32s.31-.77,.56-1.08c.25-.31,.54-.55,.89-.72,.35-.17,.74-.26,1.19-.26Zm-.05,5.51c.24,0,.44-.06,.61-.17,.17-.11,.31-.27,.41-.47,.11-.2,.19-.43,.24-.68,.05-.26,.08-.54,.08-.84,0-.65-.11-1.17-.32-1.57-.22-.4-.55-.6-1.01-.6s-.78,.2-.96,.59c-.19,.4-.28,.9-.28,1.51,0,.74,.11,1.3,.32,1.67s.52,.56,.9,.56Zm.74,6.89h-1.62l8.33-12.87h1.62l-8.33,12.87Zm7.47-7.02c.44,0,.84,.09,1.19,.27,.35,.18,.65,.42,.89,.72,.25,.3,.43,.65,.56,1.05,.13,.4,.19,.83,.19,1.27s-.06,.85-.19,1.26-.31,.77-.56,1.08c-.25,.31-.55,.56-.91,.75-.36,.19-.77,.28-1.24,.28s-.85-.09-1.2-.26c-.34-.17-.63-.41-.86-.71-.23-.3-.41-.65-.52-1.05s-.17-.83-.17-1.27c0-.47,.06-.91,.19-1.32s.31-.77,.56-1.08c.25-.31,.54-.55,.89-.72,.35-.17,.74-.26,1.19-.26Zm-.05,5.51c.24,0,.44-.06,.61-.17,.17-.11,.31-.27,.41-.47,.11-.2,.19-.43,.24-.68,.05-.26,.08-.54,.08-.84,0-.65-.11-1.17-.32-1.57s-.55-.6-1.01-.6-.78,.2-.96,.59c-.19,.4-.28,.9-.28,1.51,0,.74,.11,1.3,.32,1.67s.52,.56,.9,.56Z"/>
    </g>
    <polygon class="cls-7" points="761.92 136.78 736.92 136.78 724.42 158.43 736.92 180.08 761.92 180.08 774.42 158.43 761.92 136.78"/>
    <polygon class="cls-22" points="726.23 84.78 701.23 84.78 688.73 106.43 701.23 128.08 726.23 128.08 738.73 106.43 726.23 84.78"/>
    <polygon class="cls-17" points="853.81 336.57 828.81 336.57 816.31 358.22 828.81 379.87 853.81 379.87 866.31 358.22 853.81 336.57"/>
    <polygon class="cls-14" points="776.12 327.57 751.12 327.57 738.62 349.22 751.12 370.87 776.12 370.87 788.62 349.22 776.12 327.57"/>
    <polygon class="cls-11" points="819.46 69.57 794.46 69.57 781.96 91.22 794.46 112.87 819.46 112.87 831.96 91.22 819.46 69.57"/>
    <path class="cls-4" d="M617.13,322.8v29.41c64.45,20.3,128.9,40.6,193.35,60.91,68.22-20.3,136.43-40.6,204.65-60.91v-34.09"/>
    <polygon class="cls-15" points="169.36 600.92 144.36 600.92 131.86 622.57 144.36 644.22 169.36 644.22 181.86 622.57 169.36 600.92"/>
    <polygon class="cls-12" points="228.66 600.92 203.66 600.92 191.16 622.57 203.66 644.22 228.66 644.22 241.16 622.57 228.66 600.92"/>
    <polygon class="cls-2" points="288.24 600.71 263.24 600.71 250.74 622.36 263.24 644.01 288.24 644.01 300.74 622.36 288.24 600.71"/>
    <polygon class="cls-20" points="347.55 600.71 322.55 600.71 310.05 622.36 322.55 644.01 347.55 644.01 360.05 622.36 347.55 600.71"/>
    <polygon class="cls-9" points="407.89 600.71 382.89 600.71 370.39 622.36 382.89 644.01 407.89 644.01 420.39 622.36 407.89 600.71"/>
  </g>
</svg>