<?xml version="1.0" encoding="UTF-8"?>
<svg id="Ebene_2" data-name="Ebene 2" xmlns="http://www.w3.org/2000/svg" xmlns:xlink="http://www.w3.org/1999/xlink" viewBox="0 0 1200 790">
  <defs>
    <style>
      .cls-1, .cls-2, .cls-3, .cls-4, .cls-5 {
        stroke-miterlimit: 10;
      }

      .cls-1, .cls-2, .cls-4 {
        stroke: #1d1d1b;
      }

      .cls-1, .cls-2, .cls-4, .cls-6 {
        fill: none;
      }

      .cls-1, .cls-5 {
        stroke-width: .25px;
      }

      .cls-7, .cls-3 {
        fill: #fff;
      }

      .cls-8, .cls-5 {
        fill: #253c78;
      }

      .cls-2 {
        stroke-width: .75px;
      }

      .cls-3 {
        stroke-width: .5px;
      }

      .cls-3, .cls-5 {
        stroke: #242c58;
      }

      .cls-9 {
        clip-path: url(#clippath);
      }

      .cls-10 {
        fill: #ff6b35;
      }

      .cls-11 {
        fill: #7792d6;
      }

      .cls-12 {
        fill: #1d1d1b;
      }
    </style>
    <clipPath id="clippath">
      <rect class="cls-6" width="1200" height="790"/>
    </clipPath>
  </defs>
  <g id="Ebene_1-2" data-name="Ebene 1">
    <g class="cls-9">
      <rect class="cls-8" y=".83" width="1200" height="790"/>
      <path class="cls-5" d="M224.53,158.55c-.15-1.58,.8-2.98,2.04-3.32,1.54-.42,3.45,.78,3.7,2.81"/>
      <path class="cls-5" d="M247.3,158.55c.15-1.58-.8-2.98-2.04-3.32-1.54-.42-3.45,.78-3.7,2.81"/>
      <rect class="cls-6" x="0" width="1200" height="790"/>
      <g>
        <path class="cls-7" d="M521.34,541.83c-3.78-30.11-6.65-53.56-8.43-68.17-3.58-29.49-5.32-44.47-9.18-66.33-2.72-15.42-5.39-27.98-7.23-36.24,19.96-1.37,36.42-3.15,48.57-4.67,13.22-1.65,20.27-2.83,28.27-4.85,6.85-1.73,13.63-4.26,28.42-9.7,50.64-18.63,60.05-30.14,75.06-23.74,0,0,5.74,2.45,29.11,26.81,0,0,10.37,4.08,11.49,4.6,5.44,2.51,7.9,20.38-5.36,88.09,.61,4.96,9.1,83.77-46.72,125.62-1.04,.78-2.71,2.04-4.96,3.58-6.6,4.52-39.87,26.99-78.53,17.11-17.14-4.38-28.47-13.37-33.7-17.62-15.24-12.36-23.1-26.5-26.81-34.47Z"/>
        <path d="M503.29,401.79c4.08,8.34,8.47,15.65,10.17,24.36,4.75,24.18,15.65,45.92,31.98,63.89,3.82,4.2,6.15,8.44,7.39,12.72,.04,.13,.15,.53,.27,1,1.79,7.12-.03,12.88-1.44,21.12-1.31,7.62-1.96,11.51-1.02,15.22,.89,3.49,2.72,6.8,5.65,10.18,9.01,10.48,18.03,20.89,30.51,27.53,14.43,7.74,34.66,6.4,50.98-6.33,13.34-10.41,23.33-23.75,32.58-37.76,1.64-2.44,.97-4.57,.49-6.88-.61-2.86-1.16-5.73-1.77-8.53-2.5-11.51,.91-20.65,8.77-29.66,15.71-18.09,26.19-39.16,31.06-62.73,1.77-8.53,6.27-15.59,11.02-23.14-.12,2.92,0,5.91-.43,8.83-4.51,30.09-1.1,59.81,4.26,89.29,2.25,12.12,6.21,24.06,11.08,35.57,2.86,6.7,9.68,6.58,14.92,8.71,18.94,7.55,37.34,16.08,54.75,26.8,15.77,9.68,23.75,24.42,29.36,41.05,8.77,25.95,16.44,52.2,21.68,79.18,5.73,29.6,7.98,59.32,6.27,89.41-.79,13.16-9.07,21.01-20.1,25.15-26.13,9.81-53.05,17.42-80.46,23.02-16.14,3.29-32.34,5.79-48.42,8.89-12.18,2.38-24.12,2.07-36.24,2.13-31.91,.24-63.89-.43-95.8,.24-30.7,.61-60.84-2.62-91.05-8.28-31.12-5.79-61.82-12.73-91.78-22.66-8.47-2.8-16.81-5.97-25.03-9.44-12.73-5.36-14.74-16.81-15.65-28.26-1.4-17.85,1.83-35.51,3.72-53.11,2.56-23.69,6.64-47.2,12.49-70.35,5.48-21.74,12.12-43.18,24.06-62.25,9.56-15.29,25.03-23.69,41.66-29.78,13.83-4.99,27.71-9.81,41.54-14.86,3.17-1.16,5.42-3.17,6.88-6.82,8.28-21.26,13.03-43.12,15.1-65.9,1.83-19.73,2.68-39.28-.24-58.96-.3-2.5-.85-5.18,.79-8.59h0Zm25.64-27.65c-8.28,0-16.57-.18-24.85,.06-5.54,.18-7.8-1.89-7.98-7.61-.49-14.13-1.46-28.38,.49-42.33,4.69-33.19,22.23-70.35,65.96-83.68,19.67-6.03,39.47-10.54,59.75-7.92,38.13,4.87,71.69,19.06,90.32,55.42,12,23.33,11.94,49.21,10.9,74.85-.06,2.31,.3,4.69-4.08,3.84-3.41-.67-3.96,3.78-4.51,6.33-.85,4.02-2.01,4.63-5.85,2.62-16.63-8.71-27.53-22.29-34.23-39.41-1.83-4.69-2.62-5.54-7.31-2.25-30.39,21.2-64.19,33.07-100.92,37.94-12.55,1.71-25.09,2.25-37.7,2.13h0Z"/>
        <path class="cls-3" d="M551.98,407.41c.15-4.71,9.59-7.64,11.49-8.23,11.64-3.61,26.17,.51,27.19,6.93,.71,4.45-5.16,9.56-9.57,11.7-12.48,6.03-29.31-4.02-29.11-10.4Z"/>
        <path class="cls-3" d="M627.94,407.41c.15-4.71,9.59-7.64,11.49-8.23,11.64-3.61,26.17,.51,27.19,6.93,.71,4.45-5.16,9.56-9.57,11.7-12.48,6.03-29.31-4.02-29.11-10.4Z"/>
        <path class="cls-4" d="M600.75,482.51c1.66-2.78,4.86-6.97,10.78-10.4,10.39-6.03,21.93-5.55,25.27-5.41,4.57,.19,8.18,.95,10.51,1.57"/>
        <circle class="cls-12" cx="571.51" cy="408.81" r="7.28"/>
        <circle class="cls-12" cx="648.31" cy="408.81" r="7.28"/>
        <path class="cls-1" d="M545.44,490.04c5.22,6.27,17.02,18.71,36.42,25.75,3.2,1.16,15.6,5.44,31.02,4.98,37.23-1.11,62.23-28.98,67.42-35.02"/>
        <path class="cls-2" d="M608.46,423.32c1.96,3.77,3.6,8.72,1.94,13.6-1.45,4.26-4.81,6.67-3.88,8.16,.59,.95,2.87,1.45,10.18-.45"/>
      </g>
      <path class="cls-10" d="M1138.27,280.69c30.06-35.63,41.3-76.7,30.16-122.34-9.96-40.87-35.44-70.98-70.55-92.9-42.26-26.34-88.51-35.4-137.77-29.2-47.59,6-88.94,25.01-121.05,61.22-31.82,35.82-44.02,77.65-32.63,124.72,4.57,18.77,11.15,37.06,12.29,56.6,1.48,24.2-1.86,47.4-13.72,68.93-1.81,3.29-3.86,6.43-5.91,9.77,.81,.29,1.19,.52,1.52,.48,31.35-4.14,60.98-13.29,87.66-30.68,2.52-1.67,4.53-2.62,7.81-1.05,41.3,19.34,84.56,25.01,129.44,17.01,44.69-8,83.27-27.54,112.76-62.55h0Z"/>
      <path class="cls-11" d="M65.58,280.69c29.49,35.02,68.08,54.55,112.76,62.55,44.88,8,88.13,2.33,129.44-17.01,3.29-1.57,5.29-.62,7.81,1.05,26.68,17.39,56.31,26.54,87.66,30.68,.33,.05,.71-.19,1.52-.48-2.05-3.33-4.1-6.48-5.91-9.77-11.86-21.53-15.2-44.73-13.72-68.93,1.14-19.53,7.72-37.83,12.29-56.6,11.39-47.07-.81-88.9-32.63-124.72-32.11-36.21-73.46-55.21-121.05-61.22-49.26-6.19-95.52,2.86-137.77,29.2-35.11,21.91-60.6,52.02-70.55,92.9-11.15,45.64,.1,86.7,30.16,122.34h0Z"/>
      <g>
        <path class="cls-7" d="M881.87,167.39h-2.73v10.44h-4.83v-27.83h6.68c1.57,0,3,.19,4.28,.56,1.29,.38,2.39,.94,3.32,1.69,.92,.75,1.64,1.67,2.14,2.77,.5,1.1,.76,2.37,.76,3.81,0,1.17-.2,2.27-.59,3.29-.39,1.03-.98,1.93-1.76,2.71-.78,.78-1.79,1.4-3,1.86-1.22,.46-2.64,.69-4.26,.69Zm-.21-13.44h-1.3c-.42,0-.83,.05-1.22,.15v9.22c.39,.03,.8,.04,1.24,.04h1.36c1.51,0,2.65-.42,3.42-1.25,.77-.84,1.15-2.05,1.15-3.64,0-1.34-.34-2.42-1.03-3.26-.69-.84-1.9-1.25-3.63-1.25Z"/>
        <path class="cls-7" d="M903.79,157.9c2.46,0,4.37,.62,5.71,1.87,1.34,1.25,2.02,3,2.02,5.27,0,.31-.02,.64-.06,.99-.04,.35-.1,.69-.17,1.03-.07,.34-.15,.64-.25,.9-.1,.27-.2,.48-.31,.65h-12.22c.06,.84,.21,1.63,.46,2.37,.25,.74,.62,1.39,1.09,1.93,.48,.55,1.06,.98,1.74,1.3,.69,.32,1.49,.48,2.42,.48,1.04,0,2.13-.2,3.3-.59,1.16-.39,2.15-.88,2.96-1.47l.76,3.44c-.36,.22-.81,.47-1.34,.74-.53,.27-1.13,.51-1.81,.73-.67,.22-1.39,.41-2.16,.57-.77,.15-1.57,.23-2.42,.23-1.57,0-2.95-.27-4.16-.82-1.2-.55-2.21-1.29-3.02-2.23-.81-.94-1.43-2.02-1.85-3.25-.42-1.23-.63-2.52-.63-3.86s.22-2.68,.65-3.93c.43-1.25,1.07-2.34,1.91-3.3,.84-.95,1.88-1.7,3.13-2.25,1.25-.55,2.67-.82,4.26-.82Zm-.13,3.61c-1.18,0-2.18,.34-3,1.03-.83,.69-1.42,1.62-1.78,2.79h8.02c.03-.08,.05-.18,.06-.29,.01-.11,.02-.25,.02-.42,0-.9-.31-1.64-.92-2.23-.62-.59-1.41-.88-2.39-.88Z"/>
        <path class="cls-7" d="M927.27,162.73c-.28-.22-.71-.41-1.3-.55-.59-.14-1.09-.21-1.51-.21-.56,0-1.02,.13-1.39,.4-.36,.27-.69,.62-.97,1.05-.28,.43-.52,.93-.71,1.49-.2,.56-.38,1.13-.55,1.72v11.21h-4.62v-19.32h3.61l.21,4.03h.17c.28-.59,.57-1.16,.88-1.72,.31-.56,.66-1.06,1.05-1.49,.39-.43,.85-.78,1.37-1.05,.52-.27,1.13-.4,1.83-.4,1.12,0,2.17,.36,3.15,1.09l-1.22,3.74Z"/>
        <path class="cls-7" d="M932.86,161.35h-2.39v-2.39l2.39-.38c0-1.6,.05-2.95,.15-4.07,.1-1.12,.23-2.06,.4-2.83,.17-.77,.36-1.39,.57-1.87,.21-.48,.43-.87,.65-1.18,.56-.73,1.29-1.25,2.21-1.58,.91-.32,1.91-.48,3-.48h.67c.31,0,.65,.03,1.03,.09,.38,.06,.77,.15,1.18,.29,.41,.13,.78,.3,1.11,.51l-1.05,3.57c-.28-.17-.74-.4-1.39-.69-.64-.29-1.27-.44-1.89-.44-.36,0-.67,.08-.92,.25-.25,.17-.46,.48-.63,.92-.17,.45-.29,1.05-.36,1.81-.07,.76-.1,1.72-.1,2.9v2.77h3.7v2.81h-3.7v16.51h-4.62v-16.51Z"/>
        <path class="cls-7" d="M953.31,157.9c1.71,0,3.18,.29,4.41,.86,1.23,.57,2.25,1.34,3.04,2.31,.8,.97,1.39,2.07,1.76,3.32,.38,1.25,.57,2.56,.57,3.93s-.19,2.67-.57,3.89c-.38,1.22-.97,2.28-1.76,3.19-.8,.91-1.81,1.63-3.02,2.16-1.22,.53-2.65,.8-4.31,.8s-3.18-.28-4.41-.84c-1.23-.56-2.25-1.31-3.07-2.25-.81-.94-1.41-2.02-1.81-3.25-.39-1.23-.59-2.53-.59-3.91s.2-2.67,.59-3.91c.39-1.23,.99-2.32,1.79-3.25s1.81-1.68,3.04-2.23,2.67-.82,4.33-.82Zm.08,16.97c.81,0,1.52-.17,2.12-.52,.6-.35,1.1-.83,1.49-1.43,.39-.6,.68-1.29,.86-2.08,.18-.78,.27-1.61,.27-2.48s-.1-1.76-.29-2.58c-.2-.83-.5-1.55-.9-2.18-.41-.63-.92-1.13-1.53-1.51-.62-.38-1.36-.57-2.23-.57-.81,0-1.51,.18-2.1,.52-.59,.35-1.07,.82-1.45,1.41-.38,.59-.66,1.27-.84,2.06-.18,.78-.27,1.61-.27,2.48s.09,1.76,.27,2.58c.18,.83,.48,1.56,.88,2.21,.41,.64,.92,1.16,1.53,1.53,.62,.38,1.34,.57,2.18,.57Z"/>
        <path class="cls-7" d="M978.81,162.73c-.28-.22-.71-.41-1.3-.55-.59-.14-1.09-.21-1.51-.21-.56,0-1.02,.13-1.39,.4-.36,.27-.69,.62-.97,1.05-.28,.43-.52,.93-.71,1.49-.2,.56-.38,1.13-.55,1.72v11.21h-4.62v-19.32h3.61l.21,4.03h.17c.28-.59,.57-1.16,.88-1.72,.31-.56,.66-1.06,1.05-1.49,.39-.43,.85-.78,1.36-1.05,.52-.27,1.13-.4,1.83-.4,1.12,0,2.17,.36,3.15,1.09l-1.22,3.74Z"/>
        <path class="cls-7" d="M995.98,177.85v-12.77c0-2.3-.91-3.44-2.73-3.44-.45,0-.93,.08-1.45,.25-.52,.17-1.02,.41-1.51,.73-.49,.32-.94,.72-1.34,1.2-.41,.48-.69,1.02-.86,1.64v12.39h-4.62v-19.32h3.61l.21,2.86h.17c.56-1.18,1.45-2.05,2.67-2.62,1.22-.57,2.51-.86,3.89-.86s2.51,.26,3.59,.78c1.08,.52,1.88,1.41,2.42,2.67,.56-1.15,1.44-2.01,2.65-2.58,1.2-.57,2.49-.86,3.86-.86,.9,0,1.74,.12,2.54,.36s1.5,.62,2.1,1.15c.6,.53,1.08,1.23,1.43,2.1,.35,.87,.52,1.93,.52,3.19v13.15h-4.62v-12.77c0-2.3-.91-3.44-2.73-3.44-.45,0-.93,.08-1.45,.25-.52,.17-1.02,.41-1.51,.73-.49,.32-.94,.72-1.34,1.2-.41,.48-.69,1.02-.86,1.64v12.39h-4.62Z"/>
        <path class="cls-7" d="M1030.3,177.85l-.34-2.65h-.17c-.76,.95-1.79,1.72-3.09,2.29-1.3,.57-2.62,.86-3.97,.86-1.76,0-3.15-.51-4.16-1.53-1.01-1.02-1.51-2.37-1.51-4.05,0-1.15,.25-2.18,.74-3.09,.49-.91,1.2-1.68,2.12-2.31s2.03-1.11,3.32-1.45c1.29-.34,2.73-.5,4.33-.5h1.81v-.63c0-1.09-.35-1.89-1.05-2.39-.73-.5-1.86-.76-3.4-.76-2.07,0-3.92,.46-5.54,1.39l-.88-3.49c1.88-1.09,4.14-1.64,6.8-1.64,2.8,0,4.93,.57,6.38,1.72,.67,.53,1.22,1.22,1.66,2.06,.43,.84,.65,1.85,.65,3.02v13.15h-3.7Zm-5.75-3.23c.9,0,1.79-.22,2.69-.65,.9-.43,1.61-1.01,2.14-1.74v-3.82h-.8c-2.3,0-3.97,.29-5.02,.88s-1.58,1.53-1.58,2.81c0,1.68,.85,2.52,2.56,2.52Z"/>
        <path class="cls-7" d="M1052.51,177.85v-12.77c0-2.3-.98-3.44-2.94-3.44-.48,0-.99,.08-1.53,.25s-1.07,.41-1.58,.73c-.5,.32-.96,.72-1.37,1.2-.41,.48-.71,1.02-.9,1.64v12.39h-4.62v-19.32h3.61l.21,2.86h.17c.59-1.18,1.5-2.05,2.75-2.62,1.25-.57,2.58-.86,4.01-.86,.92,0,1.79,.12,2.6,.36,.81,.24,1.53,.62,2.16,1.15,.63,.53,1.13,1.23,1.49,2.1,.36,.87,.55,1.93,.55,3.19v13.15h-4.62Z"/>
        <path class="cls-7" d="M1077.46,163.32c-.31-.22-.69-.45-1.15-.67-.46-.22-.96-.42-1.49-.59-.53-.17-1.09-.3-1.66-.4-.57-.1-1.11-.15-1.62-.15-.95,0-1.76,.18-2.42,.52-.66,.35-1.19,.81-1.6,1.39-.41,.57-.7,1.24-.88,1.99-.18,.76-.27,1.54-.27,2.35,0,.95,.11,1.84,.34,2.67,.22,.83,.56,1.55,1.01,2.16,.45,.62,1.01,1.11,1.7,1.47s1.48,.55,2.37,.55c1.01,0,2.08-.2,3.21-.61,1.13-.41,2.08-.97,2.83-1.7l.84,3.95c-.78,.5-1.86,.98-3.21,1.43-1.36,.45-2.81,.67-4.35,.67-1.62,0-3.04-.28-4.26-.84-1.22-.56-2.23-1.31-3.02-2.25-.8-.94-1.4-2.03-1.81-3.28-.41-1.25-.61-2.57-.61-3.97s.19-2.62,.57-3.84c.38-1.22,.97-2.3,1.79-3.23,.81-.94,1.85-1.68,3.11-2.23,1.26-.55,2.77-.82,4.54-.82,1.34,0,2.66,.15,3.95,.46,1.29,.31,2.32,.71,3.11,1.22l-1.01,3.74Z"/>
        <path class="cls-7" d="M1091.58,157.9c2.46,0,4.37,.62,5.71,1.87,1.34,1.25,2.02,3,2.02,5.27,0,.31-.02,.64-.06,.99-.04,.35-.1,.69-.17,1.03-.07,.34-.15,.64-.25,.9-.1,.27-.2,.48-.31,.65h-12.22c.06,.84,.21,1.63,.46,2.37,.25,.74,.62,1.39,1.09,1.93,.48,.55,1.06,.98,1.74,1.3,.69,.32,1.49,.48,2.42,.48,1.04,0,2.13-.2,3.3-.59s2.15-.88,2.96-1.47l.76,3.44c-.36,.22-.81,.47-1.34,.74s-1.13,.51-1.81,.73c-.67,.22-1.39,.41-2.16,.57-.77,.15-1.58,.23-2.42,.23-1.57,0-2.95-.27-4.16-.82s-2.21-1.29-3.02-2.23c-.81-.94-1.43-2.02-1.85-3.25-.42-1.23-.63-2.52-.63-3.86s.22-2.68,.65-3.93c.43-1.25,1.07-2.34,1.91-3.3,.84-.95,1.88-1.7,3.13-2.25,1.25-.55,2.67-.82,4.26-.82Zm-.13,3.61c-1.18,0-2.18,.34-3,1.03-.83,.69-1.42,1.62-1.79,2.79h8.02c.03-.08,.05-.18,.06-.29,.01-.11,.02-.25,.02-.42,0-.9-.31-1.64-.92-2.23-.62-.59-1.42-.88-2.39-.88Z"/>
        <path class="cls-7" d="M935.11,228.25h-4.83v-27.72h4.83v27.72Z"/>
        <path class="cls-7" d="M954.38,228.25v-12.77c0-2.3-.98-3.44-2.94-3.44-.47,0-.99,.08-1.53,.25-.55,.17-1.07,.41-1.58,.73-.5,.32-.96,.72-1.37,1.2s-.71,1.02-.9,1.64v12.39h-4.62v-19.32h3.61l.21,2.86h.17c.59-1.18,1.51-2.05,2.75-2.62,1.25-.57,2.58-.86,4.01-.86,.92,0,1.79,.12,2.6,.36,.81,.24,1.53,.62,2.16,1.15,.63,.53,1.13,1.23,1.49,2.1,.36,.87,.54,1.93,.54,3.19v13.15h-4.62Z"/>
        <path class="cls-7" d="M972.11,228.76c-1.32,0-2.52-.27-3.61-.8-1.09-.53-2.02-1.26-2.79-2.18s-1.36-2.02-1.79-3.28c-.42-1.26-.63-2.63-.63-4.12,0-1.32,.17-2.58,.53-3.8,.35-1.22,.89-2.29,1.62-3.21,.73-.92,1.63-1.67,2.71-2.23,1.08-.56,2.36-.84,3.84-.84,1.34,0,2.55,.22,3.61,.67,1.06,.45,1.92,1.08,2.56,1.89v-13.69h4.58v31.08h-3.7l-.34-2.65h-.17c-.78,.87-1.67,1.61-2.67,2.23s-2.25,.92-3.76,.92Zm.59-3.49c.45,0,.92-.06,1.43-.19s1-.3,1.49-.52c.49-.22,.96-.5,1.41-.82,.45-.32,.83-.69,1.13-1.11v-8.06c-.84-1.04-1.69-1.74-2.56-2.12-.87-.38-1.71-.57-2.52-.57-.9,0-1.67,.18-2.31,.52-.64,.35-1.18,.83-1.62,1.45-.43,.62-.76,1.32-.97,2.12-.21,.8-.32,1.63-.32,2.5s.1,1.67,.29,2.5c.2,.83,.49,1.55,.88,2.18,.39,.63,.9,1.14,1.51,1.53,.62,.39,1.33,.59,2.14,.59Z"/>
        <path class="cls-7" d="M997.31,208.3c2.46,0,4.37,.62,5.71,1.87,1.34,1.25,2.02,3,2.02,5.27,0,.31-.02,.64-.06,.99-.04,.35-.1,.69-.17,1.03-.07,.34-.15,.64-.25,.9-.1,.27-.2,.48-.31,.65h-12.22c.06,.84,.21,1.63,.46,2.37,.25,.74,.62,1.39,1.09,1.93,.48,.55,1.06,.98,1.74,1.3,.69,.32,1.49,.48,2.42,.48,1.04,0,2.13-.2,3.3-.59s2.15-.88,2.96-1.47l.76,3.44c-.36,.22-.81,.47-1.34,.74s-1.13,.51-1.81,.73c-.67,.22-1.39,.41-2.16,.57-.77,.15-1.58,.23-2.42,.23-1.57,0-2.95-.27-4.16-.82s-2.21-1.29-3.02-2.23c-.81-.94-1.43-2.02-1.85-3.25-.42-1.23-.63-2.52-.63-3.86s.22-2.68,.65-3.93c.43-1.25,1.07-2.34,1.91-3.3,.84-.95,1.88-1.7,3.13-2.25,1.25-.55,2.67-.82,4.26-.82Zm-.13,3.61c-1.18,0-2.18,.34-3,1.03-.83,.69-1.42,1.62-1.79,2.79h8.02c.03-.08,.05-.18,.06-.29,.01-.11,.02-.25,.02-.42,0-.9-.31-1.64-.92-2.23-.62-.59-1.42-.88-2.39-.88Z"/>
        <path class="cls-7" d="M1012.89,208.93l4.54,6.51,4.33-6.51h5.25l-7.06,9.37,7.48,9.95h-5.25l-4.91-7.06-4.79,7.06h-5.25l7.43-9.87-7.01-9.45h5.25Z"/>
        <path class="cls-7" d="M1029.48,201.62c.78-.59,1.76-1.1,2.92-1.53,1.16-.43,2.37-.65,3.63-.65,1.04,0,1.99,.17,2.86,.5,.87,.34,1.62,.8,2.25,1.39s1.12,1.29,1.47,2.1c.35,.81,.53,1.69,.53,2.65,0,1.26-.27,2.39-.82,3.4-.55,1.01-1.15,2.04-1.81,3.09-.66,1.05-1.27,2.21-1.83,3.49-.56,1.27-.84,2.81-.84,4.6h-4.37c0-1.9,.27-3.53,.8-4.87,.53-1.34,1.11-2.53,1.74-3.55,.63-1.02,1.21-1.97,1.74-2.86,.53-.88,.8-1.81,.8-2.79,0-1.12-.34-1.9-1.01-2.35-.67-.45-1.43-.67-2.27-.67-.9,0-1.78,.2-2.65,.59-.87,.39-1.55,.9-2.06,1.51l-1.09-4.03Zm3.28,24.15c0-.78,.29-1.46,.88-2.04,.59-.57,1.29-.86,2.1-.86s1.53,.29,2.14,.86c.62,.57,.92,1.27,.92,2.08s-.31,1.51-.95,2.08c-.63,.57-1.35,.86-2.16,.86s-1.5-.29-2.08-.88c-.57-.59-.86-1.29-.86-2.1Z"/>
      </g>
      <g>
        <path class="cls-7" d="M127.16,189.63h-4.83v-27.72h4.83v12.1c1.6-1.51,3.02-2.98,4.28-4.41,1.18-1.34,2.24-2.65,3.19-3.93,.95-1.27,1.78-2.53,2.48-3.76h5.29c-1.23,1.68-2.41,3.22-3.53,4.62-1.12,1.4-2.35,2.86-3.7,4.37-.5,.56-1.02,1.13-1.55,1.72-.53,.59-1.08,1.18-1.64,1.76l12.39,15.25h-5.59l-9.87-12.14-1.76,1.64v10.5Z"/>
        <path class="cls-7" d="M151.14,170.31v12.56c0,1.15,.3,2.02,.9,2.62,.6,.6,1.38,.9,2.33,.9s1.88-.33,2.69-.99c.81-.66,1.41-1.6,1.81-2.83v-12.26h4.66v19.32h-3.61l-.25-2.69h-.17c-.31,.64-.7,1.17-1.18,1.58-.48,.41-1,.73-1.58,.97-.57,.24-1.17,.41-1.79,.5-.62,.1-1.22,.15-1.81,.15-.92,0-1.79-.11-2.58-.34-.8-.22-1.5-.59-2.1-1.11-.6-.52-1.08-1.2-1.43-2.06-.35-.85-.52-1.91-.52-3.17v-13.15h4.62Z"/>
        <path class="cls-7" d="M180.38,174.51c-.28-.22-.71-.41-1.3-.55-.59-.14-1.09-.21-1.51-.21-.56,0-1.02,.13-1.39,.4-.36,.27-.69,.62-.97,1.05-.28,.43-.52,.93-.71,1.49-.2,.56-.38,1.13-.55,1.72v11.21h-4.62v-19.32h3.61l.21,4.03h.17c.28-.59,.57-1.16,.88-1.72,.31-.56,.66-1.06,1.05-1.49,.39-.43,.85-.78,1.36-1.05,.52-.27,1.13-.4,1.83-.4,1.12,0,2.17,.36,3.15,1.09l-1.22,3.74Z"/>
        <path class="cls-7" d="M190.92,173.13c-.92,0-1.65,.18-2.16,.52-.52,.35-.78,.85-.78,1.49,0,.42,.15,.81,.44,1.16,.29,.35,.92,.64,1.87,.86l2.98,.67c1.18,.25,2.12,.62,2.83,1.09,.71,.48,1.27,.99,1.68,1.55,.41,.56,.68,1.13,.82,1.72,.14,.59,.21,1.13,.21,1.64,0,.9-.18,1.73-.55,2.5-.36,.77-.88,1.44-1.55,2s-1.48,1-2.44,1.32-2.02,.48-3.19,.48c-1.48,0-2.86-.22-4.12-.65s-2.27-.92-3.02-1.45l1.09-3.99c.95,.92,2.02,1.61,3.21,2.06,1.19,.45,2.29,.67,3.3,.67,1.06,0,1.88-.23,2.44-.69,.56-.46,.84-1.1,.84-1.91,0-.48-.14-.88-.42-1.2-.28-.32-.84-.59-1.68-.82l-4.03-1.01c-.95-.22-1.73-.55-2.33-.97-.6-.42-1.08-.89-1.43-1.41-.35-.52-.59-1.06-.71-1.62-.13-.56-.19-1.09-.19-1.6,0-1.88,.66-3.32,1.97-4.35,1.32-1.02,3.02-1.53,5.12-1.53,1.09,0,2.27,.15,3.53,.44,1.26,.29,2.32,.72,3.19,1.28l-1.22,3.78c-.56-.45-1.34-.9-2.35-1.36-1.01-.46-2.13-.69-3.36-.69Z"/>
        <path class="cls-7" d="M202.55,164.1c0-.39,.08-.77,.23-1.13,.15-.36,.37-.69,.65-.99,.28-.29,.59-.52,.94-.69,.35-.17,.74-.25,1.16-.25,.39,0,.77,.08,1.13,.25,.36,.17,.69,.4,.99,.69,.29,.29,.52,.62,.69,.99,.17,.36,.25,.74,.25,1.13,0,.42-.08,.81-.25,1.16-.17,.35-.4,.67-.69,.94-.29,.28-.62,.5-.99,.65-.36,.15-.74,.23-1.13,.23-.81,0-1.51-.29-2.1-.88-.59-.59-.88-1.29-.88-2.1Zm5.29,25.54h-4.62v-19.32h4.62v19.32Z"/>
        <path class="cls-7" d="M226.57,189.63v-12.77c0-2.3-.98-3.44-2.94-3.44-.48,0-.99,.08-1.53,.25s-1.07,.41-1.58,.73c-.5,.32-.96,.72-1.37,1.2-.41,.48-.71,1.02-.9,1.64v12.39h-4.62v-19.32h3.61l.21,2.86h.17c.59-1.18,1.5-2.05,2.75-2.62,1.25-.57,2.58-.86,4.01-.86,.92,0,1.79,.12,2.6,.36,.81,.24,1.53,.62,2.16,1.15,.63,.53,1.13,1.23,1.49,2.1,.36,.87,.55,1.93,.55,3.19v13.15h-4.62Z"/>
        <path class="cls-7" d="M244.3,190.14c-1.32,0-2.52-.27-3.61-.8-1.09-.53-2.02-1.26-2.79-2.18s-1.36-2.02-1.79-3.28c-.42-1.26-.63-2.63-.63-4.12,0-1.32,.17-2.58,.53-3.8,.35-1.22,.89-2.29,1.62-3.21,.73-.92,1.63-1.67,2.71-2.23,1.08-.56,2.36-.84,3.84-.84,1.34,0,2.55,.22,3.61,.67,1.06,.45,1.92,1.08,2.56,1.89v-13.69h4.58v31.08h-3.7l-.34-2.65h-.17c-.78,.87-1.67,1.61-2.67,2.23s-2.25,.92-3.76,.92Zm.59-3.49c.45,0,.92-.06,1.43-.19s1-.3,1.49-.52c.49-.22,.96-.5,1.41-.82,.45-.32,.83-.69,1.13-1.11v-8.06c-.84-1.04-1.69-1.74-2.56-2.12-.87-.38-1.71-.57-2.52-.57-.9,0-1.67,.18-2.31,.52-.64,.35-1.18,.83-1.62,1.45-.43,.62-.76,1.32-.97,2.12-.21,.8-.32,1.63-.32,2.5s.1,1.67,.29,2.5c.2,.83,.49,1.55,.88,2.18,.39,.63,.9,1.14,1.51,1.53,.62,.39,1.33,.59,2.14,.59Z"/>
        <path class="cls-7" d="M269.5,169.68c2.46,0,4.37,.62,5.71,1.87,1.34,1.25,2.02,3,2.02,5.27,0,.31-.02,.64-.06,.99-.04,.35-.1,.69-.17,1.03-.07,.34-.15,.64-.25,.9-.1,.27-.2,.48-.31,.65h-12.22c.06,.84,.21,1.63,.46,2.37,.25,.74,.62,1.39,1.09,1.93,.48,.55,1.06,.98,1.74,1.3,.69,.32,1.49,.48,2.42,.48,1.04,0,2.13-.2,3.3-.59s2.15-.88,2.96-1.47l.76,3.44c-.36,.22-.81,.47-1.34,.74s-1.13,.51-1.81,.73c-.67,.22-1.39,.41-2.16,.57-.77,.15-1.58,.23-2.42,.23-1.57,0-2.95-.27-4.16-.82s-2.21-1.29-3.02-2.23c-.81-.94-1.43-2.02-1.85-3.25-.42-1.23-.63-2.52-.63-3.86s.22-2.68,.65-3.93c.43-1.25,1.07-2.34,1.91-3.3,.84-.95,1.88-1.7,3.13-2.25,1.25-.55,2.67-.82,4.26-.82Zm-.13,3.61c-1.18,0-2.18,.34-3,1.03-.83,.69-1.42,1.62-1.79,2.79h8.02c.03-.08,.05-.18,.06-.29,.01-.11,.02-.25,.02-.42,0-.9-.31-1.64-.92-2.23-.62-.59-1.42-.88-2.39-.88Z"/>
        <path class="cls-7" d="M285.08,170.31l4.54,6.51,4.33-6.51h5.25l-7.06,9.37,7.48,9.95h-5.25l-4.91-7.06-4.79,7.06h-5.25l7.43-9.87-7.01-9.45h5.25Z"/>
        <path class="cls-7" d="M301.67,163c.78-.59,1.76-1.1,2.92-1.53,1.16-.43,2.37-.65,3.63-.65,1.04,0,1.99,.17,2.86,.5,.87,.34,1.62,.8,2.25,1.39s1.12,1.29,1.47,2.1c.35,.81,.53,1.69,.53,2.65,0,1.26-.27,2.39-.82,3.4-.55,1.01-1.15,2.04-1.81,3.09-.66,1.05-1.27,2.21-1.83,3.49-.56,1.27-.84,2.81-.84,4.6h-4.37c0-1.9,.27-3.53,.8-4.87,.53-1.34,1.11-2.53,1.74-3.55,.63-1.02,1.21-1.97,1.74-2.86,.53-.88,.8-1.81,.8-2.79,0-1.12-.34-1.9-1.01-2.35-.67-.45-1.43-.67-2.27-.67-.9,0-1.78,.2-2.65,.59-.87,.39-1.55,.9-2.06,1.51l-1.09-4.03Zm3.28,24.15c0-.78,.29-1.46,.88-2.04,.59-.57,1.29-.86,2.1-.86s1.53,.29,2.14,.86c.62,.57,.92,1.27,.92,2.08s-.31,1.51-.95,2.08c-.63,.57-1.35,.86-2.16,.86s-1.5-.29-2.08-.88c-.57-.59-.86-1.29-.86-2.1Z"/>
      </g>
    </g>
  </g>
</svg>