<?xml version="1.0" encoding="UTF-8"?>
<svg id="Ebene_2" data-name="Ebene 2" xmlns="http://www.w3.org/2000/svg" xmlns:xlink="http://www.w3.org/1999/xlink" viewBox="0 0 1200 790">
  <defs>
    <style>
      .cls-1 {
        stroke: #ff6b35;
        stroke-width: 5px;
      }

      .cls-1, .cls-2, .cls-3, .cls-4, .cls-5, .cls-6 {
        stroke-miterlimit: 10;
      }

      .cls-1, .cls-2, .cls-7 {
        fill: none;
      }

      .cls-8, .cls-9, .cls-5, .cls-6 {
        fill: #fff;
      }

      .cls-10 {
        fill: #243c77;
      }

      .cls-2, .cls-5, .cls-6 {
        stroke: #fff;
      }

      .cls-9 {
        font-family: Quicksand-Bold, Quicksand;
        font-size: 68px;
        font-weight: 700;
      }

      .cls-3 {
        stroke: #000;
      }

      .cls-11 {
        opacity: .13;
      }

      .cls-12 {
        fill: #395ebb;
      }

      .cls-13 {
        clip-path: url(#clippath);
      }

      .cls-4 {
        fill: #7792d6;
        stroke: #395ebb;
      }

      .cls-14 {
        fill: #ff6b35;
      }

      .cls-5 {
        opacity: .1;
      }

      .cls-6 {
        opacity: .8;
        stroke-width: .25px;
      }
    </style>
    <clipPath id="clippath">
      <rect class="cls-7" width="1200" height="790"/>
    </clipPath>
  </defs>
  <g id="Ebene_1-2" data-name="Ebene 1">
    <g class="cls-13">
      <rect class="cls-10" width="1200" height="790"/>
      <path class="cls-5" d="M389.33,12.15c61.61,95.16,123.23,190.31,184.84,285.47,20.99-32.41,41.97-64.82,62.96-97.23,64.93,100.28,129.87,200.56,194.8,300.85,12.69-19.6,25.38-39.2,38.08-58.8,56.89,87.86,113.78,175.72,170.67,263.59,20.93-20.9,41.86-41.8,62.79-62.7,32.54,32.49,65.08,64.98,97.62,97.47v48.44c-434.64,1.92-869.29,3.83-1303.93,5.75C-33.39,684.64,90.86,487.15,160.26,376.77,215.33,289.15,334.3,99.79,389.33,12.15Z"/>
      <rect class="cls-7" width="1200" height="790"/>
      <g>
        <circle class="cls-1" cx="142.2" cy="119.36" r="103.08"/>
        <path class="cls-14" d="M177.31,155.78c-.73-2.58-1.68-5.1-2.82-7.54-3.06,1.05-5.81,1.79-8.26,2.23s-5.29,.66-8.53,.66c-14.47,0-23.13-6.83-26.04-20.48h26.28l4.66-9.84h-32c-.01-.56-.04-1.09-.04-1.67,0-1.25,.04-2.45,.1-3.63h31.96l5.01-9.84h-35.54c1.12-4.34,2.85-7.98,5.22-10.86,4.5-5.47,10.95-8.19,19.33-8.19,3.23,0,6.03,.21,8.38,.66,2.36,.43,5.06,1.18,8.13,2.23,1.06-2.54,2-5.04,2.88-7.54s1.39-5.04,1.58-7.67c-4.11-1.66-7.93-2.76-11.48-3.28-3.53-.51-7.39-.78-11.59-.78-7.08,0-13.39,1.22-18.94,3.67s-10.23,5.85-14.02,10.23c-3.8,4.37-6.71,9.55-8.72,15.54-.66,1.94-1.16,3.95-1.6,6.01h-9.55l-4.86,9.84h13.13c-.06,1.2-.13,2.39-.13,3.62,0,.57,.04,1.11,.06,1.67h-8.72l-4.53,9.84h14.18c.47,2.72,1.08,5.37,1.9,7.9,1.91,5.94,4.79,11.08,8.59,15.39,3.8,4.33,8.49,7.69,14.09,10.08,5.59,2.4,12.11,3.61,19.52,3.61,4.2,0,8.1-.27,11.73-.79,3.63-.52,7.71-1.61,12.26-3.27-.35-2.6-.89-5.21-1.64-7.79h0Z"/>
      </g>
      <path class="cls-6" d="M124.53,370.67c98.79,0,197.59,0,296.38,0"/>
      <g>
        <path class="cls-2" d="M50.55,215.91c-22.42,28.09-27.1,65.93-11.97,97.29,16.26,33.71,48.5,45.63,62.96,49.4"/>
        <polygon class="cls-8" points="99.02 367.06 108.55 364.13 101.25 357.34 99.02 367.06"/>
      </g>
      <path class="cls-2" d="M1201.66,742.34c-32.49-32.49-64.98-64.98-97.47-97.47-20.9,20.9-41.8,41.8-62.7,62.7l-170.43-263.59c-12.67,19.6-25.35,39.2-38.02,58.8-64.84-100.28-129.68-200.56-194.52-300.85-20.96,32.41-41.91,64.82-62.87,97.23-61.52-95.16-123.05-190.31-184.57-285.47C260.91,218.6,130.73,423.49,.55,628.38"/>
      <g>
        <g>
          <g>
            <path d="M1045.83,474.68c-47.72-17.86-106.14-16.03-166.66-13.49-23.65,.99-107.74,1.18-142.96,13.49,15.76-22.86,52.33-82.77,67.32-111.56-13.53-5.33-30.2-15.99-43.97-37.04-2.15-3.29-122.68,102.86-142.59,166.59-18.44,59,143.22,85.61,145.25,89.02,10.67,17.9,15.41,136.23,18.81,210.35,24.7,.39,49.6,.65,74.67,.77,57.12,.27,113.32-.17,168.57-1.27-.92-33.64-1-68.97,.03-105.84,.88-31.74,2.52-62.27,4.73-91.51,68.51-20.29,130.66-36.67,134.65-76.56,6.42-64.12-73.1-113.2-142.56-182.66-10.7,20.17-30.92,36.83-49.03,36.83,3.22,9.9,60.91,90.04,73.75,102.88Z"/>
            <path d="M820.94,794.75c-13.34,0-26.75-.29-40.03-1.22-.76-.05-1.36-.67-1.4-1.43l-.62-13.71c-3.22-71.09-8.09-178.33-17.83-195.68-1.28-.59-6.87-1.98-13.29-3.58-33.03-8.21-110.37-27.44-129.46-61.4-4.59-8.17-5.54-16.76-2.8-25.51,10.46-33.46,47.31-76.66,76.38-107,31.33-32.7,63.06-60.12,67.19-60.69,.72-.1,1.36,.17,1.72,.73,14.15,21.62,31.34,31.76,43.27,36.46,.4,.16,.71,.47,.86,.87,.15,.4,.12,.84-.08,1.22-14.26,27.38-47.83,82.64-64.95,108.1,31.53-9.32,91.66-10.91,124.64-11.79,5.89-.16,10.98-.29,14.56-.44,53.12-2.23,113.06-4.75,161.61,11.59-18.29-21.43-67.14-90.02-70.07-99.01-.15-.46-.07-.96,.21-1.35s.73-.62,1.22-.62c16.57,0,36.63-15.15,47.7-36.03,.22-.42,.63-.71,1.1-.78,.47-.07,.95,.09,1.28,.42,16.77,16.77,34.04,32.28,50.75,47.27,52.15,46.81,97.19,87.24,92.24,136.6-3.9,38.99-60.46,55.66-125.96,74.97-2.89,.85-5.8,1.71-8.72,2.57-.7,23.09-2.18,48.02-3.62,72.15-2.2,36.89-4.47,75.03-4.2,109.75,0,.7-.47,1.31-1.15,1.47-56.03,13.51-114.34,14.64-165.8,15.63-11.45,.22-23.09,.44-34.77,.44Zm-38.49-4.12c24.36,1.62,49.18,1.14,73.2,.67,50.95-.98,108.64-2.09,163.99-15.27-.21-34.49,2.04-72.24,4.21-108.75,1.46-24.48,2.96-49.79,3.65-73.14,.02-.65,.45-1.21,1.07-1.4,3.27-.97,6.53-1.93,9.77-2.88,64.45-19,120.12-35.41,123.82-72.38,4.79-47.85-39.72-87.81-91.26-134.07-16.26-14.6-33.07-29.68-49.45-45.97-11.23,19.97-30.47,34.54-47.12,35.77,7.78,15.15,60.41,88.27,72.54,100.4,.5,.5,.58,1.28,.2,1.87-.38,.6-1.13,.84-1.79,.59-48.92-18.32-111.16-15.7-166.07-13.4-3.61,.15-8.71,.29-14.61,.44-34.34,.91-98.27,2.6-127.92,12.97-.61,.21-1.3,0-1.69-.51-.39-.52-.41-1.23-.04-1.76,15.84-22.98,51.09-80.75,66.46-109.94-12.07-5.04-28.68-15.33-42.54-36.09-5.54,3.09-34.13,27.39-65.44,60.15-28.59,29.92-64.83,72.45-75.05,105.17-2.48,7.94-1.62,15.72,2.55,23.15,18.45,32.83,94.91,51.84,127.56,59.96,13.11,3.26,14.37,3.66,14.99,4.7,10.23,17.15,14.95,121.3,18.4,197.35l.56,12.37Z"/>
          </g>
          <g>
            <path class="cls-8" d="M850.93,395.08c4.32,28.86,6.13,58.1,5.42,87.28-.06,2.43-.11,4.98,.99,7.16,1.13,2.23,3.29,3.72,5.43,5.02,14.74,8.94,32.91,13.02,49.58,8.64,16.67-4.38,31.19-18.06,32.74-36.57-7.04-23.71-18.8-56.77-27.9-94.81-20.42,9.04-41.8,15.92-66.26,23.28Z"/>
            <path d="M898.33,506.44c-12.15,0-24.83-3.64-36.35-10.63-2.36-1.43-4.72-3.1-5.99-5.63-1.28-2.53-1.21-5.37-1.15-7.87,.71-29.03-1.11-58.31-5.41-87.02-.11-.74,.34-1.45,1.05-1.66,26.31-7.91,46.54-14.56,66.09-23.21,.41-.18,.87-.17,1.27,.03,.4,.2,.69,.56,.79,1,6.43,26.9,14.34,51.75,20.7,71.71,2.64,8.28,5.13,16.1,7.18,23.02,.05,.18,.07,.37,.06,.55-1.48,17.74-15.09,32.97-33.85,37.89-4.63,1.22-9.47,1.82-14.4,1.82Zm-45.73-110.3c4.18,28.47,5.95,57.48,5.25,86.25-.06,2.26-.11,4.59,.82,6.45,.98,1.94,3.03,3.3,4.87,4.41,15.49,9.4,33.14,12.49,48.42,8.47,14.52-3.81,29.88-16.09,31.6-34.96-2.03-6.83-4.48-14.54-7.08-22.69-6.23-19.58-13.96-43.84-20.33-70.17-18.87,8.23-38.46,14.68-63.55,22.25Z"/>
          </g>
          <g>
            <path class="cls-8" d="M794.24,359.11c11.34-9.49,21.77-12.42,26.4-26.46,4.43-13.45,3.42-27.99,4.88-42.07,1.46-14.08,6.41-29.21,18.56-36.48,2.26-1.36,4.82-2.48,6.32-4.64,1.51-2.17,1.24-5.83-1.24-6.74-1.25-.46-2.63-.08-3.89,.34-10.68,3.58-20.17,10.61-26.24,19.28-2.35,3.41-4.69,6.81-6.82,9.98,6.4-9.13,11.71-17.27,19.21-22.9,5.51-4.14,12.18-6.42,18.51-9.15,2.43-1.05,4.98-4.17,5.01-6.81,.03-3.62-4.07-4.03-7.37-2.89-5.16,1.78-8.47,2.94-12.54,4.9-10.18,4.89-21.24,15.39-29.3,25.45,6.13-7.73,12.79-15.17,20.88-20.79,8.34-5.79,30.82-10.91,25.69-17.54-1.14-1.47-5.19-1.15-7.02-.84-8.26,1.42-16.16,6.66-22.88,11.67-6.72,5.01-13.11,7.59-21.47,20.03,10.35-15.26,27.25-24.27,41.03-32.73-1-1.69-4.99-2.73-6.89-2.22-19.14,5.14-34.5,19.48-44.52,36.31-5.69,11.78-6.97,20.88-8.13,33.91-1.54,17.36,.82,31.83-17.48,44.89,3.91,8.86,23.86,22.71,29.29,25.47Z"/>
            <path d="M794.24,360.62c-.23,0-.47-.05-.68-.16-5.91-3-25.96-17.08-29.99-26.2-.29-.65-.08-1.42,.5-1.83,14.91-10.64,15.53-21.82,16.33-35.99,.14-2.53,.29-5.14,.53-7.82,1.11-12.42,2.35-22.16,8.28-34.43,.02-.04,.04-.08,.06-.12,11.33-19.03,27.46-32.16,45.42-36.99,2.33-.63,7.1,.42,8.57,2.9,.12,.2,.18,.41,.2,.63,.52-.12,1.05-.22,1.57-.31,1.53-.26,6.66-.94,8.46,1.4,1.21,1.56,1.17,3,.93,3.93-.28,1.09-.99,2.1-2.02,3.05,.79,.16,1.54,.45,2.19,.92,.86,.62,1.88,1.8,1.86,3.9-.03,3.38-3.09,6.95-5.92,8.17-.02,0-.05,.02-.07,.03,.97,.59,1.7,1.53,2.08,2.74,.61,1.92,.25,4.23-.91,5.89-1.41,2.03-3.48,3.19-5.47,4.32-.44,.25-.88,.5-1.31,.75-12.49,7.48-16.59,23.35-17.84,35.34-.45,4.35-.67,8.84-.88,13.19-.47,9.71-.96,19.75-4.07,29.2-3.48,10.56-10.07,15.1-17.71,20.37-2.95,2.04-6.01,4.14-9.15,6.77-.28,.23-.62,.35-.96,.35Zm-27.38-26.51c4.51,7.98,21.06,19.78,27.2,23.21,2.97-2.42,5.82-4.39,8.59-6.29,7.48-5.16,13.4-9.23,16.56-18.84,2.99-9.06,3.46-18.89,3.92-28.4,.21-4.38,.43-8.92,.89-13.35,1.31-12.68,5.73-29.5,19.28-37.61,.45-.27,.91-.53,1.38-.79,1.78-1.01,3.47-1.96,4.48-3.42,.62-.9,.83-2.24,.51-3.27-.19-.62-.54-1.02-1.03-1.2-.81-.3-1.92,.03-2.89,.35-7.62,2.55-14.7,6.96-20.26,12.52-3.55,3.98-6.78,8.61-10.31,13.68l-1.74,2.5c-.47,.67-1.4,.84-2.08,.38-.68-.47-.86-1.39-.4-2.08,2.14-3.17,4.48-6.58,6.83-9.99,1.6-2.28,3.42-4.45,5.44-6.47,2.24-2.51,4.62-4.8,7.29-6.8,4.56-3.42,9.86-5.61,14.99-7.72,1.28-.53,2.56-1.06,3.83-1.6,2.05-.88,4.08-3.58,4.1-5.44,0-.88-.34-1.24-.61-1.43-.92-.66-2.89-.67-4.77-.02-.92,.32-1.77,.61-2.58,.9-2.05,.97-4.32,1.94-6.7,2.95-2.38,1.01-4.8,2.04-6.94,3.08-8.04,4.85-17.09,13.14-24.94,22.95-.52,.65-1.46,.75-2.11,.24-.65-.52-.76-1.46-.24-2.11,5.56-7.01,12.42-14.99,21.2-21.09,1.29-.9,2.9-1.78,4.67-2.64,1.35-.81,2.66-1.53,3.95-2.14,3.32-1.59,6.16-2.68,9.85-3.98,3.73-1.78,6.85-3.64,7.28-5.29,.08-.29,.1-.7-.4-1.33-.34-.44-2.69-.77-5.58-.27-7.95,1.37-15.7,6.53-22.24,11.4-1.41,1.05-2.81,2-4.17,2.92-1.38,.93-2.77,1.88-4.2,2.95-4.79,4.01-9.19,8.54-12.76,13.8-.47,.69-1.4,.87-2.08,.4-.69-.46-.87-1.39-.41-2.08,4.98-7.41,9.29-11.42,13.36-14.47,7.39-6.18,15.62-11.15,23.25-15.75,1.03-.62,2.05-1.23,3.05-1.84-1.23-.53-2.94-.86-3.89-.6-17.19,4.62-32.66,17.25-43.59,35.57-5.7,11.81-6.85,20.87-7.96,33.33-.23,2.63-.38,5.22-.52,7.72-.79,14.06-1.47,26.24-16.54,37.5Z"/>
          </g>
          <g>
            <g>
              <path d="M974.43,285.31c-5.07,18.82-10.18,35.6-19.58,59.86-4.47,11.54-11.4,24.12-19.02,34.26-3.59,4.77-6.21,7-12.62,9.14,.22-5.19-5-8.31-5.29-13.52-.36-6.41,4.4-11.53,1.12-17.51-6.25-11.4-10.02-23.58-11.08-35.78-.87-10.02,.19-20.37,5.93-28.94,5.74-8.58,16.88-15.05,29.24-14.59,9.42,.35,24.59,.55,31.3,7.07Z"/>
              <path d="M923.21,390.08c-.32,0-.64-.1-.9-.3-.4-.3-.62-.77-.6-1.27,.1-2.22-1.05-4.03-2.37-6.13-1.29-2.04-2.75-4.35-2.92-7.25-.16-2.81,.55-5.28,1.23-7.68,.94-3.29,1.75-6.14,.07-9.19-6.39-11.65-10.18-23.89-11.26-36.38-1.07-12.32,.95-22.1,6.17-29.91,6.5-9.72,18.51-15.7,30.55-15.26l1.48,.05c9.57,.34,24.03,.85,30.81,7.44,.39,.38,.54,.94,.4,1.47-5.1,18.94-10.17,35.59-19.62,60.02-4.59,11.85-11.59,24.47-19.22,34.62-3.61,4.8-6.39,7.34-13.34,9.67-.16,.05-.32,.08-.48,.08Zm18.69-110.37c-10.63,0-21.04,5.39-26.77,13.95-4.83,7.22-6.69,16.37-5.68,27.98,1.05,12.07,4.72,23.91,10.9,35.19,2.27,4.14,1.21,7.86,.18,11.46-.64,2.25-1.25,4.38-1.12,6.69,.12,2.11,1.25,3.91,2.46,5.81,1.11,1.76,2.25,3.56,2.67,5.72,4.92-1.91,7.14-4.05,10.08-7.97,7.47-9.95,14.33-22.3,18.82-33.9,9.26-23.92,14.29-40.35,19.29-58.82-6.25-5.24-19.39-5.71-28.18-6.02l-1.49-.05c-.39-.01-.78-.02-1.17-.02Z"/>
            </g>
            <g>
              <path class="cls-8" d="M823.07,299.82c-1.91,16.95-8.17,33.17-11.08,49.97-2.91,16.81-2.08,35.15,9,50.09,9.76,13.16,27.24,22.37,45.43,23.96,18.19,1.59,36.62-4.5,47.89-15.82,10.6-10.65,16.56-36.6,20.07-49.5,7.8,2.47,17.09,1.46,22.82-3.14,5.73-4.6,7.07-12.8,2.36-18.56-4.71-5.77-11.63-7.65-20.89-1.64,2.36-10.71,2.22-21.56,2.18-26.55-.1-13.53,2.9-33.1-5.56-40.2-4.79-4.02-15.56-8.58-21.58-11.17-10.4-4.48-26.64-.17-38.01-2.01-11.37-1.84-23.89,1.6-33.98,5.67-12.07,4.87-17.22,26.22-18.65,38.9Z"/>
              <path d="M872.19,425.59c-1.96,0-3.93-.09-5.89-.26-18.65-1.63-36.47-11.03-46.5-24.56-9.76-13.16-12.88-30.4-9.28-51.24,1.28-7.39,3.22-14.75,5.1-21.87,2.41-9.13,4.9-18.56,5.97-28.02h0c.63-5.64,4.56-34.07,19.58-40.13,13.37-5.39,25.07-7.33,34.78-5.76,4.5,.73,9.79,.46,15.38,.17,8.12-.41,16.52-.84,22.98,1.94l.68,.29c6.17,2.65,16.49,7.09,21.27,11.11,7.27,6.1,6.76,20.05,6.3,32.36-.12,3.19-.23,6.21-.21,8.98v.33c.04,4.63,.11,13.76-1.57,23.28,7.8-3.91,14.8-2.66,19.94,3.63,2.41,2.95,3.52,6.65,3.12,10.41-.42,3.96-2.49,7.7-5.7,10.27-5.57,4.47-14.52,5.94-22.7,3.83-.24,.91-.5,1.88-.76,2.88-3.78,14.33-9.49,35.98-19.29,45.81-10.39,10.43-26.54,16.52-43.2,16.52Zm-3.08-169.36c-7.81,0-16.8,2.03-26.82,6.07-10.42,4.2-16.06,22.92-17.72,37.68h0c-1.09,9.67-3.61,19.22-6.05,28.45-1.86,7.06-3.79,14.35-5.05,21.61-3.46,20-.52,36.47,8.73,48.94,9.53,12.85,26.53,21.8,44.35,23.36,17.81,1.55,35.7-4.34,46.7-15.39,9.23-9.27,15.04-31.3,18.51-44.46,.42-1.58,.8-3.05,1.17-4.38,.11-.4,.37-.73,.73-.92,.36-.2,.78-.24,1.17-.11,7.65,2.42,16.26,1.27,21.42-2.88,2.58-2.07,4.26-5.08,4.59-8.25,.31-2.96-.56-5.87-2.46-8.2-4.82-5.9-11.18-6.35-18.91-1.33-.51,.33-1.17,.32-1.67-.02-.5-.35-.74-.96-.61-1.56,2.27-10.32,2.19-20.83,2.15-25.88v-.33c-.02-2.85,.09-5.89,.21-9.12,.43-11.62,.91-24.79-5.23-29.95-4.45-3.73-14.52-8.06-20.53-10.65l-.68-.29c-5.82-2.51-13.86-2.1-21.64-1.7-5.5,.28-11.19,.57-16.01-.21-2.02-.33-4.14-.49-6.36-.49Zm-46.03,43.58h0Z"/>
            </g>
            <g>
              <path class="cls-3" d="M880.09,280.54c-2.52,7.32-15.61,16.66-23.19,16.63-7.58-.03-10.03-3.7-12.28-11.04-7.29,5.07-12.92,10.42-19.99,12.24-10.8,2.77-22.96-4.9-25.23-15.93-2.27-11.03,5.77-23.3,16.7-25.47-7.28,.92-13.6-6.82-12.93-14.26,.67-7.43,6.73-13.59,13.64-16.17,6.91-2.58,14.5-2.17,21.96-2.44-1.98-7.48,2.47-15.77,9.09-19.74s14.83-4.23,22.26-2.55c4.88,1.1,9.71,3.08,13.27,6.62,3.56,3.55,5.66,8.87,4.86,14.27,7.47-7.42,18.69-11.76,28.45-8.38,9.76,3.38,16.02,16.11,15.87,24.42,5.51-5.34,12.41-9.48,19.88-8.31,14.81,2.33,16.83,15.04,8.38,30.25,8.35-2.99,19.81,1.56,22.35,13.21,1.89,8.67-2.71,21.67-9.4,27.61-6.69,5.94-28.39,9.34-42.01-2.48-7.57-6.57-10.6-14.77-12.18-22.35-5.16,6.87-8.91,11.57-20.22,13.94-8.26,1.73-17.4-2.35-19.27-10.06Z"/>
              <path class="cls-3" d="M954.65,308.4c-8.08,0-16.92-2.23-23.87-8.26-7.25-6.3-10.35-13.96-11.94-20.04-4.7,5.97-9.02,9.84-19.17,11.97-8.23,1.73-16.34-1.7-19.75-7.86-4.59,7.13-15.76,14.47-22.98,14.47h-.05c-7.68-.03-10.76-3.57-13.06-10.14-1.19,.86-2.35,1.73-3.48,2.57-5.01,3.74-9.74,7.28-15.34,8.72-5.51,1.41-11.66,.35-16.88-2.91-5.3-3.31-9.01-8.48-10.19-14.18-1.17-5.69,.17-12,3.69-17.3,2.26-3.41,5.25-6.13,8.6-7.92-1.35-.61-2.63-1.49-3.8-2.62-3.32-3.2-5.14-7.92-4.74-12.32,.77-8.57,7.89-14.94,14.61-17.44,5.87-2.19,12.19-2.31,18.31-2.43,.79-.02,1.57-.03,2.36-.05-.98-7.24,3.13-15.38,10.13-19.58,6.26-3.75,14.55-4.72,23.36-2.73,5.96,1.35,10.67,3.71,14,7.02,3.23,3.22,5.15,7.46,5.44,11.84,8.31-6.8,18.71-9.28,27.31-6.31,9.03,3.13,15.48,13.71,16.68,22.63,6.32-5.34,12.64-7.56,18.81-6.58,6.34,1,10.86,3.91,13.07,8.44,2.63,5.38,1.87,12.78-2.08,21.07,3.87-.53,8.01,.23,11.58,2.21,4.83,2.67,8.16,7.25,9.39,12.9,1.98,9.06-2.64,22.63-9.88,29.05-3.62,3.21-11.43,5.8-20.12,5.8Zm-35.07-33.25c.11,0,.22,.01,.33,.04,.58,.13,1.02,.58,1.14,1.16,1.25,5.96,3.82,14.68,11.7,21.52,12.72,11.04,33.57,8.22,40.03,2.49,6.42-5.7,10.68-18.17,8.93-26.17-1.04-4.79-3.86-8.66-7.91-10.91-3.89-2.15-8.55-2.6-12.46-1.2-.58,.21-1.24,.04-1.65-.44-.4-.48-.47-1.15-.17-1.7,4.77-8.6,6.03-16.15,3.54-21.25-1.79-3.66-5.43-5.94-10.84-6.79-5.96-.93-12.22,1.72-18.6,7.9-.44,.42-1.09,.54-1.64,.3-.56-.24-.91-.8-.9-1.4,.13-7.4-5.47-19.72-14.86-22.97-8.48-2.93-19.04,.22-26.9,8.03-.46,.46-1.16,.57-1.74,.27-.58-.29-.9-.92-.81-1.56,.68-4.6-1.02-9.58-4.43-12.99-2.92-2.91-7.14-5-12.54-6.22-8.05-1.82-15.57-.98-21.16,2.38-6.49,3.9-10.11,11.67-8.41,18.07,.12,.44,.03,.91-.25,1.28-.27,.37-.7,.59-1.15,.61-1.39,.05-2.78,.08-4.17,.1-6.13,.12-11.93,.23-17.32,2.24-5.83,2.18-12.01,7.63-12.67,14.9-.32,3.51,1.15,7.3,3.83,9.89,2.18,2.1,4.81,3.07,7.41,2.75,.79-.1,1.54,.45,1.67,1.25,.13,.8-.4,1.56-1.19,1.71-4.78,.95-9.25,4.1-12.27,8.66-3.08,4.64-4.27,10.12-3.26,15.04,1.01,4.9,4.23,9.36,8.84,12.24,4.53,2.83,9.83,3.76,14.55,2.55,5.03-1.29,9.32-4.5,14.29-8.22,1.66-1.24,3.38-2.53,5.22-3.8,.4-.27,.89-.34,1.35-.19,.45,.16,.8,.52,.94,.98,2.15,7.01,4.13,9.95,10.85,9.98h.04c7.04,0,19.41-8.88,21.73-15.62,.22-.63,.83-1.04,1.49-1.01,.67,.03,1.23,.5,1.39,1.14,1.74,7.18,10.46,10.42,17.51,8.94,11.01-2.31,14.5-6.95,19.33-13.37,.29-.38,.74-.6,1.2-.6Z"/>
            </g>
            <path d="M836.5,326.04c-.01-2.11,1.82-3.83,4.11-3.85,2.28-.02,4.15,1.68,4.16,3.79,.01,2.11-1.82,3.83-4.11,3.85-2.28,.02-4.15-1.68-4.16-3.79Z"/>
            <path d="M893.44,334.97c-.02-2.11,1.82-3.83,4.11-3.85,2.28-.02,4.15,1.68,4.16,3.79,.01,2.11-1.82,3.83-4.11,3.85-2.28,.02-4.15-1.68-4.16-3.79Z"/>
            <path d="M880.69,402c-.31,0-.63-.1-.89-.3-5.55-4.12-13.46-4.82-19.68-1.73-.74,.37-1.64,.07-2.01-.68-.37-.74-.07-1.64,.68-2.01,7.21-3.58,16.38-2.77,22.81,2.01,.67,.49,.8,1.44,.31,2.1-.29,.4-.75,.61-1.21,.61Z"/>
            <path d="M863.85,376.99c-3.34,0-6.89-.87-10.55-2.6-1.55-.73-3.29-1.7-4.46-3.33-1.5-2.1-1.8-5-.82-7.96,.69-2.07,1.86-3.86,2.99-5.6l.51-.78c6-9.34,9.77-20.07,10.91-31.04,.09-.83,.82-1.41,1.65-1.34,.83,.09,1.42,.82,1.34,1.65-1.19,11.43-5.12,22.61-11.38,32.35l-.52,.8c-1.07,1.65-2.09,3.21-2.66,4.91-.67,2-.51,3.97,.41,5.26,.77,1.07,2.1,1.79,3.3,2.36,3.53,1.67,6.91,2.44,10,2.3,3.51-.16,6.78-1.61,8.73-3.89,.54-.63,1.49-.7,2.12-.16,.63,.54,.7,1.49,.16,2.12-2.52,2.94-6.48,4.73-10.87,4.93-.29,.01-.58,.02-.86,.02Z"/>
            <path d="M936.81,345.21c-.12,0-.24-.01-.36-.04-.8-.2-1.3-1.01-1.1-1.82,1.12-4.54,1.63-6.97,2.53-11.39,.17-.81,.97-1.33,1.77-1.17,.81,.17,1.34,.96,1.17,1.77-.92,4.46-1.42,6.92-2.56,11.51-.17,.68-.78,1.14-1.46,1.14Z"/>
            <path d="M958.5,293.57c-.62,0-1.2-.39-1.42-1.01-.27-.78,.14-1.64,.93-1.91,6.77-2.35,11.66-9.13,11.62-16.12,0-.83,.66-1.5,1.5-1.51,.81,.04,1.5,.67,1.51,1.5,.04,8.23-5.7,16.21-13.64,18.97-.16,.06-.33,.08-.49,.08Z"/>
          </g>
          <path d="M1028.92,603.55c-.81,0-1.47-.64-1.5-1.45-.32-9.34-.34-18.8-.07-28.13,.02-.83,.74-1.53,1.54-1.46,.83,.02,1.48,.72,1.46,1.54-.27,9.26-.25,18.66,.07,27.94,.03,.83-.62,1.52-1.45,1.55-.02,0-.03,0-.05,0Z"/>
          <path d="M1087.96,518.73c-.35,0-.71-.13-1-.38-14.91-13.28-29.13-27.64-42.27-42.68-.55-.62-.48-1.57,.14-2.12,.63-.55,1.57-.48,2.12,.14,13.06,14.95,27.19,29.22,42,42.42,.62,.55,.67,1.5,.12,2.12-.3,.33-.71,.5-1.12,.5Z"/>
          <g>
            <path class="cls-8" d="M986.75,368.5c-11.34-9.49-21.77-12.42-26.4-26.46-4.43-13.45-3.42-27.99-4.88-42.07-1.46-14.08-6.41-29.21-18.56-36.48-2.26-1.36-4.82-2.48-6.32-4.65-1.51-2.17-1.24-5.83,1.24-6.74,1.25-.46,2.63-.08,3.89,.34,10.68,3.58,20.17,10.61,26.24,19.28,2.35,3.41,4.69,6.81,6.82,9.98-6.4-9.13-11.71-17.27-19.21-22.9-5.51-4.14-12.18-6.42-18.51-9.15-2.43-1.05-4.98-4.17-5.01-6.81-.03-3.62,4.07-4.03,7.37-2.89,5.16,1.78,8.47,2.94,12.54,4.9,10.18,4.89,21.24,15.39,29.3,25.45-6.13-7.73-12.79-15.17-20.88-20.79-8.34-5.79-30.82-10.91-25.69-17.54,1.14-1.47,5.19-1.15,7.02-.84,8.26,1.42,16.16,6.66,22.88,11.67,6.72,5.01,13.11,7.59,21.47,20.03-10.35-15.26-27.25-24.27-41.03-32.73,1-1.69,4.99-2.73,6.89-2.22,19.14,5.14,34.5,19.48,44.52,36.31,5.69,11.78,11.48,23.88,12.64,36.92,.72,8.06-.37,16.21,.42,24.27,.79,8.06,3.95,16.52,9.62,20.57-3.91,8.86-20.92,19.75-26.36,22.52Z"/>
            <path d="M986.75,370.01c-.35,0-.69-.12-.96-.35-3.14-2.63-6.2-4.74-9.15-6.77-7.63-5.26-14.23-9.81-17.71-20.37-3.11-9.44-3.6-19.49-4.07-29.2-.21-4.34-.43-8.83-.88-13.19-1.24-12-5.35-27.87-17.84-35.34-.43-.26-.87-.5-1.31-.75-2-1.13-4.07-2.3-5.48-4.32-1.16-1.66-1.51-3.97-.91-5.89,.38-1.2,1.11-2.15,2.08-2.74-.02,0-.05-.02-.07-.03-2.83-1.22-5.88-4.8-5.92-8.17-.02-2.1,1-3.28,1.86-3.9,.65-.47,1.4-.76,2.19-.92-1.03-.95-1.74-1.96-2.02-3.05-.24-.93-.28-2.37,.93-3.93,1.81-2.34,6.93-1.66,8.46-1.4,.52,.09,1.05,.2,1.57,.31,.02-.22,.09-.43,.2-.63,1.47-2.48,6.24-3.53,8.57-2.9,17.96,4.83,34.09,17.96,45.42,36.99,.02,.04,.04,.08,.06,.12,5.43,11.23,11.58,23.97,12.78,37.44,.36,4.04,.27,8.12,.19,12.06-.08,4.02-.17,8.17,.22,12.19,.85,8.67,4.3,16.14,9,19.49,.58,.41,.79,1.18,.5,1.83-4.13,9.35-21.28,20.31-27.05,23.25-.22,.11-.45,.16-.68,.16Zm-53.67-116.59c-.26,0-.51,.04-.73,.12-.49,.18-.84,.58-1.03,1.2-.32,1.03-.12,2.37,.51,3.27,1.02,1.46,2.7,2.42,4.49,3.42,.46,.26,.92,.52,1.37,.79,13.56,8.12,17.97,24.93,19.28,37.61,.46,4.43,.68,8.97,.89,13.35,.46,9.51,.94,19.35,3.92,28.4,3.16,9.6,9.08,13.68,16.56,18.84,2.77,1.91,5.63,3.88,8.6,6.3,6.32-3.42,20.11-12.78,24.28-20.29-4.92-4.14-8.34-11.81-9.23-20.85-.41-4.2-.32-8.44-.24-12.55,.08-3.87,.16-7.87-.18-11.74-1.15-12.9-6.9-24.82-12.47-36.34-10.92-18.32-26.4-30.95-43.59-35.57-.94-.25-2.66,.07-3.89,.6,1,.61,2.02,1.22,3.05,1.84,7.63,4.6,15.87,9.57,23.26,15.75,4.06,3.05,8.38,7.06,13.35,14.46,.46,.69,.28,1.62-.41,2.08-.69,.46-1.62,.28-2.08-.4-3.57-5.26-7.96-9.78-12.75-13.8-1.43-1.07-2.82-2.02-4.2-2.95-1.36-.92-2.77-1.87-4.17-2.92-6.53-4.87-14.28-10.03-22.24-11.4-2.89-.5-5.23-.17-5.58,.27-.49,.64-.47,1.05-.4,1.33,.43,1.65,3.55,3.51,7.28,5.29,3.69,1.3,6.53,2.38,9.85,3.98,1.28,.62,2.6,1.33,3.95,2.14,1.77,.86,3.38,1.74,4.68,2.64,8.78,6.1,15.65,14.08,21.2,21.09,.52,.65,.41,1.59-.24,2.11-.64,.52-1.59,.41-2.11-.24-7.85-9.81-16.91-18.1-24.95-22.95-2.14-1.04-4.56-2.07-6.94-3.08-2.37-1.01-4.65-1.98-6.7-2.95-.81-.28-1.66-.58-2.58-.9-1.88-.65-3.85-.64-4.77,.02-.27,.19-.62,.55-.61,1.43,.02,1.86,2.05,4.56,4.1,5.44,1.27,.55,2.54,1.07,3.83,1.6,5.13,2.11,10.44,4.3,14.99,7.72,2.66,2,5.04,4.27,7.28,6.78,2.02,2.03,3.84,4.19,5.44,6.47,2.36,3.42,4.7,6.83,6.84,10,.46,.68,.28,1.61-.4,2.08-.68,.47-1.61,.3-2.08-.38l-1.74-2.5c-3.53-5.07-6.77-9.71-10.32-13.69-5.56-5.55-12.63-9.96-20.25-12.51-.71-.24-1.48-.47-2.16-.47Z"/>
          </g>
          <path d="M695.78,519.98c-.5,0-.98-.25-1.27-.7-.45-.7-.24-1.63,.46-2.07,11.69-7.44,21.37-19.84,30.74-31.84,3.21-4.11,6.25-8,9.34-11.66,.53-.63,1.48-.71,2.12-.18,.63,.54,.71,1.48,.18,2.12-3.06,3.62-6.07,7.48-9.27,11.57-9.53,12.19-19.38,24.8-31.5,32.52-.25,.16-.53,.23-.81,.23Z"/>
          <g class="cls-11">
            <path d="M740.53,474.66c-1.26-.74-2.64-.2-3.42,.9-1.44,2.01-2.91,4-4.36,6.01-1.06-.29-2.35,.1-2.86,1.12-1.81,3.66-3.67,7.52-6.96,10.09-1.77,1.39-3.69,2.56-5.27,4.19-1.64,1.68-3.01,3.61-4.37,5.52-.38,.53-.43,1.21-.27,1.83-1.91,1.23-3.73,2.6-5.53,4-3.61,2.82-7.08,5.81-11.07,8.1-2.79,1.61-.27,5.93,2.53,4.32,6.49-3.73,11.79-9.15,18.15-13.08,1.57-.97,3.13-1.98,4.5-3.22,1.47-1.33,2.65-2.96,3.84-4.53,2.51-3.34,5-6.71,7.47-10.08,2.86-3.9,5.7-7.82,8.52-11.75,.79-1.1,.19-2.79-.9-3.42Z"/>
          </g>
          <g class="cls-11">
            <path d="M1087.93,516.27c-1.78-2.41-4.44-5.21-8.05-7.74-7.39-5.2-13.15-12.17-16.25-15.92-.61-.74-2.08-2.19-3.97-4.24-1.47-1.6-3.13-2.9-5.01-3.99-1.97-1.14-3.72-2.28-5.3-3.95-1.53-1.62-2.81-3.43-4.09-5.25-.78-1.1-2.19-1.62-3.42-.9-1.09,.64-1.68,2.31-.9,3.42,1.93,2.74,4.26,5.76,8.16,9.13,2.77,2.39,5.01,5.33,7.55,7.96,0,0,24.66,25.5,29.37,25.23,.6-.04,1.02-.33,1.02-.33,1.07-.63,1.71-2.33,.9-3.42Z"/>
          </g>
        </g>
        <g>
          <g>
            <path class="cls-12" d="M822.76,791.75c31.23,.47,88.23-.47,119.47,0v-20.6l-125.52-.58,6.05,21.18Z"/>
            <path class="cls-12" d="M845.58,793.39c-8.45,0-16.24-.04-22.83-.14-.66,0-1.24-.45-1.42-1.09l-6.05-21.18c-.13-.45-.04-.94,.25-1.32,.28-.37,.73-.59,1.2-.59h0l125.52,.58c.83,0,1.5,.67,1.5,1.5v20.6c0,.4-.16,.79-.45,1.07-.29,.28-.66,.45-1.08,.43-15.59-.23-38-.11-59.68,0-12.56,.07-25.36,.14-36.96,.14Zm-21.67-3.12c15.55,.21,37.43,.1,58.61-.02,20.99-.11,42.67-.23,58.21-.02v-17.58l-122.02-.56,5.19,18.18Z"/>
          </g>
          <g>
            <polygon class="cls-4" points="517.71 625.5 757.26 626.77 838.85 791.92 598.16 791.83 517.71 625.5"/>
            <path class="cls-12" d="M838.85,793.42h0l-240.69-.09c-.58,0-1.1-.33-1.35-.85l-80.45-166.32c-.23-.47-.2-1.02,.08-1.46,.28-.44,.76-.7,1.27-.7h0l239.55,1.27c.57,0,1.09,.33,1.34,.84l81.59,165.15c.23,.47,.2,1.02-.07,1.46-.27,.44-.76,.71-1.28,.71Zm-239.75-3.1l237.33,.09-80.11-162.15-236.21-1.25,78.99,163.31Z"/>
          </g>
          <g>
            <path class="cls-8" d="M669.23,692.21c-6.8-.64-14.23,1.11-17,7.14-2.77,6.03-.65,13.58,4.4,18.03,5.05,4.45,12.51,5.88,19.17,4.43,3.6-.78,7.17-2.47,9.24-5.42,1.44-2.05,2.05-4.56,2.07-7.03,.06-8.12-3.78-15.82-17.88-17.16Z"/>
            <path class="cls-12" d="M670.71,723.86c-5.67,0-11.14-1.89-15.07-5.35-5.72-5.04-7.72-13.36-4.77-19.78,2.69-5.86,9.61-8.85,18.51-8.01h0c16,1.51,19.29,10.98,19.24,18.66-.02,3.01-.83,5.74-2.34,7.88-2.62,3.72-6.96,5.33-10.15,6.02-1.8,.39-3.62,.58-5.42,.58Zm-4.03-30.27c-5.27,0-10.91,1.65-13.08,6.39-2.41,5.25-.72,12.1,4.03,16.28,4.48,3.94,11.32,5.51,17.86,4.09,3.77-.82,6.73-2.53,8.33-4.81,1.46-2.08,1.78-4.51,1.79-6.18,.07-9.47-5.34-14.59-16.52-15.65h0c-.79-.07-1.6-.11-2.41-.11Z"/>
          </g>
        </g>
      </g>
      <g>
        <circle class="cls-14" cx="276.17" cy="413.18" r="148.19"/>
        <text class="cls-9" transform="translate(215.18 435.94)"><tspan x="0" y="0">ETF</tspan></text>
      </g>
      <g>
        <circle class="cls-1" cx="1137.39" cy="738.02" r="16.5"/>
        <path class="cls-14" d="M1143.01,743.85c-.12-.41-.27-.82-.45-1.21-.49,.17-.93,.29-1.32,.36s-.85,.11-1.36,.11c-2.32,0-3.7-1.09-4.17-3.28h4.21l.75-1.57h-5.12c0-.09,0-.17,0-.27,0-.2,0-.39,.02-.58h5.12l.8-1.57h-5.69c.18-.69,.46-1.28,.84-1.74,.72-.87,1.75-1.31,3.09-1.31,.52,0,.97,.03,1.34,.11,.38,.07,.81,.19,1.3,.36,.17-.41,.32-.81,.46-1.21s.22-.81,.25-1.23c-.66-.27-1.27-.44-1.84-.53-.56-.08-1.18-.12-1.85-.12-1.13,0-2.14,.2-3.03,.59s-1.64,.94-2.24,1.64-1.07,1.53-1.4,2.49c-.11,.31-.19,.63-.26,.96h-1.53l-.78,1.57h2.1c0,.19-.02,.38-.02,.58,0,.09,0,.18,0,.27h-1.4l-.73,1.57h2.27c.07,.43,.17,.86,.3,1.26,.31,.95,.77,1.77,1.38,2.46,.61,.69,1.36,1.23,2.26,1.61,.89,.38,1.94,.58,3.12,.58,.67,0,1.3-.04,1.88-.13,.58-.08,1.23-.26,1.96-.52-.06-.42-.14-.83-.26-1.25h0Z"/>
      </g>
    </g>
  </g>
</svg>