<?xml version="1.0" encoding="UTF-8"?>
<svg id="Ebene_2" data-name="Ebene 2" xmlns="http://www.w3.org/2000/svg" viewBox="0 0 1503 861.01">
  <defs>
    <style>
      .cls-1 {
        stroke: #000;
      }

      .cls-1, .cls-2 {
        stroke-width: 4px;
      }

      .cls-1, .cls-2, .cls-3 {
        fill: none;
        stroke-miterlimit: 10;
      }

      .cls-4 {
        fill: #fff;
      }

      .cls-2 {
        stroke: #ff6b35;
      }

      .cls-5 {
        fill: #1dcaa2;
      }

      .cls-3 {
        stroke: #171614;
      }

      .cls-6 {
        fill: #171614;
      }

      .cls-7 {
        fill: #e70036;
      }

      .cls-8 {
        fill: #ff6b35;
      }
    </style>
  </defs>
  <g id="Ebene_1-2" data-name="Ebene 1">
    <g>
      <path class="cls-6" d="M1412.06,43.93c0,2.18,.5,3.75,1.51,4.7,1.01,.95,2.41,1.42,4.21,1.42s3.21-.47,4.23-1.42c1.02-.95,1.53-2.51,1.53-4.7v-14.54h3.96v15.41c0,1.18-.19,2.29-.58,3.35-.38,1.06-.98,1.99-1.78,2.79-.8,.8-1.84,1.44-3.1,1.91-1.26,.47-2.75,.7-4.48,.7s-3.2-.23-4.43-.7c-1.22-.47-2.23-1.1-3.01-1.91-.78-.8-1.34-1.73-1.69-2.79-.35-1.06-.52-2.17-.52-3.35v-15.41h4.14v14.54Z"/>
      <path class="cls-6" d="M1436.57,35.11c0,.5,.11,.94,.34,1.3,.23,.36,.55,.67,.95,.94,.41,.26,.89,.51,1.46,.74,.56,.23,1.19,.46,1.89,.7,.86,.31,1.72,.67,2.57,1.06,.85,.4,1.62,.89,2.3,1.48,.68,.59,1.24,1.31,1.67,2.18,.43,.86,.65,1.91,.65,3.13,0,1.3-.23,2.39-.7,3.28-.47,.89-1.1,1.6-1.89,2.14s-1.71,.93-2.74,1.17c-1.03,.24-2.1,.36-3.2,.36-1.58,0-3.07-.19-4.45-.58s-2.56-.85-3.55-1.4l1.08-3.89c.91,.7,1.93,1.27,3.04,1.73,1.12,.46,2.39,.68,3.83,.68,1.54,0,2.65-.27,3.35-.81,.7-.54,1.04-1.27,1.04-2.18,0-.7-.17-1.29-.5-1.78-.34-.49-.76-.91-1.26-1.26-.5-.35-1.04-.63-1.6-.85-.56-.22-1.06-.4-1.49-.54-.77-.24-1.55-.53-2.34-.86-.79-.34-1.52-.77-2.2-1.31s-1.22-1.22-1.64-2.03-.63-1.84-.63-3.06c0-1.15,.2-2.12,.59-2.92,.4-.79,.94-1.43,1.62-1.93,.68-.49,1.49-.85,2.41-1.06,.92-.22,1.93-.32,3.01-.32,1.32,0,2.6,.13,3.83,.4,1.24,.26,2.27,.59,3.11,.97l-.97,3.82c-.43-.29-.9-.54-1.4-.76-.5-.22-1.03-.4-1.57-.54-.54-.14-1.08-.26-1.62-.34-.54-.08-1.05-.13-1.53-.13-1.08,0-1.93,.2-2.56,.61-.62,.41-.94,1.03-.94,1.87Z"/>
      <path class="cls-6" d="M1453.06,29.41c.31-.08,.8-.13,1.48-.13h5.87c2.33,0,4.24,.24,5.74,.72,1.5,.48,2.74,1.13,3.73,1.96,1.27,1.1,2.2,2.49,2.77,4.18s.86,3.56,.86,5.61c0,1.55-.2,3.03-.59,4.45-.4,1.42-1.1,2.66-2.12,3.73-1.02,1.07-2.42,1.92-4.21,2.55s-4.07,.95-6.86,.95h-3.24c-1.15,0-2.29-.1-3.42-.29V29.41Zm7.67,20.68c2.9,0,5.02-.69,6.35-2.08,1.33-1.39,2-3.65,2-6.78,0-1.41-.14-2.65-.41-3.71-.28-1.06-.75-1.95-1.42-2.67-.67-.72-1.57-1.25-2.7-1.61-1.13-.36-2.53-.54-4.21-.54h-3.13v17.28c.67,.07,1.32,.11,1.94,.11h1.58Z"/>
    </g>
    <g>
      <path class="cls-6" d="M1412.85,119.19h-2.7v-18.94l-3.46,1.66-.79-2.52,6.95-3.96v23.76Z"/>
      <path class="cls-6" d="M1430.05,106.16c1.39,.31,2.47,1.03,3.22,2.16,.76,1.13,1.13,2.5,1.13,4.1,0,1.01-.16,1.95-.47,2.83-.31,.88-.8,1.64-1.46,2.29-.66,.65-1.49,1.16-2.5,1.53-1.01,.37-2.2,.56-3.56,.56-1.44,0-2.66-.2-3.67-.59s-1.82-.92-2.45-1.58c-.62-.66-1.08-1.42-1.37-2.29-.29-.86-.43-1.75-.43-2.66,0-1.58,.38-2.93,1.15-4.03,.77-1.1,1.84-1.86,3.2-2.27v-.14c-.84-.31-1.58-.9-2.21-1.76-.64-.86-.95-1.96-.95-3.28,0-1.73,.59-3.12,1.76-4.18,1.18-1.06,2.84-1.58,5-1.58s3.77,.51,4.97,1.53c1.2,1.02,1.8,2.39,1.8,4.12,0,1.27-.31,2.35-.92,3.22-.61,.88-1.36,1.51-2.25,1.89v.14Zm1.37,6.52c0-.67-.09-1.33-.27-1.96-.18-.64-.47-1.2-.88-1.69-.41-.49-.93-.89-1.57-1.19-.64-.3-1.4-.45-2.29-.45s-1.69,.15-2.32,.45c-.64,.3-1.15,.7-1.55,1.19-.4,.49-.68,1.06-.86,1.69-.18,.64-.27,1.29-.27,1.96,0,1.51,.43,2.68,1.28,3.51,.85,.83,2.09,1.24,3.73,1.24s2.87-.41,3.73-1.24c.85-.83,1.28-2,1.28-3.51Zm-1.15-11.52c0-1.01-.28-1.87-.85-2.57-.56-.71-1.57-1.06-3.01-1.06s-2.41,.34-2.99,1.03c-.58,.68-.86,1.55-.86,2.61,0,1.2,.33,2.18,.99,2.93,.66,.76,1.61,1.13,2.86,1.13s2.2-.38,2.86-1.13,.99-1.73,.99-2.93Z"/>
      <path class="cls-6" d="M1448.2,95.25c1.54,0,2.9,.32,4.09,.97,1.19,.65,2.19,1.53,3.01,2.65,.82,1.12,1.43,2.41,1.85,3.87,.42,1.46,.63,3,.63,4.61s-.22,3.11-.65,4.59-1.06,2.78-1.89,3.92c-.83,1.14-1.85,2.05-3.08,2.74-1.22,.68-2.63,1.03-4.21,1.03s-2.92-.32-4.09-.97c-1.17-.65-2.13-1.52-2.9-2.63-.77-1.1-1.35-2.38-1.75-3.83-.4-1.45-.59-2.98-.59-4.59,0-1.7,.22-3.31,.65-4.81,.43-1.5,1.06-2.81,1.87-3.92,.82-1.12,1.82-2,3.01-2.65,1.19-.65,2.54-.97,4.05-.97Zm-.18,22c1.18,0,2.2-.25,3.06-.76,.86-.5,1.57-1.2,2.12-2.09,.55-.89,.96-1.93,1.22-3.11s.4-2.47,.4-3.83c0-1.46-.14-2.8-.41-4-.28-1.2-.7-2.23-1.26-3.1-.56-.86-1.27-1.54-2.11-2.02-.84-.48-1.82-.72-2.95-.72s-2.14,.23-2.97,.7c-.83,.47-1.5,1.13-2.02,1.98-.52,.85-.89,1.87-1.13,3.04-.24,1.18-.36,2.47-.36,3.89,0,3.31,.56,5.81,1.67,7.49,1.12,1.68,2.69,2.52,4.73,2.52Z"/>
    </g>
    <g>
      <path class="cls-6" d="M1412.85,222.74h-2.7v-18.94l-3.46,1.66-.79-2.52,6.95-3.96v23.76Z"/>
      <path class="cls-6" d="M1419.29,222.74c-.02-.22-.04-.45-.04-.7v-.7c0-1.51,.32-3.17,.95-4.97,.64-1.8,1.45-3.61,2.43-5.42,.98-1.81,2.08-3.55,3.29-5.22,1.21-1.67,2.38-3.14,3.51-4.41h-11.59v-2.52h14.58v2.52c-1.2,1.2-2.4,2.66-3.6,4.37-1.2,1.72-2.28,3.51-3.24,5.38s-1.73,3.71-2.32,5.51c-.59,1.8-.88,3.37-.88,4.72v.76c0,.24,.01,.47,.04,.68h-3.13Z"/>
      <path class="cls-6" d="M1435.63,211.33l1.33-12.53h12.2v2.52h-9.94l-.94,7.67c.74-.17,1.52-.31,2.34-.41,.82-.11,1.57-.16,2.27-.16,1.08,0,2.08,.15,3.01,.45,.92,.3,1.72,.74,2.38,1.31s1.18,1.29,1.55,2.14c.37,.85,.56,1.83,.56,2.93s-.18,2.06-.54,3.02c-.36,.96-.91,1.8-1.64,2.52-.73,.72-1.65,1.3-2.75,1.73-1.1,.43-2.4,.65-3.89,.65-1.39,0-2.68-.2-3.87-.59-1.19-.4-2.24-.94-3.15-1.64l.76-2.52c.89,.7,1.82,1.27,2.81,1.71,.98,.44,2.15,.67,3.49,.67,1.82,0,3.25-.45,4.28-1.35,1.03-.9,1.55-2.21,1.55-3.94,0-.67-.09-1.29-.27-1.85-.18-.56-.49-1.04-.94-1.44-.44-.4-1.03-.7-1.75-.92-.72-.22-1.62-.32-2.7-.32-.84,0-1.7,.07-2.59,.22s-1.73,.37-2.52,.68l-1.04-.54Z"/>
    </g>
    <g>
      <path class="cls-6" d="M1411.85,444.15h-2.7v-18.94l-3.46,1.66-.79-2.52,6.95-3.96v23.76Z"/>
      <path class="cls-6" d="M1420.34,432.38c.29-.53,.65-.96,1.08-1.3,.43-.34,.91-.61,1.44-.81,.53-.2,1.08-.35,1.66-.43,.58-.08,1.15-.13,1.73-.13,1.51,0,2.74,.26,3.67,.77,.94,.52,1.66,1.15,2.18,1.89,.52,.74,.87,1.54,1.06,2.39,.19,.85,.29,1.6,.29,2.25,0,.86-.14,1.75-.41,2.65-.28,.9-.72,1.72-1.33,2.45-.61,.73-1.4,1.33-2.38,1.78s-2.14,.68-3.51,.68c-1.51,0-2.79-.26-3.82-.79-1.03-.53-1.87-1.28-2.5-2.27-.64-.98-1.1-2.16-1.39-3.53-.29-1.37-.43-2.9-.43-4.61s.14-3.27,.41-4.84c.28-1.57,.76-2.97,1.44-4.19,.68-1.22,1.6-2.21,2.75-2.97s2.59-1.13,4.32-1.13c.38,0,.83,.02,1.33,.07,.5,.05,1.02,.14,1.55,.27,.53,.13,1.04,.31,1.53,.54,.49,.23,.92,.51,1.28,.85l-.61,2.38c-.82-.67-1.68-1.13-2.59-1.39s-1.73-.38-2.45-.38c-1.25,0-2.29,.26-3.11,.77-.83,.52-1.49,1.19-1.98,2.02s-.84,1.76-1.04,2.81-.31,2.08-.31,3.11v.52c0,.16,.01,.33,.04,.52l.11,.04Zm10.3,4.61c0-.65-.08-1.28-.23-1.89-.16-.61-.41-1.15-.76-1.62-.35-.47-.82-.85-1.4-1.13s-1.31-.43-2.18-.43c-1.8,0-3.12,.5-3.96,1.51-.84,1.01-1.26,2.27-1.26,3.78s.43,2.84,1.3,3.78c.86,.94,2.09,1.4,3.67,1.4,1.49,0,2.66-.47,3.53-1.42,.86-.95,1.3-2.27,1.3-3.98Z"/>
      <path class="cls-6" d="M1438.02,432.74l1.33-12.53h12.2v2.52h-9.94l-.94,7.67c.74-.17,1.52-.31,2.34-.41,.82-.11,1.57-.16,2.27-.16,1.08,0,2.08,.15,3.01,.45,.92,.3,1.72,.74,2.38,1.31s1.18,1.29,1.55,2.14c.37,.85,.56,1.83,.56,2.93s-.18,2.06-.54,3.02c-.36,.96-.91,1.8-1.64,2.52-.73,.72-1.65,1.3-2.75,1.73-1.1,.43-2.4,.65-3.89,.65-1.39,0-2.68-.2-3.87-.59-1.19-.4-2.24-.94-3.15-1.64l.76-2.52c.89,.7,1.82,1.27,2.81,1.71,.98,.44,2.15,.67,3.49,.67,1.82,0,3.25-.45,4.28-1.35,1.03-.9,1.55-2.21,1.55-3.94,0-.67-.09-1.29-.27-1.85-.18-.56-.49-1.04-.94-1.44-.44-.4-1.03-.7-1.75-.92-.72-.22-1.62-.32-2.7-.32-.84,0-1.7,.07-2.59,.22s-1.73,.37-2.52,.68l-1.04-.54Z"/>
    </g>
    <g>
      <path class="cls-6" d="M1412.85,552.15h-2.7v-18.94l-3.46,1.66-.79-2.52,6.95-3.96v23.76Z"/>
      <path class="cls-6" d="M1421.34,540.38c.29-.53,.65-.96,1.08-1.29,.43-.34,.91-.61,1.44-.81,.53-.2,1.08-.35,1.66-.43,.58-.08,1.15-.13,1.73-.13,1.51,0,2.74,.26,3.67,.77,.94,.52,1.66,1.15,2.18,1.89,.52,.74,.87,1.54,1.06,2.39,.19,.85,.29,1.6,.29,2.25,0,.86-.14,1.75-.41,2.65-.28,.9-.72,1.72-1.33,2.45-.61,.73-1.4,1.33-2.38,1.78s-2.14,.68-3.51,.68c-1.51,0-2.79-.27-3.82-.79-1.03-.53-1.87-1.28-2.5-2.27s-1.1-2.16-1.39-3.53c-.29-1.37-.43-2.9-.43-4.61s.14-3.27,.41-4.84c.28-1.57,.76-2.97,1.44-4.19,.68-1.22,1.6-2.21,2.75-2.97s2.59-1.13,4.32-1.13c.38,0,.83,.02,1.33,.07s1.02,.14,1.55,.27c.53,.13,1.04,.31,1.53,.54,.49,.23,.92,.51,1.28,.85l-.61,2.38c-.82-.67-1.68-1.13-2.59-1.39s-1.73-.38-2.45-.38c-1.25,0-2.29,.26-3.11,.77-.83,.52-1.49,1.19-1.98,2.02s-.84,1.76-1.04,2.81-.31,2.08-.31,3.11v.52c0,.16,.01,.33,.04,.52l.11,.04Zm10.3,4.61c0-.65-.08-1.28-.23-1.89-.16-.61-.41-1.15-.76-1.62-.35-.47-.82-.85-1.4-1.13-.59-.29-1.31-.43-2.18-.43-1.8,0-3.12,.5-3.96,1.51-.84,1.01-1.26,2.27-1.26,3.78s.43,2.84,1.3,3.78c.86,.94,2.09,1.4,3.67,1.4,1.49,0,2.66-.47,3.53-1.42,.86-.95,1.3-2.27,1.3-3.98Z"/>
      <path class="cls-6" d="M1447.95,528.21c1.54,0,2.9,.32,4.09,.97,1.19,.65,2.19,1.53,3.01,2.65,.82,1.12,1.43,2.41,1.85,3.87,.42,1.46,.63,3,.63,4.61s-.22,3.12-.65,4.59-1.06,2.78-1.89,3.92-1.85,2.05-3.08,2.74c-1.22,.68-2.63,1.03-4.21,1.03s-2.92-.32-4.09-.97c-1.17-.65-2.13-1.52-2.9-2.63-.77-1.1-1.35-2.38-1.75-3.83-.4-1.45-.59-2.98-.59-4.59,0-1.7,.22-3.31,.65-4.81,.43-1.5,1.06-2.81,1.87-3.92,.82-1.12,1.82-2,3.01-2.65,1.19-.65,2.54-.97,4.05-.97Zm-.18,22c1.18,0,2.2-.25,3.06-.76s1.57-1.2,2.12-2.09c.55-.89,.96-1.93,1.22-3.11,.26-1.19,.4-2.47,.4-3.83,0-1.46-.14-2.8-.41-4-.28-1.2-.7-2.23-1.26-3.1-.56-.86-1.27-1.54-2.11-2.02-.84-.48-1.82-.72-2.95-.72s-2.14,.23-2.97,.7c-.83,.47-1.5,1.13-2.02,1.98-.52,.85-.89,1.87-1.13,3.04-.24,1.18-.36,2.47-.36,3.89,0,3.31,.56,5.81,1.67,7.49s2.69,2.52,4.73,2.52Z"/>
    </g>
    <g>
      <path class="cls-6" d="M1414.85,675.15h-2.7v-18.94l-3.46,1.66-.79-2.52,6.95-3.96v23.76Z"/>
      <path class="cls-6" d="M1421.18,663.74l1.33-12.53h12.2v2.52h-9.94l-.94,7.67c.74-.17,1.52-.31,2.34-.41,.82-.11,1.57-.16,2.27-.16,1.08,0,2.08,.15,3.01,.45,.92,.3,1.72,.74,2.38,1.31,.66,.58,1.18,1.29,1.55,2.14,.37,.85,.56,1.83,.56,2.93s-.18,2.06-.54,3.02c-.36,.96-.91,1.8-1.64,2.52-.73,.72-1.65,1.3-2.75,1.73-1.1,.43-2.4,.65-3.89,.65-1.39,0-2.68-.2-3.87-.59-1.19-.4-2.24-.94-3.15-1.64l.76-2.52c.89,.7,1.82,1.27,2.81,1.71,.98,.44,2.15,.67,3.49,.67,1.82,0,3.25-.45,4.28-1.35,1.03-.9,1.55-2.21,1.55-3.94,0-.67-.09-1.29-.27-1.85-.18-.56-.49-1.04-.94-1.44-.44-.4-1.03-.7-1.75-.92s-1.62-.32-2.7-.32c-.84,0-1.7,.07-2.59,.22-.89,.14-1.73,.37-2.52,.68l-1.04-.54Z"/>
      <path class="cls-6" d="M1449.48,651.21c1.54,0,2.9,.32,4.09,.97,1.19,.65,2.19,1.53,3.01,2.65,.82,1.12,1.43,2.41,1.85,3.87,.42,1.46,.63,3,.63,4.61s-.22,3.11-.65,4.59c-.43,1.48-1.06,2.78-1.89,3.92-.83,1.14-1.85,2.05-3.08,2.74-1.22,.68-2.63,1.03-4.21,1.03s-2.92-.32-4.09-.97c-1.17-.65-2.13-1.52-2.9-2.63-.77-1.1-1.35-2.38-1.75-3.83-.4-1.45-.59-2.98-.59-4.59,0-1.7,.22-3.31,.65-4.81,.43-1.5,1.06-2.81,1.87-3.92,.82-1.12,1.82-2,3.01-2.65,1.19-.65,2.54-.97,4.05-.97Zm-.18,22c1.18,0,2.2-.25,3.06-.76s1.57-1.2,2.12-2.09c.55-.89,.96-1.93,1.22-3.11,.26-1.19,.4-2.47,.4-3.83,0-1.46-.14-2.79-.41-4-.28-1.2-.7-2.23-1.26-3.1-.56-.86-1.27-1.54-2.11-2.02s-1.82-.72-2.95-.72-2.14,.23-2.97,.7c-.83,.47-1.5,1.13-2.02,1.98-.52,.85-.89,1.87-1.13,3.04s-.36,2.47-.36,3.89c0,3.31,.56,5.81,1.67,7.49s2.69,2.52,4.73,2.52Z"/>
    </g>
    <rect class="cls-8" x="1382.4" y="321.52" width="120.6" height="46"/>
    <g>
      <path class="cls-4" d="M1411.3,356.25h-4.14v-17.5l-2.92,1.3-.79-3.6,7.85-3.96v23.76Z"/>
      <path class="cls-4" d="M1420.44,344.33c.41-.86,1.04-1.5,1.89-1.91,.85-.41,1.85-.61,3.01-.61,1.37,0,2.5,.25,3.38,.76s1.6,1.13,2.12,1.87c.53,.74,.89,1.54,1.1,2.39,.2,.85,.31,1.64,.31,2.36,0,.86-.14,1.74-.41,2.63-.28,.89-.72,1.69-1.33,2.41-.61,.72-1.41,1.31-2.39,1.76s-2.17,.68-3.56,.68c-1.49,0-2.74-.27-3.76-.81-1.02-.54-1.85-1.3-2.48-2.29-.64-.98-1.1-2.17-1.39-3.55s-.43-2.91-.43-4.59,.14-3.23,.41-4.81c.28-1.57,.76-2.97,1.44-4.19,.68-1.22,1.6-2.21,2.74-2.97,1.14-.76,2.56-1.13,4.27-1.13,.43,0,.91,.03,1.44,.09,.53,.06,1.06,.16,1.6,.31,.54,.14,1.06,.34,1.57,.58,.5,.24,.94,.54,1.3,.9l-.9,3.17c-.79-.6-1.63-1.02-2.52-1.26-.89-.24-1.67-.36-2.34-.36-1.01,0-1.85,.22-2.52,.67-.67,.44-1.21,1.03-1.6,1.75-.4,.72-.67,1.52-.83,2.41-.16,.89-.23,1.78-.23,2.66v.52c0,.16,.01,.33,.04,.52l.11,.04Zm7.56,4.72c0-.5-.05-1-.14-1.48s-.27-.91-.52-1.28-.59-.67-1.01-.88c-.42-.22-.94-.32-1.57-.32-1.22,0-2.14,.4-2.75,1.19s-.92,1.8-.92,3.02,.31,2.24,.94,2.99,1.48,1.12,2.56,1.12,1.92-.38,2.52-1.15c.6-.77,.9-1.84,.9-3.2Z"/>
      <path class="cls-4" d="M1447.26,343.22c1.39,.31,2.47,1.03,3.22,2.16,.76,1.13,1.13,2.5,1.13,4.1,0,1.01-.16,1.95-.47,2.83-.31,.88-.8,1.64-1.46,2.29-.66,.65-1.49,1.16-2.5,1.53-1.01,.37-2.2,.56-3.56,.56-1.44,0-2.66-.2-3.67-.59-1.01-.4-1.82-.92-2.45-1.58s-1.08-1.42-1.37-2.29c-.29-.86-.43-1.75-.43-2.66,0-1.58,.38-2.93,1.15-4.03,.77-1.1,1.84-1.86,3.2-2.27v-.14c-.84-.31-1.58-.9-2.21-1.76-.64-.86-.95-1.96-.95-3.28,0-1.73,.59-3.12,1.76-4.18,1.18-1.06,2.84-1.58,5-1.58s3.77,.51,4.97,1.53c1.2,1.02,1.8,2.39,1.8,4.12,0,1.27-.31,2.35-.92,3.22-.61,.88-1.36,1.51-2.25,1.89v.14Zm.22,6.37c0-.55-.07-1.1-.22-1.66-.14-.55-.37-1.04-.68-1.48-.31-.43-.71-.79-1.21-1.06-.49-.28-1.07-.41-1.75-.41s-1.28,.14-1.76,.41c-.48,.28-.88,.64-1.19,1.08-.31,.44-.54,.94-.68,1.49-.14,.55-.22,1.09-.22,1.62,0,1.3,.35,2.28,1.06,2.95s1.64,1.01,2.79,1.01,2.08-.34,2.79-1.01,1.06-1.66,1.06-2.95Zm-1.08-11.05c0-.94-.23-1.67-.7-2.21s-1.16-.81-2.07-.81-1.57,.26-2.05,.77c-.48,.52-.72,1.25-.72,2.21,0,1.01,.25,1.8,.76,2.38s1.18,.86,2.02,.86,1.51-.29,2.02-.86c.5-.58,.76-1.36,.76-2.34Z"/>
      <path class="cls-4" d="M1455.47,354.12c0-.34,.07-.66,.2-.97s.32-.59,.56-.85c.24-.25,.51-.45,.81-.59,.3-.14,.63-.22,.99-.22,.34,0,.66,.07,.97,.22,.31,.14,.59,.34,.85,.59s.45,.54,.59,.85c.14,.31,.22,.64,.22,.97,0,.36-.07,.69-.22,.99-.14,.3-.34,.57-.59,.81-.25,.24-.53,.43-.85,.56-.31,.13-.64,.2-.97,.2-.7,0-1.3-.25-1.8-.76-.5-.5-.76-1.1-.76-1.8Z"/>
      <path class="cls-4" d="M1465.26,345.38l1.4-13.07h12.2v3.78h-8.86l-.54,5.69c.5-.14,1.03-.25,1.58-.31,.55-.06,1.06-.09,1.51-.09,1.1,0,2.11,.16,3.02,.49s1.7,.8,2.38,1.42,1.19,1.39,1.57,2.29c.37,.9,.56,1.93,.56,3.08s-.18,2.14-.54,3.11c-.36,.97-.91,1.82-1.64,2.56-.73,.73-1.65,1.31-2.75,1.73-1.1,.42-2.4,.63-3.89,.63s-2.81-.21-4.05-.63c-1.24-.42-2.32-1.01-3.26-1.78l1.04-3.42c.36,.34,.77,.64,1.24,.92,.47,.28,.97,.52,1.51,.72s1.09,.37,1.66,.49c.56,.12,1.12,.18,1.67,.18,.6,0,1.18-.08,1.75-.23,.56-.16,1.06-.4,1.48-.74,.42-.34,.76-.77,1.01-1.31s.38-1.19,.38-1.96c0-.58-.07-1.1-.22-1.58-.14-.48-.38-.89-.72-1.22-.34-.34-.79-.6-1.35-.79-.56-.19-1.28-.29-2.14-.29-.74,0-1.56,.07-2.45,.22-.89,.14-1.73,.37-2.52,.68l-1.04-.54Z"/>
    </g>
    <line class="cls-3" x1="1383.56" y1="26.05" x2="1383.56" y2="861.01"/>
    <g>
      <path d="M1096.39,596.55h-5.75l-3.45-8.83h-11.45l-3.13,8.83h-5.52l11.78-30.36h4.55l12.97,30.36Zm-19.18-12.97h8.33l-4.37-11.18-3.96,11.18Z"/>
      <path d="M1103.71,575.39v13.75c0,1.26,.33,2.22,.99,2.88,.66,.66,1.51,.99,2.55,.99s2.05-.36,2.94-1.08c.89-.72,1.55-1.75,1.98-3.1v-13.43h5.11v21.16h-3.96l-.28-2.94h-.18c-.34,.71-.77,1.28-1.29,1.72-.52,.45-1.1,.8-1.72,1.06-.63,.26-1.28,.44-1.96,.55-.67,.11-1.33,.16-1.98,.16-1.01,0-1.96-.12-2.83-.37s-1.64-.65-2.3-1.22c-.66-.57-1.18-1.32-1.56-2.25-.38-.93-.58-2.09-.58-3.47v-14.4h5.06Z"/>
      <path d="M1130.07,578.47c-1.01,0-1.8,.19-2.37,.58-.57,.38-.85,.93-.85,1.63,0,.46,.16,.88,.48,1.26s1,.7,2.05,.94l3.27,.74c1.29,.28,2.32,.68,3.1,1.2,.78,.52,1.4,1.09,1.84,1.7s.74,1.24,.9,1.89c.15,.64,.23,1.24,.23,1.79,0,.98-.2,1.89-.6,2.74-.4,.84-.97,1.57-1.7,2.18-.74,.61-1.63,1.1-2.67,1.45-1.04,.35-2.21,.53-3.5,.53-1.63,0-3.13-.24-4.51-.71-1.38-.48-2.48-1-3.31-1.59l1.2-4.37c1.04,1.01,2.22,1.76,3.52,2.25,1.3,.49,2.51,.74,3.61,.74,1.17,0,2.05-.25,2.67-.76s.92-1.2,.92-2.09c0-.52-.15-.96-.46-1.31-.31-.35-.92-.65-1.84-.9l-4.42-1.1c-1.04-.25-1.89-.6-2.55-1.06-.66-.46-1.18-.97-1.56-1.54-.38-.57-.64-1.16-.78-1.77-.14-.61-.21-1.2-.21-1.75,0-2.05,.72-3.64,2.16-4.76,1.44-1.12,3.31-1.68,5.61-1.68,1.2,0,2.48,.16,3.86,.48,1.38,.32,2.54,.79,3.5,1.4l-1.33,4.14c-.61-.49-1.47-.99-2.58-1.49-1.1-.51-2.33-.76-3.68-.76Z"/>
      <path d="M1144.55,578.47h-2.62v-2.62l2.62-.41c0-1.75,.05-3.24,.16-4.46,.11-1.23,.25-2.26,.44-3.1,.18-.84,.39-1.52,.62-2.05,.23-.52,.47-.95,.71-1.29,.61-.8,1.42-1.37,2.42-1.72,1-.35,2.09-.53,3.29-.53h.74c.34,0,.71,.03,1.13,.1,.41,.06,.84,.17,1.29,.31s.85,.33,1.22,.55l-1.15,3.91c-.31-.18-.81-.44-1.52-.76-.71-.32-1.4-.48-2.07-.48-.4,0-.74,.09-1.01,.28-.28,.18-.51,.52-.69,1.01-.18,.49-.31,1.15-.39,1.98-.08,.83-.12,1.89-.12,3.17v3.04h4.05v3.08h-4.05v18.08h-5.06v-18.08Z"/>
      <path d="M1162.68,575.39v13.75c0,1.26,.33,2.22,.99,2.88,.66,.66,1.51,.99,2.55,.99s2.05-.36,2.94-1.08c.89-.72,1.55-1.75,1.98-3.1v-13.43h5.11v21.16h-3.96l-.28-2.94h-.18c-.34,.71-.77,1.28-1.29,1.72-.52,.45-1.1,.8-1.72,1.06-.63,.26-1.28,.44-1.96,.55-.67,.11-1.33,.16-1.98,.16-1.01,0-1.96-.12-2.83-.37s-1.64-.65-2.3-1.22c-.66-.57-1.18-1.32-1.56-2.25-.38-.93-.58-2.09-.58-3.47v-14.4h5.06Zm-1.75-6.99c0-.71,.26-1.33,.78-1.89,.52-.55,1.13-.83,1.84-.83s1.33,.28,1.89,.83c.55,.55,.83,1.18,.83,1.89s-.28,1.32-.83,1.84c-.55,.52-1.18,.78-1.89,.78s-1.32-.26-1.84-.78c-.52-.52-.78-1.13-.78-1.84Zm6.26,0c0-.71,.26-1.33,.78-1.89,.52-.55,1.13-.83,1.84-.83s1.33,.28,1.89,.83,.83,1.18,.83,1.89-.28,1.32-.83,1.84c-.55,.52-1.18,.78-1.89,.78s-1.32-.26-1.84-.78c-.52-.52-.78-1.13-.78-1.84Z"/>
      <path d="M1187.66,578.52c.86-1.35,1.86-2.32,3.01-2.92,1.15-.6,2.51-.9,4.07-.9,.92,0,1.81,.13,2.67,.39,.86,.26,1.62,.68,2.28,1.27s1.18,1.35,1.56,2.3c.38,.95,.58,2.12,.58,3.5v14.4h-5.06v-13.98c0-1.26-.28-2.2-.83-2.83-.55-.63-1.3-.94-2.25-.94-.58,0-1.19,.09-1.82,.28-.63,.18-1.22,.46-1.77,.83s-1.04,.81-1.47,1.33c-.43,.52-.75,1.1-.97,1.75v13.57h-5.06v-34.04h5.06v16.01Z"/>
      <path d="M1220.09,579.99c-.31-.25-.78-.44-1.43-.6-.64-.15-1.2-.23-1.66-.23-.61,0-1.12,.15-1.52,.44-.4,.29-.75,.68-1.06,1.15-.31,.48-.57,1.02-.78,1.63-.21,.61-.41,1.24-.6,1.89v12.28h-5.06v-21.16h3.96l.23,4.42h.18c.31-.64,.63-1.27,.97-1.88,.34-.61,.72-1.16,1.15-1.63,.43-.48,.93-.86,1.5-1.15,.57-.29,1.23-.44,2-.44,1.23,0,2.38,.4,3.45,1.2l-1.33,4.09Z"/>
      <path d="M1230.07,575.39v13.75c0,1.26,.33,2.22,.99,2.88,.66,.66,1.51,.99,2.55,.99s2.05-.36,2.94-1.08c.89-.72,1.55-1.75,1.98-3.1v-13.43h5.11v21.16h-3.96l-.28-2.94h-.18c-.34,.71-.77,1.28-1.29,1.72-.52,.45-1.1,.8-1.72,1.06-.63,.26-1.28,.44-1.96,.55-.67,.11-1.33,.16-1.98,.16-1.01,0-1.96-.12-2.83-.37s-1.64-.65-2.3-1.22c-.66-.57-1.18-1.32-1.56-2.25-.38-.93-.58-2.09-.58-3.47v-14.4h5.06Z"/>
      <path d="M1264.15,596.55v-13.98c0-2.51-1.07-3.77-3.22-3.77-.52,0-1.08,.09-1.68,.28-.6,.18-1.17,.45-1.73,.81-.55,.35-1.05,.79-1.5,1.31s-.77,1.12-.99,1.79v13.57h-5.06v-21.16h3.96l.23,3.13h.18c.64-1.29,1.65-2.25,3.01-2.88s2.83-.94,4.39-.94c1.01,0,1.96,.13,2.85,.39,.89,.26,1.68,.68,2.37,1.27,.69,.58,1.23,1.35,1.63,2.3,.4,.95,.6,2.12,.6,3.5v14.4h-5.06Z"/>
      <path d="M1277.95,589.88c-1.38-.58-2.38-1.49-2.99-2.71-.61-1.23-.92-2.56-.92-4,0-1.2,.2-2.32,.6-3.36,.4-1.04,.97-1.94,1.72-2.69,.75-.75,1.66-1.34,2.71-1.77,1.06-.43,2.26-.64,3.61-.64,.8,0,1.59,.07,2.37,.22,.78,.15,1.46,.37,2.05,.67,1.29,0,2.46-.09,3.52-.26,1.06-.17,2.08-.4,3.06-.68l.41,.32-.51,3.5-.23,.23-3.27-.37-.05,.14c1.04,1.32,1.56,2.87,1.56,4.65,0,1.07-.19,2.08-.57,3.01-.38,.94-.94,1.75-1.68,2.44-.74,.69-1.65,1.24-2.74,1.66-1.09,.41-2.32,.62-3.7,.62-.34,0-.61,0-.81-.02s-.39-.02-.57-.02c-.52,.18-.92,.42-1.2,.71-.28,.29-.41,.59-.41,.9,0,.34,.17,.63,.51,.87,.34,.25,.86,.41,1.56,.51l4.46,.55c1.01,.12,1.96,.34,2.83,.64,.87,.31,1.64,.72,2.3,1.24,.66,.52,1.17,1.15,1.54,1.89s.55,1.58,.55,2.53-.2,1.87-.6,2.76c-.4,.89-1.03,1.67-1.89,2.35-.86,.67-1.94,1.21-3.24,1.61-1.3,.4-2.88,.6-4.72,.6-1.62,0-3.06-.16-4.3-.48s-2.29-.76-3.15-1.31c-.86-.55-1.51-1.2-1.96-1.95-.45-.75-.67-1.56-.67-2.42,0-.61,.11-1.22,.32-1.82s.51-1.15,.9-1.66c.38-.51,.83-.96,1.33-1.36s1.05-.69,1.63-.87v-.18c-.71-.31-1.2-.72-1.47-1.24-.28-.52-.41-1.03-.41-1.52,0-.64,.21-1.24,.64-1.79,.43-.55,1.04-.98,1.84-1.29v-.18Zm3.5,7.68c-1.04,.18-1.93,.62-2.67,1.31-.74,.69-1.1,1.48-1.1,2.37,0,.98,.48,1.72,1.45,2.21,.97,.49,2.37,.74,4.21,.74s3.25-.25,4.32-.76,1.61-1.33,1.61-2.46-.6-1.89-1.79-2.35-3.21-.81-6.03-1.06Zm1.43-10.26c1.26,0,2.21-.41,2.85-1.22,.64-.81,.97-1.8,.97-2.97,0-.55-.08-1.11-.23-1.68-.15-.57-.4-1.08-.74-1.54-.34-.46-.76-.83-1.26-1.13s-1.1-.44-1.77-.44-1.21,.13-1.7,.39c-.49,.26-.9,.61-1.22,1.04s-.56,.91-.71,1.45c-.15,.54-.23,1.08-.23,1.63s.08,1.1,.25,1.63c.17,.54,.42,1.01,.76,1.43,.34,.41,.76,.75,1.26,1.01,.51,.26,1.1,.39,1.77,.39Z"/>
    </g>
    <g>
      <path d="M1081.23,34.11l-.37-2.9h-.18c-.83,1.04-1.96,1.88-3.38,2.51-1.43,.63-2.88,.94-4.35,.94-1.93,0-3.45-.56-4.55-1.68-1.1-1.12-1.66-2.6-1.66-4.44,0-1.26,.27-2.38,.8-3.38,.54-1,1.31-1.84,2.32-2.53,1.01-.69,2.22-1.22,3.63-1.59,1.41-.37,2.99-.55,4.74-.55h1.98v-.69c0-1.2-.38-2.07-1.15-2.62-.8-.55-2.04-.83-3.73-.83-2.27,0-4.29,.51-6.07,1.52l-.97-3.82c2.05-1.2,4.54-1.79,7.45-1.79,3.07,0,5.4,.63,6.99,1.89,.74,.58,1.34,1.33,1.82,2.25s.71,2.02,.71,3.31v14.4h-4.05Zm-6.3-3.54c.98,0,1.96-.24,2.94-.71,.98-.48,1.76-1.11,2.35-1.91v-4.19h-.87c-2.51,0-4.35,.32-5.5,.97-1.15,.64-1.73,1.67-1.73,3.08,0,1.84,.94,2.76,2.81,2.76Z"/>
      <path d="M1101.61,20.41l9.02,13.71h-5.52l-6.85-10.4-1.79,1.79v8.6h-5.06V.07h5.06V19.72l7.04-6.76h5.66l-7.54,7.45Z"/>
      <path d="M1115.04,16.04h-2.62v-2.76l2.99-.46,.83-6.26h3.87v6.39h4.05v3.08h-4.05v12.14c0,.92,.09,1.54,.28,1.86,.18,.32,.54,.48,1.06,.48,.4,0,.8-.08,1.2-.23,.4-.15,.98-.44,1.75-.87l.83,3.63c-.58,.49-1.4,.88-2.46,1.17-1.06,.29-2.11,.44-3.15,.44-.92,0-1.68-.12-2.28-.37-.6-.25-1.07-.6-1.4-1.08-.34-.47-.57-1.05-.69-1.72-.12-.67-.18-1.43-.18-2.25v-13.2Z"/>
      <path d="M1134.22,12.95v13.75c0,1.26,.33,2.22,.99,2.88s1.51,.99,2.55,.99,2.05-.36,2.95-1.08c.89-.72,1.55-1.75,1.98-3.1V12.95h5.11v21.16h-3.96l-.28-2.94h-.18c-.34,.71-.77,1.28-1.29,1.73s-1.1,.8-1.72,1.06c-.63,.26-1.28,.44-1.96,.55-.67,.11-1.33,.16-1.98,.16-1.01,0-1.95-.12-2.83-.37s-1.64-.65-2.3-1.22c-.66-.57-1.18-1.32-1.56-2.25-.38-.93-.58-2.09-.58-3.47V12.95h5.06Z"/>
      <path d="M1163.75,12.26c2.7,0,4.78,.68,6.26,2.05s2.21,3.29,2.21,5.77c0,.34-.02,.7-.07,1.08-.04,.38-.11,.76-.18,1.13-.08,.37-.17,.7-.28,.99-.11,.29-.22,.53-.35,.71h-13.39c.06,.92,.23,1.79,.51,2.6,.28,.81,.67,1.52,1.2,2.12,.52,.6,1.16,1.07,1.91,1.43s1.63,.53,2.65,.53c1.13,0,2.34-.21,3.61-.64,1.27-.43,2.35-.97,3.24-1.61l.83,3.77c-.4,.25-.89,.51-1.47,.8-.58,.29-1.24,.56-1.98,.8-.74,.25-1.53,.45-2.37,.62-.84,.17-1.72,.25-2.64,.25-1.72,0-3.24-.3-4.55-.9-1.32-.6-2.42-1.41-3.31-2.44-.89-1.03-1.56-2.21-2.02-3.56s-.69-2.76-.69-4.23,.24-2.94,.71-4.3c.48-1.36,1.17-2.57,2.09-3.61,.92-1.04,2.06-1.86,3.43-2.46,1.36-.6,2.92-.9,4.67-.9Zm-.14,3.96c-1.29,0-2.38,.38-3.29,1.13-.9,.75-1.56,1.77-1.96,3.06h8.79c.03-.09,.05-.2,.07-.32,.02-.12,.02-.28,.02-.46,0-.98-.34-1.79-1.01-2.44-.68-.64-1.55-.97-2.62-.97Z"/>
      <path d="M1182.7,34.11h-5.06V.07h5.06V34.11Z"/>
      <path d="M1194.66,34.11h-5.06V.07h5.06V34.11Z"/>
      <path d="M1210.9,12.26c2.7,0,4.78,.68,6.26,2.05s2.21,3.29,2.21,5.77c0,.34-.02,.7-.07,1.08-.05,.38-.11,.76-.18,1.13-.08,.37-.17,.7-.28,.99-.11,.29-.22,.53-.34,.71h-13.39c.06,.92,.23,1.79,.51,2.6,.28,.81,.67,1.52,1.2,2.12,.52,.6,1.16,1.07,1.91,1.43,.75,.35,1.63,.53,2.64,.53,1.13,0,2.34-.21,3.61-.64,1.27-.43,2.35-.97,3.24-1.61l.83,3.77c-.4,.25-.89,.51-1.47,.8-.58,.29-1.24,.56-1.98,.8-.74,.25-1.53,.45-2.37,.62-.84,.17-1.72,.25-2.65,.25-1.72,0-3.24-.3-4.55-.9-1.32-.6-2.42-1.41-3.31-2.44-.89-1.03-1.56-2.21-2.02-3.56s-.69-2.76-.69-4.23,.24-2.94,.71-4.3c.47-1.36,1.17-2.57,2.09-3.61,.92-1.04,2.06-1.86,3.43-2.46,1.36-.6,2.92-.9,4.67-.9Zm-.14,3.96c-1.29,0-2.38,.38-3.29,1.13-.91,.75-1.56,1.77-1.96,3.06h8.79c.03-.09,.05-.2,.07-.32,.01-.12,.02-.28,.02-.46,0-.98-.34-1.79-1.01-2.44-.67-.64-1.55-.97-2.62-.97Z"/>
      <path d="M1236.61,17.55c-.31-.25-.78-.44-1.43-.6-.64-.15-1.2-.23-1.66-.23-.61,0-1.12,.15-1.52,.44-.4,.29-.75,.67-1.06,1.15s-.57,1.02-.78,1.63c-.21,.61-.41,1.24-.6,1.89v12.28h-5.06V12.95h3.96l.23,4.42h.18c.31-.64,.63-1.27,.97-1.89s.72-1.16,1.15-1.63c.43-.48,.93-.86,1.5-1.15,.57-.29,1.23-.44,2-.44,1.23,0,2.38,.4,3.45,1.2l-1.33,4.09Z"/>
      <path d="M1258.14,34.11h-5.29V3.75h5.29v13.25c1.75-1.66,3.31-3.27,4.69-4.83,1.29-1.47,2.45-2.91,3.5-4.3,1.04-1.39,1.95-2.77,2.71-4.12h5.8c-1.35,1.84-2.64,3.53-3.87,5.06s-2.58,3.13-4.05,4.78c-.55,.61-1.12,1.24-1.7,1.89-.58,.64-1.18,1.29-1.79,1.93l13.57,16.7h-6.12l-10.81-13.29-1.93,1.79v11.5Z"/>
      <path d="M1284.41,12.95v13.75c0,1.26,.33,2.22,.99,2.88,.66,.66,1.51,.99,2.55,.99s2.05-.36,2.94-1.08c.89-.72,1.55-1.75,1.98-3.1V12.95h5.11v21.16h-3.96l-.28-2.94h-.18c-.34,.71-.77,1.28-1.29,1.73-.52,.44-1.1,.8-1.73,1.06-.63,.26-1.28,.44-1.96,.55s-1.33,.16-1.98,.16c-1.01,0-1.96-.12-2.83-.37s-1.64-.65-2.3-1.22c-.66-.57-1.18-1.32-1.56-2.25-.38-.93-.57-2.09-.57-3.47V12.95h5.06Z"/>
      <path d="M1316.42,17.55c-.31-.25-.78-.44-1.43-.6-.64-.15-1.2-.23-1.66-.23-.61,0-1.12,.15-1.52,.44-.4,.29-.75,.67-1.06,1.15s-.57,1.02-.78,1.63c-.21,.61-.41,1.24-.6,1.89v12.28h-5.06V12.95h3.96l.23,4.42h.18c.31-.64,.63-1.27,.97-1.89s.72-1.16,1.15-1.63c.43-.48,.93-.86,1.49-1.15,.57-.29,1.23-.44,2-.44,1.23,0,2.38,.4,3.45,1.2l-1.33,4.09Z"/>
      <path d="M1327.97,16.04c-1.01,0-1.8,.19-2.37,.58-.57,.38-.85,.93-.85,1.63,0,.46,.16,.88,.48,1.26,.32,.38,1,.7,2.05,.94l3.27,.74c1.29,.28,2.32,.67,3.1,1.2,.78,.52,1.4,1.09,1.84,1.7,.45,.61,.74,1.24,.9,1.89,.15,.64,.23,1.24,.23,1.79,0,.98-.2,1.89-.6,2.74-.4,.84-.96,1.57-1.7,2.19s-1.63,1.1-2.67,1.45c-1.04,.35-2.21,.53-3.5,.53-1.63,0-3.13-.24-4.51-.71-1.38-.47-2.48-1-3.31-1.59l1.2-4.37c1.04,1.01,2.22,1.76,3.52,2.25,1.3,.49,2.51,.74,3.61,.74,1.17,0,2.05-.25,2.67-.76s.92-1.2,.92-2.09c0-.52-.15-.96-.46-1.31-.31-.35-.92-.65-1.84-.9l-4.42-1.1c-1.04-.25-1.89-.6-2.55-1.06-.66-.46-1.18-.97-1.56-1.54-.38-.57-.64-1.16-.78-1.77-.14-.61-.21-1.2-.21-1.75,0-2.05,.72-3.64,2.16-4.76,1.44-1.12,3.31-1.68,5.61-1.68,1.2,0,2.48,.16,3.86,.48,1.38,.32,2.54,.79,3.5,1.4l-1.33,4.14c-.61-.49-1.47-.99-2.58-1.5-1.1-.51-2.33-.76-3.68-.76Z"/>
    </g>
    <line class="cls-1" x1="1041.5" y1="0" x2="1041.02" y2="119.87"/>
    <g>
      <path d="M11.89,296.5c0,.64,.15,1.2,.44,1.66,.29,.46,.7,.86,1.22,1.2,.52,.34,1.14,.65,1.86,.94,.72,.29,1.52,.59,2.42,.9,1.1,.4,2.2,.85,3.29,1.36,1.09,.51,2.07,1.13,2.94,1.89s1.59,1.68,2.14,2.78c.55,1.1,.83,2.44,.83,4,0,1.66-.3,3.05-.9,4.19-.6,1.14-1.4,2.05-2.42,2.74-1.01,.69-2.18,1.19-3.5,1.49-1.32,.31-2.68,.46-4.09,.46-2.02,0-3.92-.25-5.68-.74-1.76-.49-3.27-1.09-4.53-1.79l1.38-4.97c1.17,.89,2.46,1.63,3.89,2.21,1.43,.58,3.06,.87,4.9,.87,1.96,0,3.39-.35,4.28-1.04,.89-.69,1.33-1.62,1.33-2.78,0-.89-.21-1.65-.64-2.28-.43-.63-.97-1.17-1.61-1.61-.64-.44-1.33-.81-2.05-1.08-.72-.28-1.36-.51-1.91-.69-.98-.31-1.98-.67-2.99-1.1-1.01-.43-1.95-.99-2.81-1.68-.86-.69-1.56-1.56-2.09-2.6-.54-1.04-.8-2.35-.8-3.91,0-1.47,.25-2.71,.76-3.73,.51-1.01,1.2-1.83,2.07-2.46,.87-.63,1.9-1.08,3.08-1.36,1.18-.28,2.46-.41,3.84-.41,1.69,0,3.32,.17,4.9,.51,1.58,.34,2.91,.75,3.98,1.24l-1.24,4.88c-.55-.37-1.15-.69-1.79-.97-.64-.28-1.31-.51-2-.69s-1.38-.33-2.07-.44c-.69-.11-1.34-.16-1.96-.16-1.38,0-2.47,.26-3.27,.78-.8,.52-1.2,1.32-1.2,2.39Z"/>
      <path d="M32.45,301.47h-2.62v-2.76l2.99-.46,.83-6.26h3.86v6.39h4.05v3.08h-4.05v12.14c0,.92,.09,1.54,.28,1.86,.18,.32,.54,.48,1.06,.48,.4,0,.8-.08,1.2-.23,.4-.15,.98-.44,1.75-.87l.83,3.63c-.58,.49-1.4,.88-2.46,1.17-1.06,.29-2.11,.44-3.15,.44-.92,0-1.68-.12-2.28-.37s-1.07-.61-1.4-1.08c-.34-.48-.57-1.05-.69-1.73-.12-.67-.18-1.43-.18-2.25v-13.2Z"/>
      <path d="M56.19,297.7c1.87,0,3.48,.31,4.83,.94,1.35,.63,2.46,1.47,3.33,2.53s1.52,2.27,1.93,3.63c.41,1.37,.62,2.8,.62,4.3s-.21,2.92-.62,4.25-1.06,2.5-1.93,3.5c-.87,1-1.98,1.79-3.31,2.37-1.33,.58-2.91,.87-4.71,.87s-3.48-.31-4.83-.92c-1.35-.61-2.47-1.43-3.36-2.46-.89-1.03-1.55-2.21-1.98-3.56-.43-1.35-.64-2.77-.64-4.28s.21-2.93,.64-4.28c.43-1.35,1.08-2.54,1.95-3.56,.87-1.03,1.99-1.84,3.34-2.44,1.35-.6,2.93-.9,4.74-.9Zm.09,18.58c.89,0,1.66-.19,2.32-.57,.66-.38,1.2-.9,1.63-1.56,.43-.66,.74-1.42,.94-2.28,.2-.86,.3-1.76,.3-2.71s-.11-1.92-.32-2.83c-.21-.9-.54-1.7-.99-2.39-.44-.69-1-1.24-1.68-1.66-.67-.41-1.49-.62-2.44-.62-.89,0-1.66,.19-2.3,.58-.64,.38-1.17,.9-1.59,1.54s-.72,1.4-.92,2.25c-.2,.86-.3,1.76-.3,2.71s.1,1.92,.3,2.83c.2,.9,.52,1.71,.97,2.42,.44,.71,1,1.27,1.68,1.68,.67,.41,1.47,.62,2.39,.62Z"/>
      <path d="M83.79,297.7c1.66,0,3.08,.31,4.28,.94,1.2,.63,2.19,1.46,2.97,2.51,.78,1.04,1.36,2.25,1.73,3.61,.37,1.36,.55,2.78,.55,4.25s-.19,2.93-.58,4.28c-.38,1.35-.97,2.53-1.77,3.54-.8,1.01-1.79,1.81-2.99,2.39-1.2,.58-2.62,.87-4.28,.87-1.38,0-2.66-.2-3.84-.6-1.18-.4-2.12-1.04-2.83-1.93v13.94h-5.01v-33.12h4.05l.37,2.9h.18c.4-.49,.87-.96,1.43-1.4,.55-.44,1.15-.83,1.79-1.15,.64-.32,1.3-.58,1.98-.76,.67-.18,1.33-.28,1.98-.28Zm-.83,3.86c-.46,0-.97,.07-1.52,.21-.55,.14-1.1,.34-1.63,.6-.54,.26-1.05,.58-1.54,.94-.49,.37-.91,.78-1.24,1.24v8.97c.92,1.13,1.86,1.85,2.83,2.14,.97,.29,1.85,.44,2.65,.44,1.01,0,1.88-.18,2.6-.55,.72-.37,1.32-.87,1.79-1.5,.48-.63,.83-1.36,1.06-2.21,.23-.84,.35-1.75,.35-2.74,0-.92-.1-1.83-.3-2.74-.2-.9-.52-1.71-.97-2.42-.44-.71-1-1.28-1.68-1.72-.68-.44-1.47-.67-2.39-.67Z"/>
      <path d="M115.89,314.95h12.65v4.6h-17.94v-30.36h5.29v25.76Z"/>
      <path d="M141.7,297.7c1.87,0,3.48,.31,4.83,.94,1.35,.63,2.46,1.47,3.33,2.53s1.52,2.27,1.93,3.63c.41,1.37,.62,2.8,.62,4.3s-.21,2.92-.62,4.25-1.06,2.5-1.93,3.5c-.87,1-1.98,1.79-3.31,2.37-1.33,.58-2.91,.87-4.71,.87s-3.48-.31-4.83-.92c-1.35-.61-2.47-1.43-3.36-2.46-.89-1.03-1.55-2.21-1.98-3.56-.43-1.35-.64-2.77-.64-4.28s.21-2.93,.64-4.28c.43-1.35,1.08-2.54,1.95-3.56,.87-1.03,1.99-1.84,3.34-2.44,1.35-.6,2.93-.9,4.74-.9Zm.09,18.58c.89,0,1.66-.19,2.32-.57,.66-.38,1.2-.9,1.63-1.56,.43-.66,.74-1.42,.94-2.28,.2-.86,.3-1.76,.3-2.71s-.11-1.92-.32-2.83c-.21-.9-.54-1.7-.99-2.39-.44-.69-1-1.24-1.68-1.66-.67-.41-1.49-.62-2.44-.62-.89,0-1.66,.19-2.3,.58-.64,.38-1.17,.9-1.59,1.54s-.72,1.4-.92,2.25c-.2,.86-.3,1.76-.3,2.71s.1,1.92,.3,2.83c.2,.9,.52,1.71,.97,2.42,.44,.71,1,1.27,1.68,1.68,.67,.41,1.47,.62,2.39,.62Z"/>
      <path d="M163.96,301.47c-1.01,0-1.8,.19-2.37,.58-.57,.38-.85,.93-.85,1.63,0,.46,.16,.88,.48,1.27,.32,.38,1,.7,2.05,.94l3.27,.74c1.29,.28,2.32,.67,3.1,1.2,.78,.52,1.4,1.09,1.84,1.7,.44,.61,.74,1.24,.9,1.89,.15,.64,.23,1.24,.23,1.79,0,.98-.2,1.89-.6,2.74-.4,.84-.97,1.57-1.7,2.19-.74,.61-1.63,1.1-2.67,1.45-1.04,.35-2.21,.53-3.5,.53-1.63,0-3.13-.24-4.51-.71s-2.48-1-3.31-1.59l1.2-4.37c1.04,1.01,2.22,1.76,3.52,2.25,1.3,.49,2.51,.74,3.61,.74,1.17,0,2.05-.25,2.67-.76,.61-.51,.92-1.2,.92-2.09,0-.52-.15-.96-.46-1.31-.31-.35-.92-.65-1.84-.9l-4.42-1.1c-1.04-.25-1.89-.6-2.55-1.06-.66-.46-1.18-.97-1.56-1.54-.38-.57-.64-1.16-.78-1.77-.14-.61-.21-1.2-.21-1.75,0-2.05,.72-3.64,2.16-4.76,1.44-1.12,3.31-1.68,5.61-1.68,1.2,0,2.48,.16,3.86,.48,1.38,.32,2.54,.79,3.5,1.4l-1.33,4.14c-.61-.49-1.47-.99-2.58-1.49-1.1-.51-2.33-.76-3.68-.76Z"/>
      <path d="M183.88,301.47c-1.01,0-1.8,.19-2.37,.58-.57,.38-.85,.93-.85,1.63,0,.46,.16,.88,.48,1.27,.32,.38,1,.7,2.05,.94l3.27,.74c1.29,.28,2.32,.67,3.1,1.2,.78,.52,1.4,1.09,1.84,1.7,.44,.61,.74,1.24,.9,1.89,.15,.64,.23,1.24,.23,1.79,0,.98-.2,1.89-.6,2.74-.4,.84-.97,1.57-1.7,2.19-.74,.61-1.63,1.1-2.67,1.45-1.04,.35-2.21,.53-3.5,.53-1.63,0-3.13-.24-4.51-.71s-2.48-1-3.31-1.59l1.2-4.37c1.04,1.01,2.22,1.76,3.52,2.25,1.3,.49,2.51,.74,3.61,.74,1.17,0,2.05-.25,2.67-.76,.61-.51,.92-1.2,.92-2.09,0-.52-.15-.96-.46-1.31-.31-.35-.92-.65-1.84-.9l-4.42-1.1c-1.04-.25-1.89-.6-2.55-1.06-.66-.46-1.18-.97-1.56-1.54-.38-.57-.64-1.16-.78-1.77-.14-.61-.21-1.2-.21-1.75,0-2.05,.72-3.64,2.16-4.76,1.44-1.12,3.31-1.68,5.61-1.68,1.2,0,2.48,.16,3.86,.48,1.38,.32,2.54,.79,3.5,1.4l-1.33,4.14c-.61-.49-1.47-.99-2.58-1.49-1.1-.51-2.33-.76-3.68-.76Z"/>
      <path d="M214.79,319.55h-5.29v-30.36h5.29v13.25c1.75-1.66,3.31-3.27,4.69-4.83,1.29-1.47,2.45-2.91,3.5-4.3,1.04-1.4,1.95-2.77,2.71-4.12h5.8c-1.35,1.84-2.64,3.53-3.86,5.06-1.23,1.53-2.58,3.13-4.05,4.78-.55,.61-1.12,1.24-1.7,1.89-.58,.64-1.18,1.29-1.79,1.93l13.57,16.7h-6.12l-10.81-13.29-1.93,1.79v11.5Z"/>
      <path d="M241.06,298.39v13.75c0,1.26,.33,2.22,.99,2.88,.66,.66,1.51,.99,2.55,.99s2.05-.36,2.94-1.08c.89-.72,1.55-1.76,1.98-3.1v-13.43h5.11v21.16h-3.96l-.28-2.94h-.18c-.34,.71-.77,1.28-1.29,1.72-.52,.45-1.1,.8-1.72,1.06-.63,.26-1.28,.44-1.96,.55-.67,.11-1.33,.16-1.98,.16-1.01,0-1.96-.12-2.83-.37s-1.64-.65-2.3-1.22c-.66-.57-1.18-1.32-1.56-2.25-.38-.94-.58-2.09-.58-3.47v-14.4h5.06Z"/>
      <path d="M273.07,302.99c-.31-.25-.78-.44-1.43-.6-.64-.15-1.2-.23-1.66-.23-.61,0-1.12,.15-1.52,.44-.4,.29-.75,.68-1.06,1.15-.31,.48-.57,1.02-.78,1.63-.21,.61-.41,1.24-.6,1.89v12.28h-5.06v-21.16h3.96l.23,4.42h.18c.31-.64,.63-1.27,.97-1.89,.34-.61,.72-1.16,1.15-1.63,.43-.48,.93-.86,1.5-1.15,.57-.29,1.23-.44,2-.44,1.23,0,2.38,.4,3.45,1.2l-1.33,4.09Z"/>
      <path d="M284.62,301.47c-1.01,0-1.8,.19-2.37,.58-.57,.38-.85,.93-.85,1.63,0,.46,.16,.88,.48,1.27,.32,.38,1,.7,2.05,.94l3.27,.74c1.29,.28,2.32,.67,3.1,1.2,.78,.52,1.4,1.09,1.84,1.7,.44,.61,.74,1.24,.9,1.89,.15,.64,.23,1.24,.23,1.79,0,.98-.2,1.89-.6,2.74-.4,.84-.97,1.57-1.7,2.19-.74,.61-1.63,1.1-2.67,1.45-1.04,.35-2.21,.53-3.5,.53-1.63,0-3.13-.24-4.51-.71s-2.48-1-3.31-1.59l1.2-4.37c1.04,1.01,2.22,1.76,3.52,2.25,1.3,.49,2.51,.74,3.61,.74,1.17,0,2.05-.25,2.67-.76,.61-.51,.92-1.2,.92-2.09,0-.52-.15-.96-.46-1.31-.31-.35-.92-.65-1.84-.9l-4.42-1.1c-1.04-.25-1.89-.6-2.55-1.06-.66-.46-1.18-.97-1.56-1.54-.38-.57-.64-1.16-.78-1.77-.14-.61-.21-1.2-.21-1.75,0-2.05,.72-3.64,2.16-4.76,1.44-1.12,3.31-1.68,5.61-1.68,1.2,0,2.48,.16,3.86,.48,1.38,.32,2.54,.79,3.5,1.4l-1.33,4.14c-.61-.49-1.47-.99-2.58-1.49-1.1-.51-2.33-.76-3.68-.76Z"/>
    </g>
    <rect class="cls-5" x="19.02" y="785.21" width="10" height="75.3"/>
    <rect class="cls-7" x="54.17" y="748.08" width="10" height="32.43"/>
    <g>
      <path class="cls-6" d="M1411.85,314.15h-2.7v-18.94l-3.46,1.66-.79-2.52,6.95-3.96v23.76Z"/>
      <path class="cls-6" d="M1418.29,314.15c-.02-.22-.04-.45-.04-.7v-.7c0-1.51,.32-3.17,.95-4.97,.64-1.8,1.45-3.61,2.43-5.42,.98-1.81,2.08-3.55,3.29-5.22,1.21-1.67,2.38-3.14,3.51-4.41h-11.59v-2.52h14.58v2.52c-1.2,1.2-2.4,2.66-3.6,4.37-1.2,1.72-2.28,3.51-3.24,5.38s-1.73,3.71-2.32,5.51c-.59,1.8-.88,3.37-.88,4.72v.76c0,.24,.01,.47,.04,.68h-3.13Z"/>
      <path class="cls-6" d="M1443.56,290.21c1.54,0,2.9,.32,4.09,.97,1.19,.65,2.19,1.53,3.01,2.65,.82,1.12,1.43,2.41,1.85,3.87,.42,1.46,.63,3,.63,4.61s-.22,3.11-.65,4.59-1.06,2.78-1.89,3.92c-.83,1.14-1.85,2.05-3.08,2.74-1.22,.68-2.63,1.03-4.21,1.03s-2.92-.32-4.09-.97c-1.17-.65-2.13-1.52-2.9-2.63-.77-1.1-1.35-2.38-1.75-3.83-.4-1.45-.59-2.98-.59-4.59,0-1.7,.22-3.31,.65-4.81,.43-1.5,1.06-2.81,1.87-3.92,.82-1.12,1.82-2,3.01-2.65,1.19-.65,2.54-.97,4.05-.97Zm-.18,22c1.18,0,2.2-.25,3.06-.76,.86-.5,1.57-1.2,2.12-2.09,.55-.89,.96-1.93,1.22-3.11s.4-2.47,.4-3.83c0-1.46-.14-2.8-.41-4-.28-1.2-.7-2.23-1.26-3.1-.56-.86-1.27-1.54-2.11-2.02-.84-.48-1.82-.72-2.95-.72s-2.14,.23-2.97,.7c-.83,.47-1.5,1.13-2.02,1.98-.52,.85-.89,1.87-1.13,3.04-.24,1.18-.36,2.47-.36,3.89,0,3.31,.56,5.81,1.67,7.49,1.12,1.68,2.69,2.52,4.73,2.52Z"/>
    </g>
    <rect class="cls-5" x="36.74" y="746.98" width="10" height="30.52"/>
    <rect class="cls-5" x="71.74" y="736.98" width="10" height="57.52"/>
    <rect class="cls-7" x="90.53" y="764.66" width="10" height="44.85"/>
    <rect class="cls-7" x="108.53" y="799.66" width="10" height="44.85"/>
    <rect class="cls-7" x="234.53" y="637.66" width="10" height="32.43"/>
    <rect class="cls-7" x="252.53" y="655.66" width="10" height="32.43"/>
    <rect class="cls-7" x="270.53" y="627.66" width="10" height="36.85"/>
    <rect class="cls-7" x="288.53" y="646.66" width="10" height="24.85"/>
    <rect class="cls-5" x="126.53" y="753.61" width="10" height="47.9"/>
    <rect class="cls-5" x="145.53" y="734.92" width="10" height="29.59"/>
    <rect class="cls-5" x="163.53" y="699.08" width="10" height="71.43"/>
    <rect class="cls-5" x="181.53" y="657.08" width="10" height="51.43"/>
    <rect class="cls-5" x="199.53" y="647.2" width="10" height="32.31"/>
    <rect class="cls-5" x="216.53" y="648.2" width="10" height="36.31"/>
    <rect class="cls-5" x="324.53" y="643.2" width="10" height="67.31"/>
    <rect class="cls-5" x="306.53" y="585.98" width="10" height="64.52"/>
    <rect class="cls-5" x="359.7" y="614.98" width="10" height="54.52"/>
    <rect class="cls-5" x="378.7" y="606.98" width="10" height="42.52"/>
    <rect class="cls-5" x="449.7" y="617.98" width="10" height="26.52"/>
    <rect class="cls-7" x="342.7" y="648.27" width="10" height="37.23"/>
    <rect class="cls-7" x="396.7" y="599.27" width="10" height="35.23"/>
    <rect class="cls-7" x="414.7" y="604.27" width="10" height="40.23"/>
    <rect class="cls-7" x="432.7" y="615.27" width="10" height="28.23"/>
    <rect class="cls-7" x="468.38" y="641.27" width="10" height="43.23"/>
    <rect class="cls-7" x="486.38" y="652.27" width="10" height="35.23"/>
    <rect class="cls-7" x="522.38" y="609.27" width="10" height="46.23"/>
    <rect class="cls-5" x="504.38" y="635.44" width="10" height="56.07"/>
    <rect class="cls-5" x="540.38" y="616.44" width="10" height="41.07"/>
    <rect class="cls-5" x="557.79" y="554.54" width="10" height="73.96"/>
    <rect class="cls-5" x="576.79" y="492.54" width="10" height="99.96"/>
    <rect class="cls-5" x="594.79" y="453.99" width="10" height="78.52"/>
    <rect class="cls-5" x="630.68" y="440.99" width="10" height="48.52"/>
    <rect class="cls-5" x="647.68" y="435.99" width="10" height="44.52"/>
    <rect class="cls-5" x="684.68" y="450.99" width="10" height="43.52"/>
    <rect class="cls-7" x="611.68" y="376.37" width="10" height="82.14"/>
    <rect class="cls-7" x="666.68" y="463.69" width="10" height="71.82"/>
    <rect class="cls-7" x="755.72" y="389.86" width="10" height="87.65"/>
    <rect class="cls-7" x="719.72" y="304.84" width="10" height="94.67"/>
    <rect class="cls-5" x="701.72" y="380.72" width="10" height="94.79"/>
    <rect class="cls-5" x="738.72" y="401.72" width="10" height="108.79"/>
    <rect class="cls-5" x="774" y="342.19" width="10" height="62.32"/>
    <rect class="cls-5" x="792" y="285.19" width="10" height="53.32"/>
    <rect class="cls-5" x="810" y="218.04" width="10" height="83.47"/>
    <rect class="cls-5" x="846.11" y="162.27" width="10" height="77.24"/>
    <rect class="cls-5" x="900.11" y="164.27" width="10" height="113.24"/>
    <rect class="cls-7" x="827.6" y="206.19" width="10" height="45.31"/>
    <rect class="cls-7" x="881.6" y="191.64" width="10" height="87.65"/>
    <rect class="cls-7" x="863.6" y="124.62" width="10" height="102.89"/>
    <rect class="cls-7" x="918.19" y="140.62" width="10" height="159.89"/>
    <rect class="cls-5" x="936.19" y="255.91" width="10" height="61.6"/>
    <rect class="cls-5" x="954.19" y="288.2" width="10" height="53.31"/>
    <rect class="cls-5" x="972.19" y="260.2" width="10" height="66.31"/>
    <rect class="cls-5" x="989.11" y="219.73" width="10" height="58.78"/>
    <rect class="cls-5" x="1008.11" y="203.73" width="10" height="27.78"/>
    <rect class="cls-5" x="1026.11" y="151.56" width="10" height="52.95"/>
    <rect class="cls-5" x="1062.11" y="147.56" width="10" height="39.95"/>
    <rect class="cls-7" x="1044" y="138.38" width="10" height="43.13"/>
    <rect class="cls-7" x="1080.11" y="148.56" width="10" height="39.95"/>
    <rect class="cls-7" x="1097.77" y="168.56" width="10" height="32.95"/>
    <rect class="cls-7" x="1133.77" y="114.56" width="10" height="58.95"/>
    <rect class="cls-7" x="1152" y="154.31" width="10" height="86.2"/>
    <rect class="cls-5" x="1115.77" y="114.15" width="10" height="79.36"/>
    <rect class="cls-7" x="1169.55" y="227.75" width="10" height="59.76"/>
    <rect class="cls-7" x="1187.55" y="244.97" width="10" height="51.54"/>
    <rect class="cls-7" x="1241.55" y="199.08" width="10" height="39.43"/>
    <rect class="cls-7" x="1259.55" y="208.13" width="10" height="77.37"/>
    <rect class="cls-5" x="1224.55" y="229.17" width="10" height="70.34"/>
    <rect class="cls-5" x="1205.55" y="258.81" width="10" height="70.34"/>
    <rect class="cls-5" x="1277.98" y="250.06" width="10" height="45.45"/>
    <rect class="cls-7" x="1294.98" y="270.54" width="10" height="51.96"/>
    <rect class="cls-7" x="1314" y="293.26" width="10" height="84.25"/>
    <rect class="cls-7" x="1330.98" y="314.26" width="10" height="90.25"/>
    <rect class="cls-7" x="1349.98" y="367.7" width="10" height="67.81"/>
    <rect class="cls-5" x="1367.98" y="432.68" width="10" height="129.83"/>
    <g>
      <path class="cls-6" d="M1412.85,789.15h-2.7v-18.94l-3.46,1.66-.79-2.52,6.95-3.96v23.76Z"/>
      <path class="cls-6" d="M1432.94,781.59h-2.48v7.56h-2.7v-7.56h-10.22v-2.52l10.04-13.68h2.88v13.68h2.48v2.52Zm-5.18-2.52v-9.76l-7.16,9.76h7.16Z"/>
      <path class="cls-6" d="M1437.47,777.74l1.33-12.53h12.2v2.52h-9.94l-.94,7.67c.74-.17,1.52-.31,2.34-.41,.82-.11,1.57-.16,2.27-.16,1.08,0,2.08,.15,3.01,.45,.92,.3,1.72,.74,2.38,1.31,.66,.58,1.18,1.29,1.55,2.14,.37,.85,.56,1.83,.56,2.93s-.18,2.06-.54,3.02c-.36,.96-.91,1.8-1.64,2.52-.73,.72-1.65,1.3-2.75,1.73-1.1,.43-2.4,.65-3.89,.65-1.39,0-2.68-.2-3.87-.59-1.19-.4-2.24-.94-3.15-1.64l.76-2.52c.89,.7,1.82,1.27,2.81,1.71,.98,.44,2.15,.67,3.49,.67,1.82,0,3.25-.45,4.28-1.35,1.03-.9,1.55-2.21,1.55-3.94,0-.67-.09-1.29-.27-1.85-.18-.56-.49-1.04-.94-1.44-.44-.4-1.03-.7-1.75-.92s-1.62-.32-2.7-.32c-.84,0-1.7,.07-2.59,.22-.89,.14-1.73,.37-2.52,.68l-1.04-.54Z"/>
    </g>
    <line class="cls-1" x1="1319.5" y1="405.51" x2="1319.5" y2="606.51"/>
    <circle class="cls-1" cx="1042.44" cy="167.64" r="47.01"/>
    <line class="cls-2" y1="344.45" x2="1390.49" y2="344.45"/>
    <circle class="cls-1" cx="1320.68" cy="358.1" r="47.01"/>
  </g>
</svg>