<?xml version="1.0" encoding="UTF-8"?>
<svg id="Ebene_2" data-name="Ebene 2" xmlns="http://www.w3.org/2000/svg" xmlns:xlink="http://www.w3.org/1999/xlink" viewBox="0 0 1600 942.47">
  <defs>
    <style>
      .cls-1 {
        stroke-width: .5px;
      }

      .cls-1, .cls-2 {
        stroke: #000;
      }

      .cls-1, .cls-2, .cls-3 {
        stroke-miterlimit: 10;
      }

      .cls-1, .cls-4 {
        fill: #ff6b35;
      }

      .cls-5, .cls-3 {
        fill: #fff;
      }

      .cls-2, .cls-6 {
        fill: none;
      }

      .cls-7 {
        fill: #253c78;
      }

      .cls-8 {
        clip-path: url(#clippath);
      }

      .cls-9 {
        fill: #7792d6;
      }

      .cls-3 {
        stroke: #ff6b35;
        stroke-width: 5px;
      }
    </style>
    <clipPath id="clippath">
      <rect class="cls-6" width="1600" height="942.47"/>
    </clipPath>
  </defs>
  <g id="Ebene_1-2" data-name="Ebene 1">
    <g class="cls-8">
      <g>
        <path class="cls-2" d="M253.59,353.18c.97-12.24,10.87-115.98,95.81-169.57,15.06-9.5,77.32-45.72,148.44-21.06,75.36,26.13,108,102.34,120.42,131.34,18.65,43.55,22.78,85.17,31.04,168.41,3.05,30.72,4.51,56.92,5.26,76.47"/>
        <polygon points="649.43 537.56 654.82 545.95 659.4 537.09 649.43 537.56"/>
      </g>
      <polygon class="cls-9" points="706.33 89.97 547.85 89.97 468.6 227.22 547.85 364.47 706.33 364.47 785.57 227.22 706.33 89.97"/>
      <polygon class="cls-7" points="1466.53 31.47 1249.84 31.47 1141.5 219.13 1249.84 406.78 1466.53 406.78 1574.87 219.13 1466.53 31.47"/>
      <path d="M409.9,864.75c-1.97-32.14-4.07-64.29-5.9-96.43-2.04-37.11-15.18-54.3-51.64-63.8-24.66-6.43-49.74-11.18-74.68-16.56-6.89-1.47-12.29,.07-17.85,5.52-35.62,34.8-80.37,34.59-117.47-.14-3.86-3.63-6.96-6.64-12.86-5.45-26.7,5.66-53.68,10.06-80.09,16.77-29.79,7.62-48.27,25.58-50.02,58.35-2.95,56.6-7.31,113.06-8.57,169.73-.21,8.39,3.3,11.67,10.54,14.05,23.33,7.62,47.35,12.86,71.45,16.7,66.88,10.83,134.12,14.74,201.71,7.13,42.08-4.75,83.82-11.25,124.49-23.55,9.2-2.8,13.28-6.85,12.79-17.47-1.05-21.52-1.9-64.85-1.9-64.85ZM87.39,564.35c1.18,8.75,5.27,16.64,8.8,24.59,2.23,5.05,6.2,8.94,11.83,10.41,2.04,.55,1.92,2.16,2.23,3.51,2.04,10.54,5.14,20.7,10.66,30.13,7.99,13.62,19.02,24.4,31.97,33.28,8.05,5.55,15.86,11.58,24.97,15.28,18.65,7.64,37.23,7.09,54.95-2.83,15.74-8.87,30.79-18.86,42.44-32.97,9.36-11.34,16.6-23.79,17.29-39.07l.56-3.51c.12-2.28,.99-3.45,3.35-4.38,6.57-2.53,10.1-8.01,12.27-14.36,2.42-6.9,5.64-13.5,7.31-20.64v-9.12c-.81-2.9-1.42-5.85-2.42-8.69-1.67-4.74-4.4-8.69-9.05-11.03-1.61-.8-1.61-1.97-1.67-3.45-.43-8.26,1.36-16.33,2.23-24.46,2.54-22.12-1.05-43.26-10.16-63.53-2.29-5.11-5.45-9.86-6.01-15.65-.19-1.79-1.36-2.34-2.91-2.46-4.15-.31-6.07-3.14-7.56-6.47-.43-1.05-.99-2.22-.06-3.02,2.48-2.16,.5-2.46-1.12-2.9-3.22-.8-6.51-.68-9.73-.18-1.67,.25-2.35-.25-2.6-1.85-.5-3.08-1.36-6.1-2.6-9-.62-1.54-1.24-2.03-3.35-1.66-5.89,1.17-11.9,.99-17.53-1.54-3.04-1.36-4.96-3.88-6.13-6.9-2.29-6.16-5.64-10.97-12.95-11.58-1.67-.12-1.61-1.36-1.61-2.65,.06-3.51,0-7.02,0-11.09-3.35,1.73-5.7,3.76-8.55,4.74-4.27,1.54-5.58,.62-5.7-3.76,0-4.74,1.49-9.24,3.59-13.56h-2.6c-5.14,1.66-9.97,3.82-12.82,8.69-.93,1.54-1.67,3.2-2.6,5.05-2.35-4.74,.62-8.32,2.42-12.51-8.43,2.65-14.75,7.58-20.01,13.93-3.22,3.94-6.2,8.07-9.29,12.14-1.92,2.53-2.54,2.46-3.84-.37-.31-.68-.5-1.42-.81-2.16-.25-.68,.12-1.54-.62-2.16-2.48,1.17-3.9,3.39-5.08,5.67-2.29,4.44-4.27,9-6.44,13.5-2.48,5.11-4.27,5.61-8.98,2.34-.56-.37-1.05-.8-1.49-1.23-3.72-3.39-3.72-3.45-7.25,.49-5.95,6.72-10.22,14.54-14.19,22.43-2.48,4.93-5.7,9.12-9.73,12.82-3.04,2.77-5.95,5.67-8.98,8.63,1.61,1.23,3.1,.74,4.46,.99,3.35,.62,3.97,1.48,2.73,4.62-2.42,6.04-5.7,11.65-8.74,17.38-.5,.99-.99,1.91-1.61,3.02,1.42,.37,2.29-.74,3.35-.86,.93-.12,1.98-.8,2.79,0,.99,.92-.06,1.79-.37,2.65-2.79,7.58-5.64,15.16-8.49,22.74,.87,.92,1.49,.12,2.11-.06,3.97-1.42,4.03-1.42,3.78,2.59-.81,12.94-1.24,25.94-.12,38.94,.06,.99,.06,1.85-.93,2.53-9.48,7.39-10.84,17.69-9.36,28.59h0Zm11.77-18.67c1.61,5.18,2.42,9.67,3.22,14.23,.56,2.96,5.51,5.79,8.43,4.81,1.18-.43,.68-1.48,.68-2.22-.19-3.7-.31-7.33-.68-11.03-1.8-17.5,1.73-34.45,5.51-51.33,2.66-12.02,4.96-24.16,8.86-35.86,1.24-3.7,2.85-7.27,4.4-10.78,3.84-8.5,10.78-12.08,19.7-12.51,8.67-.43,17.29,.62,25.53,2.77,11.15,2.96,21.87,2.1,32.71-1.17,8.8-2.59,17.78-3.7,27.01-3.88,10.16-.18,17.41,4.5,23.23,12.14,6.51,8.57,10.22,18.49,13.94,28.41,2.91,7.83,5.76,15.65,9.79,22.92,.56,1.05,1.05,2.22,1.86,3.02,6.13,6.16,6.57,14.11,7,22,.5,10.17,.62,20.33,.37,30.5-.06,1.54-.81,3.7,2.23,3.57,2.42-.12,4.96,.62,5.2-3.27,.31-4.81,1.18-9.61,1.86-14.91,3.16,1.48,4.34,3.76,5.2,6.22,2.35,6.84,2.29,13.68-.5,20.27-1.8,4.25-3.53,8.57-5.14,12.94-1.05,2.71-2.54,5.24-5.08,6.96-1.18,.8-2.6,1.79-3.9,1.36-4.27-1.36-4.71,1.48-5.14,4.31-.87,5.11-1.49,10.29-2.29,15.41-1.61,9.74-6.2,18.24-12.21,25.88-13.26,16.88-30.23,29.64-49.87,37.71-15.8,6.47-32.53,5.18-47.46-4.68-9.97-6.59-20.07-13-28.87-21.14-14.37-13.19-22.86-29.45-26.02-48.56-.19-1.29-.43-2.53-.74-3.82-.74-3.02-.81-6.1-5.82-5.18-3.41,.68-6.2-2.22-7.5-5.3-3.1-7.46-7-14.67-8.49-22.68-1.12-5.67-.06-11.15,2.97-17.13h0Zm123.72,1.54c1.73,.92,2.48-.68,3.22-1.85,2.11-3.33,5.14-5.24,9.23-6.22-2.48,5.92-1.92,9.06,1.86,11.83,3.22,2.4,6.69,2.34,9.85-.18,3.41-2.65,4.03-6.35,1.61-11.65,4.52,1.48,7.99,3.39,9.6,7.64,.5,1.29,1.12,2.9,2.91,2.1,1.8-.74,1.12-2.28,.68-3.64-.81-2.46-2.42-4.31-4.34-5.92-7.19-5.79-19.45-6.78-28-2.16-2.73,1.48-5.08,3.39-6.63,6.1-.87,1.29-1.86,2.9,0,3.94Zm-48.2-9.18c-5.95-3.64-12.45-4.5-19.14-3.27s-12.33,4.19-14.87,11.09c-.5,1.23-.56,2.4,.81,3.02,1.49,.68,2.23-.37,2.6-1.54,1.73-4.74,5.58-6.9,10.53-8.44-2.29,5.67-1.92,8.87,1.18,11.58,2.66,2.34,6.2,2.9,9.05,1.23,4.89-2.83,5.76-7.09,3.28-12.51,4.15,1.42,7,3.33,8.86,6.66,.56,1.11,1.49,2.1,2.85,1.36,1.3-.74,1.05-1.97,.5-3.14-1.24-2.53-3.16-4.56-5.64-6.04h0Zm-34.57-13c3.04-1.11,6.2-1.85,9.48-2.28,7.25-.92,13.94,.86,20.57,3.7,4.09,1.73,7.99,.99,9.05-1.48,1.05-2.53-.62-4.56-5.7-6.53-7.19-2.83-14.62-4.01-22.3-3.27-6.2,.55-11.77,3.02-16.42,7.15-2.73,2.4-4.15,5.42-3.04,10.23,2.04-4.19,4.89-6.29,8.36-7.52Zm86.18,2.28c1.42,.25,2.79,.06,4.15-.49,1.98-.8,4.03-1.6,6.07-2.34,12.02-4.38,25.96-1.42,33.33,7.27,.87-4.25,.12-6.84-3.1-9.55-5.45-4.62-11.83-7.09-19.08-7.21-8.05-.12-15.74,1.29-22.92,5.05-1.8,.92-2.85,2.4-2.42,4.5,.43,1.97,2.23,2.46,3.97,2.77Zm-39.22,64.09c5.45,3.7,11.34,4.56,17.29,1.85,5.89-2.65,9.11-7.46,9.6-13.93,.12-1.66-.43-3.2-.93-4.74-.56-1.73-1.36-3.51-3.59-2.83-2.29,.68-1.92,2.46-1.24,4.25,1.61,4.19,.19,7.64-2.85,10.54-4.46,4.25-10.66,4.25-15.92,0-1.36-1.11-2.6-1.66-3.97-.25-1.24,1.29-.74,2.59,.31,3.7,.5,.43,.81,1.05,1.3,1.42h0Zm-.61,33.7c6.75,13.58,23.3,14.64,29.74,2.31-9.97,1.77-19.7,2.57-29.74-2.31h0Z"/>
      <g>
        <path class="cls-5" d="M612.3,190.62h-8.4v8.4h12.05v4.2h-16.88v-27.72h16.04v4.2h-11.21v6.72h8.4v4.2Z"/>
        <path class="cls-5" d="M639.34,179.7h-8.02v23.52h-4.83v-23.52h-8.02v-4.2h20.87v4.2Z"/>
        <path class="cls-5" d="M656.69,190.62h-7.94v12.6h-4.83v-27.72h15.83v4.2h-11v6.72h7.94v4.2Z"/>
        <path class="cls-5" d="M576.83,253.62h-5.25l-3.15-8.06h-10.46l-2.86,8.06h-5.04l10.75-27.72h4.16l11.84,27.72Zm-17.51-11.84h7.6l-3.99-10.21-3.61,10.21Z"/>
        <path class="cls-5" d="M592.2,253.62v-12.77c0-2.3-.98-3.44-2.94-3.44-.48,0-.99,.08-1.53,.25s-1.07,.41-1.58,.74c-.5,.32-.96,.72-1.37,1.2-.41,.48-.71,1.02-.9,1.64v12.39h-4.62v-19.32h3.61l.21,2.86h.17c.59-1.18,1.5-2.05,2.75-2.62,1.25-.57,2.58-.86,4.01-.86,.92,0,1.79,.12,2.6,.36,.81,.24,1.53,.62,2.16,1.16s1.13,1.23,1.49,2.1c.36,.87,.55,1.93,.55,3.19v13.15h-4.62Z"/>
        <path class="cls-5" d="M612.86,254.12c-1.51,0-2.77-.31-3.76-.92-.99-.62-1.88-1.36-2.67-2.23h-.17l-.34,2.65h-3.7v-31.08h4.58v13.69c.64-.81,1.5-1.44,2.56-1.89,1.06-.45,2.27-.67,3.61-.67,1.46,0,2.73,.28,3.82,.84,1.09,.56,2,1.3,2.73,2.23,.73,.92,1.27,2,1.62,3.21,.35,1.22,.52,2.49,.52,3.8,0,1.48-.21,2.86-.63,4.12s-1.01,2.35-1.79,3.28-1.7,1.65-2.79,2.18c-1.09,.53-2.3,.8-3.61,.8Zm-.59-3.49c.81,0,1.52-.2,2.12-.59,.6-.39,1.11-.9,1.51-1.53,.41-.63,.71-1.36,.9-2.18,.2-.83,.29-1.66,.29-2.5s-.1-1.7-.31-2.5c-.21-.8-.53-1.5-.97-2.12-.43-.62-.98-1.1-1.64-1.45-.66-.35-1.42-.53-2.29-.53-.81,0-1.65,.19-2.52,.57-.87,.38-1.72,1.08-2.56,2.12v8.06c.31,.42,.69,.79,1.13,1.11,.45,.32,.92,.59,1.41,.82,.49,.22,.99,.4,1.49,.52s.98,.19,1.43,.19Z"/>
        <path class="cls-5" d="M625.67,228.08c0-.39,.08-.77,.23-1.13,.15-.36,.37-.69,.65-.99,.28-.29,.59-.52,.94-.69,.35-.17,.74-.25,1.16-.25,.39,0,.77,.08,1.13,.25,.36,.17,.69,.4,.99,.69,.29,.29,.52,.62,.69,.99,.17,.36,.25,.74,.25,1.13,0,.42-.08,.81-.25,1.16-.17,.35-.4,.67-.69,.95-.29,.28-.62,.5-.99,.65-.36,.15-.74,.23-1.13,.23-.81,0-1.51-.29-2.1-.88-.59-.59-.88-1.29-.88-2.1Zm5.29,25.54h-4.62v-19.32h4.62v19.32Z"/>
        <path class="cls-5" d="M645.54,233.67c2.46,0,4.37,.62,5.71,1.87,1.34,1.25,2.02,3,2.02,5.27,0,.31-.02,.64-.06,.99-.04,.35-.1,.69-.17,1.03-.07,.34-.15,.64-.25,.9-.1,.27-.2,.48-.31,.65h-12.22c.06,.84,.21,1.63,.46,2.37,.25,.74,.62,1.39,1.09,1.93,.48,.55,1.06,.98,1.74,1.3,.69,.32,1.49,.48,2.42,.48,1.04,0,2.13-.2,3.3-.59,1.16-.39,2.15-.88,2.96-1.47l.76,3.44c-.36,.22-.81,.47-1.34,.74-.53,.27-1.13,.51-1.81,.73-.67,.22-1.39,.41-2.16,.57-.77,.15-1.58,.23-2.42,.23-1.57,0-2.95-.27-4.16-.82s-2.21-1.29-3.02-2.23c-.81-.94-1.43-2.02-1.85-3.25-.42-1.23-.63-2.52-.63-3.86s.22-2.68,.65-3.93c.43-1.25,1.07-2.34,1.91-3.3,.84-.95,1.88-1.7,3.13-2.25,1.25-.55,2.67-.82,4.26-.82Zm-.13,3.61c-1.18,0-2.18,.34-3,1.03-.83,.69-1.42,1.62-1.79,2.79h8.02c.03-.08,.05-.18,.06-.29,.01-.11,.02-.25,.02-.42,0-.9-.31-1.64-.92-2.23-.62-.59-1.42-.88-2.39-.88Z"/>
        <path class="cls-5" d="M658.85,237.11h-2.39v-2.52l2.73-.42,.76-5.71h3.53v5.84h3.7v2.81h-3.7v11.09c0,.84,.08,1.41,.25,1.7s.49,.44,.97,.44c.36,0,.73-.07,1.09-.21,.36-.14,.9-.41,1.6-.8l.76,3.32c-.53,.45-1.28,.81-2.25,1.07-.97,.27-1.93,.4-2.88,.4-.84,0-1.53-.11-2.08-.34s-.97-.55-1.28-.99c-.31-.43-.52-.96-.63-1.58-.11-.62-.17-1.3-.17-2.06v-12.05Z"/>
        <path class="cls-5" d="M680.69,233.67c2.46,0,4.37,.62,5.71,1.87,1.34,1.25,2.02,3,2.02,5.27,0,.31-.02,.64-.06,.99-.04,.35-.1,.69-.17,1.03-.07,.34-.15,.64-.25,.9-.1,.27-.2,.48-.31,.65h-12.22c.06,.84,.21,1.63,.46,2.37,.25,.74,.62,1.39,1.09,1.93,.48,.55,1.06,.98,1.74,1.3,.69,.32,1.49,.48,2.42,.48,1.04,0,2.13-.2,3.3-.59,1.16-.39,2.15-.88,2.96-1.47l.76,3.44c-.36,.22-.81,.47-1.34,.74-.53,.27-1.13,.51-1.81,.73-.67,.22-1.39,.41-2.16,.57-.77,.15-1.58,.23-2.42,.23-1.57,0-2.95-.27-4.16-.82s-2.21-1.29-3.02-2.23c-.81-.94-1.43-2.02-1.85-3.25-.42-1.23-.63-2.52-.63-3.86s.22-2.68,.65-3.93c.43-1.25,1.07-2.34,1.91-3.3,.84-.95,1.88-1.7,3.13-2.25,1.25-.55,2.67-.82,4.26-.82Zm-.13,3.61c-1.18,0-2.18,.34-3,1.03-.83,.69-1.42,1.62-1.79,2.79h8.02c.03-.08,.05-.18,.06-.29,.01-.11,.02-.25,.02-.42,0-.9-.31-1.64-.92-2.23-.62-.59-1.42-.88-2.39-.88Z"/>
        <path class="cls-5" d="M704.17,238.5c-.28-.22-.71-.41-1.3-.55-.59-.14-1.09-.21-1.51-.21-.56,0-1.02,.13-1.39,.4-.36,.27-.69,.62-.97,1.05-.28,.43-.52,.93-.71,1.49-.2,.56-.38,1.13-.55,1.72v11.21h-4.62v-19.32h3.61l.21,4.03h.17c.28-.59,.57-1.16,.88-1.72,.31-.56,.66-1.06,1.05-1.49,.39-.43,.85-.78,1.36-1.05,.52-.27,1.13-.4,1.83-.4,1.12,0,2.17,.36,3.15,1.09l-1.22,3.74Z"/>
      </g>
      <circle class="cls-1" cx="653" cy="748.97" r="189.5"/>
      <g>
        <path class="cls-5" d="M636.85,685.39h-2.38l-2.72-6.22h-8.26l-2.46,6.22h-2.24l7.39-18.48h2.55l8.12,18.48Zm-12.57-8.18h6.61l-3.47-7.95-3.14,7.95Z"/>
        <path class="cls-5" d="M644.07,677.05l5.49,8.34h-2.24l-4.62-7-1.93,1.93v5.07h-1.96v-20.72h1.96v13.27l5.66-5.43h2.24l-4.59,4.54Z"/>
        <path class="cls-5" d="M652.67,673.83h-2.16v-1.04l2.21-.28,.42-3.89h1.48v3.89h3.02v1.32h-3.02v8.93c0,.6,.09,.99,.27,1.18,.18,.19,.45,.28,.83,.28,.43,0,.81-.07,1.15-.2s.63-.29,.9-.48l.39,1.48c-.32,.15-.73,.3-1.25,.45-.51,.15-1.08,.22-1.69,.22s-1.06-.08-1.4-.25-.59-.39-.76-.67c-.17-.28-.28-.59-.32-.94s-.07-.69-.07-1.02v-8.99Z"/>
        <path class="cls-5" d="M660.42,667.81c0-.37,.13-.71,.41-1.01,.27-.3,.6-.45,.99-.45s.71,.15,1.01,.45c.3,.3,.45,.63,.45,1.01,0,.39-.15,.72-.45,.99s-.63,.41-1.01,.41c-.39,0-.72-.13-.99-.41-.27-.27-.41-.6-.41-.99Zm2.38,17.58h-1.96v-12.88h1.96v12.88Z"/>
        <path class="cls-5" d="M672.94,672.09c1.64,0,2.91,.42,3.81,1.25,.9,.83,1.34,2,1.34,3.51,0,.32-.02,.64-.06,.97-.04,.33-.1,.57-.2,.71h-9.44v.28c0,.71,.09,1.39,.28,2.04,.19,.65,.47,1.23,.84,1.74,.37,.5,.84,.91,1.41,1.2,.57,.3,1.25,.45,2.03,.45,.45,0,.89-.05,1.32-.15s.84-.23,1.23-.39c.39-.16,.76-.33,1.09-.52s.63-.37,.9-.56l.34,1.6c-.24,.15-.54,.31-.9,.49-.35,.18-.75,.34-1.18,.49-.43,.15-.9,.28-1.41,.38-.51,.1-1.05,.15-1.61,.15-1.05,0-1.97-.18-2.77-.55-.8-.36-1.48-.86-2.02-1.48-.54-.62-.95-1.35-1.23-2.17-.28-.82-.42-1.68-.42-2.58s.14-1.79,.43-2.62c.29-.83,.71-1.56,1.27-2.2,.56-.63,1.25-1.13,2.09-1.5,.83-.36,1.78-.55,2.84-.55Zm-.08,1.57c-1.23,0-2.19,.32-2.87,.96-.68,.64-1.14,1.45-1.39,2.42h7.64c.02-.09,.03-.18,.03-.25v-.25c0-.47-.09-.88-.28-1.25-.19-.36-.44-.67-.76-.91s-.68-.42-1.09-.55c-.41-.12-.84-.18-1.29-.18Z"/>
        <path class="cls-5" d="M690.69,685.39v-8.51c0-1.12-.25-1.92-.76-2.41s-1.15-.73-1.93-.73c-.47,0-.93,.07-1.39,.22-.46,.15-.88,.37-1.27,.66-.39,.29-.74,.64-1.04,1.06s-.53,.9-.7,1.44v8.26h-1.96v-12.88h1.54l.22,2.41h.11c.24-.78,.78-1.45,1.62-2,.84-.55,1.89-.83,3.14-.83,.6,0,1.16,.08,1.69,.24,.53,.16,.99,.42,1.39,.77,.39,.36,.7,.82,.94,1.4s.35,1.29,.35,2.13v8.76h-1.96Z"/>
      </g>
      <g>
        <path class="cls-5" d="M624.79,886.74h-2.38l-2.72-6.22h-8.26l-2.46,6.22h-2.24l7.39-18.48h2.55l8.12,18.48Zm-12.57-8.18h6.61l-3.47-7.95-3.14,7.95Z"/>
        <path class="cls-5" d="M635.79,886.74v-8.51c0-1.12-.25-1.92-.76-2.41-.5-.49-1.15-.73-1.93-.73-.47,0-.93,.07-1.39,.22s-.88,.37-1.27,.66c-.39,.29-.74,.64-1.04,1.06-.3,.42-.53,.9-.7,1.44v8.26h-1.96v-12.88h1.54l.22,2.41h.11c.24-.78,.78-1.45,1.62-2s1.89-.83,3.14-.83c.6,0,1.16,.08,1.69,.24,.53,.16,.99,.42,1.39,.77,.39,.36,.7,.82,.94,1.4s.35,1.29,.35,2.13v8.76h-1.96Z"/>
        <path class="cls-5" d="M644.14,886.74h-1.96v-20.72h1.96v20.72Z"/>
        <path class="cls-5" d="M654.44,873.44c1.64,0,2.91,.42,3.81,1.25,.9,.83,1.34,2,1.34,3.51,0,.32-.02,.64-.06,.97-.04,.33-.1,.57-.2,.71h-9.44v.28c0,.71,.09,1.39,.28,2.04,.19,.65,.47,1.23,.84,1.74,.37,.5,.84,.91,1.41,1.2,.57,.3,1.25,.45,2.03,.45,.45,0,.89-.05,1.32-.15s.84-.23,1.23-.39c.39-.16,.76-.33,1.09-.52s.63-.37,.9-.56l.34,1.6c-.24,.15-.54,.31-.9,.49-.35,.18-.75,.34-1.18,.49-.43,.15-.9,.28-1.41,.38-.51,.1-1.05,.15-1.61,.15-1.05,0-1.97-.18-2.77-.55-.8-.36-1.48-.86-2.02-1.48-.54-.62-.95-1.35-1.23-2.17-.28-.82-.42-1.68-.42-2.58s.14-1.79,.43-2.62c.29-.83,.71-1.56,1.27-2.2,.56-.63,1.25-1.13,2.09-1.5,.83-.36,1.78-.55,2.84-.55Zm-.08,1.57c-1.23,0-2.19,.32-2.87,.96-.68,.64-1.14,1.45-1.39,2.42h7.64c.02-.09,.03-.18,.03-.25v-.25c0-.47-.09-.88-.28-1.25-.19-.36-.44-.67-.76-.91s-.68-.42-1.09-.55c-.41-.12-.84-.18-1.29-.18Z"/>
        <path class="cls-5" d="M662.73,869.16c0-.37,.14-.71,.41-1.01,.27-.3,.6-.45,.99-.45s.71,.15,1.01,.45c.3,.3,.45,.63,.45,1.01,0,.39-.15,.72-.45,.99s-.63,.41-1.01,.41c-.39,0-.72-.13-.99-.41s-.41-.6-.41-.99Zm2.38,17.58h-1.96v-12.88h1.96v12.88Z"/>
        <path class="cls-5" d="M678.52,886.74v-8.51c0-1.14-.25-1.95-.76-2.42-.5-.48-1.15-.71-1.93-.71-.47,0-.93,.07-1.39,.22-.46,.15-.88,.37-1.27,.66-.39,.29-.74,.64-1.04,1.06s-.53,.9-.7,1.44v8.26h-1.96v-20.72h1.96v10.25c.24-.78,.77-1.45,1.58-2,.81-.55,1.84-.83,3.09-.83,.6,0,1.16,.08,1.69,.24,.53,.16,.99,.42,1.39,.77,.39,.36,.7,.82,.94,1.4s.35,1.29,.35,2.13v8.76h-1.96Z"/>
        <path class="cls-5" d="M690.5,873.44c1.64,0,2.91,.42,3.81,1.25,.9,.83,1.34,2,1.34,3.51,0,.32-.02,.64-.06,.97-.04,.33-.1,.57-.2,.71h-9.44v.28c0,.71,.09,1.39,.28,2.04,.19,.65,.47,1.23,.84,1.74,.37,.5,.84,.91,1.41,1.2,.57,.3,1.25,.45,2.03,.45,.45,0,.89-.05,1.32-.15s.84-.23,1.23-.39c.39-.16,.76-.33,1.09-.52s.63-.37,.9-.56l.34,1.6c-.24,.15-.54,.31-.9,.49-.35,.18-.75,.34-1.18,.49-.43,.15-.9,.28-1.41,.38-.51,.1-1.05,.15-1.61,.15-1.05,0-1.97-.18-2.77-.55-.8-.36-1.48-.86-2.02-1.48-.54-.62-.95-1.35-1.23-2.17-.28-.82-.42-1.68-.42-2.58s.14-1.79,.43-2.62c.29-.83,.71-1.56,1.27-2.2,.56-.63,1.25-1.13,2.09-1.5,.83-.36,1.78-.55,2.84-.55Zm-.08,1.57c-1.23,0-2.19,.32-2.87,.96-.68,.64-1.14,1.45-1.39,2.42h7.64c.02-.09,.03-.18,.03-.25v-.25c0-.47-.09-.88-.28-1.25-.19-.36-.44-.67-.76-.91s-.68-.42-1.09-.55c-.41-.12-.84-.18-1.29-.18Z"/>
        <path class="cls-5" d="M708.26,886.74v-8.51c0-1.12-.25-1.92-.76-2.41s-1.15-.73-1.93-.73c-.47,0-.93,.07-1.39,.22-.46,.15-.88,.37-1.27,.66-.39,.29-.74,.64-1.04,1.06s-.53,.9-.7,1.44v8.26h-1.96v-12.88h1.54l.22,2.41h.11c.24-.78,.78-1.45,1.62-2,.84-.55,1.89-.83,3.14-.83,.6,0,1.16,.08,1.69,.24,.53,.16,.99,.42,1.39,.77,.39,.36,.7,.82,.94,1.4s.35,1.29,.35,2.13v8.76h-1.96Z"/>
      </g>
      <g>
        <path class="cls-5" d="M628.96,617.07h-5.85v8.82h-2.1v-18.48h10v1.96h-7.9v5.74h5.85v1.96Z"/>
        <path class="cls-5" d="M634.75,613.01v8.51c0,.58,.07,1.06,.21,1.46,.14,.39,.33,.71,.56,.94,.23,.23,.51,.4,.84,.5,.33,.1,.69,.15,1.08,.15,.47,0,.93-.07,1.39-.21,.46-.14,.88-.35,1.27-.63,.39-.28,.74-.62,1.04-1.04,.3-.41,.53-.89,.7-1.43v-8.26h1.96v12.88h-1.54l-.22-2.41h-.11c-.24,.78-.78,1.44-1.62,1.96-.84,.52-1.89,.78-3.14,.78-.6,0-1.16-.07-1.69-.22-.53-.15-.99-.4-1.39-.74-.39-.34-.71-.8-.94-1.37-.23-.57-.35-1.27-.35-2.11v-8.76h1.96Z"/>
        <path class="cls-5" d="M648.75,614.33h-2.16v-1.04l2.21-.28,.42-3.89h1.48v3.89h3.02v1.32h-3.02v8.93c0,.6,.09,.99,.27,1.18,.18,.19,.45,.28,.83,.28,.43,0,.81-.07,1.15-.2,.34-.13,.63-.29,.9-.48l.39,1.48c-.32,.15-.73,.3-1.25,.45s-1.08,.22-1.69,.22-1.06-.08-1.4-.25-.59-.39-.76-.67-.28-.59-.32-.94c-.05-.34-.07-.69-.07-1.02v-8.99Z"/>
        <path class="cls-5" d="M658.75,613.01v8.51c0,.58,.07,1.06,.21,1.46s.33,.71,.56,.94c.23,.23,.51,.4,.84,.5,.33,.1,.69,.15,1.08,.15,.47,0,.93-.07,1.39-.21,.46-.14,.88-.35,1.27-.63,.39-.28,.74-.62,1.04-1.04,.3-.41,.53-.89,.7-1.43v-8.26h1.96v12.88h-1.54l-.22-2.41h-.11c-.24,.78-.78,1.44-1.62,1.96s-1.89,.78-3.14,.78c-.6,0-1.16-.07-1.69-.22-.53-.15-.99-.4-1.39-.74-.39-.34-.71-.8-.94-1.37s-.35-1.27-.35-2.11v-8.76h1.96Z"/>
        <path class="cls-5" d="M679.1,615.08c-.3-.17-.6-.3-.9-.41-.3-.1-.59-.15-.87-.15-.37,0-.73,.1-1.06,.31-.34,.21-.64,.49-.92,.84-.28,.36-.53,.77-.74,1.23s-.38,.95-.49,1.46v7.53h-1.96v-12.88h1.54l.22,2.83h.11c.13-.43,.3-.84,.52-1.23,.21-.39,.48-.74,.78-1.04,.31-.3,.66-.54,1.05-.71,.39-.18,.84-.27,1.34-.27,.35,0,.73,.06,1.12,.18,.39,.12,.67,.28,.84,.46l-.59,1.85Z"/>
        <path class="cls-5" d="M687.64,612.59c1.64,0,2.91,.42,3.81,1.25,.9,.83,1.34,2,1.34,3.51,0,.32-.02,.64-.06,.97-.04,.33-.1,.56-.2,.71h-9.44v.28c0,.71,.09,1.39,.28,2.04,.19,.65,.47,1.23,.84,1.74,.37,.5,.84,.91,1.41,1.2s1.25,.45,2.03,.45c.45,0,.89-.05,1.32-.15s.84-.23,1.23-.39c.39-.16,.76-.33,1.09-.52s.63-.37,.9-.56l.34,1.6c-.24,.15-.54,.31-.9,.49s-.75,.34-1.18,.49c-.43,.15-.9,.27-1.41,.38-.51,.1-1.05,.15-1.61,.15-1.05,0-1.97-.18-2.77-.55-.8-.36-1.48-.86-2.02-1.48-.54-.63-.95-1.35-1.23-2.17-.28-.82-.42-1.68-.42-2.58s.14-1.79,.43-2.62c.29-.83,.71-1.56,1.27-2.2,.56-.63,1.25-1.13,2.09-1.5,.83-.36,1.78-.55,2.84-.55Zm-.08,1.57c-1.23,0-2.19,.32-2.87,.97-.68,.64-1.14,1.45-1.39,2.42h7.64c.02-.09,.03-.18,.03-.25v-.25c0-.47-.09-.88-.28-1.25-.19-.36-.44-.67-.76-.91s-.68-.42-1.09-.55c-.41-.12-.84-.18-1.29-.18Z"/>
        <path class="cls-5" d="M700.13,614.16c-.9,0-1.54,.16-1.95,.49-.4,.33-.6,.77-.6,1.33,0,.19,.03,.38,.08,.59,.06,.21,.16,.4,.32,.57,.16,.18,.37,.35,.64,.5s.63,.29,1.08,.38l1.99,.45c.78,.17,1.41,.4,1.89,.69,.48,.29,.84,.6,1.11,.94,.26,.34,.43,.68,.52,1.02s.13,.67,.13,.96c0,.58-.12,1.12-.35,1.62-.23,.5-.57,.94-1.01,1.32-.44,.37-.98,.67-1.61,.88-.63,.21-1.34,.32-2.13,.32-.99,0-1.9-.14-2.74-.43s-1.51-.61-2.02-.97l.5-1.82c.67,.62,1.42,1.06,2.24,1.34s1.56,.42,2.21,.42c.93,0,1.64-.23,2.13-.69,.48-.46,.73-.94,.73-1.44,0-.17,0-.36-.03-.57-.02-.21-.09-.43-.22-.66-.13-.22-.33-.43-.59-.63-.26-.2-.63-.35-1.12-.46l-2.69-.67c-.62-.15-1.12-.35-1.51-.59-.39-.24-.7-.51-.92-.8-.22-.29-.38-.6-.48-.92-.09-.33-.14-.66-.14-.99,0-1.14,.42-2.05,1.27-2.73,.85-.68,1.98-1.02,3.4-1.02,.73,0,1.51,.1,2.35,.29,.84,.2,1.55,.48,2.13,.85l-.53,1.68c-.37-.32-.93-.61-1.67-.87s-1.54-.39-2.42-.39Z"/>
      </g>
      <g>
        <path class="cls-5" d="M610.52,810.27c1.46,0,2.74,.25,3.86,.76,1.12,.5,2.06,1.19,2.83,2.06,.77,.87,1.34,1.87,1.74,3.01,.39,1.14,.59,2.33,.59,3.58s-.19,2.42-.57,3.57c-.38,1.15-.96,2.17-1.74,3.05-.77,.89-1.74,1.6-2.88,2.13-1.15,.53-2.49,.8-4.02,.8s-2.79-.25-3.89-.76c-1.1-.5-2.02-1.19-2.74-2.04s-1.27-1.85-1.64-2.98c-.36-1.13-.55-2.32-.55-3.57,0-1.33,.2-2.57,.6-3.74s.98-2.18,1.75-3.05c.77-.87,1.71-1.55,2.83-2.06,1.12-.5,2.4-.76,3.84-.76Zm-.14,17.11c1.21,0,2.25-.2,3.12-.59,.87-.39,1.58-.93,2.13-1.62,.55-.69,.96-1.5,1.22-2.42,.26-.92,.39-1.92,.39-2.98,0-1.14-.14-2.17-.41-3.11-.27-.93-.68-1.74-1.23-2.41-.55-.67-1.26-1.19-2.11-1.57-.86-.37-1.88-.56-3.05-.56s-2.21,.18-3.05,.54c-.84,.37-1.52,.88-2.04,1.54s-.91,1.45-1.15,2.37c-.24,.92-.36,1.92-.36,3.02,0,2.58,.56,4.52,1.68,5.82,1.12,1.31,2.74,1.96,4.87,1.96Z"/>
        <path class="cls-5" d="M630.01,815.59c.95,0,1.78,.19,2.49,.56,.71,.37,1.3,.87,1.76,1.48,.47,.62,.82,1.33,1.05,2.14,.23,.81,.35,1.67,.35,2.56s-.13,1.82-.38,2.65c-.25,.83-.63,1.56-1.12,2.18-.49,.63-1.12,1.12-1.86,1.5-.75,.37-1.61,.56-2.6,.56-1.25,0-2.28-.27-3.08-.81-.8-.54-1.33-1.21-1.57-2.02v9.77h-1.96v-20.16h1.54l.22,2.41h.11c.22-.34,.5-.68,.83-1.02,.33-.35,.7-.65,1.13-.91,.43-.26,.9-.48,1.41-.64,.51-.17,1.07-.25,1.67-.25Zm-.5,1.65c-.9,0-1.73,.24-2.51,.73s-1.42,1.19-1.95,2.1v4.12c.17,.54,.41,1.02,.73,1.43,.32,.41,.69,.77,1.11,1.06,.42,.3,.87,.52,1.34,.67,.48,.15,.96,.22,1.44,.22,.65,0,1.22-.13,1.71-.39,.48-.26,.89-.62,1.22-1.09s.57-1.01,.74-1.62c.17-.62,.25-1.28,.25-1.99,0-.67-.08-1.33-.24-1.96-.16-.63-.41-1.19-.74-1.68s-.76-.87-1.27-1.16c-.51-.29-1.12-.43-1.83-.43Z"/>
        <path class="cls-5" d="M639.78,817.33h-2.16v-1.04l2.21-.28,.42-3.89h1.48v3.89h3.02v1.32h-3.02v8.93c0,.6,.09,.99,.27,1.18,.18,.19,.45,.28,.83,.28,.43,0,.81-.07,1.15-.2,.34-.13,.63-.29,.9-.48l.39,1.48c-.32,.15-.73,.3-1.25,.45-.51,.15-1.08,.22-1.69,.22s-1.06-.08-1.4-.25-.59-.39-.76-.67-.28-.59-.32-.94c-.05-.34-.07-.69-.07-1.02v-8.99Z"/>
        <path class="cls-5" d="M647.54,811.31c0-.37,.14-.71,.41-1.01s.6-.45,.99-.45,.71,.15,1.01,.45,.45,.63,.45,1.01c0,.39-.15,.72-.45,.99s-.63,.41-1.01,.41c-.39,0-.72-.14-.99-.41s-.41-.6-.41-.99Zm2.38,17.58h-1.96v-12.88h1.96v12.88Z"/>
        <path class="cls-5" d="M659.94,815.59c1.14,0,2.12,.19,2.94,.57,.82,.38,1.5,.9,2.03,1.54,.53,.64,.92,1.38,1.18,2.21,.25,.83,.38,1.7,.38,2.62s-.13,1.78-.38,2.59c-.25,.81-.64,1.52-1.16,2.13-.52,.61-1.19,1.09-2,1.44-.81,.35-1.77,.53-2.87,.53s-2.12-.19-2.95-.56c-.83-.37-1.52-.87-2.06-1.5-.54-.62-.94-1.35-1.2-2.17-.26-.82-.39-1.69-.39-2.6s.13-1.78,.39-2.6c.26-.82,.66-1.54,1.19-2.17s1.21-1.12,2.03-1.48c.82-.36,1.78-.55,2.88-.55Zm.08,12.15c.75,0,1.4-.14,1.95-.42,.55-.28,1.01-.66,1.37-1.13s.63-1.03,.8-1.65,.25-1.28,.25-1.97-.09-1.39-.27-2.04c-.18-.65-.45-1.23-.83-1.72-.37-.49-.84-.89-1.41-1.19-.57-.3-1.25-.45-2.03-.45s-1.42,.14-1.96,.42c-.54,.28-.99,.65-1.34,1.12s-.62,1.01-.78,1.64c-.17,.63-.25,1.28-.25,1.97s.09,1.39,.27,2.04,.45,1.23,.81,1.74c.36,.5,.83,.91,1.4,1.2s1.25,.45,2.03,.45Z"/>
        <path class="cls-5" d="M679.04,828.89v-8.51c0-1.12-.25-1.92-.76-2.41s-1.15-.73-1.93-.73c-.47,0-.93,.08-1.39,.22-.46,.15-.88,.37-1.27,.66-.39,.29-.74,.64-1.04,1.06s-.53,.9-.7,1.44v8.26h-1.96v-12.88h1.54l.22,2.41h.11c.24-.78,.78-1.45,1.62-2,.84-.55,1.89-.83,3.14-.83,.6,0,1.16,.08,1.69,.24,.53,.16,.99,.42,1.39,.77,.39,.35,.7,.82,.94,1.4,.23,.58,.35,1.29,.35,2.13v8.76h-1.96Z"/>
        <path class="cls-5" d="M691.02,815.59c1.64,0,2.91,.42,3.81,1.25,.9,.83,1.34,2,1.34,3.51,0,.32-.02,.64-.06,.97-.04,.33-.1,.56-.2,.71h-9.44v.28c0,.71,.09,1.39,.28,2.04,.19,.65,.47,1.23,.84,1.74,.37,.5,.84,.91,1.41,1.2s1.25,.45,2.03,.45c.45,0,.89-.05,1.32-.15s.84-.23,1.23-.39c.39-.16,.76-.33,1.09-.52s.63-.37,.9-.56l.34,1.6c-.24,.15-.54,.31-.9,.49s-.75,.34-1.18,.49c-.43,.15-.9,.27-1.41,.38-.51,.1-1.05,.15-1.61,.15-1.05,0-1.97-.18-2.77-.55-.8-.36-1.48-.86-2.02-1.48-.54-.63-.95-1.35-1.23-2.17-.28-.82-.42-1.68-.42-2.58s.14-1.79,.43-2.62c.29-.83,.71-1.56,1.27-2.2,.56-.63,1.25-1.13,2.09-1.5,.83-.36,1.78-.55,2.84-.55Zm-.08,1.57c-1.23,0-2.19,.32-2.87,.97-.68,.64-1.14,1.45-1.39,2.42h7.64c.02-.09,.03-.18,.03-.25v-.25c0-.47-.09-.88-.28-1.25-.19-.36-.44-.67-.76-.91s-.68-.42-1.09-.55c-.41-.12-.84-.18-1.29-.18Z"/>
        <path class="cls-5" d="M708.77,828.89v-8.51c0-1.12-.25-1.92-.76-2.41s-1.15-.73-1.93-.73c-.47,0-.93,.08-1.39,.22-.46,.15-.88,.37-1.27,.66-.39,.29-.74,.64-1.04,1.06s-.53,.9-.7,1.44v8.26h-1.96v-12.88h1.54l.22,2.41h.11c.24-.78,.78-1.45,1.62-2,.84-.55,1.89-.83,3.14-.83,.6,0,1.16,.08,1.69,.24,.53,.16,.99,.42,1.39,.77,.39,.35,.7,.82,.94,1.4,.23,.58,.35,1.29,.35,2.13v8.76h-1.96Z"/>
      </g>
      <g>
        <path class="cls-5" d="M539.83,736.38h-8.02v23.52h-4.83v-23.52h-8.02v-4.2h20.87v4.2Z"/>
        <path class="cls-5" d="M551.33,744.78c-.28-.22-.71-.41-1.3-.55-.59-.14-1.09-.21-1.51-.21-.56,0-1.02,.13-1.39,.4-.36,.27-.69,.62-.97,1.05-.28,.43-.52,.93-.71,1.49-.2,.56-.38,1.13-.55,1.72v11.21h-4.62v-19.32h3.61l.21,4.03h.17c.28-.59,.57-1.16,.88-1.72,.31-.56,.66-1.06,1.05-1.49,.39-.43,.85-.78,1.37-1.05,.52-.27,1.13-.4,1.83-.4,1.12,0,2.17,.36,3.15,1.09l-1.22,3.74Z"/>
        <path class="cls-5" d="M567.55,759.9l-.34-2.65h-.17c-.76,.95-1.78,1.71-3.09,2.29-1.3,.57-2.62,.86-3.97,.86-1.76,0-3.15-.51-4.16-1.53-1.01-1.02-1.51-2.37-1.51-4.05,0-1.15,.24-2.18,.73-3.09,.49-.91,1.2-1.68,2.12-2.31,.92-.63,2.03-1.11,3.32-1.45,1.29-.34,2.73-.5,4.33-.5h1.81v-.63c0-1.09-.35-1.89-1.05-2.39-.73-.5-1.86-.76-3.4-.76-2.07,0-3.92,.46-5.54,1.39l-.88-3.49c1.88-1.09,4.14-1.64,6.8-1.64,2.8,0,4.93,.57,6.38,1.72,.67,.53,1.22,1.22,1.66,2.06,.43,.84,.65,1.85,.65,3.02v13.15h-3.7Zm-9.37-25.7c0-.64,.24-1.22,.71-1.72s1.04-.76,1.68-.76,1.22,.25,1.72,.76c.5,.5,.76,1.08,.76,1.72s-.25,1.2-.76,1.68c-.5,.48-1.08,.71-1.72,.71s-1.2-.24-1.68-.71-.71-1.04-.71-1.68Zm3.61,22.47c.9,0,1.79-.22,2.69-.65,.9-.43,1.61-1.01,2.14-1.74v-3.82h-.8c-2.3,0-3.97,.29-5.02,.88s-1.58,1.53-1.58,2.81c0,1.68,.85,2.52,2.56,2.52Zm2.1-22.47c0-.64,.24-1.22,.71-1.72s1.04-.76,1.68-.76,1.22,.25,1.72,.76,.76,1.08,.76,1.72-.25,1.2-.76,1.68-1.08,.71-1.72,.71-1.2-.24-1.68-.71-.71-1.04-.71-1.68Z"/>
        <path class="cls-5" d="M579.39,753.81c-1.26-.53-2.17-1.36-2.73-2.48-.56-1.12-.84-2.34-.84-3.65,0-1.09,.18-2.11,.55-3.07,.36-.95,.89-1.77,1.58-2.46s1.51-1.22,2.48-1.62c.97-.39,2.07-.59,3.3-.59,.73,0,1.45,.07,2.16,.21,.71,.14,1.34,.34,1.87,.61,1.18,0,2.25-.08,3.21-.24,.97-.16,1.9-.37,2.79-.62l.38,.29-.46,3.19-.21,.21-2.98-.34-.04,.13c.95,1.2,1.43,2.62,1.43,4.24,0,.98-.17,1.9-.52,2.75-.35,.85-.86,1.6-1.53,2.23s-1.51,1.13-2.5,1.51-2.12,.57-3.38,.57c-.31,0-.55,0-.73-.02-.18-.01-.36-.02-.53-.02-.48,.17-.84,.39-1.09,.65-.25,.27-.38,.54-.38,.82,0,.31,.15,.57,.46,.8,.31,.22,.78,.38,1.43,.46l4.07,.5c.92,.11,1.79,.31,2.58,.59,.8,.28,1.5,.66,2.1,1.13,.6,.48,1.07,1.05,1.41,1.72,.34,.67,.5,1.44,.5,2.31s-.18,1.71-.54,2.52c-.37,.81-.94,1.53-1.72,2.14-.79,.62-1.77,1.11-2.96,1.47-1.19,.36-2.62,.55-4.3,.55-1.48,0-2.79-.15-3.93-.44-1.13-.29-2.09-.69-2.88-1.2-.78-.5-1.38-1.1-1.78-1.79-.41-.69-.61-1.42-.61-2.21,0-.56,.1-1.11,.29-1.66,.2-.55,.47-1.05,.82-1.51,.35-.46,.76-.88,1.22-1.24s.96-.63,1.49-.8v-.17c-.64-.28-1.09-.66-1.34-1.13-.25-.48-.38-.94-.38-1.39,0-.59,.2-1.13,.59-1.64s.95-.9,1.68-1.18v-.17Zm3.19,7.01c-.95,.17-1.76,.57-2.44,1.2-.67,.63-1.01,1.35-1.01,2.16,0,.9,.44,1.57,1.32,2.02,.88,.45,2.16,.67,3.84,.67s2.97-.23,3.95-.69,1.47-1.21,1.47-2.25-.55-1.72-1.64-2.14-2.93-.74-5.5-.97Zm1.3-9.37c1.15,0,2.02-.37,2.6-1.11,.59-.74,.88-1.64,.88-2.71,0-.5-.07-1.01-.21-1.53-.14-.52-.36-.99-.67-1.41s-.69-.76-1.15-1.03c-.46-.27-1-.4-1.62-.4s-1.11,.12-1.55,.36-.82,.55-1.11,.94c-.29,.39-.51,.83-.65,1.32-.14,.49-.21,.99-.21,1.49s.08,1,.23,1.49,.38,.92,.69,1.3c.31,.38,.69,.69,1.16,.92,.46,.24,1,.36,1.62,.36Z"/>
        <path class="cls-5" d="M606.35,739.95c2.46,0,4.37,.62,5.71,1.87,1.34,1.25,2.02,3,2.02,5.27,0,.31-.02,.64-.06,.99-.04,.35-.1,.69-.17,1.03-.07,.34-.15,.64-.25,.9-.1,.27-.2,.48-.31,.65h-12.22c.06,.84,.21,1.63,.46,2.37,.25,.74,.62,1.39,1.09,1.93,.48,.55,1.06,.98,1.74,1.3,.69,.32,1.49,.48,2.42,.48,1.04,0,2.13-.2,3.3-.59,1.16-.39,2.15-.88,2.96-1.47l.76,3.44c-.36,.22-.81,.47-1.34,.74-.53,.27-1.13,.51-1.81,.73-.67,.22-1.39,.41-2.16,.57-.77,.15-1.58,.23-2.42,.23-1.57,0-2.95-.27-4.16-.82s-2.21-1.29-3.02-2.23c-.81-.94-1.43-2.02-1.85-3.25-.42-1.23-.63-2.52-.63-3.86s.22-2.68,.65-3.93c.43-1.25,1.07-2.34,1.91-3.3,.84-.95,1.88-1.7,3.13-2.25,1.25-.55,2.67-.82,4.26-.82Zm-.13,3.61c-1.18,0-2.18,.34-3,1.03-.83,.69-1.42,1.62-1.79,2.79h8.02c.03-.08,.05-.18,.06-.29,.01-.11,.02-.25,.02-.42,0-.9-.31-1.64-.92-2.23-.62-.59-1.42-.88-2.39-.88Z"/>
        <path class="cls-5" d="M629.83,744.78c-.28-.22-.71-.41-1.3-.55-.59-.14-1.09-.21-1.51-.21-.56,0-1.02,.13-1.39,.4-.36,.27-.69,.62-.97,1.05-.28,.43-.52,.93-.71,1.49-.2,.56-.38,1.13-.55,1.72v11.21h-4.62v-19.32h3.61l.21,4.03h.17c.28-.59,.57-1.16,.88-1.72,.31-.56,.66-1.06,1.05-1.49,.39-.43,.85-.78,1.36-1.05,.52-.27,1.13-.4,1.83-.4,1.12,0,2.17,.36,3.15,1.09l-1.22,3.74Z"/>
        <path class="cls-5" d="M645.25,739.95c1.51,0,2.81,.29,3.91,.86,1.09,.57,2,1.34,2.71,2.29,.71,.95,1.24,2.05,1.58,3.3,.34,1.25,.5,2.54,.5,3.88s-.17,2.67-.52,3.91c-.35,1.23-.89,2.31-1.62,3.23-.73,.92-1.64,1.65-2.73,2.18-1.09,.53-2.39,.8-3.91,.8-1.26,0-2.43-.18-3.51-.55-1.08-.36-1.94-.95-2.58-1.76v12.73h-4.58v-30.24h3.7l.34,2.65h.17c.36-.45,.8-.88,1.3-1.28,.5-.41,1.05-.76,1.64-1.05s1.19-.52,1.81-.69c.62-.17,1.22-.25,1.81-.25Zm-.76,3.53c-.42,0-.88,.06-1.39,.19s-1,.31-1.49,.55-.96,.52-1.41,.86c-.45,.34-.83,.71-1.13,1.13v8.19c.84,1.04,1.7,1.69,2.58,1.95,.88,.27,1.69,.4,2.42,.4,.92,0,1.71-.17,2.37-.5,.66-.34,1.2-.79,1.64-1.37,.43-.57,.76-1.25,.97-2.02,.21-.77,.31-1.6,.31-2.5,0-.84-.09-1.67-.27-2.5-.18-.83-.48-1.56-.88-2.2-.41-.64-.92-1.17-1.53-1.58-.62-.41-1.34-.61-2.18-.61Z"/>
        <path class="cls-5" d="M667.25,739.95c1.71,0,3.18,.29,4.41,.86,1.23,.57,2.25,1.34,3.04,2.31,.8,.97,1.39,2.07,1.76,3.32,.38,1.25,.57,2.56,.57,3.93s-.19,2.67-.57,3.89c-.38,1.22-.97,2.28-1.76,3.19-.8,.91-1.81,1.63-3.02,2.16-1.22,.53-2.65,.8-4.31,.8s-3.18-.28-4.41-.84-2.25-1.31-3.07-2.25c-.81-.94-1.41-2.02-1.81-3.25-.39-1.23-.59-2.53-.59-3.91s.2-2.67,.59-3.91c.39-1.23,.99-2.32,1.79-3.25,.8-.94,1.81-1.68,3.04-2.23s2.67-.82,4.33-.82Zm.08,16.97c.81,0,1.52-.17,2.12-.53,.6-.35,1.1-.83,1.49-1.43,.39-.6,.68-1.29,.86-2.08,.18-.78,.27-1.61,.27-2.48s-.1-1.76-.29-2.58c-.2-.83-.5-1.55-.9-2.18s-.92-1.13-1.53-1.51c-.62-.38-1.36-.57-2.23-.57-.81,0-1.51,.18-2.1,.53-.59,.35-1.07,.82-1.45,1.41-.38,.59-.66,1.27-.84,2.06-.18,.78-.27,1.61-.27,2.48s.09,1.76,.27,2.58c.18,.83,.48,1.56,.88,2.21,.41,.64,.92,1.16,1.53,1.53,.62,.38,1.34,.57,2.18,.57Z"/>
        <path class="cls-5" d="M692.75,744.78c-.28-.22-.71-.41-1.3-.55-.59-.14-1.09-.21-1.51-.21-.56,0-1.02,.13-1.39,.4-.36,.27-.69,.62-.97,1.05-.28,.43-.52,.93-.71,1.49-.2,.56-.38,1.13-.55,1.72v11.21h-4.62v-19.32h3.61l.21,4.03h.17c.28-.59,.57-1.16,.88-1.72,.31-.56,.66-1.06,1.05-1.49,.39-.43,.85-.78,1.36-1.05,.52-.27,1.13-.4,1.83-.4,1.12,0,2.17,.36,3.15,1.09l-1.22,3.74Z"/>
        <path class="cls-5" d="M698.29,743.39h-2.39v-2.52l2.73-.42,.76-5.71h3.53v5.84h3.7v2.81h-3.7v11.09c0,.84,.08,1.41,.25,1.7s.49,.44,.97,.44c.36,0,.73-.07,1.09-.21,.36-.14,.9-.41,1.6-.8l.76,3.32c-.53,.45-1.28,.81-2.25,1.07-.97,.27-1.93,.4-2.88,.4-.84,0-1.53-.11-2.08-.34s-.97-.55-1.28-.99c-.31-.43-.52-.96-.63-1.58-.11-.62-.17-1.3-.17-2.06v-12.05Z"/>
        <path class="cls-5" d="M712.28,743.39h-2.39v-2.39l2.39-.38c0-1.6,.05-2.95,.15-4.07,.1-1.12,.23-2.06,.4-2.83,.17-.77,.36-1.39,.57-1.87,.21-.48,.43-.87,.65-1.18,.56-.73,1.29-1.25,2.21-1.58,.91-.32,1.91-.48,3-.48h.67c.31,0,.65,.03,1.03,.09s.77,.15,1.18,.29c.41,.13,.78,.3,1.11,.51l-1.05,3.57c-.28-.17-.74-.4-1.39-.69-.64-.29-1.27-.44-1.89-.44-.36,0-.67,.08-.92,.25s-.46,.48-.63,.92c-.17,.45-.29,1.05-.36,1.81-.07,.76-.1,1.72-.1,2.9v2.77h3.7v2.81h-3.7v16.51h-4.62v-16.51Z"/>
        <path class="cls-5" d="M732.73,739.95c1.71,0,3.18,.29,4.41,.86,1.23,.57,2.25,1.34,3.04,2.31,.8,.97,1.39,2.07,1.76,3.32,.38,1.25,.57,2.56,.57,3.93s-.19,2.67-.57,3.89c-.38,1.22-.97,2.28-1.76,3.19-.8,.91-1.81,1.63-3.02,2.16-1.22,.53-2.65,.8-4.31,.8s-3.18-.28-4.41-.84-2.25-1.31-3.07-2.25c-.81-.94-1.41-2.02-1.81-3.25-.39-1.23-.59-2.53-.59-3.91s.2-2.67,.59-3.91c.39-1.23,.99-2.32,1.79-3.25,.8-.94,1.81-1.68,3.04-2.23s2.67-.82,4.33-.82Zm.08,16.97c.81,0,1.52-.17,2.12-.53,.6-.35,1.1-.83,1.49-1.43,.39-.6,.68-1.29,.86-2.08,.18-.78,.27-1.61,.27-2.48s-.1-1.76-.29-2.58c-.2-.83-.5-1.55-.9-2.18s-.92-1.13-1.53-1.51c-.62-.38-1.36-.57-2.23-.57-.81,0-1.51,.18-2.1,.53-.59,.35-1.07,.82-1.45,1.41-.38,.59-.66,1.27-.84,2.06-.18,.78-.27,1.61-.27,2.48s.09,1.76,.27,2.58c.18,.83,.48,1.56,.88,2.21,.41,.64,.92,1.16,1.53,1.53,.62,.38,1.34,.57,2.18,.57Z"/>
        <path class="cls-5" d="M752.05,759.9h-4.62v-31.08h4.62v31.08Z"/>
        <path class="cls-5" d="M757.43,734.36c0-.39,.08-.77,.23-1.13,.15-.36,.37-.69,.65-.99,.28-.29,.59-.52,.94-.69,.35-.17,.74-.25,1.16-.25,.39,0,.77,.08,1.13,.25,.36,.17,.69,.4,.99,.69,.29,.29,.52,.62,.69,.99,.17,.36,.25,.74,.25,1.13,0,.42-.08,.81-.25,1.16-.17,.35-.4,.67-.69,.95-.29,.28-.62,.5-.99,.65-.36,.15-.74,.23-1.13,.23-.81,0-1.51-.29-2.1-.88-.59-.59-.88-1.29-.88-2.1Zm5.29,25.54h-4.62v-19.32h4.62v19.32Z"/>
        <path class="cls-5" d="M777.12,739.95c1.71,0,3.18,.29,4.41,.86,1.23,.57,2.25,1.34,3.04,2.31,.8,.97,1.39,2.07,1.76,3.32,.38,1.25,.57,2.56,.57,3.93s-.19,2.67-.57,3.89c-.38,1.22-.97,2.28-1.76,3.19-.8,.91-1.81,1.63-3.02,2.16-1.22,.53-2.65,.8-4.31,.8s-3.18-.28-4.41-.84-2.25-1.31-3.07-2.25c-.81-.94-1.41-2.02-1.81-3.25-.39-1.23-.59-2.53-.59-3.91s.2-2.67,.59-3.91c.39-1.23,.99-2.32,1.79-3.25,.8-.94,1.81-1.68,3.04-2.23s2.67-.82,4.33-.82Zm.08,16.97c.81,0,1.52-.17,2.12-.53,.6-.35,1.1-.83,1.49-1.43,.39-.6,.68-1.29,.86-2.08,.18-.78,.27-1.61,.27-2.48s-.1-1.76-.29-2.58c-.2-.83-.5-1.55-.9-2.18s-.92-1.13-1.53-1.51c-.62-.38-1.36-.57-2.23-.57-.81,0-1.51,.18-2.1,.53-.59,.35-1.07,.82-1.45,1.41-.38,.59-.66,1.27-.84,2.06-.18,.78-.27,1.61-.27,2.48s.09,1.76,.27,2.58c.18,.83,.48,1.56,.88,2.21,.41,.64,.92,1.16,1.53,1.53,.62,.38,1.34,.57,2.18,.57Z"/>
      </g>
      <g>
        <path class="cls-5" d="M1306.27,155.35l9.2-21.17h5.5v27.72h-4.79v-18.27l-7.98,18.27h-3.86l-8.19-18.27v18.27h-4.83v-27.72h5.5l9.45,21.17Z"/>
        <path class="cls-5" d="M1331.77,142.58v12.56c0,1.15,.3,2.02,.9,2.62,.6,.6,1.38,.9,2.33,.9s1.88-.33,2.69-.99c.81-.66,1.41-1.6,1.81-2.83v-12.26h4.66v19.32h-3.61l-.25-2.69h-.17c-.31,.64-.7,1.17-1.18,1.58-.48,.41-1,.73-1.58,.97-.57,.24-1.17,.41-1.79,.5-.62,.1-1.22,.15-1.81,.15-.92,0-1.79-.11-2.58-.34s-1.5-.59-2.1-1.11c-.6-.52-1.08-1.2-1.43-2.06-.35-.85-.52-1.91-.52-3.17v-13.15h4.62Z"/>
        <path class="cls-5" d="M1350.83,145.39h-2.39v-2.52l2.73-.42,.76-5.71h3.53v5.84h3.7v2.81h-3.7v11.09c0,.84,.08,1.41,.25,1.7s.49,.44,.97,.44c.36,0,.73-.07,1.09-.21,.36-.14,.9-.41,1.6-.8l.76,3.32c-.53,.45-1.28,.81-2.25,1.07-.97,.27-1.93,.4-2.88,.4-.84,0-1.53-.11-2.08-.34s-.97-.55-1.28-.99c-.31-.43-.52-.96-.63-1.58-.11-.62-.17-1.3-.17-2.06v-12.05Z"/>
        <path class="cls-5" d="M1364.78,145.39h-2.39v-2.52l2.73-.42,.76-5.71h3.53v5.84h3.7v2.81h-3.7v11.09c0,.84,.08,1.41,.25,1.7s.49,.44,.97,.44c.36,0,.73-.07,1.09-.21,.36-.14,.9-.41,1.6-.8l.76,3.32c-.53,.45-1.28,.81-2.25,1.07-.97,.27-1.93,.4-2.88,.4-.84,0-1.53-.11-2.08-.34s-.97-.55-1.28-.99c-.31-.43-.52-.96-.63-1.58-.11-.62-.17-1.3-.17-2.06v-12.05Z"/>
        <path class="cls-5" d="M1386.62,141.95c2.46,0,4.37,.62,5.71,1.87,1.34,1.25,2.02,3,2.02,5.27,0,.31-.02,.64-.06,.99-.04,.35-.1,.69-.17,1.03-.07,.34-.15,.64-.25,.9-.1,.27-.2,.48-.31,.65h-12.22c.06,.84,.21,1.63,.46,2.37,.25,.74,.62,1.39,1.09,1.93,.48,.55,1.06,.98,1.74,1.3,.69,.32,1.49,.48,2.42,.48,1.04,0,2.13-.2,3.3-.59,1.16-.39,2.15-.88,2.96-1.47l.76,3.44c-.36,.22-.81,.47-1.34,.74-.53,.27-1.13,.51-1.81,.73-.67,.22-1.39,.41-2.16,.57-.77,.15-1.58,.23-2.42,.23-1.57,0-2.95-.27-4.16-.82s-2.21-1.29-3.02-2.23c-.81-.94-1.43-2.02-1.85-3.25-.42-1.23-.63-2.52-.63-3.86s.22-2.68,.65-3.93c.43-1.25,1.07-2.34,1.91-3.3,.84-.95,1.88-1.7,3.13-2.25,1.25-.55,2.67-.82,4.26-.82Zm-.13,3.61c-1.18,0-2.18,.34-3,1.03-.83,.69-1.42,1.62-1.79,2.79h8.02c.03-.08,.05-.18,.06-.29,.01-.11,.02-.25,.02-.42,0-.9-.31-1.64-.92-2.23-.62-.59-1.42-.88-2.39-.88Z"/>
        <path class="cls-5" d="M1410.09,146.78c-.28-.22-.71-.41-1.3-.55-.59-.14-1.09-.21-1.51-.21-.56,0-1.02,.13-1.39,.4-.36,.27-.69,.62-.97,1.05-.28,.43-.52,.93-.71,1.49-.2,.56-.38,1.13-.55,1.72v11.21h-4.62v-19.32h3.61l.21,4.03h.17c.28-.59,.57-1.16,.88-1.72,.31-.56,.66-1.06,1.05-1.49,.39-.43,.85-.78,1.36-1.05,.52-.27,1.13-.4,1.83-.4,1.12,0,2.17,.36,3.15,1.09l-1.22,3.74Z"/>
        <path class="cls-5" d="M1427.02,150.14v3.44h-14.2v-3.44h14.2Z"/>
        <path class="cls-5" d="M1257.59,206.21c-1.26-.53-2.17-1.36-2.73-2.48-.56-1.12-.84-2.34-.84-3.65,0-1.09,.18-2.11,.55-3.07,.36-.95,.89-1.77,1.58-2.46,.69-.69,1.51-1.22,2.48-1.62,.97-.39,2.06-.59,3.3-.59,.73,0,1.45,.07,2.16,.21,.71,.14,1.34,.34,1.87,.61,1.18,0,2.25-.08,3.21-.24,.97-.16,1.9-.37,2.79-.62l.38,.29-.46,3.19-.21,.21-2.98-.34-.04,.13c.95,1.2,1.43,2.62,1.43,4.24,0,.98-.17,1.9-.52,2.75-.35,.85-.86,1.6-1.53,2.23s-1.51,1.13-2.5,1.51c-.99,.38-2.12,.57-3.38,.57-.31,0-.55,0-.74-.02-.18-.01-.36-.02-.52-.02-.48,.17-.84,.38-1.09,.65-.25,.27-.38,.54-.38,.82,0,.31,.15,.57,.46,.8,.31,.22,.78,.38,1.43,.46l4.07,.5c.92,.11,1.78,.31,2.58,.59,.8,.28,1.5,.66,2.1,1.13,.6,.48,1.07,1.05,1.41,1.72s.5,1.44,.5,2.31-.18,1.71-.55,2.52c-.36,.81-.94,1.53-1.72,2.14s-1.77,1.11-2.96,1.47c-1.19,.36-2.62,.55-4.3,.55-1.48,0-2.79-.15-3.93-.44-1.13-.29-2.09-.69-2.88-1.2-.78-.5-1.38-1.1-1.79-1.78-.41-.69-.61-1.42-.61-2.21,0-.56,.1-1.11,.29-1.66s.47-1.05,.82-1.51c.35-.46,.76-.88,1.22-1.24,.46-.36,.96-.63,1.49-.8v-.17c-.64-.28-1.09-.66-1.34-1.13-.25-.48-.38-.94-.38-1.39,0-.59,.2-1.13,.59-1.64,.39-.5,.95-.9,1.68-1.18v-.17Zm3.19,7.01c-.95,.17-1.76,.57-2.44,1.2s-1.01,1.35-1.01,2.16c0,.9,.44,1.57,1.32,2.02,.88,.45,2.16,.67,3.84,.67s2.97-.23,3.95-.69c.98-.46,1.47-1.21,1.47-2.25s-.55-1.72-1.64-2.14c-1.09-.42-2.93-.74-5.5-.97Zm1.3-9.37c1.15,0,2.02-.37,2.6-1.11,.59-.74,.88-1.64,.88-2.71,0-.5-.07-1.01-.21-1.53-.14-.52-.36-.99-.67-1.41-.31-.42-.69-.76-1.15-1.03-.46-.27-1-.4-1.62-.4s-1.11,.12-1.55,.36c-.45,.24-.82,.55-1.11,.95-.29,.39-.51,.83-.65,1.32-.14,.49-.21,.99-.21,1.49s.08,1,.23,1.49c.15,.49,.38,.92,.69,1.3,.31,.38,.69,.69,1.16,.92s1,.36,1.62,.36Z"/>
        <path class="cls-5" d="M1284.56,192.35c2.46,0,4.37,.62,5.71,1.87,1.34,1.25,2.02,3,2.02,5.27,0,.31-.02,.64-.06,.99-.04,.35-.1,.69-.17,1.03-.07,.34-.15,.64-.25,.9-.1,.27-.2,.48-.31,.65h-12.22c.06,.84,.21,1.63,.46,2.37,.25,.74,.62,1.39,1.09,1.93,.48,.55,1.06,.98,1.74,1.3s1.49,.48,2.42,.48c1.04,0,2.13-.2,3.3-.59,1.16-.39,2.15-.88,2.96-1.47l.76,3.44c-.36,.22-.81,.47-1.34,.74-.53,.27-1.13,.51-1.81,.74-.67,.22-1.39,.41-2.16,.57-.77,.15-1.58,.23-2.42,.23-1.57,0-2.95-.27-4.16-.82s-2.21-1.29-3.02-2.23c-.81-.94-1.43-2.02-1.85-3.25-.42-1.23-.63-2.52-.63-3.86s.22-2.68,.65-3.93c.43-1.25,1.07-2.34,1.91-3.3s1.88-1.7,3.13-2.25c1.25-.55,2.67-.82,4.26-.82Zm-.13,3.61c-1.18,0-2.18,.34-3,1.03-.83,.69-1.42,1.62-1.79,2.79h8.02c.03-.08,.05-.18,.06-.29,.01-.11,.02-.25,.02-.42,0-.9-.31-1.64-.92-2.23-.62-.59-1.42-.88-2.39-.88Z"/>
        <path class="cls-5" d="M1302.87,195.79c-.92,0-1.65,.17-2.16,.52-.52,.35-.78,.85-.78,1.49,0,.42,.15,.81,.44,1.16,.29,.35,.92,.64,1.87,.86l2.98,.67c1.18,.25,2.12,.62,2.83,1.09,.71,.48,1.27,.99,1.68,1.55,.41,.56,.68,1.13,.82,1.72,.14,.59,.21,1.13,.21,1.64,0,.9-.18,1.73-.55,2.5-.36,.77-.88,1.43-1.55,2-.67,.56-1.48,1-2.44,1.32-.95,.32-2.02,.48-3.19,.48-1.48,0-2.86-.22-4.12-.65s-2.27-.92-3.02-1.45l1.09-3.99c.95,.92,2.02,1.61,3.21,2.06,1.19,.45,2.29,.67,3.3,.67,1.06,0,1.88-.23,2.44-.69,.56-.46,.84-1.1,.84-1.91,0-.48-.14-.88-.42-1.2-.28-.32-.84-.59-1.68-.82l-4.03-1.01c-.95-.22-1.73-.55-2.33-.97s-1.08-.89-1.43-1.41c-.35-.52-.59-1.06-.71-1.62-.13-.56-.19-1.09-.19-1.6,0-1.88,.66-3.32,1.97-4.35,1.32-1.02,3.02-1.53,5.12-1.53,1.09,0,2.27,.15,3.53,.44,1.26,.29,2.32,.72,3.19,1.28l-1.22,3.78c-.56-.45-1.34-.9-2.35-1.37-1.01-.46-2.13-.69-3.36-.69Z"/>
        <path class="cls-5" d="M1323.95,192.35c2.46,0,4.37,.62,5.71,1.87,1.34,1.25,2.02,3,2.02,5.27,0,.31-.02,.64-.06,.99-.04,.35-.1,.69-.17,1.03-.07,.34-.15,.64-.25,.9-.1,.27-.2,.48-.31,.65h-12.22c.06,.84,.21,1.63,.46,2.37,.25,.74,.62,1.39,1.09,1.93,.48,.55,1.06,.98,1.74,1.3s1.49,.48,2.42,.48c1.04,0,2.13-.2,3.3-.59,1.16-.39,2.15-.88,2.96-1.47l.76,3.44c-.36,.22-.81,.47-1.34,.74-.53,.27-1.13,.51-1.81,.74-.67,.22-1.39,.41-2.16,.57-.77,.15-1.58,.23-2.42,.23-1.57,0-2.95-.27-4.16-.82s-2.21-1.29-3.02-2.23c-.81-.94-1.43-2.02-1.85-3.25-.42-1.23-.63-2.52-.63-3.86s.22-2.68,.65-3.93c.43-1.25,1.07-2.34,1.91-3.3s1.88-1.7,3.13-2.25c1.25-.55,2.67-.82,4.26-.82Zm-.13,3.61c-1.18,0-2.18,.34-3,1.03-.83,.69-1.42,1.62-1.79,2.79h8.02c.03-.08,.05-.18,.06-.29,.01-.11,.02-.25,.02-.42,0-.9-.31-1.64-.92-2.23-.62-.59-1.42-.88-2.39-.88Z"/>
        <path class="cls-5" d="M1341.26,212.3h-4.62v-31.08h4.62v31.08Z"/>
        <path class="cls-5" d="M1352.18,212.3h-4.62v-31.08h4.62v31.08Z"/>
        <path class="cls-5" d="M1364.1,195.79c-.92,0-1.65,.17-2.16,.52-.52,.35-.78,.85-.78,1.49,0,.42,.15,.81,.44,1.16,.29,.35,.92,.64,1.87,.86l2.98,.67c1.18,.25,2.12,.62,2.83,1.09,.71,.48,1.27,.99,1.68,1.55,.41,.56,.68,1.13,.82,1.72,.14,.59,.21,1.13,.21,1.64,0,.9-.18,1.73-.55,2.5-.36,.77-.88,1.43-1.55,2-.67,.56-1.48,1-2.44,1.32-.95,.32-2.02,.48-3.19,.48-1.48,0-2.86-.22-4.12-.65s-2.27-.92-3.02-1.45l1.09-3.99c.95,.92,2.02,1.61,3.21,2.06,1.19,.45,2.29,.67,3.3,.67,1.06,0,1.88-.23,2.44-.69,.56-.46,.84-1.1,.84-1.91,0-.48-.14-.88-.42-1.2-.28-.32-.84-.59-1.68-.82l-4.03-1.01c-.95-.22-1.73-.55-2.33-.97s-1.08-.89-1.43-1.41c-.35-.52-.59-1.06-.71-1.62-.13-.56-.19-1.09-.19-1.6,0-1.88,.66-3.32,1.97-4.35,1.32-1.02,3.02-1.53,5.12-1.53,1.09,0,2.27,.15,3.53,.44,1.26,.29,2.32,.72,3.19,1.28l-1.22,3.78c-.56-.45-1.34-.9-2.35-1.37-1.01-.46-2.13-.69-3.36-.69Z"/>
        <path class="cls-5" d="M1391.32,197.77c-.31-.22-.69-.45-1.15-.67-.46-.22-.96-.42-1.49-.59-.53-.17-1.09-.3-1.66-.4-.57-.1-1.11-.15-1.62-.15-.95,0-1.76,.17-2.42,.52-.66,.35-1.19,.81-1.6,1.39-.41,.57-.7,1.24-.88,1.99-.18,.76-.27,1.54-.27,2.35,0,.95,.11,1.84,.34,2.67s.56,1.55,1.01,2.16c.45,.62,1.01,1.11,1.7,1.47,.69,.36,1.48,.55,2.37,.55,1.01,0,2.08-.2,3.21-.61,1.13-.41,2.08-.97,2.83-1.7l.84,3.95c-.78,.5-1.86,.98-3.21,1.43-1.36,.45-2.81,.67-4.35,.67-1.62,0-3.04-.28-4.26-.84-1.22-.56-2.23-1.31-3.02-2.25s-1.4-2.03-1.81-3.28c-.41-1.25-.61-2.57-.61-3.97s.19-2.62,.57-3.84c.38-1.22,.97-2.3,1.79-3.23,.81-.94,1.85-1.68,3.11-2.23,1.26-.55,2.77-.82,4.54-.82,1.34,0,2.66,.15,3.95,.46,1.29,.31,2.32,.71,3.11,1.22l-1.01,3.74Z"/>
        <path class="cls-5" d="M1401.57,195.84c.78-1.23,1.7-2.12,2.75-2.67,1.05-.55,2.29-.82,3.72-.82,.84,0,1.65,.12,2.44,.36,.78,.24,1.48,.62,2.08,1.15,.6,.53,1.08,1.23,1.43,2.1,.35,.87,.53,1.93,.53,3.19v13.15h-4.62v-12.77c0-1.15-.25-2.01-.76-2.58-.5-.57-1.19-.86-2.06-.86-.53,0-1.08,.08-1.66,.25-.57,.17-1.11,.42-1.62,.76s-.95,.74-1.34,1.22c-.39,.48-.69,1.01-.88,1.6v12.39h-4.62v-31.08h4.62v14.62Z"/>
        <path class="cls-5" d="M1431.89,212.3l-.34-2.65h-.17c-.76,.95-1.79,1.72-3.09,2.29-1.3,.57-2.62,.86-3.97,.86-1.76,0-3.15-.51-4.16-1.53-1.01-1.02-1.51-2.37-1.51-4.05,0-1.15,.25-2.18,.74-3.09,.49-.91,1.2-1.68,2.12-2.31s2.03-1.11,3.32-1.45c1.29-.34,2.73-.5,4.33-.5h1.81v-.63c0-1.09-.35-1.89-1.05-2.39-.73-.5-1.86-.76-3.4-.76-2.07,0-3.92,.46-5.54,1.39l-.88-3.49c1.88-1.09,4.14-1.64,6.8-1.64,2.8,0,4.93,.57,6.38,1.72,.67,.53,1.22,1.22,1.66,2.06,.43,.84,.65,1.85,.65,3.02v13.15h-3.7Zm-5.75-3.23c.9,0,1.79-.22,2.69-.65,.9-.43,1.61-1.01,2.14-1.74v-3.82h-.8c-2.3,0-3.97,.29-5.02,.88s-1.58,1.53-1.58,2.81c0,1.68,.85,2.52,2.56,2.52Z"/>
        <path class="cls-5" d="M1442.1,195.79h-2.39v-2.39l2.39-.38c0-1.6,.05-2.95,.15-4.07,.1-1.12,.23-2.06,.4-2.83,.17-.77,.36-1.39,.57-1.87,.21-.48,.43-.87,.65-1.18,.56-.73,1.29-1.25,2.21-1.58,.91-.32,1.91-.48,3-.48h.67c.31,0,.65,.03,1.03,.09,.38,.06,.77,.15,1.18,.29,.41,.13,.78,.3,1.11,.51l-1.05,3.57c-.28-.17-.74-.4-1.39-.69s-1.27-.44-1.89-.44c-.36,0-.67,.08-.92,.25-.25,.17-.46,.48-.63,.92s-.29,1.05-.36,1.81c-.07,.76-.1,1.72-.1,2.9v2.77h3.7v2.81h-3.7v16.51h-4.62v-16.51Z"/>
        <path class="cls-5" d="M1455.08,195.79h-2.39v-2.52l2.73-.42,.76-5.71h3.53v5.84h3.7v2.81h-3.7v11.09c0,.84,.08,1.41,.25,1.7,.17,.29,.49,.44,.97,.44,.36,0,.73-.07,1.09-.21,.36-.14,.9-.41,1.6-.8l.76,3.32c-.53,.45-1.28,.8-2.25,1.07-.97,.27-1.93,.4-2.88,.4-.84,0-1.53-.11-2.08-.34s-.97-.55-1.28-.99c-.31-.43-.52-.96-.63-1.58-.11-.62-.17-1.3-.17-2.06v-12.05Z"/>
        <path class="cls-5" d="M1236.76,231.37c-1.06,1.26-1.99,2.54-2.77,3.84-.78,1.3-1.43,2.67-1.93,4.09s-.88,2.94-1.11,4.54c-.24,1.6-.36,3.32-.36,5.17,0,1.09,.06,2.31,.19,3.65,.13,1.34,.4,2.77,.82,4.28s1.04,3.08,1.85,4.7c.81,1.62,1.9,3.26,3.28,4.91l-2.81,1.05c-2.69-2.41-4.77-5.22-6.26-8.44-1.49-3.22-2.23-6.62-2.23-10.21s.74-6.97,2.23-10.16c1.48-3.19,3.57-6.02,6.26-8.48l2.86,1.05Z"/>
        <path class="cls-5" d="M1244.2,241.66c0,.59,.13,1.09,.4,1.51,.27,.42,.64,.78,1.11,1.09,.48,.31,1.04,.59,1.7,.86,.66,.27,1.39,.54,2.21,.82,1.01,.36,2.01,.78,3,1.24s1.89,1.04,2.69,1.72c.8,.69,1.45,1.53,1.95,2.54s.76,2.23,.76,3.65c0,1.51-.27,2.79-.82,3.82s-1.28,1.87-2.21,2.5c-.92,.63-1.99,1.08-3.19,1.36-1.21,.28-2.45,.42-3.74,.42-1.85,0-3.58-.22-5.19-.67-1.61-.45-2.99-.99-4.14-1.64l1.26-4.54c1.06,.81,2.25,1.48,3.55,2.02,1.3,.53,2.79,.8,4.47,.8,1.79,0,3.09-.32,3.91-.95,.81-.63,1.22-1.48,1.22-2.54,0-.81-.2-1.5-.59-2.08-.39-.57-.88-1.06-1.47-1.47-.59-.41-1.21-.74-1.87-.99-.66-.25-1.24-.46-1.74-.63-.9-.28-1.81-.62-2.73-1.01-.92-.39-1.78-.9-2.56-1.53-.78-.63-1.42-1.42-1.91-2.37-.49-.95-.74-2.14-.74-3.57,0-1.34,.23-2.48,.69-3.4,.46-.92,1.09-1.67,1.89-2.25s1.74-.99,2.81-1.24c1.08-.25,2.25-.38,3.51-.38,1.54,0,3.03,.15,4.47,.46,1.44,.31,2.65,.69,3.63,1.13l-1.13,4.45c-.5-.34-1.05-.63-1.64-.88s-1.2-.46-1.83-.63-1.26-.3-1.89-.4c-.63-.1-1.23-.15-1.79-.15-1.26,0-2.25,.24-2.98,.71-.73,.48-1.09,1.2-1.09,2.18Z"/>
        <path class="cls-5" d="M1276.45,249.26l-4.16,13.44h-5.59l-7.01-19.32h4.83l5.04,14.83,4.58-14.83h4.62l4.58,14.83,5.04-14.83h4.75l-7.01,19.32h-5.5l-4.16-13.44Z"/>
        <path class="cls-5" d="M1308.33,262.7l-.34-2.65h-.17c-.76,.95-1.79,1.71-3.09,2.29-1.3,.57-2.62,.86-3.97,.86-1.76,0-3.15-.51-4.16-1.53-1.01-1.02-1.51-2.37-1.51-4.05,0-1.15,.25-2.18,.74-3.09,.49-.91,1.2-1.68,2.12-2.31s2.03-1.11,3.32-1.45,2.73-.5,4.33-.5h1.81v-.63c0-1.09-.35-1.89-1.05-2.39-.73-.5-1.86-.76-3.4-.76-2.07,0-3.92,.46-5.54,1.39l-.88-3.49c1.88-1.09,4.14-1.64,6.8-1.64,2.8,0,4.93,.57,6.38,1.72,.67,.53,1.22,1.22,1.66,2.06,.43,.84,.65,1.85,.65,3.02v13.15h-3.7Zm-5.75-3.23c.9,0,1.79-.22,2.69-.65,.9-.43,1.61-1.01,2.14-1.74v-3.82h-.8c-2.3,0-3.97,.29-5.02,.88s-1.58,1.53-1.58,2.81c0,1.68,.85,2.52,2.56,2.52Z"/>
        <path class="cls-5" d="M1328.36,242.75c1.51,0,2.81,.29,3.91,.86,1.09,.57,2,1.34,2.71,2.29,.71,.95,1.24,2.05,1.58,3.3,.34,1.25,.5,2.54,.5,3.88s-.17,2.67-.52,3.91c-.35,1.23-.89,2.31-1.62,3.23-.73,.92-1.64,1.65-2.73,2.18-1.09,.53-2.39,.8-3.91,.8-1.26,0-2.43-.18-3.51-.55-1.08-.36-1.94-.95-2.58-1.76v12.73h-4.58v-30.24h3.7l.34,2.65h.17c.36-.45,.8-.88,1.3-1.28,.5-.41,1.05-.76,1.64-1.05s1.19-.52,1.81-.69c.62-.17,1.22-.25,1.81-.25Zm-.76,3.53c-.42,0-.88,.06-1.39,.19s-1,.31-1.49,.55-.96,.52-1.41,.86c-.45,.34-.83,.71-1.13,1.13v8.19c.84,1.04,1.7,1.69,2.58,1.95,.88,.27,1.69,.4,2.42,.4,.92,0,1.71-.17,2.37-.5,.66-.34,1.2-.79,1.64-1.37,.43-.57,.76-1.25,.97-2.02,.21-.77,.31-1.6,.31-2.5,0-.84-.09-1.67-.27-2.5-.18-.83-.48-1.56-.88-2.2-.41-.64-.92-1.17-1.53-1.58-.62-.41-1.34-.61-2.18-.61Z"/>
        <path class="cls-5" d="M1360.41,252.24h-2.73v10.44h-4.83v-27.83h6.68c1.57,0,3,.19,4.28,.56,1.29,.38,2.39,.94,3.32,1.69,.92,.75,1.64,1.67,2.14,2.77,.5,1.1,.76,2.37,.76,3.82,0,1.17-.2,2.27-.59,3.29-.39,1.03-.98,1.93-1.76,2.71-.79,.78-1.79,1.4-3,1.86-1.22,.46-2.64,.69-4.26,.69Zm-.21-13.44h-1.3c-.42,0-.83,.05-1.22,.15v9.22c.39,.03,.8,.04,1.24,.04h1.37c1.51,0,2.65-.42,3.42-1.25s1.16-2.05,1.16-3.64c0-1.34-.34-2.42-1.03-3.26-.69-.84-1.9-1.25-3.63-1.25Z"/>
        <path class="cls-5" d="M1385.65,262.7l-.34-2.65h-.17c-.76,.95-1.79,1.71-3.09,2.29-1.3,.57-2.62,.86-3.97,.86-1.76,0-3.15-.51-4.16-1.53-1.01-1.02-1.51-2.37-1.51-4.05,0-1.15,.25-2.18,.74-3.09,.49-.91,1.2-1.68,2.12-2.31s2.03-1.11,3.32-1.45,2.73-.5,4.33-.5h1.81v-.63c0-1.09-.35-1.89-1.05-2.39-.73-.5-1.86-.76-3.4-.76-2.07,0-3.92,.46-5.54,1.39l-.88-3.49c1.88-1.09,4.14-1.64,6.8-1.64,2.8,0,4.93,.57,6.38,1.72,.67,.53,1.22,1.22,1.66,2.06,.43,.84,.65,1.85,.65,3.02v13.15h-3.7Zm-5.75-3.23c.9,0,1.79-.22,2.69-.65,.9-.43,1.61-1.01,2.14-1.74v-3.82h-.8c-2.3,0-3.97,.29-5.02,.88s-1.58,1.53-1.58,2.81c0,1.68,.85,2.52,2.56,2.52Z"/>
        <path class="cls-5" d="M1405.98,247.58c-.28-.22-.71-.41-1.3-.55-.59-.14-1.09-.21-1.51-.21-.56,0-1.02,.13-1.39,.4-.36,.27-.69,.62-.97,1.05-.28,.43-.52,.93-.71,1.49-.2,.56-.38,1.13-.55,1.72v11.21h-4.62v-19.32h3.61l.21,4.03h.17c.28-.59,.57-1.16,.88-1.72,.31-.56,.66-1.06,1.05-1.49,.39-.43,.85-.78,1.36-1.05,.52-.27,1.13-.4,1.83-.4,1.12,0,2.17,.36,3.15,1.09l-1.22,3.74Z"/>
        <path class="cls-5" d="M1411.52,246.19h-2.39v-2.52l2.73-.42,.76-5.71h3.53v5.84h3.7v2.81h-3.7v11.09c0,.84,.08,1.41,.25,1.7s.49,.44,.97,.44c.36,0,.73-.07,1.09-.21,.36-.14,.9-.41,1.6-.8l.76,3.32c-.53,.45-1.28,.81-2.25,1.07-.97,.27-1.93,.4-2.88,.4-.84,0-1.53-.11-2.08-.34s-.97-.55-1.28-.99c-.31-.43-.52-.96-.63-1.58-.11-.62-.17-1.3-.17-2.06v-12.05Z"/>
        <path class="cls-5" d="M1437.52,262.7v-12.77c0-2.3-.98-3.44-2.94-3.44-.48,0-.99,.08-1.53,.25s-1.07,.41-1.58,.74c-.5,.32-.96,.72-1.37,1.2-.41,.48-.71,1.02-.9,1.64v12.39h-4.62v-19.32h3.61l.21,2.86h.17c.59-1.18,1.5-2.05,2.75-2.62,1.25-.57,2.58-.86,4.01-.86,.92,0,1.79,.12,2.6,.36,.81,.24,1.53,.62,2.16,1.16s1.13,1.23,1.49,2.1c.36,.87,.55,1.93,.55,3.19v13.15h-4.62Z"/>
        <path class="cls-5" d="M1456.33,242.75c2.46,0,4.37,.62,5.71,1.87,1.34,1.25,2.02,3,2.02,5.27,0,.31-.02,.64-.06,.99-.04,.35-.1,.69-.17,1.03-.07,.34-.15,.64-.25,.9-.1,.27-.2,.48-.31,.65h-12.22c.06,.84,.21,1.63,.46,2.37,.25,.74,.62,1.39,1.09,1.93,.48,.55,1.06,.98,1.74,1.3,.69,.32,1.49,.48,2.42,.48,1.04,0,2.13-.2,3.3-.59,1.16-.39,2.15-.88,2.96-1.47l.76,3.44c-.36,.22-.81,.47-1.34,.74-.53,.27-1.13,.51-1.81,.73-.67,.22-1.39,.41-2.16,.57-.77,.15-1.58,.23-2.42,.23-1.57,0-2.95-.27-4.16-.82s-2.21-1.29-3.02-2.23c-.81-.94-1.43-2.02-1.85-3.25-.42-1.23-.63-2.52-.63-3.86s.22-2.68,.65-3.93c.43-1.25,1.07-2.34,1.91-3.3,.84-.95,1.88-1.7,3.13-2.25,1.25-.55,2.67-.82,4.26-.82Zm-.13,3.61c-1.18,0-2.18,.34-3,1.03-.83,.69-1.42,1.62-1.79,2.79h8.02c.03-.08,.05-.18,.06-.29,.01-.11,.02-.25,.02-.42,0-.9-.31-1.64-.92-2.23-.62-.59-1.42-.88-2.39-.88Z"/>
        <path class="cls-5" d="M1479.81,247.58c-.28-.22-.71-.41-1.3-.55-.59-.14-1.09-.21-1.51-.21-.56,0-1.02,.13-1.39,.4-.36,.27-.69,.62-.97,1.05-.28,.43-.52,.93-.71,1.49-.2,.56-.38,1.13-.55,1.72v11.21h-4.62v-19.32h3.61l.21,4.03h.17c.28-.59,.57-1.16,.88-1.72,.31-.56,.66-1.06,1.05-1.49,.39-.43,.85-.78,1.36-1.05,.52-.27,1.13-.4,1.83-.4,1.12,0,2.17,.36,3.15,1.09l-1.22,3.74Z"/>
        <path class="cls-5" d="M1483.47,230.32c2.69,2.46,4.77,5.29,6.26,8.48,1.48,3.19,2.23,6.58,2.23,10.16s-.74,6.99-2.23,10.21c-1.48,3.22-3.57,6.03-6.26,8.44l-2.81-1.05c1.37-1.65,2.46-3.29,3.28-4.91,.81-1.62,1.43-3.19,1.85-4.7s.69-2.94,.82-4.28c.13-1.34,.19-2.56,.19-3.65,0-1.85-.12-3.57-.36-5.17-.24-1.6-.61-3.11-1.11-4.54s-1.15-2.79-1.93-4.09c-.78-1.3-1.71-2.58-2.77-3.84l2.86-1.05Z"/>
      </g>
      <g>
        <circle class="cls-3" cx="310.5" cy="116.47" r="43"/>
        <path class="cls-4" d="M325.15,131.66c-.31-1.08-.7-2.13-1.17-3.14-1.28,.44-2.42,.75-3.45,.93s-2.21,.27-3.56,.27c-6.04,0-9.65-2.85-10.86-8.54h10.96l1.95-4.1h-13.35c0-.23-.02-.46-.02-.7,0-.52,.02-1.02,.04-1.51h13.33l2.09-4.1h-14.83c.47-1.81,1.19-3.33,2.18-4.53,1.88-2.28,4.57-3.42,8.07-3.42,1.35,0,2.52,.09,3.5,.27,.98,.18,2.11,.49,3.39,.93,.44-1.06,.84-2.1,1.2-3.14s.58-2.1,.66-3.2c-1.71-.69-3.31-1.15-4.79-1.37-1.47-.21-3.08-.33-4.83-.33-2.95,0-5.59,.51-7.9,1.53s-4.27,2.44-5.85,4.27-2.8,3.98-3.64,6.48c-.27,.81-.48,1.65-.67,2.51h-3.98l-2.03,4.1h5.48c-.02,.5-.06,1-.06,1.51,0,.24,.02,.46,.02,.7h-3.64l-1.89,4.1h5.92c.2,1.13,.45,2.24,.79,3.3,.8,2.48,2,4.62,3.58,6.42,1.58,1.81,3.54,3.21,5.88,4.21,2.33,1,5.05,1.5,8.14,1.5,1.75,0,3.38-.11,4.89-.33,1.51-.22,3.22-.67,5.11-1.37-.14-1.09-.37-2.17-.68-3.25h0Z"/>
      </g>
      <g>
        <path class="cls-2" d="M1354.86,407.25c-14.49,38.11-44.85,102.94-107.36,166.45-65.66,66.7-133.42,98.06-168.88,114.08-87.23,39.39-166.87,50.71-220.31,53.68"/>
        <polygon points="859.51 747.39 858.73 735.27 853.06 741.72 859.51 747.39"/>
      </g>
      <g>
        <path class="cls-2" d="M1201.76,104.84c-40.6-16.94-97.62-35.21-167.85-41.36-131.22-11.48-236.04,25.71-290.24,49.79"/>
        <polygon points="743.06 108.2 737.13 116.22 747.04 117.35 743.06 108.2"/>
      </g>
      <g>
        <path d="M834.35,36.51h7.58v3.65h-13.92v-1.15l7.58-11.04h-6.85v-3.65h13.12v1.15l-7.52,11.04Z"/>
        <path d="M857.87,30.75v9.41h-3.97v-1.54c-1.24,1.28-2.85,1.92-4.83,1.92-1.66,0-2.99-.44-3.98-1.31s-1.49-2.02-1.49-3.42,.54-2.55,1.62-3.38c1.08-.82,2.53-1.23,4.37-1.23h3.97v-.7c0-.9-.25-1.58-.75-2.06-.5-.48-1.23-.72-2.19-.72-.79,0-1.5,.17-2.14,.51-.64,.34-1.32,.9-2.05,1.66l-2.24-2.66c1.83-2.18,4.14-3.26,6.91-3.26,2.09,0,3.74,.59,4.96,1.78s1.82,2.85,1.82,5.01Zm-4.32,3.49v-.19h-3.39c-1.47,0-2.21,.53-2.21,1.6,0,.53,.21,.96,.62,1.26,.42,.31,.96,.46,1.65,.46,.96,0,1.75-.29,2.38-.88,.63-.59,.94-1.34,.94-2.26Z"/>
        <path d="M876.59,30.33v9.82h-4.29v-9.22c0-.92-.27-1.66-.82-2.22-.54-.57-1.25-.85-2.13-.85s-1.6,.28-2.16,.85c-.57,.56-.85,1.31-.85,2.22v9.22h-4.32V16.16h4.32v9.5c1.13-1.13,2.58-1.7,4.35-1.7s3.22,.58,4.29,1.74c1.07,1.16,1.6,2.7,1.6,4.62Z"/>
        <path d="M880.75,40.16V16.16h4.32v24h-4.32Z"/>
        <path d="M899.54,36.54v3.62c-1.02,.26-2.02,.38-2.98,.38-2.03,0-3.59-.5-4.69-1.5-1.1-1-1.65-2.49-1.65-4.45v-6.62h-2.5v-3.65h2.5v-4h4.32v4h4.48v3.65h-4.48v6.24c0,.9,.23,1.53,.69,1.9,.46,.37,1.21,.56,2.26,.56,.36,0,1.04-.04,2.05-.13Z"/>
        <path d="M911.92,40.16V19.04h4.32v21.12h-4.32Z"/>
        <path d="M935.18,30.33v9.82h-4.29v-9.25c0-.92-.27-1.66-.82-2.22-.54-.56-1.25-.85-2.13-.85s-1.59,.28-2.16,.85c-.57,.57-.85,1.31-.85,2.22v9.25h-4.32v-15.84h3.97v1.44c1.19-1.19,2.74-1.79,4.64-1.79s3.29,.58,4.35,1.73c1.07,1.15,1.6,2.7,1.6,4.64Z"/>
        <path d="M950.86,16.16h4.32v24h-3.97v-1.95c-1.09,1.56-2.78,2.34-5.09,2.34s-4.05-.78-5.5-2.35c-1.45-1.57-2.18-3.55-2.18-5.94s.72-4.37,2.18-5.94c1.45-1.57,3.29-2.35,5.5-2.35,2,0,3.58,.63,4.74,1.89v-9.7Zm-1.07,19.3c.76-.77,1.14-1.83,1.14-3.2s-.38-2.44-1.15-3.22c-.77-.78-1.72-1.17-2.85-1.17s-2.15,.41-2.93,1.22-1.17,1.86-1.17,3.14,.38,2.36,1.15,3.17c.77,.81,1.75,1.22,2.94,1.22s2.11-.38,2.86-1.15Z"/>
        <path d="M974.03,33.69h-11.1c.26,1,.77,1.78,1.55,2.32,.78,.54,1.74,.82,2.9,.82,1.56,0,3.03-.53,4.42-1.6l1.79,2.94c-1.9,1.58-4.01,2.37-6.34,2.37-2.43,.04-4.5-.75-6.19-2.38-1.7-1.63-2.52-3.6-2.48-5.9-.04-2.28,.76-4.24,2.4-5.89,1.64-1.64,3.6-2.44,5.89-2.4,2.18,0,3.96,.7,5.36,2.11,1.4,1.41,2.1,3.16,2.1,5.25,0,.77-.1,1.56-.29,2.37Zm-11.1-3.04h7.2c-.02-.96-.36-1.73-1.01-2.32-.65-.59-1.46-.88-2.42-.88s-1.72,.29-2.4,.86-1.14,1.36-1.38,2.34Z"/>
        <path d="M991.95,40.16h-4.83l-3.39-5.06-3.42,5.06h-4.83l5.79-8.16-5.41-7.68h4.83l3.04,4.58,3.01-4.58h4.83l-5.44,7.65,5.82,8.19Z"/>
        <path d="M1004.08,24.32v3.81h-1.15c-1.32,0-2.36,.35-3.12,1.06-.76,.71-1.14,1.73-1.14,3.07v7.9h-4.32v-15.84h3.97v1.89c1.11-1.39,2.56-2.08,4.35-2.08,.53,0,1,.06,1.41,.19Z"/>
        <path d="M1021.01,33.69h-11.1c.26,1,.77,1.78,1.55,2.32,.78,.54,1.74,.82,2.9,.82,1.56,0,3.03-.53,4.42-1.6l1.79,2.94c-1.9,1.58-4.01,2.37-6.34,2.37-2.43,.04-4.5-.75-6.19-2.38-1.7-1.63-2.52-3.6-2.48-5.9-.04-2.28,.76-4.24,2.4-5.89,1.64-1.64,3.6-2.44,5.89-2.4,2.18,0,3.96,.7,5.36,2.11,1.4,1.41,2.1,3.16,2.1,5.25,0,.77-.1,1.56-.29,2.37Zm-11.1-3.04h7.2c-.02-.96-.36-1.73-1.01-2.32-.65-.59-1.46-.88-2.42-.88s-1.72,.29-2.4,.86-1.14,1.36-1.38,2.34Z"/>
        <path d="M1039.21,30.33v9.82h-4.29v-9.25c0-.92-.27-1.66-.82-2.22-.54-.56-1.25-.85-2.13-.85s-1.59,.28-2.16,.85c-.57,.57-.85,1.31-.85,2.22v9.25h-4.32v-15.84h3.97v1.44c1.19-1.19,2.74-1.79,4.64-1.79s3.29,.58,4.35,1.73c1.07,1.15,1.6,2.7,1.6,4.64Z"/>
        <path d="M1054.89,16.16h4.32v24h-3.97v-1.95c-1.09,1.56-2.78,2.34-5.09,2.34s-4.05-.78-5.5-2.35c-1.45-1.57-2.18-3.55-2.18-5.94s.72-4.37,2.18-5.94c1.45-1.57,3.29-2.35,5.5-2.35,2,0,3.58,.63,4.74,1.89v-9.7Zm-1.07,19.3c.76-.77,1.14-1.83,1.14-3.2s-.38-2.44-1.15-3.22c-.77-.78-1.72-1.17-2.85-1.17s-2.15,.41-2.93,1.22-1.17,1.86-1.17,3.14,.38,2.36,1.15,3.17c.77,.81,1.75,1.22,2.94,1.22s2.11-.38,2.86-1.15Z"/>
        <path d="M1062.89,18.56c0-.77,.27-1.41,.8-1.92,.53-.51,1.18-.77,1.95-.77s1.42,.26,1.97,.77c.54,.51,.82,1.15,.82,1.92s-.27,1.38-.82,1.89c-.54,.51-1.2,.77-1.97,.77s-1.42-.26-1.95-.77c-.53-.51-.8-1.14-.8-1.89Zm.61,21.6v-15.84h4.32v15.84h-4.32Z"/>
        <path d="M1082.29,36.54v3.62c-1.02,.26-2.02,.38-2.98,.38-2.03,0-3.59-.5-4.69-1.5-1.1-1-1.65-2.49-1.65-4.45v-6.62h-2.5v-3.65h2.5v-4h4.32v4h4.48v3.65h-4.48v6.24c0,.9,.23,1.53,.69,1.9,.46,.37,1.21,.56,2.26,.56,.36,0,1.04-.04,2.05-.13Z"/>
        <path d="M1099.66,33.69h-11.1c.26,1,.77,1.78,1.55,2.32,.78,.54,1.74,.82,2.9,.82,1.56,0,3.03-.53,4.42-1.6l1.79,2.94c-1.9,1.58-4.01,2.37-6.34,2.37-2.43,.04-4.5-.75-6.19-2.38-1.7-1.63-2.52-3.6-2.48-5.9-.04-2.28,.76-4.24,2.4-5.89,1.64-1.64,3.6-2.44,5.89-2.4,2.18,0,3.96,.7,5.36,2.11,1.4,1.41,2.1,3.16,2.1,5.25,0,.77-.1,1.56-.29,2.37Zm-11.1-3.04h7.2c-.02-.96-.36-1.73-1.01-2.32-.65-.59-1.46-.88-2.42-.88s-1.72,.29-2.4,.86-1.14,1.36-1.38,2.34Z"/>
      </g>
      <g>
        <path d="M1173.68,687.23v-24h4.32v24h-4.32Z"/>
        <path d="M1196.85,680.77h-11.1c.26,1,.77,1.78,1.55,2.32,.78,.54,1.74,.82,2.9,.82,1.56,0,3.03-.53,4.42-1.6l1.79,2.94c-1.9,1.58-4.01,2.37-6.34,2.37-2.43,.04-4.5-.75-6.19-2.38-1.7-1.63-2.52-3.6-2.48-5.9-.04-2.28,.76-4.25,2.4-5.89,1.64-1.64,3.61-2.44,5.89-2.4,2.18,0,3.96,.7,5.36,2.11s2.1,3.16,2.1,5.25c0,.77-.1,1.56-.29,2.37Zm-11.1-3.04h7.2c-.02-.96-.36-1.73-1.01-2.32-.65-.59-1.46-.88-2.42-.88s-1.72,.29-2.4,.87c-.68,.58-1.14,1.35-1.38,2.34Z"/>
        <path d="M1212.43,671.39h3.97v14.08c0,2.54-.74,4.49-2.21,5.86-1.47,1.37-3.47,2.05-5.98,2.05-2.97,0-5.56-.98-7.78-2.94l2.27-3.01c1.83,1.37,3.55,2.05,5.15,2.05,1.3,0,2.33-.32,3.09-.96,.76-.64,1.14-1.57,1.14-2.78v-.87c-1.15,1.26-2.76,1.89-4.83,1.89-2.2,0-4.01-.74-5.44-2.21-1.43-1.47-2.14-3.36-2.14-5.66s.71-4.21,2.14-5.66c1.43-1.45,3.24-2.18,5.44-2.18s4.03,.78,5.18,2.34v-1.98Zm-.29,7.42c0-1.3-.38-2.31-1.14-3.02-.76-.71-1.71-1.07-2.86-1.07s-2.18,.37-2.94,1.12c-.77,.75-1.15,1.75-1.15,3.01s.39,2.28,1.17,3.07c.78,.79,1.75,1.18,2.93,1.18s2.08-.38,2.85-1.15c.77-.77,1.15-1.81,1.15-3.14Z"/>
        <path d="M1230.86,683.61v3.62c-1.02,.26-2.02,.38-2.98,.38-2.03,0-3.59-.5-4.69-1.5-1.1-1-1.65-2.48-1.65-4.45v-6.62h-2.5v-3.65h2.5v-4h4.32v4h4.48v3.65h-4.48v6.24c0,.9,.23,1.53,.69,1.9,.46,.37,1.21,.56,2.26,.56,.36,0,1.04-.04,2.05-.13Z"/>
        <path d="M1266.73,666.11h4.8l-8.45,21.5h-1.41l-5.89-13.25-5.92,13.25h-1.41l-8.45-21.5h4.8l4.7,12.48,5.54-12.86h1.44l5.54,12.8,4.7-12.42Z"/>
        <path d="M1287.12,680.77h-11.1c.26,1,.77,1.78,1.55,2.32,.78,.54,1.74,.82,2.9,.82,1.56,0,3.03-.53,4.42-1.6l1.79,2.94c-1.9,1.58-4.01,2.37-6.34,2.37-2.43,.04-4.5-.75-6.19-2.38-1.7-1.63-2.52-3.6-2.48-5.9-.04-2.28,.76-4.25,2.4-5.89,1.64-1.64,3.6-2.44,5.89-2.4,2.18,0,3.96,.7,5.36,2.11,1.4,1.41,2.1,3.16,2.1,5.25,0,.77-.1,1.56-.29,2.37Zm-11.1-3.04h7.2c-.02-.96-.36-1.73-1.01-2.32-.65-.59-1.46-.88-2.42-.88s-1.72,.29-2.4,.87c-.68,.58-1.14,1.35-1.38,2.34Z"/>
        <path d="M1300.49,671.39v3.81h-1.15c-1.32,0-2.36,.35-3.12,1.06-.76,.7-1.14,1.73-1.14,3.07v7.9h-4.32v-15.84h3.97v1.89c1.11-1.39,2.56-2.08,4.35-2.08,.53,0,1,.06,1.41,.19Z"/>
        <path d="M1313.36,683.61v3.62c-1.02,.26-2.02,.38-2.98,.38-2.03,0-3.59-.5-4.69-1.5-1.1-1-1.65-2.48-1.65-4.45v-6.62h-2.5v-3.65h2.5v-4h4.32v4h4.48v3.65h-4.48v6.24c0,.9,.23,1.53,.69,1.9,.46,.37,1.21,.56,2.26,.56,.36,0,1.04-.04,2.05-.13Z"/>
        <path d="M1331.04,673.39c1.46,1.57,2.19,3.54,2.19,5.9s-.73,4.35-2.19,5.94c-1.46,1.59-3.29,2.38-5.49,2.38-1.98,0-3.56-.64-4.74-1.92v7.3h-4.32v-21.6h3.97v1.98c1.09-1.56,2.78-2.34,5.09-2.34s4.03,.78,5.49,2.35Zm-2.19,5.94c0-1.3-.38-2.36-1.15-3.17-.77-.81-1.75-1.22-2.94-1.22s-2.11,.38-2.86,1.15c-.76,.77-1.14,1.84-1.14,3.2s.38,2.44,1.14,3.22c.76,.78,1.71,1.17,2.86,1.17s2.15-.4,2.93-1.22c.78-.81,1.17-1.86,1.17-3.14Z"/>
        <path d="M1349.9,677.82v9.41h-3.97v-1.54c-1.24,1.28-2.85,1.92-4.83,1.92-1.66,0-2.99-.44-3.98-1.31-.99-.87-1.49-2.02-1.49-3.42s.54-2.55,1.62-3.38c1.08-.82,2.53-1.23,4.37-1.23h3.97v-.7c0-.9-.25-1.58-.75-2.06s-1.23-.72-2.19-.72c-.79,0-1.5,.17-2.14,.51-.64,.34-1.32,.9-2.05,1.66l-2.24-2.66c1.83-2.18,4.14-3.26,6.91-3.26,2.09,0,3.74,.59,4.96,1.78,1.22,1.18,1.82,2.85,1.82,5.01Zm-4.32,3.49v-.19h-3.39c-1.47,0-2.21,.53-2.21,1.6,0,.53,.21,.96,.62,1.26,.42,.31,.96,.46,1.65,.46,.96,0,1.75-.29,2.38-.88,.63-.59,.94-1.34,.94-2.26Z"/>
        <path d="M1368.61,673.39c1.46,1.57,2.19,3.54,2.19,5.9s-.73,4.35-2.19,5.94c-1.46,1.59-3.29,2.38-5.49,2.38-1.98,0-3.56-.64-4.74-1.92v7.3h-4.32v-21.6h3.97v1.98c1.09-1.56,2.78-2.34,5.09-2.34s4.03,.78,5.49,2.35Zm-2.19,5.94c0-1.3-.38-2.36-1.15-3.17-.77-.81-1.75-1.22-2.94-1.22s-2.11,.38-2.86,1.15c-.76,.77-1.14,1.84-1.14,3.2s.38,2.44,1.14,3.22c.76,.78,1.71,1.17,2.86,1.17s2.15-.4,2.93-1.22c.78-.81,1.17-1.86,1.17-3.14Z"/>
        <path d="M1373.58,665.63c0-.77,.27-1.41,.8-1.92s1.18-.77,1.95-.77,1.42,.26,1.97,.77,.82,1.15,.82,1.92-.27,1.38-.82,1.89-1.2,.77-1.97,.77-1.42-.26-1.95-.77-.8-1.14-.8-1.89Zm.61,21.6v-15.84h4.32v15.84h-4.32Z"/>
        <path d="M1397.36,680.77h-11.1c.26,1,.77,1.78,1.55,2.32,.78,.54,1.74,.82,2.9,.82,1.56,0,3.03-.53,4.42-1.6l1.79,2.94c-1.9,1.58-4.01,2.37-6.34,2.37-2.43,.04-4.5-.75-6.19-2.38-1.7-1.63-2.52-3.6-2.48-5.9-.04-2.28,.76-4.25,2.4-5.89,1.64-1.64,3.6-2.44,5.89-2.4,2.18,0,3.96,.7,5.36,2.11,1.4,1.41,2.1,3.16,2.1,5.25,0,.77-.1,1.56-.29,2.37Zm-11.1-3.04h7.2c-.02-.96-.36-1.73-1.01-2.32-.65-.59-1.46-.88-2.42-.88s-1.72,.29-2.4,.87c-.68,.58-1.14,1.35-1.38,2.34Z"/>
        <path d="M1410.73,671.39v3.81h-1.15c-1.32,0-2.36,.35-3.12,1.06-.76,.7-1.14,1.73-1.14,3.07v7.9h-4.32v-15.84h3.97v1.89c1.11-1.39,2.56-2.08,4.35-2.08,.53,0,1,.06,1.41,.19Z"/>
        <path d="M1427.66,680.77h-11.1c.26,1,.77,1.78,1.55,2.32,.78,.54,1.74,.82,2.9,.82,1.56,0,3.03-.53,4.42-1.6l1.79,2.94c-1.9,1.58-4.01,2.37-6.34,2.37-2.43,.04-4.5-.75-6.19-2.38-1.7-1.63-2.52-3.6-2.48-5.9-.04-2.28,.76-4.25,2.4-5.89,1.64-1.64,3.6-2.44,5.89-2.4,2.18,0,3.96,.7,5.36,2.11,1.4,1.41,2.1,3.16,2.1,5.25,0,.77-.1,1.56-.29,2.37Zm-11.1-3.04h7.2c-.02-.96-.36-1.73-1.01-2.32-.65-.59-1.46-.88-2.42-.88s-1.72,.29-2.4,.87c-.68,.58-1.14,1.35-1.38,2.34Z"/>
        <path d="M1445.32,669.18v2.21h3.49v3.65h-3.49v12.19h-4.32v-12.19h-2.24v-3.65h2.24v-2.59c0-1.96,.53-3.44,1.6-4.45,1.07-1,2.57-1.5,4.51-1.5,.81,0,1.6,.12,2.37,.35v3.62c-.47-.06-.9-.1-1.28-.1-1,0-1.73,.19-2.19,.58s-.69,1.01-.69,1.89Z"/>
        <path d="M1465.77,680.77h-11.1c.26,1,.77,1.78,1.55,2.32,.78,.54,1.74,.82,2.9,.82,1.56,0,3.03-.53,4.42-1.6l1.79,2.94c-1.9,1.58-4.01,2.37-6.34,2.37-2.43,.04-4.5-.75-6.19-2.38-1.7-1.63-2.52-3.6-2.48-5.9-.04-2.28,.76-4.25,2.4-5.89,1.64-1.64,3.6-2.44,5.89-2.4,2.18,0,3.96,.7,5.36,2.11,1.4,1.41,2.1,3.16,2.1,5.25,0,.77-.1,1.56-.29,2.37Zm-11.1-3.04h7.2c-.02-.96-.36-1.73-1.01-2.32-.65-.59-1.46-.88-2.42-.88s-1.72,.29-2.4,.87c-.68,.58-1.14,1.35-1.38,2.34Z"/>
        <path d="M1467.98,684.54l2.18-2.62c1.37,1.43,2.85,2.14,4.45,2.14,.6,0,1.08-.11,1.46-.34,.37-.22,.56-.55,.56-.98,0-.32-.11-.57-.34-.75-.22-.18-.66-.41-1.3-.69l-1.7-.71c-1.51-.62-2.61-1.29-3.3-2.03s-1.02-1.67-1.02-2.8c0-1.47,.53-2.63,1.6-3.47,1.07-.84,2.47-1.26,4.22-1.26,2.35,0,4.25,.79,5.7,2.37l-2.18,2.66c-1.07-1-2.25-1.5-3.55-1.5-1.13,0-1.7,.37-1.7,1.12,0,.3,.12,.54,.35,.74,.24,.19,.67,.42,1.31,.67l1.54,.64c1.58,.64,2.71,1.32,3.41,2.05,.69,.73,1.04,1.65,1.04,2.79,0,1.58-.59,2.82-1.76,3.71-1.15,.9-2.62,1.34-4.42,1.34-2.84,0-5.02-1.02-6.56-3.07Z"/>
        <path d="M1494.16,683.61v3.62c-1.02,.26-2.02,.38-2.98,.38-2.03,0-3.59-.5-4.69-1.5-1.1-1-1.65-2.48-1.65-4.45v-6.62h-2.5v-3.65h2.5v-4h4.32v4h4.48v3.65h-4.48v6.24c0,.9,.23,1.53,.69,1.9,.46,.37,1.21,.56,2.26,.56,.36,0,1.04-.04,2.05-.13Z"/>
      </g>
      <g>
        <path d="M845.72,426.58h7.58v3.65h-13.92v-1.15l7.58-11.04h-6.85v-3.65h13.12v1.15l-7.52,11.04Z"/>
        <path d="M869.24,420.82v9.41h-3.97v-1.54c-1.24,1.28-2.85,1.92-4.83,1.92-1.66,0-2.99-.44-3.98-1.31-.99-.88-1.49-2.02-1.49-3.42s.54-2.55,1.62-3.38c1.08-.82,2.53-1.23,4.37-1.23h3.97v-.7c0-.9-.25-1.58-.75-2.06-.5-.48-1.23-.72-2.19-.72-.79,0-1.5,.17-2.14,.51-.64,.34-1.32,.9-2.05,1.66l-2.24-2.66c1.83-2.18,4.14-3.26,6.91-3.26,2.09,0,3.74,.59,4.96,1.78,1.22,1.18,1.82,2.85,1.82,5.01Zm-4.32,3.49v-.19h-3.39c-1.47,0-2.21,.53-2.21,1.6,0,.53,.21,.96,.62,1.26,.42,.31,.96,.46,1.65,.46,.96,0,1.75-.29,2.38-.88,.63-.59,.94-1.34,.94-2.26Z"/>
        <path d="M887.96,420.41v9.82h-4.29v-9.22c0-.92-.27-1.66-.82-2.22-.54-.57-1.25-.85-2.13-.85s-1.59,.28-2.16,.85c-.57,.56-.85,1.31-.85,2.22v9.22h-4.32v-24h4.32v9.5c1.13-1.13,2.58-1.7,4.35-1.7s3.22,.58,4.29,1.74c1.07,1.16,1.6,2.7,1.6,4.62Z"/>
        <path d="M892.12,430.23v-24h4.32v24h-4.32Z"/>
        <path d="M910.9,426.61v3.62c-1.02,.26-2.02,.38-2.98,.38-2.03,0-3.59-.5-4.69-1.5s-1.65-2.49-1.65-4.45v-6.62h-2.5v-3.65h2.5v-4h4.32v4h4.48v3.65h-4.48v6.24c0,.9,.23,1.53,.69,1.9,.46,.37,1.21,.56,2.26,.56,.36,0,1.04-.04,2.05-.13Z"/>
        <path d="M922.07,419.67c-.06-3.03,1.02-5.62,3.25-7.78s4.91-3.21,8.05-3.17c3.78,0,6.74,1.53,8.9,4.58l-3.07,2.53c-1.49-2.07-3.46-3.1-5.89-3.1-2.01,0-3.64,.65-4.9,1.95s-1.89,2.97-1.89,4.99,.65,3.77,1.95,5.09c1.3,1.32,3,1.98,5.09,1.98,2.45,0,4.31-.87,5.57-2.62v-1.73h-5.82v-3.74h10.14v6.24c-.98,1.73-2.36,3.12-4.13,4.16-1.75,1.04-3.73,1.57-5.95,1.57-3.09,.06-5.76-.99-8-3.15-2.24-2.17-3.34-4.76-3.3-7.79Z"/>
        <path d="M961.46,423.77h-11.1c.26,1,.77,1.78,1.55,2.32,.78,.54,1.74,.82,2.9,.82,1.56,0,3.03-.53,4.42-1.6l1.79,2.94c-1.9,1.58-4.01,2.37-6.34,2.37-2.43,.04-4.5-.75-6.19-2.38-1.7-1.63-2.52-3.6-2.48-5.9-.04-2.28,.76-4.24,2.4-5.89,1.64-1.64,3.61-2.44,5.89-2.4,2.18,0,3.96,.7,5.36,2.11,1.4,1.41,2.1,3.16,2.1,5.25,0,.77-.1,1.56-.29,2.37Zm-11.1-3.04h7.2c-.02-.96-.36-1.73-1.01-2.32-.65-.59-1.46-.88-2.42-.88s-1.72,.29-2.4,.86-1.14,1.36-1.38,2.34Z"/>
        <path d="M984.82,414.39h4.54l-7.36,16.22h-1.41l-4.54-9.22-4.58,9.22h-1.41l-7.36-16.22h4.54l3.74,9.02,4.32-9.38h1.44l4.38,9.18,3.68-8.83Z"/>
        <path d="M991.29,408.63c0-.77,.27-1.41,.8-1.92,.53-.51,1.18-.77,1.95-.77s1.42,.26,1.97,.77c.54,.51,.82,1.15,.82,1.92s-.27,1.38-.82,1.89c-.54,.51-1.2,.77-1.97,.77s-1.42-.26-1.95-.77c-.53-.51-.8-1.14-.8-1.89Zm.61,21.6v-15.84h4.32v15.84h-4.32Z"/>
        <path d="M1015.06,420.41v9.82h-4.29v-9.25c0-.92-.27-1.66-.82-2.22-.54-.56-1.25-.85-2.13-.85s-1.59,.28-2.16,.85c-.57,.57-.85,1.31-.85,2.22v9.25h-4.32v-15.84h3.97v1.44c1.19-1.19,2.74-1.79,4.64-1.79s3.29,.58,4.35,1.73c1.07,1.15,1.6,2.7,1.6,4.64Z"/>
        <path d="M1033.78,420.41v9.82h-4.29v-9.25c0-.92-.27-1.66-.82-2.22-.54-.56-1.25-.85-2.13-.85s-1.59,.28-2.16,.85c-.57,.57-.85,1.31-.85,2.22v9.25h-4.32v-15.84h3.97v1.44c1.19-1.19,2.74-1.79,4.64-1.79s3.29,.58,4.35,1.73c1.07,1.15,1.6,2.7,1.6,4.64Z"/>
      </g>
      <g>
        <path class="cls-2" d="M722.85,338.73c40.5,16.96,97.4,35.25,167.45,41.42,130.89,11.53,235.43-25.6,289.49-49.67"/>
        <polygon points="1180.4 335.55 1186.32 327.53 1176.42 326.41 1180.4 335.55"/>
      </g>
      <rect class="cls-6" y="-1" width="1600" height="942.47"/>
    </g>
  </g>
</svg>