<?xml version="1.0" encoding="UTF-8"?>
<svg id="Ebene_2" data-name="Ebene 2" xmlns="http://www.w3.org/2000/svg" xmlns:xlink="http://www.w3.org/1999/xlink" viewBox="0 0 1600.25 942.72">
  <defs>
    <style>
      .cls-1 {
        fill: url(#linear-gradient-2);
      }

      .cls-2 {
        fill: #fff;
      }

      .cls-3, .cls-4, .cls-5 {
        fill: none;
        stroke: #000;
        stroke-miterlimit: 10;
      }

      .cls-6 {
        fill: #9a2900;
      }

      .cls-7 {
        fill: #253c78;
      }

      .cls-8 {
        fill: #bcc8ea;
      }

      .cls-9 {
        fill: #1c2d5a;
      }

      .cls-10 {
        fill: #3a5ebb;
      }

      .cls-4 {
        stroke-width: .25px;
      }

      .cls-11 {
        fill: #131e3c;
      }

      .cls-5 {
        stroke-width: 2px;
      }

      .cls-12 {
        font-family: QuattrocentoSans-Bold, 'Quattrocento Sans';
        font-size: 68px;
        font-weight: 700;
      }

      .cls-13 {
        fill: #ffb59a;
      }

      .cls-14 {
        fill: #090f1e;
      }

      .cls-15 {
        fill: url(#Unbenannter_Verlauf_29);
      }

      .cls-16 {
        fill: #ff9068;
      }

      .cls-17 {
        fill: #7892d5;
      }

      .cls-18 {
        letter-spacing: -.02em;
      }

      .cls-19 {
        fill: #4d1500;
      }

      .cls-20 {
        fill: #cdd6ef;
      }

      .cls-21 {
        fill: #ffdacd;
      }

      .cls-22 {
        fill: #1a1a1a;
      }

      .cls-23 {
        fill: url(#linear-gradient);
      }

      .cls-24 {
        fill: #ff6b35;
      }

      .cls-25 {
        fill: #e73e00;
      }
    </style>
    <linearGradient id="Unbenannter_Verlauf_29" data-name="Unbenannter Verlauf 29" x1="814.47" y1="785.82" x2="814.8" y2="752.04" gradientUnits="userSpaceOnUse">
      <stop offset=".23" stop-color="#1a1a1a"/>
      <stop offset=".39" stop-color="#3c3c3c"/>
      <stop offset=".55" stop-color="#5a5a5a"/>
      <stop offset=".64" stop-color="#666"/>
    </linearGradient>
    <linearGradient id="linear-gradient" x1="842.61" y1="555.3" x2="941.38" y2="456.97" gradientUnits="userSpaceOnUse">
      <stop offset="0" stop-color="#1a1a1a"/>
      <stop offset=".23" stop-color="#1c1c1c"/>
      <stop offset=".38" stop-color="#252526"/>
      <stop offset=".52" stop-color="#343435"/>
      <stop offset=".64" stop-color="#4a4a4b"/>
      <stop offset=".76" stop-color="#656667"/>
      <stop offset=".87" stop-color="#87888a"/>
      <stop offset=".97" stop-color="#aeafb3"/>
      <stop offset="1" stop-color="#babbbf"/>
    </linearGradient>
    <linearGradient id="linear-gradient-2" x1="777.2" y1="507.85" x2="968.4" y2="912.71" xlink:href="#linear-gradient"/>
  </defs>
  <g id="Ebene_1-2" data-name="Ebene 1">
    <rect class="cls-4" x=".12" y=".12" width="1600" height="942.47"/>
    <g>
      <polygon class="cls-22" points="883.07 769.28 747.23 769.28 752.79 721.03 876.01 721.03 883.07 769.28"/>
      <path class="cls-15" d="M883.07,769.28l21.95,2.41c1.48,.16,2.55,.89,2.55,1.73h-185.94c0-1.19,1.56-2.19,3.67-2.36l21.94-1.77h135.84Z"/>
      <path class="cls-2" d="M721.62,773.41h185.94c0,.8-.65,1.45-1.45,1.45h-183.05c-.8,0-1.45-.65-1.45-1.45h0Z"/>
      <g>
        <path class="cls-23" d="M999.98,449.45h-370.77c-7.68,0-13.96,6.18-13.96,13.73v240.79c0,7.55,6.28,13.73,13.96,13.73l369.84-.28c7.68,0,14.48-5.84,14.48-13.39l.42-240.85c0-7.55-6.28-13.73-13.96-13.73Z"/>
        <path class="cls-1" d="M1000.58,450.6h-371.98c-7.71,0-14.01,6.29-14.01,13.97v244.92c0,7.68,6.3,13.97,14.01,13.97h371.98c7.71,0,14.01-6.29,14.01-13.97v-244.92c0-7.68-6.3-13.97-14.01-13.97Z"/>
        <rect class="cls-2" x="628.41" y="464.71" width="372.35" height="242.41"/>
      </g>
    </g>
    <g>
      <path d="M748.69,573.36h-8.4v8.4h12.05v4.2h-16.88v-27.72h16.04v4.2h-11.21v6.72h8.4v4.2Z"/>
      <path d="M775.73,562.44h-8.02v23.52h-4.83v-23.52h-8.02v-4.2h20.87v4.2Z"/>
      <path d="M793.08,573.36h-7.94v12.6h-4.83v-27.72h15.83v4.2h-11v6.72h7.94v4.2Z"/>
      <path d="M818.53,573.45l8.23,12.52h-5.04l-6.26-9.49-1.64,1.64v7.85h-4.62v-31.08h4.62v17.93l6.43-6.17h5.17l-6.89,6.8Z"/>
      <path d="M841.51,585.96l-.34-2.65h-.17c-.76,.95-1.79,1.72-3.09,2.29-1.3,.57-2.62,.86-3.97,.86-1.76,0-3.15-.51-4.16-1.53-1.01-1.02-1.51-2.37-1.51-4.05,0-1.15,.25-2.18,.74-3.09,.49-.91,1.2-1.68,2.12-2.31s2.03-1.11,3.32-1.45c1.29-.34,2.73-.5,4.33-.5h1.81v-.63c0-1.09-.35-1.89-1.05-2.39-.73-.5-1.86-.76-3.4-.76-2.07,0-3.92,.46-5.54,1.39l-.88-3.49c1.88-1.09,4.14-1.64,6.8-1.64,2.8,0,4.93,.57,6.38,1.72,.67,.53,1.22,1.22,1.66,2.06,.43,.84,.65,1.85,.65,3.02v13.15h-3.7Zm-5.75-3.23c.9,0,1.79-.22,2.69-.65,.9-.43,1.61-1.01,2.14-1.74v-3.82h-.8c-2.3,0-3.97,.29-5.02,.88s-1.58,1.53-1.58,2.81c0,1.68,.85,2.52,2.56,2.52Z"/>
      <path d="M855.24,566.64v12.56c0,1.15,.3,2.02,.9,2.62,.6,.6,1.38,.9,2.33,.9s1.88-.33,2.69-.99c.81-.66,1.41-1.6,1.81-2.83v-12.26h4.66v19.32h-3.61l-.25-2.69h-.17c-.31,.64-.7,1.17-1.18,1.58-.48,.41-1,.73-1.58,.97-.57,.24-1.17,.41-1.79,.5-.62,.1-1.22,.15-1.81,.15-.92,0-1.79-.11-2.58-.34s-1.5-.59-2.1-1.11-1.08-1.2-1.43-2.06c-.35-.85-.52-1.91-.52-3.17v-13.15h4.62Z"/>
      <path d="M874.35,569.46h-2.39v-2.39l2.39-.38c0-1.6,.05-2.95,.15-4.07,.1-1.12,.23-2.06,.4-2.83,.17-.77,.36-1.39,.57-1.87,.21-.48,.43-.87,.65-1.18,.56-.73,1.29-1.25,2.21-1.58,.91-.32,1.91-.48,3-.48h.67c.31,0,.65,.03,1.03,.09,.38,.06,.77,.15,1.18,.29,.41,.13,.78,.3,1.11,.51l-1.05,3.57c-.28-.17-.74-.4-1.39-.69-.64-.29-1.27-.44-1.89-.44-.36,0-.67,.08-.92,.25-.25,.17-.46,.48-.63,.92-.17,.45-.29,1.05-.36,1.81-.07,.76-.1,1.72-.1,2.9v2.77h3.7v2.81h-3.7v16.51h-4.62v-16.51Z"/>
      <path d="M887.33,569.46h-2.39v-2.52l2.73-.42,.76-5.71h3.53v5.84h3.7v2.81h-3.7v11.09c0,.84,.08,1.41,.25,1.7,.17,.29,.49,.44,.97,.44,.36,0,.73-.07,1.09-.21,.36-.14,.9-.41,1.6-.8l.76,3.32c-.53,.45-1.28,.81-2.25,1.07-.97,.27-1.93,.4-2.88,.4-.84,0-1.53-.11-2.08-.34s-.97-.55-1.28-.99c-.31-.43-.52-.96-.63-1.58-.11-.62-.17-1.3-.17-2.06v-12.05Z"/>
    </g>
    <g>
      <path d="M205.35,366.33h-7.82v-44.88h7.82v44.88Z"/>
      <path d="M236.57,366.33v-20.67c0-3.72-1.59-5.58-4.76-5.58-.77,0-1.6,.14-2.48,.41-.88,.27-1.73,.67-2.55,1.19-.82,.52-1.55,1.17-2.21,1.94-.66,.77-1.15,1.66-1.46,2.65v20.06h-7.48v-31.28h5.85l.34,4.62h.27c.95-1.9,2.44-3.32,4.45-4.25,2.02-.93,4.18-1.39,6.49-1.39,1.5,0,2.9,.19,4.22,.58,1.31,.39,2.48,1.01,3.5,1.87,1.02,.86,1.82,2,2.41,3.4,.59,1.41,.88,3.13,.88,5.17v21.28h-7.48Z"/>
      <path d="M265.26,367.14c-2.13,0-4.08-.43-5.85-1.29-1.77-.86-3.28-2.04-4.52-3.54-1.25-1.5-2.21-3.26-2.89-5.3s-1.02-4.26-1.02-6.66c0-2.13,.28-4.18,.85-6.15,.57-1.97,1.44-3.71,2.62-5.2,1.18-1.5,2.64-2.7,4.39-3.6,1.75-.91,3.82-1.36,6.22-1.36,2.18,0,4.12,.36,5.85,1.09,1.72,.73,3.1,1.75,4.15,3.06v-22.17h7.41v50.32h-5.98l-.54-4.28h-.27c-1.27,1.41-2.71,2.61-4.32,3.6s-3.64,1.5-6.09,1.5Zm.95-5.64c.72,0,1.5-.1,2.31-.31,.82-.2,1.62-.49,2.41-.85,.79-.36,1.55-.8,2.28-1.33,.72-.52,1.34-1.12,1.84-1.8v-13.06c-1.36-1.68-2.74-2.82-4.15-3.43-1.41-.61-2.77-.92-4.08-.92-1.45,0-2.7,.28-3.74,.85-1.04,.57-1.92,1.35-2.62,2.35-.7,1-1.22,2.14-1.56,3.43s-.51,2.64-.51,4.05,.16,2.71,.48,4.05c.32,1.34,.79,2.52,1.43,3.54s1.45,1.85,2.45,2.48c1,.64,2.15,.95,3.47,.95Z"/>
      <path d="M306.06,334.03c3.99,0,7.07,1.01,9.25,3.03,2.18,2.02,3.26,4.86,3.26,8.53,0,.5-.03,1.03-.1,1.6-.07,.57-.16,1.12-.27,1.67-.11,.54-.25,1.03-.41,1.46-.16,.43-.33,.78-.51,1.05h-19.79c.09,1.36,.34,2.64,.75,3.84,.41,1.2,1,2.24,1.77,3.13,.77,.88,1.71,1.59,2.82,2.11,1.11,.52,2.41,.78,3.91,.78,1.68,0,3.46-.32,5.34-.95,1.88-.63,3.48-1.43,4.79-2.38l1.22,5.58c-.59,.36-1.32,.76-2.18,1.19-.86,.43-1.84,.83-2.92,1.19-1.09,.36-2.26,.67-3.5,.92-1.25,.25-2.55,.37-3.91,.37-2.54,0-4.78-.44-6.73-1.33-1.95-.88-3.58-2.08-4.9-3.6-1.32-1.52-2.31-3.27-2.99-5.27-.68-1.99-1.02-4.08-1.02-6.26s.35-4.34,1.05-6.36c.7-2.02,1.73-3.8,3.09-5.34,1.36-1.54,3.05-2.75,5.07-3.64,2.02-.88,4.32-1.33,6.9-1.33Zm-.2,5.85c-1.9,0-3.53,.56-4.86,1.67-1.34,1.11-2.3,2.62-2.89,4.52h12.99c.04-.14,.08-.29,.1-.48,.02-.18,.03-.41,.03-.68,0-1.45-.5-2.65-1.5-3.6-1-.95-2.29-1.43-3.88-1.43Z"/>
      <path d="M331.29,335.05l7.34,10.54,7-10.54h8.5l-11.42,15.16,12.1,16.12h-8.5l-7.96-11.42-7.75,11.42h-8.5l12.04-15.98-11.36-15.3h8.5Z"/>
    </g>
    <polygon class="cls-21" points="165.59 438.12 140.59 438.12 128.09 459.77 140.59 481.42 165.59 481.42 178.09 459.77 165.59 438.12"/>
    <polygon class="cls-13" points="224.89 438.12 199.89 438.12 187.39 459.77 199.89 481.42 224.89 481.42 237.39 459.77 224.89 438.12"/>
    <polygon class="cls-16" points="284.47 437.9 259.47 437.9 246.97 459.55 259.47 481.2 284.47 481.2 296.97 459.55 284.47 437.9"/>
    <polygon class="cls-24" points="343.78 437.9 318.78 437.9 306.28 459.55 318.78 481.2 343.78 481.2 356.28 459.55 343.78 437.9"/>
    <polygon class="cls-25" points="404.13 437.9 379.13 437.9 366.63 459.55 379.13 481.2 404.13 481.2 416.63 459.55 404.13 437.9"/>
    <polygon class="cls-6" points="165.86 496.01 140.86 496.01 128.36 517.66 140.86 539.31 165.86 539.31 178.36 517.66 165.86 496.01"/>
    <polygon class="cls-19" points="225.16 496.01 200.16 496.01 187.66 517.66 200.16 539.31 225.16 539.31 237.66 517.66 225.16 496.01"/>
    <polygon class="cls-14" points="284.74 495.79 259.74 495.79 247.24 517.45 259.74 539.1 284.74 539.1 297.24 517.45 284.74 495.79"/>
    <polygon class="cls-11" points="344.05 495.79 319.05 495.79 306.55 517.45 319.05 539.1 344.05 539.1 356.55 517.45 344.05 495.79"/>
    <polygon class="cls-9" points="404.39 495.79 379.39 495.79 366.89 517.45 379.39 539.1 404.39 539.1 416.89 517.45 404.39 495.79"/>
    <polygon class="cls-7" points="166.72 554.06 141.72 554.06 129.22 575.71 141.72 597.36 166.72 597.36 179.22 575.71 166.72 554.06"/>
    <polygon class="cls-10" points="226.03 554.06 201.03 554.06 188.53 575.71 201.03 597.36 226.03 597.36 238.53 575.71 226.03 554.06"/>
    <polygon class="cls-17" points="285.61 553.85 260.61 553.85 248.11 575.5 260.61 597.15 285.61 597.15 298.11 575.5 285.61 553.85"/>
    <polygon class="cls-8" points="344.91 553.85 319.91 553.85 307.41 575.5 319.91 597.15 344.91 597.15 357.41 575.5 344.91 553.85"/>
    <polygon class="cls-20" points="405.26 553.85 380.26 553.85 367.76 575.5 380.26 597.15 405.26 597.15 417.76 575.5 405.26 553.85"/>
    <g>
      <path d="M144.79,465.66h-2.07v-8.75l-1.46,.65-.4-1.8,3.92-1.98v11.88Z"/>
      <path d="M154.26,453.69c.44,0,.84,.09,1.19,.27,.35,.18,.65,.42,.89,.72,.25,.3,.43,.65,.56,1.05,.13,.4,.19,.82,.19,1.27s-.06,.85-.19,1.26c-.13,.41-.31,.77-.56,1.08-.25,.31-.55,.56-.91,.75s-.77,.28-1.24,.28-.85-.09-1.2-.26c-.34-.17-.63-.41-.86-.71-.23-.3-.41-.65-.52-1.05s-.17-.83-.17-1.27c0-.47,.06-.91,.19-1.32s.31-.77,.56-1.08c.25-.31,.54-.55,.89-.72,.35-.17,.74-.26,1.19-.26Zm-.05,5.51c.24,0,.44-.06,.61-.17,.17-.11,.31-.27,.41-.47,.11-.2,.19-.43,.24-.68,.05-.26,.08-.54,.08-.84,0-.65-.11-1.17-.32-1.57-.22-.4-.55-.6-1.01-.6s-.78,.2-.96,.59c-.19,.4-.28,.9-.28,1.51,0,.74,.11,1.3,.32,1.67,.22,.37,.52,.56,.9,.56Zm.74,6.89h-1.62l8.33-12.87h1.62l-8.33,12.87Zm7.47-7.02c.44,0,.84,.09,1.19,.27,.35,.18,.65,.42,.89,.72,.25,.3,.43,.65,.56,1.05,.13,.4,.19,.83,.19,1.27s-.06,.85-.19,1.26c-.13,.41-.31,.77-.56,1.08-.25,.31-.55,.56-.91,.75-.36,.19-.77,.28-1.24,.28s-.85-.09-1.2-.26c-.34-.17-.63-.41-.86-.71s-.41-.65-.52-1.05c-.11-.4-.17-.82-.17-1.27,0-.47,.06-.91,.19-1.32s.31-.77,.56-1.08,.54-.55,.89-.72c.35-.17,.74-.26,1.19-.26Zm-.05,5.51c.24,0,.44-.06,.61-.17,.17-.11,.31-.27,.41-.47,.11-.2,.19-.43,.24-.68,.05-.26,.08-.54,.08-.84,0-.65-.11-1.17-.32-1.57-.22-.4-.55-.6-1.01-.6s-.78,.2-.96,.59-.28,.9-.28,1.51c0,.74,.11,1.3,.32,1.67,.22,.37,.52,.56,.9,.56Z"/>
    </g>
    <g>
      <path d="M198.97,454.42c.46-.28,.98-.5,1.58-.68,.59-.18,1.19-.27,1.77-.27,.5,0,.97,.07,1.39,.22,.42,.14,.78,.35,1.09,.6,.31,.26,.54,.57,.71,.93,.17,.36,.25,.76,.25,1.19,0,.64-.16,1.16-.49,1.56-.32,.4-.73,.74-1.22,1.02,.72,.24,1.28,.6,1.68,1.08,.4,.48,.6,1.11,.6,1.89,0,.5-.09,.98-.27,1.43s-.46,.84-.83,1.18-.83,.6-1.39,.8c-.55,.2-1.19,.3-1.93,.3-1.49,0-2.71-.41-3.67-1.22l.5-1.64c.42,.35,.89,.62,1.4,.83,.52,.2,1.07,.31,1.66,.31,.76,0,1.33-.18,1.72-.53,.39-.35,.58-.87,.58-1.56,0-.61-.18-1.09-.53-1.45s-.94-.53-1.77-.53h-.49v-1.57h.56c.53,0,.94-.17,1.22-.5s.43-.78,.43-1.33c0-.49-.15-.84-.45-1.04-.3-.2-.66-.3-1.08-.3-.23,0-.46,.02-.71,.07-.25,.05-.48,.12-.71,.21-.23,.09-.44,.19-.64,.31-.2,.11-.37,.24-.51,.37l-.47-1.66Z"/>
      <path d="M215.11,453.47c.44,0,.84,.09,1.19,.27,.35,.18,.65,.42,.89,.72,.25,.3,.43,.65,.56,1.05,.13,.4,.19,.82,.19,1.27s-.06,.85-.19,1.26c-.13,.41-.31,.77-.56,1.08-.25,.31-.55,.56-.91,.75s-.77,.28-1.24,.28-.85-.09-1.2-.26c-.34-.17-.63-.41-.86-.71-.23-.3-.41-.65-.52-1.05s-.17-.83-.17-1.27c0-.47,.06-.91,.19-1.32s.31-.77,.56-1.08c.25-.31,.54-.55,.89-.72,.35-.17,.74-.26,1.19-.26Zm-.05,5.51c.24,0,.44-.06,.61-.17,.17-.11,.31-.27,.41-.47,.11-.2,.19-.43,.24-.68,.05-.26,.08-.54,.08-.84,0-.65-.11-1.17-.32-1.57-.22-.4-.55-.6-1.01-.6s-.78,.2-.96,.59c-.19,.4-.28,.9-.28,1.51,0,.74,.11,1.3,.32,1.67,.22,.37,.52,.56,.9,.56Zm.74,6.89h-1.62l8.33-12.87h1.62l-8.33,12.87Zm7.47-7.02c.44,0,.84,.09,1.19,.27,.35,.18,.65,.42,.89,.72,.25,.3,.43,.65,.56,1.05,.13,.4,.19,.83,.19,1.27s-.06,.85-.19,1.26c-.13,.41-.31,.77-.56,1.08-.25,.31-.55,.56-.91,.75-.36,.19-.77,.28-1.24,.28s-.85-.09-1.2-.26c-.34-.17-.63-.41-.86-.71s-.41-.65-.52-1.05c-.11-.4-.17-.82-.17-1.27,0-.47,.06-.91,.19-1.32s.31-.77,.56-1.08,.54-.55,.89-.72c.35-.17,.74-.26,1.19-.26Zm-.05,5.51c.24,0,.44-.06,.61-.17,.17-.11,.31-.27,.41-.47,.11-.2,.19-.43,.24-.68,.05-.26,.08-.54,.08-.84,0-.65-.11-1.17-.32-1.57-.22-.4-.55-.6-1.01-.6s-.78,.2-.96,.59-.28,.9-.28,1.51c0,.74,.11,1.3,.32,1.67,.22,.37,.52,.56,.9,.56Z"/>
    </g>
    <g>
      <path d="M260,460l.7-6.53h6.1v1.89h-4.43l-.27,2.84c.25-.07,.52-.12,.79-.15,.28-.03,.53-.04,.76-.04,.55,0,1.06,.08,1.51,.24s.85,.4,1.19,.71,.6,.69,.78,1.14c.19,.45,.28,.96,.28,1.54s-.09,1.07-.27,1.56c-.18,.49-.45,.91-.82,1.28-.37,.37-.83,.65-1.38,.86-.55,.21-1.2,.31-1.94,.31s-1.41-.1-2.02-.31c-.62-.21-1.16-.51-1.63-.89l.52-1.71c.18,.17,.39,.32,.62,.46,.23,.14,.49,.26,.76,.36s.55,.18,.83,.24c.28,.06,.56,.09,.84,.09,.3,0,.59-.04,.87-.12,.28-.08,.53-.2,.74-.37,.21-.17,.38-.39,.5-.66s.19-.6,.19-.98c0-.29-.04-.55-.11-.79-.07-.24-.19-.44-.36-.61-.17-.17-.39-.3-.67-.4-.28-.1-.64-.14-1.07-.14-.37,0-.78,.04-1.22,.11-.44,.07-.86,.19-1.26,.34l-.52-.27Z"/>
      <path d="M276.13,453.47c.44,0,.84,.09,1.19,.27,.35,.18,.65,.42,.89,.72,.25,.3,.43,.65,.56,1.05,.13,.4,.19,.82,.19,1.27s-.06,.85-.19,1.26c-.13,.41-.31,.77-.56,1.08-.25,.31-.55,.56-.91,.75s-.77,.28-1.24,.28-.85-.09-1.2-.26c-.34-.17-.63-.41-.86-.71-.23-.3-.41-.65-.52-1.05s-.17-.83-.17-1.27c0-.47,.06-.91,.19-1.32s.31-.77,.56-1.08c.25-.31,.54-.55,.89-.72,.35-.17,.74-.26,1.19-.26Zm-.05,5.51c.24,0,.44-.06,.61-.17,.17-.11,.31-.27,.41-.47,.11-.2,.19-.43,.24-.68,.05-.26,.08-.54,.08-.84,0-.65-.11-1.17-.32-1.57-.22-.4-.55-.6-1.01-.6s-.78,.2-.96,.59c-.19,.4-.28,.9-.28,1.51,0,.74,.11,1.3,.32,1.67,.22,.37,.52,.56,.9,.56Zm.74,6.89h-1.62l8.33-12.87h1.62l-8.33,12.87Zm7.47-7.02c.44,0,.84,.09,1.19,.27,.35,.18,.65,.42,.89,.72,.25,.3,.43,.65,.56,1.05,.13,.4,.19,.83,.19,1.27s-.06,.85-.19,1.26c-.13,.41-.31,.77-.56,1.08-.25,.31-.55,.56-.91,.75-.36,.19-.77,.28-1.24,.28s-.85-.09-1.2-.26c-.34-.17-.63-.41-.86-.71s-.41-.65-.52-1.05c-.11-.4-.17-.82-.17-1.27,0-.47,.06-.91,.19-1.32s.31-.77,.56-1.08,.54-.55,.89-.72c.35-.17,.74-.26,1.19-.26Zm-.05,5.51c.24,0,.44-.06,.61-.17,.17-.11,.31-.27,.41-.47,.11-.2,.19-.43,.24-.68,.05-.26,.08-.54,.08-.84,0-.65-.11-1.17-.32-1.57-.22-.4-.55-.6-1.01-.6s-.78,.2-.96,.59-.28,.9-.28,1.51c0,.74,.11,1.3,.32,1.67,.22,.37,.52,.56,.9,.56Z"/>
    </g>
    <g>
      <path d="M318.74,466.41c-.01-.11-.02-.23-.02-.35v-.35c0-.71,.14-1.48,.42-2.33,.28-.85,.65-1.69,1.09-2.54,.44-.85,.93-1.66,1.47-2.45,.53-.79,1.05-1.47,1.56-2.06h-5.24v-1.89h7.29v1.89c-.52,.56-1.03,1.25-1.55,2.06-.52,.81-.98,1.65-1.39,2.53-.41,.88-.74,1.73-.99,2.57-.25,.84-.38,1.57-.38,2.2v.38c0,.12,0,.23,.02,.34h-2.29Z"/>
      <path d="M333.46,454.44c.44,0,.84,.09,1.19,.27,.35,.18,.65,.42,.89,.72,.25,.3,.43,.65,.56,1.05,.13,.4,.19,.82,.19,1.27s-.06,.85-.19,1.26c-.13,.41-.31,.77-.56,1.08-.25,.31-.55,.56-.91,.75s-.77,.28-1.24,.28-.85-.09-1.2-.26c-.34-.17-.63-.41-.86-.71-.23-.3-.41-.65-.52-1.05s-.17-.83-.17-1.27c0-.47,.06-.91,.19-1.32s.31-.77,.56-1.08c.25-.31,.54-.55,.89-.72,.35-.17,.74-.26,1.19-.26Zm-.05,5.51c.24,0,.44-.06,.61-.17,.17-.11,.31-.27,.41-.47,.11-.2,.19-.43,.24-.68,.05-.26,.08-.54,.08-.84,0-.65-.11-1.17-.32-1.57-.22-.4-.55-.6-1.01-.6s-.78,.2-.96,.59c-.19,.4-.28,.9-.28,1.51,0,.74,.11,1.3,.32,1.67,.22,.37,.52,.56,.9,.56Zm.74,6.89h-1.62l8.33-12.87h1.62l-8.33,12.87Zm7.47-7.02c.44,0,.84,.09,1.19,.27,.35,.18,.65,.42,.89,.72,.25,.3,.43,.65,.56,1.05,.13,.4,.19,.83,.19,1.27s-.06,.85-.19,1.26c-.13,.41-.31,.77-.56,1.08-.25,.31-.55,.56-.91,.75-.36,.19-.77,.28-1.24,.28s-.85-.09-1.2-.26c-.34-.17-.63-.41-.86-.71s-.41-.65-.52-1.05c-.11-.4-.17-.82-.17-1.27,0-.47,.06-.91,.19-1.32s.31-.77,.56-1.08,.54-.55,.89-.72c.35-.17,.74-.26,1.19-.26Zm-.05,5.51c.24,0,.44-.06,.61-.17,.17-.11,.31-.27,.41-.47,.11-.2,.19-.43,.24-.68,.05-.26,.08-.54,.08-.84,0-.65-.11-1.17-.32-1.57-.22-.4-.55-.6-1.01-.6s-.78,.2-.96,.59-.28,.9-.28,1.51c0,.74,.11,1.3,.32,1.67,.22,.37,.52,.56,.9,.56Z"/>
    </g>
    <g>
      <path d="M383.27,459.92c.7,.16,1.23,.52,1.61,1.08,.38,.56,.57,1.25,.57,2.05,0,.5-.08,.98-.23,1.41-.16,.44-.4,.82-.73,1.14-.33,.32-.75,.58-1.25,.77-.5,.19-1.1,.28-1.78,.28-.72,0-1.33-.1-1.84-.3-.5-.2-.91-.46-1.22-.79s-.54-.71-.68-1.14c-.14-.43-.22-.88-.22-1.33,0-.79,.19-1.46,.58-2.02,.38-.55,.92-.93,1.6-1.13v-.07c-.42-.16-.79-.45-1.11-.88-.32-.43-.48-.98-.48-1.64,0-.86,.29-1.56,.88-2.09,.59-.53,1.42-.79,2.5-.79s1.88,.26,2.48,.77c.6,.51,.9,1.2,.9,2.06,0,.64-.15,1.17-.46,1.61-.31,.44-.68,.75-1.12,.95v.07Zm.11,3.19c0-.28-.04-.55-.11-.83-.07-.28-.19-.52-.34-.74-.16-.22-.36-.39-.6-.53-.25-.14-.54-.21-.87-.21s-.64,.07-.88,.21c-.24,.14-.44,.32-.59,.54-.16,.22-.27,.47-.34,.75-.07,.28-.11,.55-.11,.81,0,.65,.18,1.14,.53,1.48s.82,.5,1.4,.5,1.04-.17,1.4-.5,.53-.83,.53-1.48Zm-.54-5.53c0-.47-.12-.84-.35-1.11s-.58-.41-1.04-.41-.79,.13-1.03,.39c-.24,.26-.36,.63-.36,1.11,0,.5,.13,.9,.38,1.19s.59,.43,1.01,.43,.76-.14,1.01-.43c.25-.29,.38-.68,.38-1.17Z"/>
      <path d="M394.25,454.47c.44,0,.84,.09,1.19,.27,.35,.18,.65,.42,.89,.72,.25,.3,.43,.65,.56,1.05,.13,.4,.19,.82,.19,1.27s-.06,.85-.19,1.26c-.13,.41-.31,.77-.56,1.08-.25,.31-.55,.56-.91,.75s-.77,.28-1.24,.28-.85-.09-1.2-.26c-.34-.17-.63-.41-.86-.71-.23-.3-.41-.65-.52-1.05s-.17-.83-.17-1.27c0-.47,.06-.91,.19-1.32s.31-.77,.56-1.08c.25-.31,.54-.55,.89-.72,.35-.17,.74-.26,1.19-.26Zm-.05,5.51c.24,0,.44-.06,.61-.17,.17-.11,.31-.27,.41-.47,.11-.2,.19-.43,.24-.68,.05-.26,.08-.54,.08-.84,0-.65-.11-1.17-.32-1.57-.22-.4-.55-.6-1.01-.6s-.78,.2-.96,.59c-.19,.4-.28,.9-.28,1.51,0,.74,.11,1.3,.32,1.67,.22,.37,.52,.56,.9,.56Zm.74,6.89h-1.62l8.33-12.87h1.62l-8.33,12.87Zm7.47-7.02c.44,0,.84,.09,1.19,.27,.35,.18,.65,.42,.89,.72,.25,.3,.43,.65,.56,1.05,.13,.4,.19,.83,.19,1.27s-.06,.85-.19,1.26c-.13,.41-.31,.77-.56,1.08-.25,.31-.55,.56-.91,.75-.36,.19-.77,.28-1.24,.28s-.85-.09-1.2-.26c-.34-.17-.63-.41-.86-.71s-.41-.65-.52-1.05c-.11-.4-.17-.82-.17-1.27,0-.47,.06-.91,.19-1.32s.31-.77,.56-1.08,.54-.55,.89-.72c.35-.17,.74-.26,1.19-.26Zm-.05,5.51c.24,0,.44-.06,.61-.17,.17-.11,.31-.27,.41-.47,.11-.2,.19-.43,.24-.68,.05-.26,.08-.54,.08-.84,0-.65-.11-1.17-.32-1.57-.22-.4-.55-.6-1.01-.6s-.78,.2-.96,.59-.28,.9-.28,1.51c0,.74,.11,1.3,.32,1.67,.22,.37,.52,.56,.9,.56Z"/>
    </g>
    <text class="cls-12" transform="translate(1274.11 369.58)"><tspan x="0" y="0">ET</tspan><tspan class="cls-18" x="72.62" y="0">F</tspan></text>
    <path class="cls-5" d="M141.12,685.65v163.47H405.12"/>
    <path class="cls-3" d="M151.85,836.15c29.4-22.73,58.8-45.46,88.2-68.19,14.7,10.58,29.4,21.16,44.1,31.74,38.93-36.06,77.87-72.11,116.8-108.17"/>
    <g>
      <path class="cls-5" d="M1194.12,685.42v163.47h264"/>
      <path class="cls-3" d="M1204.85,835.91c29.4-22.73,58.8-45.46,88.2-68.19,14.7,10.58,29.4,21.16,44.1,31.74,38.93-36.06,77.87-72.11,116.8-108.17"/>
    </g>
    <path class="cls-3" d="M460.12,527.62h164"/>
    <g>
      <path class="cls-3" d="M1012.12,527.44h127.52"/>
      <polygon points="1138.18 532.42 1146.82 527.44 1138.18 522.45 1138.18 532.42"/>
    </g>
    <path class="cls-3" d="M441.12,424.12h19v193h-22.02"/>
    <polygon class="cls-21" points="1222.07 437.41 1197.07 437.41 1184.57 459.06 1197.07 480.71 1222.07 480.71 1234.57 459.06 1222.07 437.41"/>
    <polygon class="cls-13" points="1281.38 437.41 1256.38 437.41 1243.88 459.06 1256.38 480.71 1281.38 480.71 1293.88 459.06 1281.38 437.41"/>
    <polygon class="cls-16" points="1340.96 437.19 1315.96 437.19 1303.46 458.84 1315.96 480.5 1340.96 480.5 1353.46 458.84 1340.96 437.19"/>
    <polygon class="cls-24" points="1400.27 437.19 1375.27 437.19 1362.77 458.84 1375.27 480.5 1400.27 480.5 1412.77 458.84 1400.27 437.19"/>
    <polygon class="cls-25" points="1460.61 437.19 1435.61 437.19 1423.11 458.84 1435.61 480.5 1460.61 480.5 1473.11 458.84 1460.61 437.19"/>
    <polygon class="cls-6" points="1222.34 495.3 1197.34 495.3 1184.84 516.95 1197.34 538.6 1222.34 538.6 1234.84 516.95 1222.34 495.3"/>
    <polygon class="cls-19" points="1281.65 495.3 1256.65 495.3 1244.15 516.95 1256.65 538.6 1281.65 538.6 1294.15 516.95 1281.65 495.3"/>
    <polygon class="cls-14" points="1341.23 495.09 1316.23 495.09 1303.73 516.74 1316.23 538.39 1341.23 538.39 1353.73 516.74 1341.23 495.09"/>
    <polygon class="cls-11" points="1400.53 495.09 1375.53 495.09 1363.03 516.74 1375.53 538.39 1400.53 538.39 1413.03 516.74 1400.53 495.09"/>
    <polygon class="cls-9" points="1460.88 495.09 1435.88 495.09 1423.38 516.74 1435.88 538.39 1460.88 538.39 1473.38 516.74 1460.88 495.09"/>
    <polygon class="cls-7" points="1223.21 553.35 1198.21 553.35 1185.71 575.01 1198.21 596.66 1223.21 596.66 1235.71 575.01 1223.21 553.35"/>
    <polygon class="cls-10" points="1282.52 553.35 1257.52 553.35 1245.02 575.01 1257.52 596.66 1282.52 596.66 1295.02 575.01 1282.52 553.35"/>
    <polygon class="cls-17" points="1342.09 553.14 1317.09 553.14 1304.59 574.79 1317.09 596.44 1342.09 596.44 1354.59 574.79 1342.09 553.14"/>
    <polygon class="cls-8" points="1401.4 553.14 1376.4 553.14 1363.9 574.79 1376.4 596.44 1401.4 596.44 1413.9 574.79 1401.4 553.14"/>
    <polygon class="cls-20" points="1461.75 553.14 1436.75 553.14 1424.25 574.79 1436.75 596.44 1461.75 596.44 1474.25 574.79 1461.75 553.14"/>
    <g>
      <path d="M1201.28,464.95h-2.07v-8.75l-1.46,.65-.4-1.8,3.92-1.98v11.88Z"/>
      <path d="M1210.75,452.98c.44,0,.84,.09,1.19,.27,.35,.18,.65,.42,.89,.72,.25,.3,.43,.65,.56,1.05,.13,.4,.19,.82,.19,1.27s-.06,.85-.19,1.26c-.13,.41-.31,.77-.56,1.08-.25,.31-.55,.56-.91,.75-.36,.19-.77,.28-1.24,.28s-.86-.09-1.2-.26c-.34-.17-.63-.41-.86-.71-.23-.3-.41-.65-.52-1.05s-.17-.83-.17-1.27c0-.47,.06-.91,.19-1.32s.31-.77,.56-1.08c.25-.31,.54-.55,.89-.72,.35-.17,.74-.26,1.19-.26Zm-.05,5.51c.24,0,.44-.06,.61-.17,.17-.11,.31-.27,.41-.47,.11-.2,.19-.43,.24-.68,.05-.26,.08-.54,.08-.84,0-.65-.11-1.17-.32-1.57-.22-.4-.55-.6-1.01-.6s-.78,.2-.96,.59c-.19,.4-.28,.9-.28,1.51,0,.74,.11,1.3,.32,1.67,.22,.37,.52,.56,.9,.56Zm.74,6.89h-1.62l8.33-12.87h1.62l-8.33,12.87Zm7.47-7.02c.44,0,.84,.09,1.19,.27,.35,.18,.64,.42,.89,.72,.25,.3,.43,.65,.56,1.05,.13,.4,.19,.83,.19,1.27s-.06,.85-.19,1.26c-.13,.41-.31,.77-.56,1.08s-.55,.56-.91,.75c-.36,.19-.77,.28-1.24,.28s-.86-.09-1.2-.26-.63-.41-.86-.71c-.23-.3-.41-.65-.52-1.05-.11-.4-.17-.82-.17-1.27,0-.47,.06-.91,.19-1.32s.31-.77,.56-1.08,.54-.55,.89-.72,.74-.26,1.19-.26Zm-.05,5.51c.24,0,.44-.06,.61-.17,.17-.11,.31-.27,.41-.47,.11-.2,.19-.43,.24-.68,.05-.26,.08-.54,.08-.84,0-.65-.11-1.17-.32-1.57-.22-.4-.55-.6-1.01-.6s-.78,.2-.96,.59c-.19,.4-.28,.9-.28,1.51,0,.74,.11,1.3,.32,1.67,.22,.37,.52,.56,.9,.56Z"/>
    </g>
    <g>
      <path d="M1255.45,453.71c.46-.28,.98-.5,1.58-.68,.59-.18,1.18-.27,1.77-.27,.5,0,.97,.07,1.39,.22,.42,.14,.78,.35,1.09,.6,.31,.26,.54,.57,.71,.93,.17,.36,.25,.76,.25,1.19,0,.64-.16,1.16-.49,1.56-.32,.4-.73,.74-1.22,1.02,.72,.24,1.28,.6,1.68,1.08s.6,1.11,.6,1.89c0,.5-.09,.98-.27,1.43-.18,.45-.46,.84-.83,1.18s-.83,.6-1.39,.8c-.55,.2-1.19,.3-1.93,.3-1.49,0-2.71-.41-3.67-1.22l.5-1.64c.42,.35,.89,.62,1.4,.83,.52,.2,1.07,.31,1.66,.31,.76,0,1.33-.18,1.72-.53,.39-.35,.58-.87,.58-1.56,0-.61-.18-1.09-.53-1.45-.35-.35-.95-.53-1.77-.53h-.49v-1.57h.56c.53,0,.94-.17,1.22-.5s.43-.78,.43-1.33c0-.49-.15-.84-.45-1.04-.3-.2-.66-.3-1.08-.3-.23,0-.46,.02-.71,.07-.25,.05-.48,.12-.71,.21-.23,.09-.44,.19-.64,.31-.2,.11-.37,.24-.51,.37l-.47-1.66Z"/>
      <path d="M1271.6,452.76c.44,0,.84,.09,1.19,.27,.35,.18,.65,.42,.89,.72,.25,.3,.43,.65,.56,1.05,.13,.4,.19,.82,.19,1.27s-.06,.85-.19,1.26c-.13,.41-.31,.77-.56,1.08-.25,.31-.55,.56-.91,.75-.36,.19-.77,.28-1.24,.28s-.86-.09-1.2-.26c-.34-.17-.63-.41-.86-.71-.23-.3-.41-.65-.52-1.05s-.17-.83-.17-1.27c0-.47,.06-.91,.19-1.32s.31-.77,.56-1.08c.25-.31,.54-.55,.89-.72,.35-.17,.74-.26,1.19-.26Zm-.05,5.51c.24,0,.44-.06,.61-.17,.17-.11,.31-.27,.41-.47,.11-.2,.19-.43,.24-.68,.05-.26,.08-.54,.08-.84,0-.65-.11-1.17-.32-1.57-.22-.4-.55-.6-1.01-.6s-.78,.2-.96,.59c-.19,.4-.28,.9-.28,1.51,0,.74,.11,1.3,.32,1.67,.22,.37,.52,.56,.9,.56Zm.74,6.89h-1.62l8.33-12.87h1.62l-8.33,12.87Zm7.47-7.02c.44,0,.84,.09,1.19,.27,.35,.18,.64,.42,.89,.72,.25,.3,.43,.65,.56,1.05,.13,.4,.19,.83,.19,1.27s-.06,.85-.19,1.26c-.13,.41-.31,.77-.56,1.08s-.55,.56-.91,.75c-.36,.19-.77,.28-1.24,.28s-.86-.09-1.2-.26-.63-.41-.86-.71c-.23-.3-.41-.65-.52-1.05-.11-.4-.17-.82-.17-1.27,0-.47,.06-.91,.19-1.32s.31-.77,.56-1.08,.54-.55,.89-.72,.74-.26,1.19-.26Zm-.05,5.51c.24,0,.44-.06,.61-.17,.17-.11,.31-.27,.41-.47,.11-.2,.19-.43,.24-.68,.05-.26,.08-.54,.08-.84,0-.65-.11-1.17-.32-1.57-.22-.4-.55-.6-1.01-.6s-.78,.2-.96,.59c-.19,.4-.28,.9-.28,1.51,0,.74,.11,1.3,.32,1.67,.22,.37,.52,.56,.9,.56Z"/>
    </g>
    <g>
      <path d="M1316.49,459.29l.7-6.53h6.1v1.89h-4.43l-.27,2.84c.25-.07,.52-.12,.79-.15,.28-.03,.53-.04,.76-.04,.55,0,1.06,.08,1.51,.24s.85,.4,1.19,.71,.6,.69,.78,1.14c.19,.45,.28,.96,.28,1.54s-.09,1.07-.27,1.56c-.18,.49-.45,.91-.82,1.28s-.83,.65-1.38,.86c-.55,.21-1.2,.31-1.94,.31s-1.41-.1-2.02-.31c-.62-.21-1.16-.51-1.63-.89l.52-1.71c.18,.17,.39,.32,.62,.46,.23,.14,.49,.26,.76,.36,.27,.1,.55,.18,.83,.24,.28,.06,.56,.09,.84,.09,.3,0,.59-.04,.87-.12,.28-.08,.53-.2,.74-.37,.21-.17,.38-.39,.5-.66s.19-.6,.19-.98c0-.29-.04-.55-.11-.79s-.19-.44-.36-.61c-.17-.17-.39-.3-.67-.4-.28-.1-.64-.14-1.07-.14-.37,0-.78,.04-1.22,.11-.44,.07-.86,.19-1.26,.34l-.52-.27Z"/>
      <path d="M1332.61,452.76c.44,0,.84,.09,1.19,.27,.35,.18,.65,.42,.89,.72,.25,.3,.43,.65,.56,1.05,.13,.4,.19,.82,.19,1.27s-.06,.85-.19,1.26c-.13,.41-.31,.77-.56,1.08-.25,.31-.55,.56-.91,.75-.36,.19-.77,.28-1.24,.28s-.86-.09-1.2-.26c-.34-.17-.63-.41-.86-.71-.23-.3-.41-.65-.52-1.05s-.17-.83-.17-1.27c0-.47,.06-.91,.19-1.32s.31-.77,.56-1.08c.25-.31,.54-.55,.89-.72,.35-.17,.74-.26,1.19-.26Zm-.05,5.51c.24,0,.44-.06,.61-.17,.17-.11,.31-.27,.41-.47,.11-.2,.19-.43,.24-.68,.05-.26,.08-.54,.08-.84,0-.65-.11-1.17-.32-1.57-.22-.4-.55-.6-1.01-.6s-.78,.2-.96,.59c-.19,.4-.28,.9-.28,1.51,0,.74,.11,1.3,.32,1.67,.22,.37,.52,.56,.9,.56Zm.74,6.89h-1.62l8.33-12.87h1.62l-8.33,12.87Zm7.47-7.02c.44,0,.84,.09,1.19,.27,.35,.18,.64,.42,.89,.72,.25,.3,.43,.65,.56,1.05,.13,.4,.19,.83,.19,1.27s-.06,.85-.19,1.26c-.13,.41-.31,.77-.56,1.08s-.55,.56-.91,.75c-.36,.19-.77,.28-1.24,.28s-.86-.09-1.2-.26-.63-.41-.86-.71c-.23-.3-.41-.65-.52-1.05-.11-.4-.17-.82-.17-1.27,0-.47,.06-.91,.19-1.32s.31-.77,.56-1.08,.54-.55,.89-.72,.74-.26,1.19-.26Zm-.05,5.51c.24,0,.44-.06,.61-.17,.17-.11,.31-.27,.41-.47,.11-.2,.19-.43,.24-.68,.05-.26,.08-.54,.08-.84,0-.65-.11-1.17-.32-1.57-.22-.4-.55-.6-1.01-.6s-.78,.2-.96,.59c-.19,.4-.28,.9-.28,1.51,0,.74,.11,1.3,.32,1.67,.22,.37,.52,.56,.9,.56Z"/>
    </g>
    <g>
      <path d="M1375.23,465.7c-.01-.11-.02-.23-.02-.35v-.35c0-.71,.14-1.48,.42-2.33,.28-.85,.65-1.69,1.09-2.54,.44-.85,.93-1.66,1.47-2.45,.53-.79,1.05-1.47,1.56-2.06h-5.24v-1.89h7.29v1.89c-.52,.56-1.03,1.25-1.55,2.06s-.98,1.65-1.39,2.53c-.41,.88-.74,1.73-.99,2.57-.25,.84-.38,1.57-.38,2.2v.38c0,.12,0,.23,.02,.34h-2.29Z"/>
      <path d="M1389.95,453.73c.44,0,.84,.09,1.19,.27,.35,.18,.65,.42,.89,.72,.25,.3,.43,.65,.56,1.05,.13,.4,.19,.82,.19,1.27s-.06,.85-.19,1.26c-.13,.41-.31,.77-.56,1.08-.25,.31-.55,.56-.91,.75-.36,.19-.77,.28-1.24,.28s-.86-.09-1.2-.26c-.34-.17-.63-.41-.86-.71-.23-.3-.41-.65-.52-1.05s-.17-.83-.17-1.27c0-.47,.06-.91,.19-1.32s.31-.77,.56-1.08c.25-.31,.54-.55,.89-.72,.35-.17,.74-.26,1.19-.26Zm-.05,5.51c.24,0,.44-.06,.61-.17,.17-.11,.31-.27,.41-.47,.11-.2,.19-.43,.24-.68,.05-.26,.08-.54,.08-.84,0-.65-.11-1.17-.32-1.57-.22-.4-.55-.6-1.01-.6s-.78,.2-.96,.59c-.19,.4-.28,.9-.28,1.51,0,.74,.11,1.3,.32,1.67,.22,.37,.52,.56,.9,.56Zm.74,6.89h-1.62l8.33-12.87h1.62l-8.33,12.87Zm7.47-7.02c.44,0,.84,.09,1.19,.27,.35,.18,.64,.42,.89,.72,.25,.3,.43,.65,.56,1.05,.13,.4,.19,.83,.19,1.27s-.06,.85-.19,1.26c-.13,.41-.31,.77-.56,1.08s-.55,.56-.91,.75c-.36,.19-.77,.28-1.24,.28s-.86-.09-1.2-.26-.63-.41-.86-.71c-.23-.3-.41-.65-.52-1.05-.11-.4-.17-.82-.17-1.27,0-.47,.06-.91,.19-1.32s.31-.77,.56-1.08,.54-.55,.89-.72,.74-.26,1.19-.26Zm-.05,5.51c.24,0,.44-.06,.61-.17,.17-.11,.31-.27,.41-.47,.11-.2,.19-.43,.24-.68,.05-.26,.08-.54,.08-.84,0-.65-.11-1.17-.32-1.57-.22-.4-.55-.6-1.01-.6s-.78,.2-.96,.59c-.19,.4-.28,.9-.28,1.51,0,.74,.11,1.3,.32,1.67,.22,.37,.52,.56,.9,.56Z"/>
    </g>
    <g>
      <path d="M1439.75,459.21c.7,.16,1.23,.52,1.61,1.08,.38,.56,.57,1.25,.57,2.05,0,.5-.08,.98-.23,1.41-.16,.44-.4,.82-.73,1.14-.33,.32-.75,.58-1.25,.77-.5,.19-1.1,.28-1.78,.28-.72,0-1.33-.1-1.84-.3-.5-.2-.91-.46-1.22-.79-.31-.33-.54-.71-.68-1.14s-.22-.88-.22-1.33c0-.79,.19-1.46,.58-2.02,.38-.55,.92-.93,1.6-1.13v-.07c-.42-.16-.79-.45-1.11-.88-.32-.43-.48-.98-.48-1.64,0-.86,.29-1.56,.88-2.09,.59-.53,1.42-.79,2.5-.79s1.88,.26,2.48,.77c.6,.51,.9,1.2,.9,2.06,0,.64-.15,1.17-.46,1.61-.31,.44-.68,.75-1.12,.95v.07Zm.11,3.19c0-.28-.04-.55-.11-.83-.07-.28-.19-.52-.34-.74s-.36-.39-.6-.53c-.25-.14-.54-.21-.87-.21s-.64,.07-.88,.21c-.24,.14-.44,.32-.59,.54-.16,.22-.27,.47-.34,.75-.07,.28-.11,.55-.11,.81,0,.65,.18,1.14,.53,1.48,.35,.34,.82,.5,1.4,.5s1.04-.17,1.39-.5c.35-.34,.53-.83,.53-1.48Zm-.54-5.53c0-.47-.12-.84-.35-1.11-.23-.27-.58-.41-1.04-.41s-.79,.13-1.03,.39c-.24,.26-.36,.63-.36,1.11,0,.5,.13,.9,.38,1.19s.59,.43,1.01,.43,.76-.14,1.01-.43,.38-.68,.38-1.17Z"/>
      <path d="M1450.73,453.76c.44,0,.84,.09,1.19,.27,.35,.18,.65,.42,.89,.72,.25,.3,.43,.65,.56,1.05,.13,.4,.19,.82,.19,1.27s-.06,.85-.19,1.26c-.13,.41-.31,.77-.56,1.08-.25,.31-.55,.56-.91,.75-.36,.19-.77,.28-1.24,.28s-.86-.09-1.2-.26c-.34-.17-.63-.41-.86-.71-.23-.3-.41-.65-.52-1.05s-.17-.83-.17-1.27c0-.47,.06-.91,.19-1.32s.31-.77,.56-1.08c.25-.31,.54-.55,.89-.72,.35-.17,.74-.26,1.19-.26Zm-.05,5.51c.24,0,.44-.06,.61-.17,.17-.11,.31-.27,.41-.47,.11-.2,.19-.43,.24-.68,.05-.26,.08-.54,.08-.84,0-.65-.11-1.17-.32-1.57-.22-.4-.55-.6-1.01-.6s-.78,.2-.96,.59c-.19,.4-.28,.9-.28,1.51,0,.74,.11,1.3,.32,1.67,.22,.37,.52,.56,.9,.56Zm.74,6.89h-1.62l8.33-12.87h1.62l-8.33,12.87Zm7.47-7.02c.44,0,.84,.09,1.19,.27,.35,.18,.64,.42,.89,.72,.25,.3,.43,.65,.56,1.05,.13,.4,.19,.83,.19,1.27s-.06,.85-.19,1.26c-.13,.41-.31,.77-.56,1.08s-.55,.56-.91,.75c-.36,.19-.77,.28-1.24,.28s-.86-.09-1.2-.26-.63-.41-.86-.71c-.23-.3-.41-.65-.52-1.05-.11-.4-.17-.82-.17-1.27,0-.47,.06-.91,.19-1.32s.31-.77,.56-1.08,.54-.55,.89-.72,.74-.26,1.19-.26Zm-.05,5.51c.24,0,.44-.06,.61-.17,.17-.11,.31-.27,.41-.47,.11-.2,.19-.43,.24-.68,.05-.26,.08-.54,.08-.84,0-.65-.11-1.17-.32-1.57-.22-.4-.55-.6-1.01-.6s-.78,.2-.96,.59c-.19,.4-.28,.9-.28,1.51,0,.74,.11,1.3,.32,1.67,.22,.37,.52,.56,.9,.56Z"/>
    </g>
    <polygon class="cls-21" points="689.07 225.97 664.07 225.97 651.57 247.62 664.07 269.27 689.07 269.27 701.57 247.62 689.07 225.97"/>
    <polygon class="cls-13" points="777.38 240.97 752.38 240.97 739.88 262.62 752.38 284.27 777.38 284.27 789.88 262.62 777.38 240.97"/>
    <polygon class="cls-16" points="845.96 182.76 820.96 182.76 808.46 204.41 820.96 226.06 845.96 226.06 858.46 204.41 845.96 182.76"/>
    <polygon class="cls-24" points="973.27 259.76 948.27 259.76 935.77 281.41 948.27 303.06 973.27 303.06 985.77 281.41 973.27 259.76"/>
    <polygon class="cls-25" points="934.61 58.76 909.61 58.76 897.11 80.41 909.61 102.06 934.61 102.06 947.11 80.41 934.61 58.76"/>
    <g>
      <path d="M668.28,253.51h-2.07v-8.75l-1.46,.65-.4-1.8,3.92-1.98v11.88Z"/>
      <path d="M677.74,241.54c.44,0,.84,.09,1.19,.27,.35,.18,.65,.42,.89,.72,.25,.3,.43,.65,.56,1.05,.13,.4,.19,.82,.19,1.27s-.06,.85-.19,1.26c-.13,.41-.31,.77-.56,1.08-.25,.31-.55,.56-.91,.75s-.77,.28-1.24,.28-.85-.09-1.2-.26c-.34-.17-.63-.41-.86-.71-.23-.3-.41-.65-.52-1.05s-.17-.83-.17-1.27c0-.47,.06-.91,.19-1.32s.31-.77,.56-1.08c.25-.31,.54-.55,.89-.72,.35-.17,.74-.26,1.19-.26Zm-.05,5.51c.24,0,.44-.06,.61-.17,.17-.11,.31-.27,.41-.47,.11-.2,.19-.43,.24-.68,.05-.26,.08-.54,.08-.84,0-.65-.11-1.17-.32-1.57-.22-.4-.55-.6-1.01-.6s-.78,.2-.96,.59c-.19,.4-.28,.9-.28,1.51,0,.74,.11,1.3,.32,1.67,.22,.37,.52,.56,.9,.56Zm.74,6.89h-1.62l8.33-12.87h1.62l-8.33,12.87Zm7.47-7.02c.44,0,.84,.09,1.19,.27,.35,.18,.65,.42,.89,.72,.25,.3,.43,.65,.56,1.05,.13,.4,.19,.83,.19,1.27s-.06,.85-.19,1.26c-.13,.41-.31,.77-.56,1.08-.25,.31-.55,.56-.91,.75-.36,.19-.77,.28-1.24,.28s-.85-.09-1.2-.26c-.34-.17-.63-.41-.86-.71s-.41-.65-.52-1.05c-.11-.4-.17-.82-.17-1.27,0-.47,.06-.91,.19-1.32s.31-.77,.56-1.08,.54-.55,.89-.72c.35-.17,.74-.26,1.19-.26Zm-.05,5.51c.24,0,.44-.06,.61-.17,.17-.11,.31-.27,.41-.47,.11-.2,.19-.43,.24-.68,.05-.26,.08-.54,.08-.84,0-.65-.11-1.17-.32-1.57-.22-.4-.55-.6-1.01-.6s-.78,.2-.96,.59-.28,.9-.28,1.51c0,.74,.11,1.3,.32,1.67,.22,.37,.52,.56,.9,.56Z"/>
    </g>
    <g>
      <path d="M751.45,257.28c.46-.28,.98-.5,1.58-.68,.59-.18,1.18-.27,1.77-.27,.5,0,.97,.07,1.39,.22,.42,.14,.78,.35,1.09,.6,.31,.26,.54,.57,.71,.93,.17,.36,.25,.76,.25,1.19,0,.64-.16,1.16-.49,1.56-.32,.4-.73,.74-1.22,1.02,.72,.24,1.28,.6,1.68,1.08s.6,1.11,.6,1.89c0,.5-.09,.98-.27,1.43-.18,.45-.46,.84-.83,1.18s-.83,.6-1.39,.8c-.55,.2-1.19,.3-1.93,.3-1.49,0-2.71-.41-3.67-1.22l.5-1.64c.42,.35,.89,.62,1.4,.83,.52,.2,1.07,.31,1.66,.31,.76,0,1.33-.18,1.72-.53,.39-.35,.58-.87,.58-1.56,0-.61-.18-1.09-.53-1.45-.35-.35-.95-.53-1.77-.53h-.49v-1.57h.56c.53,0,.94-.17,1.22-.5s.43-.78,.43-1.33c0-.49-.15-.84-.45-1.04-.3-.2-.66-.3-1.08-.3-.23,0-.46,.02-.71,.07-.25,.05-.48,.12-.71,.21-.23,.09-.44,.19-.64,.31-.2,.11-.37,.24-.51,.37l-.47-1.66Z"/>
      <path d="M767.6,256.32c.44,0,.84,.09,1.19,.27,.35,.18,.65,.42,.89,.72,.25,.3,.43,.65,.56,1.05,.13,.4,.19,.82,.19,1.27s-.06,.85-.19,1.26c-.13,.41-.31,.77-.56,1.08-.25,.31-.55,.56-.91,.75-.36,.19-.77,.28-1.24,.28s-.86-.09-1.2-.26c-.34-.17-.63-.41-.86-.71-.23-.3-.41-.65-.52-1.05s-.17-.83-.17-1.27c0-.47,.06-.91,.19-1.32s.31-.77,.56-1.08c.25-.31,.54-.55,.89-.72,.35-.17,.74-.26,1.19-.26Zm-.05,5.51c.24,0,.44-.06,.61-.17,.17-.11,.31-.27,.41-.47,.11-.2,.19-.43,.24-.68,.05-.26,.08-.54,.08-.84,0-.65-.11-1.17-.32-1.57-.22-.4-.55-.6-1.01-.6s-.78,.2-.96,.59c-.19,.4-.28,.9-.28,1.51,0,.74,.11,1.3,.32,1.67,.22,.37,.52,.56,.9,.56Zm.74,6.89h-1.62l8.33-12.87h1.62l-8.33,12.87Zm7.47-7.02c.44,0,.84,.09,1.19,.27,.35,.18,.64,.42,.89,.72,.25,.3,.43,.65,.56,1.05,.13,.4,.19,.83,.19,1.27s-.06,.85-.19,1.26c-.13,.41-.31,.77-.56,1.08s-.55,.56-.91,.75c-.36,.19-.77,.28-1.24,.28s-.86-.09-1.2-.26-.63-.41-.86-.71c-.23-.3-.41-.65-.52-1.05-.11-.4-.17-.82-.17-1.27,0-.47,.06-.91,.19-1.32s.31-.77,.56-1.08,.54-.55,.89-.72,.74-.26,1.19-.26Zm-.05,5.51c.24,0,.44-.06,.61-.17,.17-.11,.31-.27,.41-.47,.11-.2,.19-.43,.24-.68,.05-.26,.08-.54,.08-.84,0-.65-.11-1.17-.32-1.57-.22-.4-.55-.6-1.01-.6s-.78,.2-.96,.59c-.19,.4-.28,.9-.28,1.51,0,.74,.11,1.3,.32,1.67,.22,.37,.52,.56,.9,.56Z"/>
    </g>
    <g>
      <path d="M821.49,204.86l.7-6.53h6.1v1.89h-4.43l-.27,2.84c.25-.07,.52-.12,.79-.15,.28-.03,.53-.04,.76-.04,.55,0,1.06,.08,1.51,.24s.85,.4,1.19,.71,.6,.69,.78,1.14c.19,.45,.28,.96,.28,1.54s-.09,1.07-.27,1.56c-.18,.49-.45,.91-.82,1.28s-.83,.65-1.38,.86c-.55,.21-1.2,.31-1.94,.31s-1.41-.1-2.02-.31c-.62-.21-1.16-.51-1.63-.89l.52-1.71c.18,.17,.39,.32,.62,.46,.23,.14,.49,.26,.76,.36,.27,.1,.55,.18,.83,.24,.28,.06,.56,.09,.84,.09,.3,0,.59-.04,.87-.12,.28-.08,.53-.2,.74-.37,.21-.17,.38-.39,.5-.66s.19-.6,.19-.98c0-.29-.04-.55-.11-.79s-.19-.44-.36-.61c-.17-.17-.39-.3-.67-.4-.28-.1-.64-.14-1.07-.14-.37,0-.78,.04-1.22,.11-.44,.07-.86,.19-1.26,.34l-.52-.27Z"/>
      <path d="M837.61,198.32c.44,0,.84,.09,1.19,.27,.35,.18,.65,.42,.89,.72,.25,.3,.43,.65,.56,1.05,.13,.4,.19,.82,.19,1.27s-.06,.85-.19,1.26c-.13,.41-.31,.77-.56,1.08-.25,.31-.55,.56-.91,.75-.36,.19-.77,.28-1.24,.28s-.86-.09-1.2-.26c-.34-.17-.63-.41-.86-.71-.23-.3-.41-.65-.52-1.05s-.17-.83-.17-1.27c0-.47,.06-.91,.19-1.32s.31-.77,.56-1.08c.25-.31,.54-.55,.89-.72,.35-.17,.74-.26,1.19-.26Zm-.05,5.51c.24,0,.44-.06,.61-.17,.17-.11,.31-.27,.41-.47,.11-.2,.19-.43,.24-.68,.05-.26,.08-.54,.08-.84,0-.65-.11-1.17-.32-1.57-.22-.4-.55-.6-1.01-.6s-.78,.2-.96,.59c-.19,.4-.28,.9-.28,1.51,0,.74,.11,1.3,.32,1.67,.22,.37,.52,.56,.9,.56Zm.74,6.89h-1.62l8.33-12.87h1.62l-8.33,12.87Zm7.47-7.02c.44,0,.84,.09,1.19,.27,.35,.18,.64,.42,.89,.72,.25,.3,.43,.65,.56,1.05,.13,.4,.19,.83,.19,1.27s-.06,.85-.19,1.26c-.13,.41-.31,.77-.56,1.08s-.55,.56-.91,.75c-.36,.19-.77,.28-1.24,.28s-.86-.09-1.2-.26-.63-.41-.86-.71c-.23-.3-.41-.65-.52-1.05-.11-.4-.17-.82-.17-1.27,0-.47,.06-.91,.19-1.32s.31-.77,.56-1.08,.54-.55,.89-.72,.74-.26,1.19-.26Zm-.05,5.51c.24,0,.44-.06,.61-.17,.17-.11,.31-.27,.41-.47,.11-.2,.19-.43,.24-.68,.05-.26,.08-.54,.08-.84,0-.65-.11-1.17-.32-1.57-.22-.4-.55-.6-1.01-.6s-.78,.2-.96,.59c-.19,.4-.28,.9-.28,1.51,0,.74,.11,1.3,.32,1.67,.22,.37,.52,.56,.9,.56Z"/>
    </g>
    <g>
      <path d="M948.23,288.26c-.01-.11-.02-.23-.02-.35v-.35c0-.71,.14-1.48,.42-2.33,.28-.85,.65-1.69,1.09-2.54,.44-.85,.93-1.66,1.47-2.45,.53-.79,1.05-1.47,1.56-2.06h-5.24v-1.89h7.29v1.89c-.52,.56-1.03,1.25-1.55,2.06s-.98,1.65-1.39,2.53c-.41,.88-.74,1.73-.99,2.57-.25,.84-.38,1.57-.38,2.2v.38c0,.12,0,.23,.02,.34h-2.29Z"/>
      <path d="M962.95,276.29c.44,0,.84,.09,1.19,.27,.35,.18,.65,.42,.89,.72,.25,.3,.43,.65,.56,1.05,.13,.4,.19,.82,.19,1.27s-.06,.85-.19,1.26c-.13,.41-.31,.77-.56,1.08-.25,.31-.55,.56-.91,.75-.36,.19-.77,.28-1.24,.28s-.86-.09-1.2-.26c-.34-.17-.63-.41-.86-.71-.23-.3-.41-.65-.52-1.05s-.17-.83-.17-1.27c0-.47,.06-.91,.19-1.32s.31-.77,.56-1.08c.25-.31,.54-.55,.89-.72,.35-.17,.74-.26,1.19-.26Zm-.05,5.51c.24,0,.44-.06,.61-.17,.17-.11,.31-.27,.41-.47,.11-.2,.19-.43,.24-.68,.05-.26,.08-.54,.08-.84,0-.65-.11-1.17-.32-1.57-.22-.4-.55-.6-1.01-.6s-.78,.2-.96,.59c-.19,.4-.28,.9-.28,1.51,0,.74,.11,1.3,.32,1.67,.22,.37,.52,.56,.9,.56Zm.74,6.89h-1.62l8.33-12.87h1.62l-8.33,12.87Zm7.47-7.02c.44,0,.84,.09,1.19,.27,.35,.18,.64,.42,.89,.72,.25,.3,.43,.65,.56,1.05,.13,.4,.19,.83,.19,1.27s-.06,.85-.19,1.26c-.13,.41-.31,.77-.56,1.08s-.55,.56-.91,.75c-.36,.19-.77,.28-1.24,.28s-.86-.09-1.2-.26-.63-.41-.86-.71c-.23-.3-.41-.65-.52-1.05-.11-.4-.17-.82-.17-1.27,0-.47,.06-.91,.19-1.32s.31-.77,.56-1.08,.54-.55,.89-.72,.74-.26,1.19-.26Zm-.05,5.51c.24,0,.44-.06,.61-.17,.17-.11,.31-.27,.41-.47,.11-.2,.19-.43,.24-.68,.05-.26,.08-.54,.08-.84,0-.65-.11-1.17-.32-1.57-.22-.4-.55-.6-1.01-.6s-.78,.2-.96,.59c-.19,.4-.28,.9-.28,1.51,0,.74,.11,1.3,.32,1.67,.22,.37,.52,.56,.9,.56Z"/>
    </g>
    <g>
      <path d="M913.75,80.78c.7,.16,1.23,.52,1.61,1.08,.38,.56,.57,1.25,.57,2.05,0,.5-.08,.98-.23,1.41-.16,.44-.4,.82-.73,1.14-.33,.32-.75,.58-1.25,.77-.5,.19-1.1,.28-1.78,.28-.72,0-1.33-.1-1.84-.3-.5-.2-.91-.46-1.22-.79-.31-.33-.54-.71-.68-1.14s-.22-.88-.22-1.33c0-.79,.19-1.46,.58-2.02,.38-.55,.92-.93,1.6-1.13v-.07c-.42-.16-.79-.45-1.11-.88-.32-.43-.48-.98-.48-1.64,0-.86,.29-1.56,.88-2.09,.59-.53,1.42-.79,2.5-.79s1.88,.26,2.48,.77c.6,.51,.9,1.2,.9,2.06,0,.64-.15,1.17-.46,1.61-.31,.44-.68,.75-1.12,.95v.07Zm.11,3.19c0-.28-.04-.55-.11-.83-.07-.28-.19-.52-.34-.74s-.36-.39-.6-.53c-.25-.14-.54-.21-.87-.21s-.64,.07-.88,.21c-.24,.14-.44,.32-.59,.54-.16,.22-.27,.47-.34,.75-.07,.28-.11,.55-.11,.81,0,.65,.18,1.14,.53,1.48,.35,.34,.82,.5,1.4,.5s1.04-.17,1.39-.5c.35-.34,.53-.83,.53-1.48Zm-.54-5.53c0-.47-.12-.84-.35-1.11-.23-.27-.58-.41-1.04-.41s-.79,.13-1.03,.39c-.24,.26-.36,.63-.36,1.11,0,.5,.13,.9,.38,1.19s.59,.43,1.01,.43,.76-.14,1.01-.43,.38-.68,.38-1.17Z"/>
      <path d="M924.73,75.32c.44,0,.84,.09,1.19,.27,.35,.18,.65,.42,.89,.72,.25,.3,.43,.65,.56,1.05,.13,.4,.19,.82,.19,1.27s-.06,.85-.19,1.26c-.13,.41-.31,.77-.56,1.08-.25,.31-.55,.56-.91,.75-.36,.19-.77,.28-1.24,.28s-.86-.09-1.2-.26c-.34-.17-.63-.41-.86-.71-.23-.3-.41-.65-.52-1.05s-.17-.83-.17-1.27c0-.47,.06-.91,.19-1.32s.31-.77,.56-1.08c.25-.31,.54-.55,.89-.72,.35-.17,.74-.26,1.19-.26Zm-.05,5.51c.24,0,.44-.06,.61-.17,.17-.11,.31-.27,.41-.47,.11-.2,.19-.43,.24-.68,.05-.26,.08-.54,.08-.84,0-.65-.11-1.17-.32-1.57-.22-.4-.55-.6-1.01-.6s-.78,.2-.96,.59c-.19,.4-.28,.9-.28,1.51,0,.74,.11,1.3,.32,1.67,.22,.37,.52,.56,.9,.56Zm.74,6.89h-1.62l8.33-12.87h1.62l-8.33,12.87Zm7.47-7.02c.44,0,.84,.09,1.19,.27,.35,.18,.64,.42,.89,.72,.25,.3,.43,.65,.56,1.05,.13,.4,.19,.83,.19,1.27s-.06,.85-.19,1.26c-.13,.41-.31,.77-.56,1.08s-.55,.56-.91,.75c-.36,.19-.77,.28-1.24,.28s-.86-.09-1.2-.26-.63-.41-.86-.71c-.23-.3-.41-.65-.52-1.05-.11-.4-.17-.82-.17-1.27,0-.47,.06-.91,.19-1.32s.31-.77,.56-1.08,.54-.55,.89-.72,.74-.26,1.19-.26Zm-.05,5.51c.24,0,.44-.06,.61-.17,.17-.11,.31-.27,.41-.47,.11-.2,.19-.43,.24-.68,.05-.26,.08-.54,.08-.84,0-.65-.11-1.17-.32-1.57-.22-.4-.55-.6-1.01-.6s-.78,.2-.96,.59c-.19,.4-.28,.9-.28,1.51,0,.74,.11,1.3,.32,1.67,.22,.37,.52,.56,.9,.56Z"/>
    </g>
    <polygon class="cls-6" points="758.92 147.78 733.92 147.78 721.42 169.43 733.92 191.08 758.92 191.08 771.42 169.43 758.92 147.78"/>
    <polygon class="cls-19" points="723.23 95.78 698.23 95.78 685.73 117.43 698.23 139.08 723.23 139.08 735.73 117.43 723.23 95.78"/>
    <polygon class="cls-14" points="850.81 347.57 825.81 347.57 813.31 369.22 825.81 390.87 850.81 390.87 863.31 369.22 850.81 347.57"/>
    <polygon class="cls-11" points="773.12 338.57 748.12 338.57 735.62 360.22 748.12 381.87 773.12 381.87 785.62 360.22 773.12 338.57"/>
    <polygon class="cls-9" points="816.46 80.57 791.46 80.57 778.96 102.22 791.46 123.87 816.46 123.87 828.96 102.22 816.46 80.57"/>
    <polygon class="cls-7" points="933.79 218.83 908.79 218.83 896.29 240.48 908.79 262.14 933.79 262.14 946.29 240.48 933.79 218.83"/>
    <polygon class="cls-10" points="851.1 281.83 826.1 281.83 813.6 303.48 826.1 325.14 851.1 325.14 863.6 303.48 851.1 281.83"/>
    <polygon class="cls-17" points="689.67 297.62 664.67 297.62 652.17 319.27 664.67 340.92 689.67 340.92 702.17 319.27 689.67 297.62"/>
    <polygon class="cls-8" points="919.98 313.62 894.98 313.62 882.48 335.27 894.98 356.92 919.98 356.92 932.48 335.27 919.98 313.62"/>
    <polygon class="cls-20" points="895.33 117.62 870.33 117.62 857.83 139.27 870.33 160.92 895.33 160.92 907.83 139.27 895.33 117.62"/>
    <path class="cls-3" d="M614.13,333.8v29.41c64.45,20.3,128.9,40.6,193.35,60.91,68.22-20.3,136.43-40.6,204.65-60.91v-34.09"/>
  </g>
</svg>