<?xml version="1.0" encoding="UTF-8"?>
<svg id="Ebene_2" data-name="Ebene 2" xmlns="http://www.w3.org/2000/svg" viewBox="0 0 672 917.44">
  <defs>
    <style>
      .cls-1 {
        fill: #ff6b35;
      }
    </style>
  </defs>
  <g id="Ebene_1-2" data-name="Ebene 1">
    <path class="cls-1" d="M659.49,622.28c-3.25-53.1-24.22-77.7-82.42-91.3-39.36-9.2-79.39-16-119.2-23.7-10.99-2.1-19.62,.1-28.48,7.9-56.85,49.8-128.28,49.5-187.49-.2-6.17-5.2-11.1-9.5-20.52-7.8-42.61,8.1-85.67,14.4-127.84,24-47.55,10.9-77.04,36.6-79.84,83.5C8.99,695.68,2.03,776.48,.01,857.58c-.34,12,5.27,16.7,16.82,20.1,37.23,10.9,75.58,18.4,114.04,23.9,106.75,15.5,214.07,21.1,321.94,10.2,67.17-6.8,133.78-16.1,198.71-33.7,14.69-4,21.19-9.8,20.41-25-1.68-30.8-9.53-184.8-12.45-230.8ZM144.9,290.98c1.9,14.2,8.5,27,14.2,39.9,3.6,8.2,10,14.5,19.1,16.9,3.3,.9,3.1,3.5,3.6,5.7,3.3,17.1,8.3,33.6,17.2,48.9,12.9,22.1,30.7,39.6,51.6,54,13,9,25.6,18.8,40.3,24.8,30.1,12.4,60.1,11.5,88.7-4.6,25.4-14.4,49.7-30.6,68.5-53.5,15.1-18.4,26.8-38.6,27.9-63.4l.9-5.7c.2-3.7,1.6-5.6,5.4-7.1,10.6-4.1,16.3-13,19.8-23.3,3.9-11.2,9.1-21.9,11.8-33.5v-14.8c-1.3-4.7-2.3-9.5-3.9-14.1-2.7-7.7-7.1-14.1-14.6-17.9-2.6-1.3-2.6-3.2-2.7-5.6-.7-13.4,2.2-26.5,3.6-39.7,4.1-35.9-1.7-70.2-16.4-103.1-3.7-8.3-8.8-16-9.7-25.4-.3-2.9-2.2-3.8-4.7-4-6.7-.5-9.8-5.1-12.2-10.5-.7-1.7-1.6-3.6-.1-4.9,4-3.5,.8-4-1.8-4.7-5.2-1.3-10.5-1.1-15.7-.3-2.7,.4-3.8-.4-4.2-3-.8-5-2.2-9.9-4.2-14.6-1-2.5-2-3.3-5.4-2.7-9.5,1.9-19.2,1.6-28.3-2.5-5.09-2.29-2.98-4.92-9.9-11.2,0,0-6.87-6.24-16.3-9.67-13.29-4.84-21.56,3.94-46.19,9.33-20.77,4.54-36.02,7.88-53.5,4.51-5.45-1.05-18.85-4.25-24.32,2.13-2.23,2.6-2.8,6.18-5.91,7-2.17,.57-4.8-.55-8.59-3.2-.9-.6-1.7-1.3-2.4-2-6-5.5-6-5.6-11.7,.8-9.6,10.9-16.5,23.6-22.9,36.4-4,8-9.2,14.8-15.7,20.8-4.9,4.5-9.6,9.2-14.5,14,2.6,2,5,1.2,7.2,1.6,5.4,1,6.4,2.4,4.4,7.5-3.9,9.8-9.2,18.9-14.1,28.2-.8,1.6-1.6,3.1-2.6,4.9,2.3,.6,3.7-1.2,5.4-1.4,1.5-.2,3.2-1.3,4.5,0,1.6,1.5-.1,2.9-.6,4.3-4.5,12.3-9.1,24.6-13.7,36.9,1.4,1.5,2.4,.2,3.4-.1,6.4-2.3,6.5-2.3,6.1,4.2-1.3,21-2,42.1-.2,63.2,.1,1.6,.1,3-1.5,4.1-15.3,12-17.5,28.7-15.1,46.4h0Zm19-30.3c2.6,8.4,3.9,15.7,5.2,23.1,.9,4.8,8.9,9.4,13.6,7.8,1.9-.7,1.1-2.4,1.1-3.6-.3-6-.5-11.9-1.1-17.9-2.9-28.4,2.8-55.9,8.9-83.3,4.3-19.5,8-39.2,14.3-58.2,2-6,4.6-11.8,7.1-17.5,6.2-13.8,17.4-19.6,31.8-20.3,14-.7,27.9,1,41.2,4.5,18,4.8,35.3,3.4,52.8-1.9,14.2-4.2,28.7-6,43.6-6.3,16.4-.3,28.1,7.3,37.5,19.7,10.5,13.9,16.5,30,22.5,46.1,4.7,12.7,9.3,25.4,15.8,37.2,.9,1.7,1.7,3.6,3,4.9,9.9,10,10.6,22.9,11.3,35.7,.8,16.5,1,33,.6,49.5-.1,2.5-1.3,6,3.6,5.8,3.9-.2,8,1,8.4-5.3,.5-7.8,1.9-15.6,3-24.2,5.1,2.4,7,6.1,8.4,10.1,3.8,11.1,3.7,22.2-.8,32.9-2.9,6.9-5.7,13.9-8.3,21-1.7,4.4-4.1,8.5-8.2,11.3-1.9,1.3-4.2,2.9-6.3,2.2-6.9-2.2-7.6,2.4-8.3,7-1.4,8.3-2.4,16.7-3.7,25-2.6,15.8-10,29.6-19.7,42-21.4,27.4-48.8,48.1-80.5,61.2-25.5,10.5-52.5,8.4-76.6-7.6-16.1-10.7-32.4-21.1-46.6-34.3-23.2-21.4-36.9-47.8-42-78.8-.3-2.1-.7-4.1-1.2-6.2-1.2-4.9-1.3-9.9-9.4-8.4-5.5,1.1-10-3.6-12.1-8.6-5-12.1-11.3-23.8-13.7-36.8-1.8-9.2-.1-18.1,4.8-27.8h0Zm199.7,2.5c2.8,1.5,4-1.1,5.2-3,3.4-5.4,8.3-8.5,14.9-10.1-4,9.6-3.1,14.7,3,19.2,5.2,3.9,10.8,3.8,15.9-.3,5.5-4.3,6.5-10.3,2.6-18.9,7.3,2.4,12.9,5.5,15.5,12.4,.8,2.1,1.8,4.7,4.7,3.4,2.9-1.2,1.8-3.7,1.1-5.9-1.3-4-3.9-7-7-9.6-11.6-9.4-31.4-11-45.2-3.5-4.4,2.4-8.2,5.5-10.7,9.9-1.4,2.1-3,4.7,0,6.4Zm-77.8-14.9c-9.6-5.9-20.1-7.3-30.9-5.3s-19.9,6.8-24,18c-.8,2-.9,3.9,1.3,4.9,2.4,1.1,3.6-.6,4.2-2.5,2.8-7.7,9-11.2,17-13.7-3.7,9.2-3.1,14.4,1.9,18.8,4.3,3.8,10,4.7,14.6,2,7.9-4.6,9.3-11.5,5.3-20.3,6.7,2.3,11.3,5.4,14.3,10.8,.9,1.8,2.4,3.4,4.6,2.2,2.1-1.2,1.7-3.2,.8-5.1-2-4.1-5.1-7.4-9.1-9.8h0Zm-55.8-21.1c4.9-1.8,10-3,15.3-3.7,11.7-1.5,22.5,1.4,33.2,6,6.6,2.8,12.9,1.6,14.6-2.4,1.7-4.1-1-7.4-9.2-10.6-11.6-4.6-23.6-6.5-36-5.3-10,.9-19,4.9-26.5,11.6-4.4,3.9-6.7,8.8-4.9,16.6,3.3-6.8,7.9-10.2,13.5-12.2Zm139.1,3.7c2.3,.4,4.5,.1,6.7-.8,3.2-1.3,6.5-2.6,9.8-3.8,19.4-7.1,41.9-2.3,53.8,11.8,1.4-6.9,.2-11.1-5-15.5-8.8-7.5-19.1-11.5-30.8-11.7-13-.2-25.4,2.1-37,8.2-2.9,1.5-4.6,3.9-3.9,7.3,.7,3.2,3.6,4,6.4,4.5Zm-63.3,104c8.8,6,18.3,7.4,27.9,3,9.5-4.3,14.7-12.1,15.5-22.6,.2-2.7-.7-5.2-1.5-7.7-.9-2.8-2.2-5.7-5.8-4.6-3.7,1.1-3.1,4-2,6.9,2.6,6.8,.3,12.4-4.6,17.1-7.2,6.9-17.2,6.9-25.7,0-2.2-1.8-4.2-2.7-6.4-.4-2,2.1-1.2,4.2,.5,6,.8,.7,1.3,1.7,2.1,2.3h0Zm-16.22,64.06c16.37,25.68,56.48,27.69,72.1,4.36-24.18,3.36-47.76,4.87-72.1-4.36h0Z"/>
  </g>
</svg>