<?xml version="1.0" encoding="UTF-8"?>
<svg id="Ebene_2" data-name="Ebene 2" xmlns="http://www.w3.org/2000/svg" viewBox="0 0 1548.79 841.45">
  <defs>
    <style>
      .cls-1 {
        stroke: #000;
      }

      .cls-1, .cls-2, .cls-3, .cls-4 {
        fill: none;
        stroke-miterlimit: 10;
      }

      .cls-1, .cls-2, .cls-4 {
        stroke-width: 4px;
      }

      .cls-5 {
        fill: #fff;
      }

      .cls-6 {
        fill: #1dcaa2;
      }

      .cls-2, .cls-4 {
        stroke: #253c78;
      }

      .cls-3 {
        stroke: #171614;
      }

      .cls-7 {
        fill: #253c78;
      }

      .cls-8 {
        fill: #171614;
      }

      .cls-4 {
        stroke-dasharray: 0 0 11.99 11.99;
      }

      .cls-9 {
        fill: #e70036;
      }
    </style>
  </defs>
  <g id="Ebene_1-2" data-name="Ebene 1">
    <g>
      <path class="cls-8" d="M1459.85,17.88c0,2.18,.5,3.75,1.51,4.7,1.01,.95,2.41,1.42,4.21,1.42s3.21-.47,4.23-1.42c1.02-.95,1.53-2.51,1.53-4.7V3.33h3.96v15.41c0,1.18-.19,2.29-.58,3.35-.38,1.06-.98,1.99-1.78,2.79-.8,.8-1.84,1.44-3.1,1.91-1.26,.47-2.75,.7-4.48,.7s-3.2-.23-4.43-.7c-1.22-.47-2.23-1.1-3.01-1.91-.78-.8-1.34-1.73-1.69-2.79-.35-1.06-.52-2.17-.52-3.35V3.33h4.14v14.54Z"/>
      <path class="cls-8" d="M1484.37,9.06c0,.5,.11,.94,.34,1.3,.23,.36,.55,.67,.95,.94,.41,.26,.89,.51,1.46,.74,.56,.23,1.19,.46,1.89,.7,.86,.31,1.72,.67,2.57,1.06,.85,.4,1.62,.89,2.3,1.48,.68,.59,1.24,1.31,1.67,2.18,.43,.86,.65,1.91,.65,3.13,0,1.3-.23,2.39-.7,3.28-.47,.89-1.1,1.6-1.89,2.14s-1.71,.93-2.74,1.17c-1.03,.24-2.1,.36-3.2,.36-1.58,0-3.07-.19-4.45-.58s-2.56-.85-3.55-1.4l1.08-3.89c.91,.7,1.93,1.27,3.04,1.73,1.12,.46,2.39,.68,3.83,.68,1.54,0,2.65-.27,3.35-.81,.7-.54,1.04-1.27,1.04-2.18,0-.7-.17-1.29-.5-1.78-.34-.49-.76-.91-1.26-1.26-.5-.35-1.04-.63-1.6-.85-.56-.22-1.06-.4-1.49-.54-.77-.24-1.55-.53-2.34-.86-.79-.34-1.52-.77-2.2-1.31s-1.22-1.22-1.64-2.03-.63-1.84-.63-3.06c0-1.15,.2-2.12,.59-2.92,.4-.79,.94-1.43,1.62-1.93,.68-.49,1.49-.85,2.41-1.06,.92-.22,1.93-.32,3.01-.32,1.32,0,2.6,.13,3.83,.4,1.24,.26,2.27,.59,3.11,.97l-.97,3.82c-.43-.29-.9-.54-1.4-.76-.5-.22-1.03-.4-1.57-.54-.54-.14-1.08-.26-1.62-.34-.54-.08-1.05-.13-1.53-.13-1.08,0-1.93,.2-2.56,.61-.62,.41-.94,1.03-.94,1.87Z"/>
      <path class="cls-8" d="M1500.85,3.35c.31-.08,.8-.13,1.48-.13h5.87c2.33,0,4.24,.24,5.74,.72,1.5,.48,2.74,1.13,3.73,1.96,1.27,1.1,2.2,2.49,2.77,4.18s.86,3.56,.86,5.61c0,1.55-.2,3.03-.59,4.45-.4,1.42-1.1,2.66-2.12,3.73-1.02,1.07-2.42,1.92-4.21,2.55s-4.07,.95-6.86,.95h-3.24c-1.15,0-2.29-.1-3.42-.29V3.35Zm7.67,20.68c2.9,0,5.02-.69,6.35-2.08,1.33-1.39,2-3.65,2-6.78,0-1.41-.14-2.65-.41-3.71-.28-1.06-.75-1.95-1.42-2.67-.67-.72-1.57-1.25-2.7-1.61-1.13-.36-2.53-.54-4.21-.54h-3.13V23.93c.67,.07,1.32,.11,1.94,.11h1.58Z"/>
    </g>
    <g>
      <path class="cls-8" d="M1460.64,104.67h-2.7v-18.94l-3.46,1.66-.79-2.52,6.95-3.96v23.76Z"/>
      <path class="cls-8" d="M1480.73,97.11h-2.48v7.56h-2.7v-7.56h-10.22v-2.52l10.04-13.68h2.88v13.68h2.48v2.52Zm-5.18-2.52v-9.76l-7.16,9.76h7.16Z"/>
      <path class="cls-8" d="M1494.19,80.73c1.54,0,2.9,.32,4.09,.97,1.19,.65,2.19,1.53,3.01,2.65,.82,1.12,1.43,2.41,1.85,3.87,.42,1.46,.63,3,.63,4.61s-.22,3.11-.65,4.59-1.06,2.78-1.89,3.92c-.83,1.14-1.85,2.05-3.08,2.74-1.22,.68-2.63,1.03-4.21,1.03s-2.92-.32-4.09-.97c-1.17-.65-2.13-1.52-2.9-2.63-.77-1.1-1.35-2.38-1.75-3.83-.4-1.45-.59-2.98-.59-4.59,0-1.7,.22-3.31,.65-4.81,.43-1.5,1.06-2.81,1.87-3.92,.82-1.12,1.82-2,3.01-2.65,1.19-.65,2.54-.97,4.05-.97Zm-.18,22c1.18,0,2.2-.25,3.06-.76,.86-.5,1.57-1.2,2.12-2.09,.55-.89,.96-1.93,1.22-3.11s.4-2.47,.4-3.83c0-1.46-.14-2.8-.41-4-.28-1.2-.7-2.23-1.26-3.1-.56-.86-1.27-1.54-2.11-2.02-.84-.48-1.82-.72-2.95-.72s-2.14,.23-2.97,.7c-.83,.47-1.5,1.13-2.02,1.98-.52,.85-.89,1.87-1.13,3.04-.24,1.18-.36,2.47-.36,3.89,0,3.31,.56,5.81,1.67,7.49,1.12,1.68,2.69,2.52,4.73,2.52Z"/>
    </g>
    <g>
      <path class="cls-8" d="M1459.64,334.24h-2.7v-18.94l-3.46,1.66-.79-2.52,6.95-3.96v23.76Z"/>
      <path class="cls-8" d="M1465.98,312.06c.41-.24,.87-.47,1.39-.68,.52-.22,1.05-.41,1.6-.58,.55-.17,1.1-.29,1.66-.38,.55-.08,1.07-.13,1.55-.13,2.14,0,3.85,.52,5.15,1.57s1.94,2.59,1.94,4.63c0,1.01-.33,1.94-.99,2.79-.66,.85-1.47,1.53-2.43,2.03,1.44,.48,2.56,1.2,3.37,2.16,.8,.96,1.21,2.23,1.21,3.82,0,1.01-.18,1.96-.54,2.84-.36,.89-.91,1.67-1.66,2.34-.74,.67-1.67,1.21-2.77,1.6-1.1,.4-2.4,.59-3.89,.59-1.39,0-2.68-.2-3.87-.59-1.19-.4-2.24-.94-3.15-1.64l.72-2.41c.84,.7,1.78,1.25,2.81,1.66,1.03,.41,2.16,.61,3.38,.61,1.94,0,3.43-.45,4.45-1.35,1.02-.9,1.53-2.21,1.53-3.94,0-1.37-.46-2.45-1.39-3.26-.92-.8-2.48-1.21-4.66-1.21h-.97v-2.05h1.12c1.51,0,2.68-.38,3.51-1.15s1.24-1.81,1.24-3.13c0-1.06-.29-1.91-.86-2.56-.58-.65-1.58-.97-3.02-.97-.55,0-1.1,.05-1.66,.14-.55,.1-1.08,.22-1.58,.38-.5,.16-.98,.34-1.42,.56-.44,.22-.81,.44-1.1,.68l-.65-2.38Z"/>
      <path class="cls-8" d="M1485.24,322.83l1.33-12.53h12.2v2.52h-9.94l-.94,7.67c.74-.17,1.52-.31,2.34-.41,.82-.11,1.57-.16,2.27-.16,1.08,0,2.08,.15,3.01,.45,.92,.3,1.72,.74,2.38,1.31s1.18,1.29,1.55,2.14c.37,.85,.56,1.83,.56,2.93s-.18,2.06-.54,3.02c-.36,.96-.91,1.8-1.64,2.52-.73,.72-1.65,1.3-2.75,1.73-1.1,.43-2.4,.65-3.89,.65-1.39,0-2.68-.2-3.87-.59-1.19-.4-2.24-.94-3.15-1.64l.76-2.52c.89,.7,1.82,1.27,2.81,1.71,.98,.44,2.15,.67,3.49,.67,1.82,0,3.25-.45,4.28-1.35,1.03-.9,1.55-2.21,1.55-3.94,0-.67-.09-1.29-.27-1.85-.18-.56-.49-1.04-.94-1.44-.44-.4-1.03-.7-1.75-.92-.72-.22-1.62-.32-2.7-.32-.84,0-1.7,.07-2.59,.22s-1.73,.37-2.52,.68l-1.04-.54Z"/>
    </g>
    <g>
      <path class="cls-8" d="M1459.64,485.09h-2.7v-18.94l-3.46,1.66-.79-2.52,6.95-3.96v23.76Z"/>
      <path class="cls-8" d="M1465.98,462.92c.41-.24,.87-.47,1.39-.68,.52-.22,1.05-.41,1.6-.58s1.1-.29,1.66-.38c.55-.08,1.07-.13,1.55-.13,2.14,0,3.85,.52,5.15,1.57s1.94,2.59,1.94,4.63c0,1.01-.33,1.94-.99,2.79-.66,.85-1.47,1.53-2.43,2.03,1.44,.48,2.56,1.2,3.37,2.16,.8,.96,1.21,2.23,1.21,3.82,0,1.01-.18,1.96-.54,2.84s-.91,1.67-1.66,2.34-1.67,1.21-2.77,1.6c-1.1,.4-2.4,.59-3.89,.59-1.39,0-2.68-.2-3.87-.59-1.19-.4-2.24-.94-3.15-1.64l.72-2.41c.84,.7,1.78,1.25,2.81,1.66,1.03,.41,2.16,.61,3.38,.61,1.94,0,3.43-.45,4.45-1.35,1.02-.9,1.53-2.21,1.53-3.94,0-1.37-.46-2.45-1.39-3.26-.92-.8-2.48-1.21-4.66-1.21h-.97v-2.05h1.12c1.51,0,2.68-.38,3.51-1.15,.83-.77,1.24-1.81,1.24-3.13,0-1.06-.29-1.91-.86-2.56-.58-.65-1.58-.97-3.02-.97-.55,0-1.1,.05-1.66,.14-.55,.1-1.08,.22-1.58,.38-.5,.16-.98,.34-1.42,.56-.44,.22-.81,.44-1.1,.68l-.65-2.38Z"/>
      <path class="cls-8" d="M1494.17,461.15c1.54,0,2.9,.32,4.09,.97,1.19,.65,2.19,1.53,3.01,2.65,.82,1.12,1.43,2.41,1.85,3.87,.42,1.46,.63,3,.63,4.61s-.22,3.11-.65,4.59c-.43,1.48-1.06,2.78-1.89,3.92-.83,1.14-1.85,2.05-3.08,2.74-1.22,.68-2.63,1.03-4.21,1.03s-2.92-.32-4.09-.97c-1.17-.65-2.13-1.52-2.9-2.63-.77-1.1-1.35-2.38-1.75-3.83-.4-1.45-.59-2.98-.59-4.59,0-1.7,.22-3.31,.65-4.81,.43-1.5,1.06-2.81,1.87-3.92,.82-1.12,1.82-2,3.01-2.65,1.19-.65,2.54-.97,4.05-.97Zm-.18,22c1.18,0,2.2-.25,3.06-.76s1.57-1.2,2.12-2.09c.55-.89,.96-1.93,1.22-3.11,.26-1.19,.4-2.47,.4-3.83,0-1.46-.14-2.79-.41-4-.28-1.2-.7-2.23-1.26-3.1-.56-.86-1.27-1.54-2.11-2.02s-1.82-.72-2.95-.72-2.14,.23-2.97,.7c-.83,.47-1.5,1.13-2.02,1.98-.52,.85-.89,1.87-1.13,3.04s-.36,2.47-.36,3.89c0,3.31,.56,5.81,1.67,7.49s2.69,2.52,4.73,2.52Z"/>
    </g>
    <g>
      <path class="cls-8" d="M1456.46,592.04h-1.95v-13.68l-2.5,1.2-.57-1.82,5.02-2.86v17.16Z"/>
      <path class="cls-8" d="M1460.49,576.03c.33-.17,.7-.34,1.12-.49s.84-.29,1.29-.42c.44-.12,.89-.21,1.35-.27,.46-.06,.9-.09,1.31-.09,.75,0,1.43,.1,2.05,.31s1.16,.49,1.6,.86c.44,.36,.78,.81,1.03,1.33,.24,.52,.36,1.09,.36,1.72,0,.97-.27,1.92-.81,2.86-.54,.94-1.21,1.87-2.01,2.79-.81,.93-1.69,1.86-2.64,2.79-.95,.94-1.85,1.87-2.68,2.81h8.32v1.82h-10.53v-1.82c.78-1,1.65-1.99,2.6-2.95,.95-.96,1.85-1.9,2.68-2.82s1.53-1.83,2.08-2.73c.55-.9,.83-1.81,.83-2.73,0-.35-.05-.67-.14-.98-.09-.3-.26-.57-.49-.81-.23-.23-.54-.42-.91-.55-.37-.13-.84-.2-1.39-.2-.38,0-.78,.03-1.21,.09-.42,.06-.84,.15-1.26,.27s-.81,.26-1.17,.42-.67,.32-.91,.49l-.47-1.72Z"/>
      <path class="cls-8" d="M1482.12,582.63c1.01,.23,1.78,.75,2.33,1.56,.55,.81,.82,1.8,.82,2.96,0,.73-.11,1.41-.34,2.04-.23,.63-.58,1.18-1.05,1.65-.48,.47-1.08,.84-1.81,1.11-.73,.27-1.59,.4-2.57,.4-1.04,0-1.92-.14-2.65-.43-.73-.29-1.32-.67-1.77-1.14-.45-.48-.78-1.03-.99-1.65s-.31-1.26-.31-1.92c0-1.14,.28-2.11,.83-2.91,.55-.8,1.33-1.34,2.31-1.64v-.1c-.61-.22-1.14-.65-1.6-1.27s-.69-1.41-.69-2.37c0-1.25,.42-2.25,1.27-3.02,.85-.76,2.05-1.14,3.61-1.14s2.72,.37,3.59,1.11c.87,.74,1.3,1.73,1.3,2.98,0,.92-.22,1.69-.66,2.33-.44,.63-.98,1.09-1.62,1.37v.1Zm.99,4.71c0-.49-.06-.96-.19-1.42-.13-.46-.34-.87-.64-1.22s-.67-.64-1.13-.86-1.01-.33-1.65-.33-1.22,.11-1.68,.33-.83,.5-1.12,.86c-.29,.36-.49,.76-.62,1.22-.13,.46-.19,.93-.19,1.42,0,1.09,.31,1.94,.92,2.54s1.51,.9,2.69,.9,2.08-.3,2.69-.9,.92-1.44,.92-2.54Zm-.83-8.32c0-.73-.2-1.35-.61-1.86-.41-.51-1.13-.77-2.17-.77s-1.74,.25-2.16,.74-.62,1.12-.62,1.88c0,.87,.24,1.57,.71,2.12,.48,.55,1.17,.82,2.07,.82s1.59-.27,2.07-.82,.71-1.25,.71-2.12Z"/>
      <path class="cls-8" d="M1488.62,591.13c0-.33,.11-.62,.34-.87,.23-.25,.51-.38,.86-.38s.62,.13,.87,.38c.25,.25,.38,.54,.38,.87s-.13,.61-.38,.84c-.25,.23-.54,.35-.87,.35-.35,0-.63-.12-.86-.35-.22-.23-.34-.51-.34-.84Z"/>
      <path class="cls-8" d="M1500.84,574.75c1.11,0,2.09,.23,2.95,.7,.86,.47,1.58,1.1,2.17,1.91,.59,.81,1.04,1.74,1.34,2.79,.3,1.06,.46,2.17,.46,3.33s-.16,2.25-.47,3.31c-.31,1.07-.77,2.01-1.37,2.83-.6,.82-1.34,1.48-2.22,1.98-.88,.49-1.9,.74-3.04,.74s-2.11-.23-2.95-.7c-.84-.47-1.54-1.1-2.09-1.9-.55-.8-.97-1.72-1.26-2.77s-.43-2.15-.43-3.32c0-1.23,.16-2.39,.47-3.47,.31-1.08,.76-2.03,1.35-2.83,.59-.81,1.31-1.44,2.17-1.91,.86-.47,1.83-.7,2.92-.7Zm-.13,15.89c.85,0,1.59-.18,2.21-.55s1.13-.87,1.53-1.51c.4-.64,.69-1.39,.88-2.25,.19-.86,.29-1.78,.29-2.77,0-1.06-.1-2.02-.3-2.89-.2-.87-.5-1.61-.91-2.24-.41-.62-.92-1.11-1.52-1.46s-1.32-.52-2.13-.52-1.55,.17-2.15,.51c-.6,.34-1.08,.82-1.46,1.43-.37,.62-.65,1.35-.82,2.2-.17,.85-.26,1.79-.26,2.81,0,2.39,.4,4.19,1.21,5.41,.81,1.21,1.95,1.82,3.42,1.82Z"/>
      <path class="cls-8" d="M1517.72,574.75c1.11,0,2.09,.23,2.95,.7,.86,.47,1.58,1.1,2.17,1.91,.59,.81,1.04,1.74,1.34,2.79,.3,1.06,.46,2.17,.46,3.33s-.16,2.25-.47,3.31c-.31,1.07-.77,2.01-1.37,2.83-.6,.82-1.34,1.48-2.22,1.98-.88,.49-1.9,.74-3.04,.74s-2.11-.23-2.95-.7c-.84-.47-1.54-1.1-2.09-1.9-.55-.8-.97-1.72-1.26-2.77s-.43-2.15-.43-3.32c0-1.23,.16-2.39,.47-3.47,.31-1.08,.76-2.03,1.35-2.83,.59-.81,1.31-1.44,2.17-1.91,.86-.47,1.83-.7,2.92-.7Zm-.13,15.89c.85,0,1.59-.18,2.21-.55s1.13-.87,1.53-1.51c.4-.64,.69-1.39,.88-2.25,.19-.86,.29-1.78,.29-2.77,0-1.06-.1-2.02-.3-2.89-.2-.87-.5-1.61-.91-2.24-.41-.62-.92-1.11-1.52-1.46s-1.32-.52-2.13-.52-1.55,.17-2.15,.51c-.6,.34-1.08,.82-1.46,1.43-.37,.62-.65,1.35-.82,2.2-.17,.85-.26,1.79-.26,2.81,0,2.39,.4,4.19,1.21,5.41,.81,1.21,1.95,1.82,3.42,1.82Z"/>
    </g>
    <line class="cls-3" x1="1431.36" x2="1431.36" y2="840.95"/>
    <g>
      <path d="M678.19,376.49h-5.75l-3.45-8.83h-11.45l-3.13,8.83h-5.52l11.78-30.36h4.55l12.97,30.36Zm-19.18-12.97h8.33l-4.37-11.18-3.96,11.18Z"/>
      <path d="M685.5,355.33v13.75c0,1.26,.33,2.22,.99,2.88,.66,.66,1.51,.99,2.55,.99s2.05-.36,2.94-1.08c.89-.72,1.55-1.76,1.98-3.1v-13.43h5.11v21.16h-3.96l-.28-2.94h-.18c-.34,.71-.77,1.28-1.29,1.72-.52,.45-1.1,.8-1.72,1.06-.63,.26-1.28,.44-1.96,.55-.67,.11-1.33,.16-1.98,.16-1.01,0-1.96-.12-2.83-.37s-1.64-.65-2.3-1.22c-.66-.57-1.18-1.32-1.56-2.25-.38-.94-.58-2.09-.58-3.47v-14.4h5.06Z"/>
      <path d="M711.86,358.42c-1.01,0-1.8,.19-2.37,.58-.57,.38-.85,.93-.85,1.63,0,.46,.16,.88,.48,1.27,.32,.38,1,.7,2.05,.94l3.27,.74c1.29,.28,2.32,.67,3.1,1.2,.78,.52,1.4,1.09,1.84,1.7,.44,.61,.74,1.24,.9,1.89,.15,.64,.23,1.24,.23,1.79,0,.98-.2,1.89-.6,2.74-.4,.84-.97,1.57-1.7,2.19-.74,.61-1.63,1.1-2.67,1.45-1.04,.35-2.21,.53-3.5,.53-1.63,0-3.13-.24-4.51-.71s-2.48-1-3.31-1.59l1.2-4.37c1.04,1.01,2.22,1.76,3.52,2.25,1.3,.49,2.51,.74,3.61,.74,1.17,0,2.05-.25,2.67-.76,.61-.51,.92-1.2,.92-2.09,0-.52-.15-.96-.46-1.31-.31-.35-.92-.65-1.84-.9l-4.42-1.1c-1.04-.25-1.89-.6-2.55-1.06-.66-.46-1.18-.97-1.56-1.54-.38-.57-.64-1.16-.78-1.77-.14-.61-.21-1.2-.21-1.75,0-2.05,.72-3.64,2.16-4.76,1.44-1.12,3.31-1.68,5.61-1.68,1.2,0,2.48,.16,3.86,.48,1.38,.32,2.54,.79,3.5,1.4l-1.33,4.14c-.61-.49-1.47-.99-2.58-1.49-1.1-.51-2.33-.76-3.68-.76Z"/>
      <path d="M726.35,358.42h-2.62v-2.62l2.62-.41c0-1.75,.05-3.24,.16-4.46,.11-1.23,.25-2.26,.44-3.1,.18-.84,.39-1.52,.62-2.05,.23-.52,.47-.95,.71-1.29,.61-.8,1.42-1.37,2.42-1.73,1-.35,2.09-.53,3.29-.53h.74c.34,0,.71,.03,1.13,.1,.41,.06,.84,.17,1.29,.31s.85,.33,1.22,.55l-1.15,3.91c-.31-.18-.81-.44-1.52-.76-.71-.32-1.4-.48-2.07-.48-.4,0-.74,.09-1.01,.28-.28,.18-.51,.52-.69,1.01-.18,.49-.31,1.15-.39,1.98-.08,.83-.12,1.89-.12,3.17v3.04h4.05v3.08h-4.05v18.08h-5.06v-18.08Z"/>
      <path d="M744.47,355.33v13.75c0,1.26,.33,2.22,.99,2.88,.66,.66,1.51,.99,2.55,.99s2.05-.36,2.94-1.08c.89-.72,1.55-1.76,1.98-3.1v-13.43h5.11v21.16h-3.96l-.28-2.94h-.18c-.34,.71-.77,1.28-1.29,1.72-.52,.45-1.1,.8-1.72,1.06-.63,.26-1.28,.44-1.96,.55-.67,.11-1.33,.16-1.98,.16-1.01,0-1.96-.12-2.83-.37s-1.64-.65-2.3-1.22c-.66-.57-1.18-1.32-1.56-2.25-.38-.94-.58-2.09-.58-3.47v-14.4h5.06Zm-1.75-6.99c0-.71,.26-1.33,.78-1.89,.52-.55,1.13-.83,1.84-.83s1.33,.28,1.89,.83c.55,.55,.83,1.18,.83,1.89s-.28,1.32-.83,1.84c-.55,.52-1.18,.78-1.89,.78s-1.32-.26-1.84-.78c-.52-.52-.78-1.13-.78-1.84Zm6.26,0c0-.71,.26-1.33,.78-1.89,.52-.55,1.13-.83,1.84-.83s1.33,.28,1.89,.83c.55,.55,.83,1.18,.83,1.89s-.28,1.32-.83,1.84c-.55,.52-1.18,.78-1.89,.78s-1.32-.26-1.84-.78c-.52-.52-.78-1.13-.78-1.84Z"/>
      <path d="M769.45,358.46c.86-1.35,1.86-2.32,3.01-2.92,1.15-.6,2.51-.9,4.07-.9,.92,0,1.81,.13,2.67,.39,.86,.26,1.62,.68,2.28,1.27s1.18,1.35,1.56,2.3c.38,.95,.58,2.12,.58,3.5v14.4h-5.06v-13.98c0-1.26-.28-2.2-.83-2.83-.55-.63-1.3-.94-2.25-.94-.58,0-1.19,.09-1.82,.28-.63,.18-1.22,.46-1.77,.83-.55,.37-1.04,.81-1.47,1.33-.43,.52-.75,1.1-.97,1.75v13.57h-5.06v-34.04h5.06v16.01Z"/>
      <path d="M801.88,359.93c-.31-.25-.78-.44-1.43-.6-.64-.15-1.2-.23-1.66-.23-.61,0-1.12,.15-1.52,.44-.4,.29-.75,.68-1.06,1.15-.31,.48-.57,1.02-.78,1.63-.21,.61-.41,1.24-.6,1.89v12.28h-5.06v-21.16h3.96l.23,4.42h.18c.31-.64,.63-1.27,.97-1.89,.34-.61,.72-1.16,1.15-1.63,.43-.48,.93-.86,1.5-1.15,.57-.29,1.23-.44,2-.44,1.23,0,2.38,.4,3.45,1.2l-1.33,4.09Z"/>
      <path d="M811.86,355.33v13.75c0,1.26,.33,2.22,.99,2.88,.66,.66,1.51,.99,2.55,.99s2.05-.36,2.94-1.08c.89-.72,1.55-1.76,1.98-3.1v-13.43h5.11v21.16h-3.96l-.28-2.94h-.18c-.34,.71-.77,1.28-1.29,1.72-.52,.45-1.1,.8-1.72,1.06-.63,.26-1.28,.44-1.96,.55-.67,.11-1.33,.16-1.98,.16-1.01,0-1.96-.12-2.83-.37s-1.64-.65-2.3-1.22c-.66-.57-1.18-1.32-1.56-2.25-.38-.94-.58-2.09-.58-3.47v-14.4h5.06Z"/>
      <path d="M845.95,376.49v-13.98c0-2.51-1.07-3.77-3.22-3.77-.52,0-1.08,.09-1.68,.28-.6,.18-1.17,.45-1.73,.81s-1.05,.79-1.5,1.31-.77,1.12-.99,1.79v13.57h-5.06v-21.16h3.96l.23,3.13h.18c.64-1.29,1.65-2.25,3.01-2.88,1.36-.63,2.83-.94,4.39-.94,1.01,0,1.96,.13,2.85,.39,.89,.26,1.68,.68,2.37,1.27,.69,.58,1.23,1.35,1.63,2.3,.4,.95,.6,2.12,.6,3.5v14.4h-5.06Z"/>
      <path d="M859.75,369.82c-1.38-.58-2.38-1.49-2.99-2.71-.61-1.23-.92-2.56-.92-4,0-1.2,.2-2.31,.6-3.36,.4-1.04,.97-1.94,1.72-2.69,.75-.75,1.66-1.34,2.71-1.77,1.06-.43,2.26-.64,3.61-.64,.8,0,1.59,.07,2.37,.22,.78,.15,1.46,.37,2.05,.67,1.29,0,2.46-.09,3.52-.26,1.06-.17,2.08-.4,3.06-.68l.41,.32-.51,3.5-.23,.23-3.27-.37-.05,.14c1.04,1.32,1.56,2.87,1.56,4.65,0,1.07-.19,2.08-.57,3.01-.38,.94-.94,1.75-1.68,2.44-.74,.69-1.65,1.24-2.74,1.66-1.09,.41-2.32,.62-3.7,.62-.34,0-.61,0-.81-.02-.2-.02-.39-.02-.57-.02-.52,.18-.92,.42-1.2,.71-.28,.29-.41,.59-.41,.9,0,.34,.17,.63,.51,.87,.34,.25,.86,.41,1.56,.51l4.46,.55c1.01,.12,1.96,.34,2.83,.64,.87,.31,1.64,.72,2.3,1.24,.66,.52,1.17,1.15,1.54,1.89s.55,1.58,.55,2.53-.2,1.87-.6,2.76c-.4,.89-1.03,1.67-1.89,2.35-.86,.67-1.94,1.21-3.24,1.61-1.3,.4-2.88,.6-4.72,.6-1.62,0-3.06-.16-4.3-.48-1.24-.32-2.29-.76-3.15-1.31-.86-.55-1.51-1.2-1.96-1.95-.45-.75-.67-1.56-.67-2.42,0-.61,.11-1.22,.32-1.82,.21-.6,.51-1.15,.9-1.66,.38-.51,.83-.96,1.33-1.36,.51-.4,1.05-.69,1.63-.87v-.18c-.71-.31-1.2-.72-1.47-1.24-.28-.52-.41-1.03-.41-1.52,0-.64,.21-1.24,.64-1.79,.43-.55,1.04-.98,1.84-1.29v-.18Zm3.5,7.68c-1.04,.18-1.93,.62-2.67,1.31-.74,.69-1.1,1.48-1.1,2.37,0,.98,.48,1.72,1.45,2.21,.97,.49,2.37,.74,4.21,.74s3.25-.25,4.32-.76,1.61-1.33,1.61-2.46-.6-1.89-1.79-2.35-3.21-.81-6.03-1.06Zm1.43-10.26c1.26,0,2.21-.41,2.85-1.22,.64-.81,.97-1.8,.97-2.97,0-.55-.08-1.11-.23-1.68-.15-.57-.4-1.08-.74-1.54-.34-.46-.76-.84-1.26-1.13s-1.1-.44-1.77-.44-1.21,.13-1.7,.39c-.49,.26-.9,.61-1.22,1.04-.32,.43-.56,.91-.71,1.45-.15,.54-.23,1.08-.23,1.63s.08,1.1,.25,1.63c.17,.54,.42,1.01,.76,1.43,.34,.41,.76,.75,1.26,1.01,.51,.26,1.1,.39,1.77,.39Z"/>
    </g>
    <g>
      <path d="M14.49,623.49l-.37-2.9h-.18c-.83,1.04-1.96,1.88-3.38,2.51-1.43,.63-2.88,.94-4.35,.94-1.93,0-3.45-.56-4.55-1.68-1.1-1.12-1.66-2.6-1.66-4.44,0-1.26,.27-2.38,.81-3.38,.54-1,1.31-1.84,2.32-2.53,1.01-.69,2.22-1.22,3.63-1.59,1.41-.37,2.99-.55,4.74-.55h1.98v-.69c0-1.2-.38-2.07-1.15-2.62-.8-.55-2.04-.83-3.73-.83-2.27,0-4.29,.51-6.07,1.52l-.97-3.82c2.05-1.2,4.54-1.79,7.45-1.79,3.07,0,5.4,.63,6.99,1.89,.74,.58,1.34,1.33,1.82,2.25,.48,.92,.71,2.02,.71,3.31v14.4h-4.05Zm-6.3-3.54c.98,0,1.96-.24,2.94-.71s1.76-1.11,2.35-1.91v-4.19h-.87c-2.51,0-4.35,.32-5.5,.97-1.15,.64-1.73,1.67-1.73,3.08,0,1.84,.94,2.76,2.81,2.76Z"/>
      <path d="M34.87,609.79l9.02,13.71h-5.52l-6.85-10.4-1.79,1.79v8.6h-5.06v-34.04h5.06v19.64l7.04-6.76h5.66l-7.54,7.45Z"/>
      <path d="M48.3,605.42h-2.62v-2.76l2.99-.46,.83-6.26h3.86v6.39h4.05v3.08h-4.05v12.14c0,.92,.09,1.54,.28,1.86,.18,.32,.54,.48,1.06,.48,.4,0,.8-.08,1.2-.23,.4-.15,.98-.44,1.75-.87l.83,3.63c-.58,.49-1.4,.88-2.46,1.17-1.06,.29-2.11,.44-3.15,.44-.92,0-1.68-.12-2.28-.37s-1.07-.6-1.4-1.08c-.34-.47-.57-1.05-.69-1.72-.12-.67-.18-1.43-.18-2.25v-13.2Z"/>
      <path d="M67.48,602.33v13.75c0,1.26,.33,2.22,.99,2.88,.66,.66,1.51,.99,2.55,.99s2.05-.36,2.94-1.08c.89-.72,1.55-1.75,1.98-3.1v-13.43h5.11v21.16h-3.96l-.28-2.94h-.18c-.34,.71-.77,1.28-1.29,1.73-.52,.44-1.1,.8-1.73,1.06-.63,.26-1.28,.44-1.96,.55-.67,.11-1.33,.16-1.98,.16-1.01,0-1.95-.12-2.83-.37s-1.64-.65-2.3-1.22c-.66-.57-1.18-1.32-1.56-2.25-.38-.93-.57-2.09-.57-3.47v-14.4h5.06Z"/>
      <path d="M97.01,601.64c2.7,0,4.78,.68,6.26,2.05s2.21,3.29,2.21,5.77c0,.34-.02,.7-.07,1.08-.05,.38-.11,.76-.18,1.13-.08,.37-.17,.7-.28,.99-.11,.29-.22,.53-.35,.71h-13.39c.06,.92,.23,1.79,.51,2.6,.28,.81,.67,1.52,1.2,2.12,.52,.6,1.16,1.07,1.91,1.43,.75,.35,1.63,.53,2.65,.53,1.13,0,2.34-.21,3.61-.64,1.27-.43,2.35-.97,3.24-1.61l.83,3.77c-.4,.25-.89,.51-1.47,.8-.58,.29-1.24,.56-1.98,.8-.74,.25-1.53,.45-2.37,.62-.84,.17-1.72,.25-2.65,.25-1.72,0-3.24-.3-4.55-.9-1.32-.6-2.42-1.41-3.31-2.44-.89-1.03-1.56-2.21-2.02-3.56s-.69-2.76-.69-4.23,.24-2.94,.71-4.3c.48-1.36,1.17-2.57,2.09-3.61,.92-1.04,2.06-1.86,3.43-2.46,1.36-.6,2.92-.9,4.67-.9Zm-.14,3.96c-1.29,0-2.38,.38-3.29,1.13-.9,.75-1.56,1.77-1.96,3.06h8.79c.03-.09,.05-.2,.07-.32,.01-.12,.02-.28,.02-.46,0-.98-.34-1.79-1.01-2.44-.67-.64-1.55-.97-2.62-.97Z"/>
      <path d="M115.96,623.49h-5.06v-34.04h5.06v34.04Z"/>
      <path d="M127.92,623.49h-5.06v-34.04h5.06v34.04Z"/>
      <path d="M144.16,601.64c2.7,0,4.78,.68,6.26,2.05s2.21,3.29,2.21,5.77c0,.34-.02,.7-.07,1.08-.05,.38-.11,.76-.18,1.13-.08,.37-.17,.7-.28,.99-.11,.29-.22,.53-.35,.71h-13.39c.06,.92,.23,1.79,.51,2.6,.28,.81,.67,1.52,1.2,2.12,.52,.6,1.16,1.07,1.91,1.43,.75,.35,1.63,.53,2.65,.53,1.13,0,2.34-.21,3.61-.64,1.27-.43,2.35-.97,3.24-1.61l.83,3.77c-.4,.25-.89,.51-1.47,.8-.58,.29-1.24,.56-1.98,.8-.74,.25-1.53,.45-2.37,.62-.84,.17-1.72,.25-2.65,.25-1.72,0-3.24-.3-4.55-.9-1.32-.6-2.42-1.41-3.31-2.44-.89-1.03-1.56-2.21-2.02-3.56s-.69-2.76-.69-4.23,.24-2.94,.71-4.3c.48-1.36,1.17-2.57,2.09-3.61,.92-1.04,2.06-1.86,3.43-2.46,1.36-.6,2.92-.9,4.67-.9Zm-.14,3.96c-1.29,0-2.38,.38-3.29,1.13-.9,.75-1.56,1.77-1.96,3.06h8.79c.03-.09,.05-.2,.07-.32,.01-.12,.02-.28,.02-.46,0-.98-.34-1.79-1.01-2.44-.67-.64-1.55-.97-2.62-.97Z"/>
      <path d="M169.88,606.93c-.31-.25-.78-.44-1.43-.6-.64-.15-1.2-.23-1.66-.23-.61,0-1.12,.15-1.52,.44-.4,.29-.75,.67-1.06,1.15s-.57,1.02-.78,1.63c-.21,.61-.41,1.24-.6,1.89v12.28h-5.06v-21.16h3.96l.23,4.42h.18c.31-.64,.63-1.27,.97-1.89s.72-1.16,1.15-1.63c.43-.48,.93-.86,1.49-1.15,.57-.29,1.23-.44,2-.44,1.23,0,2.38,.4,3.45,1.2l-1.33,4.09Z"/>
      <path d="M90.66,678.69h-5.29v-30.36h5.29v13.25c1.75-1.66,3.31-3.27,4.69-4.83,1.29-1.47,2.45-2.91,3.5-4.3,1.04-1.39,1.95-2.77,2.71-4.12h5.8c-1.35,1.84-2.64,3.53-3.86,5.06-1.23,1.53-2.58,3.13-4.05,4.78-.55,.61-1.12,1.24-1.7,1.89-.58,.64-1.18,1.29-1.79,1.93l13.57,16.7h-6.12l-10.81-13.29-1.93,1.79v11.5Z"/>
      <path d="M116.93,657.53v13.75c0,1.26,.33,2.22,.99,2.88,.66,.66,1.51,.99,2.55,.99s2.05-.36,2.94-1.08c.89-.72,1.55-1.75,1.98-3.1v-13.43h5.11v21.16h-3.96l-.28-2.94h-.18c-.34,.71-.77,1.28-1.29,1.73-.52,.44-1.1,.8-1.73,1.06-.63,.26-1.28,.44-1.96,.55-.67,.11-1.33,.16-1.98,.16-1.01,0-1.95-.12-2.83-.37s-1.64-.65-2.3-1.22c-.66-.57-1.18-1.32-1.56-2.25-.38-.93-.57-2.09-.57-3.47v-14.4h5.06Z"/>
      <path d="M148.95,662.13c-.31-.25-.78-.44-1.43-.6-.64-.15-1.2-.23-1.66-.23-.61,0-1.12,.15-1.52,.44-.4,.29-.75,.67-1.06,1.15s-.57,1.02-.78,1.63c-.21,.61-.41,1.24-.6,1.89v12.28h-5.06v-21.16h3.96l.23,4.42h.18c.31-.64,.63-1.27,.97-1.89s.72-1.16,1.15-1.63c.43-.48,.93-.86,1.49-1.15,.57-.29,1.23-.44,2-.44,1.23,0,2.38,.4,3.45,1.2l-1.33,4.09Z"/>
      <path d="M160.49,660.62c-1.01,0-1.8,.19-2.37,.58-.57,.38-.85,.93-.85,1.63,0,.46,.16,.88,.48,1.26,.32,.38,1,.7,2.05,.94l3.27,.74c1.29,.28,2.32,.67,3.1,1.2,.78,.52,1.4,1.09,1.84,1.7,.44,.61,.74,1.24,.9,1.89,.15,.64,.23,1.24,.23,1.79,0,.98-.2,1.89-.6,2.74-.4,.84-.97,1.57-1.7,2.19-.74,.61-1.63,1.1-2.67,1.45-1.04,.35-2.21,.53-3.5,.53-1.63,0-3.13-.24-4.51-.71-1.38-.47-2.48-1-3.31-1.59l1.2-4.37c1.04,1.01,2.22,1.76,3.52,2.25,1.3,.49,2.51,.74,3.61,.74,1.17,0,2.05-.25,2.67-.76,.61-.51,.92-1.2,.92-2.09,0-.52-.15-.96-.46-1.31-.31-.35-.92-.65-1.84-.9l-4.42-1.1c-1.04-.25-1.89-.6-2.55-1.06-.66-.46-1.18-.97-1.56-1.54-.38-.57-.64-1.16-.78-1.77-.14-.61-.21-1.2-.21-1.75,0-2.05,.72-3.64,2.16-4.76,1.44-1.12,3.31-1.68,5.61-1.68,1.2,0,2.48,.16,3.86,.48s2.54,.79,3.5,1.4l-1.33,4.14c-.61-.49-1.47-.99-2.58-1.5s-2.33-.76-3.68-.76Z"/>
    </g>
    <line class="cls-1" x1="194.81" y1="440.01" x2="194.81" y2="679.45"/>
    <g>
      <path d="M53.11,182.49h-5.29v-30.36h5.29v30.36Z"/>
      <path d="M74.22,182.49v-13.98c0-2.51-1.07-3.77-3.22-3.77-.52,0-1.08,.09-1.68,.28-.6,.18-1.17,.45-1.73,.81-.55,.35-1.05,.79-1.49,1.31-.44,.52-.77,1.12-.99,1.79v13.57h-5.06v-21.16h3.96l.23,3.13h.18c.64-1.29,1.65-2.25,3.01-2.88,1.36-.63,2.83-.94,4.39-.94,1.01,0,1.96,.13,2.85,.39,.89,.26,1.68,.68,2.37,1.27s1.23,1.35,1.63,2.3c.4,.95,.6,2.12,.6,3.5v14.4h-5.06Z"/>
      <path d="M84.48,154.53c0-.43,.08-.84,.25-1.24,.17-.4,.41-.76,.71-1.08,.31-.32,.65-.58,1.04-.76,.38-.18,.81-.28,1.27-.28,.43,0,.84,.09,1.24,.28,.4,.18,.76,.44,1.08,.76,.32,.32,.58,.68,.76,1.08,.18,.4,.28,.81,.28,1.24,0,.46-.09,.88-.28,1.26-.18,.38-.44,.73-.76,1.04-.32,.31-.68,.54-1.08,.71-.4,.17-.81,.25-1.24,.25-.89,0-1.66-.32-2.3-.97s-.97-1.41-.97-2.3Zm5.8,27.97h-5.06v-21.16h5.06v21.16Z"/>
      <path d="M97.59,164.42h-2.62v-2.76l2.99-.46,.83-6.26h3.86v6.39h4.05v3.08h-4.05v12.14c0,.92,.09,1.54,.28,1.86,.18,.32,.54,.48,1.06,.48,.4,0,.8-.08,1.2-.23,.4-.15,.98-.44,1.75-.87l.83,3.63c-.58,.49-1.4,.88-2.46,1.17-1.06,.29-2.11,.44-3.15,.44-.92,0-1.68-.12-2.28-.37s-1.07-.61-1.4-1.08c-.34-.48-.57-1.05-.69-1.73-.12-.67-.18-1.43-.18-2.25v-13.2Z"/>
      <path d="M111.16,154.53c0-.43,.08-.84,.25-1.24,.17-.4,.41-.76,.71-1.08,.31-.32,.65-.58,1.04-.76,.38-.18,.81-.28,1.27-.28,.43,0,.84,.09,1.24,.28,.4,.18,.76,.44,1.08,.76,.32,.32,.58,.68,.76,1.08,.18,.4,.28,.81,.28,1.24,0,.46-.09,.88-.28,1.26-.18,.38-.44,.73-.76,1.04-.32,.31-.68,.54-1.08,.71-.4,.17-.81,.25-1.24,.25-.89,0-1.66-.32-2.3-.97s-.97-1.41-.97-2.3Zm5.8,27.97h-5.06v-21.16h5.06v21.16Z"/>
      <path d="M136.18,182.49l-.37-2.9h-.18c-.83,1.04-1.96,1.88-3.38,2.51-1.43,.63-2.88,.94-4.35,.94-1.93,0-3.45-.56-4.55-1.68-1.1-1.12-1.66-2.6-1.66-4.44,0-1.26,.27-2.38,.81-3.38,.54-1,1.31-1.84,2.32-2.53,1.01-.69,2.22-1.22,3.63-1.59,1.41-.37,2.99-.55,4.74-.55h1.98v-.69c0-1.2-.38-2.07-1.15-2.62-.8-.55-2.04-.83-3.73-.83-2.27,0-4.29,.51-6.07,1.52l-.97-3.82c2.05-1.2,4.54-1.79,7.45-1.79,3.07,0,5.4,.63,6.99,1.89,.74,.58,1.34,1.33,1.82,2.25,.48,.92,.71,2.02,.71,3.31v14.4h-4.05Zm-6.3-3.54c.98,0,1.96-.24,2.94-.71,.98-.48,1.76-1.11,2.35-1.91v-4.19h-.87c-2.51,0-4.35,.32-5.5,.97-1.15,.64-1.73,1.67-1.73,3.08,0,1.84,.94,2.76,2.81,2.76Z"/>
      <path d="M151.68,182.49h-5.06v-34.04h5.06v34.04Z"/>
      <path d="M167.92,160.64c2.7,0,4.78,.68,6.26,2.05,1.47,1.37,2.21,3.29,2.21,5.77,0,.34-.02,.7-.07,1.08-.05,.38-.11,.76-.18,1.13-.08,.37-.17,.7-.28,.99-.11,.29-.22,.53-.35,.71h-13.39c.06,.92,.23,1.79,.51,2.6,.28,.81,.67,1.52,1.2,2.12,.52,.6,1.16,1.07,1.91,1.43,.75,.35,1.63,.53,2.65,.53,1.13,0,2.34-.21,3.61-.64,1.27-.43,2.35-.97,3.24-1.61l.83,3.77c-.4,.25-.89,.51-1.47,.81-.58,.29-1.24,.56-1.98,.81-.74,.25-1.53,.45-2.37,.62-.84,.17-1.72,.25-2.65,.25-1.72,0-3.24-.3-4.55-.9-1.32-.6-2.42-1.41-3.31-2.44-.89-1.03-1.56-2.21-2.02-3.56-.46-1.35-.69-2.76-.69-4.23s.24-2.94,.71-4.3c.48-1.36,1.17-2.57,2.09-3.61,.92-1.04,2.06-1.86,3.43-2.46,1.36-.6,2.92-.9,4.67-.9Zm-.14,3.96c-1.29,0-2.38,.38-3.29,1.13-.9,.75-1.56,1.77-1.96,3.06h8.79c.03-.09,.05-.2,.07-.32,.01-.12,.02-.28,.02-.46,0-.98-.34-1.79-1.01-2.44-.67-.64-1.55-.97-2.62-.97Z"/>
      <path d="M193.63,165.93c-.31-.25-.78-.44-1.43-.6-.64-.15-1.2-.23-1.66-.23-.61,0-1.12,.15-1.52,.44-.4,.29-.75,.68-1.06,1.15-.31,.48-.57,1.02-.78,1.63-.21,.61-.41,1.24-.6,1.89v12.28h-5.06v-21.16h3.96l.23,4.42h.18c.31-.64,.63-1.27,.97-1.89,.34-.61,.72-1.16,1.15-1.63,.43-.48,.93-.86,1.49-1.15,.57-.29,1.23-.44,2-.44,1.23,0,2.38,.4,3.45,1.2l-1.33,4.09Z"/>
      <path d="M228.36,156.73h-8.79v25.76h-5.29v-25.76h-8.79v-4.6h22.86v4.6Z"/>
      <path d="M240.97,165.93c-.31-.25-.78-.44-1.43-.6-.64-.15-1.2-.23-1.66-.23-.61,0-1.12,.15-1.52,.44-.4,.29-.75,.68-1.06,1.15-.31,.48-.57,1.02-.78,1.63-.21,.61-.41,1.24-.6,1.89v12.28h-5.06v-21.16h3.96l.23,4.42h.18c.31-.64,.63-1.27,.97-1.89,.34-.61,.72-1.16,1.15-1.63,.43-.48,.93-.86,1.49-1.15,.57-.29,1.23-.44,2-.44,1.23,0,2.38,.4,3.45,1.2l-1.33,4.09Z"/>
      <path d="M258.72,182.49l-.37-2.9h-.18c-.83,1.04-1.96,1.88-3.38,2.51-1.43,.63-2.88,.94-4.35,.94-1.93,0-3.45-.56-4.55-1.68-1.1-1.12-1.66-2.6-1.66-4.44,0-1.26,.27-2.38,.81-3.38,.54-1,1.31-1.84,2.32-2.53,1.01-.69,2.22-1.22,3.63-1.59,1.41-.37,2.99-.55,4.74-.55h1.98v-.69c0-1.2-.38-2.07-1.15-2.62-.8-.55-2.04-.83-3.73-.83-2.27,0-4.29,.51-6.07,1.52l-.97-3.82c2.05-1.2,4.54-1.79,7.45-1.79,3.07,0,5.4,.63,6.99,1.89,.74,.58,1.34,1.33,1.82,2.25,.48,.92,.71,2.02,.71,3.31v14.4h-4.05Zm-6.3-3.54c.98,0,1.96-.24,2.94-.71,.98-.48,1.76-1.11,2.35-1.91v-4.19h-.87c-2.51,0-4.35,.32-5.5,.97-1.15,.64-1.73,1.67-1.73,3.08,0,1.84,.94,2.76,2.81,2.76Z"/>
      <path d="M268.15,154.53c0-.43,.08-.84,.25-1.24,.17-.4,.41-.76,.71-1.08,.31-.32,.65-.58,1.04-.76,.38-.18,.8-.28,1.26-.28,.43,0,.84,.09,1.24,.28,.4,.18,.76,.44,1.08,.76,.32,.32,.57,.68,.76,1.08,.18,.4,.28,.81,.28,1.24,0,.46-.09,.88-.28,1.26-.18,.38-.44,.73-.76,1.04-.32,.31-.68,.54-1.08,.71-.4,.17-.81,.25-1.24,.25-.89,0-1.66-.32-2.3-.97-.64-.64-.97-1.41-.97-2.3Zm5.8,27.97h-5.06v-21.16h5.06v21.16Z"/>
      <path d="M285.63,182.49h-5.06v-34.04h5.06v34.04Z"/>
      <path d="M291.52,154.53c0-.43,.08-.84,.25-1.24,.17-.4,.41-.76,.71-1.08,.31-.32,.65-.58,1.04-.76,.38-.18,.8-.28,1.26-.28,.43,0,.84,.09,1.24,.28,.4,.18,.76,.44,1.08,.76,.32,.32,.57,.68,.76,1.08,.18,.4,.28,.81,.28,1.24,0,.46-.09,.88-.28,1.26-.18,.38-.44,.73-.76,1.04-.32,.31-.68,.54-1.08,.71-.4,.17-.81,.25-1.24,.25-.89,0-1.66-.32-2.3-.97-.64-.64-.97-1.41-.97-2.3Zm5.8,27.97h-5.06v-21.16h5.06v21.16Z"/>
      <path d="M317.83,182.49v-13.98c0-2.51-1.07-3.77-3.22-3.77-.52,0-1.08,.09-1.68,.28-.6,.18-1.17,.45-1.73,.81s-1.05,.79-1.5,1.31-.77,1.12-.99,1.79v13.57h-5.06v-21.16h3.96l.23,3.13h.18c.64-1.29,1.65-2.25,3.01-2.88,1.36-.63,2.83-.94,4.39-.94,1.01,0,1.96,.13,2.85,.39,.89,.26,1.68,.68,2.37,1.27,.69,.58,1.23,1.35,1.63,2.3,.4,.95,.6,2.12,.6,3.5v14.4h-5.06Z"/>
      <path d="M331.63,175.82c-1.38-.58-2.38-1.49-2.99-2.71-.61-1.23-.92-2.56-.92-4,0-1.2,.2-2.31,.6-3.36,.4-1.04,.97-1.94,1.72-2.69,.75-.75,1.66-1.34,2.71-1.77,1.06-.43,2.26-.64,3.61-.64,.8,0,1.59,.07,2.37,.22,.78,.15,1.46,.37,2.05,.67,1.29,0,2.46-.09,3.52-.26,1.06-.17,2.08-.4,3.06-.68l.41,.32-.51,3.5-.23,.23-3.27-.37-.05,.14c1.04,1.32,1.56,2.87,1.56,4.65,0,1.07-.19,2.08-.57,3.01-.38,.94-.94,1.75-1.68,2.44-.74,.69-1.65,1.24-2.74,1.66-1.09,.41-2.32,.62-3.7,.62-.34,0-.61,0-.81-.02-.2-.02-.39-.02-.57-.02-.52,.18-.92,.42-1.2,.71-.28,.29-.41,.59-.41,.9,0,.34,.17,.63,.51,.87,.34,.25,.86,.41,1.56,.51l4.46,.55c1.01,.12,1.96,.34,2.83,.64,.87,.31,1.64,.72,2.3,1.24,.66,.52,1.17,1.15,1.54,1.89s.55,1.58,.55,2.53-.2,1.87-.6,2.76c-.4,.89-1.03,1.67-1.89,2.35-.86,.67-1.94,1.21-3.24,1.61-1.3,.4-2.88,.6-4.72,.6-1.62,0-3.06-.16-4.3-.48-1.24-.32-2.29-.76-3.15-1.31-.86-.55-1.51-1.2-1.96-1.95-.45-.75-.67-1.56-.67-2.42,0-.61,.11-1.22,.32-1.82,.21-.6,.51-1.15,.9-1.66,.38-.51,.83-.96,1.33-1.36,.51-.4,1.05-.69,1.63-.87v-.18c-.71-.31-1.2-.72-1.47-1.24-.28-.52-.41-1.03-.41-1.52,0-.64,.21-1.24,.64-1.79,.43-.55,1.04-.98,1.84-1.29v-.18Zm3.5,7.68c-1.04,.18-1.93,.62-2.67,1.31-.74,.69-1.1,1.48-1.1,2.37,0,.98,.48,1.72,1.45,2.21,.97,.49,2.37,.74,4.21,.74s3.25-.25,4.32-.76,1.61-1.33,1.61-2.46-.6-1.89-1.79-2.35-3.21-.81-6.03-1.06Zm1.43-10.26c1.26,0,2.21-.41,2.85-1.22,.64-.81,.97-1.8,.97-2.97,0-.55-.08-1.11-.23-1.68-.15-.57-.4-1.08-.74-1.54-.34-.46-.76-.84-1.26-1.13s-1.1-.44-1.77-.44-1.21,.13-1.7,.39c-.49,.26-.9,.61-1.22,1.04-.32,.43-.56,.91-.71,1.45-.15,.54-.23,1.08-.23,1.63s.08,1.1,.25,1.63c.17,.54,.42,1.01,.76,1.43,.34,.41,.76,.75,1.26,1.01,.51,.26,1.1,.39,1.77,.39Z"/>
      <path d="M367.74,159.45c0,.64,.15,1.2,.44,1.66s.7,.86,1.22,1.2c.52,.34,1.14,.65,1.86,.94,.72,.29,1.53,.59,2.42,.9,1.1,.4,2.2,.85,3.29,1.36s2.07,1.13,2.94,1.89,1.59,1.68,2.14,2.78,.83,2.44,.83,4c0,1.66-.3,3.05-.9,4.19-.6,1.14-1.4,2.05-2.42,2.74-1.01,.69-2.18,1.19-3.5,1.49-1.32,.31-2.68,.46-4.09,.46-2.02,0-3.92-.25-5.68-.74s-3.27-1.09-4.53-1.79l1.38-4.97c1.17,.89,2.46,1.63,3.89,2.21s3.06,.87,4.9,.87c1.96,0,3.39-.35,4.28-1.04,.89-.69,1.33-1.62,1.33-2.78,0-.89-.21-1.65-.64-2.28-.43-.63-.97-1.17-1.61-1.61-.64-.44-1.33-.81-2.05-1.08-.72-.28-1.36-.51-1.91-.69-.98-.31-1.98-.67-2.99-1.1-1.01-.43-1.95-.99-2.81-1.68-.86-.69-1.56-1.56-2.09-2.6-.54-1.04-.81-2.35-.81-3.91,0-1.47,.25-2.71,.76-3.73,.51-1.01,1.2-1.83,2.07-2.46,.87-.63,1.9-1.08,3.08-1.36,1.18-.28,2.46-.41,3.84-.41,1.69,0,3.32,.17,4.9,.51,1.58,.34,2.91,.75,3.98,1.24l-1.24,4.88c-.55-.37-1.15-.69-1.79-.97-.64-.28-1.31-.51-2-.69-.69-.18-1.38-.33-2.07-.44-.69-.11-1.34-.16-1.96-.16-1.38,0-2.47,.26-3.27,.78-.8,.52-1.2,1.32-1.2,2.39Z"/>
      <path d="M388.3,164.42h-2.62v-2.76l2.99-.46,.83-6.26h3.86v6.39h4.05v3.08h-4.05v12.14c0,.92,.09,1.54,.28,1.86,.18,.32,.54,.48,1.06,.48,.4,0,.8-.08,1.2-.23,.4-.15,.98-.44,1.75-.87l.83,3.63c-.58,.49-1.4,.88-2.46,1.17-1.06,.29-2.11,.44-3.15,.44-.92,0-1.68-.12-2.28-.37s-1.07-.61-1.4-1.08c-.34-.48-.57-1.05-.69-1.73-.12-.67-.18-1.43-.18-2.25v-13.2Z"/>
      <path d="M412.04,160.64c1.87,0,3.48,.31,4.83,.94,1.35,.63,2.46,1.47,3.33,2.53s1.52,2.27,1.93,3.63c.41,1.37,.62,2.8,.62,4.3s-.21,2.92-.62,4.25-1.06,2.5-1.93,3.5c-.87,1-1.98,1.79-3.31,2.37-1.33,.58-2.91,.87-4.71,.87s-3.48-.31-4.83-.92c-1.35-.61-2.47-1.43-3.36-2.46-.89-1.03-1.55-2.21-1.98-3.56-.43-1.35-.64-2.77-.64-4.28s.21-2.93,.64-4.28c.43-1.35,1.08-2.54,1.96-3.56,.87-1.03,1.99-1.84,3.33-2.44,1.35-.6,2.93-.9,4.74-.9Zm.09,18.58c.89,0,1.66-.19,2.32-.57,.66-.38,1.2-.9,1.63-1.56,.43-.66,.74-1.42,.94-2.28,.2-.86,.3-1.76,.3-2.71s-.11-1.92-.32-2.83c-.21-.9-.54-1.7-.99-2.39-.45-.69-1-1.24-1.68-1.66-.67-.41-1.49-.62-2.44-.62-.89,0-1.66,.19-2.3,.58-.64,.38-1.17,.9-1.59,1.54s-.72,1.4-.92,2.25c-.2,.86-.3,1.76-.3,2.71s.1,1.92,.3,2.83c.2,.9,.52,1.71,.97,2.42,.44,.71,1,1.27,1.68,1.68,.67,.41,1.47,.62,2.39,.62Z"/>
      <path d="M439.64,160.64c1.66,0,3.08,.31,4.28,.94,1.2,.63,2.19,1.46,2.97,2.51,.78,1.04,1.36,2.25,1.72,3.61,.37,1.36,.55,2.78,.55,4.25s-.19,2.93-.57,4.28c-.38,1.35-.97,2.53-1.77,3.54-.8,1.01-1.79,1.81-2.99,2.39-1.2,.58-2.62,.87-4.28,.87-1.38,0-2.66-.2-3.84-.6-1.18-.4-2.12-1.04-2.83-1.93v13.94h-5.01v-33.12h4.05l.37,2.9h.18c.4-.49,.87-.96,1.43-1.4,.55-.44,1.15-.83,1.79-1.15,.64-.32,1.3-.58,1.98-.76,.67-.18,1.33-.28,1.98-.28Zm-.83,3.86c-.46,0-.97,.07-1.52,.21-.55,.14-1.1,.34-1.63,.6-.54,.26-1.05,.58-1.54,.94-.49,.37-.9,.78-1.24,1.24v8.97c.92,1.13,1.86,1.85,2.83,2.14,.97,.29,1.85,.44,2.65,.44,1.01,0,1.88-.18,2.6-.55s1.32-.87,1.79-1.5c.48-.63,.83-1.36,1.06-2.21,.23-.84,.34-1.75,.34-2.74,0-.92-.1-1.83-.3-2.74-.2-.9-.52-1.71-.97-2.42-.45-.71-1-1.28-1.68-1.72-.67-.44-1.47-.67-2.39-.67Z"/>
      <path d="M483.94,159.86c0,1.22-.25,2.32-.76,3.31-.51,.99-1.3,1.84-2.37,2.54,1.84,.61,3.28,1.57,4.32,2.88s1.56,2.97,1.56,4.97c0,1.28-.23,2.48-.69,3.61s-1.17,2.11-2.12,2.97c-.95,.85-2.13,1.53-3.54,2.03-1.41,.5-3.07,.75-4.97,.75h-4.92c-1.59,0-2.93-.13-4-.39v-30.38c.34-.09,.81-.14,1.43-.14h5.98c3.25,0,5.74,.66,7.47,1.99,1.73,1.33,2.6,3.28,2.6,5.87Zm-9.2-3.63c-.61,0-1.16,.02-1.63,.07-.48,.05-.93,.1-1.36,.16v7.87c.37,.03,.74,.05,1.13,.05h1.17c1.35,0,2.41-.45,3.17-1.36,.77-.9,1.15-2.09,1.15-3.56,0-.92-.31-1.69-.94-2.3-.63-.61-1.53-.92-2.69-.92Zm.41,12.01h-3.4v10.3c.55,.06,1.12,.09,1.7,.09h1.79c1.87,0,3.33-.46,4.37-1.37,1.04-.92,1.56-2.24,1.56-3.98,0-1.56-.48-2.79-1.43-3.69-.95-.9-2.48-1.35-4.6-1.35Z"/>
      <path d="M496.45,161.33v13.75c0,1.26,.33,2.22,.99,2.88,.66,.66,1.51,.99,2.55,.99s2.05-.36,2.94-1.08c.89-.72,1.55-1.76,1.98-3.1v-13.43h5.11v21.16h-3.96l-.28-2.94h-.18c-.34,.71-.77,1.28-1.29,1.72-.52,.45-1.1,.8-1.72,1.06-.63,.26-1.28,.44-1.96,.55-.67,.11-1.33,.16-1.98,.16-1.01,0-1.96-.12-2.83-.37s-1.64-.65-2.3-1.22c-.66-.57-1.18-1.32-1.56-2.25-.38-.94-.58-2.09-.58-3.47v-14.4h5.06Z"/>
      <path d="M525.52,176.38l5.89-15.04h4.88l-8.74,21.34c-.43,1.07-1.02,2.28-1.77,3.61-.75,1.33-1.64,2.59-2.67,3.77-1.03,1.18-2.19,2.18-3.47,2.99-1.29,.81-2.68,1.22-4.19,1.22-.25,0-.43,0-.55-.02-.12-.02-.26-.05-.41-.11l-.87-3.96c.09,.03,.2,.06,.32,.09,.12,.03,.38,.05,.78,.05,.58,0,1.16-.06,1.73-.18,.57-.12,1.14-.37,1.72-.74,1.1-.71,2.06-1.69,2.88-2.94,.81-1.26,1.6-2.81,2.37-4.65l-10.53-20.47h5.29l7.36,15.04Z"/>
      <path d="M556.66,182.49h-5.29v-30.36h5.29v13.25c1.75-1.66,3.31-3.27,4.69-4.83,1.29-1.47,2.45-2.91,3.5-4.3,1.04-1.4,1.95-2.77,2.71-4.12h5.8c-1.35,1.84-2.64,3.53-3.86,5.06-1.23,1.53-2.58,3.13-4.05,4.78-.55,.61-1.12,1.24-1.7,1.89-.58,.64-1.18,1.29-1.79,1.93l13.57,16.7h-6.12l-10.81-13.29-1.93,1.79v11.5Z"/>
      <path d="M582.93,161.33v13.75c0,1.26,.33,2.22,.99,2.88,.66,.66,1.51,.99,2.55,.99s2.05-.36,2.94-1.08c.89-.72,1.55-1.76,1.98-3.1v-13.43h5.11v21.16h-3.96l-.28-2.94h-.18c-.34,.71-.77,1.28-1.29,1.72-.52,.45-1.1,.8-1.72,1.06-.63,.26-1.28,.44-1.96,.55-.67,.11-1.33,.16-1.98,.16-1.01,0-1.96-.12-2.83-.37s-1.64-.65-2.3-1.22c-.66-.57-1.18-1.32-1.56-2.25-.38-.94-.58-2.09-.58-3.47v-14.4h5.06Z"/>
      <path d="M614.94,165.93c-.31-.25-.78-.44-1.43-.6-.64-.15-1.2-.23-1.66-.23-.61,0-1.12,.15-1.52,.44-.4,.29-.75,.68-1.06,1.15-.31,.48-.57,1.02-.78,1.63-.21,.61-.41,1.24-.6,1.89v12.28h-5.06v-21.16h3.96l.23,4.42h.18c.31-.64,.63-1.27,.97-1.89,.34-.61,.72-1.16,1.15-1.63,.43-.48,.93-.86,1.5-1.15,.57-.29,1.23-.44,2-.44,1.23,0,2.38,.4,3.45,1.2l-1.33,4.09Z"/>
      <path d="M626.49,164.42c-1.01,0-1.8,.19-2.37,.58-.57,.38-.85,.93-.85,1.63,0,.46,.16,.88,.48,1.27,.32,.38,1,.7,2.05,.94l3.27,.74c1.29,.28,2.32,.67,3.1,1.2,.78,.52,1.4,1.09,1.84,1.7,.44,.61,.74,1.24,.9,1.89,.15,.64,.23,1.24,.23,1.79,0,.98-.2,1.89-.6,2.74-.4,.84-.97,1.57-1.7,2.19-.74,.61-1.63,1.1-2.67,1.45-1.04,.35-2.21,.53-3.5,.53-1.63,0-3.13-.24-4.51-.71s-2.48-1-3.31-1.59l1.2-4.37c1.04,1.01,2.22,1.76,3.52,2.25,1.3,.49,2.51,.74,3.61,.74,1.17,0,2.05-.25,2.67-.76,.61-.51,.92-1.2,.92-2.09,0-.52-.15-.96-.46-1.31-.31-.35-.92-.65-1.84-.9l-4.42-1.1c-1.04-.25-1.89-.6-2.55-1.06-.66-.46-1.18-.97-1.56-1.54-.38-.57-.64-1.16-.78-1.77-.14-.61-.21-1.2-.21-1.75,0-2.05,.72-3.64,2.16-4.76,1.44-1.12,3.31-1.68,5.61-1.68,1.2,0,2.48,.16,3.86,.48,1.38,.32,2.54,.79,3.5,1.4l-1.33,4.14c-.61-.49-1.47-.99-2.58-1.49-1.1-.51-2.33-.76-3.68-.76Z"/>
    </g>
    <g>
      <path class="cls-8" d="M1458.64,693.48h-2.7v-18.94l-3.46,1.66-.79-2.52,6.95-3.96v23.76Z"/>
      <path class="cls-8" d="M1464.22,671.3c.46-.24,.97-.47,1.55-.68,.58-.22,1.17-.41,1.78-.58,.61-.17,1.24-.29,1.87-.38,.64-.08,1.24-.13,1.82-.13,1.03,0,1.98,.14,2.84,.43s1.6,.68,2.21,1.19c.61,.5,1.09,1.12,1.42,1.84,.34,.72,.5,1.51,.5,2.38,0,1.34-.37,2.66-1.12,3.96-.74,1.3-1.67,2.59-2.79,3.87-1.12,1.28-2.33,2.57-3.65,3.87-1.32,1.3-2.56,2.59-3.71,3.89h11.52v2.52h-14.58v-2.52c1.08-1.39,2.28-2.75,3.6-4.09,1.32-1.33,2.56-2.63,3.71-3.91s2.11-2.53,2.88-3.78c.77-1.25,1.15-2.51,1.15-3.78,0-.48-.07-.93-.2-1.35s-.36-.79-.68-1.12c-.32-.32-.74-.58-1.26-.76-.52-.18-1.16-.27-1.93-.27-.53,0-1.09,.04-1.67,.13-.59,.08-1.17,.21-1.75,.38s-1.12,.36-1.62,.58c-.5,.22-.92,.44-1.26,.68l-.65-2.38Z"/>
      <path class="cls-8" d="M1483.3,682.07l1.33-12.53h12.2v2.52h-9.94l-.94,7.67c.74-.17,1.52-.31,2.34-.41,.82-.11,1.57-.16,2.27-.16,1.08,0,2.08,.15,3.01,.45,.92,.3,1.72,.74,2.38,1.31,.66,.58,1.18,1.29,1.55,2.14,.37,.85,.56,1.83,.56,2.93s-.18,2.06-.54,3.02c-.36,.96-.91,1.8-1.64,2.52-.73,.72-1.65,1.3-2.75,1.73-1.1,.43-2.4,.65-3.89,.65-1.39,0-2.68-.2-3.87-.59-1.19-.4-2.24-.94-3.15-1.64l.76-2.52c.89,.7,1.82,1.27,2.81,1.71,.98,.44,2.15,.67,3.49,.67,1.82,0,3.25-.45,4.28-1.35,1.03-.9,1.55-2.21,1.55-3.94,0-.67-.09-1.29-.27-1.85-.18-.56-.49-1.04-.94-1.44-.44-.4-1.03-.7-1.75-.92s-1.62-.32-2.7-.32c-.84,0-1.7,.07-2.59,.22-.89,.14-1.73,.37-2.52,.68l-1.04-.54Z"/>
    </g>
    <rect class="cls-9" x="104.31" y="288.95" width="10" height="85.51"/>
    <rect class="cls-6" x="189.31" y="327.9" width="10" height="98.56"/>
    <rect class="cls-9" x="76.84" y="272.1" width="10" height="60.35"/>
    <rect class="cls-9" x="132.71" y="206.74" width="10" height="193.71"/>
    <rect class="cls-9" x="160.71" y="348.64" width="10" height="109.81"/>
    <rect class="cls-9" x="218.71" y="434.32" width="10" height="210.13"/>
    <rect class="cls-9" x="246.71" y="478.36" width="10" height="111.09"/>
    <rect class="cls-9" x="302.71" y="444.36" width="10" height="80.09"/>
    <rect class="cls-9" x="331.71" y="517.36" width="10" height="122.09"/>
    <rect class="cls-6" x="274.71" y="507.69" width="10" height="118.77"/>
    <rect class="cls-6" x="416.39" y="661.52" width="10" height="88.94"/>
    <rect class="cls-6" x="360.39" y="656.52" width="10" height="159.94"/>
    <rect class="cls-6" x="444.39" y="585.52" width="10" height="94.94"/>
    <rect class="cls-9" x="387.79" y="728" width="10" height="113.45"/>
    <rect class="cls-9" x="473.79" y="627.01" width="10" height="83.44"/>
    <rect class="cls-9" x="501.79" y="626.01" width="10" height="102.44"/>
    <rect class="cls-6" x="530.79" y="715.95" width="10" height="97.51"/>
    <rect class="cls-6" x="558.79" y="593.95" width="10" height="119.51"/>
    <rect class="cls-6" x="615.39" y="584.3" width="10" height="93.16"/>
    <rect class="cls-9" x="587.39" y="582.83" width="10" height="127.63"/>
    <rect class="cls-9" x="643.39" y="568.83" width="10" height="92.63"/>
    <rect class="cls-9" x="671.39" y="607.83" width="10" height="48.63"/>
    <rect class="cls-9" x="699.39" y="597.83" width="10" height="117.63"/>
    <rect class="cls-9" x="729.39" y="677.83" width="10" height="60.63"/>
    <rect class="cls-9" x="757.09" y="697.83" width="10" height="66.63"/>
    <rect class="cls-6" x="785.09" y="701.47" width="10" height="58.98"/>
    <rect class="cls-6" x="842.09" y="661.47" width="10" height="106.98"/>
    <rect class="cls-9" x="813.09" y="717.74" width="10" height="83.72"/>
    <rect class="cls-9" x="869.75" y="655.81" width="10" height="70.65"/>
    <rect class="cls-6" x="898.79" y="561.34" width="10" height="104.12"/>
    <rect class="cls-6" x="984.75" y="604.61" width="10" height="65.85"/>
    <rect class="cls-9" x="926.75" y="592.34" width="10" height="59.11"/>
    <rect class="cls-9" x="955.75" y="572.11" width="10" height="105.34"/>
    <rect class="cls-6" x="1012.31" y="474.55" width="10" height="153.9"/>
    <rect class="cls-9" x="1041.31" y="470.8" width="10" height="57.65"/>
    <rect class="cls-9" x="1069.31" y="458.65" width="10" height="110.8"/>
    <rect class="cls-9" x="1126.31" y="433.65" width="10" height="57.8"/>
    <rect class="cls-6" x="1097.79" y="390.14" width="10" height="127.32"/>
    <rect class="cls-6" x="1154.5" y="395.29" width="10" height="141.17"/>
    <rect class="cls-6" x="1182.5" y="326.88" width="10" height="108.57"/>
    <rect class="cls-9" x="1211.5" y="316.45" width="10" height="52.99"/>
    <rect class="cls-9" x="1239.79" y="303.34" width="10" height="78.12"/>
    <rect class="cls-9" x="1267.5" y="335.48" width="10" height="51.97"/>
    <rect class="cls-6" x="1296.56" y="280.59" width="10" height="81.86"/>
    <rect class="cls-6" x="1324.56" y="229.95" width="10" height="92.5"/>
    <rect class="cls-6" x="1353.56" y="192.63" width="10" height="68.83"/>
    <rect class="cls-6" x="1381.56" y="195.47" width="10" height="68.83"/>
    <rect class="cls-6" x="1409.58" y="89.28" width="10" height="94.18"/>
    <g>
      <path class="cls-8" d="M1459.25,828.11h-2.7v-18.94l-3.46,1.66-.79-2.52,6.95-3.96v23.76Z"/>
      <path class="cls-8" d="M1464.83,805.93c.46-.24,.97-.47,1.55-.68,.58-.22,1.17-.41,1.78-.58,.61-.17,1.24-.29,1.87-.38,.64-.08,1.24-.13,1.82-.13,1.03,0,1.98,.14,2.84,.43s1.6,.68,2.21,1.19c.61,.5,1.09,1.12,1.42,1.84,.34,.72,.5,1.51,.5,2.38,0,1.34-.37,2.66-1.12,3.96-.74,1.3-1.67,2.59-2.79,3.87-1.12,1.28-2.33,2.57-3.65,3.87-1.32,1.3-2.56,2.59-3.71,3.89h11.52v2.52h-14.58v-2.52c1.08-1.39,2.28-2.75,3.6-4.09,1.32-1.33,2.56-2.63,3.71-3.91s2.11-2.53,2.88-3.78c.77-1.25,1.15-2.51,1.15-3.78,0-.48-.07-.93-.2-1.35s-.36-.79-.68-1.12c-.32-.32-.74-.58-1.26-.76-.52-.18-1.16-.27-1.93-.27-.53,0-1.09,.04-1.67,.13-.59,.08-1.17,.21-1.75,.38s-1.12,.36-1.62,.58c-.5,.22-.92,.44-1.26,.68l-.65-2.38Z"/>
      <path class="cls-8" d="M1492.84,804.16c1.54,0,2.9,.32,4.09,.97,1.19,.65,2.19,1.53,3.01,2.65,.82,1.12,1.43,2.41,1.85,3.87,.42,1.46,.63,3,.63,4.61s-.22,3.11-.65,4.59c-.43,1.48-1.06,2.78-1.89,3.92-.83,1.14-1.85,2.05-3.08,2.74-1.22,.68-2.63,1.03-4.21,1.03s-2.92-.32-4.09-.97c-1.17-.65-2.13-1.52-2.9-2.63-.77-1.1-1.35-2.38-1.75-3.83-.4-1.45-.59-2.98-.59-4.59,0-1.7,.22-3.31,.65-4.81,.43-1.5,1.06-2.81,1.87-3.92,.82-1.12,1.82-2,3.01-2.65,1.19-.65,2.54-.97,4.05-.97Zm-.18,22c1.18,0,2.2-.25,3.06-.76s1.57-1.2,2.12-2.09c.55-.89,.96-1.93,1.22-3.11,.26-1.19,.4-2.47,.4-3.83,0-1.46-.14-2.79-.41-4-.28-1.2-.7-2.23-1.26-3.1-.56-.86-1.27-1.54-2.11-2.02s-1.82-.72-2.95-.72-2.14,.23-2.97,.7c-.83,.47-1.5,1.13-2.02,1.98-.52,.85-.89,1.87-1.13,3.04s-.36,2.47-.36,3.89c0,3.31,.56,5.81,1.67,7.49s2.69,2.52,4.73,2.52Z"/>
    </g>
    <circle class="cls-1" cx="904.46" cy="576.05" r="47.01"/>
    <line class="cls-1" x1="903.1" y1="342.45" x2="903.1" y2="530.99"/>
    <rect class="cls-7" x="1431.8" y="560.17" width="116.99" height="46"/>
    <g>
      <path class="cls-5" d="M1460.7,593.09h-4.14v-17.5l-2.92,1.3-.79-3.6,7.85-3.96v23.76Z"/>
      <path class="cls-5" d="M1465.67,571.03c.46-.24,.98-.47,1.57-.7,.59-.23,1.2-.43,1.84-.61,.64-.18,1.28-.32,1.93-.41,.65-.1,1.28-.14,1.91-.14,1.01,0,1.94,.14,2.81,.41,.86,.28,1.6,.67,2.21,1.19,.61,.52,1.09,1.14,1.44,1.87,.35,.73,.52,1.54,.52,2.43,0,1.22-.31,2.44-.92,3.65-.61,1.21-1.38,2.42-2.3,3.64s-1.94,2.41-3.04,3.6c-1.1,1.19-2.14,2.37-3.1,3.55h9.61v3.6h-14.58v-3.6c.94-1.27,2-2.53,3.19-3.76,1.19-1.24,2.3-2.44,3.35-3.62,1.04-1.17,1.93-2.33,2.65-3.46s1.08-2.23,1.08-3.31-.34-1.76-1.01-2.2c-.67-.43-1.55-.65-2.63-.65s-2.05,.16-3.04,.49c-1,.32-1.88,.7-2.65,1.13l-.83-3.1Z"/>
      <path class="cls-5" d="M1484.78,593.09c-.02-.22-.04-.45-.04-.7v-.7c0-1.42,.28-2.97,.85-4.66,.56-1.69,1.29-3.38,2.18-5.08,.89-1.69,1.87-3.32,2.93-4.9,1.07-1.57,2.11-2.95,3.11-4.12h-10.48v-3.78h14.58v3.78c-1.03,1.13-2.06,2.5-3.1,4.12-1.03,1.62-1.96,3.31-2.77,5.06-.82,1.75-1.48,3.47-1.98,5.15-.5,1.68-.76,3.14-.76,4.39v.76c0,.24,.01,.47,.04,.68h-4.57Z"/>
      <path class="cls-5" d="M1498.21,590.97c0-.34,.07-.66,.2-.97s.32-.59,.56-.85c.24-.25,.51-.45,.81-.59,.3-.14,.63-.22,.99-.22,.34,0,.66,.07,.97,.22,.31,.14,.59,.34,.85,.59s.45,.54,.59,.85c.14,.31,.22,.64,.22,.97,0,.36-.07,.69-.22,.99-.14,.3-.34,.57-.59,.81-.25,.24-.53,.43-.85,.56-.31,.13-.64,.2-.97,.2-.7,0-1.3-.25-1.8-.76-.5-.5-.76-1.1-.76-1.8Z"/>
      <path class="cls-5" d="M1516.35,569.15c1.54,0,2.9,.33,4.09,.99,1.19,.66,2.19,1.54,3.01,2.65,.82,1.1,1.43,2.38,1.85,3.83s.63,2.98,.63,4.59-.22,3.15-.65,4.63c-.43,1.48-1.06,2.78-1.89,3.92-.83,1.14-1.85,2.05-3.08,2.74-1.22,.68-2.63,1.03-4.21,1.03s-2.92-.32-4.09-.97c-1.17-.65-2.13-1.52-2.9-2.63-.77-1.1-1.35-2.38-1.75-3.83-.4-1.45-.59-2.98-.59-4.59,0-1.7,.22-3.31,.65-4.81,.43-1.5,1.06-2.81,1.87-3.92,.82-1.12,1.82-2,3.01-2.65,1.19-.65,2.54-.97,4.05-.97Zm-.11,20.92c.91,0,1.7-.22,2.36-.67,.66-.44,1.21-1.06,1.64-1.85s.76-1.73,.97-2.81c.22-1.08,.32-2.24,.32-3.49s-.11-2.44-.32-3.49c-.22-1.06-.55-1.97-.99-2.74-.44-.77-1-1.36-1.67-1.78s-1.45-.63-2.34-.63-1.65,.21-2.29,.63-1.15,1.01-1.55,1.76c-.4,.76-.69,1.67-.88,2.74-.19,1.07-.29,2.24-.29,3.51,0,2.9,.44,5.1,1.31,6.59,.88,1.49,2.12,2.23,3.73,2.23Z"/>
    </g>
    <path class="cls-2" d="M198.29,207.95c25.33,33.33,50.67,66.67,76,100,32.67,1,65.33,2,98,3,23.33,71.67,46.67,143.33,70,215,103.33,.67,206.67,1.33,310,2,24.67,18.67,49.33,37.33,74,56,205.67-.33,411.33-.67,617-1"/>
    <rect class="cls-7" x="1430.2" y="185.47" width="118.6" height="46"/>
    <g>
      <path class="cls-5" d="M1462.09,221.19h-4.14v-17.5l-2.92,1.3-.79-3.6,7.85-3.96v23.76Z"/>
      <path class="cls-5" d="M1467.78,199.16c.91-.55,1.96-1.01,3.15-1.37,1.19-.36,2.37-.54,3.55-.54,1.01,0,1.93,.14,2.77,.43,.84,.29,1.57,.69,2.18,1.21,.61,.52,1.09,1.13,1.42,1.85,.34,.72,.5,1.51,.5,2.38,0,1.27-.32,2.31-.97,3.11-.65,.8-1.46,1.48-2.45,2.03,1.44,.48,2.56,1.2,3.37,2.16,.8,.96,1.21,2.22,1.21,3.78,0,1.01-.18,1.96-.54,2.86s-.91,1.69-1.66,2.36-1.67,1.21-2.77,1.6c-1.1,.4-2.39,.59-3.85,.59-2.98,0-5.42-.82-7.34-2.45l1.01-3.28c.84,.7,1.78,1.25,2.81,1.66,1.03,.41,2.14,.61,3.31,.61,1.51,0,2.66-.35,3.44-1.06,.78-.71,1.17-1.75,1.17-3.11,0-1.22-.35-2.19-1.06-2.9s-1.89-1.06-3.55-1.06h-.97v-3.13h1.12c1.06,0,1.87-.34,2.45-1.01s.86-1.56,.86-2.66c0-.98-.3-1.67-.9-2.07-.6-.4-1.32-.59-2.16-.59-.46,0-.93,.05-1.42,.14-.49,.1-.97,.23-1.42,.41-.46,.18-.88,.38-1.28,.61-.4,.23-.74,.47-1.03,.74l-.94-3.31Z"/>
      <path class="cls-5" d="M1487.08,221.19c-.02-.22-.04-.45-.04-.7v-.7c0-1.42,.28-2.97,.85-4.66,.56-1.69,1.29-3.38,2.18-5.08,.89-1.69,1.87-3.32,2.93-4.9,1.07-1.57,2.11-2.95,3.11-4.12h-10.48v-3.78h14.58v3.78c-1.03,1.13-2.06,2.5-3.1,4.12-1.03,1.62-1.96,3.31-2.77,5.06-.82,1.75-1.48,3.47-1.98,5.15-.5,1.68-.76,3.14-.76,4.39v.76c0,.24,.01,.47,.04,.68h-4.57Z"/>
      <path class="cls-5" d="M1500.5,219.07c0-.34,.07-.66,.2-.97s.32-.59,.56-.85c.24-.25,.51-.45,.81-.59,.3-.14,.63-.22,.99-.22,.34,0,.66,.07,.97,.22,.31,.14,.59,.34,.85,.59s.45,.54,.59,.85c.14,.31,.22,.64,.22,.97,0,.36-.07,.69-.22,.99-.14,.3-.34,.57-.59,.81-.25,.24-.53,.43-.85,.56-.31,.13-.64,.2-.97,.2-.7,0-1.3-.25-1.8-.76-.5-.5-.76-1.1-.76-1.8Z"/>
      <path class="cls-5" d="M1515.73,221.19h-4.14v-17.5l-2.92,1.3-.79-3.6,7.85-3.96v23.76Z"/>
    </g>
    <circle class="cls-1" cx="194.23" cy="393.59" r="47.01"/>
    <g>
      <line class="cls-2" x1="40.59" y1="208.71" x2="46.59" y2="208.71"/>
      <line class="cls-4" x1="58.58" y1="208.71" x2="1419.09" y2="208.71"/>
      <line class="cls-2" x1="1425.08" y1="208.71" x2="1431.08" y2="208.71"/>
    </g>
  </g>
</svg>