<?xml version="1.0" encoding="UTF-8"?>
<svg id="Ebene_2" data-name="Ebene 2" xmlns="http://www.w3.org/2000/svg" viewBox="0 0 1502.13 744.95">
  <defs>
    <style>
      .cls-1 {
        stroke-dasharray: 0 0 9.84 9.84;
      }

      .cls-1, .cls-2, .cls-3, .cls-4, .cls-5, .cls-6, .cls-7, .cls-8, .cls-9, .cls-10, .cls-11, .cls-12 {
        fill: none;
        stroke-miterlimit: 10;
      }

      .cls-1, .cls-2, .cls-3, .cls-4, .cls-7, .cls-8, .cls-9, .cls-10, .cls-11, .cls-12 {
        stroke-width: 4px;
      }

      .cls-1, .cls-2, .cls-3, .cls-8, .cls-9, .cls-10, .cls-11, .cls-12 {
        stroke: #000;
      }

      .cls-13 {
        fill: #fff;
      }

      .cls-3 {
        stroke-dasharray: 0 0 9.6 9.6;
      }

      .cls-14 {
        fill: #1dcaa2;
      }

      .cls-4, .cls-6 {
        stroke: #253c78;
      }

      .cls-5 {
        stroke: #171614;
      }

      .cls-15 {
        fill: #253c78;
      }

      .cls-16 {
        fill: #171614;
      }

      .cls-6 {
        stroke-width: 3px;
      }

      .cls-7 {
        stroke: #1b1464;
      }

      .cls-8 {
        stroke-dasharray: 0 0 11.92 11.92;
      }

      .cls-9 {
        stroke-dasharray: 0 0 13.24 13.24;
      }

      .cls-17 {
        fill: #e70036;
      }

      .cls-10 {
        stroke-dasharray: 0 0 12.41 12.41;
      }

      .cls-11 {
        stroke-dasharray: 0 0 13 13;
      }

      .cls-12 {
        stroke-dasharray: 0 0 15.42 15.42;
      }
    </style>
  </defs>
  <g id="Ebene_1-2" data-name="Ebene 1">
    <g>
      <path class="cls-16" d="M1411.18,17.88c0,2.18,.5,3.75,1.51,4.7,1.01,.95,2.41,1.42,4.21,1.42s3.21-.47,4.23-1.42c1.02-.95,1.53-2.51,1.53-4.7V3.33h3.96v15.41c0,1.18-.19,2.29-.58,3.35-.38,1.06-.98,1.99-1.78,2.79-.8,.8-1.84,1.44-3.1,1.91-1.26,.47-2.75,.7-4.48,.7s-3.2-.23-4.43-.7c-1.22-.47-2.23-1.1-3.01-1.91-.78-.8-1.34-1.73-1.69-2.79-.35-1.06-.52-2.17-.52-3.35V3.33h4.14v14.54Z"/>
      <path class="cls-16" d="M1435.7,9.06c0,.5,.11,.94,.34,1.3,.23,.36,.55,.67,.95,.94,.41,.26,.89,.51,1.46,.74,.56,.23,1.19,.46,1.89,.7,.86,.31,1.72,.67,2.57,1.06,.85,.4,1.62,.89,2.3,1.48,.68,.59,1.24,1.31,1.67,2.18,.43,.86,.65,1.91,.65,3.13,0,1.3-.23,2.39-.7,3.28-.47,.89-1.1,1.6-1.89,2.14s-1.71,.93-2.74,1.17c-1.03,.24-2.1,.36-3.2,.36-1.58,0-3.07-.19-4.45-.58s-2.56-.85-3.55-1.4l1.08-3.89c.91,.7,1.93,1.27,3.04,1.73,1.12,.46,2.39,.68,3.83,.68,1.54,0,2.65-.27,3.35-.81,.7-.54,1.04-1.27,1.04-2.18,0-.7-.17-1.29-.5-1.78-.34-.49-.76-.91-1.26-1.26-.5-.35-1.04-.63-1.6-.85-.56-.22-1.06-.4-1.49-.54-.77-.24-1.55-.53-2.34-.86-.79-.34-1.52-.77-2.2-1.31s-1.22-1.22-1.64-2.03-.63-1.84-.63-3.06c0-1.15,.2-2.12,.59-2.92,.4-.79,.94-1.43,1.62-1.93,.68-.49,1.49-.85,2.41-1.06,.92-.22,1.93-.32,3.01-.32,1.32,0,2.6,.13,3.83,.4,1.24,.26,2.27,.59,3.11,.97l-.97,3.82c-.43-.29-.9-.54-1.4-.76-.5-.22-1.03-.4-1.57-.54-.54-.14-1.08-.26-1.62-.34-.54-.08-1.05-.13-1.53-.13-1.08,0-1.93,.2-2.56,.61-.62,.41-.94,1.03-.94,1.87Z"/>
      <path class="cls-16" d="M1452.19,3.35c.31-.08,.8-.13,1.48-.13h5.87c2.33,0,4.24,.24,5.74,.72,1.5,.48,2.74,1.13,3.73,1.96,1.27,1.1,2.2,2.49,2.77,4.18s.86,3.56,.86,5.61c0,1.55-.2,3.03-.59,4.45-.4,1.42-1.1,2.66-2.12,3.73-1.02,1.07-2.42,1.92-4.21,2.55s-4.07,.95-6.86,.95h-3.24c-1.15,0-2.29-.1-3.42-.29V3.35Zm7.67,20.68c2.9,0,5.02-.69,6.35-2.08,1.33-1.39,2-3.65,2-6.78,0-1.41-.14-2.65-.41-3.71-.28-1.06-.75-1.95-1.42-2.67-.67-.72-1.57-1.25-2.7-1.61-1.13-.36-2.53-.54-4.21-.54h-3.13V23.93c.67,.07,1.32,.11,1.94,.11h1.58Z"/>
    </g>
    <g>
      <path class="cls-16" d="M1410.98,101.09h-2.7v-18.94l-3.46,1.66-.79-2.52,6.95-3.96v23.76Z"/>
      <path class="cls-16" d="M1417.31,89.68l1.33-12.53h12.2v2.52h-9.94l-.94,7.67c.74-.17,1.52-.31,2.34-.41,.82-.11,1.57-.16,2.27-.16,1.08,0,2.08,.15,3.01,.45,.92,.3,1.72,.74,2.38,1.31s1.18,1.29,1.55,2.14c.37,.85,.56,1.83,.56,2.93s-.18,2.06-.54,3.02c-.36,.96-.91,1.8-1.64,2.52-.73,.72-1.65,1.3-2.75,1.73-1.1,.43-2.4,.65-3.89,.65-1.39,0-2.68-.2-3.87-.59-1.19-.4-2.24-.94-3.15-1.64l.76-2.52c.89,.7,1.82,1.27,2.81,1.71,.98,.44,2.15,.67,3.49,.67,1.82,0,3.25-.45,4.28-1.35,1.03-.9,1.55-2.21,1.55-3.94,0-.67-.09-1.29-.27-1.85-.18-.56-.49-1.04-.94-1.44-.44-.4-1.03-.7-1.75-.92-.72-.22-1.62-.32-2.7-.32-.84,0-1.7,.07-2.59,.22s-1.73,.37-2.52,.68l-1.04-.54Z"/>
      <path class="cls-16" d="M1436.68,89.68l1.33-12.53h12.2v2.52h-9.94l-.94,7.67c.74-.17,1.52-.31,2.34-.41,.82-.11,1.57-.16,2.27-.16,1.08,0,2.08,.15,3.01,.45,.92,.3,1.72,.74,2.38,1.31s1.18,1.29,1.55,2.14c.37,.85,.56,1.83,.56,2.93s-.18,2.06-.54,3.02c-.36,.96-.91,1.8-1.64,2.52-.73,.72-1.65,1.3-2.75,1.73-1.1,.43-2.4,.65-3.89,.65-1.39,0-2.68-.2-3.87-.59-1.19-.4-2.24-.94-3.15-1.64l.76-2.52c.89,.7,1.82,1.27,2.81,1.71,.98,.44,2.15,.67,3.49,.67,1.82,0,3.25-.45,4.28-1.35,1.03-.9,1.55-2.21,1.55-3.94,0-.67-.09-1.29-.27-1.85-.18-.56-.49-1.04-.94-1.44-.44-.4-1.03-.7-1.75-.92-.72-.22-1.62-.32-2.7-.32-.84,0-1.7,.07-2.59,.22s-1.73,.37-2.52,.68l-1.04-.54Z"/>
    </g>
    <line class="cls-5" x1="1382.69" x2="1382.69" y2="744.95"/>
    <g>
      <path d="M602.52,308.49h-5.75l-3.45-8.83h-11.45l-3.13,8.83h-5.52l11.78-30.36h4.55l12.97,30.36Zm-19.18-12.97h8.33l-4.37-11.18-3.96,11.18Z"/>
      <path d="M609.84,287.33v13.75c0,1.26,.33,2.22,.99,2.88,.66,.66,1.51,.99,2.55,.99s2.05-.36,2.94-1.08c.89-.72,1.55-1.76,1.98-3.1v-13.43h5.11v21.16h-3.96l-.28-2.94h-.18c-.34,.71-.77,1.28-1.29,1.72-.52,.45-1.1,.8-1.72,1.06-.63,.26-1.28,.44-1.96,.55-.67,.11-1.33,.16-1.98,.16-1.01,0-1.96-.12-2.83-.37s-1.64-.65-2.3-1.22c-.66-.57-1.18-1.32-1.56-2.25-.38-.94-.58-2.09-.58-3.47v-14.4h5.06Z"/>
      <path d="M636.19,290.42c-1.01,0-1.8,.19-2.37,.58-.57,.38-.85,.93-.85,1.63,0,.46,.16,.88,.48,1.27,.32,.38,1,.7,2.05,.94l3.27,.74c1.29,.28,2.32,.67,3.1,1.2,.78,.52,1.4,1.09,1.84,1.7,.44,.61,.74,1.24,.9,1.89,.15,.64,.23,1.24,.23,1.79,0,.98-.2,1.89-.6,2.74-.4,.84-.97,1.57-1.7,2.19-.74,.61-1.63,1.1-2.67,1.45-1.04,.35-2.21,.53-3.5,.53-1.63,0-3.13-.24-4.51-.71s-2.48-1-3.31-1.59l1.2-4.37c1.04,1.01,2.22,1.76,3.52,2.25,1.3,.49,2.51,.74,3.61,.74,1.17,0,2.05-.25,2.67-.76,.61-.51,.92-1.2,.92-2.09,0-.52-.15-.96-.46-1.31-.31-.35-.92-.65-1.84-.9l-4.42-1.1c-1.04-.25-1.89-.6-2.55-1.06-.66-.46-1.18-.97-1.56-1.54-.38-.57-.64-1.16-.78-1.77-.14-.61-.21-1.2-.21-1.75,0-2.05,.72-3.64,2.16-4.76,1.44-1.12,3.31-1.68,5.61-1.68,1.2,0,2.48,.16,3.86,.48,1.38,.32,2.54,.79,3.5,1.4l-1.33,4.14c-.61-.49-1.47-.99-2.58-1.49-1.1-.51-2.33-.76-3.68-.76Z"/>
      <path d="M650.68,290.42h-2.62v-2.62l2.62-.41c0-1.75,.05-3.24,.16-4.46,.11-1.23,.25-2.26,.44-3.1,.18-.84,.39-1.52,.62-2.05,.23-.52,.47-.95,.71-1.29,.61-.8,1.42-1.37,2.42-1.73,1-.35,2.09-.53,3.29-.53h.74c.34,0,.71,.03,1.13,.1,.41,.06,.84,.17,1.29,.31s.85,.33,1.22,.55l-1.15,3.91c-.31-.18-.81-.44-1.52-.76-.71-.32-1.4-.48-2.07-.48-.4,0-.74,.09-1.01,.28-.28,.18-.51,.52-.69,1.01-.18,.49-.31,1.15-.39,1.98-.08,.83-.12,1.89-.12,3.17v3.04h4.05v3.08h-4.05v18.08h-5.06v-18.08Z"/>
      <path d="M668.81,287.33v13.75c0,1.26,.33,2.22,.99,2.88,.66,.66,1.51,.99,2.55,.99s2.05-.36,2.94-1.08c.89-.72,1.55-1.76,1.98-3.1v-13.43h5.11v21.16h-3.96l-.28-2.94h-.18c-.34,.71-.77,1.28-1.29,1.72-.52,.45-1.1,.8-1.72,1.06-.63,.26-1.28,.44-1.96,.55-.67,.11-1.33,.16-1.98,.16-1.01,0-1.96-.12-2.83-.37s-1.64-.65-2.3-1.22c-.66-.57-1.18-1.32-1.56-2.25-.38-.94-.58-2.09-.58-3.47v-14.4h5.06Zm-1.75-6.99c0-.71,.26-1.33,.78-1.89,.52-.55,1.13-.83,1.84-.83s1.33,.28,1.89,.83c.55,.55,.83,1.18,.83,1.89s-.28,1.32-.83,1.84c-.55,.52-1.18,.78-1.89,.78s-1.32-.26-1.84-.78c-.52-.52-.78-1.13-.78-1.84Zm6.26,0c0-.71,.26-1.33,.78-1.89,.52-.55,1.13-.83,1.84-.83s1.33,.28,1.89,.83c.55,.55,.83,1.18,.83,1.89s-.28,1.32-.83,1.84c-.55,.52-1.18,.78-1.89,.78s-1.32-.26-1.84-.78c-.52-.52-.78-1.13-.78-1.84Z"/>
      <path d="M693.78,290.46c.86-1.35,1.86-2.32,3.01-2.92,1.15-.6,2.51-.9,4.07-.9,.92,0,1.81,.13,2.67,.39,.86,.26,1.62,.68,2.28,1.27s1.18,1.35,1.56,2.3c.38,.95,.58,2.12,.58,3.5v14.4h-5.06v-13.98c0-1.26-.28-2.2-.83-2.83-.55-.63-1.3-.94-2.25-.94-.58,0-1.19,.09-1.82,.28-.63,.18-1.22,.46-1.77,.83-.55,.37-1.04,.81-1.47,1.33-.43,.52-.75,1.1-.97,1.75v13.57h-5.06v-34.04h5.06v16.01Z"/>
      <path d="M726.21,291.93c-.31-.25-.78-.44-1.43-.6-.64-.15-1.2-.23-1.66-.23-.61,0-1.12,.15-1.52,.44-.4,.29-.75,.68-1.06,1.15-.31,.48-.57,1.02-.78,1.63-.21,.61-.41,1.24-.6,1.89v12.28h-5.06v-21.16h3.96l.23,4.42h.18c.31-.64,.63-1.27,.97-1.89,.34-.61,.72-1.16,1.15-1.63,.43-.48,.93-.86,1.5-1.15,.57-.29,1.23-.44,2-.44,1.23,0,2.38,.4,3.45,1.2l-1.33,4.09Z"/>
      <path d="M736.2,287.33v13.75c0,1.26,.33,2.22,.99,2.88,.66,.66,1.51,.99,2.55,.99s2.05-.36,2.94-1.08c.89-.72,1.55-1.76,1.98-3.1v-13.43h5.11v21.16h-3.96l-.28-2.94h-.18c-.34,.71-.77,1.28-1.29,1.72-.52,.45-1.1,.8-1.72,1.06-.63,.26-1.28,.44-1.96,.55-.67,.11-1.33,.16-1.98,.16-1.01,0-1.96-.12-2.83-.37s-1.64-.65-2.3-1.22c-.66-.57-1.18-1.32-1.56-2.25-.38-.94-.58-2.09-.58-3.47v-14.4h5.06Z"/>
      <path d="M770.28,308.49v-13.98c0-2.51-1.07-3.77-3.22-3.77-.52,0-1.08,.09-1.68,.28-.6,.18-1.17,.45-1.73,.81s-1.05,.79-1.5,1.31-.77,1.12-.99,1.79v13.57h-5.06v-21.16h3.96l.23,3.13h.18c.64-1.29,1.65-2.25,3.01-2.88,1.36-.63,2.83-.94,4.39-.94,1.01,0,1.96,.13,2.85,.39,.89,.26,1.68,.68,2.37,1.27,.69,.58,1.23,1.35,1.63,2.3,.4,.95,.6,2.12,.6,3.5v14.4h-5.06Z"/>
      <path d="M784.08,301.82c-1.38-.58-2.38-1.49-2.99-2.71-.61-1.23-.92-2.56-.92-4,0-1.2,.2-2.31,.6-3.36,.4-1.04,.97-1.94,1.72-2.69,.75-.75,1.66-1.34,2.71-1.77,1.06-.43,2.26-.64,3.61-.64,.8,0,1.59,.07,2.37,.22,.78,.15,1.46,.37,2.05,.67,1.29,0,2.46-.09,3.52-.26,1.06-.17,2.08-.4,3.06-.68l.41,.32-.51,3.5-.23,.23-3.27-.37-.05,.14c1.04,1.32,1.56,2.87,1.56,4.65,0,1.07-.19,2.08-.57,3.01-.38,.94-.94,1.75-1.68,2.44-.74,.69-1.65,1.24-2.74,1.66-1.09,.41-2.32,.62-3.7,.62-.34,0-.61,0-.81-.02-.2-.02-.39-.02-.57-.02-.52,.18-.92,.42-1.2,.71-.28,.29-.41,.59-.41,.9,0,.34,.17,.63,.51,.87,.34,.25,.86,.41,1.56,.51l4.46,.55c1.01,.12,1.96,.34,2.83,.64,.87,.31,1.64,.72,2.3,1.24,.66,.52,1.17,1.15,1.54,1.89s.55,1.58,.55,2.53-.2,1.87-.6,2.76c-.4,.89-1.03,1.67-1.89,2.35-.86,.67-1.94,1.21-3.24,1.61-1.3,.4-2.88,.6-4.72,.6-1.62,0-3.06-.16-4.3-.48-1.24-.32-2.29-.76-3.15-1.31-.86-.55-1.51-1.2-1.96-1.95-.45-.75-.67-1.56-.67-2.42,0-.61,.11-1.22,.32-1.82,.21-.6,.51-1.15,.9-1.66,.38-.51,.83-.96,1.33-1.36,.51-.4,1.05-.69,1.63-.87v-.18c-.71-.31-1.2-.72-1.47-1.24-.28-.52-.41-1.03-.41-1.52,0-.64,.21-1.24,.64-1.79,.43-.55,1.04-.98,1.84-1.29v-.18Zm3.5,7.68c-1.04,.18-1.93,.62-2.67,1.31-.74,.69-1.1,1.48-1.1,2.37,0,.98,.48,1.72,1.45,2.21,.97,.49,2.37,.74,4.21,.74s3.25-.25,4.32-.76,1.61-1.33,1.61-2.46-.6-1.89-1.79-2.35-3.21-.81-6.03-1.06Zm1.43-10.26c1.26,0,2.21-.41,2.85-1.22,.64-.81,.97-1.8,.97-2.97,0-.55-.08-1.11-.23-1.68-.15-.57-.4-1.08-.74-1.54-.34-.46-.76-.84-1.26-1.13s-1.1-.44-1.77-.44-1.21,.13-1.7,.39c-.49,.26-.9,.61-1.22,1.04-.32,.43-.56,.91-.71,1.45-.15,.54-.23,1.08-.23,1.63s.08,1.1,.25,1.63c.17,.54,.42,1.01,.76,1.43,.34,.41,.76,.75,1.26,1.01,.51,.26,1.1,.39,1.77,.39Z"/>
    </g>
    <g>
      <path d="M16.04,98.19c0,.64,.15,1.2,.44,1.66,.29,.46,.7,.86,1.22,1.2,.52,.34,1.14,.65,1.86,.94,.72,.29,1.52,.59,2.42,.9,1.1,.4,2.2,.85,3.29,1.36,1.09,.51,2.07,1.13,2.94,1.89s1.59,1.68,2.14,2.78c.55,1.1,.83,2.44,.83,4,0,1.66-.3,3.05-.9,4.19-.6,1.14-1.4,2.05-2.42,2.74-1.01,.69-2.18,1.19-3.5,1.49-1.32,.31-2.68,.46-4.09,.46-2.02,0-3.92-.25-5.68-.74-1.76-.49-3.27-1.09-4.53-1.79l1.38-4.97c1.17,.89,2.46,1.63,3.89,2.21,1.43,.58,3.06,.87,4.9,.87,1.96,0,3.39-.35,4.28-1.04,.89-.69,1.33-1.62,1.33-2.78,0-.89-.21-1.65-.64-2.28-.43-.63-.97-1.17-1.61-1.61-.64-.44-1.33-.81-2.05-1.08-.72-.28-1.36-.51-1.91-.69-.98-.31-1.98-.67-2.99-1.1-1.01-.43-1.95-.99-2.81-1.68-.86-.69-1.56-1.56-2.09-2.6-.54-1.04-.8-2.35-.8-3.91,0-1.47,.25-2.71,.76-3.73,.51-1.01,1.2-1.83,2.07-2.46,.87-.63,1.9-1.08,3.08-1.36,1.18-.28,2.46-.41,3.84-.41,1.69,0,3.32,.17,4.9,.51,1.58,.34,2.91,.75,3.98,1.24l-1.24,4.88c-.55-.37-1.15-.69-1.79-.97-.64-.28-1.31-.51-2-.69s-1.38-.33-2.07-.44c-.69-.11-1.34-.16-1.96-.16-1.38,0-2.47,.26-3.27,.78-.8,.52-1.2,1.32-1.2,2.39Z"/>
      <path d="M36.6,103.15h-2.62v-2.76l2.99-.46,.83-6.26h3.86v6.39h4.05v3.08h-4.05v12.14c0,.92,.09,1.54,.28,1.86,.18,.32,.54,.48,1.06,.48,.4,0,.8-.08,1.2-.23,.4-.15,.98-.44,1.75-.87l.83,3.63c-.58,.49-1.4,.88-2.46,1.17-1.06,.29-2.11,.44-3.15,.44-.92,0-1.68-.12-2.28-.37s-1.07-.61-1.4-1.08c-.34-.48-.57-1.05-.69-1.73-.12-.67-.18-1.43-.18-2.25v-13.2Z"/>
      <path d="M60.34,99.38c1.87,0,3.48,.31,4.83,.94,1.35,.63,2.46,1.47,3.33,2.53s1.52,2.27,1.93,3.63c.41,1.37,.62,2.8,.62,4.3s-.21,2.92-.62,4.25-1.06,2.5-1.93,3.5c-.87,1-1.98,1.79-3.31,2.37-1.33,.58-2.91,.87-4.71,.87s-3.48-.31-4.83-.92c-1.35-.61-2.47-1.43-3.36-2.46-.89-1.03-1.55-2.21-1.98-3.56-.43-1.35-.64-2.77-.64-4.28s.21-2.93,.64-4.28c.43-1.35,1.08-2.54,1.95-3.56,.87-1.03,1.99-1.84,3.34-2.44,1.35-.6,2.93-.9,4.74-.9Zm.09,18.58c.89,0,1.66-.19,2.32-.57,.66-.38,1.2-.9,1.63-1.56,.43-.66,.74-1.42,.94-2.28,.2-.86,.3-1.76,.3-2.71s-.11-1.92-.32-2.83c-.21-.9-.54-1.7-.99-2.39-.44-.69-1-1.24-1.68-1.66-.67-.41-1.49-.62-2.44-.62-.89,0-1.66,.19-2.3,.58-.64,.38-1.17,.9-1.59,1.54s-.72,1.4-.92,2.25c-.2,.86-.3,1.76-.3,2.71s.1,1.92,.3,2.83c.2,.9,.52,1.71,.97,2.42,.44,.71,1,1.27,1.68,1.68,.67,.41,1.47,.62,2.39,.62Z"/>
      <path d="M87.94,99.38c1.66,0,3.08,.31,4.28,.94,1.2,.63,2.19,1.46,2.97,2.51,.78,1.04,1.36,2.25,1.73,3.61,.37,1.36,.55,2.78,.55,4.25s-.19,2.93-.58,4.28c-.38,1.35-.97,2.53-1.77,3.54-.8,1.01-1.79,1.81-2.99,2.39-1.2,.58-2.62,.87-4.28,.87-1.38,0-2.66-.2-3.84-.6-1.18-.4-2.12-1.04-2.83-1.93v13.94h-5.01v-33.12h4.05l.37,2.9h.18c.4-.49,.87-.96,1.43-1.4,.55-.44,1.15-.83,1.79-1.15,.64-.32,1.3-.58,1.98-.76,.67-.18,1.33-.28,1.98-.28Zm-.83,3.86c-.46,0-.97,.07-1.52,.21-.55,.14-1.1,.34-1.63,.6-.54,.26-1.05,.58-1.54,.94-.49,.37-.91,.78-1.24,1.24v8.97c.92,1.13,1.86,1.85,2.83,2.14,.97,.29,1.85,.44,2.65,.44,1.01,0,1.88-.18,2.6-.55,.72-.37,1.32-.87,1.79-1.5,.48-.63,.83-1.36,1.06-2.21,.23-.84,.35-1.75,.35-2.74,0-.92-.1-1.83-.3-2.74-.2-.9-.52-1.71-.97-2.42-.44-.71-1-1.28-1.68-1.72-.68-.44-1.47-.67-2.39-.67Z"/>
      <path d="M127.77,90.64c2.39,0,4.51,.41,6.35,1.24,1.84,.83,3.39,1.96,4.65,3.38,1.26,1.43,2.21,3.07,2.85,4.94,.64,1.87,.97,3.83,.97,5.89s-.31,3.98-.94,5.86c-.63,1.89-1.58,3.56-2.85,5.01-1.27,1.46-2.85,2.62-4.74,3.5-1.89,.87-4.09,1.31-6.6,1.31s-4.58-.41-6.39-1.24c-1.81-.83-3.31-1.95-4.51-3.36-1.2-1.41-2.09-3.04-2.69-4.9-.6-1.86-.9-3.81-.9-5.87,0-2.18,.33-4.22,.99-6.14,.66-1.92,1.62-3.59,2.88-5.01,1.26-1.43,2.81-2.55,4.65-3.38,1.84-.83,3.94-1.24,6.3-1.24Zm-.23,26.63c1.69,0,3.12-.28,4.3-.85,1.18-.57,2.15-1.35,2.92-2.35,.77-1,1.33-2.17,1.68-3.52,.35-1.35,.53-2.79,.53-4.32,0-1.66-.18-3.16-.55-4.51-.37-1.35-.94-2.51-1.7-3.5-.77-.98-1.74-1.74-2.92-2.28-1.18-.54-2.57-.81-4.16-.81s-3.01,.27-4.16,.81c-1.15,.54-2.09,1.28-2.81,2.23-.72,.95-1.24,2.09-1.56,3.4-.32,1.32-.48,2.78-.48,4.37,0,3.74,.77,6.56,2.3,8.46,1.53,1.9,3.74,2.85,6.62,2.85Z"/>
      <path d="M159.74,104.67c-.31-.25-.78-.44-1.43-.6-.64-.15-1.2-.23-1.66-.23-.61,0-1.12,.15-1.52,.44-.4,.29-.75,.68-1.06,1.15-.31,.48-.57,1.02-.78,1.63-.21,.61-.41,1.24-.6,1.89v12.28h-5.06v-21.16h3.96l.23,4.42h.18c.31-.64,.63-1.27,.97-1.89,.34-.61,.72-1.16,1.15-1.63,.43-.48,.93-.86,1.49-1.15,.57-.29,1.23-.44,2-.44,1.23,0,2.38,.4,3.45,1.2l-1.33,4.09Z"/>
      <path d="M172.85,121.78c-1.44,0-2.76-.29-3.96-.87-1.2-.58-2.22-1.38-3.06-2.39-.84-1.01-1.5-2.21-1.96-3.59-.46-1.38-.69-2.88-.69-4.51,0-1.44,.19-2.83,.57-4.16,.38-1.33,.97-2.51,1.77-3.52,.8-1.01,1.79-1.82,2.97-2.44,1.18-.61,2.58-.92,4.21-.92,1.47,0,2.79,.25,3.96,.74,1.17,.49,2.1,1.18,2.81,2.07v-15h5.01v34.04h-4.05l-.37-2.9h-.18c-.86,.95-1.83,1.76-2.92,2.44-1.09,.67-2.46,1.01-4.12,1.01Zm.64-3.82c.49,0,1.01-.07,1.56-.21,.55-.14,1.1-.33,1.63-.57,.54-.25,1.05-.54,1.54-.9,.49-.35,.9-.76,1.24-1.22v-8.83c-.92-1.13-1.86-1.91-2.81-2.32-.95-.41-1.87-.62-2.76-.62-.98,0-1.82,.19-2.53,.57-.71,.38-1.3,.91-1.77,1.59-.48,.67-.83,1.45-1.06,2.32s-.35,1.79-.35,2.74,.11,1.83,.32,2.74c.21,.9,.54,1.7,.97,2.39,.43,.69,.98,1.25,1.66,1.68,.67,.43,1.46,.64,2.35,.64Z"/>
      <path d="M200.45,99.38c2.7,0,4.78,.68,6.26,2.05,1.47,1.37,2.21,3.29,2.21,5.77,0,.34-.02,.7-.07,1.08-.05,.38-.11,.76-.18,1.13-.08,.37-.17,.7-.28,.99-.11,.29-.22,.53-.35,.71h-13.39c.06,.92,.23,1.79,.51,2.6,.28,.81,.67,1.52,1.2,2.12,.52,.6,1.16,1.07,1.91,1.43,.75,.35,1.63,.53,2.65,.53,1.13,0,2.34-.21,3.61-.64,1.27-.43,2.35-.97,3.24-1.61l.83,3.77c-.4,.25-.89,.51-1.47,.81-.58,.29-1.24,.56-1.98,.81-.74,.25-1.53,.45-2.37,.62-.84,.17-1.72,.25-2.65,.25-1.72,0-3.24-.3-4.55-.9-1.32-.6-2.42-1.41-3.31-2.44-.89-1.03-1.56-2.21-2.02-3.56-.46-1.35-.69-2.76-.69-4.23s.24-2.94,.71-4.3c.48-1.36,1.17-2.57,2.09-3.61,.92-1.04,2.06-1.86,3.43-2.46,1.36-.6,2.92-.9,4.67-.9Zm-.14,3.96c-1.29,0-2.38,.38-3.29,1.13-.9,.75-1.56,1.77-1.96,3.06h8.79c.03-.09,.05-.2,.07-.32,.01-.12,.02-.28,.02-.46,0-.98-.34-1.79-1.01-2.44-.67-.64-1.55-.97-2.62-.97Z"/>
      <path d="M226.17,104.67c-.31-.25-.78-.44-1.43-.6-.64-.15-1.2-.23-1.66-.23-.61,0-1.12,.15-1.52,.44-.4,.29-.75,.68-1.06,1.15-.31,.48-.57,1.02-.78,1.63-.21,.61-.41,1.24-.6,1.89v12.28h-5.06v-21.16h3.96l.23,4.42h.18c.31-.64,.63-1.27,.97-1.89,.34-.61,.72-1.16,1.15-1.63,.43-.48,.93-.86,1.49-1.15,.57-.29,1.23-.44,2-.44,1.23,0,2.38,.4,3.45,1.2l-1.33,4.09Z"/>
      <path d="M247.69,121.23h-5.29v-30.36h5.29v13.25c1.75-1.66,3.31-3.27,4.69-4.83,1.29-1.47,2.45-2.91,3.5-4.3,1.04-1.4,1.95-2.77,2.71-4.12h5.8c-1.35,1.84-2.64,3.53-3.86,5.06-1.23,1.53-2.58,3.13-4.05,4.78-.55,.61-1.12,1.24-1.7,1.89-.58,.64-1.18,1.29-1.79,1.93l13.57,16.7h-6.12l-10.81-13.29-1.93,1.79v11.5Z"/>
      <path d="M273.96,100.07v13.75c0,1.26,.33,2.22,.99,2.88,.66,.66,1.51,.99,2.55,.99s2.05-.36,2.94-1.08c.89-.72,1.55-1.76,1.98-3.1v-13.43h5.11v21.16h-3.96l-.28-2.94h-.18c-.34,.71-.77,1.28-1.29,1.72-.52,.45-1.1,.8-1.73,1.06-.63,.26-1.28,.44-1.96,.55-.67,.11-1.33,.16-1.98,.16-1.01,0-1.95-.12-2.83-.37s-1.64-.65-2.3-1.22c-.66-.57-1.18-1.32-1.56-2.25-.38-.94-.57-2.09-.57-3.47v-14.4h5.06Z"/>
      <path d="M305.98,104.67c-.31-.25-.78-.44-1.43-.6-.64-.15-1.2-.23-1.65-.23-.62,0-1.12,.15-1.52,.44-.4,.29-.75,.68-1.06,1.15-.31,.48-.57,1.02-.78,1.63-.21,.61-.41,1.24-.6,1.89v12.28h-5.06v-21.16h3.96l.23,4.42h.18c.31-.64,.63-1.27,.97-1.89,.34-.61,.72-1.16,1.15-1.63,.43-.48,.93-.86,1.5-1.15,.57-.29,1.23-.44,2-.44,1.23,0,2.38,.4,3.45,1.2l-1.33,4.09Z"/>
      <path d="M317.52,103.15c-1.01,0-1.8,.19-2.37,.58-.57,.38-.85,.93-.85,1.63,0,.46,.16,.88,.48,1.27,.32,.38,1,.7,2.05,.94l3.27,.74c1.29,.28,2.32,.67,3.1,1.2,.78,.52,1.4,1.09,1.84,1.7,.44,.61,.74,1.24,.9,1.89,.15,.64,.23,1.24,.23,1.79,0,.98-.2,1.89-.6,2.74-.4,.84-.97,1.57-1.7,2.19-.74,.61-1.63,1.1-2.67,1.45-1.04,.35-2.21,.53-3.5,.53-1.63,0-3.13-.24-4.51-.71s-2.48-1-3.31-1.59l1.2-4.37c1.04,1.01,2.22,1.76,3.52,2.25,1.3,.49,2.51,.74,3.61,.74,1.17,0,2.05-.25,2.67-.76,.61-.51,.92-1.2,.92-2.09,0-.52-.15-.96-.46-1.31-.31-.35-.92-.65-1.84-.9l-4.42-1.1c-1.04-.25-1.89-.6-2.55-1.06-.66-.46-1.18-.97-1.56-1.54-.38-.57-.64-1.16-.78-1.77-.14-.61-.21-1.2-.21-1.75,0-2.05,.72-3.64,2.16-4.76,1.44-1.12,3.31-1.68,5.61-1.68,1.2,0,2.48,.16,3.86,.48,1.38,.32,2.54,.79,3.5,1.4l-1.33,4.14c-.61-.49-1.47-.99-2.58-1.49-1.1-.51-2.33-.76-3.68-.76Z"/>
    </g>
    <rect class="cls-14" x="844.13" y="496.45" width="10" height="118"/>
    <rect class="cls-17" x="784.64" y="418.8" width="10" height="75.65"/>
    <rect class="cls-14" x="1109.13" y="340.14" width="10" height="122.32"/>
    <rect class="cls-17" x="814.13" y="418.45" width="10" height="178"/>
    <rect class="cls-14" x="1139.13" y="274.26" width="10" height="157.2"/>
    <g>
      <path class="cls-16" d="M1410.58,535.09h-2.7v-18.94l-3.46,1.66-.79-2.52,6.95-3.96v23.76Z"/>
      <path class="cls-16" d="M1430.67,527.53h-2.48v7.56h-2.7v-7.56h-10.22v-2.52l10.04-13.68h2.88v13.68h2.48v2.52Zm-5.18-2.52v-9.76l-7.16,9.76h7.16Z"/>
      <path class="cls-16" d="M1444.13,511.15c1.54,0,2.9,.32,4.09,.97,1.19,.65,2.19,1.53,3.01,2.65,.82,1.12,1.43,2.41,1.85,3.87,.42,1.46,.63,3,.63,4.61s-.22,3.11-.65,4.59c-.43,1.48-1.06,2.78-1.89,3.92-.83,1.14-1.85,2.05-3.08,2.74-1.22,.68-2.63,1.03-4.21,1.03s-2.92-.32-4.09-.97c-1.17-.65-2.13-1.52-2.9-2.63-.77-1.1-1.35-2.38-1.75-3.83-.4-1.45-.59-2.98-.59-4.59,0-1.7,.22-3.31,.65-4.81,.43-1.5,1.06-2.81,1.87-3.92,.82-1.12,1.82-2,3.01-2.65,1.19-.65,2.54-.97,4.05-.97Zm-.18,22c1.18,0,2.2-.25,3.06-.76s1.57-1.2,2.12-2.09c.55-.89,.96-1.93,1.22-3.11,.26-1.19,.4-2.47,.4-3.83,0-1.46-.14-2.79-.41-4-.28-1.2-.7-2.23-1.26-3.1-.56-.86-1.27-1.54-2.11-2.02s-1.82-.72-2.95-.72-2.14,.23-2.97,.7c-.83,.47-1.5,1.13-2.02,1.98-.52,.85-.89,1.87-1.13,3.04s-.36,2.47-.36,3.89c0,3.31,.56,5.81,1.67,7.49s2.69,2.52,4.73,2.52Z"/>
    </g>
    <rect class="cls-17" x="1316.06" y="84.29" width="10" height="79.17"/>
    <rect class="cls-14" x="697.13" y="577.7" width="10" height="113.75"/>
    <rect class="cls-14" x="193.77" y="350.82" width="10" height="108.64"/>
    <rect class="cls-17" x="134.77" y="459.7" width="10" height="133.75"/>
    <rect class="cls-17" x="16.77" y="313.7" width="10" height="209.75"/>
    <rect class="cls-14" x="165.13" y="450.45" width="10" height="117"/>
    <rect class="cls-14" x="224.13" y="254.45" width="10" height="123"/>
    <rect class="cls-14" x="105.13" y="476.8" width="10" height="163.66"/>
    <rect class="cls-14" x="401.13" y="271.26" width="10" height="136.19"/>
    <rect class="cls-17" x="873.6" y="517.79" width="10" height="139.66"/>
    <rect class="cls-14" x="578.28" y="590.26" width="10" height="154.19"/>
    <rect class="cls-14" x="1229.13" y="214.14" width="10" height="120.31"/>
    <rect class="cls-17" x="252.98" y="228.84" width="10" height="106.61"/>
    <rect class="cls-17" x="489.98" y="450.02" width="10" height="108.44"/>
    <rect class="cls-17" x="1198.13" y="205.45" width="10" height="133"/>
    <rect class="cls-17" x="1346.81" y="117.09" width="10" height="77.36"/>
    <g>
      <path class="cls-16" d="M1411.22,264.82h-2.7v-18.94l-3.46,1.66-.79-2.52,6.95-3.96v23.76Z"/>
      <path class="cls-16" d="M1417.56,253.41l1.33-12.53h12.2v2.52h-9.94l-.94,7.67c.74-.17,1.52-.31,2.34-.41,.82-.11,1.57-.16,2.27-.16,1.08,0,2.08,.15,3.01,.45,.92,.3,1.72,.74,2.38,1.31s1.18,1.29,1.55,2.14c.37,.85,.56,1.83,.56,2.93s-.18,2.06-.54,3.02c-.36,.96-.91,1.8-1.64,2.52-.73,.72-1.65,1.3-2.75,1.73-1.1,.43-2.4,.65-3.89,.65-1.39,0-2.68-.2-3.87-.59-1.19-.4-2.24-.94-3.15-1.64l.76-2.52c.89,.7,1.82,1.27,2.81,1.71,.98,.44,2.15,.67,3.49,.67,1.82,0,3.25-.45,4.28-1.35,1.03-.9,1.55-2.21,1.55-3.94,0-.67-.09-1.29-.27-1.85-.18-.56-.49-1.04-.94-1.44-.44-.4-1.03-.7-1.75-.92-.72-.22-1.62-.32-2.7-.32-.84,0-1.7,.07-2.59,.22s-1.73,.37-2.52,.68l-1.04-.54Z"/>
      <path class="cls-16" d="M1445.85,240.88c1.54,0,2.9,.32,4.09,.97,1.19,.65,2.19,1.53,3.01,2.65,.82,1.12,1.43,2.41,1.85,3.87,.42,1.46,.63,3,.63,4.61s-.22,3.11-.65,4.59-1.06,2.78-1.89,3.92c-.83,1.14-1.85,2.05-3.08,2.74-1.22,.68-2.63,1.03-4.21,1.03s-2.92-.32-4.09-.97c-1.17-.65-2.13-1.52-2.9-2.63-.77-1.1-1.35-2.38-1.75-3.83-.4-1.45-.59-2.98-.59-4.59,0-1.7,.22-3.31,.65-4.81,.43-1.5,1.06-2.81,1.87-3.92,.82-1.12,1.82-2,3.01-2.65,1.19-.65,2.54-.97,4.05-.97Zm-.18,22c1.18,0,2.2-.25,3.06-.76,.86-.5,1.57-1.2,2.12-2.09,.55-.89,.96-1.93,1.22-3.11s.4-2.47,.4-3.83c0-1.46-.14-2.8-.41-4-.28-1.2-.7-2.23-1.26-3.1-.56-.86-1.27-1.54-2.11-2.02-.84-.48-1.82-.72-2.95-.72s-2.14,.23-2.97,.7c-.83,.47-1.5,1.13-2.02,1.98-.52,.85-.89,1.87-1.13,3.04-.24,1.18-.36,2.47-.36,3.89,0,3.31,.56,5.81,1.67,7.49,1.12,1.68,2.69,2.52,4.73,2.52Z"/>
    </g>
    <rect class="cls-15" x="1382.4" y="124.7" width="119.73" height="46"/>
    <g>
      <path class="cls-13" d="M1411.3,160.42h-4.14v-17.5l-2.92,1.3-.79-3.6,7.85-3.96v23.76Z"/>
      <path class="cls-13" d="M1417.09,149.55l1.4-13.07h12.2v3.78h-8.86l-.54,5.69c.5-.14,1.03-.25,1.58-.31,.55-.06,1.06-.09,1.51-.09,1.1,0,2.11,.16,3.02,.49s1.7,.8,2.38,1.42,1.19,1.39,1.57,2.29c.37,.9,.56,1.93,.56,3.08s-.18,2.14-.54,3.11c-.36,.97-.91,1.82-1.64,2.56-.73,.73-1.65,1.31-2.75,1.73-1.1,.42-2.4,.63-3.89,.63s-2.81-.21-4.05-.63c-1.24-.42-2.32-1.01-3.26-1.78l1.04-3.42c.36,.34,.77,.64,1.24,.92,.47,.28,.97,.52,1.51,.72s1.09,.37,1.66,.49c.56,.12,1.12,.18,1.67,.18,.6,0,1.18-.08,1.75-.23,.56-.16,1.06-.4,1.48-.74,.42-.34,.76-.77,1.01-1.31s.38-1.19,.38-1.96c0-.58-.07-1.1-.22-1.58-.14-.48-.38-.89-.72-1.22-.34-.34-.79-.6-1.35-.79-.56-.19-1.28-.29-2.14-.29-.74,0-1.56,.07-2.45,.22-.89,.14-1.73,.37-2.52,.68l-1.04-.54Z"/>
      <path class="cls-13" d="M1451.36,153.59h-2.48v6.84h-4.14v-6.84h-10.22v-3.24l10.04-13.68h4.32v13.68h2.48v3.24Zm-6.62-3.24v-8.71l-6.16,8.71h6.16Z"/>
      <path class="cls-13" d="M1454.96,158.3c0-.34,.07-.66,.2-.97s.32-.59,.56-.85c.24-.25,.51-.45,.81-.59,.3-.14,.63-.22,.99-.22,.34,0,.66,.07,.97,.22,.31,.14,.59,.34,.85,.59s.45,.54,.59,.85c.14,.31,.22,.64,.22,.97,0,.36-.07,.69-.22,.99-.14,.3-.34,.57-.59,.81-.25,.24-.53,.43-.85,.56-.31,.13-.64,.2-.97,.2-.7,0-1.3-.25-1.8-.76-.5-.5-.76-1.1-.76-1.8Z"/>
      <path class="cls-13" d="M1473.11,136.48c1.54,0,2.9,.33,4.09,.99,1.19,.66,2.19,1.54,3.01,2.65,.82,1.1,1.43,2.38,1.85,3.83s.63,2.98,.63,4.59-.22,3.15-.65,4.63c-.43,1.48-1.06,2.78-1.89,3.92-.83,1.14-1.85,2.05-3.08,2.74-1.22,.68-2.63,1.03-4.21,1.03s-2.92-.32-4.09-.97c-1.17-.65-2.13-1.52-2.9-2.63-.77-1.1-1.35-2.38-1.75-3.83-.4-1.45-.59-2.98-.59-4.59,0-1.7,.22-3.31,.65-4.81,.43-1.5,1.06-2.81,1.87-3.92,.82-1.12,1.82-2,3.01-2.65,1.19-.65,2.54-.97,4.05-.97Zm-.11,20.92c.91,0,1.7-.22,2.36-.67,.66-.44,1.21-1.06,1.64-1.85s.76-1.73,.97-2.81c.22-1.08,.32-2.24,.32-3.49s-.11-2.44-.32-3.49c-.22-1.06-.55-1.97-.99-2.74-.44-.77-1-1.36-1.67-1.78s-1.45-.63-2.34-.63-1.65,.21-2.29,.63-1.15,1.01-1.55,1.76c-.4,.76-.69,1.67-.88,2.74-.19,1.07-.29,2.24-.29,3.51,0,2.9,.44,5.1,1.31,6.59,.88,1.49,2.12,2.23,3.73,2.23Z"/>
    </g>
    <line class="cls-6" y1="146.62" x2="1390.49" y2="146.62"/>
    <rect class="cls-14" x="637.13" y="635.07" width="10" height="105.39"/>
    <rect class="cls-14" x="667.13" y="597.71" width="10" height="114.75"/>
    <rect class="cls-14" x="729.13" y="553.33" width="10" height="90.13"/>
    <rect class="cls-14" x="755.13" y="460.93" width="10" height="67.53"/>
    <rect class="cls-14" x="903.13" y="541.45" width="10" height="102"/>
    <rect class="cls-14" x="1081.13" y="285.45" width="10" height="98"/>
    <rect class="cls-14" x="932.13" y="469.45" width="10" height="135"/>
    <rect class="cls-14" x="1169.13" y="222.45" width="10" height="78"/>
    <g>
      <path class="cls-16" d="M1410.1,717.14h-2.7v-18.94l-3.46,1.66-.79-2.52,6.95-3.96v23.76Z"/>
      <path class="cls-16" d="M1416.43,694.96c.41-.24,.87-.47,1.39-.68,.52-.22,1.05-.41,1.6-.58s1.1-.29,1.66-.38c.55-.08,1.07-.13,1.55-.13,2.14,0,3.85,.52,5.15,1.57s1.94,2.59,1.94,4.63c0,1.01-.33,1.94-.99,2.79-.66,.85-1.47,1.53-2.43,2.03,1.44,.48,2.56,1.2,3.37,2.16,.8,.96,1.21,2.23,1.21,3.82,0,1.01-.18,1.96-.54,2.84s-.91,1.67-1.66,2.34-1.67,1.21-2.77,1.6c-1.1,.4-2.4,.59-3.89,.59-1.39,0-2.68-.2-3.87-.59-1.19-.4-2.24-.94-3.15-1.64l.72-2.41c.84,.7,1.78,1.25,2.81,1.66,1.03,.41,2.16,.61,3.38,.61,1.94,0,3.43-.45,4.45-1.35,1.02-.9,1.53-2.21,1.53-3.94,0-1.37-.46-2.45-1.39-3.26-.92-.8-2.48-1.21-4.66-1.21h-.97v-2.05h1.12c1.51,0,2.68-.38,3.51-1.15,.83-.77,1.24-1.81,1.24-3.13,0-1.06-.29-1.91-.86-2.56-.58-.65-1.58-.97-3.02-.97-.55,0-1.1,.05-1.66,.14-.55,.1-1.08,.22-1.58,.38-.5,.16-.98,.34-1.42,.56-.44,.22-.81,.44-1.1,.68l-.65-2.38Z"/>
      <path class="cls-16" d="M1435.69,705.72l1.33-12.53h12.2v2.52h-9.94l-.94,7.67c.74-.17,1.52-.31,2.34-.41,.82-.11,1.57-.16,2.27-.16,1.08,0,2.08,.15,3.01,.45,.92,.3,1.72,.74,2.38,1.31,.66,.58,1.18,1.29,1.55,2.14,.37,.85,.56,1.83,.56,2.93s-.18,2.06-.54,3.02c-.36,.96-.91,1.8-1.64,2.52-.73,.72-1.65,1.3-2.75,1.73-1.1,.43-2.4,.65-3.89,.65-1.39,0-2.68-.2-3.87-.59-1.19-.4-2.24-.94-3.15-1.64l.76-2.52c.89,.7,1.82,1.27,2.81,1.71,.98,.44,2.15,.67,3.49,.67,1.82,0,3.25-.45,4.28-1.35,1.03-.9,1.55-2.21,1.55-3.94,0-.67-.09-1.29-.27-1.85-.18-.56-.49-1.04-.94-1.44-.44-.4-1.03-.7-1.75-.92s-1.62-.32-2.7-.32c-.84,0-1.7,.07-2.59,.22-.89,.14-1.73,.37-2.52,.68l-1.04-.54Z"/>
    </g>
    <rect class="cls-17" x="46.43" y="438.08" width="10" height="152.38"/>
    <rect class="cls-14" x="312.13" y="211.45" width="10" height="126"/>
    <rect class="cls-17" x="75.13" y="386.82" width="10" height="238.19"/>
    <rect class="cls-17" x="1050.96" y="333.27" width="10" height="83.18"/>
    <rect class="cls-14" x="1257.13" y="149.45" width="10" height="93"/>
    <rect class="cls-15" x="1382.69" y="579.83" width="119.44" height="46"/>
    <g>
      <path class="cls-13" d="M1411.58,614.56h-4.14v-17.5l-2.92,1.3-.79-3.6,7.85-3.96v23.76Z"/>
      <path class="cls-13" d="M1417.27,592.53c.91-.55,1.96-1.01,3.15-1.37,1.19-.36,2.37-.54,3.55-.54,1.01,0,1.93,.14,2.77,.43,.84,.29,1.57,.69,2.18,1.21,.61,.52,1.09,1.13,1.42,1.85,.34,.72,.5,1.51,.5,2.38,0,1.27-.32,2.31-.97,3.11-.65,.8-1.46,1.48-2.45,2.03,1.44,.48,2.56,1.2,3.37,2.16,.8,.96,1.21,2.22,1.21,3.78,0,1.01-.18,1.96-.54,2.86s-.91,1.69-1.66,2.36-1.67,1.21-2.77,1.6c-1.1,.4-2.39,.59-3.85,.59-2.98,0-5.42-.82-7.34-2.45l1.01-3.28c.84,.7,1.78,1.25,2.81,1.66,1.03,.41,2.14,.61,3.31,.61,1.51,0,2.66-.35,3.44-1.06,.78-.71,1.17-1.75,1.17-3.11,0-1.22-.35-2.19-1.06-2.9s-1.89-1.06-3.55-1.06h-.97v-3.13h1.12c1.06,0,1.87-.34,2.45-1.01s.86-1.56,.86-2.66c0-.98-.3-1.67-.9-2.07-.6-.4-1.32-.59-2.16-.59-.46,0-.93,.05-1.42,.14-.49,.1-.97,.23-1.42,.41-.46,.18-.88,.38-1.28,.61-.4,.23-.74,.47-1.03,.74l-.94-3.31Z"/>
      <path class="cls-13" d="M1447.19,601.53c1.39,.31,2.47,1.03,3.22,2.16,.76,1.13,1.13,2.5,1.13,4.1,0,1.01-.16,1.95-.47,2.83-.31,.88-.8,1.64-1.46,2.29-.66,.65-1.49,1.16-2.5,1.53-1.01,.37-2.2,.56-3.56,.56-1.44,0-2.66-.2-3.67-.59-1.01-.4-1.82-.92-2.45-1.58s-1.08-1.42-1.37-2.29c-.29-.86-.43-1.75-.43-2.66,0-1.58,.38-2.93,1.15-4.03,.77-1.1,1.84-1.86,3.2-2.27v-.14c-.84-.31-1.58-.9-2.21-1.76-.64-.86-.95-1.96-.95-3.28,0-1.73,.59-3.12,1.76-4.18,1.18-1.06,2.84-1.58,5-1.58s3.77,.51,4.97,1.53c1.2,1.02,1.8,2.39,1.8,4.12,0,1.27-.31,2.35-.92,3.22-.61,.88-1.36,1.51-2.25,1.89v.14Zm.22,6.37c0-.55-.07-1.1-.22-1.66-.14-.55-.37-1.04-.68-1.48-.31-.43-.71-.79-1.21-1.06-.49-.28-1.07-.41-1.75-.41s-1.28,.14-1.76,.41c-.48,.28-.88,.64-1.19,1.08-.31,.44-.54,.94-.68,1.49-.14,.55-.22,1.09-.22,1.62,0,1.3,.35,2.28,1.06,2.95s1.64,1.01,2.79,1.01,2.08-.34,2.79-1.01,1.06-1.66,1.06-2.95Zm-1.08-11.05c0-.94-.23-1.67-.7-2.21s-1.16-.81-2.07-.81-1.57,.26-2.05,.77c-.48,.52-.72,1.25-.72,2.21,0,1.01,.25,1.8,.76,2.38s1.18,.86,2.02,.86,1.51-.29,2.02-.86c.5-.58,.76-1.36,.76-2.34Z"/>
      <path class="cls-13" d="M1455.4,612.44c0-.34,.07-.66,.2-.97s.32-.59,.56-.85c.24-.25,.51-.45,.81-.59,.3-.14,.63-.22,.99-.22,.34,0,.66,.07,.97,.22,.31,.14,.59,.34,.85,.59s.45,.54,.59,.85c.14,.31,.22,.64,.22,.97,0,.36-.07,.69-.22,.99-.14,.3-.34,.57-.59,.81-.25,.24-.53,.43-.85,.56-.31,.13-.64,.2-.97,.2-.7,0-1.3-.25-1.8-.76-.5-.5-.76-1.1-.76-1.8Z"/>
      <path class="cls-13" d="M1473.54,590.62c1.54,0,2.9,.33,4.09,.99,1.19,.66,2.19,1.54,3.01,2.65,.82,1.1,1.43,2.38,1.85,3.83s.63,2.98,.63,4.59-.22,3.15-.65,4.63c-.43,1.48-1.06,2.78-1.89,3.92-.83,1.14-1.85,2.05-3.08,2.74-1.22,.68-2.63,1.03-4.21,1.03s-2.92-.32-4.09-.97c-1.17-.65-2.13-1.52-2.9-2.63-.77-1.1-1.35-2.38-1.75-3.83-.4-1.45-.59-2.98-.59-4.59,0-1.7,.22-3.31,.65-4.81,.43-1.5,1.06-2.81,1.87-3.92,.82-1.12,1.82-2,3.01-2.65,1.19-.65,2.54-.97,4.05-.97Zm-.11,20.92c.91,0,1.7-.22,2.36-.67,.66-.44,1.21-1.06,1.64-1.85s.76-1.73,.97-2.81c.22-1.08,.32-2.24,.32-3.49s-.11-2.44-.32-3.49c-.22-1.06-.55-1.97-.99-2.74-.44-.77-1-1.36-1.67-1.78s-1.45-.63-2.34-.63-1.65,.21-2.29,.63-1.15,1.01-1.55,1.76c-.4,.76-.69,1.67-.88,2.74-.19,1.07-.29,2.24-.29,3.51,0,2.9,.44,5.1,1.31,6.59,.88,1.49,2.12,2.23,3.73,2.23Z"/>
    </g>
    <line class="cls-4" x1=".29" y1="601.76" x2="1390.78" y2="601.76"/>
    <rect class="cls-17" x="282.28" y="201.26" width="10" height="112.2"/>
    <rect class="cls-17" x="341.28" y="298.26" width="10" height="101.2"/>
    <rect class="cls-17" x="371.28" y="284.26" width="10" height="103.2"/>
    <rect class="cls-17" x="430.28" y="248.26" width="10" height="73.2"/>
    <rect class="cls-17" x="459.28" y="319.26" width="10" height="153.2"/>
    <rect class="cls-17" x="518.45" y="469.7" width="10" height="114.75"/>
    <rect class="cls-17" x="548.45" y="562.55" width="10" height="74.91"/>
    <rect class="cls-17" x="607.13" y="633.77" width="10" height="105.91"/>
    <rect class="cls-14" x="963.13" y="401.45" width="10" height="88"/>
    <rect class="cls-14" x="991.13" y="336.45" width="10" height="95"/>
    <rect class="cls-14" x="1021.13" y="309.45" width="10" height="74"/>
    <rect class="cls-14" x="1288.13" y="104.45" width="10" height="97"/>
    <g>
      <path class="cls-16" d="M1410.88,397.09h-2.7v-18.94l-3.46,1.66-.79-2.52,6.95-3.96v23.76Z"/>
      <path class="cls-16" d="M1430.97,389.54h-2.48v7.56h-2.7v-7.56h-10.22v-2.52l10.04-13.68h2.88v13.68h2.48v2.52Zm-5.18-2.52v-9.76l-7.16,9.76h7.16Z"/>
      <path class="cls-16" d="M1435.5,385.68l1.33-12.53h12.2v2.52h-9.94l-.94,7.67c.74-.17,1.52-.31,2.34-.41,.82-.11,1.57-.16,2.27-.16,1.08,0,2.08,.15,3.01,.45,.92,.3,1.72,.74,2.38,1.31,.66,.58,1.18,1.29,1.55,2.14,.37,.85,.56,1.83,.56,2.93s-.18,2.06-.54,3.02c-.36,.96-.91,1.8-1.64,2.52-.73,.72-1.65,1.3-2.75,1.73-1.1,.43-2.4,.65-3.89,.65-1.39,0-2.68-.2-3.87-.59-1.19-.4-2.24-.94-3.15-1.64l.76-2.52c.89,.7,1.82,1.27,2.81,1.71,.98,.44,2.15,.67,3.49,.67,1.82,0,3.25-.45,4.28-1.35,1.03-.9,1.55-2.21,1.55-3.94,0-.67-.09-1.29-.27-1.85-.18-.56-.49-1.04-.94-1.44-.44-.4-1.03-.7-1.75-.92s-1.62-.32-2.7-.32c-.84,0-1.7,.07-2.59,.22-.89,.14-1.73,.37-2.52,.68l-1.04-.54Z"/>
    </g>
    <line class="cls-7" x1="551.54" y1="555.34" x2="551.54" y2="274.45"/>
    <g>
      <path d="M216,506.49l-.37-2.9h-.18c-.83,1.04-1.96,1.88-3.38,2.51-1.43,.63-2.88,.94-4.35,.94-1.93,0-3.45-.56-4.55-1.68-1.1-1.12-1.66-2.6-1.66-4.44,0-1.26,.27-2.38,.81-3.38,.54-1,1.31-1.84,2.32-2.53,1.01-.69,2.22-1.22,3.63-1.59,1.41-.37,2.99-.55,4.74-.55h1.98v-.69c0-1.2-.38-2.07-1.15-2.62-.8-.55-2.04-.83-3.73-.83-2.27,0-4.29,.51-6.07,1.52l-.97-3.82c2.05-1.2,4.54-1.79,7.45-1.79,3.07,0,5.4,.63,6.99,1.89,.74,.58,1.34,1.33,1.82,2.25,.48,.92,.71,2.02,.71,3.31v14.4h-4.05Zm-6.3-3.54c.98,0,1.96-.24,2.94-.71s1.76-1.11,2.35-1.91v-4.19h-.87c-2.51,0-4.35,.32-5.5,.97-1.15,.64-1.73,1.67-1.73,3.08,0,1.84,.94,2.76,2.81,2.76Z"/>
      <path d="M236.38,492.79l9.02,13.71h-5.52l-6.85-10.4-1.79,1.79v8.6h-5.06v-34.04h5.06v19.64l7.04-6.76h5.66l-7.54,7.45Z"/>
      <path d="M249.81,488.42h-2.62v-2.76l2.99-.46,.83-6.26h3.86v6.39h4.05v3.08h-4.05v12.14c0,.92,.09,1.54,.28,1.86,.18,.32,.54,.48,1.06,.48,.4,0,.8-.08,1.2-.23,.4-.15,.98-.44,1.75-.87l.83,3.63c-.58,.49-1.4,.88-2.46,1.17-1.06,.29-2.11,.44-3.15,.44-.92,0-1.68-.12-2.28-.37s-1.07-.6-1.4-1.08c-.34-.47-.57-1.05-.69-1.72-.12-.67-.18-1.43-.18-2.25v-13.2Z"/>
      <path d="M268.99,485.33v13.75c0,1.26,.33,2.22,.99,2.88,.66,.66,1.51,.99,2.55,.99s2.05-.36,2.94-1.08c.89-.72,1.55-1.75,1.98-3.1v-13.43h5.11v21.16h-3.96l-.28-2.94h-.18c-.34,.71-.77,1.28-1.29,1.73-.52,.44-1.1,.8-1.73,1.06-.63,.26-1.28,.44-1.96,.55-.67,.11-1.33,.16-1.98,.16-1.01,0-1.95-.12-2.83-.37s-1.64-.65-2.3-1.22c-.66-.57-1.18-1.32-1.56-2.25-.38-.93-.57-2.09-.57-3.47v-14.4h5.06Z"/>
      <path d="M298.52,484.64c2.7,0,4.78,.68,6.26,2.05s2.21,3.29,2.21,5.77c0,.34-.02,.7-.07,1.08-.05,.38-.11,.76-.18,1.13-.08,.37-.17,.7-.28,.99-.11,.29-.22,.53-.35,.71h-13.39c.06,.92,.23,1.79,.51,2.6,.28,.81,.67,1.52,1.2,2.12,.52,.6,1.16,1.07,1.91,1.43,.75,.35,1.63,.53,2.65,.53,1.13,0,2.34-.21,3.61-.64,1.27-.43,2.35-.97,3.24-1.61l.83,3.77c-.4,.25-.89,.51-1.47,.8-.58,.29-1.24,.56-1.98,.8-.74,.25-1.53,.45-2.37,.62-.84,.17-1.72,.25-2.65,.25-1.72,0-3.24-.3-4.55-.9-1.32-.6-2.42-1.41-3.31-2.44-.89-1.03-1.56-2.21-2.02-3.56s-.69-2.76-.69-4.23,.24-2.94,.71-4.3c.48-1.36,1.17-2.57,2.09-3.61,.92-1.04,2.06-1.86,3.43-2.46,1.36-.6,2.92-.9,4.67-.9Zm-.14,3.96c-1.29,0-2.38,.38-3.29,1.13-.9,.75-1.56,1.77-1.96,3.06h8.79c.03-.09,.05-.2,.07-.32,.01-.12,.02-.28,.02-.46,0-.98-.34-1.79-1.01-2.44-.67-.64-1.55-.97-2.62-.97Z"/>
      <path d="M317.47,506.49h-5.06v-34.04h5.06v34.04Z"/>
      <path d="M329.43,506.49h-5.06v-34.04h5.06v34.04Z"/>
      <path d="M345.67,484.64c2.7,0,4.78,.68,6.26,2.05s2.21,3.29,2.21,5.77c0,.34-.02,.7-.07,1.08-.05,.38-.11,.76-.18,1.13-.08,.37-.17,.7-.28,.99-.11,.29-.22,.53-.35,.71h-13.39c.06,.92,.23,1.79,.51,2.6,.28,.81,.67,1.52,1.2,2.12,.52,.6,1.16,1.07,1.91,1.43,.75,.35,1.63,.53,2.65,.53,1.13,0,2.34-.21,3.61-.64,1.27-.43,2.35-.97,3.24-1.61l.83,3.77c-.4,.25-.89,.51-1.47,.8-.58,.29-1.24,.56-1.98,.8-.74,.25-1.53,.45-2.37,.62-.84,.17-1.72,.25-2.65,.25-1.72,0-3.24-.3-4.55-.9-1.32-.6-2.42-1.41-3.31-2.44-.89-1.03-1.56-2.21-2.02-3.56s-.69-2.76-.69-4.23,.24-2.94,.71-4.3c.48-1.36,1.17-2.57,2.09-3.61,.92-1.04,2.06-1.86,3.43-2.46,1.36-.6,2.92-.9,4.67-.9Zm-.14,3.96c-1.29,0-2.38,.38-3.29,1.13-.9,.75-1.56,1.77-1.96,3.06h8.79c.03-.09,.05-.2,.07-.32,.01-.12,.02-.28,.02-.46,0-.98-.34-1.79-1.01-2.44-.67-.64-1.55-.97-2.62-.97Z"/>
      <path d="M371.38,489.93c-.31-.25-.78-.44-1.43-.6-.64-.15-1.2-.23-1.66-.23-.61,0-1.12,.15-1.52,.44-.4,.29-.75,.67-1.06,1.15s-.57,1.02-.78,1.63c-.21,.61-.41,1.24-.6,1.89v12.28h-5.06v-21.16h3.96l.23,4.42h.18c.31-.64,.63-1.27,.97-1.89s.72-1.16,1.15-1.63c.43-.48,.93-.86,1.49-1.15,.57-.29,1.23-.44,2-.44,1.23,0,2.38,.4,3.45,1.2l-1.33,4.09Z"/>
      <path d="M292.17,561.69h-5.29v-30.36h5.29v13.25c1.75-1.66,3.31-3.27,4.69-4.83,1.29-1.47,2.45-2.91,3.5-4.3,1.04-1.39,1.95-2.77,2.71-4.12h5.8c-1.35,1.84-2.64,3.53-3.86,5.06-1.23,1.53-2.58,3.13-4.05,4.78-.55,.61-1.12,1.24-1.7,1.89-.58,.64-1.18,1.29-1.79,1.93l13.57,16.7h-6.12l-10.81-13.29-1.93,1.79v11.5Z"/>
      <path d="M318.44,540.53v13.75c0,1.26,.33,2.22,.99,2.88,.66,.66,1.51,.99,2.55,.99s2.05-.36,2.94-1.08c.89-.72,1.55-1.75,1.98-3.1v-13.43h5.11v21.16h-3.96l-.28-2.94h-.18c-.34,.71-.77,1.28-1.29,1.73-.52,.44-1.1,.8-1.73,1.06-.63,.26-1.28,.44-1.96,.55-.67,.11-1.33,.16-1.98,.16-1.01,0-1.95-.12-2.83-.37s-1.64-.65-2.3-1.22c-.66-.57-1.18-1.32-1.56-2.25-.38-.93-.57-2.09-.57-3.47v-14.4h5.06Z"/>
      <path d="M350.45,545.13c-.31-.25-.78-.44-1.43-.6-.64-.15-1.2-.23-1.66-.23-.61,0-1.12,.15-1.52,.44-.4,.29-.75,.67-1.06,1.15s-.57,1.02-.78,1.63c-.21,.61-.41,1.24-.6,1.89v12.28h-5.06v-21.16h3.96l.23,4.42h.18c.31-.64,.63-1.27,.97-1.89s.72-1.16,1.15-1.63c.43-.48,.93-.86,1.49-1.15,.57-.29,1.23-.44,2-.44,1.23,0,2.38,.4,3.45,1.2l-1.33,4.09Z"/>
      <path d="M362,543.62c-1.01,0-1.8,.19-2.37,.58-.57,.38-.85,.93-.85,1.63,0,.46,.16,.88,.48,1.26,.32,.38,1,.7,2.05,.94l3.27,.74c1.29,.28,2.32,.67,3.1,1.2,.78,.52,1.4,1.09,1.84,1.7,.44,.61,.74,1.24,.9,1.89,.15,.64,.23,1.24,.23,1.79,0,.98-.2,1.89-.6,2.74-.4,.84-.97,1.57-1.7,2.19-.74,.61-1.63,1.1-2.67,1.45-1.04,.35-2.21,.53-3.5,.53-1.63,0-3.13-.24-4.51-.71-1.38-.47-2.48-1-3.31-1.59l1.2-4.37c1.04,1.01,2.22,1.76,3.52,2.25,1.3,.49,2.51,.74,3.61,.74,1.17,0,2.05-.25,2.67-.76,.61-.51,.92-1.2,.92-2.09,0-.52-.15-.96-.46-1.31-.31-.35-.92-.65-1.84-.9l-4.42-1.1c-1.04-.25-1.89-.6-2.55-1.06-.66-.46-1.18-.97-1.56-1.54-.38-.57-.64-1.16-.78-1.77-.14-.61-.21-1.2-.21-1.75,0-2.05,.72-3.64,2.16-4.76,1.44-1.12,3.31-1.68,5.61-1.68,1.2,0,2.48,.16,3.86,.48s2.54,.79,3.5,1.4l-1.33,4.14c-.61-.49-1.47-.99-2.58-1.5s-2.33-.76-3.68-.76Z"/>
    </g>
    <circle class="cls-7" cx="391.72" cy="355.03" r="47.01"/>
    <line class="cls-2" x1="392.13" y1="401.74" x2="392.13" y2="567.45"/>
    <g>
      <path d="M1026.47,648.83h12.65v4.6h-17.94v-30.36h5.29v25.76Z"/>
      <path d="M1042.43,625.46c0-.43,.08-.84,.25-1.24,.17-.4,.41-.76,.71-1.08,.31-.32,.65-.58,1.04-.76,.38-.18,.8-.28,1.26-.28,.43,0,.84,.09,1.24,.28,.4,.18,.76,.44,1.08,.76,.32,.32,.58,.68,.76,1.08,.18,.4,.28,.81,.28,1.24,0,.46-.09,.88-.28,1.26-.18,.38-.44,.73-.76,1.04-.32,.31-.68,.54-1.08,.71-.4,.17-.81,.25-1.24,.25-.89,0-1.66-.32-2.3-.97-.64-.64-.97-1.41-.97-2.3Zm5.8,27.97h-5.06v-21.16h5.06v21.16Z"/>
      <path d="M1068.28,653.43v-13.98c0-2.51-1-3.77-2.99-3.77-.49,0-1.02,.09-1.59,.28-.57,.18-1.12,.45-1.66,.8-.54,.35-1.03,.79-1.47,1.31s-.76,1.12-.94,1.79v13.57h-5.06v-21.16h3.96l.23,3.13h.18c.61-1.29,1.59-2.25,2.92-2.88,1.33-.63,2.75-.94,4.26-.94s2.75,.28,3.93,.85c1.18,.57,2.06,1.54,2.64,2.92,.61-1.26,1.58-2.2,2.9-2.83,1.32-.63,2.73-.94,4.23-.94,.98,0,1.91,.13,2.78,.39,.87,.26,1.64,.68,2.3,1.27,.66,.58,1.18,1.35,1.56,2.3,.38,.95,.58,2.12,.58,3.5v14.4h-5.06v-13.98c0-2.51-1-3.77-2.99-3.77-.49,0-1.02,.09-1.59,.28-.57,.18-1.12,.45-1.66,.8-.54,.35-1.03,.79-1.47,1.31s-.76,1.12-.94,1.79v13.57h-5.06Z"/>
      <path d="M1092.24,625.46c0-.43,.08-.84,.25-1.24,.17-.4,.41-.76,.71-1.08,.31-.32,.65-.58,1.04-.76s.81-.28,1.27-.28c.43,0,.84,.09,1.24,.28s.76,.44,1.08,.76,.58,.68,.76,1.08c.18,.4,.28,.81,.28,1.24,0,.46-.09,.88-.28,1.26-.18,.38-.44,.73-.76,1.04-.32,.31-.68,.54-1.08,.71-.4,.17-.81,.25-1.24,.25-.89,0-1.66-.32-2.3-.97s-.97-1.41-.97-2.3Zm5.8,27.97h-5.06v-21.16h5.06v21.16Z"/>
      <path d="M1105.35,635.35h-2.62v-2.76l2.99-.46,.83-6.26h3.86v6.39h4.05v3.08h-4.05v12.14c0,.92,.09,1.54,.28,1.86,.18,.32,.54,.48,1.06,.48,.4,0,.8-.08,1.2-.23s.98-.44,1.75-.87l.83,3.63c-.58,.49-1.4,.88-2.46,1.17s-2.11,.44-3.15,.44c-.92,0-1.68-.12-2.28-.37-.6-.25-1.07-.61-1.4-1.08-.34-.48-.57-1.05-.69-1.73-.12-.67-.18-1.43-.18-2.25v-13.2Z"/>
      <path d="M1144.82,622.84c2.39,0,4.51,.41,6.35,1.24s3.39,1.96,4.65,3.38c1.26,1.43,2.21,3.08,2.85,4.95,.64,1.87,.97,3.83,.97,5.89s-.31,3.98-.94,5.87c-.63,1.89-1.58,3.56-2.85,5.01-1.27,1.46-2.85,2.62-4.74,3.5-1.89,.87-4.09,1.31-6.6,1.31s-4.58-.41-6.39-1.24c-1.81-.83-3.31-1.95-4.51-3.36-1.2-1.41-2.09-3.04-2.69-4.9s-.9-3.81-.9-5.87c0-2.18,.33-4.22,.99-6.14,.66-1.92,1.62-3.59,2.88-5.01,1.26-1.43,2.81-2.55,4.65-3.38,1.84-.83,3.94-1.24,6.3-1.24Zm-.23,26.63c1.69,0,3.12-.28,4.3-.85,1.18-.57,2.15-1.35,2.92-2.35,.77-1,1.33-2.17,1.68-3.52,.35-1.35,.53-2.79,.53-4.32,0-1.66-.18-3.16-.55-4.51-.37-1.35-.94-2.51-1.7-3.5-.77-.98-1.74-1.74-2.92-2.28s-2.57-.81-4.16-.81-3.01,.27-4.16,.81c-1.15,.54-2.09,1.28-2.81,2.23-.72,.95-1.24,2.09-1.56,3.4-.32,1.32-.48,2.78-.48,4.37,0,3.74,.77,6.56,2.3,8.46s3.74,2.85,6.62,2.85Z"/>
      <path d="M1176.79,636.87c-.31-.25-.78-.44-1.43-.6-.64-.15-1.2-.23-1.66-.23-.61,0-1.12,.15-1.52,.44-.4,.29-.75,.68-1.06,1.15-.31,.48-.57,1.02-.78,1.63-.21,.61-.41,1.24-.6,1.89v12.28h-5.06v-21.16h3.96l.23,4.42h.18c.31-.64,.63-1.27,.97-1.89,.34-.61,.72-1.16,1.15-1.63,.43-.48,.93-.86,1.5-1.15,.57-.29,1.23-.44,2-.44,1.23,0,2.38,.4,3.45,1.2l-1.33,4.09Z"/>
      <path d="M1189.9,653.98c-1.44,0-2.76-.29-3.96-.87-1.2-.58-2.22-1.38-3.06-2.39-.84-1.01-1.5-2.21-1.96-3.59s-.69-2.88-.69-4.51c0-1.44,.19-2.83,.57-4.16s.97-2.51,1.77-3.52c.8-1.01,1.79-1.82,2.97-2.44s2.58-.92,4.21-.92c1.47,0,2.79,.25,3.96,.74,1.17,.49,2.1,1.18,2.81,2.07v-15h5.01v34.04h-4.05l-.37-2.9h-.18c-.86,.95-1.83,1.76-2.92,2.44-1.09,.67-2.46,1.01-4.12,1.01Zm.64-3.82c.49,0,1.01-.07,1.56-.21,.55-.14,1.1-.33,1.63-.58,.54-.25,1.05-.54,1.54-.9,.49-.35,.9-.76,1.24-1.22v-8.83c-.92-1.13-1.86-1.91-2.81-2.32-.95-.41-1.87-.62-2.76-.62-.98,0-1.83,.19-2.53,.57-.71,.38-1.3,.91-1.77,1.59-.48,.67-.83,1.45-1.06,2.32-.23,.87-.34,1.79-.34,2.74s.11,1.83,.32,2.74c.21,.9,.54,1.7,.97,2.39,.43,.69,.98,1.25,1.66,1.68,.67,.43,1.46,.64,2.35,.64Z"/>
      <path d="M1217.5,631.58c2.7,0,4.78,.68,6.26,2.05,1.47,1.37,2.21,3.29,2.21,5.77,0,.34-.02,.7-.07,1.08-.05,.38-.11,.76-.18,1.13-.08,.37-.17,.7-.28,.99-.11,.29-.22,.53-.35,.71h-13.39c.06,.92,.23,1.79,.51,2.6,.28,.81,.67,1.52,1.2,2.12,.52,.6,1.16,1.07,1.91,1.43,.75,.35,1.63,.53,2.64,.53,1.13,0,2.34-.21,3.61-.64,1.27-.43,2.35-.97,3.24-1.61l.83,3.77c-.4,.25-.89,.51-1.47,.8-.58,.29-1.24,.56-1.98,.81-.74,.25-1.53,.45-2.37,.62-.84,.17-1.72,.25-2.65,.25-1.72,0-3.24-.3-4.55-.9s-2.42-1.41-3.31-2.44c-.89-1.03-1.56-2.21-2.02-3.56s-.69-2.76-.69-4.23,.24-2.94,.71-4.3c.47-1.36,1.17-2.57,2.09-3.61,.92-1.04,2.06-1.86,3.43-2.46,1.36-.6,2.92-.9,4.67-.9Zm-.14,3.96c-1.29,0-2.38,.38-3.29,1.13-.91,.75-1.56,1.77-1.96,3.06h8.79c.03-.09,.05-.2,.07-.32,.01-.12,.02-.28,.02-.46,0-.98-.34-1.79-1.01-2.44-.67-.64-1.55-.97-2.62-.97Z"/>
      <path d="M1243.21,636.87c-.31-.25-.78-.44-1.43-.6-.64-.15-1.2-.23-1.66-.23-.61,0-1.12,.15-1.52,.44-.4,.29-.75,.68-1.06,1.15-.31,.48-.57,1.02-.78,1.63-.21,.61-.41,1.24-.6,1.89v12.28h-5.06v-21.16h3.96l.23,4.42h.18c.31-.64,.63-1.27,.97-1.89,.34-.61,.72-1.16,1.15-1.63,.43-.48,.93-.86,1.5-1.15,.57-.29,1.23-.44,2-.44,1.23,0,2.38,.4,3.45,1.2l-1.33,4.09Z"/>
      <path d="M1264.74,653.43h-5.29v-30.36h5.29v13.25c1.75-1.66,3.31-3.27,4.69-4.83,1.29-1.47,2.45-2.91,3.5-4.3,1.04-1.39,1.95-2.77,2.71-4.12h5.8c-1.35,1.84-2.64,3.53-3.86,5.06-1.23,1.53-2.58,3.13-4.05,4.78-.55,.61-1.12,1.24-1.7,1.89-.58,.64-1.18,1.29-1.79,1.93l13.57,16.7h-6.12l-10.81-13.29-1.93,1.79v11.5Z"/>
      <path d="M1291.01,632.27v13.75c0,1.26,.33,2.22,.99,2.88,.66,.66,1.51,.99,2.55,.99s2.05-.36,2.94-1.08c.89-.72,1.55-1.75,1.98-3.1v-13.43h5.11v21.16h-3.96l-.28-2.94h-.18c-.34,.71-.77,1.28-1.29,1.72-.52,.45-1.1,.8-1.73,1.06-.63,.26-1.28,.44-1.96,.55-.67,.11-1.33,.16-1.98,.16-1.01,0-1.96-.12-2.83-.37s-1.64-.65-2.3-1.22c-.66-.57-1.18-1.32-1.56-2.25-.38-.93-.57-2.09-.57-3.47v-14.4h5.06Z"/>
      <path d="M1323.02,636.87c-.31-.25-.78-.44-1.43-.6-.64-.15-1.2-.23-1.66-.23-.61,0-1.12,.15-1.52,.44-.4,.29-.75,.68-1.06,1.15-.31,.48-.57,1.02-.78,1.63-.21,.61-.41,1.24-.6,1.89v12.28h-5.06v-21.16h3.96l.23,4.42h.18c.31-.64,.63-1.27,.97-1.89,.34-.61,.72-1.16,1.15-1.63,.43-.48,.93-.86,1.5-1.15,.57-.29,1.23-.44,2-.44,1.23,0,2.38,.4,3.45,1.2l-1.33,4.09Z"/>
      <path d="M1334.57,635.35c-1.01,0-1.8,.19-2.37,.58-.57,.38-.85,.93-.85,1.63,0,.46,.16,.88,.48,1.27s1,.7,2.05,.94l3.27,.74c1.29,.28,2.32,.67,3.1,1.2s1.4,1.09,1.84,1.7,.74,1.24,.9,1.89c.15,.64,.23,1.24,.23,1.79,0,.98-.2,1.89-.6,2.74-.4,.84-.97,1.57-1.7,2.18-.74,.61-1.63,1.1-2.67,1.45-1.04,.35-2.21,.53-3.5,.53-1.63,0-3.13-.24-4.51-.71-1.38-.47-2.48-1-3.31-1.59l1.2-4.37c1.04,1.01,2.22,1.76,3.52,2.25,1.3,.49,2.51,.74,3.61,.74,1.17,0,2.05-.25,2.67-.76s.92-1.2,.92-2.09c0-.52-.15-.96-.46-1.31-.31-.35-.92-.65-1.84-.9l-4.42-1.1c-1.04-.25-1.89-.6-2.55-1.06-.66-.46-1.18-.97-1.56-1.54s-.64-1.16-.78-1.77c-.14-.61-.21-1.2-.21-1.75,0-2.05,.72-3.64,2.16-4.76,1.44-1.12,3.31-1.68,5.61-1.68,1.2,0,2.48,.16,3.86,.48,1.38,.32,2.54,.79,3.5,1.4l-1.33,4.14c-.61-.49-1.47-.99-2.58-1.49-1.1-.51-2.33-.76-3.68-.76Z"/>
    </g>
    <g>
      <path class="cls-2" d="M443.13,230.45c1.6-1.2,3.2-2.4,4.8-3.6"/>
      <path class="cls-3" d="M455.61,221.09c8.96-6.72,17.92-13.44,26.88-20.16"/>
      <path class="cls-2" d="M486.33,198.05c1.6-1.2,3.2-2.4,4.8-3.6,1.33,1.49,2.67,2.98,4,4.47"/>
      <path class="cls-11" d="M503.79,208.61c4.33,4.84,8.67,9.69,13,14.53"/>
      <path class="cls-2" d="M521.13,227.98c1.33,1.49,2.67,2.98,4,4.47l3.94-4.53"/>
      <path class="cls-8" d="M536.89,218.94c9.13-10.49,18.26-20.98,27.39-31.46"/>
      <path class="cls-2" d="M568.19,182.98l3.94-4.53c1.84,.79,3.68,1.58,5.51,2.36"/>
      <path class="cls-2" d="M587.61,185.09c1.84,.79,3.68,1.58,5.51,2.36,1.13-1.65,2.27-3.29,3.4-4.94"/>
      <path class="cls-10" d="M603.57,172.29c8.21-11.93,16.42-23.85,24.64-35.78"/>
      <path class="cls-2" d="M631.73,131.4c1.13-1.65,2.27-3.29,3.4-4.94,1.99,.15,3.99,.3,5.98,.44"/>
      <path class="cls-2" d="M656.14,128.01c1.99,.15,3.99,.3,5.98,.44,1.13-1.65,2.27-3.3,3.4-4.94"/>
      <path class="cls-12" d="M674.26,110.81l13.1-19.06"/>
      <path class="cls-2" d="M691.73,85.4c1.13-1.65,2.27-3.3,3.4-4.94,1.57,1.24,3.14,2.48,4.7,3.72"/>
      <path class="cls-1" d="M707.55,90.29c9,7.13,18.01,14.26,27.01,21.39"/>
      <path class="cls-2" d="M738.42,114.73c1.57,1.24,3.14,2.48,4.7,3.72,1.41-1.41,2.83-2.83,4.24-4.24"/>
      <path class="cls-9" d="M756.73,104.85c17.16-17.16,34.32-34.32,51.48-51.48"/>
      <path class="cls-2" d="M812.88,48.7c1.41-1.41,2.83-2.83,4.24-4.24"/>
    </g>
    <circle class="cls-7" cx="553.74" cy="602.07" r="47.01"/>
  </g>
</svg>