<?xml version="1.0" encoding="UTF-8"?>
<svg id="Ebene_2" data-name="Ebene 2" xmlns="http://www.w3.org/2000/svg" viewBox="0 0 871.4 875.13">
  <defs>
    <style>
      .cls-1 {
        fill: #ff6b35;
      }
    </style>
  </defs>
  <g id="Ebene_1-2" data-name="Ebene 1">
    <path class="cls-1" d="M674.4,91.13c0-12.9,.2-25,0-37.3-.2-23.5-15.1-43.2-38.1-50.7-22.6-7.4-47.1,.2-61.4,18.7-8.3,10.6-11.8,22.8-11.8,36.1v32.6c0,5.2-4.3,9.4-9.5,9.4h-58.9c-5.3,0-9.5-4.2-9.5-9.4,0-11.2,.1-22,0-32.9-.4-25.6-13.8-45.6-35.9-53.8-36.3-13.4-74.6,11.9-75.5,50.3-.3,12-.2,24.1-.1,36.2,0,5.2-4.3,9.4-9.5,9.4h-60.5c-5.3,0-9.5-4.2-9.5-9.4,.4-15.3,1.1-30.2-.5-44.8-2.3-21.2-16.1-35.4-36.4-42.3-20-6.7-38.5-2.9-54.7,10.8-14.4,12.1-19.3,28.1-19.1,46.1,.1,10.2,.1,20.4,.1,31.1,0,5.2-4.3,9.4-9.5,9.4H9.5c-5.3,0-9.5,4.2-9.5,9.4V865.73c0,5.2,4.3,9.4,9.5,9.4H861.9c5.3,0,9.5-4.2,9.5-9.4V109.93c0-5.2-4.3-9.4-9.5-9.4h-178c-5.3,0-9.6-4.2-9.5-9.4h0ZM261.3,837.93H47.5c-5.3,0-9.5-4.2-9.5-9.4v-149.5c0-5.2,4.3-9.4,9.5-9.4h213.8c5.3,0,9.5,4.2,9.5,9.4v149.4c0,5.3-4.2,9.5-9.5,9.5Zm.1-206.7H47.5c-5.3,0-9.5-4.2-9.5-9.4v-158c0-5.2,4.3-9.4,9.5-9.4h213.9c5.3,0,9.5,4.2,9.5,9.4v158c0,5.2-4.3,9.4-9.5,9.4Zm.1-215H47.5c-5.3,0-9.5-4.2-9.5-9.4V255.13c0-5.2,4.3-9.4,9.5-9.4h214c5.3,0,9.5,4.2,9.5,9.4v151.7c0,5.2-4.2,9.4-9.5,9.4h0Zm284.8,421.8h-226.2c-5.3,0-9.5-4.2-9.5-9.4v-149.1c0-5.2,4.3-9.4,9.5-9.4h226.2c5.3,0,9.5,4.2,9.5,9.4v149.2c.1,5.1-4.2,9.3-9.5,9.3Zm10-211.9c-.2,2.9-4.5,5.2-9.8,5.2h-226.4c-5.3,0-9.5-4.2-9.5-9.4v-158.1c0-5.2,2.5-9.5,5.4-9.7l5.4-.3c74.5,0,148.9,.2,223.3-.2,9,0,12.1,2,12,11.5-.4,51.9-.2,104-.3,155.9,.1,1.7,0,3.3-.1,5.1h0Zm.3-215.5c0,2.9-4.3,5.3-9.5,5.3h-227.2c-5.3,0-9.5-4.2-9.5-9.4V254.53c0-5.2,2.5-9.4,5.6-9.4h5.6c74.5,0,148.9,.1,223.3-.2,9-.1,12,2.1,11.8,11.5-.4,49.7-.2,99.2-.2,148.9v5.3h.1Zm47.8,44.1h219.1c5.3,0,9.5,4.2,9.5,9.4v157.9c0,5.2-4.3,9.4-9.5,9.4h-219.1c-5.3,0-9.5-4.2-9.5-9.4v-158c0-5.1,4.3-9.3,9.5-9.3h0Zm219.2,383.2h-219.2c-5.3,0-9.5-4.2-9.5-9.4v-149.2c0-5.2,4.3-9.4,9.5-9.4h219.2c5.3,0,9.5,4.2,9.5,9.4v149.2c.2,5.2-4.1,9.4-9.5,9.4Zm0-422h-219.2c-5.3,0-9.5-4.2-9.5-9.4V255.23c0-5.2,4.3-9.4,9.5-9.4h219.2c5.3,0,9.5,4.2,9.5,9.4v151.3c.2,5.2-4.1,9.4-9.5,9.4h0Z"/>
  </g>
</svg>