<?xml version="1.0" encoding="UTF-8"?>
<svg id="Ebene_2" data-name="Ebene 2" xmlns="http://www.w3.org/2000/svg" viewBox="0 0 590.25 599.88">
  <defs>
    <style>
      .cls-1 {
        fill: #d5d5d5;
      }
    </style>
  </defs>
  <g id="Ebene_1-2" data-name="Ebene 1">
    <path class="cls-1" d="M504.95,6.6c-64.4,65.5-128.9,131.2-194.2,197.6-8.6,8.7-22.4,8.8-31,0C214.75,138.2,150.05,72.4,85.25,6.6c-8.6-8.7-22.4-8.6-30.9,.1C38.65,22.9,23.25,39,7.25,55.5c-8.5,8.8-8.3,23,.2,31.7,63.1,64.2,127.9,130.1,193.6,197,8.6,8.7,8.5,22.8,0,31.6C135.85,382.2,70.85,448.3,6.35,513.9c-8.5,8.7-8.5,22.8,.2,31.4l47.8,47.9c8.6,8.6,22.6,8.6,31.1-.1l194.2-197.3c8.6-8.7,22.4-8.7,31,0,64.7,65.8,129.2,131.4,194.2,197.5,8.6,8.7,22.5,8.8,31,.1,16-16.2,31.7-32.2,47.6-48.3,8.6-8.7,8.6-22.9,.1-31.6-63.8-65-128.5-130.9-194.2-197.8-8.6-8.7-8.6-22.9,0-31.6,65.2-66.4,130.1-132.5,194.5-198.2,8.6-8.7,8.5-22.8-.1-31.5l-47.8-48.1c-8.5-8.5-22.4-8.4-31,.3h0Z"/>
  </g>
</svg>