<?xml version="1.0" encoding="UTF-8"?>
<svg id="Ebene_2" data-name="Ebene 2" xmlns="http://www.w3.org/2000/svg" viewBox="0 0 1500.13 909.59">
  <defs>
    <style>
      .cls-1 {
        stroke: #000;
        stroke-width: 4px;
      }

      .cls-1, .cls-2, .cls-3, .cls-4 {
        fill: none;
        stroke-miterlimit: 10;
      }

      .cls-5 {
        fill: #fff;
      }

      .cls-6 {
        fill: #1dcaa2;
      }

      .cls-2 {
        stroke: #171614;
      }

      .cls-7 {
        fill: #253c78;
      }

      .cls-8 {
        fill: #171614;
      }

      .cls-3 {
        stroke: #253c78;
      }

      .cls-3, .cls-4 {
        stroke-width: 3px;
      }

      .cls-4 {
        stroke: #ff6b35;
      }

      .cls-9 {
        fill: #e70036;
      }

      .cls-10 {
        fill: #ff6b35;
      }
    </style>
  </defs>
  <g id="Ebene_1-2" data-name="Ebene 1">
    <g>
      <path class="cls-8" d="M1413.18,17.88c0,2.18,.5,3.75,1.51,4.7,1.01,.95,2.41,1.42,4.21,1.42s3.21-.47,4.23-1.42c1.02-.95,1.53-2.51,1.53-4.7V3.33h3.96v15.41c0,1.18-.19,2.29-.58,3.35-.38,1.06-.98,1.99-1.78,2.79-.8,.8-1.84,1.44-3.1,1.91-1.26,.47-2.75,.7-4.48,.7s-3.2-.23-4.43-.7c-1.22-.47-2.23-1.1-3.01-1.91-.78-.8-1.34-1.73-1.69-2.79-.35-1.06-.52-2.17-.52-3.35V3.33h4.14v14.54Z"/>
      <path class="cls-8" d="M1437.7,9.06c0,.5,.11,.94,.34,1.3,.23,.36,.55,.67,.95,.94,.41,.26,.89,.51,1.46,.74,.56,.23,1.19,.46,1.89,.7,.86,.31,1.72,.67,2.57,1.06,.85,.4,1.62,.89,2.3,1.48,.68,.59,1.24,1.31,1.67,2.18,.43,.86,.65,1.91,.65,3.13,0,1.3-.23,2.39-.7,3.28-.47,.89-1.1,1.6-1.89,2.14s-1.71,.93-2.74,1.17c-1.03,.24-2.1,.36-3.2,.36-1.58,0-3.07-.19-4.45-.58s-2.56-.85-3.55-1.4l1.08-3.89c.91,.7,1.93,1.27,3.04,1.73,1.12,.46,2.39,.68,3.83,.68,1.54,0,2.65-.27,3.35-.81,.7-.54,1.04-1.27,1.04-2.18,0-.7-.17-1.29-.5-1.78-.34-.49-.76-.91-1.26-1.26-.5-.35-1.04-.63-1.6-.85-.56-.22-1.06-.4-1.49-.54-.77-.24-1.55-.53-2.34-.86-.79-.34-1.52-.77-2.2-1.31s-1.22-1.22-1.64-2.03-.63-1.84-.63-3.06c0-1.15,.2-2.12,.59-2.92,.4-.79,.94-1.43,1.62-1.93,.68-.49,1.49-.85,2.41-1.06,.92-.22,1.93-.32,3.01-.32,1.32,0,2.6,.13,3.83,.4,1.24,.26,2.27,.59,3.11,.97l-.97,3.82c-.43-.29-.9-.54-1.4-.76-.5-.22-1.03-.4-1.57-.54-.54-.14-1.08-.26-1.62-.34-.54-.08-1.05-.13-1.53-.13-1.08,0-1.93,.2-2.56,.61-.62,.41-.94,1.03-.94,1.87Z"/>
      <path class="cls-8" d="M1454.19,3.35c.31-.08,.8-.13,1.48-.13h5.87c2.33,0,4.24,.24,5.74,.72,1.5,.48,2.74,1.13,3.73,1.96,1.27,1.1,2.2,2.49,2.77,4.18s.86,3.56,.86,5.61c0,1.55-.2,3.03-.59,4.45-.4,1.42-1.1,2.66-2.12,3.73-1.02,1.07-2.42,1.92-4.21,2.55s-4.07,.95-6.86,.95h-3.24c-1.15,0-2.29-.1-3.42-.29V3.35Zm7.67,20.68c2.9,0,5.02-.69,6.35-2.08,1.33-1.39,2-3.65,2-6.78,0-1.41-.14-2.65-.41-3.71-.28-1.06-.75-1.95-1.42-2.67-.67-.72-1.57-1.25-2.7-1.61-1.13-.36-2.53-.54-4.21-.54h-3.13V23.93c.67,.07,1.32,.11,1.94,.11h1.58Z"/>
    </g>
    <g>
      <path class="cls-8" d="M1412.98,167.09h-2.7v-18.94l-3.46,1.66-.79-2.52,6.95-3.96v23.76Z"/>
      <path class="cls-8" d="M1430.18,154.06c1.39,.31,2.47,1.03,3.22,2.16,.76,1.13,1.13,2.5,1.13,4.1,0,1.01-.16,1.95-.47,2.83-.31,.88-.8,1.64-1.46,2.29-.66,.65-1.49,1.16-2.5,1.53-1.01,.37-2.2,.56-3.56,.56-1.44,0-2.66-.2-3.67-.59s-1.82-.92-2.45-1.58c-.62-.66-1.08-1.42-1.37-2.29-.29-.86-.43-1.75-.43-2.66,0-1.58,.38-2.93,1.15-4.03,.77-1.1,1.84-1.86,3.2-2.27v-.14c-.84-.31-1.58-.9-2.21-1.76-.64-.86-.95-1.96-.95-3.28,0-1.73,.59-3.12,1.76-4.18,1.18-1.06,2.84-1.58,5-1.58s3.77,.51,4.97,1.53c1.2,1.02,1.8,2.39,1.8,4.12,0,1.27-.31,2.35-.92,3.22-.61,.88-1.36,1.51-2.25,1.89v.14Zm1.37,6.52c0-.67-.09-1.33-.27-1.96-.18-.64-.47-1.2-.88-1.69-.41-.49-.93-.89-1.57-1.19-.64-.3-1.4-.45-2.29-.45s-1.69,.15-2.32,.45c-.64,.3-1.15,.7-1.55,1.19-.4,.49-.68,1.06-.86,1.69-.18,.64-.27,1.29-.27,1.96,0,1.51,.43,2.68,1.28,3.51,.85,.83,2.09,1.24,3.73,1.24s2.87-.41,3.73-1.24c.85-.83,1.28-2,1.28-3.51Zm-1.15-11.52c0-1.01-.28-1.87-.85-2.57-.56-.71-1.57-1.06-3.01-1.06s-2.41,.34-2.99,1.03c-.58,.68-.86,1.55-.86,2.61,0,1.2,.33,2.18,.99,2.93,.66,.76,1.61,1.13,2.86,1.13s2.2-.38,2.86-1.13,.99-1.73,.99-2.93Z"/>
      <path class="cls-8" d="M1448.33,143.15c1.54,0,2.9,.32,4.09,.97,1.19,.65,2.19,1.53,3.01,2.65,.82,1.12,1.43,2.41,1.85,3.87,.42,1.46,.63,3,.63,4.61s-.22,3.11-.65,4.59-1.06,2.78-1.89,3.92c-.83,1.14-1.85,2.05-3.08,2.74-1.22,.68-2.63,1.03-4.21,1.03s-2.92-.32-4.09-.97c-1.17-.65-2.13-1.52-2.9-2.63-.77-1.1-1.35-2.38-1.75-3.83-.4-1.45-.59-2.98-.59-4.59,0-1.7,.22-3.31,.65-4.81,.43-1.5,1.06-2.81,1.87-3.92,.82-1.12,1.82-2,3.01-2.65,1.19-.65,2.54-.97,4.05-.97Zm-.18,22c1.18,0,2.2-.25,3.06-.76,.86-.5,1.57-1.2,2.12-2.09,.55-.89,.96-1.93,1.22-3.11s.4-2.47,.4-3.83c0-1.46-.14-2.8-.41-4-.28-1.2-.7-2.23-1.26-3.1-.56-.86-1.27-1.54-2.11-2.02-.84-.48-1.82-.72-2.95-.72s-2.14,.23-2.97,.7c-.83,.47-1.5,1.13-2.02,1.98-.52,.85-.89,1.87-1.13,3.04-.24,1.18-.36,2.47-.36,3.89,0,3.31,.56,5.81,1.67,7.49,1.12,1.68,2.69,2.52,4.73,2.52Z"/>
    </g>
    <rect class="cls-7" x="1383.53" y="808.47" width="116.6" height="46"/>
    <g>
      <path class="cls-5" d="M1414.43,844.09h-4.14v-17.5l-2.92,1.3-.79-3.6,7.85-3.96v23.76Z"/>
      <path class="cls-5" d="M1420.22,833.22l1.4-13.07h12.2v3.78h-8.86l-.54,5.69c.5-.14,1.03-.25,1.58-.31,.55-.06,1.06-.09,1.51-.09,1.1,0,2.11,.16,3.02,.49s1.7,.8,2.38,1.42,1.19,1.39,1.57,2.29c.37,.9,.56,1.93,.56,3.08s-.18,2.14-.54,3.11c-.36,.97-.91,1.82-1.64,2.56-.73,.73-1.65,1.31-2.75,1.73-1.1,.42-2.4,.63-3.89,.63s-2.81-.21-4.05-.63c-1.24-.42-2.32-1.01-3.26-1.78l1.04-3.42c.36,.34,.77,.64,1.24,.92,.47,.28,.97,.52,1.51,.72s1.09,.37,1.66,.49c.56,.12,1.12,.18,1.67,.18,.6,0,1.18-.08,1.75-.23,.56-.16,1.06-.4,1.48-.74,.42-.34,.76-.77,1.01-1.31s.38-1.19,.38-1.96c0-.58-.07-1.1-.22-1.58-.14-.48-.38-.89-.72-1.22-.34-.34-.79-.6-1.35-.79-.56-.19-1.28-.29-2.14-.29-.74,0-1.56,.07-2.45,.22-.89,.14-1.73,.37-2.52,.68l-1.04-.54Z"/>
      <path class="cls-5" d="M1438.51,822.03c.46-.24,.98-.47,1.57-.7,.59-.23,1.2-.43,1.84-.61,.64-.18,1.28-.32,1.93-.41,.65-.1,1.28-.14,1.91-.14,1.01,0,1.94,.14,2.81,.41,.86,.28,1.6,.67,2.21,1.19,.61,.52,1.09,1.14,1.44,1.87,.35,.73,.52,1.54,.52,2.43,0,1.22-.31,2.44-.92,3.65-.61,1.21-1.38,2.42-2.3,3.64s-1.94,2.41-3.04,3.6c-1.1,1.19-2.14,2.37-3.1,3.55h9.61v3.6h-14.58v-3.6c.94-1.27,2-2.53,3.19-3.76,1.19-1.24,2.3-2.44,3.35-3.62,1.04-1.17,1.93-2.33,2.65-3.46s1.08-2.23,1.08-3.31-.34-1.76-1.01-2.2c-.67-.43-1.55-.65-2.63-.65s-2.05,.16-3.04,.49c-1,.32-1.88,.7-2.65,1.13l-.83-3.1Z"/>
      <path class="cls-5" d="M1456.87,841.97c0-.34,.07-.66,.2-.97s.32-.59,.56-.85c.24-.25,.51-.45,.81-.59,.3-.14,.63-.22,.99-.22,.34,0,.66,.07,.97,.22,.31,.14,.59,.34,.85,.59s.45,.54,.59,.85c.14,.31,.22,.64,.22,.97,0,.36-.07,.69-.22,.99-.14,.3-.34,.57-.59,.81-.25,.24-.53,.43-.85,.56-.31,.13-.64,.2-.97,.2-.7,0-1.3-.25-1.8-.76-.5-.5-.76-1.1-.76-1.8Z"/>
      <path class="cls-5" d="M1475.01,820.15c1.54,0,2.9,.33,4.09,.99,1.19,.66,2.19,1.54,3.01,2.65,.82,1.1,1.43,2.38,1.85,3.83s.63,2.98,.63,4.59-.22,3.15-.65,4.63c-.43,1.48-1.06,2.78-1.89,3.92-.83,1.14-1.85,2.05-3.08,2.74-1.22,.68-2.63,1.03-4.21,1.03s-2.92-.32-4.09-.97c-1.17-.65-2.13-1.52-2.9-2.63-.77-1.1-1.35-2.38-1.75-3.83-.4-1.45-.59-2.98-.59-4.59,0-1.7,.22-3.31,.65-4.81,.43-1.5,1.06-2.81,1.87-3.92,.82-1.12,1.82-2,3.01-2.65,1.19-.65,2.54-.97,4.05-.97Zm-.11,20.92c.91,0,1.7-.22,2.36-.67,.66-.44,1.21-1.06,1.64-1.85s.76-1.73,.97-2.81c.22-1.08,.32-2.24,.32-3.49s-.11-2.44-.32-3.49c-.22-1.06-.55-1.97-.99-2.74-.44-.77-1-1.36-1.67-1.78s-1.45-.63-2.34-.63-1.65,.21-2.29,.63-1.15,1.01-1.55,1.76c-.4,.76-.69,1.67-.88,2.74-.19,1.07-.29,2.24-.29,3.51,0,2.9,.44,5.1,1.31,6.59,.88,1.49,2.12,2.23,3.73,2.23Z"/>
    </g>
    <line class="cls-3" x1="1.13" y1="831.39" x2="1391.62" y2="831.39"/>
    <line class="cls-2" x1="1384.69" y1="0" x2="1384.63" y2="863.95"/>
    <g>
      <path d="M766.18,34.49l-.37-2.9h-.18c-.83,1.04-1.96,1.88-3.38,2.51-1.43,.63-2.88,.94-4.35,.94-1.93,0-3.45-.56-4.55-1.68-1.1-1.12-1.66-2.6-1.66-4.44,0-1.26,.27-2.38,.8-3.38,.54-1,1.31-1.84,2.32-2.53,1.01-.69,2.22-1.22,3.63-1.59,1.41-.37,2.99-.55,4.74-.55h1.98v-.69c0-1.2-.38-2.07-1.15-2.62-.8-.55-2.04-.83-3.73-.83-2.27,0-4.29,.51-6.07,1.52l-.97-3.82c2.05-1.2,4.54-1.79,7.45-1.79,3.07,0,5.4,.63,6.99,1.89,.74,.58,1.34,1.33,1.82,2.25s.71,2.02,.71,3.31v14.4h-4.05Zm-6.3-3.54c.98,0,1.96-.24,2.94-.71,.98-.48,1.76-1.11,2.35-1.91v-4.19h-.87c-2.51,0-4.35,.32-5.5,.97-1.15,.64-1.73,1.67-1.73,3.08,0,1.84,.94,2.76,2.81,2.76Z"/>
      <path d="M786.56,20.79l9.02,13.71h-5.52l-6.85-10.4-1.79,1.79v8.6h-5.06V.45h5.06V20.1l7.04-6.76h5.66l-7.54,7.45Z"/>
      <path d="M799.99,16.42h-2.62v-2.76l2.99-.46,.83-6.26h3.87v6.39h4.05v3.08h-4.05v12.14c0,.92,.09,1.54,.28,1.86,.18,.32,.54,.48,1.06,.48,.4,0,.8-.08,1.2-.23,.4-.15,.98-.44,1.75-.87l.83,3.63c-.58,.49-1.4,.88-2.46,1.17-1.06,.29-2.11,.44-3.15,.44-.92,0-1.68-.12-2.28-.37-.6-.25-1.07-.6-1.4-1.08-.34-.47-.57-1.05-.69-1.72-.12-.67-.18-1.43-.18-2.25v-13.2Z"/>
      <path d="M819.17,13.33v13.75c0,1.26,.33,2.22,.99,2.88s1.51,.99,2.55,.99,2.05-.36,2.95-1.08c.89-.72,1.55-1.75,1.98-3.1V13.33h5.11v21.16h-3.96l-.28-2.94h-.18c-.34,.71-.77,1.28-1.29,1.73s-1.1,.8-1.72,1.06c-.63,.26-1.28,.44-1.96,.55-.67,.11-1.33,.16-1.98,.16-1.01,0-1.95-.12-2.83-.37s-1.64-.65-2.3-1.22c-.66-.57-1.18-1.32-1.56-2.25-.38-.93-.58-2.09-.58-3.47V13.33h5.06Z"/>
      <path d="M848.7,12.64c2.7,0,4.78,.68,6.26,2.05s2.21,3.29,2.21,5.77c0,.34-.02,.7-.07,1.08-.04,.38-.11,.76-.18,1.13-.08,.37-.17,.7-.28,.99-.11,.29-.22,.53-.35,.71h-13.39c.06,.92,.23,1.79,.51,2.6,.28,.81,.67,1.52,1.2,2.12,.52,.6,1.16,1.07,1.91,1.43s1.63,.53,2.65,.53c1.13,0,2.34-.21,3.61-.64,1.27-.43,2.35-.97,3.24-1.61l.83,3.77c-.4,.25-.89,.51-1.47,.8-.58,.29-1.24,.56-1.98,.8-.74,.25-1.53,.45-2.37,.62-.84,.17-1.72,.25-2.64,.25-1.72,0-3.24-.3-4.55-.9-1.32-.6-2.42-1.41-3.31-2.44-.89-1.03-1.56-2.21-2.02-3.56s-.69-2.76-.69-4.23,.24-2.94,.71-4.3c.48-1.36,1.17-2.57,2.09-3.61,.92-1.04,2.06-1.86,3.43-2.46,1.36-.6,2.92-.9,4.67-.9Zm-.14,3.96c-1.29,0-2.38,.38-3.29,1.13-.9,.75-1.56,1.77-1.96,3.06h8.79c.03-.09,.05-.2,.07-.32,.02-.12,.02-.28,.02-.46,0-.98-.34-1.79-1.01-2.44-.68-.64-1.55-.97-2.62-.97Z"/>
      <path d="M867.66,34.49h-5.06V.45h5.06V34.49Z"/>
      <path d="M879.61,34.49h-5.06V.45h5.06V34.49Z"/>
      <path d="M895.85,12.64c2.7,0,4.78,.68,6.26,2.05s2.21,3.29,2.21,5.77c0,.34-.02,.7-.07,1.08-.05,.38-.11,.76-.18,1.13-.08,.37-.17,.7-.28,.99-.11,.29-.22,.53-.34,.71h-13.39c.06,.92,.23,1.79,.51,2.6,.28,.81,.67,1.52,1.2,2.12,.52,.6,1.16,1.07,1.91,1.43,.75,.35,1.63,.53,2.64,.53,1.13,0,2.34-.21,3.61-.64,1.27-.43,2.35-.97,3.24-1.61l.83,3.77c-.4,.25-.89,.51-1.47,.8-.58,.29-1.24,.56-1.98,.8-.74,.25-1.53,.45-2.37,.62-.84,.17-1.72,.25-2.65,.25-1.72,0-3.24-.3-4.55-.9-1.32-.6-2.42-1.41-3.31-2.44-.89-1.03-1.56-2.21-2.02-3.56s-.69-2.76-.69-4.23,.24-2.94,.71-4.3c.47-1.36,1.17-2.57,2.09-3.61,.92-1.04,2.06-1.86,3.43-2.46,1.36-.6,2.92-.9,4.67-.9Zm-.14,3.96c-1.29,0-2.38,.38-3.29,1.13-.91,.75-1.56,1.77-1.96,3.06h8.79c.03-.09,.05-.2,.07-.32,.01-.12,.02-.28,.02-.46,0-.98-.34-1.79-1.01-2.44-.67-.64-1.55-.97-2.62-.97Z"/>
      <path d="M921.57,17.93c-.31-.25-.78-.44-1.43-.6-.64-.15-1.2-.23-1.66-.23-.61,0-1.12,.15-1.52,.44-.4,.29-.75,.67-1.06,1.15s-.57,1.02-.78,1.63c-.21,.61-.41,1.24-.6,1.89v12.28h-5.06V13.33h3.96l.23,4.42h.18c.31-.64,.63-1.27,.97-1.89s.72-1.16,1.15-1.63c.43-.48,.93-.86,1.5-1.15,.57-.29,1.23-.44,2-.44,1.23,0,2.38,.4,3.45,1.2l-1.33,4.09Z"/>
      <path d="M759.47,89.69h-5.29v-30.36h5.29v13.25c1.75-1.66,3.31-3.27,4.69-4.83,1.29-1.47,2.45-2.91,3.5-4.3,1.04-1.39,1.95-2.77,2.71-4.12h5.8c-1.35,1.84-2.64,3.53-3.86,5.06s-2.58,3.13-4.05,4.78c-.55,.61-1.12,1.24-1.7,1.89-.58,.64-1.18,1.29-1.79,1.93l13.57,16.7h-6.12l-10.81-13.29-1.93,1.79v11.5Z"/>
      <path d="M785.73,68.53v13.75c0,1.26,.33,2.22,.99,2.88,.66,.66,1.51,.99,2.55,.99s2.05-.36,2.94-1.08c.89-.72,1.55-1.75,1.98-3.1v-13.43h5.11v21.16h-3.96l-.28-2.94h-.18c-.34,.71-.77,1.28-1.29,1.73-.52,.44-1.1,.8-1.73,1.06-.63,.26-1.28,.44-1.96,.55-.67,.11-1.33,.16-1.98,.16-1.01,0-1.95-.12-2.83-.37-.87-.25-1.64-.65-2.3-1.22-.66-.57-1.18-1.32-1.56-2.25-.38-.93-.58-2.09-.58-3.47v-14.4h5.06Z"/>
      <path d="M817.75,73.13c-.31-.25-.78-.44-1.43-.6-.64-.15-1.2-.23-1.66-.23-.61,0-1.12,.15-1.52,.44-.4,.29-.75,.67-1.06,1.15s-.57,1.02-.78,1.63c-.21,.61-.41,1.24-.6,1.89v12.28h-5.06v-21.16h3.96l.23,4.42h.18c.31-.64,.63-1.27,.97-1.89,.34-.61,.72-1.16,1.15-1.63,.43-.48,.93-.86,1.49-1.15,.57-.29,1.23-.44,2-.44,1.23,0,2.38,.4,3.45,1.2l-1.33,4.09Z"/>
      <path d="M829.29,71.62c-1.01,0-1.8,.19-2.37,.58-.57,.38-.85,.93-.85,1.63,0,.46,.16,.88,.48,1.26,.32,.38,1,.7,2.05,.94l3.27,.74c1.29,.28,2.32,.67,3.11,1.2,.78,.52,1.39,1.09,1.84,1.7,.44,.61,.74,1.24,.9,1.89,.15,.64,.23,1.24,.23,1.79,0,.98-.2,1.89-.6,2.74-.4,.84-.97,1.57-1.7,2.19-.74,.61-1.63,1.1-2.67,1.45-1.04,.35-2.21,.53-3.5,.53-1.63,0-3.13-.24-4.51-.71-1.38-.47-2.48-1-3.31-1.59l1.2-4.37c1.04,1.01,2.21,1.76,3.52,2.25,1.3,.49,2.51,.74,3.61,.74,1.16,0,2.05-.25,2.67-.76,.61-.51,.92-1.2,.92-2.09,0-.52-.15-.96-.46-1.31s-.92-.65-1.84-.9l-4.42-1.1c-1.04-.25-1.89-.6-2.55-1.06-.66-.46-1.18-.97-1.56-1.54s-.64-1.16-.78-1.77c-.14-.61-.21-1.2-.21-1.75,0-2.05,.72-3.64,2.16-4.76,1.44-1.12,3.31-1.68,5.61-1.68,1.2,0,2.48,.16,3.86,.48s2.54,.79,3.5,1.4l-1.33,4.14c-.61-.49-1.47-.99-2.58-1.5s-2.33-.76-3.68-.76Z"/>
    </g>
    <g>
      <path d="M503.52,795.23h-5.75l-3.45-8.83h-11.45l-3.13,8.83h-5.52l11.78-30.36h4.55l12.97,30.36Zm-19.18-12.97h8.33l-4.37-11.18-3.96,11.18Z"/>
      <path d="M510.84,774.07v13.75c0,1.26,.33,2.22,.99,2.88,.66,.66,1.51,.99,2.55,.99s2.05-.36,2.94-1.08c.89-.72,1.55-1.75,1.98-3.1v-13.43h5.11v21.16h-3.96l-.28-2.94h-.18c-.34,.71-.77,1.28-1.29,1.72-.52,.45-1.1,.8-1.73,1.06-.63,.26-1.28,.44-1.96,.55-.67,.11-1.33,.16-1.98,.16-1.01,0-1.95-.12-2.83-.37s-1.64-.65-2.3-1.22c-.66-.57-1.18-1.32-1.56-2.25-.38-.93-.57-2.09-.57-3.47v-14.4h5.06Z"/>
      <path d="M537.19,777.15c-1.01,0-1.8,.19-2.37,.58-.57,.38-.85,.93-.85,1.63,0,.46,.16,.88,.48,1.27,.32,.38,1,.7,2.05,.94l3.27,.74c1.29,.28,2.32,.67,3.1,1.2,.78,.52,1.4,1.09,1.84,1.7,.44,.61,.74,1.24,.9,1.89,.15,.64,.23,1.24,.23,1.79,0,.98-.2,1.89-.6,2.74-.4,.84-.97,1.57-1.7,2.18-.74,.61-1.63,1.1-2.67,1.45-1.04,.35-2.21,.53-3.5,.53-1.63,0-3.13-.24-4.51-.71-1.38-.47-2.48-1-3.31-1.59l1.2-4.37c1.04,1.01,2.22,1.76,3.52,2.25,1.3,.49,2.51,.74,3.61,.74,1.17,0,2.05-.25,2.67-.76,.61-.51,.92-1.2,.92-2.09,0-.52-.15-.96-.46-1.31-.31-.35-.92-.65-1.84-.9l-4.42-1.1c-1.04-.25-1.89-.6-2.55-1.06-.66-.46-1.18-.97-1.56-1.54-.38-.57-.64-1.16-.78-1.77-.14-.61-.21-1.2-.21-1.75,0-2.05,.72-3.64,2.16-4.76,1.44-1.12,3.31-1.68,5.61-1.68,1.2,0,2.48,.16,3.86,.48,1.38,.32,2.54,.79,3.5,1.4l-1.33,4.14c-.61-.49-1.47-.99-2.58-1.49-1.1-.51-2.33-.76-3.68-.76Z"/>
      <path d="M551.68,777.15h-2.62v-2.62l2.62-.41c0-1.75,.05-3.24,.16-4.46,.11-1.23,.25-2.26,.44-3.1,.18-.84,.39-1.53,.62-2.05s.47-.95,.71-1.29c.61-.8,1.42-1.37,2.42-1.73,1-.35,2.09-.53,3.29-.53h.74c.34,0,.71,.03,1.13,.1s.84,.17,1.29,.31c.44,.14,.85,.33,1.22,.55l-1.15,3.91c-.31-.18-.81-.44-1.52-.76-.71-.32-1.4-.48-2.07-.48-.4,0-.74,.09-1.01,.28-.28,.18-.51,.52-.69,1.01-.18,.49-.31,1.15-.39,1.98-.08,.83-.11,1.89-.11,3.17v3.04h4.05v3.08h-4.05v18.08h-5.06v-18.08Z"/>
      <path d="M569.81,774.07v13.75c0,1.26,.33,2.22,.99,2.88,.66,.66,1.51,.99,2.55,.99s2.05-.36,2.94-1.08c.89-.72,1.55-1.75,1.98-3.1v-13.43h5.11v21.16h-3.96l-.28-2.94h-.18c-.34,.71-.77,1.28-1.29,1.72-.52,.45-1.1,.8-1.73,1.06-.63,.26-1.28,.44-1.96,.55-.67,.11-1.33,.16-1.98,.16-1.01,0-1.95-.12-2.83-.37s-1.64-.65-2.3-1.22c-.66-.57-1.18-1.32-1.56-2.25-.38-.93-.57-2.09-.57-3.47v-14.4h5.06Zm-1.75-6.99c0-.71,.26-1.33,.78-1.89,.52-.55,1.13-.83,1.84-.83s1.33,.28,1.89,.83c.55,.55,.83,1.18,.83,1.89s-.28,1.32-.83,1.84c-.55,.52-1.18,.78-1.89,.78s-1.32-.26-1.84-.78c-.52-.52-.78-1.13-.78-1.84Zm6.26,0c0-.71,.26-1.33,.78-1.89,.52-.55,1.13-.83,1.84-.83s1.33,.28,1.89,.83c.55,.55,.83,1.18,.83,1.89s-.28,1.32-.83,1.84c-.55,.52-1.18,.78-1.89,.78s-1.32-.26-1.84-.78-.78-1.13-.78-1.84Z"/>
      <path d="M594.78,777.2c.86-1.35,1.86-2.32,3.01-2.92,1.15-.6,2.51-.9,4.07-.9,.92,0,1.81,.13,2.67,.39,.86,.26,1.62,.68,2.28,1.27,.66,.58,1.18,1.35,1.56,2.3,.38,.95,.57,2.12,.57,3.5v14.4h-5.06v-13.98c0-1.26-.28-2.2-.83-2.83-.55-.63-1.3-.94-2.25-.94-.58,0-1.19,.09-1.82,.28-.63,.18-1.22,.46-1.77,.83-.55,.37-1.04,.81-1.47,1.33-.43,.52-.75,1.1-.97,1.75v13.57h-5.06v-34.04h5.06v16.01Z"/>
      <path d="M627.21,778.67c-.31-.25-.78-.44-1.43-.6-.64-.15-1.2-.23-1.66-.23-.61,0-1.12,.15-1.52,.44-.4,.29-.75,.68-1.06,1.15-.31,.48-.57,1.02-.78,1.63-.21,.61-.41,1.24-.6,1.89v12.28h-5.06v-21.16h3.96l.23,4.42h.18c.31-.64,.63-1.27,.97-1.89,.34-.61,.72-1.16,1.15-1.63,.43-.48,.93-.86,1.49-1.15,.57-.29,1.23-.44,2-.44,1.23,0,2.38,.4,3.45,1.2l-1.33,4.09Z"/>
      <path d="M637.2,774.07v13.75c0,1.26,.33,2.22,.99,2.88,.66,.66,1.51,.99,2.55,.99s2.05-.36,2.94-1.08c.89-.72,1.55-1.75,1.98-3.1v-13.43h5.11v21.16h-3.96l-.28-2.94h-.18c-.34,.71-.77,1.28-1.29,1.72-.52,.45-1.1,.8-1.73,1.06-.63,.26-1.28,.44-1.96,.55-.67,.11-1.33,.16-1.98,.16-1.01,0-1.95-.12-2.83-.37s-1.64-.65-2.3-1.22c-.66-.57-1.18-1.32-1.56-2.25-.38-.93-.57-2.09-.57-3.47v-14.4h5.06Z"/>
      <path d="M671.28,795.23v-13.98c0-2.51-1.07-3.77-3.22-3.77-.52,0-1.08,.09-1.68,.28-.6,.18-1.17,.45-1.73,.8-.55,.35-1.05,.79-1.49,1.31-.44,.52-.77,1.12-.99,1.79v13.57h-5.06v-21.16h3.96l.23,3.13h.18c.64-1.29,1.65-2.25,3.01-2.88,1.36-.63,2.83-.94,4.39-.94,1.01,0,1.96,.13,2.85,.39,.89,.26,1.68,.68,2.37,1.27,.69,.58,1.23,1.35,1.63,2.3,.4,.95,.6,2.12,.6,3.5v14.4h-5.06Z"/>
      <path d="M685.08,788.56c-1.38-.58-2.38-1.49-2.99-2.71-.61-1.23-.92-2.56-.92-4,0-1.2,.2-2.32,.6-3.36,.4-1.04,.97-1.94,1.73-2.69s1.66-1.34,2.71-1.77c1.06-.43,2.26-.64,3.61-.64,.8,0,1.59,.07,2.37,.22,.78,.15,1.46,.37,2.05,.67,1.29,0,2.46-.09,3.52-.26,1.06-.17,2.08-.4,3.06-.68l.41,.32-.51,3.5-.23,.23-3.27-.37-.05,.14c1.04,1.32,1.56,2.87,1.56,4.65,0,1.07-.19,2.08-.58,3.01-.38,.94-.94,1.75-1.68,2.44-.74,.69-1.65,1.24-2.74,1.66-1.09,.41-2.32,.62-3.7,.62-.34,0-.61,0-.81-.02-.2-.02-.39-.02-.58-.02-.52,.18-.92,.42-1.2,.71-.28,.29-.41,.59-.41,.9,0,.34,.17,.63,.51,.87,.34,.25,.86,.41,1.56,.51l4.46,.55c1.01,.12,1.95,.34,2.83,.64s1.64,.72,2.3,1.24c.66,.52,1.17,1.15,1.54,1.89s.55,1.58,.55,2.53-.2,1.87-.6,2.76c-.4,.89-1.03,1.67-1.89,2.35-.86,.67-1.94,1.21-3.24,1.61-1.3,.4-2.88,.6-4.71,.6-1.63,0-3.06-.16-4.3-.48-1.24-.32-2.29-.76-3.15-1.31-.86-.55-1.51-1.2-1.96-1.96-.44-.75-.67-1.56-.67-2.42,0-.61,.11-1.22,.32-1.82,.21-.6,.51-1.15,.9-1.66,.38-.51,.83-.96,1.33-1.36s1.05-.69,1.63-.87v-.18c-.71-.31-1.2-.72-1.47-1.24-.28-.52-.41-1.03-.41-1.52,0-.64,.21-1.24,.64-1.79,.43-.55,1.04-.98,1.84-1.29v-.18Zm3.5,7.68c-1.04,.18-1.93,.62-2.67,1.31-.74,.69-1.1,1.48-1.1,2.37,0,.98,.48,1.72,1.45,2.21,.97,.49,2.37,.74,4.21,.74s3.25-.25,4.32-.76c1.07-.51,1.61-1.33,1.61-2.46s-.6-1.89-1.79-2.35c-1.2-.46-3.21-.81-6.03-1.06Zm1.43-10.26c1.26,0,2.21-.41,2.85-1.22,.64-.81,.97-1.8,.97-2.97,0-.55-.08-1.11-.23-1.68-.15-.57-.4-1.08-.74-1.54-.34-.46-.76-.84-1.27-1.13-.51-.29-1.1-.44-1.77-.44s-1.21,.13-1.7,.39c-.49,.26-.9,.61-1.22,1.04-.32,.43-.56,.91-.71,1.45-.15,.54-.23,1.08-.23,1.63s.08,1.1,.25,1.63c.17,.54,.42,1.01,.76,1.43,.34,.41,.76,.75,1.26,1.01,.51,.26,1.1,.39,1.77,.39Z"/>
      <path d="M722.62,795.23h-5.29v-30.36h5.29v13.25c1.75-1.66,3.31-3.27,4.69-4.83,1.29-1.47,2.45-2.91,3.5-4.3,1.04-1.39,1.95-2.77,2.71-4.12h5.8c-1.35,1.84-2.64,3.53-3.86,5.06-1.23,1.53-2.58,3.13-4.05,4.78-.55,.61-1.12,1.24-1.7,1.89-.58,.64-1.18,1.29-1.79,1.93l13.57,16.7h-6.12l-10.81-13.29-1.93,1.79v11.5Z"/>
      <path d="M757.35,795.23l-.37-2.9h-.18c-.83,1.04-1.96,1.88-3.38,2.51-1.43,.63-2.88,.94-4.35,.94-1.93,0-3.45-.56-4.55-1.68-1.1-1.12-1.66-2.6-1.66-4.44,0-1.26,.27-2.38,.81-3.38,.54-1,1.31-1.84,2.32-2.53,1.01-.69,2.22-1.22,3.63-1.59,1.41-.37,2.99-.55,4.74-.55h1.98v-.69c0-1.2-.38-2.07-1.15-2.62-.8-.55-2.04-.83-3.73-.83-2.27,0-4.29,.51-6.07,1.52l-.97-3.82c2.05-1.2,4.54-1.79,7.45-1.79,3.07,0,5.4,.63,6.99,1.89,.74,.58,1.34,1.33,1.82,2.25s.71,2.02,.71,3.31v14.4h-4.05Zm-6.3-3.54c.98,0,1.96-.24,2.94-.71,.98-.47,1.76-1.11,2.35-1.91v-4.19h-.87c-2.51,0-4.35,.32-5.5,.97-1.15,.64-1.73,1.67-1.73,3.08,0,1.84,.94,2.76,2.81,2.76Z"/>
      <path d="M772.39,774.07v13.75c0,1.26,.33,2.22,.99,2.88s1.51,.99,2.55,.99,2.05-.36,2.94-1.08c.89-.72,1.55-1.75,1.98-3.1v-13.43h5.11v21.16h-3.96l-.28-2.94h-.18c-.34,.71-.77,1.28-1.29,1.72-.52,.45-1.1,.8-1.72,1.06-.63,.26-1.28,.44-1.96,.55-.67,.11-1.33,.16-1.98,.16-1.01,0-1.95-.12-2.83-.37s-1.64-.65-2.3-1.22c-.66-.57-1.18-1.32-1.56-2.25-.38-.93-.58-2.09-.58-3.47v-14.4h5.06Z"/>
      <path d="M793.32,777.15h-2.62v-2.62l2.62-.41c0-1.75,.05-3.24,.16-4.46,.11-1.23,.25-2.26,.44-3.1,.18-.84,.39-1.53,.62-2.05,.23-.52,.47-.95,.71-1.29,.61-.8,1.42-1.37,2.42-1.73,1-.35,2.09-.53,3.29-.53h.74c.34,0,.71,.03,1.13,.1s.84,.17,1.29,.31c.44,.14,.85,.33,1.22,.55l-1.15,3.91c-.31-.18-.81-.44-1.52-.76-.71-.32-1.4-.48-2.07-.48-.4,0-.74,.09-1.01,.28-.28,.18-.51,.52-.69,1.01-.18,.49-.32,1.15-.39,1.98s-.11,1.89-.11,3.17v3.04h4.05v3.08h-4.05v18.08h-5.06v-18.08Z"/>
      <path d="M815.9,773.38c2.7,0,4.78,.68,6.26,2.05,1.47,1.37,2.21,3.29,2.21,5.77,0,.34-.02,.7-.07,1.08-.05,.38-.11,.76-.18,1.13-.08,.37-.17,.7-.28,.99-.11,.29-.22,.53-.35,.71h-13.39c.06,.92,.23,1.79,.51,2.6,.28,.81,.67,1.52,1.2,2.12,.52,.6,1.16,1.07,1.91,1.43,.75,.35,1.63,.53,2.64,.53,1.13,0,2.34-.21,3.61-.64,1.27-.43,2.35-.97,3.24-1.61l.83,3.77c-.4,.25-.89,.51-1.47,.8-.58,.29-1.24,.56-1.98,.81-.74,.25-1.53,.45-2.37,.62-.84,.17-1.72,.25-2.65,.25-1.72,0-3.24-.3-4.55-.9s-2.42-1.41-3.31-2.44c-.89-1.03-1.56-2.21-2.02-3.56s-.69-2.76-.69-4.23,.24-2.94,.71-4.3c.47-1.36,1.17-2.57,2.09-3.61,.92-1.04,2.06-1.86,3.43-2.46,1.36-.6,2.92-.9,4.67-.9Zm-.14,3.96c-1.29,0-2.38,.38-3.29,1.13-.91,.75-1.56,1.77-1.96,3.06h8.79c.03-.09,.05-.2,.07-.32,.01-.12,.02-.28,.02-.46,0-.98-.34-1.79-1.01-2.44-.67-.64-1.55-.97-2.62-.97Z"/>
      <path d="M843.69,795.23v-13.98c0-2.51-1.07-3.77-3.22-3.77-.52,0-1.08,.09-1.68,.28-.6,.18-1.17,.45-1.73,.8-.55,.35-1.05,.79-1.49,1.31-.45,.52-.78,1.12-.99,1.79v13.57h-5.06v-21.16h3.96l.23,3.13h.18c.64-1.29,1.65-2.25,3.01-2.88,1.36-.63,2.83-.94,4.39-.94,1.01,0,1.96,.13,2.85,.39,.89,.26,1.68,.68,2.37,1.27,.69,.58,1.23,1.35,1.63,2.3,.4,.95,.6,2.12,.6,3.5v14.4h-5.06Z"/>
    </g>
    <line class="cls-1" x1="924.33" y1="819.99" x2="474.13" y2="819.45"/>
    <circle class="cls-1" cx="970.32" cy="818.6" r="47.01"/>
    <g>
      <path d="M987.04,182.18c0,1.22-.25,2.32-.76,3.31-.51,.99-1.3,1.84-2.37,2.54,1.84,.61,3.28,1.57,4.32,2.88,1.04,1.31,1.56,2.97,1.56,4.97,0,1.28-.23,2.48-.69,3.61s-1.17,2.11-2.12,2.97c-.95,.85-2.13,1.53-3.54,2.03-1.41,.5-3.07,.75-4.97,.75h-4.92c-1.59,0-2.93-.13-4-.39v-30.38c.34-.09,.81-.14,1.43-.14h5.98c3.25,0,5.74,.66,7.48,1.99,1.73,1.33,2.6,3.28,2.6,5.87Zm-9.2-3.63c-.61,0-1.16,.02-1.63,.07-.48,.05-.93,.1-1.36,.16v7.87c.37,.03,.74,.05,1.13,.05h1.17c1.35,0,2.41-.45,3.17-1.36,.77-.9,1.15-2.09,1.15-3.56,0-.92-.31-1.69-.94-2.3-.63-.61-1.53-.92-2.69-.92Zm.41,12.01h-3.4v10.3c.55,.06,1.12,.09,1.7,.09h1.79c1.87,0,3.33-.46,4.37-1.37,1.04-.92,1.56-2.24,1.56-3.98,0-1.56-.48-2.79-1.43-3.69-.95-.9-2.48-1.35-4.6-1.35Z"/>
      <path d="M999.55,183.66v13.75c0,1.26,.33,2.22,.99,2.88,.66,.66,1.51,.99,2.55,.99s2.05-.36,2.94-1.08c.89-.72,1.55-1.76,1.98-3.1v-13.43h5.11v21.16h-3.96l-.28-2.94h-.18c-.34,.71-.77,1.28-1.29,1.72-.52,.45-1.1,.8-1.72,1.06-.63,.26-1.28,.44-1.96,.55-.67,.11-1.33,.16-1.98,.16-1.01,0-1.95-.12-2.83-.37s-1.64-.65-2.3-1.22c-.66-.57-1.18-1.32-1.56-2.25-.38-.94-.58-2.09-.58-3.47v-14.4h5.06Z"/>
      <path d="M1028.63,198.7l5.89-15.04h4.88l-8.74,21.34c-.43,1.07-1.02,2.28-1.77,3.61-.75,1.33-1.64,2.59-2.67,3.77-1.03,1.18-2.19,2.18-3.47,2.99-1.29,.81-2.68,1.22-4.19,1.22-.25,0-.43,0-.55-.02-.12-.02-.26-.05-.41-.11l-.87-3.96c.09,.03,.2,.06,.32,.09,.12,.03,.38,.05,.78,.05,.58,0,1.16-.06,1.73-.18,.57-.12,1.14-.37,1.72-.74,1.1-.71,2.06-1.69,2.88-2.94,.81-1.26,1.6-2.81,2.37-4.65l-10.53-20.47h5.29l7.36,15.04Z"/>
      <path d="M1058.34,181.77c0,.64,.14,1.2,.44,1.66,.29,.46,.7,.86,1.22,1.2,.52,.34,1.14,.65,1.86,.94,.72,.29,1.53,.59,2.42,.9,1.1,.4,2.2,.85,3.29,1.36,1.09,.51,2.07,1.13,2.94,1.89s1.59,1.68,2.14,2.78,.83,2.44,.83,4c0,1.66-.3,3.05-.9,4.19-.6,1.14-1.4,2.05-2.42,2.74-1.01,.69-2.18,1.19-3.5,1.49s-2.68,.46-4.09,.46c-2.02,0-3.92-.25-5.68-.74-1.76-.49-3.27-1.09-4.53-1.79l1.38-4.97c1.17,.89,2.46,1.63,3.89,2.21,1.43,.58,3.06,.87,4.9,.87,1.96,0,3.39-.35,4.28-1.04,.89-.69,1.33-1.62,1.33-2.78,0-.89-.21-1.65-.64-2.28-.43-.63-.97-1.17-1.61-1.61-.64-.44-1.33-.81-2.05-1.08-.72-.28-1.36-.51-1.91-.69-.98-.31-1.98-.67-2.99-1.1-1.01-.43-1.95-.99-2.81-1.68-.86-.69-1.56-1.56-2.09-2.6-.54-1.04-.8-2.35-.8-3.91,0-1.47,.25-2.71,.76-3.73,.51-1.01,1.2-1.83,2.07-2.46,.87-.63,1.9-1.08,3.08-1.36,1.18-.28,2.46-.41,3.84-.41,1.69,0,3.32,.17,4.9,.51,1.58,.34,2.91,.75,3.98,1.24l-1.24,4.88c-.55-.37-1.15-.69-1.79-.97-.64-.28-1.31-.51-2-.69-.69-.18-1.38-.33-2.07-.44-.69-.11-1.34-.16-1.96-.16-1.38,0-2.47,.26-3.27,.78-.8,.52-1.2,1.32-1.2,2.39Z"/>
      <path d="M1078.91,186.74h-2.62v-2.76l2.99-.46,.83-6.26h3.86v6.39h4.05v3.08h-4.05v12.14c0,.92,.09,1.54,.28,1.86,.18,.32,.54,.48,1.06,.48,.4,0,.8-.08,1.2-.23,.4-.15,.98-.44,1.75-.87l.83,3.63c-.58,.49-1.4,.88-2.46,1.17-1.06,.29-2.11,.44-3.15,.44-.92,0-1.68-.12-2.28-.37-.6-.25-1.07-.61-1.4-1.08-.34-.48-.57-1.05-.69-1.73-.12-.67-.18-1.43-.18-2.25v-13.2Z"/>
      <path d="M1102.64,182.97c1.87,0,3.48,.31,4.83,.94,1.35,.63,2.46,1.47,3.33,2.53s1.52,2.27,1.93,3.63c.41,1.37,.62,2.8,.62,4.3s-.21,2.92-.62,4.25-1.06,2.5-1.93,3.5c-.87,1-1.98,1.79-3.31,2.37-1.33,.58-2.91,.87-4.71,.87s-3.48-.31-4.83-.92c-1.35-.61-2.47-1.43-3.36-2.46-.89-1.03-1.55-2.21-1.98-3.56-.43-1.35-.64-2.77-.64-4.28s.21-2.93,.64-4.28c.43-1.35,1.08-2.54,1.96-3.56,.87-1.03,1.99-1.84,3.33-2.44,1.35-.6,2.93-.9,4.74-.9Zm.09,18.58c.89,0,1.66-.19,2.32-.57,.66-.38,1.2-.9,1.63-1.56,.43-.66,.74-1.42,.94-2.28,.2-.86,.3-1.76,.3-2.71s-.11-1.92-.32-2.83c-.21-.9-.54-1.7-.99-2.39-.44-.69-1-1.24-1.68-1.66-.67-.41-1.49-.62-2.44-.62-.89,0-1.66,.19-2.3,.58-.64,.38-1.17,.9-1.59,1.54s-.72,1.4-.92,2.25c-.2,.86-.3,1.76-.3,2.71s.1,1.92,.3,2.83c.2,.9,.52,1.71,.97,2.42,.44,.71,1,1.27,1.68,1.68,.67,.41,1.47,.62,2.39,.62Z"/>
      <path d="M1130.24,182.97c1.66,0,3.08,.31,4.28,.94,1.2,.63,2.18,1.46,2.97,2.51,.78,1.04,1.36,2.25,1.72,3.61,.37,1.36,.55,2.78,.55,4.25s-.19,2.93-.58,4.28c-.38,1.35-.97,2.53-1.77,3.54-.8,1.01-1.79,1.81-2.99,2.39-1.2,.58-2.62,.87-4.28,.87-1.38,0-2.66-.2-3.84-.6-1.18-.4-2.12-1.04-2.83-1.93v13.94h-5.01v-33.12h4.05l.37,2.9h.18c.4-.49,.87-.96,1.43-1.4,.55-.44,1.15-.83,1.79-1.15s1.3-.58,1.98-.76c.67-.18,1.33-.28,1.98-.28Zm-.83,3.86c-.46,0-.97,.07-1.52,.21-.55,.14-1.1,.34-1.63,.6-.54,.26-1.05,.58-1.54,.94-.49,.37-.91,.78-1.24,1.24v8.97c.92,1.13,1.86,1.85,2.83,2.14,.97,.29,1.85,.44,2.64,.44,1.01,0,1.88-.18,2.6-.55,.72-.37,1.32-.87,1.79-1.5,.47-.63,.83-1.36,1.06-2.21,.23-.84,.34-1.75,.34-2.74,0-.92-.1-1.83-.3-2.74-.2-.9-.52-1.71-.97-2.42-.45-.71-1-1.28-1.68-1.72-.68-.44-1.47-.67-2.39-.67Z"/>
      <path d="M1170.08,174.23c2.39,0,4.51,.41,6.35,1.24,1.84,.83,3.39,1.96,4.65,3.38,1.26,1.43,2.21,3.07,2.85,4.94,.64,1.87,.97,3.83,.97,5.89s-.31,3.98-.94,5.86c-.63,1.89-1.58,3.56-2.85,5.01-1.27,1.46-2.85,2.62-4.74,3.5-1.89,.87-4.09,1.31-6.6,1.31s-4.58-.41-6.39-1.24c-1.81-.83-3.31-1.95-4.51-3.36-1.2-1.41-2.09-3.04-2.69-4.9s-.9-3.81-.9-5.87c0-2.18,.33-4.22,.99-6.14,.66-1.92,1.62-3.59,2.88-5.01,1.26-1.43,2.81-2.55,4.65-3.38,1.84-.83,3.94-1.24,6.3-1.24Zm-.23,26.63c1.69,0,3.12-.28,4.3-.85,1.18-.57,2.15-1.35,2.92-2.35,.77-1,1.33-2.17,1.68-3.52,.35-1.35,.53-2.79,.53-4.32,0-1.66-.18-3.16-.55-4.51-.37-1.35-.94-2.51-1.7-3.5-.77-.98-1.74-1.74-2.92-2.28-1.18-.54-2.57-.81-4.16-.81s-3.01,.27-4.16,.81c-1.15,.54-2.09,1.28-2.81,2.23-.72,.95-1.24,2.09-1.56,3.4-.32,1.32-.48,2.78-.48,4.37,0,3.74,.77,6.56,2.3,8.46,1.53,1.9,3.74,2.85,6.62,2.85Z"/>
      <path d="M1202.05,188.26c-.31-.25-.78-.44-1.43-.6-.64-.15-1.2-.23-1.66-.23-.61,0-1.12,.15-1.52,.44-.4,.29-.75,.68-1.06,1.15-.31,.48-.57,1.02-.78,1.63-.21,.61-.41,1.24-.6,1.89v12.28h-5.06v-21.16h3.96l.23,4.42h.18c.31-.64,.63-1.27,.97-1.89,.34-.61,.72-1.16,1.15-1.63,.43-.48,.93-.86,1.5-1.15,.57-.29,1.23-.44,2-.44,1.23,0,2.38,.4,3.45,1.2l-1.33,4.09Z"/>
      <path d="M1215.16,205.37c-1.44,0-2.76-.29-3.96-.87-1.2-.58-2.22-1.38-3.06-2.39-.84-1.01-1.5-2.21-1.96-3.59-.46-1.38-.69-2.88-.69-4.51,0-1.44,.19-2.83,.57-4.16s.97-2.51,1.77-3.52c.8-1.01,1.79-1.82,2.97-2.44,1.18-.61,2.58-.92,4.21-.92,1.47,0,2.79,.25,3.96,.74,1.17,.49,2.1,1.18,2.81,2.07v-15h5.01v34.04h-4.05l-.37-2.9h-.18c-.86,.95-1.83,1.76-2.92,2.44s-2.46,1.01-4.12,1.01Zm.64-3.82c.49,0,1.01-.07,1.56-.21,.55-.14,1.1-.33,1.63-.57,.54-.25,1.05-.54,1.54-.9,.49-.35,.9-.76,1.24-1.22v-8.83c-.92-1.13-1.86-1.91-2.81-2.32-.95-.41-1.87-.62-2.76-.62-.98,0-1.83,.19-2.53,.57-.71,.38-1.3,.91-1.77,1.59-.48,.67-.83,1.45-1.06,2.32-.23,.87-.34,1.79-.34,2.74s.11,1.83,.32,2.74c.21,.9,.54,1.7,.97,2.39,.43,.69,.98,1.25,1.66,1.68,.67,.43,1.46,.64,2.35,.64Z"/>
      <path d="M1242.75,182.97c2.7,0,4.78,.68,6.26,2.05,1.47,1.37,2.21,3.29,2.21,5.77,0,.34-.02,.7-.07,1.08-.05,.38-.11,.76-.18,1.13-.08,.37-.17,.7-.28,.99-.11,.29-.22,.53-.35,.71h-13.39c.06,.92,.23,1.79,.51,2.6,.28,.81,.67,1.52,1.2,2.12,.52,.6,1.16,1.07,1.91,1.43,.75,.35,1.63,.53,2.64,.53,1.13,0,2.34-.21,3.61-.64,1.27-.43,2.35-.97,3.24-1.61l.83,3.77c-.4,.25-.89,.51-1.47,.81-.58,.29-1.24,.56-1.98,.81-.74,.25-1.53,.45-2.37,.62-.84,.17-1.72,.25-2.65,.25-1.72,0-3.24-.3-4.55-.9-1.32-.6-2.42-1.41-3.31-2.44-.89-1.03-1.56-2.21-2.02-3.56-.46-1.35-.69-2.76-.69-4.23s.24-2.94,.71-4.3c.47-1.36,1.17-2.57,2.09-3.61,.92-1.04,2.06-1.86,3.43-2.46,1.36-.6,2.92-.9,4.67-.9Zm-.14,3.96c-1.29,0-2.38,.38-3.29,1.13-.91,.75-1.56,1.77-1.96,3.06h8.79c.03-.09,.05-.2,.07-.32,.01-.12,.02-.28,.02-.46,0-.98-.34-1.79-1.01-2.44-.67-.64-1.55-.97-2.62-.97Z"/>
      <path d="M1268.47,188.26c-.31-.25-.78-.44-1.43-.6-.64-.15-1.2-.23-1.66-.23-.61,0-1.12,.15-1.52,.44-.4,.29-.75,.68-1.06,1.15-.31,.48-.57,1.02-.78,1.63-.21,.61-.41,1.24-.6,1.89v12.28h-5.06v-21.16h3.96l.23,4.42h.18c.31-.64,.63-1.27,.97-1.89,.34-.61,.72-1.16,1.15-1.63,.43-.48,.93-.86,1.5-1.15,.57-.29,1.23-.44,2-.44,1.23,0,2.38,.4,3.45,1.2l-1.33,4.09Z"/>
      <path d="M1290,204.82h-5.29v-30.36h5.29v13.25c1.75-1.66,3.31-3.27,4.69-4.83,1.29-1.47,2.45-2.91,3.5-4.3,1.04-1.4,1.95-2.77,2.71-4.12h5.8c-1.35,1.84-2.64,3.53-3.86,5.06-1.23,1.53-2.58,3.13-4.05,4.78-.55,.61-1.12,1.24-1.7,1.89-.58,.64-1.18,1.29-1.79,1.93l13.57,16.7h-6.12l-10.81-13.29-1.93,1.79v11.5Z"/>
      <path d="M1316.26,183.66v13.75c0,1.26,.33,2.22,.99,2.88,.66,.66,1.51,.99,2.55,.99s2.05-.36,2.94-1.08c.89-.72,1.55-1.76,1.98-3.1v-13.43h5.11v21.16h-3.96l-.28-2.94h-.18c-.34,.71-.77,1.28-1.29,1.72-.52,.45-1.1,.8-1.73,1.06s-1.28,.44-1.96,.55c-.67,.11-1.33,.16-1.98,.16-1.01,0-1.96-.12-2.83-.37s-1.64-.65-2.3-1.22c-.66-.57-1.18-1.32-1.56-2.25-.38-.94-.57-2.09-.57-3.47v-14.4h5.06Z"/>
      <path d="M1348.28,188.26c-.31-.25-.78-.44-1.43-.6-.64-.15-1.2-.23-1.66-.23-.61,0-1.12,.15-1.52,.44-.4,.29-.75,.68-1.06,1.15-.31,.48-.57,1.02-.78,1.63-.21,.61-.41,1.24-.6,1.89v12.28h-5.06v-21.16h3.96l.23,4.42h.18c.31-.64,.63-1.27,.97-1.89,.34-.61,.72-1.16,1.15-1.63,.43-.48,.93-.86,1.5-1.15,.57-.29,1.23-.44,2-.44,1.23,0,2.38,.4,3.45,1.2l-1.33,4.09Z"/>
      <path d="M1359.82,186.74c-1.01,0-1.8,.19-2.37,.58-.57,.38-.85,.93-.85,1.63,0,.46,.16,.88,.48,1.27,.32,.38,1,.7,2.05,.94l3.27,.74c1.29,.28,2.32,.67,3.1,1.2,.78,.52,1.4,1.09,1.84,1.7,.44,.61,.74,1.24,.9,1.89,.15,.64,.23,1.24,.23,1.79,0,.98-.2,1.89-.6,2.74-.4,.84-.97,1.57-1.7,2.19-.74,.61-1.63,1.1-2.67,1.45-1.04,.35-2.21,.53-3.5,.53-1.63,0-3.13-.24-4.51-.71s-2.48-1-3.31-1.59l1.2-4.37c1.04,1.01,2.22,1.76,3.52,2.25,1.3,.49,2.51,.74,3.61,.74,1.17,0,2.05-.25,2.67-.76,.61-.51,.92-1.2,.92-2.09,0-.52-.15-.96-.46-1.31-.31-.35-.92-.65-1.84-.9l-4.42-1.1c-1.04-.25-1.89-.6-2.55-1.06-.66-.46-1.18-.97-1.56-1.54-.38-.57-.64-1.16-.78-1.77-.14-.61-.21-1.2-.21-1.75,0-2.05,.72-3.64,2.16-4.76,1.44-1.12,3.31-1.68,5.61-1.68,1.2,0,2.48,.16,3.86,.48,1.38,.32,2.54,.79,3.5,1.4l-1.33,4.14c-.61-.49-1.47-.99-2.58-1.49-1.1-.51-2.33-.76-3.68-.76Z"/>
    </g>
    <g>
      <path d="M1091.66,875.18c0,1.22-.25,2.32-.76,3.31-.51,.99-1.3,1.84-2.37,2.54,1.84,.61,3.28,1.57,4.32,2.88,1.04,1.31,1.56,2.97,1.56,4.97,0,1.28-.23,2.48-.69,3.61-.46,1.12-1.17,2.11-2.12,2.97-.95,.85-2.13,1.53-3.54,2.03-1.41,.5-3.07,.75-4.97,.75h-4.92c-1.59,0-2.93-.13-4-.39v-30.38c.34-.09,.81-.14,1.43-.14h5.98c3.25,0,5.74,.66,7.47,1.99,1.73,1.33,2.6,3.28,2.6,5.87Zm-9.2-3.63c-.61,0-1.16,.02-1.63,.07s-.93,.1-1.36,.16v7.87c.37,.03,.74,.05,1.13,.05h1.17c1.35,0,2.41-.45,3.17-1.36,.77-.9,1.15-2.09,1.15-3.56,0-.92-.32-1.69-.94-2.3-.63-.61-1.53-.92-2.69-.92Zm.41,12.01h-3.4v10.3c.55,.06,1.12,.09,1.7,.09h1.79c1.87,0,3.33-.46,4.37-1.37,1.04-.92,1.56-2.24,1.56-3.99,0-1.56-.48-2.79-1.43-3.69-.95-.9-2.48-1.35-4.6-1.35Z"/>
      <path d="M1104.17,876.66v13.75c0,1.26,.33,2.22,.99,2.88,.66,.66,1.51,.99,2.55,.99s2.05-.36,2.94-1.08c.89-.72,1.55-1.76,1.98-3.11v-13.43h5.11v21.16h-3.96l-.28-2.94h-.18c-.34,.71-.77,1.28-1.29,1.72-.52,.45-1.1,.8-1.73,1.06-.63,.26-1.28,.44-1.96,.55s-1.33,.16-1.98,.16c-1.01,0-1.96-.12-2.83-.37s-1.64-.65-2.3-1.22c-.66-.57-1.18-1.32-1.56-2.25s-.57-2.09-.57-3.47v-14.4h5.06Z"/>
      <path d="M1133.24,891.7l5.89-15.04h4.88l-8.74,21.34c-.43,1.07-1.02,2.28-1.77,3.61-.75,1.33-1.64,2.59-2.67,3.77s-2.18,2.18-3.47,2.99-2.68,1.22-4.19,1.22c-.25,0-.43,0-.55-.02-.12-.02-.26-.05-.41-.12l-.87-3.96c.09,.03,.2,.06,.32,.09,.12,.03,.38,.05,.78,.05,.58,0,1.16-.06,1.72-.18,.57-.12,1.14-.37,1.72-.74,1.1-.71,2.06-1.69,2.88-2.94,.81-1.26,1.6-2.81,2.37-4.65l-10.53-20.47h5.29l7.36,15.04Z"/>
      <path d="M1164.38,893.22h12.65v4.6h-17.94v-30.36h5.29v25.76Z"/>
      <path d="M1180.34,869.85c0-.43,.08-.84,.25-1.24s.41-.76,.71-1.08c.31-.32,.65-.58,1.04-.76,.38-.18,.81-.28,1.27-.28,.43,0,.84,.09,1.24,.28,.4,.18,.76,.44,1.08,.76,.32,.32,.58,.68,.76,1.08,.18,.4,.28,.81,.28,1.24,0,.46-.09,.88-.28,1.26-.18,.38-.44,.73-.76,1.04-.32,.31-.68,.54-1.08,.71-.4,.17-.81,.25-1.24,.25-.89,0-1.66-.32-2.3-.97-.64-.64-.97-1.41-.97-2.3Zm5.8,27.97h-5.06v-21.16h5.06v21.16Z"/>
      <path d="M1206.2,897.82v-13.98c0-2.51-1-3.77-2.99-3.77-.49,0-1.02,.09-1.59,.28-.57,.18-1.12,.45-1.66,.81s-1.03,.79-1.47,1.31c-.45,.52-.76,1.12-.94,1.79v13.57h-5.06v-21.16h3.96l.23,3.13h.18c.61-1.29,1.59-2.25,2.92-2.88,1.33-.63,2.75-.94,4.25-.94s2.75,.28,3.93,.85,2.06,1.54,2.65,2.92c.61-1.26,1.58-2.2,2.9-2.83,1.32-.63,2.73-.94,4.23-.94,.98,0,1.91,.13,2.78,.39s1.64,.68,2.3,1.26c.66,.58,1.18,1.35,1.56,2.3,.38,.95,.57,2.12,.57,3.5v14.4h-5.06v-13.98c0-2.51-1-3.77-2.99-3.77-.49,0-1.02,.09-1.59,.28-.57,.18-1.12,.45-1.66,.81s-1.03,.79-1.47,1.31c-.45,.52-.76,1.12-.94,1.79v13.57h-5.06Z"/>
      <path d="M1230.16,869.85c0-.43,.08-.84,.25-1.24s.41-.76,.71-1.08c.31-.32,.65-.58,1.04-.76,.38-.18,.81-.28,1.27-.28,.43,0,.84,.09,1.24,.28,.4,.18,.76,.44,1.08,.76,.32,.32,.58,.68,.76,1.08,.18,.4,.28,.81,.28,1.24,0,.46-.09,.88-.28,1.26-.18,.38-.44,.73-.76,1.04-.32,.31-.68,.54-1.08,.71-.4,.17-.81,.25-1.24,.25-.89,0-1.66-.32-2.3-.97-.64-.64-.97-1.41-.97-2.3Zm5.8,27.97h-5.06v-21.16h5.06v21.16Z"/>
      <path d="M1243.27,879.74h-2.62v-2.76l2.99-.46,.83-6.26h3.86v6.39h4.05v3.08h-4.05v12.14c0,.92,.09,1.54,.28,1.86,.18,.32,.54,.48,1.06,.48,.4,0,.8-.08,1.2-.23,.4-.15,.98-.44,1.75-.87l.83,3.63c-.58,.49-1.4,.88-2.46,1.17-1.06,.29-2.11,.44-3.15,.44-.92,0-1.68-.12-2.28-.37-.6-.25-1.07-.61-1.4-1.08-.34-.47-.57-1.05-.69-1.72-.12-.67-.18-1.43-.18-2.25v-13.2Z"/>
      <path d="M1282.74,867.23c2.39,0,4.51,.41,6.35,1.24,1.84,.83,3.39,1.96,4.65,3.38,1.26,1.43,2.21,3.07,2.85,4.94,.64,1.87,.97,3.83,.97,5.89s-.32,3.98-.94,5.86c-.63,1.89-1.58,3.56-2.85,5.01-1.27,1.46-2.85,2.62-4.74,3.5s-4.09,1.31-6.6,1.31-4.58-.41-6.39-1.24-3.31-1.95-4.51-3.36-2.09-3.04-2.69-4.9c-.6-1.86-.9-3.81-.9-5.87,0-2.18,.33-4.22,.99-6.14,.66-1.92,1.62-3.59,2.88-5.01,1.26-1.43,2.81-2.55,4.65-3.38,1.84-.83,3.94-1.24,6.3-1.24Zm-.23,26.63c1.69,0,3.12-.28,4.3-.85,1.18-.57,2.15-1.35,2.92-2.35,.77-1,1.33-2.17,1.68-3.52s.53-2.79,.53-4.32c0-1.66-.18-3.16-.55-4.51s-.94-2.51-1.7-3.5-1.74-1.74-2.92-2.28c-1.18-.54-2.57-.8-4.16-.8s-3.01,.27-4.16,.8c-1.15,.54-2.09,1.28-2.81,2.23-.72,.95-1.24,2.09-1.56,3.4-.32,1.32-.48,2.78-.48,4.37,0,3.74,.77,6.56,2.3,8.46,1.53,1.9,3.74,2.85,6.62,2.85Z"/>
      <path d="M1314.71,881.26c-.31-.25-.78-.44-1.43-.6-.64-.15-1.2-.23-1.66-.23-.61,0-1.12,.15-1.52,.44-.4,.29-.75,.67-1.06,1.15s-.57,1.02-.78,1.63c-.21,.61-.41,1.24-.6,1.89v12.28h-5.06v-21.16h3.96l.23,4.42h.18c.31-.64,.63-1.27,.97-1.89,.34-.61,.72-1.16,1.15-1.63,.43-.47,.93-.86,1.49-1.15,.57-.29,1.23-.44,2-.44,1.23,0,2.38,.4,3.45,1.2l-1.33,4.09Z"/>
      <path d="M1327.82,898.37c-1.44,0-2.76-.29-3.96-.87-1.2-.58-2.22-1.38-3.06-2.39-.84-1.01-1.5-2.21-1.96-3.59-.46-1.38-.69-2.88-.69-4.51,0-1.44,.19-2.83,.57-4.16s.97-2.51,1.77-3.52c.8-1.01,1.79-1.82,2.97-2.44,1.18-.61,2.58-.92,4.21-.92,1.47,0,2.79,.25,3.96,.74,1.17,.49,2.1,1.18,2.81,2.07v-15h5.01v34.04h-4.05l-.37-2.9h-.18c-.86,.95-1.83,1.76-2.92,2.44-1.09,.67-2.46,1.01-4.12,1.01Zm.64-3.82c.49,0,1.01-.07,1.56-.21,.55-.14,1.1-.33,1.63-.57,.54-.25,1.05-.54,1.54-.9,.49-.35,.9-.76,1.24-1.22v-8.83c-.92-1.13-1.86-1.91-2.81-2.32-.95-.41-1.87-.62-2.76-.62-.98,0-1.83,.19-2.53,.58-.71,.38-1.3,.91-1.77,1.59-.48,.67-.83,1.45-1.06,2.32-.23,.87-.34,1.79-.34,2.74s.11,1.83,.32,2.74c.21,.91,.54,1.7,.97,2.39,.43,.69,.98,1.25,1.66,1.68,.67,.43,1.46,.64,2.35,.64Z"/>
      <path d="M1355.42,875.97c2.7,0,4.78,.68,6.26,2.05,1.47,1.37,2.21,3.29,2.21,5.77,0,.34-.02,.7-.07,1.08-.05,.38-.11,.76-.18,1.13-.08,.37-.17,.7-.28,.99-.11,.29-.22,.53-.35,.71h-13.39c.06,.92,.23,1.79,.51,2.6,.28,.81,.67,1.52,1.2,2.12s1.16,1.07,1.91,1.43c.75,.35,1.63,.53,2.64,.53,1.13,0,2.34-.21,3.61-.64,1.27-.43,2.35-.97,3.24-1.61l.83,3.77c-.4,.25-.89,.51-1.47,.81-.58,.29-1.24,.56-1.98,.8-.74,.25-1.53,.45-2.37,.62-.84,.17-1.72,.25-2.65,.25-1.72,0-3.24-.3-4.55-.9-1.32-.6-2.42-1.41-3.31-2.44-.89-1.03-1.56-2.21-2.02-3.57-.46-1.35-.69-2.76-.69-4.23s.24-2.94,.71-4.3c.47-1.36,1.17-2.57,2.09-3.61,.92-1.04,2.06-1.86,3.43-2.46,1.36-.6,2.92-.9,4.67-.9Zm-.14,3.96c-1.29,0-2.38,.38-3.29,1.13-.91,.75-1.56,1.77-1.96,3.06h8.79c.03-.09,.05-.2,.07-.32,.01-.12,.02-.28,.02-.46,0-.98-.34-1.79-1.01-2.44-.67-.64-1.55-.97-2.62-.97Z"/>
      <path d="M1381.13,881.26c-.31-.25-.78-.44-1.43-.6-.64-.15-1.2-.23-1.66-.23-.61,0-1.12,.15-1.52,.44-.4,.29-.75,.67-1.06,1.15s-.57,1.02-.78,1.63-.41,1.24-.6,1.89v12.28h-5.06v-21.16h3.96l.23,4.42h.18c.31-.64,.63-1.27,.97-1.89,.34-.61,.72-1.16,1.15-1.63,.43-.47,.93-.86,1.5-1.15,.57-.29,1.23-.44,2-.44,1.23,0,2.38,.4,3.45,1.2l-1.33,4.09Z"/>
      <path d="M1402.66,897.82h-5.29v-30.36h5.29v13.25c1.75-1.66,3.31-3.27,4.69-4.83,1.29-1.47,2.45-2.91,3.5-4.3,1.04-1.4,1.95-2.77,2.71-4.12h5.8c-1.35,1.84-2.64,3.53-3.86,5.06s-2.58,3.13-4.05,4.78c-.55,.61-1.12,1.24-1.7,1.89-.58,.64-1.18,1.29-1.79,1.93l13.57,16.7h-6.12l-10.81-13.29-1.93,1.79v11.5Z"/>
      <path d="M1428.92,876.66v13.75c0,1.26,.33,2.22,.99,2.88,.66,.66,1.51,.99,2.55,.99s2.05-.36,2.94-1.08c.89-.72,1.55-1.76,1.98-3.11v-13.43h5.11v21.16h-3.96l-.28-2.94h-.18c-.34,.71-.77,1.28-1.29,1.72-.52,.45-1.1,.8-1.73,1.06-.63,.26-1.28,.44-1.96,.55s-1.33,.16-1.98,.16c-1.01,0-1.96-.12-2.83-.37s-1.64-.65-2.3-1.22c-.66-.57-1.18-1.32-1.56-2.25s-.57-2.09-.57-3.47v-14.4h5.06Z"/>
      <path d="M1460.94,881.26c-.31-.25-.78-.44-1.43-.6-.64-.15-1.2-.23-1.66-.23-.61,0-1.12,.15-1.52,.44-.4,.29-.75,.67-1.06,1.15s-.57,1.02-.78,1.63-.41,1.24-.6,1.89v12.28h-5.06v-21.16h3.96l.23,4.42h.18c.31-.64,.63-1.27,.97-1.89,.34-.61,.72-1.16,1.15-1.63,.43-.47,.93-.86,1.5-1.15,.57-.29,1.23-.44,2-.44,1.23,0,2.38,.4,3.45,1.2l-1.33,4.09Z"/>
      <path d="M1472.48,879.74c-1.01,0-1.8,.19-2.37,.58-.57,.38-.85,.93-.85,1.63,0,.46,.16,.88,.48,1.26,.32,.38,1,.7,2.05,.94l3.27,.74c1.29,.28,2.32,.67,3.11,1.2,.78,.52,1.4,1.09,1.84,1.7,.44,.61,.74,1.24,.9,1.89,.15,.64,.23,1.24,.23,1.79,0,.98-.2,1.89-.6,2.74-.4,.84-.97,1.57-1.7,2.19s-1.63,1.1-2.67,1.45c-1.04,.35-2.21,.53-3.5,.53-1.63,0-3.13-.24-4.51-.71-1.38-.48-2.48-1-3.31-1.59l1.2-4.37c1.04,1.01,2.21,1.76,3.52,2.25,1.3,.49,2.51,.74,3.61,.74,1.17,0,2.05-.25,2.67-.76,.61-.51,.92-1.2,.92-2.09,0-.52-.15-.96-.46-1.31-.31-.35-.92-.65-1.84-.9l-4.42-1.1c-1.04-.25-1.89-.6-2.55-1.06-.66-.46-1.18-.97-1.56-1.54-.38-.57-.64-1.16-.78-1.77-.14-.61-.21-1.2-.21-1.75,0-2.05,.72-3.64,2.16-4.76s3.31-1.68,5.61-1.68c1.2,0,2.48,.16,3.86,.48s2.54,.79,3.5,1.4l-1.33,4.14c-.61-.49-1.47-.99-2.58-1.5s-2.33-.76-3.68-.76Z"/>
    </g>
    <g>
      <path class="cls-8" d="M1412.98,627.09h-2.7v-18.94l-3.46,1.66-.79-2.52,6.95-3.96v23.76Z"/>
      <path class="cls-8" d="M1421.47,615.32c.29-.53,.65-.96,1.08-1.3,.43-.34,.91-.61,1.44-.81,.53-.2,1.08-.35,1.66-.43,.58-.08,1.15-.13,1.73-.13,1.51,0,2.74,.26,3.67,.77,.94,.52,1.66,1.15,2.18,1.89,.52,.75,.87,1.54,1.06,2.39,.19,.85,.29,1.6,.29,2.25,0,.86-.14,1.75-.41,2.65-.28,.9-.72,1.72-1.33,2.45-.61,.73-1.4,1.33-2.38,1.78s-2.14,.68-3.51,.68c-1.51,0-2.79-.26-3.82-.79-1.03-.53-1.87-1.28-2.5-2.27-.64-.98-1.1-2.16-1.39-3.53s-.43-2.9-.43-4.61,.14-3.27,.41-4.84c.28-1.57,.76-2.97,1.44-4.19,.68-1.22,1.6-2.21,2.75-2.97,1.15-.76,2.59-1.13,4.32-1.13,.38,0,.83,.02,1.33,.07,.5,.05,1.02,.14,1.55,.27,.53,.13,1.04,.31,1.53,.54,.49,.23,.92,.51,1.28,.85l-.61,2.38c-.82-.67-1.68-1.13-2.59-1.39-.91-.25-1.73-.38-2.45-.38-1.25,0-2.29,.26-3.11,.77-.83,.52-1.49,1.19-1.98,2.02-.49,.83-.84,1.76-1.04,2.81s-.31,2.08-.31,3.11v.52c0,.16,.01,.33,.04,.52l.11,.04Zm10.3,4.61c0-.65-.08-1.28-.23-1.89-.16-.61-.41-1.15-.76-1.62-.35-.47-.82-.85-1.4-1.13s-1.31-.43-2.18-.43c-1.8,0-3.12,.5-3.96,1.51-.84,1.01-1.26,2.27-1.26,3.78s.43,2.84,1.3,3.78c.86,.94,2.09,1.4,3.67,1.4,1.49,0,2.66-.47,3.53-1.42,.86-.95,1.3-2.27,1.3-3.98Z"/>
      <path class="cls-8" d="M1448.07,603.15c1.54,0,2.9,.32,4.09,.97,1.19,.65,2.19,1.53,3.01,2.65,.82,1.12,1.43,2.41,1.85,3.87,.42,1.46,.63,3,.63,4.61s-.22,3.11-.65,4.59c-.43,1.48-1.06,2.78-1.89,3.92-.83,1.14-1.85,2.05-3.08,2.74-1.22,.68-2.63,1.03-4.21,1.03s-2.92-.32-4.09-.97c-1.17-.65-2.13-1.52-2.9-2.63-.77-1.1-1.35-2.38-1.75-3.83-.4-1.45-.59-2.98-.59-4.59,0-1.7,.22-3.31,.65-4.81,.43-1.5,1.06-2.81,1.87-3.92,.82-1.12,1.82-2,3.01-2.65,1.19-.65,2.54-.97,4.05-.97Zm-.18,22c1.18,0,2.2-.25,3.06-.76s1.57-1.2,2.12-2.09c.55-.89,.96-1.93,1.22-3.11,.26-1.19,.4-2.47,.4-3.83,0-1.46-.14-2.79-.41-4-.28-1.2-.7-2.23-1.26-3.1-.56-.86-1.27-1.54-2.11-2.02s-1.82-.72-2.95-.72-2.14,.23-2.97,.7c-.83,.47-1.5,1.13-2.02,1.98-.52,.85-.89,1.87-1.13,3.04s-.36,2.47-.36,3.89c0,3.31,.56,5.81,1.67,7.49s2.69,2.52,4.73,2.52Z"/>
    </g>
    <rect class="cls-6" x="961.09" y="620.61" width="10" height="222.85"/>
    <rect class="cls-9" x="837.64" y="383.8" width="10" height="149.65"/>
    <rect class="cls-6" x="1165.13" y="282.14" width="10" height="152.32"/>
    <rect class="cls-6" x="1123.83" y="402.88" width="10" height="214.57"/>
    <rect class="cls-9" x="919.13" y="510.45" width="10" height="119"/>
    <rect class="cls-6" x="1206.13" y="286.26" width="10" height="76.2"/>
    <rect class="cls-9" x="1287.06" y="251.29" width="10" height="118.17"/>
    <rect class="cls-6" x="756.13" y="315.7" width="10" height="80.75"/>
    <rect class="cls-6" x="633.13" y="279.16" width="10" height="123.3"/>
    <rect class="cls-6" x="264.77" y="140.82" width="10" height="72.64"/>
    <rect class="cls-9" x="346.77" y="178.7" width="10" height="56.75"/>
    <rect class="cls-9" x="306.13" y="144.45" width="10" height="70"/>
    <rect class="cls-9" x="223.77" y="124.7" width="10" height="78.75"/>
    <rect class="cls-6" x="142.13" y="236.45" width="10" height="50"/>
    <rect class="cls-6" x="101.13" y="260.45" width="10" height="58"/>
    <g>
      <path class="cls-8" d="M1412.39,78.03h-2.7v-18.94l-3.46,1.66-.79-2.52,6.95-3.96v23.76Z"/>
      <path class="cls-8" d="M1429.6,65c1.39,.31,2.47,1.03,3.22,2.16,.76,1.13,1.13,2.5,1.13,4.1,0,1.01-.16,1.95-.47,2.83-.31,.88-.8,1.64-1.46,2.29-.66,.65-1.49,1.16-2.5,1.53-1.01,.37-2.2,.56-3.56,.56-1.44,0-2.66-.2-3.67-.59s-1.82-.92-2.45-1.58c-.62-.66-1.08-1.42-1.37-2.29-.29-.86-.43-1.75-.43-2.66,0-1.58,.38-2.93,1.15-4.03,.77-1.1,1.84-1.86,3.2-2.27v-.14c-.84-.31-1.58-.9-2.21-1.76-.64-.86-.95-1.96-.95-3.28,0-1.73,.59-3.12,1.76-4.18,1.18-1.06,2.84-1.58,5-1.58s3.77,.51,4.97,1.53c1.2,1.02,1.8,2.39,1.8,4.12,0,1.27-.31,2.35-.92,3.22-.61,.88-1.36,1.51-2.25,1.89v.14Zm1.37,6.52c0-.67-.09-1.33-.27-1.96-.18-.64-.47-1.2-.88-1.69-.41-.49-.93-.89-1.57-1.19-.64-.3-1.4-.45-2.29-.45s-1.69,.15-2.32,.45c-.64,.3-1.15,.7-1.55,1.19-.4,.49-.68,1.06-.86,1.69-.18,.64-.27,1.29-.27,1.96,0,1.51,.43,2.68,1.28,3.51,.85,.83,2.09,1.24,3.73,1.24s2.87-.41,3.73-1.24c.85-.83,1.28-2,1.28-3.51Zm-1.15-11.52c0-1.01-.28-1.87-.85-2.57-.56-.71-1.57-1.06-3.01-1.06s-2.41,.34-2.99,1.03c-.58,.68-.86,1.55-.86,2.61,0,1.2,.33,2.18,.99,2.93,.66,.76,1.61,1.13,2.86,1.13s2.2-.38,2.86-1.13,.99-1.73,.99-2.93Z"/>
      <path class="cls-8" d="M1438.81,66.62l1.33-12.53h12.2v2.52h-9.94l-.94,7.67c.74-.17,1.52-.31,2.34-.41,.82-.11,1.57-.16,2.27-.16,1.08,0,2.08,.15,3.01,.45,.92,.3,1.72,.74,2.38,1.31s1.18,1.29,1.55,2.14c.37,.85,.56,1.83,.56,2.93s-.18,2.06-.54,3.02c-.36,.96-.91,1.8-1.64,2.52-.73,.72-1.65,1.3-2.75,1.73-1.1,.43-2.4,.65-3.89,.65-1.39,0-2.68-.2-3.87-.59-1.19-.4-2.24-.94-3.15-1.64l.76-2.52c.89,.7,1.82,1.27,2.81,1.71,.98,.44,2.15,.67,3.49,.67,1.82,0,3.25-.45,4.28-1.35,1.03-.9,1.55-2.21,1.55-3.94,0-.67-.09-1.29-.27-1.85-.18-.56-.49-1.04-.94-1.44-.44-.4-1.03-.7-1.75-.92-.72-.22-1.62-.32-2.7-.32-.84,0-1.7,.07-2.59,.22s-1.73,.37-2.52,.68l-1.04-.54Z"/>
    </g>
    <rect class="cls-6" x="183.13" y="147.27" width="10" height="90.19"/>
    <rect class="cls-6" x="387.66" y="86.75" width="10" height="137.7"/>
    <rect class="cls-9" x="877.6" y="422.79" width="10" height="156.66"/>
    <rect class="cls-9" x="796.6" y="345.79" width="10" height="92.66"/>
    <rect class="cls-6" x="592.28" y="348.26" width="10" height="122.19"/>
    <rect class="cls-6" x="1001.09" y="606.16" width="10" height="167.3"/>
    <rect class="cls-6" x="1246.13" y="260.14" width="10" height="77.31"/>
    <rect class="cls-9" x="468.98" y="153.84" width="10" height="148.61"/>
    <rect class="cls-9" x="428.98" y="86.84" width="10" height="101.61"/>
    <rect class="cls-9" x="509.98" y="275.92" width="10" height="103.54"/>
    <rect class="cls-9" x="550.98" y="304.98" width="10" height="89.47"/>
    <rect class="cls-9" x="673.98" y="231.02" width="10" height="69.44"/>
    <rect class="cls-9" x="714.98" y="243.02" width="10" height="132.44"/>
    <rect class="cls-9" x="1042.13" y="563.45" width="10" height="119"/>
    <rect class="cls-9" x="1083.13" y="577.45" width="10" height="119"/>
    <rect class="cls-6" x="1328.81" y="307.52" width="10" height="97.93"/>
    <rect class="cls-9" x="1369.81" y="310.09" width="10" height="88.36"/>
    <g>
      <path class="cls-8" d="M1413.22,311.56h-2.7v-18.94l-3.46,1.66-.79-2.52,6.95-3.96v23.76Z"/>
      <path class="cls-8" d="M1419.66,311.56c-.02-.22-.04-.45-.04-.7v-.7c0-1.51,.32-3.17,.95-4.97,.64-1.8,1.45-3.61,2.43-5.42,.98-1.81,2.08-3.55,3.29-5.22,1.21-1.67,2.38-3.14,3.51-4.41h-11.59v-2.52h14.58v2.52c-1.2,1.2-2.4,2.66-3.6,4.37-1.2,1.72-2.28,3.51-3.24,5.38s-1.73,3.71-2.32,5.51c-.59,1.8-.88,3.37-.88,4.72v.76c0,.24,.01,.47,.04,.68h-3.13Z"/>
      <path class="cls-8" d="M1436.01,300.15l1.33-12.53h12.2v2.52h-9.94l-.94,7.67c.74-.17,1.52-.31,2.34-.41,.82-.11,1.57-.16,2.27-.16,1.08,0,2.08,.15,3.01,.45,.92,.3,1.72,.74,2.38,1.31s1.18,1.29,1.55,2.14c.37,.85,.56,1.83,.56,2.93s-.18,2.06-.54,3.02c-.36,.96-.91,1.8-1.64,2.52-.73,.72-1.65,1.3-2.75,1.73-1.1,.43-2.4,.65-3.89,.65-1.39,0-2.68-.2-3.87-.59-1.19-.4-2.24-.94-3.15-1.64l.76-2.52c.89,.7,1.82,1.27,2.81,1.71,.98,.44,2.15,.67,3.49,.67,1.82,0,3.25-.45,4.28-1.35,1.03-.9,1.55-2.21,1.55-3.94,0-.67-.09-1.29-.27-1.85-.18-.56-.49-1.04-.94-1.44-.44-.4-1.03-.7-1.75-.92-.72-.22-1.62-.32-2.7-.32-.84,0-1.7,.07-2.59,.22s-1.73,.37-2.52,.68l-1.04-.54Z"/>
    </g>
    <g>
      <path class="cls-8" d="M1414.22,528.09h-2.7v-18.94l-3.46,1.66-.79-2.52,6.95-3.96v23.76Z"/>
      <path class="cls-8" d="M1422.72,516.32c.29-.53,.65-.96,1.08-1.3,.43-.34,.91-.61,1.44-.81,.53-.2,1.08-.35,1.66-.43,.58-.08,1.15-.13,1.73-.13,1.51,0,2.74,.26,3.67,.77,.94,.52,1.66,1.15,2.18,1.89,.52,.75,.87,1.54,1.06,2.39,.19,.85,.29,1.6,.29,2.25,0,.86-.14,1.75-.41,2.65-.28,.9-.72,1.72-1.33,2.45-.61,.73-1.4,1.33-2.38,1.78s-2.14,.68-3.51,.68c-1.51,0-2.79-.26-3.82-.79-1.03-.53-1.87-1.28-2.5-2.27-.64-.98-1.1-2.16-1.39-3.53s-.43-2.9-.43-4.61,.14-3.27,.41-4.84c.28-1.57,.76-2.97,1.44-4.19,.68-1.22,1.6-2.21,2.75-2.97,1.15-.76,2.59-1.13,4.32-1.13,.38,0,.83,.02,1.33,.07,.5,.05,1.02,.14,1.55,.27,.53,.13,1.04,.31,1.53,.54,.49,.23,.92,.51,1.28,.85l-.61,2.38c-.82-.67-1.68-1.13-2.59-1.39-.91-.25-1.73-.38-2.45-.38-1.25,0-2.29,.26-3.11,.77-.83,.52-1.49,1.19-1.98,2.02-.49,.83-.84,1.76-1.04,2.81s-.31,2.08-.31,3.11v.52c0,.16,.01,.33,.04,.52l.11,.04Zm10.3,4.61c0-.65-.08-1.28-.23-1.89-.16-.61-.41-1.15-.76-1.62-.35-.47-.82-.85-1.4-1.13s-1.31-.43-2.18-.43c-1.8,0-3.12,.5-3.96,1.51-.84,1.01-1.26,2.27-1.26,3.78s.43,2.84,1.3,3.78c.86,.94,2.09,1.4,3.67,1.4,1.49,0,2.66-.47,3.53-1.42,.86-.95,1.3-2.27,1.3-3.98Z"/>
      <path class="cls-8" d="M1440.39,516.68l1.33-12.53h12.2v2.52h-9.94l-.94,7.67c.74-.17,1.52-.31,2.34-.41,.82-.11,1.57-.16,2.27-.16,1.08,0,2.08,.15,3.01,.45,.92,.3,1.72,.74,2.38,1.31,.66,.58,1.18,1.29,1.55,2.14,.37,.85,.56,1.83,.56,2.93s-.18,2.06-.54,3.02c-.36,.96-.91,1.8-1.64,2.52-.73,.72-1.65,1.3-2.75,1.73-1.1,.43-2.4,.65-3.89,.65-1.39,0-2.68-.2-3.87-.59-1.19-.4-2.24-.94-3.15-1.64l.76-2.52c.89,.7,1.82,1.27,2.81,1.71,.98,.44,2.15,.67,3.49,.67,1.82,0,3.25-.45,4.28-1.35,1.03-.9,1.55-2.21,1.55-3.94,0-.67-.09-1.29-.27-1.85-.18-.56-.49-1.04-.94-1.44-.44-.4-1.03-.7-1.75-.92s-1.62-.32-2.7-.32c-.84,0-1.7,.07-2.59,.22-.89,.14-1.73,.37-2.52,.68l-1.04-.54Z"/>
    </g>
    <rect class="cls-10" x="1386.13" y="382.92" width="114" height="46"/>
    <g>
      <path class="cls-5" d="M1414.67,419.09h-4.14v-17.5l-2.92,1.3-.79-3.6,7.85-3.96v23.76Z"/>
      <path class="cls-5" d="M1420.61,419.09c-.02-.22-.04-.45-.04-.7v-.7c0-1.42,.28-2.97,.85-4.66,.56-1.69,1.29-3.38,2.18-5.08,.89-1.69,1.87-3.32,2.93-4.9,1.07-1.57,2.11-2.95,3.11-4.12h-10.48v-3.78h14.58v3.78c-1.03,1.13-2.06,2.5-3.1,4.12-1.03,1.62-1.96,3.31-2.77,5.06-.82,1.75-1.48,3.47-1.98,5.15-.5,1.68-.76,3.14-.76,4.39v.76c0,.24,.01,.47,.04,.68h-4.57Z"/>
      <path class="cls-5" d="M1445.74,395.15c1.54,0,2.9,.33,4.09,.99,1.19,.66,2.19,1.54,3.01,2.65,.82,1.1,1.43,2.38,1.85,3.83s.63,2.98,.63,4.59-.22,3.15-.65,4.63c-.43,1.48-1.06,2.78-1.89,3.92-.83,1.14-1.85,2.05-3.08,2.74-1.22,.68-2.63,1.03-4.21,1.03s-2.92-.32-4.09-.97c-1.17-.65-2.13-1.52-2.9-2.63-.77-1.1-1.35-2.38-1.75-3.83-.4-1.45-.59-2.98-.59-4.59,0-1.7,.22-3.31,.65-4.81,.43-1.5,1.06-2.81,1.87-3.92,.82-1.12,1.82-2,3.01-2.65,1.19-.65,2.54-.97,4.05-.97Zm-.11,20.92c.91,0,1.7-.22,2.36-.67,.66-.44,1.21-1.06,1.64-1.85s.76-1.73,.97-2.81c.22-1.08,.32-2.24,.32-3.49s-.11-2.44-.32-3.49c-.22-1.06-.55-1.97-.99-2.74-.44-.77-1-1.36-1.67-1.78s-1.45-.63-2.34-.63-1.65,.21-2.29,.63-1.15,1.01-1.55,1.76c-.4,.76-.69,1.67-.88,2.74-.19,1.07-.29,2.24-.29,3.51,0,2.9,.44,5.1,1.31,6.59,.88,1.49,2.12,2.23,3.73,2.23Z"/>
      <path class="cls-5" d="M1458.59,416.97c0-.34,.07-.66,.2-.97s.32-.59,.56-.85c.24-.25,.51-.45,.81-.59,.3-.14,.63-.22,.99-.22,.34,0,.66,.07,.97,.22,.31,.14,.59,.34,.85,.59s.45,.54,.59,.85c.14,.31,.22,.64,.22,.97,0,.36-.07,.69-.22,.99-.14,.3-.34,.57-.59,.81-.25,.24-.53,.43-.85,.56-.31,.13-.64,.2-.97,.2-.7,0-1.3-.25-1.8-.76-.5-.5-.76-1.1-.76-1.8Z"/>
      <path class="cls-5" d="M1471.73,407.18c.41-.86,1.04-1.5,1.89-1.91,.85-.41,1.85-.61,3.01-.61,1.37,0,2.5,.25,3.38,.76s1.6,1.13,2.12,1.87c.53,.74,.89,1.54,1.1,2.39,.2,.85,.31,1.64,.31,2.36,0,.86-.14,1.74-.41,2.63-.28,.89-.72,1.69-1.33,2.41-.61,.72-1.41,1.31-2.39,1.76s-2.17,.68-3.56,.68c-1.49,0-2.74-.27-3.76-.81-1.02-.54-1.85-1.3-2.48-2.29-.64-.98-1.1-2.17-1.39-3.55s-.43-2.91-.43-4.59,.14-3.23,.41-4.81c.28-1.57,.76-2.97,1.44-4.19,.68-1.22,1.6-2.21,2.74-2.97,1.14-.76,2.56-1.13,4.27-1.13,.43,0,.91,.03,1.44,.09,.53,.06,1.06,.16,1.6,.31,.54,.14,1.06,.34,1.57,.58,.5,.24,.94,.54,1.3,.9l-.9,3.17c-.79-.6-1.63-1.02-2.52-1.26-.89-.24-1.67-.36-2.34-.36-1.01,0-1.85,.22-2.52,.67-.67,.44-1.21,1.03-1.6,1.75-.4,.72-.67,1.52-.83,2.41-.16,.89-.23,1.78-.23,2.66v.52c0,.16,.01,.33,.04,.52l.11,.04Zm7.56,4.72c0-.5-.05-1-.14-1.48s-.27-.91-.52-1.28-.59-.67-1.01-.88c-.42-.22-.94-.32-1.57-.32-1.22,0-2.14,.4-2.75,1.19s-.92,1.8-.92,3.02,.31,2.24,.94,2.99,1.48,1.12,2.56,1.12,1.92-.38,2.52-1.15c.6-.77,.9-1.84,.9-3.2Z"/>
    </g>
    <line class="cls-4" x1="2.37" y1="407.85" x2="1392.86" y2="407.85"/>
    <rect class="cls-7" x="1382.4" y="204.7" width="117.73" height="46"/>
    <g>
      <path class="cls-5" d="M1414.3,240.09h-4.14v-17.5l-2.92,1.3-.79-3.6,7.85-3.96v23.76Z"/>
      <path class="cls-5" d="M1420.24,240.09c-.02-.22-.04-.45-.04-.7v-.7c0-1.42,.28-2.97,.85-4.66,.56-1.69,1.29-3.38,2.18-5.08,.89-1.69,1.87-3.32,2.93-4.9,1.07-1.57,2.11-2.95,3.11-4.12h-10.48v-3.78h14.58v3.78c-1.03,1.13-2.06,2.5-3.1,4.12-1.03,1.62-1.96,3.31-2.77,5.06-.82,1.75-1.48,3.47-1.98,5.15-.5,1.68-.76,3.14-.76,4.39v.76c0,.24,.01,.47,.04,.68h-4.57Z"/>
      <path class="cls-5" d="M1436.69,240.09c-.02-.22-.04-.45-.04-.7v-.7c0-1.42,.28-2.97,.85-4.66,.56-1.69,1.29-3.38,2.18-5.08,.89-1.69,1.87-3.32,2.93-4.9,1.07-1.57,2.11-2.95,3.11-4.12h-10.48v-3.78h14.58v3.78c-1.03,1.13-2.06,2.5-3.1,4.12-1.03,1.62-1.96,3.31-2.77,5.06-.82,1.75-1.48,3.47-1.98,5.15-.5,1.68-.76,3.14-.76,4.39v.76c0,.24,.01,.47,.04,.68h-4.57Z"/>
      <path class="cls-5" d="M1450.11,237.97c0-.34,.07-.66,.2-.97s.32-.59,.56-.85c.24-.25,.51-.45,.81-.59,.3-.14,.63-.22,.99-.22,.34,0,.66,.07,.97,.22,.31,.14,.59,.34,.85,.59s.45,.54,.59,.85c.14,.31,.22,.64,.22,.97,0,.36-.07,.69-.22,.99-.14,.3-.34,.57-.59,.81-.25,.24-.53,.43-.85,.56-.31,.13-.64,.2-.97,.2-.7,0-1.3-.25-1.8-.76-.5-.5-.76-1.1-.76-1.8Z"/>
      <path class="cls-5" d="M1459.8,218.06c.91-.55,1.96-1.01,3.15-1.37,1.19-.36,2.37-.54,3.55-.54,1.01,0,1.93,.14,2.77,.43,.84,.29,1.57,.69,2.18,1.21,.61,.52,1.09,1.13,1.42,1.85,.34,.72,.5,1.51,.5,2.38,0,1.27-.32,2.31-.97,3.11-.65,.8-1.46,1.48-2.45,2.03,1.44,.48,2.56,1.2,3.37,2.16,.8,.96,1.21,2.22,1.21,3.78,0,1.01-.18,1.96-.54,2.86s-.91,1.69-1.66,2.36-1.67,1.21-2.77,1.6c-1.1,.4-2.39,.59-3.85,.59-2.98,0-5.42-.82-7.34-2.45l1.01-3.28c.84,.7,1.78,1.25,2.81,1.66,1.03,.41,2.14,.61,3.31,.61,1.51,0,2.66-.35,3.44-1.06,.78-.71,1.17-1.75,1.17-3.11,0-1.22-.35-2.19-1.06-2.9s-1.89-1.06-3.55-1.06h-.97v-3.13h1.12c1.06,0,1.87-.34,2.45-1.01s.86-1.56,.86-2.66c0-.98-.3-1.67-.9-2.07-.6-.4-1.32-.59-2.16-.59-.46,0-.93,.05-1.42,.14-.49,.1-.97,.23-1.42,.41-.46,.18-.88,.38-1.28,.61-.4,.23-.74,.47-1.03,.74l-.94-3.31Z"/>
    </g>
    <line class="cls-3" y1="228.62" x2="1390.49" y2="228.62"/>
    <g>
      <path class="cls-8" d="M1412.59,751.09h-2.7v-18.94l-3.46,1.66-.79-2.52,6.95-3.96v23.76Z"/>
      <path class="cls-8" d="M1418.92,739.68l1.33-12.53h12.2v2.52h-9.94l-.94,7.67c.74-.17,1.52-.31,2.34-.41,.82-.11,1.57-.16,2.27-.16,1.08,0,2.08,.15,3.01,.45,.92,.3,1.72,.74,2.38,1.31,.66,.58,1.18,1.29,1.55,2.14,.37,.85,.56,1.83,.56,2.93s-.18,2.06-.54,3.02c-.36,.96-.91,1.8-1.64,2.52-.73,.72-1.65,1.3-2.75,1.73-1.1,.43-2.4,.65-3.89,.65-1.39,0-2.68-.2-3.87-.59-1.19-.4-2.24-.94-3.15-1.64l.76-2.52c.89,.7,1.82,1.27,2.81,1.71,.98,.44,2.15,.67,3.49,.67,1.82,0,3.25-.45,4.28-1.35,1.03-.9,1.55-2.21,1.55-3.94,0-.67-.09-1.29-.27-1.85-.18-.56-.49-1.04-.94-1.44-.44-.4-1.03-.7-1.75-.92s-1.62-.32-2.7-.32c-.84,0-1.7,.07-2.59,.22-.89,.14-1.73,.37-2.52,.68l-1.04-.54Z"/>
      <path class="cls-8" d="M1438.29,739.68l1.33-12.53h12.2v2.52h-9.94l-.94,7.67c.74-.17,1.52-.31,2.34-.41,.82-.11,1.57-.16,2.27-.16,1.08,0,2.08,.15,3.01,.45,.92,.3,1.72,.74,2.38,1.31,.66,.58,1.18,1.29,1.55,2.14,.37,.85,.56,1.83,.56,2.93s-.18,2.06-.54,3.02c-.36,.96-.91,1.8-1.64,2.52-.73,.72-1.65,1.3-2.75,1.73-1.1,.43-2.4,.65-3.89,.65-1.39,0-2.68-.2-3.87-.59-1.19-.4-2.24-.94-3.15-1.64l.76-2.52c.89,.7,1.82,1.27,2.81,1.71,.98,.44,2.15,.67,3.49,.67,1.82,0,3.25-.45,4.28-1.35,1.03-.9,1.55-2.21,1.55-3.94,0-.67-.09-1.29-.27-1.85-.18-.56-.49-1.04-.94-1.44-.44-.4-1.03-.7-1.75-.92s-1.62-.32-2.7-.32c-.84,0-1.7,.07-2.59,.22-.89,.14-1.73,.37-2.52,.68l-1.04-.54Z"/>
    </g>
    <g>
      <path d="M575.43,621.44l-5.75-.02-3.43-8.84-11.45-.03-3.15,8.82h-5.52s11.86-30.34,11.86-30.34h4.55s12.89,30.41,12.89,30.41Zm-19.15-13.02l8.33,.02-4.34-11.19-3.99,11.17Z"/>
      <path d="M582.8,600.3l-.04,13.75c0,1.26,.32,2.22,.98,2.88,.66,.66,1.51,.99,2.55,1,1.07,0,2.06-.35,2.95-1.07,.89-.72,1.55-1.75,1.99-3.1l.04-13.43h5.11s-.06,21.17-.06,21.17h-3.96s-.27-2.96-.27-2.96h-.18c-.34,.7-.77,1.28-1.29,1.72-.52,.44-1.1,.79-1.73,1.05s-1.28,.44-1.96,.55c-.68,.11-1.33,.16-1.98,.16-1.01,0-1.95-.13-2.83-.38-.87-.25-1.64-.66-2.3-1.23-.66-.57-1.18-1.32-1.56-2.26-.38-.94-.57-2.09-.57-3.47l.04-14.4h5.06Z"/>
      <path d="M609.15,603.45c-1.01,0-1.8,.19-2.37,.57-.57,.38-.85,.93-.86,1.63,0,.46,.16,.88,.48,1.27,.32,.38,1,.7,2.04,.95l3.26,.75c1.29,.28,2.32,.68,3.1,1.2s1.39,1.09,1.83,1.71c.44,.61,.74,1.24,.89,1.89,.15,.64,.23,1.24,.22,1.79,0,.98-.2,1.89-.6,2.74-.4,.84-.97,1.57-1.71,2.18-.74,.61-1.63,1.09-2.67,1.44-1.04,.35-2.21,.52-3.5,.52-1.63,0-3.13-.25-4.51-.72-1.38-.48-2.48-1.01-3.31-1.6l1.21-4.37c1.04,1.01,2.21,1.77,3.51,2.26s2.5,.74,3.61,.75c1.17,0,2.06-.25,2.67-.75,.62-.5,.92-1.2,.93-2.09,0-.52-.15-.96-.46-1.31-.31-.35-.92-.65-1.84-.9l-4.41-1.12c-1.04-.25-1.89-.6-2.55-1.07-.66-.46-1.18-.98-1.56-1.54-.38-.57-.64-1.16-.78-1.77-.14-.61-.2-1.2-.2-1.75,0-2.05,.73-3.64,2.17-4.75,1.44-1.12,3.32-1.67,5.62-1.66,1.2,0,2.48,.17,3.86,.49,1.38,.33,2.54,.8,3.49,1.41l-1.35,4.14c-.61-.49-1.47-.99-2.57-1.5-1.1-.51-2.33-.77-3.68-.77Z"/>
      <path d="M623.64,603.49h-2.62s0-2.63,0-2.63l2.62-.41c0-1.75,.06-3.24,.17-4.46,.11-1.23,.26-2.26,.45-3.1,.19-.84,.39-1.52,.63-2.04s.47-.95,.72-1.29c.62-.8,1.42-1.37,2.42-1.72,1-.35,2.09-.52,3.29-.52,.15,0,.4,0,.74,0s.71,.03,1.13,.1c.41,.07,.84,.17,1.29,.32,.44,.15,.85,.33,1.22,.56l-1.16,3.91c-.31-.18-.81-.44-1.51-.76-.71-.32-1.4-.49-2.07-.49-.4,0-.74,.09-1.01,.27-.28,.18-.51,.52-.69,1.01-.18,.49-.32,1.15-.4,1.98-.08,.83-.12,1.89-.12,3.17v3.04s4.04,.01,4.04,.01v3.08s-4.06-.01-4.06-.01l-.05,18.08h-5.06s.05-18.09,.05-18.09Z"/>
      <path d="M641.77,600.45l-.04,13.75c0,1.26,.32,2.22,.98,2.88,.66,.66,1.51,.99,2.55,1,1.07,0,2.06-.35,2.95-1.07,.89-.72,1.55-1.75,1.99-3.1l.04-13.43h5.11s-.06,21.17-.06,21.17h-3.96s-.27-2.96-.27-2.96h-.18c-.34,.7-.77,1.28-1.29,1.72-.52,.44-1.1,.79-1.73,1.05s-1.28,.44-1.96,.55c-.68,.11-1.33,.16-1.98,.16-1.01,0-1.95-.13-2.83-.38-.87-.25-1.64-.66-2.29-1.23-.66-.57-1.18-1.32-1.56-2.26-.38-.94-.57-2.09-.57-3.47l.04-14.4h5.06Zm-1.73-6.98c0-.71,.26-1.33,.79-1.88,.52-.55,1.14-.83,1.84-.82,.71,0,1.33,.28,1.88,.83,.55,.55,.83,1.18,.82,1.89s-.28,1.32-.83,1.84c-.55,.52-1.18,.78-1.89,.78-.71,0-1.32-.26-1.84-.79-.52-.52-.78-1.14-.78-1.84Zm6.25,.02c0-.71,.26-1.33,.79-1.88,.52-.55,1.14-.83,1.84-.82s1.33,.28,1.88,.83c.55,.55,.82,1.18,.82,1.89,0,.71-.28,1.32-.83,1.84-.55,.52-1.18,.78-1.89,.78s-1.32-.26-1.84-.79-.78-1.14-.78-1.84Z"/>
      <path d="M666.74,603.65c.86-1.35,1.87-2.32,3.02-2.91,1.15-.59,2.51-.89,4.07-.89,.92,0,1.81,.14,2.67,.4,.86,.26,1.62,.69,2.27,1.27,.66,.58,1.18,1.35,1.56,2.3,.38,.95,.57,2.12,.57,3.5l-.04,14.4h-5.06s.04-14,.04-14c0-1.26-.27-2.2-.82-2.83-.55-.63-1.3-.95-2.25-.95-.58,0-1.19,.09-1.82,.27-.63,.18-1.22,.46-1.77,.82-.55,.37-1.05,.81-1.48,1.33-.43,.52-.75,1.1-.97,1.75l-.04,13.57h-5.06s.09-34.05,.09-34.05h5.06s-.04,16.02-.04,16.02Z"/>
      <path d="M699.17,605.21c-.31-.25-.78-.45-1.42-.6s-1.19-.23-1.65-.23c-.61,0-1.12,.14-1.52,.43-.4,.29-.75,.67-1.06,1.15-.31,.47-.57,1.02-.79,1.63-.22,.61-.42,1.24-.6,1.88l-.03,12.28h-5.06s.06-21.17,.06-21.17h3.96s.22,4.43,.22,4.43h.18c.31-.64,.63-1.27,.97-1.88,.34-.61,.72-1.16,1.15-1.63,.43-.47,.93-.86,1.5-1.15,.57-.29,1.23-.43,2-.43,1.23,0,2.38,.41,3.45,1.21l-1.34,4.09Z"/>
      <path d="M709.16,600.63l-.04,13.75c0,1.26,.32,2.22,.98,2.88,.66,.66,1.51,.99,2.55,1,1.07,0,2.06-.35,2.95-1.07,.89-.72,1.55-1.75,1.99-3.1l.04-13.43h5.11s-.06,21.17-.06,21.17h-3.96s-.27-2.96-.27-2.96h-.18c-.34,.7-.77,1.28-1.29,1.72-.52,.44-1.1,.79-1.73,1.05s-1.28,.44-1.96,.55c-.68,.11-1.33,.16-1.98,.16-1.01,0-1.95-.13-2.83-.38-.87-.25-1.64-.66-2.3-1.23-.66-.57-1.18-1.32-1.56-2.26-.38-.94-.57-2.09-.57-3.47l.04-14.4h5.06Z"/>
      <path d="M743.19,621.88l.04-13.98c0-2.51-1.06-3.77-3.21-3.78-.52,0-1.08,.09-1.68,.27-.6,.18-1.17,.45-1.73,.8-.55,.35-1.05,.79-1.5,1.31-.45,.52-.78,1.12-.99,1.79l-.04,13.57h-5.06s.06-21.17,.06-21.17h3.96s.22,3.14,.22,3.14h.18c.65-1.29,1.65-2.24,3.02-2.87,1.37-.62,2.83-.93,4.4-.93,1.01,0,1.96,.14,2.85,.4,.89,.26,1.68,.69,2.37,1.27,.69,.58,1.23,1.35,1.63,2.3,.4,.95,.59,2.12,.59,3.5l-.04,14.4h-5.06Z"/>
      <path d="M757.01,615.25c-1.38-.58-2.37-1.49-2.98-2.72-.61-1.23-.91-2.56-.91-4,0-1.2,.21-2.31,.61-3.36,.4-1.04,.98-1.94,1.73-2.69,.75-.75,1.66-1.34,2.72-1.76,1.06-.43,2.26-.64,3.61-.63,.8,0,1.59,.08,2.37,.23,.78,.15,1.46,.38,2.04,.68,1.29,0,2.46-.08,3.52-.25,1.06-.17,2.08-.39,3.06-.67l.41,.32-.52,3.49-.23,.23-3.26-.38-.05,.14c1.04,1.32,1.56,2.87,1.55,4.65,0,1.07-.2,2.08-.58,3.01-.39,.93-.95,1.75-1.69,2.43-.74,.69-1.65,1.24-2.74,1.65-1.09,.41-2.33,.62-3.71,.61-.34,0-.61,0-.8-.03-.2-.02-.39-.02-.57-.02-.52,.18-.92,.42-1.2,.71-.28,.29-.42,.59-.42,.9,0,.34,.17,.63,.5,.88,.34,.25,.86,.42,1.56,.51l4.46,.56c1.01,.12,1.95,.34,2.83,.65s1.64,.72,2.3,1.25c.66,.52,1.17,1.15,1.54,1.89,.37,.74,.55,1.58,.54,2.53,0,.95-.21,1.87-.61,2.76-.4,.89-1.03,1.67-1.89,2.34-.86,.67-1.94,1.21-3.25,1.6-1.3,.39-2.88,.59-4.72,.59-1.62,0-3.06-.17-4.3-.5s-2.29-.76-3.15-1.32c-.86-.55-1.51-1.21-1.95-1.96-.44-.75-.66-1.56-.66-2.42,0-.61,.11-1.22,.33-1.82,.22-.6,.52-1.15,.9-1.65,.38-.5,.83-.96,1.34-1.35,.51-.4,1.05-.69,1.63-.87v-.18c-.71-.31-1.19-.72-1.47-1.25-.28-.52-.41-1.03-.41-1.52,0-.64,.22-1.24,.65-1.79,.43-.55,1.05-.98,1.84-1.28v-.18Zm3.47,7.69c-1.04,.18-1.93,.62-2.67,1.3-.74,.69-1.11,1.48-1.11,2.37,0,.98,.48,1.72,1.44,2.21,.96,.49,2.37,.74,4.21,.75,1.81,0,3.25-.25,4.33-.75s1.61-1.32,1.62-2.46c0-1.1-.59-1.89-1.79-2.35s-3.2-.82-6.02-1.07Zm1.45-10.25c1.26,0,2.21-.4,2.86-1.21,.65-.81,.97-1.8,.97-2.96,0-.55-.07-1.11-.23-1.68-.15-.57-.4-1.08-.73-1.54-.34-.46-.76-.84-1.26-1.13-.51-.29-1.1-.44-1.77-.44-.64,0-1.21,.13-1.7,.39-.49,.26-.9,.6-1.22,1.03-.32,.43-.56,.91-.72,1.45-.16,.54-.23,1.08-.24,1.63,0,.55,.08,1.1,.25,1.63,.17,.54,.42,1.01,.75,1.43,.34,.42,.76,.75,1.26,1.01,.51,.26,1.1,.39,1.77,.4Z"/>
      <path d="M424.9,645.87h5.75s9.6,23.96,9.6,23.96l8.8-23.9h5.52s-12.23,30.34-12.23,30.34h-4.19s-13.26-30.41-13.26-30.41Z"/>
      <path d="M464.85,654.49c2.7,0,4.78,.7,6.25,2.06,1.47,1.37,2.2,3.29,2.19,5.78,0,.34-.02,.7-.07,1.08-.05,.38-.11,.76-.19,1.13-.08,.37-.17,.7-.28,.99-.11,.29-.22,.53-.35,.71l-13.39-.04c.06,.92,.23,1.79,.5,2.6,.27,.81,.67,1.52,1.19,2.12,.52,.6,1.15,1.08,1.91,1.43,.75,.35,1.63,.53,2.64,.54,1.13,0,2.34-.21,3.61-.63,1.27-.42,2.36-.96,3.25-1.6l.82,3.77c-.4,.25-.89,.51-1.47,.8-.58,.29-1.24,.56-1.98,.8-.74,.24-1.53,.45-2.37,.61-.84,.17-1.73,.25-2.65,.25-1.72,0-3.24-.31-4.55-.91-1.32-.6-2.42-1.42-3.31-2.45-.89-1.03-1.56-2.22-2.01-3.57-.46-1.35-.68-2.76-.68-4.23,0-1.5,.24-2.93,.72-4.3,.48-1.36,1.18-2.56,2.1-3.61,.92-1.04,2.07-1.86,3.43-2.45,1.37-.59,2.92-.89,4.67-.88Zm-.15,3.96c-1.29,0-2.39,.37-3.29,1.12-.91,.75-1.56,1.77-1.96,3.05l8.79,.02c.03-.09,.05-.2,.07-.32,.01-.12,.02-.28,.02-.46,0-.98-.33-1.79-1.01-2.44-.67-.65-1.55-.97-2.62-.97Z"/>
      <path d="M490.55,659.85c-.31-.25-.78-.45-1.42-.6-.64-.15-1.2-.23-1.66-.23-.61,0-1.12,.14-1.52,.43-.4,.29-.75,.67-1.06,1.15-.31,.48-.57,1.02-.79,1.63-.22,.61-.42,1.24-.6,1.88l-.03,12.28h-5.06s.06-21.17,.06-21.17h3.96s.22,4.43,.22,4.43h.18c.31-.64,.63-1.27,.97-1.88,.34-.61,.72-1.16,1.15-1.63,.43-.47,.93-.86,1.5-1.15,.57-.29,1.24-.43,2-.43,1.23,0,2.38,.41,3.45,1.21l-1.34,4.09Z"/>
      <path d="M505.86,662.74l8.98,13.73h-5.52s-6.83-10.43-6.83-10.43l-1.8,1.79-.02,8.6h-5.06s.09-34.05,.09-34.05h5.06s-.05,19.66-.05,19.66l7.06-6.74,5.66,.02-7.56,7.43Z"/>
      <path d="M530.99,676.52l-.36-2.9h-.18c-.83,1.04-1.96,1.87-3.39,2.5-1.43,.62-2.88,.93-4.35,.93-1.93,0-3.45-.57-4.55-1.69-1.1-1.12-1.65-2.6-1.64-4.44,0-1.26,.27-2.38,.81-3.38,.54-1,1.32-1.84,2.33-2.52,1.01-.69,2.23-1.21,3.64-1.58,1.41-.36,2.99-.54,4.74-.54h1.98s0-.68,0-.68c0-1.2-.38-2.07-1.14-2.62-.8-.55-2.04-.83-3.72-.84-2.27,0-4.29,.49-6.08,1.5l-.96-3.82c2.06-1.19,4.54-1.78,7.46-1.77,3.07,0,5.4,.64,6.99,1.9,.73,.58,1.34,1.34,1.81,2.26,.47,.92,.71,2.03,.7,3.31l-.04,14.4h-4.05Zm-6.29-3.57c.98,0,1.96-.23,2.95-.71,.98-.47,1.77-1.11,2.35-1.9v-4.19s-.86,0-.86,0c-2.51,0-4.35,.31-5.5,.95-1.15,.64-1.73,1.67-1.73,3.08,0,1.84,.93,2.76,2.8,2.77Z"/>
      <path d="M546.08,655.4l-.04,13.75c0,1.26,.32,2.22,.98,2.88,.66,.66,1.51,.99,2.55,1,1.07,0,2.06-.35,2.95-1.07,.89-.72,1.55-1.75,1.99-3.1l.04-13.43h5.11s-.06,21.17-.06,21.17h-3.96s-.27-2.96-.27-2.96h-.18c-.34,.7-.77,1.28-1.29,1.72-.52,.44-1.1,.79-1.73,1.05-.63,.26-1.28,.44-1.96,.55s-1.33,.16-1.98,.16c-1.01,0-1.96-.13-2.83-.38-.87-.25-1.64-.66-2.3-1.23-.66-.57-1.18-1.32-1.56-2.26-.38-.94-.57-2.09-.57-3.47l.04-14.4h5.06Z"/>
      <path d="M567.01,658.53h-2.62s0-2.63,0-2.63l2.62-.41c0-1.75,.06-3.24,.17-4.46,.11-1.23,.26-2.26,.45-3.1,.19-.84,.39-1.52,.63-2.04,.23-.52,.47-.95,.72-1.29,.62-.79,1.42-1.37,2.42-1.72,1-.35,2.09-.52,3.29-.52,.15,0,.4,0,.74,0s.71,.03,1.13,.1c.41,.07,.84,.17,1.29,.32,.44,.15,.85,.33,1.22,.56l-1.16,3.91c-.31-.19-.81-.44-1.52-.76-.71-.32-1.4-.49-2.07-.49-.4,0-.74,.09-1.01,.27-.28,.18-.51,.52-.69,1.01-.18,.49-.32,1.15-.4,1.98-.08,.83-.12,1.89-.12,3.17v3.04s4.04,.01,4.04,.01v3.08s-4.06-.01-4.06-.01l-.05,18.08h-5.06s.05-18.09,.05-18.09Z"/>
      <path d="M589.6,654.82c2.7,0,4.78,.7,6.25,2.06,1.47,1.37,2.2,3.29,2.19,5.78,0,.34-.03,.7-.07,1.08-.05,.38-.11,.76-.19,1.13-.08,.37-.17,.7-.28,.99-.11,.29-.22,.53-.35,.71l-13.39-.04c.06,.92,.22,1.79,.5,2.6s.67,1.52,1.19,2.12c.52,.6,1.15,1.08,1.9,1.43,.75,.36,1.63,.53,2.64,.54,1.13,0,2.34-.21,3.61-.63,1.27-.42,2.35-.96,3.25-1.6l.82,3.77c-.4,.24-.89,.51-1.47,.8-.58,.29-1.24,.56-1.98,.8-.74,.24-1.53,.45-2.37,.61-.84,.17-1.73,.25-2.65,.25-1.72,0-3.23-.31-4.55-.91s-2.42-1.42-3.31-2.45c-.89-1.03-1.56-2.22-2.01-3.57-.46-1.35-.68-2.76-.68-4.23,0-1.5,.25-2.94,.72-4.3s1.18-2.57,2.1-3.61,2.07-1.86,3.43-2.45c1.37-.59,2.92-.89,4.67-.88Zm-.15,3.96c-1.29,0-2.39,.37-3.29,1.12-.91,.75-1.56,1.77-1.96,3.05l8.79,.02c.03-.09,.05-.2,.07-.32,.02-.12,.02-.28,.02-.46,0-.98-.33-1.79-1-2.44-.67-.65-1.55-.97-2.62-.97Z"/>
      <path d="M617.33,676.75l.04-13.98c0-2.51-1.06-3.77-3.21-3.78-.52,0-1.08,.09-1.68,.27s-1.17,.45-1.73,.8c-.55,.35-1.05,.79-1.5,1.31-.45,.52-.78,1.12-.99,1.79l-.04,13.57h-5.06s.06-21.17,.06-21.17h3.96s.22,3.14,.22,3.14h.18c.65-1.29,1.65-2.24,3.02-2.87,1.37-.62,2.83-.93,4.4-.93,1.01,0,1.96,.14,2.85,.4,.89,.26,1.68,.69,2.37,1.27,.69,.58,1.23,1.35,1.63,2.3,.4,.95,.59,2.12,.59,3.5l-.04,14.4h-5.06Z"/>
      <path d="M650.81,642.52c-1.17,1.38-2.18,2.78-3.05,4.2s-1.57,2.92-2.13,4.48c-.56,1.56-.97,3.22-1.23,4.97-.27,1.75-.4,3.63-.41,5.66,0,1.2,.06,2.53,.2,4,.13,1.47,.43,3.04,.89,4.69,.46,1.66,1.12,3.38,2.01,5.16,.89,1.78,2.08,3.58,3.57,5.39l-3.08,1.14c-2.94-2.65-5.21-5.73-6.83-9.26s-2.42-7.26-2.41-11.18c0-3.93,.83-7.63,2.47-11.13,1.63-3.49,3.93-6.58,6.88-9.27l3.12,1.16Z"/>
      <path d="M658.93,653.81c0,.64,.14,1.2,.43,1.66,.29,.46,.7,.86,1.22,1.2,.52,.34,1.14,.66,1.86,.95,.72,.29,1.52,.59,2.41,.9,1.1,.4,2.2,.86,3.29,1.37s2.07,1.14,2.94,1.89,1.58,1.68,2.13,2.79,.82,2.44,.82,4c0,1.66-.31,3.05-.91,4.18-.6,1.13-1.41,2.04-2.42,2.73-1.01,.69-2.18,1.18-3.5,1.49-1.32,.3-2.69,.45-4.1,.45-2.02,0-3.92-.26-5.68-.75-1.76-.49-3.27-1.1-4.53-1.81l1.39-4.96c1.16,.89,2.46,1.63,3.88,2.22,1.42,.59,3.06,.88,4.9,.89,1.96,0,3.39-.34,4.28-1.02,.89-.69,1.34-1.61,1.34-2.78,0-.89-.21-1.65-.64-2.28-.43-.63-.96-1.17-1.61-1.61-.64-.45-1.33-.81-2.04-1.09-.72-.28-1.36-.51-1.91-.7-.98-.31-1.98-.68-2.99-1.11-1.01-.43-1.94-.99-2.8-1.69-.86-.69-1.55-1.56-2.09-2.6-.53-1.04-.8-2.35-.8-3.91,0-1.47,.26-2.71,.77-3.72,.51-1.01,1.2-1.83,2.08-2.46,.88-.63,1.9-1.08,3.09-1.35,1.18-.27,2.46-.41,3.84-.4,1.69,0,3.32,.18,4.9,.52,1.58,.34,2.9,.76,3.97,1.25l-1.25,4.87c-.55-.37-1.15-.69-1.79-.97-.64-.28-1.31-.51-2-.7-.69-.19-1.38-.33-2.07-.44-.69-.11-1.34-.17-1.96-.17-1.38,0-2.47,.25-3.27,.77s-1.2,1.32-1.2,2.39Z"/>
      <path d="M683.89,658.89c.86-1.35,1.87-2.32,3.02-2.91,1.15-.59,2.51-.89,4.07-.89,.92,0,1.81,.14,2.67,.4,.86,.26,1.62,.69,2.27,1.27,.66,.58,1.18,1.35,1.56,2.3,.38,.95,.57,2.12,.57,3.5l-.04,14.4h-5.06s.04-14,.04-14c0-1.26-.27-2.2-.82-2.83-.55-.63-1.3-.95-2.25-.95-.58,0-1.19,.09-1.82,.27-.63,.18-1.22,.46-1.77,.82-.55,.37-1.04,.81-1.48,1.33-.43,.52-.75,1.1-.97,1.75l-.04,13.57h-5.06s.09-34.05,.09-34.05h5.06s-.04,16.02-.04,16.02Z"/>
      <path d="M713.66,655.16c1.87,0,3.48,.32,4.83,.96,1.35,.63,2.46,1.48,3.33,2.54,.87,1.06,1.51,2.27,1.92,3.64,.41,1.37,.61,2.8,.61,4.3,0,1.5-.21,2.92-.63,4.25-.42,1.33-1.07,2.5-1.94,3.49-.88,.99-1.98,1.78-3.32,2.36-1.33,.58-2.91,.87-4.72,.86-1.87,0-3.48-.32-4.83-.93-1.35-.62-2.46-1.44-3.35-2.47-.89-1.03-1.54-2.22-1.97-3.57-.43-1.35-.64-2.78-.63-4.28,0-1.5,.22-2.93,.66-4.28s1.09-2.53,1.96-3.56,1.99-1.83,3.34-2.43c1.35-.59,2.93-.89,4.74-.88Zm.04,18.58c.89,0,1.66-.19,2.32-.57s1.21-.9,1.64-1.56c.43-.66,.75-1.42,.95-2.28,.2-.86,.3-1.76,.31-2.71,0-.98-.1-1.92-.31-2.83-.21-.9-.54-1.7-.98-2.39-.44-.69-1-1.24-1.67-1.66-.67-.42-1.49-.62-2.44-.63-.89,0-1.66,.19-2.3,.57s-1.18,.89-1.59,1.54c-.42,.64-.72,1.39-.93,2.25-.2,.86-.3,1.76-.31,2.71,0,.98,.09,1.93,.29,2.83,.2,.91,.52,1.71,.96,2.42,.44,.71,1,1.27,1.67,1.68,.67,.42,1.47,.62,2.39,.63Z"/>
      <path d="M741.57,660.52c-.31-.25-.78-.45-1.43-.6-.64-.15-1.19-.23-1.65-.23-.61,0-1.12,.14-1.52,.43-.4,.29-.75,.67-1.06,1.15-.31,.47-.57,1.02-.79,1.63-.22,.61-.42,1.24-.6,1.88l-.03,12.28h-5.06s.06-21.17,.06-21.17h3.96s.22,4.43,.22,4.43h.18c.31-.64,.63-1.27,.97-1.88,.34-.61,.72-1.16,1.16-1.63,.43-.47,.93-.86,1.5-1.15,.57-.29,1.23-.43,2-.43,1.23,0,2.38,.41,3.45,1.21l-1.34,4.09Z"/>
      <path d="M747.64,659.02h-2.62s0-2.77,0-2.77l2.99-.45,.84-6.25h3.86s-.02,6.4-.02,6.4h4.05s0,3.09,0,3.09h-4.05s-.03,12.13-.03,12.13c0,.92,.09,1.54,.27,1.86,.18,.32,.54,.48,1.06,.49,.4,0,.8-.07,1.2-.23,.4-.15,.98-.44,1.75-.87l.82,3.64c-.58,.49-1.4,.88-2.46,1.17-1.06,.29-2.11,.43-3.15,.43-.92,0-1.68-.13-2.28-.37-.6-.25-1.06-.61-1.4-1.08-.34-.48-.56-1.05-.68-1.73-.12-.67-.18-1.43-.18-2.25l.04-13.2Z"/>
      <path d="M762.69,641.67c2.94,2.71,5.21,5.81,6.83,9.31s2.42,7.21,2.41,11.14c-.01,3.93-.83,7.65-2.47,11.17-1.64,3.52-3.93,6.6-6.88,9.23l-3.08-1.16c1.51-1.81,2.71-3.6,3.6-5.37,.89-1.78,1.57-3.49,2.04-5.15,.46-1.66,.77-3.22,.91-4.69,.14-1.47,.21-2.8,.22-4,0-2.02-.12-3.91-.38-5.66-.26-1.75-.66-3.41-1.21-4.97-.55-1.56-1.25-3.06-2.1-4.49-.86-1.43-1.86-2.83-3.03-4.22l3.13-1.14Z"/>
    </g>
    <circle class="cls-1" cx="801.75" cy="409.09" r="47.01"/>
    <line class="cls-1" x1="801.29" y1="458.49" x2="800.13" y2="684.45"/>
    <circle class="cls-1" cx="721.56" cy="310.59" r="47.01"/>
    <line class="cls-1" x1="721.13" y1=".45" x2="721.14" y2="265.81"/>
    <g>
      <path d="M10.04,364.58c0,.64,.15,1.2,.44,1.66,.29,.46,.7,.86,1.22,1.2,.52,.34,1.14,.65,1.86,.94,.72,.29,1.52,.59,2.42,.9,1.1,.4,2.2,.85,3.29,1.36,1.09,.51,2.07,1.13,2.94,1.89s1.59,1.68,2.14,2.78c.55,1.1,.83,2.44,.83,4,0,1.66-.3,3.05-.9,4.19-.6,1.14-1.4,2.05-2.42,2.74-1.01,.69-2.18,1.19-3.5,1.49-1.32,.31-2.68,.46-4.09,.46-2.02,0-3.92-.25-5.68-.74-1.76-.49-3.27-1.09-4.53-1.79l1.38-4.97c1.17,.89,2.46,1.63,3.89,2.21,1.43,.58,3.06,.87,4.9,.87,1.96,0,3.39-.35,4.28-1.04,.89-.69,1.33-1.62,1.33-2.78,0-.89-.21-1.65-.64-2.28-.43-.63-.97-1.17-1.61-1.61-.64-.44-1.33-.81-2.05-1.08-.72-.28-1.36-.51-1.91-.69-.98-.31-1.98-.67-2.99-1.1-1.01-.43-1.95-.99-2.81-1.68-.86-.69-1.56-1.56-2.09-2.6-.54-1.04-.8-2.35-.8-3.91,0-1.47,.25-2.71,.76-3.73,.51-1.01,1.2-1.83,2.07-2.46,.87-.63,1.9-1.08,3.08-1.36,1.18-.28,2.46-.41,3.84-.41,1.69,0,3.32,.17,4.9,.51,1.58,.34,2.91,.75,3.98,1.24l-1.24,4.88c-.55-.37-1.15-.69-1.79-.97-.64-.28-1.31-.51-2-.69s-1.38-.33-2.07-.44c-.69-.11-1.34-.16-1.96-.16-1.38,0-2.47,.26-3.27,.78-.8,.52-1.2,1.32-1.2,2.39Z"/>
      <path d="M39.85,365.77c2.7,0,4.78,.68,6.26,2.05,1.47,1.37,2.21,3.29,2.21,5.77,0,.34-.02,.7-.07,1.08-.05,.38-.11,.76-.18,1.13-.08,.37-.17,.7-.28,.99-.11,.29-.22,.53-.35,.71h-13.39c.06,.92,.23,1.79,.51,2.6,.28,.81,.67,1.52,1.2,2.12,.52,.6,1.16,1.07,1.91,1.43,.75,.35,1.63,.53,2.65,.53,1.13,0,2.34-.21,3.61-.64,1.27-.43,2.35-.97,3.24-1.61l.83,3.77c-.4,.25-.89,.51-1.47,.81-.58,.29-1.24,.56-1.98,.81-.74,.25-1.53,.45-2.37,.62-.84,.17-1.72,.25-2.65,.25-1.72,0-3.24-.3-4.55-.9-1.32-.6-2.42-1.41-3.31-2.44-.89-1.03-1.56-2.21-2.02-3.56-.46-1.35-.69-2.76-.69-4.23s.24-2.94,.71-4.3c.48-1.36,1.17-2.57,2.09-3.61,.92-1.04,2.06-1.86,3.43-2.46,1.36-.6,2.92-.9,4.67-.9Zm-.14,3.96c-1.29,0-2.38,.38-3.29,1.13-.9,.75-1.56,1.77-1.96,3.06h8.79c.03-.09,.05-.2,.07-.32,.01-.12,.02-.28,.02-.46,0-.98-.34-1.79-1.01-2.44-.67-.64-1.55-.97-2.62-.97Z"/>
      <path d="M58.8,387.62h-5.06v-34.04h5.06v34.04Z"/>
      <path d="M70.76,387.62h-5.06v-34.04h5.06v34.04Z"/>
      <path d="M93.39,364.58c0,.64,.15,1.2,.44,1.66,.29,.46,.7,.86,1.22,1.2,.52,.34,1.14,.65,1.86,.94,.72,.29,1.52,.59,2.42,.9,1.1,.4,2.2,.85,3.29,1.36,1.09,.51,2.07,1.13,2.94,1.89s1.59,1.68,2.14,2.78c.55,1.1,.83,2.44,.83,4,0,1.66-.3,3.05-.9,4.19-.6,1.14-1.4,2.05-2.42,2.74-1.01,.69-2.18,1.19-3.5,1.49-1.32,.31-2.68,.46-4.09,.46-2.02,0-3.92-.25-5.68-.74-1.76-.49-3.27-1.09-4.53-1.79l1.38-4.97c1.17,.89,2.46,1.63,3.89,2.21,1.43,.58,3.06,.87,4.9,.87,1.96,0,3.39-.35,4.28-1.04,.89-.69,1.33-1.62,1.33-2.78,0-.89-.21-1.65-.64-2.28-.43-.63-.97-1.17-1.61-1.61-.64-.44-1.33-.81-2.05-1.08-.72-.28-1.36-.51-1.91-.69-.98-.31-1.98-.67-2.99-1.1-1.01-.43-1.95-.99-2.81-1.68-.86-.69-1.56-1.56-2.09-2.6-.54-1.04-.8-2.35-.8-3.91,0-1.47,.25-2.71,.76-3.73,.51-1.01,1.2-1.83,2.07-2.46,.87-.63,1.9-1.08,3.08-1.36,1.18-.28,2.46-.41,3.84-.41,1.69,0,3.32,.17,4.9,.51,1.58,.34,2.91,.75,3.98,1.24l-1.24,4.88c-.55-.37-1.15-.69-1.79-.97-.64-.28-1.31-.51-2-.69s-1.38-.33-2.07-.44c-.69-.11-1.34-.16-1.96-.16-1.38,0-2.47,.26-3.27,.78-.8,.52-1.2,1.32-1.2,2.39Z"/>
      <path d="M113.95,369.54h-2.62v-2.76l2.99-.46,.83-6.26h3.86v6.39h4.05v3.08h-4.05v12.14c0,.92,.09,1.54,.28,1.86,.18,.32,.54,.48,1.06,.48,.4,0,.8-.08,1.2-.23,.4-.15,.98-.44,1.75-.87l.83,3.63c-.58,.49-1.4,.88-2.46,1.17-1.06,.29-2.11,.44-3.15,.44-.92,0-1.68-.12-2.28-.37s-1.07-.61-1.4-1.08c-.34-.48-.57-1.05-.69-1.73-.12-.67-.18-1.43-.18-2.25v-13.2Z"/>
      <path d="M137.69,365.77c1.87,0,3.48,.31,4.83,.94,1.35,.63,2.46,1.47,3.33,2.53s1.52,2.27,1.93,3.63c.41,1.37,.62,2.8,.62,4.3s-.21,2.92-.62,4.25-1.06,2.5-1.93,3.5c-.87,1-1.98,1.79-3.31,2.37-1.33,.58-2.91,.87-4.71,.87s-3.48-.31-4.83-.92c-1.35-.61-2.47-1.43-3.36-2.46-.89-1.03-1.55-2.21-1.98-3.56-.43-1.35-.64-2.77-.64-4.28s.21-2.93,.64-4.28c.43-1.35,1.08-2.54,1.95-3.56,.87-1.03,1.99-1.84,3.34-2.44,1.35-.6,2.93-.9,4.74-.9Zm.09,18.58c.89,0,1.66-.19,2.32-.57,.66-.38,1.2-.9,1.63-1.56,.43-.66,.74-1.42,.94-2.28,.2-.86,.3-1.76,.3-2.71s-.11-1.92-.32-2.83c-.21-.9-.54-1.7-.99-2.39-.44-.69-1-1.24-1.68-1.66-.67-.41-1.49-.62-2.44-.62-.89,0-1.66,.19-2.3,.58-.64,.38-1.17,.9-1.59,1.54s-.72,1.4-.92,2.25c-.2,.86-.3,1.76-.3,2.71s.1,1.92,.3,2.83c.2,.9,.52,1.71,.97,2.42,.44,.71,1,1.27,1.68,1.68,.67,.41,1.47,.62,2.39,.62Z"/>
      <path d="M165.29,365.77c1.66,0,3.08,.31,4.28,.94,1.2,.63,2.19,1.46,2.97,2.51,.78,1.04,1.36,2.25,1.73,3.61,.37,1.36,.55,2.78,.55,4.25s-.19,2.93-.58,4.28c-.38,1.35-.97,2.53-1.77,3.54-.8,1.01-1.79,1.81-2.99,2.39-1.2,.58-2.62,.87-4.28,.87-1.38,0-2.66-.2-3.84-.6-1.18-.4-2.12-1.04-2.83-1.93v13.94h-5.01v-33.12h4.05l.37,2.9h.18c.4-.49,.87-.96,1.43-1.4,.55-.44,1.15-.83,1.79-1.15,.64-.32,1.3-.58,1.98-.76,.67-.18,1.33-.28,1.98-.28Zm-.83,3.86c-.46,0-.97,.07-1.52,.21-.55,.14-1.1,.34-1.63,.6-.54,.26-1.05,.58-1.54,.94-.49,.37-.91,.78-1.24,1.24v8.97c.92,1.13,1.86,1.85,2.83,2.14,.97,.29,1.85,.44,2.65,.44,1.01,0,1.88-.18,2.6-.55,.72-.37,1.32-.87,1.79-1.5,.48-.63,.83-1.36,1.06-2.21,.23-.84,.35-1.75,.35-2.74,0-.92-.1-1.83-.3-2.74-.2-.9-.52-1.71-.97-2.42-.44-.71-1-1.28-1.68-1.72-.68-.44-1.47-.67-2.39-.67Z"/>
      <path d="M205.12,357.03c2.39,0,4.51,.41,6.35,1.24,1.84,.83,3.39,1.96,4.65,3.38,1.26,1.43,2.21,3.07,2.85,4.94,.64,1.87,.97,3.83,.97,5.89s-.31,3.98-.94,5.86c-.63,1.89-1.58,3.56-2.85,5.01-1.27,1.46-2.85,2.62-4.74,3.5-1.89,.87-4.09,1.31-6.6,1.31s-4.58-.41-6.39-1.24c-1.81-.83-3.31-1.95-4.51-3.36-1.2-1.41-2.09-3.04-2.69-4.9-.6-1.86-.9-3.81-.9-5.87,0-2.18,.33-4.22,.99-6.14,.66-1.92,1.62-3.59,2.88-5.01,1.26-1.43,2.81-2.55,4.65-3.38,1.84-.83,3.94-1.24,6.3-1.24Zm-.23,26.63c1.69,0,3.12-.28,4.3-.85,1.18-.57,2.15-1.35,2.92-2.35,.77-1,1.33-2.17,1.68-3.52,.35-1.35,.53-2.79,.53-4.32,0-1.66-.18-3.16-.55-4.51-.37-1.35-.94-2.51-1.7-3.5-.77-.98-1.74-1.74-2.92-2.28-1.18-.54-2.57-.81-4.16-.81s-3.01,.27-4.16,.81c-1.15,.54-2.09,1.28-2.81,2.23-.72,.95-1.24,2.09-1.56,3.4-.32,1.32-.48,2.78-.48,4.37,0,3.74,.77,6.56,2.3,8.46,1.53,1.9,3.74,2.85,6.62,2.85Z"/>
      <path d="M237.09,371.06c-.31-.25-.78-.44-1.43-.6-.64-.15-1.2-.23-1.66-.23-.61,0-1.12,.15-1.52,.44-.4,.29-.75,.68-1.06,1.15-.31,.48-.57,1.02-.78,1.63-.21,.61-.41,1.24-.6,1.89v12.28h-5.06v-21.16h3.96l.23,4.42h.18c.31-.64,.63-1.27,.97-1.89,.34-.61,.72-1.16,1.15-1.63,.43-.48,.93-.86,1.49-1.15,.57-.29,1.23-.44,2-.44,1.23,0,2.38,.4,3.45,1.2l-1.33,4.09Z"/>
      <path d="M250.2,388.17c-1.44,0-2.76-.29-3.96-.87-1.2-.58-2.22-1.38-3.06-2.39-.84-1.01-1.5-2.21-1.96-3.59-.46-1.38-.69-2.88-.69-4.51,0-1.44,.19-2.83,.57-4.16,.38-1.33,.97-2.51,1.77-3.52,.8-1.01,1.79-1.82,2.97-2.44,1.18-.61,2.58-.92,4.21-.92,1.47,0,2.79,.25,3.96,.74,1.17,.49,2.1,1.18,2.81,2.07v-15h5.01v34.04h-4.05l-.37-2.9h-.18c-.86,.95-1.83,1.76-2.92,2.44-1.09,.67-2.46,1.01-4.12,1.01Zm.64-3.82c.49,0,1.01-.07,1.56-.21,.55-.14,1.1-.33,1.63-.57,.54-.25,1.05-.54,1.54-.9,.49-.35,.9-.76,1.24-1.22v-8.83c-.92-1.13-1.86-1.91-2.81-2.32-.95-.41-1.87-.62-2.76-.62-.98,0-1.82,.19-2.53,.57-.71,.38-1.3,.91-1.77,1.59-.48,.67-.83,1.45-1.06,2.32s-.35,1.79-.35,2.74,.11,1.83,.32,2.74c.21,.9,.54,1.7,.97,2.39,.43,.69,.98,1.25,1.66,1.68,.67,.43,1.46,.64,2.35,.64Z"/>
      <path d="M277.8,365.77c2.7,0,4.78,.68,6.26,2.05,1.47,1.37,2.21,3.29,2.21,5.77,0,.34-.02,.7-.07,1.08-.05,.38-.11,.76-.18,1.13-.08,.37-.17,.7-.28,.99-.11,.29-.22,.53-.35,.71h-13.39c.06,.92,.23,1.79,.51,2.6,.28,.81,.67,1.52,1.2,2.12,.52,.6,1.16,1.07,1.91,1.43,.75,.35,1.63,.53,2.65,.53,1.13,0,2.34-.21,3.61-.64,1.27-.43,2.35-.97,3.24-1.61l.83,3.77c-.4,.25-.89,.51-1.47,.81-.58,.29-1.24,.56-1.98,.81-.74,.25-1.53,.45-2.37,.62-.84,.17-1.72,.25-2.65,.25-1.72,0-3.24-.3-4.55-.9-1.32-.6-2.42-1.41-3.31-2.44-.89-1.03-1.56-2.21-2.02-3.56-.46-1.35-.69-2.76-.69-4.23s.24-2.94,.71-4.3c.48-1.36,1.17-2.57,2.09-3.61,.92-1.04,2.06-1.86,3.43-2.46,1.36-.6,2.92-.9,4.67-.9Zm-.14,3.96c-1.29,0-2.38,.38-3.29,1.13-.9,.75-1.56,1.77-1.96,3.06h8.79c.03-.09,.05-.2,.07-.32,.01-.12,.02-.28,.02-.46,0-.98-.34-1.79-1.01-2.44-.67-.64-1.55-.97-2.62-.97Z"/>
      <path d="M303.52,371.06c-.31-.25-.78-.44-1.43-.6-.64-.15-1.2-.23-1.66-.23-.61,0-1.12,.15-1.52,.44-.4,.29-.75,.68-1.06,1.15-.31,.48-.57,1.02-.78,1.63-.21,.61-.41,1.24-.6,1.89v12.28h-5.06v-21.16h3.96l.23,4.42h.18c.31-.64,.63-1.27,.97-1.89,.34-.61,.72-1.16,1.15-1.63,.43-.48,.93-.86,1.49-1.15,.57-.29,1.23-.44,2-.44,1.23,0,2.38,.4,3.45,1.2l-1.33,4.09Z"/>
      <path d="M325.04,387.62h-5.29v-30.36h5.29v13.25c1.75-1.66,3.31-3.27,4.69-4.83,1.29-1.47,2.45-2.91,3.5-4.3,1.04-1.4,1.95-2.77,2.71-4.12h5.79c-1.35,1.84-2.64,3.53-3.86,5.06-1.23,1.53-2.58,3.13-4.05,4.78-.55,.61-1.12,1.24-1.7,1.89-.58,.64-1.18,1.29-1.79,1.93l13.57,16.7h-6.12l-10.81-13.29-1.93,1.79v11.5Z"/>
      <path d="M351.31,366.46v13.75c0,1.26,.33,2.22,.99,2.88,.66,.66,1.51,.99,2.55,.99s2.05-.36,2.94-1.08c.89-.72,1.55-1.76,1.98-3.1v-13.43h5.11v21.16h-3.96l-.28-2.94h-.18c-.34,.71-.77,1.28-1.29,1.72-.52,.45-1.1,.8-1.72,1.06-.63,.26-1.28,.44-1.96,.55-.67,.11-1.33,.16-1.98,.16-1.01,0-1.96-.12-2.83-.37s-1.64-.65-2.3-1.22c-.66-.57-1.18-1.32-1.56-2.25-.38-.94-.58-2.09-.58-3.47v-14.4h5.06Z"/>
      <path d="M383.33,371.06c-.31-.25-.78-.44-1.43-.6-.64-.15-1.2-.23-1.66-.23-.61,0-1.12,.15-1.52,.44-.4,.29-.75,.68-1.06,1.15-.31,.48-.57,1.02-.78,1.63-.21,.61-.41,1.24-.6,1.89v12.28h-5.06v-21.16h3.96l.23,4.42h.18c.31-.64,.63-1.27,.97-1.89,.34-.61,.72-1.16,1.15-1.63,.43-.48,.93-.86,1.5-1.15,.57-.29,1.23-.44,2-.44,1.23,0,2.38,.4,3.45,1.2l-1.33,4.09Z"/>
      <path d="M394.87,369.54c-1.01,0-1.8,.19-2.37,.58-.57,.38-.85,.93-.85,1.63,0,.46,.16,.88,.48,1.27,.32,.38,1,.7,2.05,.94l3.27,.74c1.29,.28,2.32,.67,3.1,1.2,.78,.52,1.4,1.09,1.84,1.7,.44,.61,.74,1.24,.9,1.89,.15,.64,.23,1.24,.23,1.79,0,.98-.2,1.89-.6,2.74-.4,.84-.97,1.57-1.7,2.19-.74,.61-1.63,1.1-2.67,1.45-1.04,.35-2.21,.53-3.5,.53-1.63,0-3.13-.24-4.51-.71s-2.48-1-3.31-1.59l1.2-4.37c1.04,1.01,2.22,1.76,3.52,2.25,1.3,.49,2.51,.74,3.61,.74,1.17,0,2.05-.25,2.67-.76,.61-.51,.92-1.2,.92-2.09,0-.52-.15-.96-.46-1.31-.31-.35-.92-.65-1.84-.9l-4.42-1.1c-1.04-.25-1.89-.6-2.55-1.06-.66-.46-1.18-.97-1.56-1.54-.38-.57-.64-1.16-.78-1.77-.14-.61-.21-1.2-.21-1.75,0-2.05,.72-3.64,2.16-4.76,1.44-1.12,3.31-1.68,5.61-1.68,1.2,0,2.48,.16,3.86,.48,1.38,.32,2.54,.79,3.5,1.4l-1.33,4.14c-.61-.49-1.47-.99-2.58-1.49-1.1-.51-2.33-.76-3.68-.76Z"/>
    </g>
  </g>
</svg>